<svg width="92" height="92" viewBox="0 0 92 92" fill="none" xmlns="http://www.w3.org/2000/svg">
<g filter="url(#filter0_d_211_30057)">
<circle cx="46.1" cy="20.9574" r="20.1" fill="#AE285D"/>
</g>
<path d="M46.1854 10.6875C47.3311 12.6556 48.4866 14.6178 49.6198 16.5933C47.7882 19.8244 45.9829 23.0711 44.0893 26.2667C43.3627 27.4933 42.656 28.7315 41.9377 29.9622C39.6084 29.9763 37.2792 29.9755 34.9499 29.9722C35.021 29.8126 35.0912 29.6523 35.1772 29.5002C38.8447 23.2282 42.5262 16.9645 46.1854 10.6875Z" fill="white"/>
<path d="M46.1855 22.6858C48.523 22.685 50.8605 22.6685 53.1981 22.7073C54.59 25.1341 56.0266 27.5345 57.4061 29.9679C55.0686 29.9795 52.7319 29.9704 50.3943 29.9687C49.0032 27.5337 47.5501 25.1358 46.1855 22.6858Z" fill="white"/>
<defs>
<filter id="filter0_d_211_30057" x="0.89908" y="0.85742" width="90.4018" height="90.4011" filterUnits="userSpaceOnUse" color-interpolation-filters="sRGB">
<feFlood flood-opacity="0" result="BackgroundImageFix"/>
<feColorMatrix in="SourceAlpha" type="matrix" values="0 0 0 0 0 0 0 0 0 0 0 0 0 0 0 0 0 0 127 0" result="hardAlpha"/>
<feMorphology radius="12.5505" operator="erode" in="SourceAlpha" result="effect1_dropShadow_211_30057"/>
<feOffset dy="25.1009"/>
<feGaussianBlur stdDeviation="18.8257"/>
<feColorMatrix type="matrix" values="0 0 0 0 0 0 0 0 0 0 0 0 0 0 0 0 0 0 0.24 0"/>
<feBlend mode="normal" in2="BackgroundImageFix" result="effect1_dropShadow_211_30057"/>
<feBlend mode="normal" in="SourceGraphic" in2="effect1_dropShadow_211_30057" result="shape"/>
</filter>
</defs>
</svg>
