<svg width="27" height="36" viewBox="0 0 27 36" fill="none" xmlns="http://www.w3.org/2000/svg">
<path fill-rule="evenodd" clip-rule="evenodd" d="M14.0443 35.6536H12.804C10.4683 35.6536 8.57605 33.7613 8.57605 31.4265V19.9514C8.57605 19.7611 8.7307 19.6064 8.92183 19.6064H17.9265C18.1176 19.6064 18.2714 19.7611 18.2714 19.9514V31.4265C18.2714 33.7613 16.3792 35.6536 14.0443 35.6536Z" fill="#85AAAA"/>
<mask id="mask0_904_600" style="mask-type:alpha" maskUnits="userSpaceOnUse" x="0" y="0" width="27" height="27">
<path fill-rule="evenodd" clip-rule="evenodd" d="M0.467163 0.57135H26.3794V26.4836H0.467163V0.57135Z" fill="white"/>
</mask>
<g mask="url(#mask0_904_600)">
<path fill-rule="evenodd" clip-rule="evenodd" d="M26.3802 13.5271C26.3802 20.6822 20.5796 26.4836 13.4237 26.4836C6.26853 26.4836 0.467163 20.6822 0.467163 13.5271C0.467163 6.37193 6.26853 0.57135 13.4237 0.57135C20.5796 0.57135 26.3802 6.37193 26.3802 13.5271Z" fill="#2277F1"/>
</g>
<path fill-rule="evenodd" clip-rule="evenodd" d="M19.0799 29.8917H7.85707C7.44625 29.8917 7.11316 29.5586 7.11316 29.1478V28.9297C7.11316 28.5181 7.44625 28.185 7.85707 28.185H19.0799C19.4915 28.185 19.8238 28.5181 19.8238 28.9297V29.1478C19.8238 29.5586 19.4915 29.8917 19.0799 29.8917Z" fill="#004343"/>
<path fill-rule="evenodd" clip-rule="evenodd" d="M19.0799 28.1852H7.85707C7.44625 28.1852 7.11316 27.8521 7.11316 27.4413V27.2224C7.11316 26.8115 7.44625 26.4785 7.85707 26.4785H19.0799C19.4915 26.4785 19.8238 26.8115 19.8238 27.2224V27.4413C19.8238 27.8521 19.4915 28.1852 19.0799 28.1852Z" fill="#85AAAA"/>
<path fill-rule="evenodd" clip-rule="evenodd" d="M19.0799 26.4785H7.85707C7.44625 26.4785 7.11316 26.1455 7.11316 25.7346V25.5158C7.11316 25.1049 7.44625 24.7719 7.85707 24.7719H19.0799C19.4915 24.7719 19.8238 25.1049 19.8238 25.5158V25.7346C19.8238 26.1455 19.4915 26.4785 19.0799 26.4785Z" fill="#004343"/>
<path d="M11.7993 14.887V24.124" stroke="#F8F9D3" stroke-width="1.5"/>
<path d="M14.6609 14.887V24.124" stroke="#F8F9D3" stroke-width="1.5"/>
<path fill-rule="evenodd" clip-rule="evenodd" d="M14.7988 11.9833C14.7988 13.6319 13.4611 14.9695 11.8115 14.9695C10.1618 14.9695 8.8252 13.6319 8.8252 11.9833C8.8252 10.3336 10.1618 8.99701 11.8115 8.99701C13.4611 8.99701 14.7988 10.3336 14.7988 11.9833Z" stroke="#F8F9D3" stroke-width="1.5"/>
<path fill-rule="evenodd" clip-rule="evenodd" d="M18.4048 11.9833C18.4048 13.6319 17.0671 14.9695 15.4185 14.9695C13.7688 14.9695 12.4312 13.6319 12.4312 11.9833C12.4312 10.3336 13.7688 8.99701 15.4185 8.99701C17.0671 8.99701 18.4048 10.3336 18.4048 11.9833Z" stroke="#F8F9D3" stroke-width="1.5"/>
</svg>
