<svg width="33" height="32" viewBox="0 0 33 32" fill="none" xmlns="http://www.w3.org/2000/svg">
<path d="M22.1247 25C22.1247 25.7956 21.8086 26.5587 21.246 27.1213C20.6834 27.6839 19.9203 28 19.1247 28C18.329 28 17.566 27.6839 17.0034 27.1213C16.4408 26.5587 16.1247 25.7956 16.1247 25V17" stroke="#005E9E" stroke-width="2.48735" stroke-linecap="round" stroke-linejoin="round"/>
<path d="M11.1247 17C11.1247 8 16.1247 4 16.1247 4C16.1247 4 21.1247 8 21.1247 17" stroke="#0BB8E4" stroke-width="2.48735" stroke-linecap="round" stroke-linejoin="round"/>
<path d="M4.16629 17C4.02755 16.9997 3.89037 16.9707 3.76343 16.9146C3.6365 16.8586 3.52258 16.7768 3.42888 16.6745C3.33518 16.5722 3.26374 16.4515 3.21908 16.3201C3.17441 16.1888 3.1575 16.0496 3.16941 15.9113C3.44255 12.6634 4.92574 9.63649 7.32513 7.43041C9.72452 5.22433 12.865 4 16.1245 4C19.3839 4 22.5244 5.22433 24.9238 7.43041C27.3232 9.63649 28.8064 12.6634 29.0795 15.9113C29.0914 16.0496 29.0745 16.1888 29.0299 16.3201C28.9852 16.4515 28.9138 16.5722 28.8201 16.6745C28.7264 16.7768 28.6124 16.8586 28.4855 16.9146C28.3586 16.9707 28.2214 16.9997 28.0827 17H4.16629Z" stroke="#005E9E" stroke-width="2.48735" stroke-linecap="round" stroke-linejoin="round"/>
</svg>
