<svg width="567" height="567" viewBox="0 0 567 567" fill="none" xmlns="http://www.w3.org/2000/svg">
<path d="M387.25 461.775C432.468 461.775 469.125 450.9 469.125 437.485C469.125 424.069 432.468 413.194 387.25 413.194C342.032 413.194 305.375 424.069 305.375 437.485C305.375 450.9 342.032 461.775 387.25 461.775Z" fill="#263238" stroke="#263238" stroke-width="1.35287" stroke-linecap="round" stroke-linejoin="round"/>
<path d="M387.249 424.365C425.976 424.365 458.408 432.303 466.924 443.065C468.269 441.508 469.045 439.541 469.124 437.485C469.124 424.059 432.462 413.184 387.249 413.184C342.037 413.184 305.363 424.059 305.363 437.485C305.443 439.541 306.219 441.508 307.563 443.065C316.08 432.348 348.512 424.365 387.249 424.365Z" fill="white" stroke="#263238" stroke-width="1.35287" stroke-linecap="round" stroke-linejoin="round"/>
<path d="M376.068 458.725C348.716 457.489 328.077 451.921 328.077 445.117C328.091 444.375 328.324 443.653 328.746 443.042" stroke="white" stroke-width="1.35287" stroke-linecap="round" stroke-linejoin="round"/>
<path d="M439.538 438.495C444.222 440.48 446.898 442.748 446.898 445.163C446.898 452.795 420.294 458.975 387.488 458.975H386.07" stroke="white" stroke-width="1.35287" stroke-linecap="round" stroke-linejoin="round"/>
<path d="M336.072 438.233C346.358 434.117 365.556 431.338 387.488 431.338C399.968 431.242 412.431 432.263 424.728 434.389" stroke="white" stroke-width="1.35287" stroke-linecap="round" stroke-linejoin="round"/>
<path d="M375.286 449.902C368.357 448.938 363.719 447.181 363.719 445.162C363.719 442.112 374.367 439.64 387.533 439.64C400.698 439.64 411.29 442.112 411.29 445.162C411.29 447.782 403.465 449.97 392.965 450.537" stroke="white" stroke-width="1.35287" stroke-linecap="round" stroke-linejoin="round"/>
<path opacity="0.2" d="M195.5 521C273.096 521 336 509.136 336 494.5C336 479.865 273.096 468 195.5 468C117.904 468 55 479.865 55 494.5C55 509.136 117.904 521 195.5 521Z" fill="black"/>
<path d="M184.444 355.886C184.045 355.891 183.653 355.785 183.31 355.579C182.814 355.273 182.455 354.788 182.308 354.224C182.16 353.661 182.235 353.062 182.517 352.552C183.072 351.576 323.28 198.679 387.43 142.614C387.654 142.435 387.938 142.346 388.224 142.367C388.51 142.388 388.778 142.517 388.973 142.728C389.159 142.953 389.252 143.241 389.23 143.533C389.209 143.824 389.076 144.097 388.859 144.293C325.026 200.119 186.894 353.81 186.338 354.774C186.149 355.111 185.874 355.391 185.542 355.586C185.209 355.781 184.83 355.885 184.444 355.886Z" fill="#263238"/>
<path d="M192.189 325.459C192.189 325.459 199.141 318.043 203.314 318.043C207.487 318.043 215.368 324.994 214.903 328.703C214.439 332.411 207.487 329.168 207.487 329.168C207.487 329.168 200.989 337.979 194.503 336.584C188.016 335.189 192.189 325.459 192.189 325.459Z" fill="#6DC4E5" stroke="#263238" stroke-width="1.35287" stroke-linecap="round" stroke-linejoin="round"/>
<path d="M207.521 329.144C207.521 329.144 211.774 332.092 212.148 334.167C212.522 336.242 207.43 342.105 201.772 343.421C196.113 344.736 193.085 341.527 194.786 338.51C196.487 335.494 203.235 329.416 207.521 329.144Z" fill="#6DC4E5" stroke="#263238" stroke-width="1.35287" stroke-linecap="round" stroke-linejoin="round"/>
<path d="M382.157 302.281V148.862C382.157 148.862 379.062 159.964 379.062 160.769" stroke="#263238" stroke-width="1.35287" stroke-linecap="round" stroke-linejoin="round"/>
<path d="M446.138 310.366H328.497V404.624H446.138V310.366Z" fill="#6DC4E5" stroke="#263238" stroke-width="1.35287" stroke-linecap="round" stroke-linejoin="round"/>
<path d="M383.836 309.969V304.571C383.836 304.213 383.693 303.87 383.44 303.617C383.187 303.364 382.844 303.222 382.486 303.222C382.128 303.222 381.785 303.364 381.532 303.617C381.279 303.87 381.137 304.213 381.137 304.571V309.969H383.836Z" fill="#263238"/>
<path d="M394.632 296.837V297.109C394.522 296.902 394.359 296.729 394.16 296.608C393.96 296.486 393.731 296.42 393.498 296.417C393.137 296.417 392.791 296.56 392.536 296.816C392.28 297.071 392.137 297.417 392.137 297.778V312.191C392.137 313.293 391.7 314.35 390.922 315.13C390.144 315.91 389.088 316.35 387.987 316.353C387.416 316.353 386.852 316.234 386.331 316.001C386.03 316.45 385.899 316.99 385.961 317.527C386.024 318.063 386.275 318.56 386.671 318.927C387.105 319.009 387.545 319.051 387.987 319.052C388.888 319.052 389.78 318.874 390.612 318.529C391.444 318.185 392.201 317.679 392.838 317.042C393.475 316.405 393.98 315.649 394.325 314.816C394.67 313.984 394.847 313.092 394.847 312.191V305.512H397.954L394.632 296.837Z" fill="#263238"/>
<path d="M382.271 147.421C382.271 147.421 384.675 138.882 382.543 139.676C380.411 140.47 382.271 147.421 382.271 147.421Z" stroke="#263238" stroke-width="1.35287" stroke-linecap="round" stroke-linejoin="round"/>
<path d="M382.271 147.421C382.271 147.421 373.199 144.211 374.004 147.149C374.809 150.086 382.271 147.421 382.271 147.421Z" stroke="#263238" stroke-width="1.35287" stroke-linecap="round" stroke-linejoin="round"/>
<path d="M186.644 221.846C186.644 221.846 175.452 215.574 153.497 218.716C131.543 221.857 127.359 239.955 130.942 258.769C134.525 277.582 155.289 293.514 158.43 292.176C161.571 290.838 157.534 248.721 164.701 240.659C171.868 232.596 195.16 233.945 196.453 227.674C197.746 221.403 186.644 221.846 186.644 221.846Z" fill="#263238" stroke="#263238" stroke-width="1.35287" stroke-linecap="round" stroke-linejoin="round"/>
<path d="M147.624 233.016L149.892 247.837C149.892 247.837 135.83 286.223 138.109 291.553C140.389 296.883 161.662 298.765 161.662 298.765C161.662 298.765 196.249 302.95 206.512 298.765C216.775 294.581 211.456 282.424 210.311 279.011C209.166 275.598 202.713 248.223 202.713 248.223C202.713 248.223 204.981 241.759 204.981 238.346C204.981 234.932 204.596 225.418 203.076 223.139C201.557 220.86 174.953 218.195 163.171 220.1C151.388 222.005 146.104 225.044 147.624 233.016Z" fill="#757575" stroke="#263238" stroke-width="1.35287" stroke-linecap="round" stroke-linejoin="round"/>
<path d="M153.714 250.127C153.714 250.127 153.328 283.183 155.233 289.647C157.138 296.111 164.736 303.708 180.692 301.803C196.647 299.898 198.178 284.703 198.178 284.703L197.044 249.367L153.714 250.127Z" fill="white" stroke="#263238" stroke-width="1.35287" stroke-linecap="round" stroke-linejoin="round"/>
<path d="M181.077 273.873C181.079 274.438 180.913 274.992 180.601 275.463C180.288 275.935 179.842 276.303 179.32 276.521C178.798 276.739 178.224 276.797 177.668 276.688C177.113 276.579 176.603 276.308 176.202 275.909C175.802 275.51 175.528 275 175.417 274.446C175.306 273.891 175.362 273.316 175.578 272.793C175.794 272.27 176.16 271.823 176.63 271.509C177.1 271.194 177.653 271.026 178.219 271.026C178.594 271.025 178.965 271.097 179.312 271.24C179.658 271.382 179.973 271.592 180.239 271.856C180.504 272.12 180.715 272.435 180.859 272.781C181.003 273.127 181.077 273.498 181.077 273.873Z" stroke="#263238" stroke-width="1.35287" stroke-miterlimit="10"/>
<path d="M180.691 285.849C180.691 286.226 180.579 286.595 180.369 286.908C180.159 287.222 179.861 287.466 179.512 287.61C179.164 287.754 178.78 287.791 178.41 287.716C178.04 287.642 177.701 287.459 177.435 287.192C177.169 286.924 176.988 286.583 176.916 286.213C176.844 285.843 176.883 285.459 177.029 285.112C177.175 284.764 177.421 284.467 177.736 284.259C178.051 284.051 178.42 283.941 178.797 283.943C179.047 283.943 179.294 283.993 179.525 284.089C179.755 284.185 179.964 284.325 180.14 284.502C180.316 284.679 180.456 284.889 180.55 285.12C180.645 285.351 180.693 285.599 180.691 285.849V285.849Z" fill="#263238"/>
<path d="M169.215 261.683C170.428 262.999 170.848 264.575 170.168 265.221C169.487 265.868 167.9 265.323 166.709 264.019C165.518 262.715 165.065 261.139 165.756 260.493C166.448 259.846 168.002 260.379 169.215 261.683Z" fill="#263238"/>
<path d="M184.649 261.683C183.436 262.999 183.005 264.575 183.697 265.221C184.388 265.868 185.965 265.323 187.099 264.019C188.233 262.715 188.743 261.139 188.051 260.493C187.359 259.846 185.863 260.379 184.649 261.683Z" fill="#263238"/>
<path d="M161.096 257.204C161.947 255.947 163.17 254.989 164.594 254.464C166.018 253.94 167.571 253.874 169.034 254.278" stroke="#263238" stroke-width="1.35287" stroke-linecap="round" stroke-linejoin="round"/>
<path d="M184.048 254.699C184.048 254.699 189.468 253.032 191.147 257.625" stroke="#263238" stroke-width="1.35287" stroke-linecap="round" stroke-linejoin="round"/>
<path d="M202.35 466.778C202.35 466.778 208.326 463.195 211.638 461.789C211.948 461.646 212.266 461.521 212.59 461.414C215.516 460.439 223.806 460.927 231.596 456.051C239.387 451.174 235.497 445.323 229.646 443.86C223.794 442.397 217.466 440.458 217.466 440.458L216.004 417.54C216.004 417.54 198.449 422.416 192.598 424.854C186.746 427.292 190.16 461.902 190.647 464.828C191.135 467.754 191.135 469.704 202.35 466.778Z" fill="#263238" stroke="#263238" stroke-width="1.35287" stroke-linecap="round" stroke-linejoin="round"/>
<path d="M221.855 456.052C211.649 458.003 211.649 459.953 200.4 461.904C197.105 462.561 193.745 462.835 190.387 462.72C190.5 463.763 190.591 464.501 190.648 464.829C191.135 467.755 191.135 469.706 202.35 466.78C202.35 466.78 208.327 463.196 211.638 461.79C211.948 461.648 212.266 461.523 212.59 461.416C215.516 460.441 223.806 460.928 231.596 456.052C234.102 454.499 235.384 452.832 235.803 451.244C231.376 453.429 226.689 455.045 221.855 456.052Z" fill="white" stroke="#263238" stroke-width="1.35287" stroke-linecap="round" stroke-linejoin="round"/>
<path d="M225.915 443.564C225.915 443.564 225.541 470.168 224.781 475.861C224.021 481.553 225.155 488.788 233.853 488.788C242.551 488.788 259.697 483.118 265.775 481.984C271.853 480.85 281.742 478.174 285.915 468.683C290.088 459.191 264.641 460.314 264.641 460.314L266.161 440.934C266.161 440.934 239.977 446.218 225.915 443.564Z" fill="#263238" stroke="#263238" stroke-width="1.35287" stroke-linecap="round" stroke-linejoin="round"/>
<path d="M285.961 468.649C286.426 467.727 286.539 466.667 286.278 465.667C283.673 469.204 280.141 471.951 276.072 473.605C267 477.404 249.843 481.543 236.926 483.493C231.018 484.355 227.276 483.391 224.929 482.099C225.768 485.784 228.229 488.812 233.887 488.812C242.63 488.812 259.731 483.142 265.809 482.008C271.888 480.874 281.787 478.141 285.961 468.649Z" fill="white" stroke="#263238" stroke-width="1.35287" stroke-linecap="round" stroke-linejoin="round"/>
<path d="M264.686 460.28C264.686 460.28 266.58 466.744 261.284 470.929" stroke="white" stroke-width="1.35287" stroke-linecap="round" stroke-linejoin="round"/>
<path d="M223.262 429.504C223.262 429.504 222.672 441.06 223.318 443.373C225.745 452.15 226.516 450.098 244.762 449.712C263.008 449.326 270.379 442.046 272.285 437.487C274.19 432.929 272.285 423.04 271.525 419.616C270.765 416.191 264.721 415.08 262.396 415.442C260.071 415.805 224.396 425.705 223.262 429.504Z" fill="#757575" stroke="#263238" stroke-width="1.35287" stroke-linecap="round" stroke-linejoin="round"/>
<path d="M97.8408 458.388V483.925C97.8493 484.925 98.1305 485.903 98.6541 486.754C99.1776 487.606 99.9238 488.298 100.812 488.756L141.863 509.951C142.593 510.33 143.4 510.54 144.223 510.563C145.046 510.587 145.863 510.424 146.614 510.087L207.09 487.032C208.055 486.6 208.875 485.898 209.45 485.011C210.025 484.123 210.332 483.089 210.334 482.032V451.164L141.16 472.064L97.8408 458.388Z" fill="#6DC4E5"/>
<path opacity="0.18" d="M144.21 471.143L141.171 472.062L97.8408 458.386V483.923C97.8493 484.923 98.1305 485.901 98.6541 486.752C99.1776 487.604 99.9238 488.296 100.812 488.754L141.863 509.949C142.589 510.328 143.391 510.538 144.21 510.561V471.143Z" fill="black"/>
<path d="M97.8408 458.388V483.925C97.8493 484.925 98.1305 485.903 98.6541 486.754C99.1776 487.606 99.9238 488.298 100.812 488.756L141.863 509.951C142.593 510.33 143.4 510.54 144.223 510.563C145.046 510.587 145.863 510.424 146.614 510.087L207.09 487.032C208.055 486.6 208.875 485.898 209.45 485.011C210.025 484.123 210.332 483.089 210.334 482.032V451.164L141.16 472.064L97.8408 458.388Z" stroke="#263238" stroke-width="1.35287" stroke-linecap="round" stroke-linejoin="round"/>
<path d="M161.028 415.272L94.6886 436.591C94.1701 436.758 93.7181 437.085 93.398 437.525C93.0779 437.965 92.9063 438.496 92.9082 439.041V457.956C92.9183 458.432 93.0603 458.897 93.3186 459.297C93.5769 459.697 93.9412 460.018 94.3711 460.224L140.616 482.235C140.927 482.384 141.265 482.468 141.61 482.484C141.955 482.5 142.299 482.446 142.623 482.326L212.058 456.346C212.549 456.163 212.973 455.835 213.272 455.406C213.572 454.976 213.734 454.465 213.736 453.941L213.861 436.194C213.857 435.607 213.654 435.038 213.285 434.581C212.917 434.124 212.404 433.805 211.831 433.677L162.343 415.204C161.906 415.117 161.454 415.14 161.028 415.272V415.272Z" fill="white"/>
<path d="M140.536 482.223C140.848 482.372 141.186 482.457 141.531 482.472C141.875 482.488 142.22 482.434 142.543 482.314L212.058 456.345C212.549 456.163 212.972 455.835 213.272 455.406C213.572 454.976 213.734 454.465 213.736 453.941L213.861 436.194C213.862 435.59 213.645 435.006 213.248 434.55L141.523 461.04L140.536 482.223Z" fill="#6DC4E5"/>
<path opacity="0.5" d="M140.536 482.223C140.848 482.372 141.186 482.457 141.531 482.472C141.875 482.488 142.22 482.434 142.543 482.314L212.058 456.345C212.549 456.163 212.972 455.835 213.272 455.406C213.572 454.976 213.734 454.465 213.736 453.941L213.861 436.194C213.862 435.59 213.645 435.006 213.248 434.55L141.523 461.04L140.536 482.223Z" fill="white"/>
<path d="M92.9082 438.983V457.898C92.9182 458.375 93.0603 458.839 93.3186 459.239C93.5769 459.64 93.9412 459.961 94.3711 460.166L140.616 482.234C140.924 482.383 141.26 482.468 141.602 482.484V461.04L92.9876 438.541C92.9437 438.685 92.917 438.833 92.9082 438.983V438.983Z" fill="#6DC4E5"/>
<path d="M161.028 415.272L94.6886 436.591C94.1701 436.758 93.7181 437.085 93.398 437.525C93.0779 437.965 92.9063 438.496 92.9082 439.041V457.956C92.9183 458.432 93.0603 458.897 93.3186 459.297C93.5769 459.697 93.9412 460.018 94.3711 460.224L140.616 482.235C140.927 482.384 141.265 482.468 141.61 482.484C141.955 482.5 142.299 482.446 142.623 482.326L212.058 456.346C212.549 456.163 212.973 455.835 213.272 455.406C213.572 454.976 213.734 454.465 213.736 453.941L213.861 436.194C213.857 435.607 213.654 435.038 213.285 434.581C212.917 434.124 212.404 433.805 211.831 433.677L162.343 415.204C161.906 415.117 161.454 415.14 161.028 415.272V415.272Z" stroke="#263238" stroke-width="1.35287" stroke-linecap="round" stroke-linejoin="round"/>
<path d="M252.144 380.48C252.144 380.48 260.876 384.653 265.446 393.022C270.016 401.391 266.58 417.335 263.915 422.28C261.25 427.224 243.401 429.503 237.323 429.503C231.244 429.503 230.099 428.743 230.099 428.743C230.099 428.743 210.719 432.542 198.551 434.822C186.383 437.101 189.479 408.604 193.233 395.676C196.986 382.748 218.317 376.296 227.06 376.296C235.803 376.296 252.144 380.48 252.144 380.48Z" fill="#263238" stroke="#263238" stroke-width="1.35287" stroke-linecap="round" stroke-linejoin="round"/>
<path d="M230.1 428.743C230.1 428.743 246.441 423.073 253.279 408.604" stroke="white" stroke-width="1.35287" stroke-linecap="round" stroke-linejoin="round"/>
<path d="M245.681 420.374C250.947 418.166 255.725 414.941 259.742 410.883" stroke="white" stroke-width="1.35287" stroke-linecap="round" stroke-linejoin="round"/>
<path d="M207.295 393.024C207.295 393.024 211.831 416.963 209.563 426.84C207.295 436.717 193.982 438.248 190.942 437.103C187.903 435.957 189.423 412.404 189.423 400.622C189.423 388.84 201.216 389.6 207.295 393.024Z" fill="#757575" stroke="#263238" stroke-width="1.35287" stroke-linecap="round" stroke-linejoin="round"/>
<path d="M110.383 329.168C110.383 329.168 107.73 344.738 109.624 352.359C110.588 356.603 112.397 360.61 114.942 364.141C114.942 364.141 105.439 378.203 107.344 389.974C109.249 401.744 114.148 403.275 114.148 403.275C114.148 403.275 109.975 424.946 117.55 432.544C125.125 440.142 141.875 448.499 160.495 445.086C179.115 441.673 191.657 440.902 195.456 434.438C199.255 427.974 196.976 399.476 196.976 399.476C196.976 399.476 196.216 367.94 195.456 348.549C194.696 329.157 192.054 313.587 182.914 305.989C173.774 298.392 133.506 310.174 121.349 318.146C109.193 326.118 110.383 329.168 110.383 329.168Z" fill="#6DC4E5"/>
<path opacity="0.3" d="M113.093 329.169C113.093 329.169 110.428 344.751 112.334 352.36C113.293 356.606 115.102 360.614 117.652 364.142C117.652 364.142 108.149 378.204 110.054 389.975C111.959 401.745 116.858 403.276 116.858 403.276C116.858 403.276 112.674 424.947 120.26 432.545C127.847 440.143 144.63 448.5 163.296 445.087C181.961 441.674 194.469 440.902 198.268 434.439C202.067 427.975 199.788 399.477 199.788 399.477C199.788 399.477 199.028 367.941 198.268 348.549C197.508 329.158 194.866 313.588 185.726 305.99C176.586 298.393 136.318 310.175 124.161 318.147C112.005 326.119 113.093 329.169 113.093 329.169Z" fill="black"/>
<path d="M110.383 329.168C110.383 329.168 107.73 344.738 109.624 352.359C110.588 356.603 112.397 360.61 114.942 364.141C114.942 364.141 105.439 378.203 107.344 389.974C109.249 401.744 114.148 403.275 114.148 403.275C114.148 403.275 109.975 424.946 117.55 432.544C125.125 440.142 141.875 448.499 160.495 445.086C179.115 441.673 191.657 440.902 195.456 434.438C199.255 427.974 196.976 399.476 196.976 399.476C196.976 399.476 196.216 367.94 195.456 348.549C194.696 329.157 192.054 313.587 182.914 305.989C173.774 298.392 133.506 310.174 121.349 318.146C109.193 326.118 110.383 329.168 110.383 329.168Z" stroke="#263238" stroke-width="1.35287" stroke-linecap="round" stroke-linejoin="round"/>
<path d="M114.941 364.141C120.825 368.154 127.556 370.754 134.61 371.737C141.664 372.721 148.85 372.062 155.607 369.811" stroke="#263238" stroke-width="1.35287" stroke-linecap="round" stroke-linejoin="round"/>
<path d="M114.182 403.274C114.182 403.274 133.562 422.28 165.495 404.034" stroke="#263238" stroke-width="1.35287" stroke-linecap="round" stroke-linejoin="round"/>
<path d="M189.809 310.548C189.809 310.548 182.596 299.525 172.708 293.447C162.819 287.369 137.372 282.81 127.11 280.905C116.847 279 105.825 279.771 102.785 291.111C99.7463 302.451 100.121 321.514 103.16 329.871C106.199 338.229 118.741 343.173 128.629 337.48C138.518 331.788 165.87 309.731 175.373 308.597C184.876 307.463 189.049 314.732 189.809 310.548Z" fill="#757575"/>
<path opacity="0.3" d="M168.728 308.451C174.522 306.035 160.03 310.378 159.066 308.927C158.102 307.475 169.204 300.24 171.619 299.277C174.035 298.313 157.614 301.692 158.102 299.277C158.59 296.861 174.035 296.374 163.409 293.958C152.783 291.543 118.049 285.26 111.245 282.845C110.725 282.676 110.232 282.431 109.782 282.119C108.023 283.027 106.484 284.31 105.275 285.877C104.066 287.445 103.216 289.259 102.785 291.191C99.7463 302.588 100.121 321.594 103.16 329.951C105.813 337.232 115.634 341.915 124.706 339.25C128.89 335.848 132.757 331.38 139.3 327.264C152.307 319.031 162.933 310.821 168.728 308.451Z" fill="black"/>
<path d="M189.809 310.548C189.809 310.548 182.596 299.525 172.708 293.447C162.819 287.369 137.372 282.81 127.11 280.905C116.847 279 105.825 279.771 102.785 291.111C99.7463 302.451 100.121 321.514 103.16 329.871C106.199 338.229 118.741 343.173 128.629 337.48C138.518 331.788 165.87 309.731 175.373 308.597C184.876 307.463 189.049 314.732 189.809 310.548Z" stroke="#263238" stroke-width="1.35287" stroke-linecap="round" stroke-linejoin="round"/>
<path d="M230.859 362.235C230.859 362.235 239.602 363.369 245.295 365.637C250.988 367.905 254.798 381.978 252.519 383.872C250.239 385.766 245.715 383.498 245.715 383.498C242.14 384.755 238.447 385.644 234.692 386.151C230.099 386.56 225.155 364.9 230.859 362.235Z" fill="#6DC4E5" stroke="#263238" stroke-width="1.35287" stroke-linecap="round" stroke-linejoin="round"/>
<path d="M201.976 361.089C201.976 361.089 203.496 361.089 211.853 357.29C220.211 353.491 227.06 353.491 232.379 361.826C237.697 370.161 239.976 380.457 236.915 386.536C233.853 392.614 222.479 396.798 216.389 396.798C210.3 396.798 209.585 388.86 209.585 388.86C209.585 388.86 208.825 376.318 205.049 371.76C201.273 367.201 200.456 362.234 201.976 361.089Z" fill="#757575" stroke="#263238" stroke-width="1.35287" stroke-linecap="round" stroke-linejoin="round"/>
<path d="M173.853 310.548C182.211 307.509 192.859 309.414 196.658 320.051C200.457 330.688 203.87 361.85 203.87 361.85C203.87 361.85 213.373 362.984 217.172 367.18C220.971 371.376 222.842 382.001 222.116 387.32C221.391 392.638 208.055 402.516 192.859 402.901C177.664 403.287 166.63 396.097 161.311 376.672C155.993 357.246 158.102 327.728 158.102 327.728C158.102 327.728 160.03 319.03 162.933 317.091" fill="#6DC4E5"/>
<path opacity="0.3" d="M222.116 387.319C222.876 382 220.982 371.352 217.172 367.179C217.025 367.009 216.843 366.85 216.685 366.691C217.14 370.107 217.413 373.544 217.501 376.988C218.261 399.294 187.087 395.563 180.805 379.404C177.403 370.706 176.45 332.547 166.312 329.655C160.461 327.988 158.465 332.569 157.83 336.754C157.626 347.697 157.989 364.56 161.311 376.671C166.63 396.062 177.652 403.274 192.859 402.9C208.066 402.526 221.357 392.637 222.116 387.319Z" fill="black"/>
<path d="M173.853 310.548C182.211 307.509 192.859 309.414 196.658 320.051C200.457 330.688 203.87 361.85 203.87 361.85C203.87 361.85 213.373 362.984 217.172 367.18C220.971 371.376 222.842 382.001 222.116 387.32C221.391 392.638 208.055 402.516 192.859 402.901C177.664 403.287 166.63 396.097 161.311 376.672C155.993 357.246 158.102 327.728 158.102 327.728C158.102 327.728 160.03 319.03 162.933 317.091" stroke="#263238" stroke-width="1.35287" stroke-linecap="round" stroke-linejoin="round"/>
<path d="M203.87 361.851C203.87 361.851 206.841 375.697 191.577 383.295" stroke="#263238" stroke-width="1.35287" stroke-linecap="round" stroke-linejoin="round"/>
<path d="M342.468 368.697L357.901 332.262H367.144V368.697H371.147V376.397H367.144V386.183H358.82V376.397H342.468V368.697ZM358.797 368.697V348.444L350.247 368.697H358.797Z" fill="white"/>
<path d="M374.311 345.201C374.311 336.582 378.847 331.593 387.17 331.593C395.494 331.593 400.03 336.526 400.03 345.201V373.233C400.03 381.863 395.494 386.841 387.17 386.841C378.847 386.841 374.311 381.908 374.311 373.233V345.201ZM382.782 373.778C382.782 377.633 384.471 379.096 387.17 379.096C389.869 379.096 391.559 377.633 391.559 373.778V344.668C391.559 340.812 389.858 339.349 387.17 339.349C384.483 339.349 382.782 340.812 382.782 344.668V373.778Z" fill="white"/>
<path d="M403.5 368.697L418.9 332.262H428.142V368.697H432.145V376.397H428.142V386.183H419.818V376.397H403.5V368.697ZM419.818 368.697V348.444L411.279 368.697H419.818Z" fill="white"/>
<path d="M111.456 137.168C109.872 137.168 108.416 136.8 107.088 136.064C105.776 135.328 104.728 134.304 103.944 132.992C103.176 131.664 102.792 130.176 102.792 128.528C102.792 126.88 103.176 125.4 103.944 124.088C104.728 122.776 105.776 121.752 107.088 121.016C108.416 120.28 109.872 119.912 111.456 119.912C113.04 119.912 114.488 120.28 115.8 121.016C117.128 121.752 118.168 122.776 118.92 124.088C119.688 125.4 120.072 126.88 120.072 128.528C120.072 130.176 119.688 131.664 118.92 132.992C118.152 134.304 117.112 135.328 115.8 136.064C114.488 136.8 113.04 137.168 111.456 137.168ZM111.456 133.424C112.8 133.424 113.872 132.976 114.672 132.08C115.488 131.184 115.896 130 115.896 128.528C115.896 127.04 115.488 125.856 114.672 124.976C113.872 124.08 112.8 123.632 111.456 123.632C110.096 123.632 109.008 124.072 108.192 124.952C107.392 125.832 106.992 127.024 106.992 128.528C106.992 130.016 107.392 131.208 108.192 132.104C109.008 132.984 110.096 133.424 111.456 133.424ZM128.451 137.192C127.139 137.192 125.955 136.912 124.899 136.352C123.859 135.792 123.035 134.992 122.427 133.952C121.835 132.912 121.539 131.696 121.539 130.304C121.539 128.928 121.843 127.72 122.451 126.68C123.059 125.624 123.891 124.816 124.947 124.256C126.003 123.696 127.187 123.416 128.499 123.416C129.811 123.416 130.995 123.696 132.051 124.256C133.107 124.816 133.939 125.624 134.547 126.68C135.155 127.72 135.459 128.928 135.459 130.304C135.459 131.68 135.147 132.896 134.523 133.952C133.915 134.992 133.075 135.792 132.003 136.352C130.947 136.912 129.763 137.192 128.451 137.192ZM128.451 133.64C129.235 133.64 129.899 133.352 130.443 132.776C131.003 132.2 131.283 131.376 131.283 130.304C131.283 129.232 131.011 128.408 130.467 127.832C129.939 127.256 129.283 126.968 128.499 126.968C127.699 126.968 127.035 127.256 126.507 127.832C125.979 128.392 125.715 129.216 125.715 130.304C125.715 131.376 125.971 132.2 126.483 132.776C127.011 133.352 127.667 133.64 128.451 133.64ZM143.732 137.192C142.42 137.192 141.236 136.912 140.18 136.352C139.14 135.792 138.316 134.992 137.708 133.952C137.116 132.912 136.82 131.696 136.82 130.304C136.82 128.928 137.124 127.72 137.732 126.68C138.34 125.624 139.172 124.816 140.228 124.256C141.284 123.696 142.468 123.416 143.78 123.416C145.092 123.416 146.276 123.696 147.332 124.256C148.388 124.816 149.22 125.624 149.828 126.68C150.436 127.72 150.74 128.928 150.74 130.304C150.74 131.68 150.428 132.896 149.804 133.952C149.196 134.992 148.356 135.792 147.284 136.352C146.228 136.912 145.044 137.192 143.732 137.192ZM143.732 133.64C144.516 133.64 145.18 133.352 145.724 132.776C146.284 132.2 146.564 131.376 146.564 130.304C146.564 129.232 146.292 128.408 145.748 127.832C145.22 127.256 144.564 126.968 143.78 126.968C142.98 126.968 142.316 127.256 141.788 127.832C141.26 128.392 140.996 129.216 140.996 130.304C140.996 131.376 141.252 132.2 141.764 132.776C142.292 133.352 142.948 133.64 143.732 133.64ZM157.022 125.504C157.422 124.88 157.974 124.376 158.678 123.992C159.382 123.608 160.206 123.416 161.15 123.416C162.254 123.416 163.254 123.696 164.15 124.256C165.046 124.816 165.75 125.616 166.262 126.656C166.79 127.696 167.054 128.904 167.054 130.28C167.054 131.656 166.79 132.872 166.262 133.928C165.75 134.968 165.046 135.776 164.15 136.352C163.254 136.912 162.254 137.192 161.15 137.192C160.222 137.192 159.398 137 158.678 136.616C157.974 136.232 157.422 135.736 157.022 135.128V143.384H152.918V123.608H157.022V125.504ZM162.878 130.28C162.878 129.256 162.59 128.456 162.014 127.88C161.454 127.288 160.758 126.992 159.926 126.992C159.11 126.992 158.414 127.288 157.838 127.88C157.278 128.472 156.998 129.28 156.998 130.304C156.998 131.328 157.278 132.136 157.838 132.728C158.414 133.32 159.11 133.616 159.926 133.616C160.742 133.616 161.438 133.32 162.014 132.728C162.59 132.12 162.878 131.304 162.878 130.28ZM174.655 137.192C173.487 137.192 172.447 136.992 171.535 136.592C170.623 136.192 169.903 135.648 169.375 134.96C168.847 134.256 168.551 133.472 168.487 132.608H172.543C172.591 133.072 172.807 133.448 173.191 133.736C173.575 134.024 174.047 134.168 174.607 134.168C175.119 134.168 175.511 134.072 175.783 133.88C176.071 133.672 176.215 133.408 176.215 133.088C176.215 132.704 176.015 132.424 175.615 132.248C175.215 132.056 174.567 131.848 173.671 131.624C172.711 131.4 171.911 131.168 171.271 130.928C170.631 130.672 170.079 130.28 169.615 129.752C169.151 129.208 168.919 128.48 168.919 127.568C168.919 126.8 169.127 126.104 169.543 125.48C169.975 124.84 170.599 124.336 171.415 123.968C172.247 123.6 173.231 123.416 174.367 123.416C176.047 123.416 177.367 123.832 178.327 124.664C179.303 125.496 179.863 126.6 180.007 127.976H176.215C176.151 127.512 175.943 127.144 175.591 126.872C175.255 126.6 174.807 126.464 174.247 126.464C173.767 126.464 173.399 126.56 173.143 126.752C172.887 126.928 172.759 127.176 172.759 127.496C172.759 127.88 172.959 128.168 173.359 128.36C173.775 128.552 174.415 128.744 175.279 128.936C176.271 129.192 177.079 129.448 177.703 129.704C178.327 129.944 178.871 130.344 179.335 130.904C179.815 131.448 180.063 132.184 180.079 133.112C180.079 133.896 179.855 134.6 179.407 135.224C178.975 135.832 178.343 136.312 177.511 136.664C176.695 137.016 175.743 137.192 174.655 137.192ZM184.51 137.192C183.79 137.192 183.198 136.984 182.734 136.568C182.286 136.136 182.062 135.608 182.062 134.984C182.062 134.344 182.286 133.808 182.734 133.376C183.198 132.944 183.79 132.728 184.51 132.728C185.214 132.728 185.79 132.944 186.238 133.376C186.702 133.808 186.934 134.344 186.934 134.984C186.934 135.608 186.702 136.136 186.238 136.568C185.79 136.984 185.214 137.192 184.51 137.192ZM191.283 137.192C190.563 137.192 189.971 136.984 189.507 136.568C189.059 136.136 188.835 135.608 188.835 134.984C188.835 134.344 189.059 133.808 189.507 133.376C189.971 132.944 190.563 132.728 191.283 132.728C191.987 132.728 192.563 132.944 193.011 133.376C193.475 133.808 193.707 134.344 193.707 134.984C193.707 135.608 193.475 136.136 193.011 136.568C192.563 136.984 191.987 137.192 191.283 137.192ZM198.056 137.192C197.336 137.192 196.744 136.984 196.28 136.568C195.832 136.136 195.608 135.608 195.608 134.984C195.608 134.344 195.832 133.808 196.28 133.376C196.744 132.944 197.336 132.728 198.056 132.728C198.76 132.728 199.336 132.944 199.784 133.376C200.248 133.808 200.48 134.344 200.48 134.984C200.48 135.608 200.248 136.136 199.784 136.568C199.336 136.984 198.76 137.192 198.056 137.192Z" fill="white"/>
<path d="M116.328 161.576C116.328 162.552 116.104 163.448 115.656 164.264C115.208 165.064 114.52 165.712 113.592 166.208C112.664 166.704 111.512 166.952 110.136 166.952H107.592V173H103.488V156.152H110.136C111.48 156.152 112.616 156.384 113.544 156.848C114.472 157.312 115.168 157.952 115.632 158.768C116.096 159.584 116.328 160.52 116.328 161.576ZM109.824 163.688C110.608 163.688 111.192 163.504 111.576 163.136C111.96 162.768 112.152 162.248 112.152 161.576C112.152 160.904 111.96 160.384 111.576 160.016C111.192 159.648 110.608 159.464 109.824 159.464H107.592V163.688H109.824ZM117.649 166.28C117.649 164.904 117.905 163.696 118.417 162.656C118.945 161.616 119.657 160.816 120.553 160.256C121.449 159.696 122.449 159.416 123.553 159.416C124.497 159.416 125.321 159.608 126.025 159.992C126.745 160.376 127.297 160.88 127.681 161.504V159.608H131.785V173H127.681V171.104C127.281 171.728 126.721 172.232 126.001 172.616C125.297 173 124.473 173.192 123.529 173.192C122.441 173.192 121.449 172.912 120.553 172.352C119.657 171.776 118.945 170.968 118.417 169.928C117.905 168.872 117.649 167.656 117.649 166.28ZM127.681 166.304C127.681 165.28 127.393 164.472 126.817 163.88C126.257 163.288 125.569 162.992 124.753 162.992C123.937 162.992 123.241 163.288 122.665 163.88C122.105 164.456 121.825 165.256 121.825 166.28C121.825 167.304 122.105 168.12 122.665 168.728C123.241 169.32 123.937 169.616 124.753 169.616C125.569 169.616 126.257 169.32 126.817 168.728C127.393 168.136 127.681 167.328 127.681 166.304ZM139.842 159.416C140.786 159.416 141.61 159.608 142.314 159.992C143.034 160.376 143.586 160.88 143.97 161.504V159.608H148.074V172.976C148.074 174.208 147.826 175.32 147.33 176.312C146.85 177.32 146.106 178.12 145.098 178.712C144.106 179.304 142.866 179.6 141.378 179.6C139.394 179.6 137.786 179.128 136.554 178.184C135.322 177.256 134.618 175.992 134.442 174.392H138.498C138.626 174.904 138.93 175.304 139.41 175.592C139.89 175.896 140.482 176.048 141.186 176.048C142.034 176.048 142.706 175.8 143.202 175.304C143.714 174.824 143.97 174.048 143.97 172.976V171.08C143.57 171.704 143.018 172.216 142.314 172.616C141.61 173 140.786 173.192 139.842 173.192C138.738 173.192 137.738 172.912 136.842 172.352C135.946 171.776 135.234 170.968 134.706 169.928C134.194 168.872 133.938 167.656 133.938 166.28C133.938 164.904 134.194 163.696 134.706 162.656C135.234 161.616 135.946 160.816 136.842 160.256C137.738 159.696 138.738 159.416 139.842 159.416ZM143.97 166.304C143.97 165.28 143.682 164.472 143.106 163.88C142.546 163.288 141.858 162.992 141.042 162.992C140.226 162.992 139.53 163.288 138.954 163.88C138.394 164.456 138.114 165.256 138.114 166.28C138.114 167.304 138.394 168.12 138.954 168.728C139.53 169.32 140.226 169.616 141.042 169.616C141.858 169.616 142.546 169.32 143.106 168.728C143.682 168.136 143.97 167.328 143.97 166.304ZM163.667 166.088C163.667 166.472 163.643 166.872 163.595 167.288H154.307C154.371 168.12 154.635 168.76 155.099 169.208C155.579 169.64 156.163 169.856 156.851 169.856C157.875 169.856 158.587 169.424 158.987 168.56H163.355C163.131 169.44 162.723 170.232 162.131 170.936C161.555 171.64 160.827 172.192 159.947 172.592C159.067 172.992 158.083 173.192 156.995 173.192C155.683 173.192 154.515 172.912 153.491 172.352C152.467 171.792 151.667 170.992 151.091 169.952C150.515 168.912 150.227 167.696 150.227 166.304C150.227 164.912 150.507 163.696 151.067 162.656C151.643 161.616 152.443 160.816 153.467 160.256C154.491 159.696 155.667 159.416 156.995 159.416C158.291 159.416 159.443 159.688 160.451 160.232C161.459 160.776 162.243 161.552 162.803 162.56C163.379 163.568 163.667 164.744 163.667 166.088ZM159.467 165.008C159.467 164.304 159.227 163.744 158.747 163.328C158.267 162.912 157.667 162.704 156.947 162.704C156.259 162.704 155.675 162.904 155.195 163.304C154.731 163.704 154.443 164.272 154.331 165.008H159.467ZM179.078 159.464C180.646 159.464 181.894 159.976 182.822 161C183.766 162.008 184.238 163.4 184.238 165.176V173H180.158V165.728C180.158 164.832 179.926 164.136 179.462 163.64C178.998 163.144 178.374 162.896 177.59 162.896C176.806 162.896 176.182 163.144 175.718 163.64C175.254 164.136 175.022 164.832 175.022 165.728V173H170.918V159.608H175.022V161.384C175.438 160.792 175.998 160.328 176.702 159.992C177.406 159.64 178.198 159.464 179.078 159.464ZM193.186 173.192C191.874 173.192 190.69 172.912 189.634 172.352C188.594 171.792 187.77 170.992 187.162 169.952C186.57 168.912 186.274 167.696 186.274 166.304C186.274 164.928 186.578 163.72 187.186 162.68C187.794 161.624 188.626 160.816 189.682 160.256C190.738 159.696 191.922 159.416 193.234 159.416C194.546 159.416 195.73 159.696 196.786 160.256C197.842 160.816 198.674 161.624 199.282 162.68C199.89 163.72 200.194 164.928 200.194 166.304C200.194 167.68 199.882 168.896 199.258 169.952C198.65 170.992 197.81 171.792 196.738 172.352C195.682 172.912 194.498 173.192 193.186 173.192ZM193.186 169.64C193.97 169.64 194.634 169.352 195.178 168.776C195.738 168.2 196.018 167.376 196.018 166.304C196.018 165.232 195.746 164.408 195.202 163.832C194.674 163.256 194.018 162.968 193.234 162.968C192.434 162.968 191.77 163.256 191.242 163.832C190.714 164.392 190.45 165.216 190.45 166.304C190.45 167.376 190.706 168.2 191.218 168.776C191.746 169.352 192.402 169.64 193.186 169.64ZM209.835 169.52V173H207.747C206.259 173 205.099 172.64 204.267 171.92C203.435 171.184 203.019 169.992 203.019 168.344V163.016H201.387V159.608H203.019V156.344H207.123V159.608H209.811V163.016H207.123V168.392C207.123 168.792 207.219 169.08 207.411 169.256C207.603 169.432 207.923 169.52 208.371 169.52H209.835ZM223.927 163.016H221.719V173H217.615V163.016H216.127V159.608H217.615V159.224C217.615 157.576 218.087 156.328 219.031 155.48C219.975 154.616 221.359 154.184 223.183 154.184C223.487 154.184 223.711 154.192 223.855 154.208V157.688C223.071 157.64 222.519 157.752 222.199 158.024C221.879 158.296 221.719 158.784 221.719 159.488V159.608H223.927V163.016ZM231.951 173.192C230.639 173.192 229.455 172.912 228.399 172.352C227.359 171.792 226.535 170.992 225.927 169.952C225.335 168.912 225.039 167.696 225.039 166.304C225.039 164.928 225.343 163.72 225.951 162.68C226.559 161.624 227.391 160.816 228.447 160.256C229.503 159.696 230.687 159.416 231.999 159.416C233.311 159.416 234.495 159.696 235.551 160.256C236.607 160.816 237.439 161.624 238.047 162.68C238.655 163.72 238.959 164.928 238.959 166.304C238.959 167.68 238.647 168.896 238.023 169.952C237.415 170.992 236.575 171.792 235.503 172.352C234.447 172.912 233.263 173.192 231.951 173.192ZM231.951 169.64C232.735 169.64 233.399 169.352 233.943 168.776C234.503 168.2 234.783 167.376 234.783 166.304C234.783 165.232 234.511 164.408 233.967 163.832C233.439 163.256 232.783 162.968 231.999 162.968C231.199 162.968 230.535 163.256 230.007 163.832C229.479 164.392 229.215 165.216 229.215 166.304C229.215 167.376 229.471 168.2 229.983 168.776C230.511 169.352 231.167 169.64 231.951 169.64ZM254.36 159.608V173H250.256V171.176C249.84 171.768 249.272 172.248 248.552 172.616C247.848 172.968 247.064 173.144 246.2 173.144C245.176 173.144 244.272 172.92 243.488 172.472C242.704 172.008 242.096 171.344 241.664 170.48C241.232 169.616 241.016 168.6 241.016 167.432V159.608H245.096V166.88C245.096 167.776 245.328 168.472 245.792 168.968C246.256 169.464 246.88 169.712 247.664 169.712C248.464 169.712 249.096 169.464 249.56 168.968C250.024 168.472 250.256 167.776 250.256 166.88V159.608H254.36ZM265.468 159.464C267.036 159.464 268.284 159.976 269.212 161C270.156 162.008 270.628 163.4 270.628 165.176V173H266.548V165.728C266.548 164.832 266.316 164.136 265.852 163.64C265.388 163.144 264.764 162.896 263.98 162.896C263.196 162.896 262.572 163.144 262.108 163.64C261.644 164.136 261.412 164.832 261.412 165.728V173H257.308V159.608H261.412V161.384C261.828 160.792 262.388 160.328 263.092 159.992C263.796 159.64 264.588 159.464 265.468 159.464ZM272.664 166.28C272.664 164.904 272.92 163.696 273.432 162.656C273.96 161.616 274.672 160.816 275.568 160.256C276.464 159.696 277.464 159.416 278.568 159.416C279.448 159.416 280.248 159.6 280.968 159.968C281.704 160.336 282.28 160.832 282.696 161.456V155.24H286.8V173H282.696V171.08C282.312 171.72 281.76 172.232 281.04 172.616C280.336 173 279.512 173.192 278.568 173.192C277.464 173.192 276.464 172.912 275.568 172.352C274.672 171.776 273.96 170.968 273.432 169.928C272.92 168.872 272.664 167.656 272.664 166.28ZM282.696 166.304C282.696 165.28 282.408 164.472 281.832 163.88C281.272 163.288 280.584 162.992 279.768 162.992C278.952 162.992 278.256 163.288 277.68 163.88C277.12 164.456 276.84 165.256 276.84 166.28C276.84 167.304 277.12 168.12 277.68 168.728C278.256 169.32 278.952 169.616 279.768 169.616C280.584 169.616 281.272 169.32 281.832 168.728C282.408 168.136 282.696 167.328 282.696 166.304Z" fill="white"/>
</svg>
