<svg xmlns="http://www.w3.org/2000/svg" xmlns:xlink="http://www.w3.org/1999/xlink" viewBox="0 0 322.38 443"><defs><style>.cls-1{fill:url(#linear-gradient);}.cls-13,.cls-2,.cls-5,.cls-8{fill:#263238;}.cls-2,.cls-4{opacity:0.2;}.cls-10,.cls-2{isolation:isolate;}.cls-3{fill:#d3aef0;}.cls-11,.cls-12,.cls-13,.cls-3,.cls-5,.cls-6{stroke:#263238;}.cls-11,.cls-12,.cls-13,.cls-14,.cls-3,.cls-5,.cls-6{stroke-miterlimit:10;}.cls-11,.cls-12,.cls-13,.cls-14,.cls-3,.cls-5{stroke-width:0.67px;}.cls-11,.cls-12,.cls-14,.cls-5,.cls-6{stroke-linecap:round;}.cls-11,.cls-14,.cls-6{fill:none;}.cls-6{stroke-width:1.33px;}.cls-7{fill:#9069af;}.cls-9{fill:#fff;}.cls-10{fill:#c296e4;opacity:0.1;}.cls-12{fill:#b571e9;}.cls-14{stroke:#fff;}</style><linearGradient id="linear-gradient" x1="19.41" y1="605.14" x2="293.4" y2="182.61" gradientTransform="matrix(1, 0, 0, -1, 0, 608)" gradientUnits="userSpaceOnUse"><stop offset="0" stop-color="#9a62c6"/><stop offset="1" stop-color="#cbabe4"/></linearGradient></defs><g id="Layer_2" data-name="Layer 2"><g id="Layer_1-2" data-name="Layer 1"><rect class="cls-1" width="322.38" height="443" rx="11.91"/><path class="cls-2" d="M223.91,316A60.94,60.94,0,1,0,163,255.1,60.94,60.94,0,0,0,223.91,316Z"/><path class="cls-3" d="M223.91,311.26a56.16,56.16,0,1,0-56.15-56.16A56.16,56.16,0,0,0,223.91,311.26Z"/><g class="cls-4"><path class="cls-2" d="M223.92,256.94a2,2,0,0,1-.72-.14,2.06,2.06,0,0,1-.6-.41l-35.32-36.28a1.76,1.76,0,0,1-.48-1.29,1.83,1.83,0,0,1,3.11-1.27l35.33,36.25a1.9,1.9,0,0,1,.49.94,1.81,1.81,0,0,1-.79,1.87,1.85,1.85,0,0,1-1,.31Z"/></g><path class="cls-2" d="M208.07,267.54a1.84,1.84,0,0,1-1.77-1.31,1.83,1.83,0,0,1,.75-2.06l15.84-10.6a1.84,1.84,0,0,1,1.37-.25,1.85,1.85,0,0,1,1.42,2.14,1.76,1.76,0,0,1-.75,1.16l-15.84,10.6A1.79,1.79,0,0,1,208.07,267.54Z"/><path class="cls-5" d="M226.19,255.1a2.27,2.27,0,0,0-2.72-2.24,2.27,2.27,0,0,0-1.66,3.1,2.2,2.2,0,0,0,.84,1,2.28,2.28,0,0,0,3.54-1.88Z"/><path class="cls-6" d="M224,204v7.59"/><path class="cls-6" d="M224,298.05v7.59"/><path class="cls-6" d="M274.79,254.8H267.2"/><path class="cls-6" d="M180.71,254.8h-7.59"/><path class="cls-6" d="M250.62,211.52l-4,6.46"/><path class="cls-6" d="M201.28,291.62l-4,6.47"/><path class="cls-6" d="M268.68,230.64l-6.68,3.6"/><path class="cls-6" d="M185.91,275.36,179.23,279"/><path class="cls-6" d="M267.24,281.47l-6.46-4"/><path class="cls-6" d="M187.14,232.13l-6.47-4"/><path class="cls-6" d="M248.13,299.53l-3.61-6.68"/><path class="cls-6" d="M203.4,216.76l-3.61-6.68"/><path class="cls-7" d="M222.52,411.84c29.29,0,53-2.81,53-6.27s-23.75-6.27-53-6.27-53,2.81-53,6.27S193.22,411.84,222.52,411.84Z"/><path class="cls-8" d="M236.75,312.31c-.07-1.48,0-3.75.06-5.06a19.23,19.23,0,0,0,.27-3.21c0-14.27-5.51-15.47-12.31-15.47s-12.3,2.29-12.3,15.47c0,.34,0,.66,0,1,.06.57.62,6,.11,8.1s-4.9,2.62-7.41,7.84,2.94,12.85,20.69,13.83,19.59-10.88,19.59-14.91S236.86,314.49,236.75,312.31Z"/><path class="cls-8" d="M212,305.12l.44,0V305Z"/><path class="cls-9" d="M214.54,324.72s-7.18.39-9.73,1.82-3,9.88-3,9.88l-7.64,16.39s-20.54-14.32-22.29-15.75-2.23-2.55-4-3.67-2.39-1.11-4.62-1.11-2.55.32-2.39,1,1,.8,1.59.8a13.23,13.23,0,0,1,2.08.32l-6.37,2.55c-1.59.63-1.28-1.92-2.71-1.92s-1.27,3.67,1.12,5.42,4,1.27,5.88,1.11,6.38-.79,6.38-.79,12.26,10.82,16.71,14.8,10.51,7.8,12.74,6.21,10.65-17.2,10.65-17.2l5.4-14.32S215.84,327.2,214.54,324.72Z"/><path class="cls-10" d="M214.54,324.72s-7.18.39-9.73,1.82-3,9.88-3,9.88l-7.64,16.39s-20.54-14.32-22.29-15.75-2.23-2.55-4-3.67-2.39-1.11-4.62-1.11-2.55.32-2.39,1,1,.8,1.59.8a13.23,13.23,0,0,1,2.08.32l-6.37,2.55c-1.59.63-1.28-1.92-2.71-1.92s-1.27,3.67,1.12,5.42,4,1.27,5.88,1.11,6.38-.79,6.38-.79,12.26,10.82,16.71,14.8,10.51,7.8,12.74,6.21,10.65-17.2,10.65-17.2l5.4-14.32S215.84,327.2,214.54,324.72Z"/><path class="cls-11" d="M214.54,324.72s-7.18.39-9.73,1.82-3,9.88-3,9.88l-7.64,16.39s-20.54-14.32-22.29-15.75-2.23-2.55-4-3.67-2.39-1.11-4.62-1.11-2.55.32-2.39,1,1,.8,1.59.8a13.23,13.23,0,0,1,2.08.32l-6.37,2.55c-1.59.63-1.28-1.92-2.71-1.92s-1.27,3.67,1.12,5.42,4,1.27,5.88,1.11,6.38-.79,6.38-.79,12.26,10.82,16.71,14.8,10.51,7.8,12.74,6.21,10.65-17.2,10.65-17.2l5.4-14.32S215.84,327.2,214.54,324.72Z"/><path class="cls-9" d="M157,340.75s-3.1-2.52-1.43-5c.42-.61,1.33.31,1.6,2s1.1,2.33,1.54,2.45"/><path class="cls-10" d="M157,340.75s-3.1-2.52-1.43-5c.42-.61,1.33.31,1.6,2s1.1,2.33,1.54,2.45"/><path class="cls-11" d="M157,340.75s-3.1-2.52-1.43-5c.42-.61,1.33.31,1.6,2s1.1,2.33,1.54,2.45"/><path class="cls-9" d="M159.33,340.2c-.74,0-.7-2-2.09-2.95-1.11-.78-1,.75-.71,2a2.68,2.68,0,0,0,.73,1.34,2.58,2.58,0,0,0,1.36.7,3.54,3.54,0,0,0,1.45.06"/><path class="cls-10" d="M159.33,340.2c-.74,0-.7-2-2.09-2.95-1.11-.78-1,.75-.71,2a2.6,2.6,0,0,0,2.09,2,3.54,3.54,0,0,0,1.45.06"/><path class="cls-11" d="M159.33,340.2c-.74,0-.7-2-2.09-2.95-1.11-.78-1,.75-.71,2a2.68,2.68,0,0,0,.73,1.34,2.58,2.58,0,0,0,1.36.7h0a3.54,3.54,0,0,0,1.45.06"/><path class="cls-9" d="M168.67,336.94a3.53,3.53,0,0,0-3.07-.06c-2,.68-4.43,3.63-5,3.38a2.41,2.41,0,0,1-1.1-1.33c-.32-.61-.92-1.5-1.33-.78-.92,1.55,1.58,3.32,1.58,3.32s.34.29,2.28.06,6.31-.84,6.31-.84"/><path class="cls-10" d="M168.67,336.94a3.53,3.53,0,0,0-3.07-.06c-2,.68-4.43,3.63-5,3.38a2.41,2.41,0,0,1-1.1-1.33c-.32-.61-.92-1.49-1.33-.78-.92,1.55,1.58,3.32,1.58,3.32s.34.3,2.28.06,6.31-.84,6.31-.84"/><path class="cls-11" d="M168.67,336.94a3.53,3.53,0,0,0-3.07-.06c-2,.68-4.43,3.63-5,3.38a2.41,2.41,0,0,1-1.1-1.33c-.32-.61-.92-1.5-1.33-.78-.92,1.55,1.58,3.32,1.58,3.32s.34.29,2.28.06,6.31-.84,6.31-.84"/><path class="cls-11" d="M209,341.12l-2.33-6.65"/><path class="cls-9" d="M233.18,324.57s7.56.54,10.11,2,3,9.87,3,9.87l7.64,16.4s20.54-14.33,22.29-15.76,2.23-2.55,4-3.66,2.39-1.12,4.62-1.12,2.55.32,2.39,1-1,.79-1.6.79a15.91,15.91,0,0,0-2.07.32l6.37,2.55c1.59.63,1.27-1.91,2.71-1.91s1.27,3.66-1.12,5.41-4,1.27-5.89,1.11-6.37-.79-6.37-.79S267,351.57,262.57,355.55s-10.51,7.8-12.74,6.21-10.65-17.2-10.65-17.2l-5.41-14.32S231.89,327.05,233.18,324.57Z"/><path class="cls-10" d="M233.18,324.57s7.56.54,10.11,2,3,9.88,3,9.88L254,352.84s20.54-14.33,22.29-15.76,2.23-2.54,4-3.66,2.39-1.11,4.62-1.11,2.55.32,2.39.95-1,.8-1.6.8a13.11,13.11,0,0,0-2.07.32l6.37,2.54c1.59.64,1.27-1.91,2.71-1.91s1.27,3.66-1.12,5.41-4,1.28-5.89,1.12-6.37-.8-6.37-.8S267,351.57,262.57,355.55s-10.51,7.8-12.74,6.21-10.65-17.2-10.65-17.2l-5.41-14.32S231.89,327.06,233.18,324.57Z"/><path class="cls-11" d="M233.18,324.57s7.56.54,10.11,2,3,9.87,3,9.87l7.64,16.4s20.54-14.33,22.29-15.76,2.23-2.55,4-3.66,2.39-1.12,4.62-1.12,2.55.32,2.39,1-1,.79-1.6.79a15.91,15.91,0,0,0-2.07.32l6.37,2.55c1.59.63,1.27-1.91,2.71-1.91s1.27,3.66-1.12,5.41-4,1.27-5.89,1.11-6.37-.79-6.37-.79S267,351.57,262.57,355.55s-10.51,7.8-12.74,6.21-10.65-17.2-10.65-17.2l-5.41-14.32S231.89,327.05,233.18,324.57Z"/><path class="cls-11" d="M239.18,339.73l1.85-5.41"/><path class="cls-9" d="M291.85,339.84s1.33-3.76.67-4.07-1.34.31-1.6,2-1.11,2.33-1.54,2.45"/><path class="cls-10" d="M292.76,339s.44-2.95-.24-3.26-1.33.31-1.6,2-1.1,2.33-1.54,2.45"/><path class="cls-11" d="M291.85,339.84s1.33-3.76.67-4.07-1.34.31-1.6,2-1.11,2.33-1.54,2.45"/><path class="cls-9" d="M290.84,340.52s1.67-4.75-.27-3.49c-1.43.92-1.06,3.17-1.8,3.17"/><path class="cls-10" d="M291.22,340.57s1.29-4.8-.66-3.54c-1.43.93-1.07,3.17-1.81,3.17"/><path class="cls-11" d="M290.84,340.52s1.67-4.75-.27-3.49c-1.43.92-1.06,3.17-1.8,3.17"/><path class="cls-9" d="M279.41,336.94a3.55,3.55,0,0,1,3.08-.06c2,.68,4.42,3.63,5,3.38a2.45,2.45,0,0,0,1.1-1.33c.31-.61.87-1,1.23-.25s-.74,2.9-.74,2.9a3,3,0,0,1-2.29.09,39.16,39.16,0,0,0-5.6-.92"/><path class="cls-10" d="M279.41,336.94a3.55,3.55,0,0,1,3.08-.06c2,.68,4.42,3.63,5,3.38a2.49,2.49,0,0,0,1.1-1.33c.31-.61.86-1,1.23-.24s-.74,2.89-.74,2.89a3,3,0,0,1-2.29.09c-1.63-.38-6-1.55-7-1.55"/><path class="cls-11" d="M279.41,336.94a3.55,3.55,0,0,1,3.08-.06c2,.68,4.42,3.63,5,3.38a2.45,2.45,0,0,0,1.1-1.33c.31-.61.87-1,1.23-.25s-.74,2.9-.74,2.9a3,3,0,0,1-2.29.09,39.16,39.16,0,0,0-5.6-.92"/><path class="cls-9" d="M221.07,315a17,17,0,0,1-1.85,6.21,9.31,9.31,0,0,1-4.66,3.48l-6.2,19.06,3.24,12.88s-5.77,8.78-8,14.12.46,11.37,2.85,13.87,5.58,5.9,13.7,5.58c11.31-.45,19.29.58,22.92-3.66s4-12.26-.32-18.31c-2.61-3.68-6.17-11.63-6.17-11.63l3.53-13.28-5.41-18.63a8,8,0,0,1-5.21-2.58c-1.95-2.4-1.52-6.76-1.52-6.76Z"/><path class="cls-10" d="M221.07,315a17,17,0,0,1-1.85,6.21,9.31,9.31,0,0,1-4.66,3.48l-6.2,19.06,3.24,12.88s-5.77,8.78-8,14.12.46,11.37,2.85,13.87,5.58,5.9,13.7,5.58c11.31-.45,19.29.58,22.92-3.66s4-12.26-.32-18.31c-2.61-3.68-6.17-11.63-6.17-11.63l3.53-13.28-5.41-18.63a8,8,0,0,1-5.21-2.58c-1.95-2.4-1.52-6.76-1.52-6.76Z"/><path class="cls-11" d="M221.07,315a17,17,0,0,1-1.85,6.21,9.31,9.31,0,0,1-4.66,3.48l-6.2,19.06,3.24,12.88s-5.77,8.78-8,14.12.46,11.37,2.85,13.87,5.58,5.9,13.7,5.58c11.31-.45,19.29.58,22.92-3.66s4-12.26-.32-18.31c-2.61-3.68-6.17-11.63-6.17-11.63l3.53-13.28-5.41-18.63a8,8,0,0,1-5.21-2.58c-1.95-2.4-1.52-6.76-1.52-6.76Z"/><path class="cls-12" d="M240.07,343.35l-5.4-18.63a8.73,8.73,0,0,1-1.61-.27c.63,4.33-.12,6.5-.12,6.5a6,6,0,0,1-1,2.66,6,6,0,0,1-2.08,1.91c-2.94,1.75-8.49,2.07-12-.75-2.66-2.14-2.16-8-1.77-10.74a9.42,9.42,0,0,1-1.6.69l-6.2,19.06,3.26,12.88h24.93Z"/><path class="cls-9" d="M215.8,306.39s-2-2.61-2.71-.67,2.81,3.67,2.81,3.67Z"/><path class="cls-10" d="M215.8,306.39s-2-2.61-2.71-.67,2.81,3.67,2.81,3.67Z"/><path class="cls-11" d="M215.8,306.39s-2-2.61-2.71-.67,2.81,3.67,2.81,3.67Z"/><path class="cls-9" d="M233.45,306.39s2-2.61,2.7-.67-2.8,3.67-2.8,3.67Z"/><path class="cls-10" d="M233.45,306.39s2-2.61,2.7-.67-2.8,3.67-2.8,3.67Z"/><path class="cls-11" d="M233.45,306.39s2-2.61,2.7-.67-2.8,3.67-2.8,3.67Z"/><path class="cls-9" d="M224.71,317.63a8.74,8.74,0,0,1-8.75-8.75V295.44a3.16,3.16,0,0,1,.24-1.25,3.59,3.59,0,0,1,.71-1.06,3.27,3.27,0,0,1,2.31-1h10.95a3.41,3.41,0,0,1,1.27.24,3.24,3.24,0,0,1,1.08.7,3.28,3.28,0,0,1,.73,1.07,3.22,3.22,0,0,1,.25,1.26V308.9a8.57,8.57,0,0,1-.68,3.35,8.72,8.72,0,0,1-8.11,5.38Z"/><path class="cls-10" d="M224.71,317.63a8.74,8.74,0,0,1-8.75-8.75V295.44a3.16,3.16,0,0,1,.24-1.25,3.59,3.59,0,0,1,.71-1.06,3.27,3.27,0,0,1,2.31-1h10.95a3.41,3.41,0,0,1,1.27.24,3.24,3.24,0,0,1,1.08.7,3.28,3.28,0,0,1,.73,1.07,3.22,3.22,0,0,1,.25,1.26V308.9a8.57,8.57,0,0,1-.68,3.35,8.72,8.72,0,0,1-8.11,5.38Z"/><path class="cls-11" d="M224.71,317.63a8.74,8.74,0,0,1-8.75-8.75V295.44a3.16,3.16,0,0,1,.24-1.25,3.59,3.59,0,0,1,.71-1.06,3.27,3.27,0,0,1,2.31-1h10.95a3.41,3.41,0,0,1,1.27.24,3.24,3.24,0,0,1,1.08.7,3.28,3.28,0,0,1,.73,1.07,3.22,3.22,0,0,1,.25,1.26V308.9a8.57,8.57,0,0,1-.68,3.35,8.72,8.72,0,0,1-8.11,5.38Z"/><path class="cls-11" d="M218.2,302.91a3.62,3.62,0,0,0,4.05,0"/><path class="cls-11" d="M227.27,302.91a3.62,3.62,0,0,0,4,0"/><path class="cls-11" d="M225.54,301.47l.58,5.59H223.8"/><path class="cls-11" d="M223.89,310.24h2.32"/><path class="cls-13" d="M224.8,292.15h-5.58a3.27,3.27,0,0,0-2.31,1,3.59,3.59,0,0,0-.71,1.06,3.16,3.16,0,0,0-.24,1.25v6.66A76.31,76.31,0,0,0,224.8,292.15Z"/><path class="cls-13" d="M233.5,302.33v-6.89a3.26,3.26,0,0,0-.95-2.31,3.31,3.31,0,0,0-2.31-1h-5C226.39,295.82,230.84,300.1,233.5,302.33Z"/><path class="cls-6" d="M217.82,300.31s1-1.83,4.37-1.54"/><path class="cls-6" d="M226.59,298.77a4.1,4.1,0,0,1,5,1.54"/><path class="cls-5" d="M203.56,370.78c-2.29,5.32.46,11.37,2.85,13.87s5.58,5.9,13.7,5.58c11.31-.45,19.29.58,22.92-3.66s4-12.27-.32-18.31a46.83,46.83,0,0,1-2.66-4.46H207.19A68.86,68.86,0,0,0,203.56,370.78Z"/><path class="cls-8" d="M221.37,381.58c-5.73-5.94-16.13-8.92-21.23-9.77s-14.43-6-14.43-6-5.53-.19-5.1,6.4,16.34,14.22,22.5,17.62a19.9,19.9,0,0,0,18.26.66"/><path class="cls-11" d="M221.37,381.58c-5.73-5.94-16.13-8.92-21.23-9.77s-14.43-6-14.43-6-5.53-.19-5.1,6.4,16.34,14.22,22.5,17.62a19.9,19.9,0,0,0,18.26.66"/><path class="cls-8" d="M225,381.79c5.73-5.94,16.13-8.92,21.23-9.77s13-5.19,13-5.19,6.93-1,6.51,5.62-16.34,14.22-22.51,17.62a19.88,19.88,0,0,1-18.25.66"/><path class="cls-11" d="M225,381.79c5.73-5.94,16.13-8.92,21.23-9.77s13-5.19,13-5.19,6.93-1,6.51,5.62-16.34,14.22-22.51,17.62a19.88,19.88,0,0,1-18.25.66"/><path class="cls-9" d="M248.86,392.18a1.55,1.55,0,0,0,.4-1.83c-.4-1.31-2.49-.27-3.94-.27s-6.94-.52-9.56-.78c-2.24-.23-5.91-.16-6.92-.14a8.26,8.26,0,0,1-1,4.65l.52.06c4.45.44,6.39.52,7.76.81,2.48.52,5.23,2.62,8,2.49s5.24-2,5.24-3.14A3,3,0,0,0,248.86,392.18Z"/><path class="cls-10" d="M248.87,392.18a1.56,1.56,0,0,0,.39-1.83c-.39-1.31-2.49-.27-3.93-.27s-7-.52-9.57-.78c-2.24-.23-5.91-.16-6.92-.14a8.39,8.39,0,0,1-1,4.66l.51.05c4.46.44,6.39.52,7.76.81,2.48.53,5.23,2.62,8,2.5s5.24-2,5.24-3.15A3.09,3.09,0,0,0,248.87,392.18Z"/><path class="cls-11" d="M248.86,392.18a1.55,1.55,0,0,0,.4-1.83c-.4-1.31-2.49-.27-3.94-.27s-6.94-.52-9.56-.78c-2.24-.23-5.91-.16-6.92-.14a8.26,8.26,0,0,1-1,4.65l.52.06c4.45.44,6.39.52,7.76.81,2.48.52,5.23,2.62,8,2.49s5.24-2,5.24-3.14a3,3,0,0,0-.52-1.85Z"/><path class="cls-11" d="M248.86,392.18a6.83,6.83,0,0,1-2.3,0"/><path class="cls-11" d="M249.39,394a22.17,22.17,0,0,1-3,0"/><path class="cls-11" d="M245.83,395.18a3.49,3.49,0,0,0,2.35.39"/><path class="cls-11" d="M244.81,396a3.76,3.76,0,0,0,2.19.34"/><path class="cls-5" d="M227.89,393.8a8.27,8.27,0,0,0,1-4.66h-.29a65.78,65.78,0,0,1-18.47-7.2c-8.38-5.12-19-13-24.37-16.11s-10.49,1.57-10,6.55,4.58,7.6,11.92,10.65,20.71,7.73,27.78,9.17C219.1,392.92,223.82,393.42,227.89,393.8Z"/><path class="cls-5" d="M216.1,395.18a8.26,8.26,0,0,1-.94-4.66h.28a66.62,66.62,0,0,0,18.47-7.2c8.4-5.11,19-13,24.38-16.12s10.48,1.57,10,6.55-4.59,7.6-11.93,10.61-20.7,7.73-27.78,9.18A122,122,0,0,1,216.1,395.18Z"/><path class="cls-9" d="M215.16,390.54s-9.71.38-12.79.17-5.42-1.71-6.26-1,.21,1.91.21,1.91a3.82,3.82,0,0,0,.53,2.76c.85,1,2,1.8,5.62,2.87s7.32-.44,9.32-1l4.29-1.14A8.79,8.79,0,0,1,215.16,390.54Z"/><path class="cls-10" d="M215.16,390.54s-9.71.38-12.79.17-5.42-1.71-6.26-1,.21,1.91.21,1.91a3.82,3.82,0,0,0,.53,2.76c.85,1,2,1.8,5.62,2.87s7.32-.44,9.32-1l4.29-1.14A8.79,8.79,0,0,1,215.16,390.54Z"/><path class="cls-11" d="M215.16,390.54s-9.71.38-12.79.17-5.42-1.71-6.26-1,.21,1.91.21,1.91a3.82,3.82,0,0,0,.53,2.76c.85,1,2,1.8,5.62,2.87s7.32-.44,9.32-1l4.29-1.14A8.79,8.79,0,0,1,215.16,390.54Z"/><path class="cls-11" d="M196.32,391.66a1.32,1.32,0,0,1,.74-.23,1.3,1.3,0,0,1,.74.23,4.17,4.17,0,0,0,1.7.66"/><path class="cls-11" d="M196.44,393.72a1.48,1.48,0,0,1,.59-.32,1.56,1.56,0,0,1,.68,0,6.33,6.33,0,0,0,1.56.23"/><path class="cls-11" d="M198.06,395.4s.19-.54.54-.54,1.81.2,2.19.16"/><path class="cls-11" d="M200.12,396.46s.36-.48.67-.51a9.87,9.87,0,0,1,1.21-.1"/><path class="cls-14" d="M220.09,390.23s20.31-10,28.52-15.66"/><path class="cls-14" d="M197.17,373.29s17.35,13.57,27.14,14.52"/><path class="cls-14" d="M205.3,372.93s13.2,4.09,16.63,9.37"/><path class="cls-14" d="M226.55,380.45s8.19-5.81,16.64-7.52"/></g></g></svg>