<svg width="73" height="73" viewBox="0 0 73 73" fill="none" xmlns="http://www.w3.org/2000/svg">
<path d="M51.0716 70.9983H70.9991V15.7825M21.9286 70.9983H51.0934V15.7825L36.5457 2L21.9286 15.7825V70.9983ZM21.9286 70.9983H2.00086V15.7825M43.3999 70.9983V50.8487H29.6001V70.9983M31.2494 6.99622H15.6271L2 15.7819H21.9297L31.2494 6.99622ZM51.0936 15.7819H71L57.3729 6.99622H41.8176L51.0936 15.7819Z" stroke="#005E9E" stroke-width="2.82076" stroke-linecap="round" stroke-linejoin="round"/>
<path d="M64.324 62.9093H57.7492V53.5762C57.7492 52.0696 58.9704 50.8481 60.4771 50.8481H61.5962C63.1028 50.8481 64.324 52.0696 64.324 53.5762V62.9093ZM15.2533 62.9093H8.67847V53.5762C8.67847 52.0696 9.89972 50.8481 11.4063 50.8481H12.5254C14.0321 50.8481 15.2533 52.0696 15.2533 53.5762V62.9093ZM57.5707 29.5944H64.5025V22.7031H57.5707V29.5944ZM8.5 29.5944H15.4318V22.7031H8.5V29.5944ZM43.2655 42.3018H29.7589V28.9991C29.7589 25.522 32.5776 22.7031 36.0547 22.7031H36.9698C40.4469 22.7031 43.2655 25.522 43.2655 28.9991V42.3018Z" fill="#E0F9FF"/>
<path d="M8.5 42.3015H15.4318M57.5707 42.3015H64.5025M64.324 62.9093H57.7492V53.5762C57.7492 52.0696 58.9704 50.8481 60.4771 50.8481H61.5962C63.1028 50.8481 64.324 52.0696 64.324 53.5762V62.9093ZM15.2533 62.9093H8.67847V53.5762C8.67847 52.0696 9.89972 50.8481 11.4063 50.8481H12.5254C14.0321 50.8481 15.2533 52.0696 15.2533 53.5762V62.9093ZM57.5707 29.5944H64.5025V22.7031H57.5707V29.5944ZM8.5 29.5944H15.4318V22.7031H8.5V29.5944ZM43.2655 42.3018H29.7589V28.9991C29.7589 25.522 32.5776 22.7031 36.0547 22.7031H36.9698C40.4469 22.7031 43.2655 25.522 43.2655 28.9991V42.3018Z" stroke="#00C0F3" stroke-width="2.82076" stroke-linecap="round" stroke-linejoin="round"/>
<path d="M36.5117 51.1055V70.9992M36.5117 51.1055V70.9992V51.1055Z" stroke="#005E9E" stroke-width="2.82076" stroke-linecap="round" stroke-linejoin="round"/>
</svg>
