<svg id="Layer_1" data-name="Layer 1" xmlns="http://www.w3.org/2000/svg" xmlns:xlink="http://www.w3.org/1999/xlink" width="327" height="194" viewBox="0 0 327 194">
  <defs>
    <style>
      .cls-1 {
        fill: url(#linear-gradient);
      }

      .cls-2 {
        opacity: 0.3;
      }

      .cls-3 {
        fill: none;
        stroke: #0bb8e4;
        stroke-width: 1.47px;
      }
    </style>
    <linearGradient id="linear-gradient" x1="210.81" y1="1014.23" x2="87.89" y2="782.38" gradientTransform="translate(0 -828)" gradientUnits="userSpaceOnUse">
      <stop offset="0" stop-color="#17325c"/>
      <stop offset="1" stop-color="#4c92dd"/>
    </linearGradient>
  </defs>
  <path class="cls-1" d="M8,0H319a8,8,0,0,1,8,8V186a8,8,0,0,1-8,8H8a8,8,0,0,1-8-8V8A8,8,0,0,1,8,0Z"/>
  <g class="cls-2">
    <path class="cls-3" d="M38.5-43.5A98.66,98.66,0,0,1,67.8-15.6C72.6-8.7,76.6,0,73.7,7.9c-2.1,5.9-7.6,9.9-13.3,12.6S48.6,24.8,43.2,28C37.8,31,33,36.2,32.7,42.5c-.3,5.9,3.2,11.3,6.3,16.4s5.7,11.3,3.5,16.9c-3.1,7.8-13.8,9.4-18.7,16.3-4.6,6.5-2.9,16.2-7.9,22.3-4.2,5.2-11.6,6.1-18.2,6.7-6.9.6-13.8,1.1-20.8,1.6"/>
    <path class="cls-3" d="M28.5-47A96.39,96.39,0,0,1,57.1-19.8C61.8-13,65.7-4.6,62.9,3.1c-2.1,5.8-7.5,9.7-13,12.3S38.3,19.6,33,22.7,23,30.9,22.7,37c-.3,5.8,3.2,11,6.1,16s5.6,11.1,3.4,16.5c-3.1,7.6-13.6,9.2-18.3,15.9-4.5,6.3-2.9,15.8-7.8,21.8-4.1,5.1-11.3,6-17.8,6.5-6.8.6-13.5,1.1-20.3,1.6"/>
    <path class="cls-3" d="M18.8-50.7a94.68,94.68,0,0,1,28,26.6c4.6,6.6,8.4,14.9,5.7,22.5-2,5.7-7.3,9.5-12.7,12s-11.3,4.1-16.5,7.1-9.7,8-10.1,14c-.3,5.7,3.1,10.8,6,15.7S24.7,58,22.5,63.3c-3,7.5-13.3,9-17.9,15.6C.2,85.1,1.8,94.4-3,100.3c-4,4.9-11.1,5.9-17.4,6.4-6.6.5-13.3,1.1-19.9,1.5"/>
    <path class="cls-3" d="M8.8-54.2a91.49,91.49,0,0,1,27.3,26c4.4,6.4,8.2,14.5,5.5,21.9C39.6-.8,34.5,3,29.2,5.4s-11,4-16.1,7S3.6,20.2,3.3,26.1c-.3,5.5,3,10.5,5.8,15.3S14.4,52,12.4,57.1C9.5,64.4-.5,65.9-5.1,72.3c-4.3,6.1-2.7,15.1-7.4,20.8-3.9,4.8-10.8,5.7-17,6.2l-19.4,1.5"/>
    <path class="cls-3" d="M-1-58.2A91,91,0,0,1,25.7-32.8c4.4,6.3,8,14.2,5.4,21.4C29.2-6,24.1-2.3,19,.1S8.2,4,3.2,6.9s-9.3,7.7-9.6,13.4c-.3,5.4,2.9,10.3,5.7,15S4.5,45.6,2.5,50.7c-2.8,7.1-12.6,8.6-17.1,14.9-4.2,5.9-2.7,14.7-7.2,20.4-3.8,4.7-10.6,5.6-16.6,6.1l-19,1.5"/>
    <path class="cls-3" d="M-11-61.7A88.71,88.71,0,0,1,15-37c4.2,6.1,7.8,13.9,5.3,20.9C18.4-10.8,13.5-7.3,8.5-4.9S-2.1-1.1-6.9,1.7s-9,7.5-9.4,13c-.3,5.3,2.9,10,5.6,14.6s5.1,10.1,3.1,15c-2.8,6.9-12.3,8.4-16.6,14.5-4.1,5.8-2.6,14.4-7.1,19.9-3.7,4.6-10.3,5.4-16.2,5.9-6.2.5-12.3,1-18.5,1.4"/>
    <path class="cls-3" d="M-21.1-65.2A85.86,85.86,0,0,1,4.3-41.1c4.1,6,7.6,13.5,5.1,20.3C7.6-15.7,2.8-12.2-2.1-9.9s-10.3,3.7-15,6.5-8.8,7.3-9.1,12.7c-.3,5.1,2.8,9.8,5.4,14.2s4.9,9.8,3,14.6c-2.7,6.8-12,8.2-16.3,14.1-4,5.6-2.5,14-6.9,19.4-3.6,4.5-10,5.3-15.8,5.8-6,.5-12,1-18,1.4"/>
    <path class="cls-3" d="M-30.8-68.9A83,83,0,0,1-6-45.4c4,5.8,7.4,13.2,5,19.9-1.8,5-6.5,8.4-11.3,10.6s-10,3.6-14.6,6.3-8.6,7.1-8.9,12.4c-.3,5,2.7,9.6,5.3,13.9s4.8,9.6,3,14.3c-2.6,6.6-11.7,8-15.9,13.8-3.9,5.5-2.5,13.7-6.7,18.9-3.6,4.4-9.8,5.2-15.4,5.6-5.9.5-11.7.9-17.6,1.4"/>
  </g>
</svg>
