<svg width="138" height="47" viewBox="0 0 138 47" fill="none" xmlns="http://www.w3.org/2000/svg">
<g clip-path="url(#clip0_211_37077)">
<path d="M126.601 0.640773H11.6961C11.2773 0.640773 10.8635 0.640773 10.4457 0.643058C10.096 0.645342 9.74915 0.651978 9.3961 0.657564C8.62914 0.666589 7.86397 0.734064 7.10726 0.859401C6.35161 0.987467 5.61964 1.22891 4.93609 1.57556C4.25338 1.92514 3.62956 2.37938 3.08728 2.92181C2.54214 3.46272 2.08773 4.08793 1.74152 4.77341C1.39435 5.45753 1.15362 6.19062 1.02765 6.94737C0.900479 7.70317 0.832047 8.46768 0.822968 9.23405C0.812369 9.58424 0.811249 9.9356 0.805664 10.2858V36.6868C0.811249 37.0415 0.812369 37.385 0.822968 37.7398C0.83205 38.5061 0.900481 39.2706 1.02765 40.0264C1.15327 40.7836 1.39402 41.5171 1.74152 42.2014C2.08758 42.8847 2.54205 43.5074 3.08728 44.0453C3.62751 44.5901 4.25172 45.0447 4.93609 45.3916C5.61963 45.7392 6.35153 45.982 7.10726 46.1121C7.8641 46.2364 8.62919 46.3039 9.3961 46.314C9.74915 46.3218 10.096 46.3262 10.4457 46.3262C10.8634 46.3285 11.2773 46.3285 11.6961 46.3285H126.601C127.011 46.3285 127.429 46.3285 127.839 46.3262C128.187 46.3262 128.544 46.3218 128.892 46.314C129.658 46.3045 130.421 46.2369 131.176 46.1121C131.935 45.9811 132.669 45.7383 133.356 45.3916C134.04 45.0445 134.663 44.5899 135.203 44.0453C135.747 43.5053 136.202 42.883 136.553 42.2014C136.898 41.5166 137.136 40.7831 137.26 40.0264C137.387 39.2705 137.458 38.5062 137.472 37.7398C137.476 37.385 137.476 37.0415 137.476 36.6868C137.485 36.2719 137.485 35.8592 137.485 35.4375V11.5329C137.485 11.1146 137.485 10.6997 137.476 10.2858C137.476 9.9356 137.476 9.58424 137.472 9.234C137.458 8.46757 137.387 7.70323 137.26 6.94733C137.136 6.19101 136.897 5.45798 136.553 4.77337C135.848 3.3994 134.73 2.28099 133.356 1.57545C132.669 1.22965 131.935 0.988275 131.176 0.859298C130.421 0.733409 129.658 0.665911 128.892 0.657404C128.544 0.65183 128.187 0.645137 127.839 0.642909C127.429 0.640625 127.011 0.640625 126.601 0.640625V0.640773Z" fill="#A6A6A6"/>
<path d="M10.4512 45.3295C10.1032 45.3295 9.76362 45.3251 9.41835 45.3173C8.70308 45.308 7.98949 45.2457 7.28343 45.131C6.62505 45.0176 5.98727 44.8067 5.39111 44.5052C4.80041 44.2062 4.26165 43.8142 3.79546 43.3441C3.32253 42.8795 2.92879 42.3407 2.62984 41.749C2.32761 41.1534 2.11844 40.5151 2.00963 39.8561C1.89213 39.1481 1.82855 38.4322 1.81946 37.7145C1.81221 37.4736 1.80273 36.6716 1.80273 36.6716V10.2863C1.80273 10.2863 1.81283 9.49655 1.81951 9.26454C1.82822 8.54802 1.89143 7.8332 2.00858 7.12627C2.11759 6.46554 2.32692 5.82534 2.62932 5.22783C2.92716 4.63653 3.31872 4.09732 3.7888 3.6311C4.25836 3.16045 4.79885 2.76638 5.39055 2.46324C5.98534 2.16271 6.62192 1.95328 7.27896 1.84196C7.98735 1.7261 8.70341 1.66346 9.42116 1.65457L10.4518 1.64062H127.833L128.876 1.65513C129.588 1.66358 130.297 1.72566 130.999 1.84084C131.663 1.95356 132.306 2.16445 132.907 2.46659C134.093 3.07749 135.057 4.04399 135.666 5.23062C135.963 5.824 136.17 6.45898 136.277 7.11401C136.396 7.82674 136.462 8.54717 136.476 9.26957C136.479 9.59304 136.479 9.94049 136.479 10.2863C136.488 10.7146 136.488 11.1223 136.488 11.5333V35.4379C136.488 35.8529 136.488 36.2578 136.479 36.666C136.479 37.0374 136.479 37.3777 136.475 37.7279C136.461 38.4374 136.396 39.145 136.279 39.845C136.173 40.5086 135.965 41.152 135.663 41.7524C135.361 42.3377 134.97 42.8718 134.503 43.3352C134.036 43.8078 133.496 44.2021 132.904 44.503C132.304 44.8069 131.662 45.0186 130.999 45.131C130.293 45.2463 129.579 45.3086 128.864 45.3173C128.529 45.3251 128.179 45.3295 127.839 45.3295L126.601 45.3318L10.4512 45.3295Z" fill="black"/>
<path d="M29.0967 23.827C29.109 22.8737 29.3622 21.9389 29.8328 21.1098C30.3034 20.2806 30.9762 19.5839 31.7884 19.0846C31.2724 18.3477 30.5917 17.7412 29.8004 17.3134C29.009 16.8856 28.1288 16.6482 27.2297 16.6201C25.3117 16.4188 23.4522 17.7678 22.4748 17.7678C21.4785 17.7678 19.9737 16.6401 18.3532 16.6734C17.3051 16.7073 16.2836 17.0121 15.3882 17.5581C14.4929 18.1042 13.7542 18.8728 13.2443 19.7892C11.0353 23.6137 12.683 29.2345 14.799 32.326C15.8577 33.8398 17.0951 35.5308 18.7141 35.4708C20.2984 35.4051 20.8901 34.4605 22.8024 34.4605C24.6971 34.4605 25.2522 35.4708 26.9041 35.4327C28.6041 35.4051 29.6752 33.9121 30.6967 32.384C31.4574 31.3053 32.0427 30.1132 32.431 28.8517C31.4434 28.434 30.6005 27.7348 30.0076 26.8413C29.4147 25.9477 29.0979 24.8994 29.0967 23.827Z" fill="white"/>
<path d="M25.9768 14.5885C26.9037 13.4758 27.3603 12.0456 27.2497 10.6016C25.8336 10.7503 24.5255 11.4271 23.5861 12.4972C23.1267 13.0199 22.775 13.628 22.5508 14.2868C22.3267 14.9456 22.2345 15.6421 22.2797 16.3365C22.9881 16.3438 23.6888 16.1903 24.3292 15.8875C24.9696 15.5847 25.5329 15.1406 25.9768 14.5885Z" fill="white"/>
<path d="M49.1237 31.6391H43.7172L42.4189 35.4728H40.1289L45.2498 21.2891H47.629L52.7499 35.4728H50.4209L49.1237 31.6391ZM44.2772 29.87H48.5627L46.4501 23.6482H46.3909L44.2772 29.87Z" fill="white"/>
<path d="M63.8094 30.3027C63.8094 33.5162 62.0894 35.5809 59.4938 35.5809C58.8363 35.6153 58.1824 35.4638 57.607 35.1438C57.0315 34.8239 56.5578 34.3483 56.2401 33.7716H56.191V38.8937H54.0684V25.1316H56.123V26.8516H56.162C56.4944 26.2777 56.9761 25.8046 57.5559 25.4827C58.1357 25.1607 58.7919 25.002 59.4548 25.0234C62.0793 25.0234 63.8094 27.0981 63.8094 30.3027ZM61.6276 30.3027C61.6276 28.2091 60.5456 26.8326 58.8948 26.8326C57.273 26.8326 56.1821 28.238 56.1821 30.3027C56.1821 32.3863 57.273 33.7817 58.8948 33.7817C60.5457 33.7817 61.6276 32.4153 61.6276 30.3027Z" fill="white"/>
<path d="M75.1912 30.3027C75.1912 33.5162 73.4712 35.5809 70.8757 35.5809C70.2181 35.6153 69.5642 35.4638 68.9888 35.1438C68.4134 34.8239 67.9397 34.3483 67.622 33.7716H67.5728V38.8937H65.4502V25.1316H67.5048V26.8516H67.5438C67.8762 26.2777 68.3579 25.8046 68.9377 25.4826C69.5175 25.1607 70.1737 25.002 70.8366 25.0234C73.4612 25.0234 75.1912 27.0981 75.1912 30.3027ZM73.0095 30.3027C73.0095 28.209 71.9275 26.8326 70.2767 26.8326C68.6548 26.8326 67.5639 28.238 67.5639 30.3027C67.5639 32.3863 68.6548 33.7817 70.2767 33.7817C71.9275 33.7817 73.0095 32.4153 73.0095 30.3027H73.0095Z" fill="white"/>
<path d="M82.7139 31.521C82.8712 32.9276 84.2376 33.8511 86.1048 33.8511C87.8939 33.8511 89.1811 32.9276 89.1811 31.6593C89.1811 30.5584 88.4048 29.8992 86.5666 29.4474L84.7284 29.0046C82.1238 28.3755 80.9147 27.1575 80.9147 25.1809C80.9147 22.7337 83.0474 21.0527 86.0758 21.0527C89.0729 21.0527 91.1275 22.7337 91.1967 25.1809H89.0539C88.9257 23.7654 87.7556 22.911 86.0456 22.911C84.3357 22.911 83.1656 23.7755 83.1656 25.0337C83.1656 26.0365 83.913 26.6265 85.7411 27.0782L87.3038 27.4619C90.214 28.1501 91.4231 29.3191 91.4231 31.3938C91.4231 34.0474 89.3094 35.7094 85.9475 35.7094C82.802 35.7094 80.6782 34.0864 80.541 31.5209L82.7139 31.521Z" fill="white"/>
<path d="M96.0035 22.6855V25.1328H97.97V26.8137H96.0035V32.5147C96.0035 33.4003 96.3972 33.813 97.2617 33.813C97.4951 33.8089 97.7282 33.7925 97.9599 33.7639V35.4348C97.5713 35.5074 97.1762 35.5403 96.7809 35.533C94.6873 35.533 93.8708 34.7466 93.8708 32.7411V26.8137H92.3672V25.1328H93.8707V22.6855H96.0035Z" fill="white"/>
<path d="M99.1094 30.3041C99.1094 27.0504 101.026 25.0059 104.014 25.0059C107.012 25.0059 108.92 27.0504 108.92 30.3041C108.92 33.5667 107.022 35.6024 104.014 35.6024C101.007 35.6024 99.1094 33.5667 99.1094 30.3041ZM106.757 30.3041C106.757 28.0722 105.734 26.7548 104.014 26.7548C102.294 26.7548 101.272 28.0822 101.272 30.3041C101.272 32.545 102.294 33.8523 104.014 33.8523C105.734 33.8523 106.757 32.545 106.757 30.3041H106.757Z" fill="white"/>
<path d="M110.669 25.1315H112.693V26.8916H112.743C112.88 26.3419 113.202 25.8561 113.655 25.5158C114.108 25.1756 114.664 25.0017 115.23 25.0233C115.475 25.0224 115.719 25.049 115.957 25.1025V27.0879C115.648 26.9936 115.326 26.9502 115.003 26.9597C114.695 26.9472 114.388 27.0015 114.102 27.119C113.817 27.2366 113.56 27.4144 113.35 27.6405C113.14 27.8665 112.981 28.1353 112.885 28.4285C112.789 28.7217 112.757 29.0322 112.792 29.3389V35.4726H110.669L110.669 25.1315Z" fill="white"/>
<path d="M125.744 32.4368C125.459 34.3141 123.631 35.6024 121.292 35.6024C118.283 35.6024 116.416 33.5868 116.416 30.3532C116.416 27.1096 118.293 25.0059 121.202 25.0059C124.063 25.0059 125.863 26.9712 125.863 30.1067V30.8339H118.559V30.9622C118.525 31.3428 118.573 31.7262 118.699 32.0869C118.824 32.4477 119.026 32.7775 119.289 33.0546C119.552 33.3316 119.871 33.5495 120.225 33.6938C120.578 33.838 120.959 33.9054 121.341 33.8913C121.842 33.9383 122.346 33.8221 122.776 33.5601C123.206 33.298 123.54 32.9041 123.729 32.4368L125.744 32.4368ZM118.569 29.3504H123.739C123.758 29.0082 123.706 28.6658 123.586 28.3446C123.467 28.0234 123.282 27.7304 123.044 27.4839C122.806 27.2375 122.519 27.0429 122.202 26.9125C121.885 26.782 121.545 26.7185 121.202 26.7258C120.857 26.7238 120.514 26.7902 120.194 26.9213C119.874 27.0523 119.584 27.2454 119.339 27.4894C119.094 27.7334 118.9 28.0235 118.768 28.3429C118.635 28.6624 118.568 29.0048 118.569 29.3504V29.3504Z" fill="white"/>
<path d="M44.0106 10.6152C44.4556 10.5832 44.9021 10.6505 45.318 10.812C45.7339 10.9735 46.1088 11.2254 46.4155 11.5493C46.7223 11.8733 46.9534 12.2613 47.092 12.6853C47.2307 13.1094 47.2735 13.559 47.2174 14.0016C47.2174 16.1789 46.0406 17.4304 44.0106 17.4304H41.5488V10.6152H44.0106ZM42.6074 16.4666H43.8923C44.2103 16.4856 44.5285 16.4335 44.8238 16.314C45.1191 16.1945 45.3841 16.0107 45.5994 15.7759C45.8147 15.5411 45.9749 15.2612 46.0684 14.9567C46.1619 14.6522 46.1863 14.3306 46.1399 14.0155C46.183 13.7016 46.1561 13.382 46.0611 13.0797C45.9662 12.7774 45.8056 12.4998 45.5908 12.2669C45.376 12.034 45.1123 11.8515 44.8187 11.7324C44.525 11.6133 44.2087 11.5607 43.8923 11.5783H42.6074V16.4666Z" fill="white"/>
<path d="M48.4138 14.858C48.3815 14.5201 48.4201 14.179 48.5273 13.8569C48.6345 13.5347 48.8079 13.2385 49.0362 12.9872C49.2646 12.7359 49.543 12.5352 49.8535 12.3978C50.164 12.2604 50.4998 12.1895 50.8393 12.1895C51.1788 12.1895 51.5146 12.2604 51.8251 12.3978C52.1357 12.5352 52.414 12.7359 52.6424 12.9872C52.8708 13.2385 53.0441 13.5347 53.1513 13.8569C53.2585 14.179 53.2971 14.5201 53.2648 14.858C53.2977 15.1964 53.2595 15.5379 53.1526 15.8606C53.0457 16.1833 52.8725 16.48 52.6441 16.7318C52.4156 16.9836 52.1371 17.1847 51.8263 17.3224C51.5154 17.4601 51.1792 17.5312 50.8393 17.5312C50.4994 17.5312 50.1632 17.4601 49.8524 17.3224C49.5415 17.1847 49.263 16.9836 49.0345 16.7318C48.8061 16.48 48.6329 16.1833 48.526 15.8606C48.4191 15.5379 48.3809 15.1964 48.4138 14.858ZM52.2207 14.858C52.2207 13.7432 51.7199 13.0912 50.841 13.0912C49.9587 13.0912 49.4624 13.7432 49.4624 14.8581C49.4624 15.9819 49.9587 16.6288 50.841 16.6288C51.7199 16.6288 52.2208 15.9774 52.2208 14.858H52.2207Z" fill="white"/>
<path d="M59.7125 17.4303H58.6595L57.5965 13.6423H57.5162L56.4577 17.4303H55.4148L53.9971 12.2871H55.0266L55.948 16.2117H56.0238L57.0812 12.2871H58.055L59.1124 16.2117H59.1927L60.1096 12.2871H61.1246L59.7125 17.4303Z" fill="white"/>
<path d="M62.3174 12.286H63.2945V13.103H63.3703C63.499 12.8096 63.716 12.5636 63.9912 12.3993C64.2663 12.2351 64.5858 12.1607 64.9052 12.1867C65.1554 12.1679 65.4067 12.2056 65.6404 12.2971C65.8741 12.3886 66.0842 12.5315 66.2552 12.7152C66.4261 12.8989 66.5536 13.1187 66.628 13.3584C66.7025 13.5981 66.7221 13.8514 66.6854 14.0996V17.4291H65.6704V14.3545C65.6704 13.528 65.3112 13.117 64.5605 13.117C64.3906 13.1091 64.221 13.138 64.0633 13.2017C63.9056 13.2655 63.7636 13.3626 63.6469 13.4864C63.5303 13.6102 63.4418 13.7578 63.3875 13.919C63.3332 14.0802 63.3144 14.2512 63.3324 14.4203V17.4292H62.3174L62.3174 12.286Z" fill="white"/>
<path d="M68.3027 10.2793H69.3178V17.4303H68.3027V10.2793Z" fill="white"/>
<path d="M70.7282 14.8562C70.6959 14.5182 70.7346 14.1771 70.8418 13.8549C70.949 13.5328 71.1224 13.2365 71.3508 12.9853C71.5792 12.734 71.8576 12.5332 72.1681 12.3958C72.4786 12.2585 72.8145 12.1875 73.154 12.1875C73.4936 12.1875 73.8294 12.2585 74.1399 12.3958C74.4504 12.5332 74.7288 12.734 74.9572 12.9853C75.1856 13.2365 75.359 13.5328 75.4662 13.8549C75.5734 14.1771 75.6121 14.5182 75.5798 14.8562C75.6127 15.1945 75.5744 15.536 75.4675 15.8587C75.3606 16.1814 75.1873 16.4782 74.9589 16.7299C74.7304 16.9817 74.4518 17.1829 74.141 17.3205C73.8302 17.4582 73.494 17.5293 73.154 17.5293C72.8141 17.5293 72.4779 17.4582 72.167 17.3205C71.8562 17.1829 71.5776 16.9817 71.3492 16.7299C71.1207 16.4782 70.9474 16.1814 70.8405 15.8587C70.7336 15.536 70.6953 15.1945 70.7282 14.8562ZM74.5352 14.8562C74.5352 13.7413 74.0343 13.0894 73.1554 13.0894C72.2731 13.0894 71.7768 13.7413 71.7768 14.8562C71.7768 15.98 72.2731 16.6269 73.1554 16.6269C74.0344 16.6269 74.5352 15.9755 74.5352 14.8562H74.5352Z" fill="white"/>
<path d="M76.6494 15.9774C76.6494 15.0516 77.3387 14.5179 78.5624 14.442L79.9555 14.3617V13.9178C79.9555 13.3746 79.5964 13.0678 78.9026 13.0678C78.3359 13.0678 77.9433 13.2759 77.8306 13.6395H76.848C76.9517 12.7561 77.7827 12.1895 78.9494 12.1895C80.2389 12.1895 80.9661 12.8314 80.9661 13.9178V17.4319H79.989V16.7091H79.9087C79.7457 16.9684 79.5168 17.1798 79.2454 17.3217C78.9739 17.4635 78.6697 17.5308 78.3638 17.5167C78.1479 17.5391 77.9297 17.5161 77.7232 17.4491C77.5168 17.382 77.3266 17.2724 77.1651 17.1274C77.0036 16.9824 76.8742 16.8051 76.7854 16.6071C76.6966 16.409 76.6503 16.1945 76.6494 15.9774ZM79.9555 15.5379V15.108L78.6996 15.1883C77.9913 15.2357 77.67 15.4766 77.67 15.93C77.67 16.3929 78.0716 16.6623 78.6237 16.6623C78.7855 16.6787 78.949 16.6623 79.1043 16.6143C79.2596 16.5662 79.4037 16.4873 79.528 16.3824C79.6522 16.2775 79.7541 16.1487 79.8276 16.0036C79.901 15.8586 79.9445 15.7002 79.9555 15.5379Z" fill="white"/>
<path d="M82.2988 14.8565C82.2988 13.2313 83.1343 12.2017 84.4337 12.2017C84.7552 12.1869 85.0742 12.2639 85.3535 12.4237C85.6328 12.5835 85.8608 12.8195 86.011 13.1041H86.0868V10.2793H87.1018V17.4303H86.1292V16.6177H86.0489C85.8871 16.9004 85.6512 17.1334 85.3665 17.2916C85.0818 17.4498 84.7592 17.527 84.4338 17.515C83.1254 17.5151 82.2988 16.4855 82.2988 14.8565ZM83.3474 14.8565C83.3474 15.9473 83.8616 16.6038 84.7216 16.6038C85.5771 16.6038 86.1058 15.9379 86.1058 14.8609C86.1058 13.789 85.5715 13.1136 84.7216 13.1136C83.8671 13.1136 83.3473 13.7745 83.3473 14.8565H83.3474Z" fill="white"/>
<path d="M91.3015 14.858C91.2692 14.5201 91.3078 14.179 91.415 13.8569C91.5222 13.5347 91.6955 13.2385 91.9239 12.9872C92.1523 12.7359 92.4307 12.5352 92.7412 12.3978C93.0517 12.2604 93.3875 12.1895 93.727 12.1895C94.0665 12.1895 94.4023 12.2604 94.7128 12.3978C95.0233 12.5352 95.3017 12.7359 95.5301 12.9872C95.7584 13.2385 95.9318 13.5347 96.039 13.8569C96.1462 14.179 96.1848 14.5201 96.1525 14.858C96.1854 15.1964 96.1472 15.5379 96.0403 15.8606C95.9334 16.1833 95.7602 16.48 95.5318 16.7318C95.3033 16.9836 95.0248 17.1847 94.7139 17.3224C94.4031 17.4601 94.0669 17.5312 93.727 17.5312C93.3871 17.5312 93.0509 17.4601 92.7401 17.3224C92.4292 17.1847 92.1507 16.9836 91.9222 16.7318C91.6938 16.48 91.5206 16.1833 91.4137 15.8606C91.3068 15.5379 91.2686 15.1964 91.3015 14.858ZM95.1084 14.858C95.1084 13.7432 94.6076 13.0912 93.7287 13.0912C92.8464 13.0912 92.35 13.7432 92.35 14.8581C92.35 15.9819 92.8464 16.6288 93.7287 16.6288C94.6076 16.6288 95.1084 15.9774 95.1084 14.858Z" fill="white"/>
<path d="M97.5137 12.286H98.4908V13.103H98.5666C98.6953 12.8096 98.9123 12.5636 99.1875 12.3993C99.4626 12.2351 99.7821 12.1607 100.101 12.1867C100.352 12.1679 100.603 12.2056 100.837 12.2971C101.07 12.3886 101.28 12.5315 101.451 12.7152C101.622 12.8989 101.75 13.1187 101.824 13.3584C101.899 13.5981 101.918 13.8514 101.882 14.0996V17.4291H100.867V14.3545C100.867 13.528 100.507 13.117 99.7568 13.117C99.5869 13.1091 99.4173 13.138 99.2596 13.2017C99.1019 13.2655 98.9599 13.3626 98.8432 13.4864C98.7266 13.6102 98.6381 13.7578 98.5838 13.919C98.5295 14.0802 98.5107 14.2512 98.5287 14.4203V17.4292H97.5137V12.286Z" fill="white"/>
<path d="M107.619 11.0059V12.3098H108.733V13.1648H107.619V15.8094C107.619 16.3482 107.841 16.5841 108.346 16.5841C108.475 16.5837 108.605 16.5759 108.733 16.5607V17.4062C108.551 17.4388 108.366 17.4561 108.181 17.458C107.052 17.458 106.603 17.0609 106.603 16.0693V13.1647H105.786V12.3097H106.603V11.0059H107.619Z" fill="white"/>
<path d="M110.118 10.2793H111.124V13.1136H111.205C111.34 12.8174 111.562 12.57 111.843 12.4051C112.124 12.2403 112.448 12.1659 112.773 12.1923C113.022 12.1787 113.271 12.2203 113.502 12.314C113.733 12.4077 113.94 12.5512 114.109 12.7344C114.279 12.9175 114.405 13.1357 114.48 13.3735C114.556 13.6112 114.577 13.8626 114.544 14.1097V17.4303H113.528V14.3601C113.528 13.5386 113.145 13.1225 112.428 13.1225C112.254 13.1082 112.078 13.1322 111.914 13.1928C111.75 13.2534 111.601 13.3491 111.478 13.4733C111.354 13.5975 111.259 13.7472 111.2 13.9118C111.141 14.0764 111.118 14.2521 111.133 14.4264V17.4303H110.118L110.118 10.2793Z" fill="white"/>
<path d="M120.463 16.0414C120.325 16.5114 120.027 16.918 119.619 17.19C119.212 17.4621 118.722 17.5822 118.235 17.5293C117.896 17.5383 117.559 17.4734 117.248 17.3391C116.937 17.2049 116.658 17.0045 116.432 16.752C116.206 16.4994 116.038 16.2006 115.939 15.8764C115.84 15.5523 115.813 15.2104 115.859 14.8746C115.814 14.5378 115.841 14.1952 115.94 13.8701C116.039 13.5449 116.207 13.2448 116.431 12.99C116.656 12.7352 116.933 12.5317 117.244 12.3933C117.554 12.2548 117.89 12.1847 118.23 12.1876C119.661 12.1876 120.525 13.1653 120.525 14.7804V15.1345H116.893V15.1914C116.877 15.3802 116.901 15.5702 116.962 15.7492C117.024 15.9282 117.123 16.0924 117.252 16.2311C117.381 16.3698 117.537 16.4801 117.711 16.5548C117.885 16.6295 118.073 16.667 118.263 16.6649C118.505 16.694 118.751 16.6503 118.969 16.5393C119.187 16.4282 119.367 16.2549 119.486 16.0413L120.463 16.0414ZM116.893 14.3839H119.491C119.503 14.2112 119.48 14.0379 119.422 13.8748C119.364 13.7118 119.272 13.5628 119.153 13.4373C119.033 13.3118 118.889 13.2127 118.729 13.1462C118.57 13.0798 118.398 13.0475 118.225 13.0515C118.049 13.0493 117.875 13.0822 117.712 13.1484C117.55 13.2146 117.402 13.3127 117.278 13.4368C117.154 13.561 117.056 13.7088 116.99 13.8714C116.923 14.0341 116.891 14.2083 116.893 14.3839H116.893Z" fill="white"/>
</g>
<defs>
<clipPath id="clip0_211_37077">
<rect width="136.68" height="45.6878" fill="white" transform="translate(0.805664 0.640625)"/>
</clipPath>
</defs>
</svg>
