<svg width="33" height="32" viewBox="0 0 33 32" fill="none" xmlns="http://www.w3.org/2000/svg">
<path d="M12.542 16H20.542" stroke="#0BB8E4" stroke-width="2" stroke-linecap="round" stroke-linejoin="round"/>
<path d="M11.542 7H8.54199C7.98971 7 7.54199 7.44772 7.54199 8V24C7.54199 24.5523 7.98971 25 8.54199 25H11.542C12.0943 25 12.542 24.5523 12.542 24V8C12.542 7.44772 12.0943 7 11.542 7Z" stroke="#005E9E" stroke-width="2" stroke-linecap="round" stroke-linejoin="round"/>
<path d="M24.542 7H21.542C20.9897 7 20.542 7.44772 20.542 8V24C20.542 24.5523 20.9897 25 21.542 25H24.542C25.0943 25 25.542 24.5523 25.542 24V8C25.542 7.44772 25.0943 7 24.542 7Z" stroke="#005E9E" stroke-width="2" stroke-linecap="round" stroke-linejoin="round"/>
<path d="M29.542 16H31.542" stroke="#0BB8E4" stroke-width="2" stroke-linecap="round" stroke-linejoin="round"/>
<path d="M25.542 10H28.542C28.8072 10 29.0616 10.1054 29.2491 10.2929C29.4366 10.4804 29.542 10.7348 29.542 11V21C29.542 21.2652 29.4366 21.5196 29.2491 21.7071C29.0616 21.8946 28.8072 22 28.542 22H25.542" stroke="#005E9E" stroke-width="2" stroke-linecap="round" stroke-linejoin="round"/>
<path d="M1.54199 16H3.54199" stroke="#0BB8E4" stroke-width="2" stroke-linecap="round" stroke-linejoin="round"/>
<path d="M7.54199 22H4.54199C4.27678 22 4.02242 21.8946 3.83489 21.7071C3.64735 21.5196 3.54199 21.2652 3.54199 21V11C3.54199 10.7348 3.64735 10.4804 3.83489 10.2929C4.02242 10.1054 4.27678 10 4.54199 10H7.54199" stroke="#005E9E" stroke-width="2" stroke-linecap="round" stroke-linejoin="round"/>
</svg>
