<svg width="375" height="209" viewBox="0 0 375 209" fill="none" xmlns="http://www.w3.org/2000/svg">
<path fill-rule="evenodd" clip-rule="evenodd" d="M0 -6H375V209H0V-6Z" fill="url(#paint0_linear_211_18734)"/>
<mask id="mask0_211_18734" style="mask-type:alpha" maskUnits="userSpaceOnUse" x="0" y="-6" width="375" height="215">
<path fill-rule="evenodd" clip-rule="evenodd" d="M0 -6H375V209H0V-6Z" fill="white"/>
</mask>
<g mask="url(#mask0_211_18734)">
<g opacity="0.1">
<path d="M121.417 -103C103.006 -72.7746 90.954 -38.6835 86.273 -3.59067C83.3772 18.1201 84.3932 43.0198 100.353 57.9976C112.314 69.2249 129.945 72.0179 146.328 71.4144C162.711 70.811 179.001 67.3629 195.366 68.3263C211.731 69.2909 229.061 75.7599 237.363 89.9159C245.221 103.311 243.264 119.999 242.301 135.504C241.34 151.011 242.496 168.614 254.182 178.831C270.733 193.3 297.7 184.359 317.21 194.476C335.715 204.07 343.229 228.549 362.296 236.966C378.233 244.004 396.577 237.464 412.695 230.857C429.499 223.968 446.267 216.995 463 209.937" stroke="#0BB8E4" stroke-width="2.3"/>
<path d="M140.646 -123C122.626 -93.479 110.828 -60.1845 106.246 -25.9097C103.412 -4.70514 104.406 19.6139 120.029 34.2431C131.735 45.2079 148.994 47.9365 165.03 47.3457C181.065 46.7574 197.011 43.3888 213.031 44.3307C229.05 45.2726 246.012 51.5914 254.139 65.4154C261.83 78.5001 259.915 94.7974 258.972 109.942C258.031 125.087 259.162 142.278 270.602 152.258C286.803 166.39 313.199 157.657 332.296 167.538C350.408 176.909 357.764 200.815 376.428 209.038C392.027 215.91 409.983 209.524 425.761 203.071C442.208 196.342 458.622 189.532 475 182.639" stroke="#0BB8E4" stroke-width="2.3"/>
<path d="M158.875 -143C141.243 -114.095 129.702 -81.4968 125.22 -47.9379C122.445 -27.1763 123.419 -3.36545 138.703 10.9578C150.158 21.6927 167.043 24.3639 182.732 23.7864C198.421 23.209 214.022 19.9124 229.695 20.8344C245.368 21.7563 261.963 27.9426 269.914 41.4783C277.44 54.2889 275.565 70.246 274.644 85.0747C273.722 99.9021 274.829 116.734 286.022 126.505C301.872 140.342 327.696 131.792 346.382 141.467C364.103 150.643 371.299 174.049 389.558 182.1C404.82 188.828 422.388 182.575 437.825 176.257C453.916 169.668 469.975 163.001 486 156.252" stroke="#0BB8E4" stroke-width="2.3"/>
<path d="M178.01 -163C160.815 -134.801 149.562 -102.997 145.189 -70.2569C142.484 -50.0016 143.433 -26.7715 158.337 -12.7979C169.508 -2.32431 185.973 0.282389 201.271 -0.281158C216.571 -0.844706 231.784 -4.06172 247.067 -3.16124C262.35 -2.26196 278.533 3.77279 286.287 16.979C293.625 29.4777 291.798 45.0448 290.899 59.5112C290 73.9788 291.08 90.3996 301.993 99.9319C317.449 113.431 342.633 105.09 360.853 114.528C378.134 123.48 385.149 146.315 402.956 154.17C417.838 160.735 434.971 154.634 450.022 148.47C465.714 142.043 481.373 135.537 497 128.952" stroke="#0BB8E4" stroke-width="2.3"/>
<path d="M196.239 -184C179.434 -156.417 168.435 -125.31 164.162 -93.285C161.519 -73.4738 162.446 -50.7518 177.013 -37.083C187.93 -26.8392 204.021 -24.29 218.973 -24.8414C233.926 -25.3916 248.795 -28.5379 263.732 -27.6586C278.668 -26.778 294.485 -20.8746 302.062 -7.9579C309.234 4.26686 307.449 19.4938 306.569 33.6443C305.691 47.7948 306.747 63.8566 317.412 73.1813C332.519 86.384 357.131 78.2257 374.939 87.4568C391.827 96.2133 398.685 118.55 416.088 126.232C430.633 132.653 447.377 126.686 462.088 120.657C477.424 114.37 492.729 108.007 508 101.566" stroke="#0BB8E4" stroke-width="2.3"/>
<path d="M215.372 -204C199.006 -177.123 188.294 -146.809 184.131 -115.604C181.558 -96.2979 182.461 -74.1578 196.646 -60.8387C207.28 -50.8563 222.951 -48.3727 237.513 -48.909C252.077 -49.4453 266.556 -52.512 281.104 -51.6542C295.65 -50.7963 311.055 -45.0444 318.434 -32.4572C325.419 -20.5455 323.679 -5.70624 322.824 8.08197C321.969 21.8702 322.995 37.5217 333.384 46.6079C348.096 59.4734 372.066 51.5235 389.409 60.5197C405.857 69.0515 412.536 90.816 429.486 98.3029C443.651 104.56 459.957 98.7456 474.285 92.8701C489.221 86.7439 504.125 80.5433 519 74.2671" stroke="#0BB8E4" stroke-width="2.3"/>
<path d="M234.601 -224C218.625 -197.828 208.167 -168.31 204.104 -137.923C201.592 -119.123 202.473 -97.5638 216.323 -84.5932C226.701 -74.8733 242 -72.4541 256.216 -72.9766C270.431 -73.5002 284.567 -76.4849 298.768 -75.6498C312.968 -74.8146 328.005 -69.213 335.21 -56.9565C342.028 -45.3566 340.33 -30.9086 339.495 -17.4815C338.659 -4.05438 339.662 11.1868 349.804 20.0344C364.165 32.5629 387.564 24.8213 404.494 33.5814C420.551 41.8897 427.071 63.0837 443.616 70.3736C457.445 76.4665 473.362 70.8049 487.349 65.0835C501.929 59.1188 516.479 53.0798 531 46.9689" stroke="#0BB8E4" stroke-width="2.3"/>
<path d="M252.83 -244C237.244 -218.445 227.041 -189.622 223.078 -159.951C220.626 -141.595 221.487 -120.543 234.997 -107.88C245.123 -98.3883 260.048 -96.0253 273.917 -96.5368C287.786 -97.0459 301.576 -99.9623 315.432 -99.1459C329.286 -98.3306 343.956 -92.8616 350.985 -80.8934C357.637 -69.5675 355.98 -55.4597 355.165 -42.3484C354.351 -29.2384 355.33 -14.3562 365.223 -5.71739C379.235 6.51618 402.063 -1.0432 418.579 7.51033C434.245 15.622 440.606 36.3179 456.747 43.4354C470.239 49.3847 485.769 43.8568 499.415 38.2701C513.64 32.4457 527.834 26.5493 542 20.582" stroke="#0BB8E4" stroke-width="2.3"/>
<path d="M271.963 -264C256.814 -239.15 246.899 -211.122 243.048 -182.27C240.664 -164.421 241.501 -143.949 254.632 -131.634C264.473 -122.404 278.978 -120.108 292.457 -120.604C305.937 -121.101 319.339 -123.935 332.803 -123.143C346.269 -122.349 360.526 -117.031 367.357 -105.393C373.823 -94.3798 372.213 -80.6597 371.421 -67.9119C370.629 -55.1629 371.58 -40.691 381.196 -32.2908C394.812 -20.3943 416.999 -27.7454 433.051 -19.4279C448.275 -11.5385 454.458 8.58431 470.145 15.5061C483.257 21.2913 498.35 15.9162 511.613 10.4823C525.436 4.81945 539.233 -0.914164 553 -6.71613" stroke="#0BB8E4" stroke-width="2.3"/>
</g>
</g>
<defs>
<linearGradient id="paint0_linear_211_18734" x1="4.50001" y1="-6.00001" x2="197.228" y2="320.252" gradientUnits="userSpaceOnUse">
<stop stop-color="#1A3E6D"/>
<stop offset="1" stop-color="#2D6FC6"/>
</linearGradient>
</defs>
</svg>
