<svg width="100" height="91" viewBox="0 0 100 91" fill="none" xmlns="http://www.w3.org/2000/svg">
<path d="M0 9C0 4.02943 4.02944 0 9 0H91.0308C95.9758 0 99.9846 4.00877 99.9846 8.95385V81.3308C99.9846 86.2758 95.9758 90.2846 91.0308 90.2846H8.95385C4.00878 90.2846 0 86.2758 0 81.3308V9Z" fill="#7471DA"/>
<mask id="mask0_211_13839" style="mask-type:alpha" maskUnits="userSpaceOnUse" x="0" y="0" width="100" height="91">
<path d="M0 9C0 4.02943 4.02944 0 9 0H91.0308C95.9758 0 99.9846 4.00877 99.9846 8.95385V81.3308C99.9846 86.2758 95.9758 90.2846 91.0308 90.2846H8.95385C4.00878 90.2846 0 86.2758 0 81.3308V9Z" fill="white"/>
</mask>
<g mask="url(#mask0_211_13839)">
<g opacity="0.1">
<path d="M-24.9292 -120.798C-34.9598 -100.504 -41.5257 -77.6145 -44.076 -54.0524C-45.6537 -39.4752 -45.1001 -22.757 -36.405 -12.7006C-29.8887 -5.1623 -20.283 -3.28699 -11.3574 -3.69218C-2.43184 -4.09737 6.44347 -6.41249 15.3592 -5.76564C24.275 -5.11799 33.7162 -0.774507 38.2397 8.7301C42.5204 17.724 41.4545 28.9283 40.9297 39.3392C40.4062 49.7508 41.0361 61.5698 47.4029 68.4298C56.4198 78.1446 71.1117 72.1417 81.7409 78.934C91.8225 85.376 95.9165 101.811 106.304 107.463C114.987 112.189 124.981 107.797 133.762 103.361C142.917 98.7359 152.053 94.0541 161.169 89.3151" stroke="white" stroke-width="1.71615"/>
<path d="M-14.1681 -133.834C-23.9798 -114.076 -30.4036 -91.7915 -32.8988 -68.8515C-34.4419 -54.6593 -33.9006 -38.3827 -25.3943 -28.5913C-19.0201 -21.2526 -9.62303 -19.4264 -0.891424 -19.8218C7.83953 -20.2156 16.5222 -22.4701 25.2446 -21.8397C33.9671 -21.2093 43.2028 -16.9802 47.6277 -7.72779C51.8156 1.02972 50.7727 11.9375 50.2594 22.0737C49.7468 32.21 50.3626 43.7161 56.5918 50.3955C65.4129 59.854 79.7853 54.0095 90.1835 60.6224C100.045 66.8943 104.05 82.8951 114.213 88.3987C122.706 92.9976 132.483 88.7236 141.074 84.4046C150.029 79.9011 158.967 75.3431 167.884 70.7297" stroke="white" stroke-width="1.71615"/>
<path d="M-4.82783 -146.87C-14.4589 -127.494 -20.7631 -105.642 -23.2111 -83.1462C-24.7267 -69.2291 -24.1948 -53.2678 -15.8465 -43.6665C-9.58958 -36.4705 -0.366443 -34.6799 8.20286 -35.067C16.7728 -35.4541 25.2943 -37.6639 33.855 -37.0459C42.4158 -36.4278 51.4802 -32.281 55.8236 -23.2075C59.9341 -14.6202 58.9098 -3.92354 58.4068 6.01662C57.9031 15.956 58.5078 27.2392 64.6218 33.789C73.2796 43.0645 87.3852 37.3331 97.5913 43.8185C107.271 49.9691 111.202 65.6592 121.175 71.0558C129.512 75.5663 139.107 71.3744 147.539 67.1391C156.328 62.7227 165.1 58.2531 173.853 53.7289" stroke="white" stroke-width="1.71615"/>
<path d="M5.86195 -160.774C-3.51508 -141.859 -9.65205 -120.524 -12.0365 -98.5626C-13.5118 -84.9753 -12.9941 -69.3926 -4.86614 -60.0192C1.22573 -52.9935 10.2047 -51.245 18.5477 -51.623C26.8913 -52.001 35.1879 -54.159 43.5224 -53.5549C51.8568 -52.9517 60.6822 -48.9036 64.9106 -40.0449C68.9128 -31.6608 67.916 -21.2184 67.4257 -11.5144C66.9355 -1.80959 67.5244 9.20545 73.4758 15.5997C81.905 24.6547 95.6392 19.0599 105.575 25.3906C114.999 31.3956 118.825 46.7137 128.536 51.9827C136.652 56.3863 145.995 52.294 154.203 48.159C162.761 43.8479 171.301 39.4837 179.823 35.0665" stroke="white" stroke-width="1.71615"/>
<path d="M15.8769 -174.679C6.71819 -156.223 0.723322 -135.407 -1.60544 -113.978C-3.04612 -100.722 -2.5406 -85.5174 5.3985 -76.3711C11.3482 -69.5166 20.1185 -67.8108 28.2676 -68.1797C36.4172 -68.5479 44.5211 -70.6532 52.6616 -70.0648C60.8022 -69.4756 69.4227 -65.5254 73.5525 -56.8823C77.4612 -48.7022 76.4881 -38.5133 76.0088 -29.0446C75.5301 -19.5759 76.1055 -8.82832 81.9186 -2.58875C90.152 6.24567 103.566 0.78666 113.272 6.96352C122.476 12.8229 126.213 27.769 135.698 32.9097C143.626 37.2064 152.751 33.2136 160.769 29.179C169.128 24.9724 177.469 20.7144 185.792 16.4049" stroke="white" stroke-width="1.71615"/>
<path d="M25.8919 -187.715C16.9514 -169.718 11.0993 -149.42 8.82564 -128.525C7.41954 -115.598 7.91288 -100.773 15.6625 -91.8546C21.4714 -85.1705 30.0323 -83.5074 37.9873 -83.8666C45.9437 -84.2257 53.8536 -86.2791 61.8008 -85.7047C69.7473 -85.1303 78.163 -81.2789 82.1941 -72.8505C86.01 -64.8745 85.0593 -54.9382 84.5921 -45.7057C84.125 -36.4731 84.6857 -25.9929 90.3612 -19.9089C98.398 -11.2942 111.493 -16.6174 120.967 -10.5936C129.952 -4.88071 133.601 9.69273 142.861 14.7059C150.599 18.8955 159.507 15.0023 167.334 11.0681C175.493 6.96604 183.636 2.81413 191.761 -1.38839" stroke="white" stroke-width="1.71615"/>
</g>
</g>
</svg>
