<svg width="280" height="105" viewBox="0 0 280 105" fill="none" xmlns="http://www.w3.org/2000/svg">
<mask id="mask0_211_48190" style="mask-type:alpha" maskUnits="userSpaceOnUse" x="0" y="0" width="288" height="105">
<path d="M0 0H288V89C288 97.8366 280.837 105 272 105H16C7.16345 105 0 97.8366 0 89V0Z" fill="url(#paint0_linear_211_48190)"/>
</mask>
<g mask="url(#mask0_211_48190)">
<g opacity="0.2">
<path d="M52.5341 -104.459C37.41 -79.5418 27.5101 -51.4379 23.6649 -22.5082C21.2861 -4.61033 22.1207 15.9164 35.231 28.2638C45.0562 37.5193 59.5395 39.8218 72.9973 39.3243C86.4552 38.8268 99.8372 35.9843 113.28 36.7785C126.723 37.5737 140.959 42.9066 147.779 54.5765C154.233 65.6192 152.626 79.3759 151.835 92.1584C151.046 104.942 151.995 119.453 161.595 127.876C175.191 139.804 197.343 132.434 213.369 140.773C228.57 148.683 234.743 168.862 250.405 175.801C263.497 181.603 278.566 176.212 291.806 170.765C305.61 165.086 319.384 159.338 333.129 153.519" stroke="#0BB8E4" stroke-width="2.3"/>
<path d="M68.3297 -120.945C53.5271 -96.6089 43.8357 -69.1616 40.0712 -40.9063C37.7432 -23.4258 38.5599 -3.37772 51.3931 8.68232C61.0096 17.7214 75.1867 19.9708 88.3598 19.4838C101.532 18.9987 114.631 16.2218 127.79 16.9983C140.95 17.7748 154.883 22.9839 161.559 34.38C167.877 45.1667 166.304 58.6019 165.529 71.0867C164.756 83.5715 165.685 97.7437 175.083 105.971C188.391 117.621 210.074 110.422 225.762 118.567C240.64 126.292 246.682 146.001 262.014 152.779C274.827 158.444 289.578 153.18 302.539 147.86C316.049 142.313 329.533 136.699 342.986 131.016" stroke="#0BB8E4" stroke-width="2.3"/>
<path d="M83.303 -137.433C68.8189 -113.604 59.338 -86.7308 55.6563 -59.0656C53.3771 -41.9502 54.177 -22.3211 66.732 -10.5134C76.1418 -1.66372 90.0124 0.538292 102.9 0.0622611C115.788 -0.41377 128.604 -3.13141 141.478 -2.37135C154.353 -1.61128 167.985 3.4885 174.517 14.647C180.698 25.2078 179.158 38.3625 178.401 50.5869C177.644 62.8103 178.553 76.6865 187.748 84.7414C200.769 96.1484 221.982 89.0999 237.331 97.0757C251.888 104.64 257.8 123.935 272.799 130.572C285.336 136.119 299.767 130.964 312.448 125.755C325.666 120.324 338.858 114.827 352.021 109.263" stroke="#0BB8E4" stroke-width="2.3"/>
<path d="M99.0223 -153.921C84.8977 -130.674 75.6536 -104.456 72.0619 -77.4657C69.8397 -60.7677 70.6195 -41.6173 82.8626 -30.0978C92.0387 -21.4636 105.564 -19.3147 118.131 -19.7793C130.699 -20.2439 143.196 -22.8959 155.75 -22.1535C168.304 -21.4122 181.598 -16.4373 187.967 -5.55043C193.996 4.75326 192.494 17.5864 191.756 29.5121C191.017 41.4389 191.904 54.9758 200.869 62.834C213.566 73.9621 234.254 67.0864 249.22 74.8665C263.415 82.2464 269.178 101.072 283.806 107.547C296.031 112.959 310.105 107.929 322.469 102.848C335.359 97.5497 348.222 92.1863 361.059 86.7577" stroke="#0BB8E4" stroke-width="2.3"/>
<path d="M113.997 -171.232C100.192 -148.494 91.1569 -122.85 87.6469 -96.4491C85.4755 -80.1172 86.2375 -61.3857 98.2034 -50.1175C107.171 -41.6728 120.39 -39.5712 132.672 -40.0258C144.955 -40.4794 157.169 -43.0731 169.439 -42.3482C181.708 -41.6222 194.701 -36.7557 200.926 -26.1074C206.817 -16.0296 205.35 -3.47691 204.628 8.18843C203.906 19.8538 204.774 33.0948 213.535 40.7819C225.945 51.6658 246.163 44.9403 260.791 52.5502C274.664 59.7689 280.297 78.1825 294.593 84.5158C306.541 89.8092 320.295 84.8901 332.38 79.9195C344.978 74.737 357.55 69.4911 370.095 64.1819" stroke="#0BB8E4" stroke-width="2.3"/>
<path d="M129.716 -187.721C116.272 -165.564 107.472 -140.573 104.053 -114.849C101.939 -98.9336 102.681 -80.6818 114.334 -69.7018C123.069 -61.4726 135.942 -59.4251 147.904 -59.8673C159.868 -60.3094 171.762 -62.8375 183.712 -62.1303C195.661 -61.4231 208.316 -56.6814 214.377 -46.3048C220.115 -36.485 218.686 -24.2519 217.983 -12.8852C217.281 -1.51853 218.124 11.3842 226.658 18.8746C238.743 29.4807 258.433 22.927 272.68 30.3432C286.191 37.3767 291.678 55.3188 305.601 61.4908C317.238 66.6489 330.632 61.8558 342.402 57.0122C354.671 51.9619 366.914 46.8502 379.133 41.6763" stroke="#0BB8E4" stroke-width="2.3"/>
<path d="M145.51 -204.209C132.387 -182.633 123.796 -158.299 120.459 -133.249C118.395 -117.751 119.119 -99.9779 130.496 -89.2852C139.021 -81.2724 151.589 -79.2781 163.266 -79.7087C174.943 -80.1404 186.555 -82.6009 198.221 -81.9125C209.885 -81.224 222.238 -76.6061 228.156 -66.5022C233.757 -56.9395 232.362 -45.0289 231.676 -33.9599C230.99 -22.8909 231.813 -10.3264 240.145 -3.03262C251.942 7.29557 271.163 0.91355 285.071 8.13518C298.261 14.9844 303.616 32.4562 317.207 38.4658C328.567 43.4887 341.642 38.8214 353.132 34.1048C365.109 29.1876 377.061 24.2092 388.989 19.1716" stroke="#0BB8E4" stroke-width="2.3"/>
<path d="M160.484 -220.696C147.681 -199.629 139.3 -175.868 136.044 -151.408C134.031 -136.276 134.738 -118.921 145.835 -108.482C154.154 -100.657 166.414 -98.7094 177.807 -99.131C189.199 -99.5507 200.528 -101.955 211.909 -101.282C223.29 -100.61 235.34 -96.1013 241.115 -86.2349C246.579 -76.8982 245.218 -65.268 244.548 -54.4594C243.88 -43.6518 244.684 -31.3832 252.811 -24.2616C264.321 -14.1765 283.073 -20.4083 296.64 -13.357C309.509 -6.66987 314.734 10.3913 327.993 16.2588C339.076 21.1633 351.834 16.6063 363.044 12.0007C374.728 7.1992 386.388 2.33831 398.025 -2.581" stroke="#0BB8E4" stroke-width="2.3"/>
</g>
</g>
<defs>
<linearGradient id="paint0_linear_211_48190" x1="3.45601" y1="-2.99387e-06" x2="74.2112" y2="188.355" gradientUnits="userSpaceOnUse">
<stop stop-color="#1A3E6D"/>
<stop offset="1" stop-color="#2D6FC6"/>
</linearGradient>
</defs>
</svg>
