<svg width="48" height="48" viewBox="0 0 48 48" fill="none" xmlns="http://www.w3.org/2000/svg">
<path d="M38.998 6H34.498V4.5C34.498 4.10218 34.34 3.72064 34.0587 3.43934C33.7774 3.15804 33.3959 3 32.998 3C32.6002 3 32.2187 3.15804 31.9374 3.43934C31.6561 3.72064 31.498 4.10218 31.498 4.5V6H16.498V4.5C16.498 4.10218 16.34 3.72064 16.0587 3.43934C15.7774 3.15804 15.3959 3 14.998 3C14.6002 3 14.2187 3.15804 13.9374 3.43934C13.6561 3.72064 13.498 4.10218 13.498 4.5V6H8.99805C8.20264 6.00079 7.44003 6.31711 6.87759 6.87955C6.31516 7.44199 5.99883 8.20459 5.99805 9V39C5.99883 39.7954 6.31516 40.558 6.87759 41.1205C7.44003 41.6829 8.20264 41.9992 8.99805 42H38.998C39.7935 41.9992 40.5561 41.6829 41.1185 41.1205C41.6809 40.558 41.9973 39.7954 41.998 39V9C41.9973 8.20459 41.6809 7.44199 41.1185 6.87955C40.5561 6.31711 39.7935 6.00079 38.998 6ZM31.7771 25.0909L23.0271 33.3409C22.7484 33.6038 22.3795 33.7501 21.9964 33.7496C21.6132 33.7492 21.2447 33.6021 20.9666 33.3386L16.2165 28.8386C16.0732 28.7032 15.9579 28.5409 15.8774 28.3609C15.7968 28.1809 15.7525 27.9868 15.747 27.7897C15.7415 27.5926 15.775 27.3964 15.8454 27.2122C15.9159 27.028 16.0219 26.8596 16.1575 26.7164C16.2931 26.5733 16.4556 26.4583 16.6357 26.378C16.8158 26.2977 17.01 26.2537 17.2071 26.2486C17.4042 26.2434 17.6004 26.2771 17.7845 26.3478C17.9685 26.4186 18.1368 26.5249 18.2798 26.6607L22.0005 30.1857L29.7192 22.9083C29.8625 22.7732 30.031 22.6676 30.2151 22.5976C30.3992 22.5276 30.5953 22.4946 30.7922 22.5004C30.9891 22.5062 31.1829 22.5507 31.3626 22.6314C31.5423 22.7121 31.7043 22.8274 31.8394 22.9707C31.9746 23.114 32.0801 23.2825 32.1501 23.4666C32.2201 23.6507 32.2532 23.8468 32.2474 24.0437C32.2416 24.2406 32.1971 24.4344 32.1164 24.6141C32.0357 24.7938 31.9204 24.9558 31.7771 25.0909H31.7771ZM38.998 15H8.99805V9H13.498V10.5C13.498 10.8978 13.6561 11.2794 13.9374 11.5607C14.2187 11.842 14.6002 12 14.998 12C15.3959 12 15.7774 11.842 16.0587 11.5607C16.34 11.2794 16.498 10.8978 16.498 10.5V9H31.498V10.5C31.498 10.8978 31.6561 11.2794 31.9374 11.5607C32.2187 11.842 32.6002 12 32.998 12C33.3959 12 33.7774 11.842 34.0587 11.5607C34.34 11.2794 34.498 10.8978 34.498 10.5V9H38.998V15Z" fill="#005E9E"/>
</svg>
