<svg width="515" height="230" viewBox="0 0 515 230" fill="none" xmlns="http://www.w3.org/2000/svg">
<path d="M17.8129 224.225C17.7195 224.225 17.6402 224.197 17.5749 224.141C17.5189 224.075 17.4909 223.996 17.4909 223.903V215.671H14.8029C14.7095 215.671 14.6302 215.643 14.5649 215.587C14.5089 215.521 14.4809 215.442 14.4809 215.349V214.761C14.4809 214.667 14.5089 214.588 14.5649 214.523C14.6302 214.457 14.7095 214.425 14.8029 214.425H21.5509C21.6535 214.425 21.7329 214.457 21.7889 214.523C21.8542 214.579 21.8869 214.658 21.8869 214.761V215.349C21.8869 215.442 21.8542 215.521 21.7889 215.587C21.7235 215.643 21.6442 215.671 21.5509 215.671H18.8769V223.903C18.8769 223.996 18.8442 224.075 18.7789 224.141C18.7135 224.197 18.6342 224.225 18.5409 224.225H17.8129ZM24.9164 224.365C23.8898 224.365 23.0918 224.075 22.5224 223.497C21.9624 222.918 21.6638 222.148 21.6264 221.187L21.6124 220.585L21.6264 219.983C21.6638 219.031 21.9671 218.265 22.5364 217.687C23.1058 217.099 23.8991 216.805 24.9164 216.805C25.9338 216.805 26.7271 217.099 27.2964 217.687C27.8658 218.265 28.1691 219.031 28.2064 219.983C28.2158 220.085 28.2204 220.286 28.2204 220.585C28.2204 220.883 28.2158 221.084 28.2064 221.187C28.1691 222.148 27.8658 222.918 27.2964 223.497C26.7364 224.075 25.9431 224.365 24.9164 224.365ZM24.9164 223.287C25.5044 223.287 25.9664 223.1 26.3024 222.727C26.6478 222.353 26.8344 221.817 26.8624 221.117C26.8718 221.023 26.8764 220.846 26.8764 220.585C26.8764 220.323 26.8718 220.146 26.8624 220.053C26.8344 219.353 26.6478 218.816 26.3024 218.443C25.9664 218.069 25.5044 217.883 24.9164 217.883C24.3284 217.883 23.8618 218.069 23.5164 218.443C23.1711 218.816 22.9891 219.353 22.9704 220.053L22.9564 220.585L22.9704 221.117C22.9891 221.817 23.1711 222.353 23.5164 222.727C23.8618 223.1 24.3284 223.287 24.9164 223.287ZM32.6335 224.365C31.6628 224.365 30.9302 224.047 30.4355 223.413C29.9408 222.778 29.6795 221.975 29.6515 221.005L29.6375 220.585L29.6515 220.165C29.6795 219.203 29.9408 218.405 30.4355 217.771C30.9302 217.127 31.6628 216.805 32.6335 216.805C33.5948 216.805 34.3508 217.145 34.9015 217.827V214.607C34.9015 214.513 34.9295 214.439 34.9855 214.383C35.0508 214.317 35.1302 214.285 35.2235 214.285H35.8955C35.9888 214.285 36.0635 214.317 36.1195 214.383C36.1848 214.439 36.2175 214.513 36.2175 214.607V223.903C36.2175 223.996 36.1848 224.075 36.1195 224.141C36.0635 224.197 35.9888 224.225 35.8955 224.225H35.2655C35.1722 224.225 35.0928 224.197 35.0275 224.141C34.9715 224.075 34.9435 223.996 34.9435 223.903V223.315C34.4022 224.015 33.6322 224.365 32.6335 224.365ZM32.9275 223.231C33.5715 223.231 34.0522 223.021 34.3695 222.601C34.6962 222.171 34.8735 221.663 34.9015 221.075C34.9108 220.972 34.9155 220.795 34.9155 220.543C34.9155 220.281 34.9108 220.099 34.9015 219.997C34.8828 219.446 34.7055 218.965 34.3695 218.555C34.0335 218.144 33.5528 217.939 32.9275 217.939C32.2648 217.939 31.7795 218.144 31.4715 218.555C31.1728 218.965 31.0095 219.507 30.9815 220.179L30.9675 220.585C30.9675 222.349 31.6208 223.231 32.9275 223.231ZM40.3297 224.365C39.8723 224.365 39.4477 224.271 39.0557 224.085C38.6637 223.898 38.351 223.646 38.1177 223.329C37.8937 223.002 37.7817 222.643 37.7817 222.251C37.7817 221.635 38.0337 221.131 38.5377 220.739C39.051 220.337 39.7417 220.076 40.6097 219.955L42.6957 219.661V219.255C42.6957 218.303 42.1497 217.827 41.0577 217.827C40.647 217.827 40.311 217.915 40.0497 218.093C39.7883 218.261 39.5923 218.461 39.4617 218.695C39.4337 218.779 39.3963 218.839 39.3497 218.877C39.3123 218.914 39.2563 218.933 39.1817 218.933H38.5797C38.4957 218.933 38.421 218.905 38.3557 218.849C38.2997 218.783 38.2717 218.709 38.2717 218.625C38.281 218.401 38.3837 218.149 38.5797 217.869C38.785 217.579 39.0977 217.332 39.5177 217.127C39.9377 216.912 40.4557 216.805 41.0717 216.805C42.117 216.805 42.8683 217.052 43.3257 217.547C43.783 218.032 44.0117 218.639 44.0117 219.367V223.903C44.0117 223.996 43.979 224.075 43.9137 224.141C43.8577 224.197 43.783 224.225 43.6897 224.225H43.0457C42.9523 224.225 42.873 224.197 42.8077 224.141C42.7517 224.075 42.7237 223.996 42.7237 223.903V223.301C42.5183 223.599 42.2197 223.851 41.8277 224.057C41.4357 224.262 40.9363 224.365 40.3297 224.365ZM40.6237 223.315C41.2303 223.315 41.725 223.119 42.1077 222.727C42.4997 222.325 42.6957 221.751 42.6957 221.005V220.613L41.0717 220.851C40.409 220.944 39.9097 221.103 39.5737 221.327C39.2377 221.541 39.0697 221.817 39.0697 222.153C39.0697 222.526 39.2237 222.815 39.5317 223.021C39.8397 223.217 40.2037 223.315 40.6237 223.315ZM47.1479 226.885C47.0732 226.885 47.0079 226.857 46.9519 226.801C46.8959 226.745 46.8679 226.679 46.8679 226.605C46.8679 226.539 46.8912 226.455 46.9379 226.353L48.0159 223.791L45.3419 217.477C45.2952 217.355 45.2719 217.276 45.2719 217.239C45.2719 217.155 45.2999 217.085 45.3559 217.029C45.4119 216.973 45.4819 216.945 45.5659 216.945H46.2519C46.4012 216.945 46.5132 217.024 46.5879 217.183L48.7159 222.279L50.8999 217.183C50.9746 217.024 51.0912 216.945 51.2499 216.945H51.9079C51.9919 216.945 52.0619 216.973 52.1179 217.029C52.1739 217.085 52.2019 217.15 52.2019 217.225C52.2019 217.253 52.1786 217.337 52.1319 217.477L48.1559 226.647C48.0812 226.805 47.9646 226.885 47.8059 226.885H47.1479Z" fill="#363D4E"/>
<path d="M440.594 224.225C440.52 224.225 440.454 224.197 440.398 224.141C440.342 224.085 440.314 224.019 440.314 223.945C440.314 223.87 440.319 223.819 440.328 223.791L443.8 214.733C443.875 214.527 444.024 214.425 444.248 214.425H445.2C445.424 214.425 445.574 214.527 445.648 214.733L449.106 223.791L449.134 223.945C449.134 224.019 449.106 224.085 449.05 224.141C448.994 224.197 448.929 224.225 448.854 224.225H448.14C448.038 224.225 447.958 224.201 447.902 224.155C447.846 224.099 447.809 224.043 447.79 223.987L447.02 221.999H442.428L441.658 223.987C441.64 224.043 441.598 224.099 441.532 224.155C441.476 224.201 441.402 224.225 441.308 224.225H440.594ZM446.614 220.795L444.724 215.825L442.834 220.795H446.614ZM453.349 227.305C452.584 227.305 451.968 227.174 451.501 226.913C451.035 226.661 450.703 226.371 450.507 226.045C450.311 225.718 450.204 225.424 450.185 225.163C450.176 225.069 450.204 224.99 450.269 224.925C450.344 224.859 450.423 224.827 450.507 224.827H451.179C451.263 224.827 451.333 224.845 451.389 224.883C451.445 224.929 451.492 225.009 451.529 225.121C451.641 225.419 451.823 225.676 452.075 225.891C452.337 226.115 452.738 226.227 453.279 226.227C453.97 226.227 454.479 226.077 454.805 225.779C455.132 225.489 455.295 224.971 455.295 224.225V223.273C455.053 223.581 454.745 223.828 454.371 224.015C453.998 224.192 453.555 224.281 453.041 224.281C452.052 224.281 451.31 223.968 450.815 223.343C450.33 222.708 450.073 221.905 450.045 220.935L450.031 220.543L450.045 220.165C450.073 219.203 450.335 218.405 450.829 217.771C451.324 217.127 452.061 216.805 453.041 216.805C454.021 216.805 454.787 217.164 455.337 217.883V217.281C455.337 217.187 455.365 217.108 455.421 217.043C455.487 216.977 455.566 216.945 455.659 216.945H456.303C456.397 216.945 456.476 216.977 456.541 217.043C456.607 217.108 456.639 217.187 456.639 217.281V224.071C456.639 226.227 455.543 227.305 453.349 227.305ZM453.321 223.161C453.956 223.161 454.437 222.951 454.763 222.531C455.09 222.111 455.267 221.611 455.295 221.033C455.305 220.949 455.309 220.785 455.309 220.543C455.309 220.309 455.305 220.151 455.295 220.067C455.267 219.488 455.09 218.989 454.763 218.569C454.446 218.149 453.965 217.939 453.321 217.939C452.659 217.939 452.178 218.144 451.879 218.555C451.581 218.965 451.417 219.507 451.389 220.179L451.375 220.543L451.389 220.921C451.417 221.583 451.581 222.125 451.879 222.545C452.178 222.955 452.659 223.161 453.321 223.161ZM461.633 224.365C460.671 224.365 459.901 224.071 459.323 223.483C458.753 222.885 458.441 222.073 458.385 221.047L458.371 220.571L458.385 220.109C458.45 219.101 458.767 218.298 459.337 217.701C459.915 217.103 460.676 216.805 461.619 216.805C462.655 216.805 463.457 217.136 464.027 217.799C464.596 218.452 464.881 219.339 464.881 220.459V220.697C464.881 220.79 464.848 220.869 464.783 220.935C464.727 220.991 464.652 221.019 464.559 221.019H459.715V221.145C459.743 221.751 459.925 222.269 460.261 222.699C460.606 223.119 461.059 223.329 461.619 223.329C462.048 223.329 462.398 223.245 462.669 223.077C462.949 222.899 463.154 222.717 463.285 222.531C463.369 222.419 463.429 222.353 463.467 222.335C463.513 222.307 463.593 222.293 463.705 222.293H464.391C464.475 222.293 464.545 222.316 464.601 222.363C464.657 222.409 464.685 222.475 464.685 222.559C464.685 222.764 464.554 223.011 464.293 223.301C464.041 223.59 463.681 223.842 463.215 224.057C462.757 224.262 462.23 224.365 461.633 224.365ZM463.551 220.053V220.011C463.551 219.367 463.373 218.844 463.019 218.443C462.673 218.032 462.207 217.827 461.619 217.827C461.031 217.827 460.564 218.032 460.219 218.443C459.883 218.844 459.715 219.367 459.715 220.011V220.053H463.551ZM473.402 224.365C472.674 224.365 472.035 224.248 471.484 224.015C470.934 223.772 470.504 223.427 470.196 222.979C469.888 222.531 469.734 222.008 469.734 221.411C469.734 220.86 469.87 220.379 470.14 219.969C470.411 219.549 470.78 219.227 471.246 219.003C470.873 218.788 470.584 218.508 470.378 218.163C470.182 217.808 470.084 217.397 470.084 216.931C470.084 216.109 470.383 215.465 470.98 214.999C471.587 214.523 472.394 214.285 473.402 214.285C474.401 214.285 475.199 214.523 475.796 214.999C476.403 215.465 476.706 216.105 476.706 216.917C476.706 217.383 476.604 217.794 476.398 218.149C476.202 218.494 475.922 218.779 475.558 219.003C476.025 219.227 476.394 219.549 476.664 219.969C476.935 220.379 477.07 220.86 477.07 221.411C477.07 222.008 476.916 222.531 476.608 222.979C476.3 223.427 475.866 223.772 475.306 224.015C474.756 224.248 474.121 224.365 473.402 224.365ZM473.402 218.499C473.962 218.489 474.434 218.345 474.816 218.065C475.199 217.785 475.39 217.416 475.39 216.959C475.39 216.492 475.199 216.119 474.816 215.839C474.443 215.549 473.972 215.405 473.402 215.405C472.824 215.405 472.343 215.545 471.96 215.825C471.587 216.105 471.4 216.483 471.4 216.959C471.4 217.425 471.587 217.799 471.96 218.079C472.343 218.359 472.824 218.499 473.402 218.499ZM473.402 223.245C474.056 223.245 474.602 223.077 475.04 222.741C475.479 222.405 475.698 221.961 475.698 221.411C475.698 220.86 475.479 220.421 475.04 220.095C474.602 219.768 474.056 219.605 473.402 219.605C472.74 219.605 472.189 219.768 471.75 220.095C471.312 220.421 471.092 220.86 471.092 221.411C471.092 221.961 471.312 222.405 471.75 222.741C472.189 223.077 472.74 223.245 473.402 223.245ZM482.289 224.365C481.085 224.365 480.203 224.015 479.643 223.315C479.083 222.615 478.784 221.695 478.747 220.557C478.737 220.305 478.733 219.899 478.733 219.339C478.733 218.76 478.737 218.34 478.747 218.079C478.775 216.959 479.073 216.049 479.643 215.349C480.212 214.639 481.094 214.285 482.289 214.285C483.493 214.285 484.379 214.639 484.949 215.349C485.518 216.049 485.817 216.959 485.845 218.079C485.863 218.601 485.873 219.021 485.873 219.339C485.873 219.647 485.863 220.053 485.845 220.557C485.807 221.695 485.509 222.615 484.949 223.315C484.389 224.015 483.502 224.365 482.289 224.365ZM482.289 223.161C482.989 223.161 483.516 222.927 483.871 222.461C484.235 221.994 484.426 221.336 484.445 220.487C484.463 219.945 484.473 219.553 484.473 219.311C484.473 219.049 484.463 218.667 484.445 218.163C484.426 217.323 484.239 216.665 483.885 216.189C483.53 215.713 482.998 215.475 482.289 215.475C481.589 215.475 481.057 215.713 480.693 216.189C480.338 216.665 480.151 217.323 480.133 218.163L480.119 219.311L480.133 220.487C480.151 221.336 480.338 221.994 480.693 222.461C481.057 222.927 481.589 223.161 482.289 223.161Z" fill="#363D4E"/>
<path fill-rule="evenodd" clip-rule="evenodd" d="M0 199.49C0 199.49 208.306 180.575 342.029 128.775C475.753 76.9763 515 0 515 0V195.41L0 199.49Z" fill="#0BB8E4"/>
<path fill-rule="evenodd" clip-rule="evenodd" d="M0 199.49L515 133.775V199.49H0Z" fill="#2277F1"/>
<path d="M272.416 3.52148V199.557" stroke="white"/>
<path opacity="0.1" fill-rule="evenodd" clip-rule="evenodd" d="M273.201 2.34766H365.838V200.664H273.201L273.201 2.34766Z" fill="url(#paint0_linear_211_45871)"/>
<rect x="246.51" y="78.623" width="48.6738" height="28.1633" rx="12" fill="white"/>
<path fill-rule="evenodd" clip-rule="evenodd" d="M273.518 96.5965C273.058 96.2528 273.058 95.6955 273.518 95.3518L277.227 92.5795L273.518 89.8071C273.058 89.4634 273.058 88.9062 273.518 88.5625C273.978 88.2188 274.723 88.2188 275.183 88.5625L279.725 91.9571C280.185 92.3008 280.185 92.8581 279.725 93.2018L275.183 96.5965C274.723 96.9402 273.978 96.9402 273.518 96.5965ZM267.613 96.5965C268.073 96.2528 268.073 95.6955 267.613 95.3518L263.904 92.5795L267.613 89.8071C268.073 89.4634 268.073 88.9062 267.613 88.5625C267.153 88.2188 266.408 88.2188 265.948 88.5625L261.406 91.9571C260.946 92.3008 260.946 92.8581 261.406 93.2018L265.948 96.5965C266.408 96.9402 267.153 96.9402 267.613 96.5965Z" fill="#004343"/>
<defs>
<linearGradient id="paint0_linear_211_45871" x1="273.201" y1="191.496" x2="371.606" y2="191.496" gradientUnits="userSpaceOnUse">
<stop stop-color="#EEEEEE"/>
<stop offset="1" stop-color="#D8D8D8" stop-opacity="0.01"/>
</linearGradient>
</defs>
</svg>
