<svg width="259" height="78" viewBox="0 0 259 78" fill="none" xmlns="http://www.w3.org/2000/svg">
<path d="M167.823 41.0102C167.335 39.0273 166.196 37.2653 164.589 36.0057C162.982 34.746 160.998 34.0615 158.956 34.0615C156.914 34.0615 154.931 34.746 153.324 36.0057C151.717 37.2653 150.578 39.0273 150.09 41.0102H167.823Z" stroke="white" stroke-width="1.35287" stroke-linecap="round" stroke-linejoin="round"/>
<path d="M257.415 41.0098C256.879 38.75 255.66 36.7102 253.923 35.1679C252.187 33.6256 250.017 32.6558 247.71 32.3903C248.436 28.5578 248.305 24.6122 247.328 20.8361C246.351 17.0599 244.551 13.5464 242.057 10.547C239.564 7.54755 236.438 5.13636 232.904 3.48595C229.369 1.83554 225.514 0.986695 221.613 1.00016C215.385 1.0004 209.355 3.19155 204.579 7.18998C199.803 11.1884 196.586 16.7393 195.49 22.8709C192.986 20.9122 189.981 19.6971 186.818 19.3645C183.656 19.0319 180.464 19.595 177.607 20.9897C174.749 22.3844 172.342 24.5544 170.659 27.252C168.975 29.9496 168.085 33.066 168.088 36.2457C168.093 37.8645 168.328 39.4745 168.785 41.0274L257.415 41.0098Z" stroke="white" stroke-width="1.35287" stroke-linecap="round" stroke-linejoin="round"/>
<path d="M10.0077 62.3056C9.76485 61.2939 9.18847 60.3935 8.37143 59.7493C7.55438 59.1052 6.54426 58.7549 5.50384 58.7549C4.46342 58.7549 3.4533 59.1052 2.63626 59.7493C1.81921 60.3935 1.24283 61.2939 1 62.3056H10.0077Z" stroke="white" stroke-width="1.35287" stroke-linecap="round" stroke-linejoin="round"/>
<path d="M55.4867 62.3071C55.2187 61.1536 54.6012 60.1109 53.7186 59.3214C52.8359 58.5319 51.7311 58.0341 50.555 57.8959C50.9794 56.1161 51.0369 54.2684 50.7238 52.4656C50.4108 50.6629 49.7337 48.9428 48.7341 47.4103C47.7344 45.8778 46.433 44.565 44.9093 43.5519C43.3855 42.5389 41.6714 41.8469 39.8715 41.5181C38.0715 41.1893 36.2234 41.2306 34.44 41.6396C32.6565 42.0485 30.975 42.8164 29.4981 43.8965C28.0212 44.9766 26.7798 46.3463 25.8496 47.922C24.9194 49.4976 24.3199 51.2462 24.0877 53.0612C22.8163 52.0675 21.2913 51.4512 19.6865 51.2823C18.0817 51.1135 16.4618 51.3989 15.0114 52.1062C13.561 52.8134 12.3386 53.914 11.4834 55.2824C10.6283 56.6508 10.1748 58.232 10.1748 59.8456C10.1788 60.6697 10.2976 61.4893 10.5277 62.2806L55.4867 62.3071Z" stroke="white" stroke-width="1.35287" stroke-linecap="round" stroke-linejoin="round"/>
<path d="M50.9082 76.5447C50.756 75.9056 50.3929 75.3366 49.8774 74.9294C49.362 74.5223 48.7243 74.3008 48.0674 74.3008C47.4105 74.3008 46.7728 74.5223 46.2573 74.9294C45.7418 75.3366 45.3787 75.9056 45.2266 76.5447H50.9082Z" stroke="white" stroke-width="1.35287" stroke-linecap="round" stroke-linejoin="round"/>
<path d="M79.6169 76.5478C79.4453 75.8228 79.0541 75.1685 78.4967 74.6743C77.9393 74.18 77.2429 73.8699 76.5026 73.7864C76.5984 73.2714 76.6457 72.7486 76.6437 72.2248C76.6175 70.1205 75.8119 68.1006 74.3829 66.5558C72.9538 65.0109 71.0027 64.0507 68.9068 63.8609C66.8109 63.671 64.719 64.265 63.0356 65.528C61.3522 66.7909 60.1969 68.6332 59.7929 70.6985C58.9901 70.0719 58.0273 69.6835 57.0144 69.5776C56.0015 69.4717 54.9792 69.6526 54.0641 70.0996C53.149 70.5465 52.3779 71.2416 51.8387 72.1057C51.2995 72.9697 51.014 73.9678 51.0146 74.9862C51.0155 75.5058 51.0897 76.0226 51.2352 76.5213L79.6169 76.5478Z" stroke="white" stroke-width="1.35287" stroke-linecap="round" stroke-linejoin="round"/>
</svg>
