<svg width="100" height="27" viewBox="0 0 100 27" fill="none" xmlns="http://www.w3.org/2000/svg">
<rect width="100" height="27" fill="#C4F1FD"/>
<path d="M14.444 12.812C14.444 11.996 14.632 11.264 15.008 10.616C15.392 9.968 15.908 9.464 16.556 9.104C17.212 8.736 17.928 8.552 18.704 8.552C19.592 8.552 20.38 8.772 21.068 9.212C21.764 9.644 22.268 10.26 22.58 11.06H20.936C20.72 10.62 20.42 10.292 20.036 10.076C19.652 9.86 19.208 9.752 18.704 9.752C18.152 9.752 17.66 9.876 17.228 10.124C16.796 10.372 16.456 10.728 16.208 11.192C15.968 11.656 15.848 12.196 15.848 12.812C15.848 13.428 15.968 13.968 16.208 14.432C16.456 14.896 16.796 15.256 17.228 15.512C17.66 15.76 18.152 15.884 18.704 15.884C19.208 15.884 19.652 15.776 20.036 15.56C20.42 15.344 20.72 15.016 20.936 14.576H22.58C22.268 15.376 21.764 15.992 21.068 16.424C20.38 16.856 19.592 17.072 18.704 17.072C17.92 17.072 17.204 16.892 16.556 16.532C15.908 16.164 15.392 15.656 15.008 15.008C14.632 14.36 14.444 13.628 14.444 12.812ZM27.0493 17.108C26.4253 17.108 25.8613 16.968 25.3573 16.688C24.8533 16.4 24.4573 16 24.1693 15.488C23.8813 14.968 23.7373 14.368 23.7373 13.688C23.7373 13.016 23.8853 12.42 24.1813 11.9C24.4773 11.38 24.8813 10.98 25.3933 10.7C25.9053 10.42 26.4773 10.28 27.1093 10.28C27.7413 10.28 28.3133 10.42 28.8253 10.7C29.3373 10.98 29.7413 11.38 30.0373 11.9C30.3333 12.42 30.4813 13.016 30.4813 13.688C30.4813 14.36 30.3293 14.956 30.0253 15.476C29.7213 15.996 29.3053 16.4 28.7773 16.688C28.2573 16.968 27.6813 17.108 27.0493 17.108ZM27.0493 15.92C27.4013 15.92 27.7293 15.836 28.0333 15.668C28.3453 15.5 28.5973 15.248 28.7893 14.912C28.9813 14.576 29.0773 14.168 29.0773 13.688C29.0773 13.208 28.9853 12.804 28.8013 12.476C28.6173 12.14 28.3733 11.888 28.0693 11.72C27.7653 11.552 27.4373 11.468 27.0853 11.468C26.7333 11.468 26.4053 11.552 26.1013 11.72C25.8053 11.888 25.5693 12.14 25.3933 12.476C25.2173 12.804 25.1293 13.208 25.1293 13.688C25.1293 14.4 25.3093 14.952 25.6693 15.344C26.0373 15.728 26.4973 15.92 27.0493 15.92ZM39.8376 10.28C40.3576 10.28 40.8216 10.388 41.2296 10.604C41.6456 10.82 41.9696 11.14 42.2016 11.564C42.4416 11.988 42.5616 12.5 42.5616 13.1V17H41.2056V13.304C41.2056 12.712 41.0576 12.26 40.7616 11.948C40.4656 11.628 40.0616 11.468 39.5496 11.468C39.0376 11.468 38.6296 11.628 38.3256 11.948C38.0296 12.26 37.8816 12.712 37.8816 13.304V17H36.5256V13.304C36.5256 12.712 36.3776 12.26 36.0816 11.948C35.7856 11.628 35.3816 11.468 34.8696 11.468C34.3576 11.468 33.9496 11.628 33.6456 11.948C33.3496 12.26 33.2016 12.712 33.2016 13.304V17H31.8336V10.388H33.2016V11.144C33.4256 10.872 33.7096 10.66 34.0536 10.508C34.3976 10.356 34.7656 10.28 35.1576 10.28C35.6856 10.28 36.1576 10.392 36.5736 10.616C36.9896 10.84 37.3096 11.164 37.5336 11.588C37.7336 11.188 38.0456 10.872 38.4696 10.64C38.8936 10.4 39.3496 10.28 39.8376 10.28ZM44.9983 9.512C44.7503 9.512 44.5423 9.428 44.3743 9.26C44.2063 9.092 44.1223 8.884 44.1223 8.636C44.1223 8.388 44.2063 8.18 44.3743 8.012C44.5423 7.844 44.7503 7.76 44.9983 7.76C45.2383 7.76 45.4423 7.844 45.6103 8.012C45.7783 8.18 45.8623 8.388 45.8623 8.636C45.8623 8.884 45.7783 9.092 45.6103 9.26C45.4423 9.428 45.2383 9.512 44.9983 9.512ZM45.6703 10.388V17H44.3023V10.388H45.6703ZM50.8024 10.28C51.3224 10.28 51.7864 10.388 52.1944 10.604C52.6104 10.82 52.9344 11.14 53.1664 11.564C53.3984 11.988 53.5144 12.5 53.5144 13.1V17H52.1584V13.304C52.1584 12.712 52.0104 12.26 51.7144 11.948C51.4184 11.628 51.0144 11.468 50.5024 11.468C49.9904 11.468 49.5824 11.628 49.2784 11.948C48.9824 12.26 48.8344 12.712 48.8344 13.304V17H47.4664V10.388H48.8344V11.144C49.0584 10.872 49.3424 10.66 49.6864 10.508C50.0384 10.356 50.4104 10.28 50.8024 10.28ZM57.9234 10.28C58.4354 10.28 58.8874 10.384 59.2794 10.592C59.6794 10.792 59.9914 11.044 60.2154 11.348V10.388H61.5954V17.108C61.5954 17.716 61.4674 18.256 61.2114 18.728C60.9554 19.208 60.5834 19.584 60.0954 19.856C59.6154 20.128 59.0394 20.264 58.3674 20.264C57.4714 20.264 56.7274 20.052 56.1354 19.628C55.5434 19.212 55.2074 18.644 55.1274 17.924H56.4834C56.5874 18.268 56.8074 18.544 57.1434 18.752C57.4874 18.968 57.8954 19.076 58.3674 19.076C58.9194 19.076 59.3634 18.908 59.6994 18.572C60.0434 18.236 60.2154 17.748 60.2154 17.108V16.004C59.9834 16.316 59.6674 16.58 59.2674 16.796C58.8754 17.004 58.4274 17.108 57.9234 17.108C57.3474 17.108 56.8194 16.964 56.3394 16.676C55.8674 16.38 55.4914 15.972 55.2114 15.452C54.9394 14.924 54.8034 14.328 54.8034 13.664C54.8034 13 54.9394 12.412 55.2114 11.9C55.4914 11.388 55.8674 10.992 56.3394 10.712C56.8194 10.424 57.3474 10.28 57.9234 10.28ZM60.2154 13.688C60.2154 13.232 60.1194 12.836 59.9274 12.5C59.7434 12.164 59.4994 11.908 59.1954 11.732C58.8914 11.556 58.5634 11.468 58.2114 11.468C57.8594 11.468 57.5314 11.556 57.2274 11.732C56.9234 11.9 56.6754 12.152 56.4834 12.488C56.2994 12.816 56.2074 13.208 56.2074 13.664C56.2074 14.12 56.2994 14.52 56.4834 14.864C56.6754 15.208 56.9234 15.472 57.2274 15.656C57.5394 15.832 57.8674 15.92 58.2114 15.92C58.5634 15.92 58.8914 15.832 59.1954 15.656C59.4994 15.48 59.7434 15.224 59.9274 14.888C60.1194 14.544 60.2154 14.144 60.2154 13.688ZM68.9094 17.108C68.3894 17.108 67.9214 17.016 67.5054 16.832C67.0974 16.64 66.7734 16.384 66.5334 16.064C66.2934 15.736 66.1654 15.372 66.1494 14.972H67.5654C67.5894 15.252 67.7214 15.488 67.9614 15.68C68.2094 15.864 68.5174 15.956 68.8854 15.956C69.2694 15.956 69.5654 15.884 69.7734 15.74C69.9894 15.588 70.0974 15.396 70.0974 15.164C70.0974 14.916 69.9774 14.732 69.7374 14.612C69.5054 14.492 69.1334 14.36 68.6214 14.216C68.1254 14.08 67.7214 13.948 67.4094 13.82C67.0974 13.692 66.8254 13.496 66.5934 13.232C66.3694 12.968 66.2574 12.62 66.2574 12.188C66.2574 11.836 66.3614 11.516 66.5694 11.228C66.7774 10.932 67.0734 10.7 67.4574 10.532C67.8494 10.364 68.2974 10.28 68.8014 10.28C69.5534 10.28 70.1574 10.472 70.6134 10.856C71.0774 11.232 71.3254 11.748 71.3574 12.404H69.9894C69.9654 12.108 69.8454 11.872 69.6294 11.696C69.4134 11.52 69.1214 11.432 68.7534 11.432C68.3934 11.432 68.1174 11.5 67.9254 11.636C67.7334 11.772 67.6374 11.952 67.6374 12.176C67.6374 12.352 67.7014 12.5 67.8294 12.62C67.9574 12.74 68.1134 12.836 68.2974 12.908C68.4814 12.972 68.7534 13.056 69.1134 13.16C69.5934 13.288 69.9854 13.42 70.2894 13.556C70.6014 13.684 70.8694 13.876 71.0934 14.132C71.3174 14.388 71.4334 14.728 71.4414 15.152C71.4414 15.528 71.3374 15.864 71.1294 16.16C70.9214 16.456 70.6254 16.688 70.2414 16.856C69.8654 17.024 69.4214 17.108 68.9094 17.108ZM75.7875 17.108C75.1635 17.108 74.5995 16.968 74.0955 16.688C73.5915 16.4 73.1955 16 72.9075 15.488C72.6195 14.968 72.4755 14.368 72.4755 13.688C72.4755 13.016 72.6235 12.42 72.9195 11.9C73.2155 11.38 73.6195 10.98 74.1315 10.7C74.6435 10.42 75.2155 10.28 75.8475 10.28C76.4795 10.28 77.0515 10.42 77.5635 10.7C78.0755 10.98 78.4795 11.38 78.7755 11.9C79.0715 12.42 79.2195 13.016 79.2195 13.688C79.2195 14.36 79.0675 14.956 78.7635 15.476C78.4595 15.996 78.0435 16.4 77.5155 16.688C76.9955 16.968 76.4195 17.108 75.7875 17.108ZM75.7875 15.92C76.1395 15.92 76.4675 15.836 76.7715 15.668C77.0835 15.5 77.3355 15.248 77.5275 14.912C77.7195 14.576 77.8155 14.168 77.8155 13.688C77.8155 13.208 77.7235 12.804 77.5395 12.476C77.3555 12.14 77.1115 11.888 76.8075 11.72C76.5035 11.552 76.1755 11.468 75.8235 11.468C75.4715 11.468 75.1435 11.552 74.8395 11.72C74.5435 11.888 74.3075 12.14 74.1315 12.476C73.9555 12.804 73.8675 13.208 73.8675 13.688C73.8675 14.4 74.0475 14.952 74.4075 15.344C74.7755 15.728 75.2355 15.92 75.7875 15.92ZM83.4399 17.108C82.8159 17.108 82.2519 16.968 81.7479 16.688C81.2439 16.4 80.8479 16 80.5599 15.488C80.2719 14.968 80.1279 14.368 80.1279 13.688C80.1279 13.016 80.2759 12.42 80.5719 11.9C80.8679 11.38 81.2719 10.98 81.7839 10.7C82.2959 10.42 82.8679 10.28 83.4999 10.28C84.1319 10.28 84.7039 10.42 85.2159 10.7C85.7279 10.98 86.1319 11.38 86.4279 11.9C86.7239 12.42 86.8719 13.016 86.8719 13.688C86.8719 14.36 86.7199 14.956 86.4159 15.476C86.1119 15.996 85.6959 16.4 85.1679 16.688C84.6479 16.968 84.0719 17.108 83.4399 17.108ZM83.4399 15.92C83.7919 15.92 84.1199 15.836 84.4239 15.668C84.7359 15.5 84.9879 15.248 85.1799 14.912C85.3719 14.576 85.4679 14.168 85.4679 13.688C85.4679 13.208 85.3759 12.804 85.1919 12.476C85.0079 12.14 84.7639 11.888 84.4599 11.72C84.1559 11.552 83.8279 11.468 83.4759 11.468C83.1239 11.468 82.7959 11.552 82.4919 11.72C82.1959 11.888 81.9599 12.14 81.7839 12.476C81.6079 12.804 81.5199 13.208 81.5199 13.688C81.5199 14.4 81.6999 14.952 82.0599 15.344C82.4279 15.728 82.8879 15.92 83.4399 15.92ZM91.5602 10.28C92.0802 10.28 92.5442 10.388 92.9522 10.604C93.3682 10.82 93.6922 11.14 93.9242 11.564C94.1562 11.988 94.2722 12.5 94.2722 13.1V17H92.9162V13.304C92.9162 12.712 92.7682 12.26 92.4722 11.948C92.1762 11.628 91.7722 11.468 91.2602 11.468C90.7482 11.468 90.3402 11.628 90.0362 11.948C89.7402 12.26 89.5922 12.712 89.5922 13.304V17H88.2242V10.388H89.5922V11.144C89.8162 10.872 90.1002 10.66 90.4442 10.508C90.7962 10.356 91.1682 10.28 91.5602 10.28Z" fill="#005E9E"/>
<path d="M9.5 13.5L0 0.5V26.5L9.5 13.5Z" fill="white"/>
</svg>
