<svg width="312" height="368" viewBox="0 0 312 368" fill="none" xmlns="http://www.w3.org/2000/svg">
<g opacity="0.3">
<path d="M138.161 -117.103C165.861 -99.9842 189.98 -77.0424 208.492 -50.205C219.945 -33.6016 229.535 -12.7507 222.757 6.19216C217.678 20.3905 204.434 30.0344 190.788 36.3711C177.143 42.7079 162.383 46.6725 149.409 54.2873C136.435 61.903 124.976 74.4366 124.112 89.5122C123.295 103.778 131.878 116.652 139.155 128.971C146.43 141.292 152.851 156.215 147.574 169.47C140.1 188.242 114.313 192.153 102.598 208.588C91.4863 224.175 95.5876 247.391 83.5239 262.247C73.4409 274.667 55.7082 276.952 39.7671 278.253C23.1478 279.608 6.52181 280.881 -10.1105 282.068" stroke="#0BB8E4" stroke-width="4.24732"/>
<path d="M114.069 -125.491C141.154 -108.787 164.732 -86.3925 182.822 -60.1853C194.013 -43.9714 203.378 -23.606 196.729 -5.08967C191.748 8.78741 178.782 18.2229 165.425 24.4255C152.071 30.6297 137.625 34.516 124.924 41.9691C112.223 49.4221 101.001 61.6793 100.143 76.4092C99.3315 90.3509 107.718 102.922 114.826 114.953C121.934 126.985 128.204 141.56 123.028 154.518C115.699 172.867 90.466 176.711 78.9897 192.78C68.1051 208.021 72.097 230.701 60.281 245.23C50.4053 257.372 33.0539 259.621 17.455 260.907C1.19458 262.245 -15.0734 263.503 -31.3467 264.678" stroke="#0BB8E4" stroke-width="4.24732"/>
<path d="M90.797 -134.3C117.307 -117.94 140.384 -96.0102 158.093 -70.3482C169.049 -54.4729 178.218 -34.533 171.718 -16.409C166.847 -2.82538 154.161 6.40739 141.095 12.4759C128.027 18.545 113.894 22.3463 101.468 29.6384C89.0418 36.9305 78.0649 48.9259 77.2292 63.3462C76.4386 76.9939 84.6496 89.3028 91.6081 101.084C98.5671 112.863 104.706 127.134 99.6453 139.818C92.4787 157.779 67.7902 161.534 56.5645 177.263C45.9179 192.18 49.8304 214.383 38.2734 228.602C28.613 240.486 11.6351 242.682 -3.62879 243.936C-19.5396 245.241 -35.4581 246.468 -51.3823 247.614" stroke="#0BB8E4" stroke-width="4.24732"/>
<path d="M66.7881 -142.728C92.6453 -126.764 115.155 -105.365 132.43 -80.3299C143.118 -64.841 152.064 -45.3877 145.728 -27.7089C140.98 -14.4583 128.611 -5.45384 115.869 0.463488C103.126 6.38131 89.3437 10.0863 77.2272 17.1982C65.1103 24.3091 54.4067 36.0084 53.5951 50.0757C52.8265 63.3898 60.8355 75.3985 67.6244 86.8915C74.4139 98.3855 80.4031 112.307 75.4713 124.678C68.4851 142.198 44.4073 145.857 33.4631 161.198C23.0829 175.748 26.9048 197.407 15.6353 211.277C6.21653 222.869 -10.3417 225.008 -25.2256 226.228C-40.7426 227.499 -56.2663 228.692 -71.7967 229.806" stroke="#0BB8E4" stroke-width="4.24732"/>
<path d="M43.0978 -152.354C68.3782 -136.733 90.3881 -115.801 107.283 -91.3097C117.735 -76.1594 126.486 -57.132 120.298 -39.8439C115.661 -26.8878 103.574 -18.086 91.1202 -12.3032C78.6662 -6.519 65.1945 -2.89955 53.3525 4.05049C41.5111 11.0015 31.0516 22.4404 30.263 36.1968C29.5163 49.2164 37.3482 60.9637 43.9891 72.2057C50.629 83.4481 56.4877 97.0652 51.671 109.163C44.847 126.294 21.313 129.864 10.619 144.863C0.477661 159.09 4.21961 180.274 -6.79194 193.834C-15.9949 205.167 -32.1793 207.254 -46.7291 208.442C-61.8966 209.68 -77.0708 210.842 -92.2497 211.927" stroke="#0BB8E4" stroke-width="4.24732"/>
<path d="M19.086 -160.784C43.7123 -145.559 65.1558 -125.157 81.6172 -101.293C91.8008 -86.5283 100.328 -67.9885 94.3055 -51.1462C89.7907 -38.5226 78.0195 -29.9501 65.8911 -24.3176C53.7608 -18.6841 40.641 -15.1619 29.1079 -8.39166C17.5757 -1.62189 7.38962 9.52094 6.62506 22.9244C5.89993 35.6094 13.5327 47.0574 20.0021 58.0124C26.4715 68.9673 32.1825 82.2355 27.4923 94.0219C20.8501 110.711 -2.07167 114.185 -12.4842 128.798C-22.3597 142.656 -18.7108 163.296 -29.4338 176.507C-38.3952 187.547 -54.1579 189.577 -68.3297 190.732C-83.1029 191.934 -97.8818 193.063 -112.668 194.117" stroke="#0BB8E4" stroke-width="4.24732"/>
<path d="M-5.00362 -169.172C19.009 -154.362 39.9116 -134.508 55.9492 -111.274C65.8704 -96.8981 74.1725 -78.8438 68.279 -62.4276C63.8629 -50.1258 52.3686 -41.7612 40.5294 -36.2618C28.6898 -30.7634 15.8848 -27.3171 4.62553 -20.71C-6.63278 -14.1035 -16.5815 -3.23704 -17.3414 9.82212C-18.0605 22.1816 -10.6261 33.3264 -4.32464 43.9936C1.97777 54.6604 7.53667 67.582 2.94861 79.0697C-3.54843 95.3367 -25.9164 98.7434 -36.0901 112.99C-45.7392 126.502 -42.1992 146.608 -52.6735 159.488C-61.4286 170.253 -76.8094 172.246 -90.6381 173.385C-105.053 174.572 -119.474 175.685 -133.902 176.727" stroke="#0BB8E4" stroke-width="4.24732"/>
<path d="M-28.2745 -177.978C-4.83918 -163.512 15.5642 -144.121 31.2209 -121.433C40.9067 -107.396 49.0134 -89.7665 43.2692 -73.744C38.963 -61.7347 27.751 -53.5722 16.1997 -48.2084C4.64942 -42.8426 -7.84455 -39.4843 -18.8293 -33.0366C-29.8136 -26.5904 -39.5167 -15.9864 -40.2542 -3.23666C-40.9524 8.82889 -33.694 19.7117 -27.5406 30.128C-21.3887 40.5437 -15.9604 53.1608 -20.4329 64.3737C-26.7673 80.2528 -48.5924 83.571 -58.514 97.4754C-67.9257 110.663 -64.4641 130.294 -74.6805 142.864C-83.2199 153.371 -98.2288 155.312 -111.722 156.42C-125.788 157.573 -139.859 158.655 -153.936 159.667" stroke="#0BB8E4" stroke-width="4.24732"/>
<path d="M-52.2848 -186.407C-29.5012 -172.338 -9.6663 -153.479 5.55605 -131.416C14.9742 -117.767 22.8578 -100.623 17.2772 -85.0446C13.0952 -73.3688 2.19827 -65.4361 -9.0279 -60.2226C-20.255 -55.0085 -32.397 -51.745 -43.072 -45.4801C-53.7474 -39.2136 -63.1772 -28.9057 -63.8906 -16.5089C-64.5672 -4.77805 -57.5089 5.80609 -51.5266 15.9338C-45.5437 26.0625 -40.265 38.3317 -44.6101 49.2328C-50.7625 64.6707 -71.9764 67.8924 -81.617 81.4094C-90.7608 94.2305 -87.3938 113.317 -97.3207 125.537C-105.618 135.751 -120.206 137.635 -133.322 138.708C-146.992 139.827 -160.67 140.877 -174.352 141.858" stroke="#0BB8E4" stroke-width="4.24732"/>
<path d="M-75.9745 -196.032C-53.7678 -182.305 -34.4327 -163.911 -19.5913 -142.394C-10.408 -129.083 -2.72031 -112.365 -8.15218 -97.1783C-12.2237 -85.7965 -22.8384 -78.0661 -33.7766 -72.9856C-44.7144 -67.9066 -56.5467 -64.7292 -66.9457 -58.6256C-77.3461 -52.52 -86.5317 -42.4725 -87.2222 -30.3867C-87.8764 -18.9493 -80.9947 -8.62811 -75.1624 1.2495C-69.3276 11.1271 -64.1791 23.0903 -68.4105 33.7176C-74.4003 48.7675 -95.0702 51.9002 -104.461 65.076C-113.367 77.5736 -110.077 96.1837 -119.747 108.096C-127.829 118.051 -142.044 119.882 -154.822 120.924C-168.145 122.01 -181.472 123.028 -194.806 123.98" stroke="#0BB8E4" stroke-width="4.24732"/>
<path d="M-99.9856 -204.462C-78.4329 -191.131 -59.6647 -173.269 -45.2567 -152.377C-36.3421 -139.453 -28.8764 -123.222 -34.1443 -108.481C-38.0927 -97.4317 -48.3929 -89.9295 -59.0055 -85.0008C-69.6177 -80.0735 -81.0996 -76.9914 -91.1908 -71.067C-101.281 -65.1432 -110.193 -55.3907 -110.86 -43.6589C-111.492 -32.5551 -104.811 -22.5346 -99.148 -12.944C-93.4847 -3.3535 -88.4858 8.26176 -92.5884 18.5779C-98.3977 33.1861 -118.455 36.2229 -127.565 49.0113C-136.205 61.14 -133.008 79.2084 -142.388 90.7688C-150.229 100.432 -164.023 102.206 -176.424 103.214C-189.351 104.265 -202.284 105.25 -215.223 106.17" stroke="#0BB8E4" stroke-width="4.24732"/>
<path d="M-124.075 -212.849C-103.136 -199.934 -84.9092 -182.62 -70.9234 -162.357C-62.2727 -149.822 -55.0333 -134.076 -60.1701 -119.762C-64.0217 -109.034 -74.0429 -101.741 -84.3664 -96.9454C-94.6904 -92.1508 -105.856 -89.1464 -115.673 -83.3853C-125.49 -77.6247 -134.164 -68.1501 -134.826 -56.7611C-135.454 -45.9833 -128.97 -36.2646 -123.474 -26.9617C-117.979 -17.6603 -113.132 -6.39162 -117.132 3.62575C-122.796 17.8099 -142.3 20.781 -151.17 33.2035C-159.583 44.9862 -156.496 62.5192 -165.628 73.7501C-173.262 83.1377 -186.675 84.8753 -198.732 85.8673C-211.302 86.9013 -223.876 87.8723 -236.457 88.7806" stroke="#0BB8E4" stroke-width="4.24732"/>
</g>
</svg>
