<svg width="200" height="200" viewBox="0 0 200 200" fill="none" xmlns="http://www.w3.org/2000/svg">
<circle cx="100" cy="100" r="100" fill="#DBF5FF"/>
<mask id="mask0_211_36926" style="mask-type:alpha" maskUnits="userSpaceOnUse" x="0" y="0" width="200" height="200">
<circle cx="100" cy="100" r="100" fill="url(#paint0_linear_211_36926)"/>
</mask>
<g mask="url(#mask0_211_36926)">
<path d="M232.718 171.211H6.30296C2.82193 171.211 0 174.033 0 177.514V193.352C0 196.833 2.82193 199.655 6.30296 199.655H232.718C236.199 199.655 239.021 196.833 239.021 193.352V177.514C239.021 174.033 236.199 171.211 232.718 171.211Z" fill="#263238"/>
<path opacity="0.25" d="M17.7776 171.211L0 189.958V193.378C0.000948951 194.976 0.611307 196.513 1.70665 197.677L26.828 171.211H17.7776Z" fill="white"/>
<path opacity="0.25" d="M214.87 171.211H211.457L184.422 199.655H187.861L214.87 171.211Z" fill="white"/>
<path opacity="0.25" d="M234.47 171.463C233.901 171.297 233.311 171.212 232.718 171.211H225.691L198.656 199.655H207.707L234.47 171.463Z" fill="white"/>
<path opacity="0.25" d="M26.5566 199.655H30.0023L57.0048 171.211H53.598L26.5566 199.655Z" fill="white"/>
<path d="M232.718 171.211H6.30296C2.82193 171.211 0 174.033 0 177.514V193.352C0 196.833 2.82193 199.655 6.30296 199.655H232.718C236.199 199.655 239.021 196.833 239.021 193.352V177.514C239.021 174.033 236.199 171.211 232.718 171.211Z" stroke="#263238" stroke-linecap="round" stroke-linejoin="round"/>
<path d="M140.475 175.936L106.743 178.237L132.692 187.753L169.016 186.027L140.475 175.936Z" fill="white" stroke="#263238" stroke-linecap="round" stroke-linejoin="round"/>
<path d="M166.999 176.221L133.551 180.261L162.965 190.928L195.831 187.178L166.999 176.221Z" fill="white" stroke="#263238" stroke-linecap="round" stroke-linejoin="round"/>
<path d="M143.281 153.665C142.738 150.271 138.523 135.862 135.394 123.217C132.744 112.499 122.465 105.562 112.387 102.414C108.036 101.057 104.5 99.1818 100.421 99.2917C100.421 99.2917 85.378 105.065 80.3486 106.694C75.3192 108.323 68.1435 113.21 68.2792 120.004C68.415 126.799 72.9984 172.703 72.9984 172.703H121.528C121.528 172.703 118.263 160.466 119.899 156.387C121.276 152.935 124.734 148.545 126.363 143.981C127.391 147.744 128.898 153.568 130.106 155.708C132.156 159.335 134.593 161.416 137.179 160.88C139.765 160.343 143.837 157.066 143.281 153.665Z" fill="#91D2FF" stroke="#263238" stroke-linecap="round" stroke-linejoin="round"/>
<path d="M126.383 143.982C126.383 143.982 128.354 138.028 126.202 133.283C124.049 128.538 124.909 119.707 124.909 119.707" fill="#91D2FF"/>
<path d="M126.383 143.982C126.383 143.982 128.354 138.028 126.202 133.283C124.049 128.538 124.909 119.707 124.909 119.707" stroke="#263238" stroke-linecap="round" stroke-linejoin="round"/>
<path d="M100.421 99.292C100.421 99.292 94.1241 101.768 87.9375 104.134C89.7928 107.315 93.8138 112.35 100.957 112.958C107.719 113.527 111.902 107.405 114.035 102.951L112.387 102.414C108.036 101.057 104.5 99.1563 100.421 99.292Z" fill="white" stroke="#263238" stroke-linecap="round" stroke-linejoin="round"/>
<path d="M78.2539 146.877C79.1806 148.431 80.4218 149.774 81.8979 150.821C83.3741 151.867 85.0526 152.594 86.8259 152.954" stroke="#263238" stroke-linecap="round" stroke-linejoin="round"/>
<path d="M105.599 114.561C103.614 115.073 101.54 115.135 99.5285 114.742C99.5285 114.742 95.0615 123.669 95.0615 126.171C95.0615 128.673 99.1665 132.597 103.815 131.524C108.463 130.45 108.812 126.701 108.812 124.206C108.812 121.71 105.599 114.561 105.599 114.561Z" fill="white" stroke="#263238" stroke-linecap="round" stroke-linejoin="round"/>
<path d="M122.949 148.701C122.949 148.701 119.807 153.414 109.128 154.358" stroke="#263238" stroke-linecap="round" stroke-linejoin="round"/>
<path d="M102.845 128.914C105.246 132.871 106.035 137.599 105.049 142.121" stroke="#263238" stroke-linecap="round" stroke-linejoin="round"/>
<path d="M74.1359 110.244C74.1359 110.244 71.7699 110.981 68.919 114.769C66.0681 118.558 64.8398 128.772 64.8398 134.616C64.8398 140.46 65.7901 160.519 65.7901 163.913C65.7901 167.307 70.0503 171.858 73.4442 171.212C76.8381 170.565 78.0276 161.65 78.0276 155.399C78.0276 149.148 77.7561 130.446 77.6203 126.095C77.4846 121.745 75.849 121.473 75.849 121.473" fill="#91D2FF"/>
<path d="M74.1359 110.244C74.1359 110.244 71.7699 110.981 68.919 114.769C66.0681 118.558 64.8398 128.772 64.8398 134.616C64.8398 140.46 65.7901 160.519 65.7901 163.913C65.7901 167.307 70.0503 171.858 73.4442 171.212C76.8381 170.565 78.0276 161.65 78.0276 155.399C78.0276 149.148 77.7561 130.446 77.6203 126.095C77.4846 121.745 75.849 121.473 75.849 121.473" stroke="#263238" stroke-linecap="round" stroke-linejoin="round"/>
<path d="M68.1634 161.513C68.1634 161.513 73.3351 157.046 79.1855 159.295C85.036 161.545 94.3191 166.038 99.9498 167.596C105.58 169.154 113.403 168.1 115.032 168.197C116.661 168.294 120.759 172.722 122.194 173.789C123.629 174.856 124.037 177.299 124.004 177.842C123.972 178.385 123.28 178.618 122.75 178.314C122.22 178.01 121.386 176.058 121.386 176.058L119.841 174.442C119.841 174.442 120.804 176.679 120.21 177.461C119.95 177.807 119.613 178.088 119.226 178.282C118.839 178.476 118.412 178.578 117.979 178.579C117.333 178.54 114.695 178.935 113.338 178.857C112.304 178.716 111.306 178.381 110.397 177.868C110.397 177.868 106.214 177.222 104.352 176.427C102.49 175.631 101.398 173.395 101.398 173.395C101.398 173.395 92.5672 173.02 82.8186 172.044C73.07 171.067 67.4782 172.593 66.1465 165.029" fill="#91D2FF"/>
<path d="M68.1634 161.513C68.1634 161.513 73.3351 157.046 79.1855 159.295C85.036 161.545 94.3191 166.038 99.9498 167.596C105.58 169.154 113.403 168.1 115.032 168.197C116.661 168.294 120.759 172.722 122.194 173.789C123.629 174.856 124.037 177.299 124.004 177.842C123.972 178.385 123.28 178.618 122.75 178.314C122.22 178.01 121.386 176.058 121.386 176.058L119.841 174.442C119.841 174.442 120.804 176.679 120.21 177.461C119.95 177.807 119.613 178.088 119.226 178.282C118.839 178.476 118.412 178.578 117.979 178.579C117.333 178.54 114.695 178.935 113.338 178.857C112.304 178.716 111.306 178.381 110.397 177.868C110.397 177.868 106.214 177.222 104.352 176.427C102.49 175.631 101.398 173.395 101.398 173.395C101.398 173.395 92.5672 173.02 82.8186 172.044C73.07 171.067 67.4782 172.593 66.1465 165.029" stroke="#263238" stroke-linecap="round" stroke-linejoin="round"/>
<path d="M122.193 173.796C120.758 172.755 116.659 168.295 115.03 168.204C113.401 168.114 105.579 169.155 99.9483 167.603C95.1969 166.31 87.8596 162.897 82.1643 160.492C80.639 160.812 79.1394 161.244 77.6779 161.785C72.0989 163.88 71.627 168.153 71.9567 170.836C74.6395 171.527 78.2403 171.572 82.8043 172.025C92.5529 173.001 101.383 173.376 101.383 173.376C101.383 173.376 102.476 175.619 104.338 176.408C106.2 177.197 110.382 177.85 110.382 177.85C111.291 178.362 112.289 178.698 113.324 178.839C114.681 178.916 117.286 178.522 117.965 178.561C118.398 178.564 118.826 178.468 119.215 178.278C119.604 178.089 119.944 177.811 120.208 177.468C120.803 176.686 119.84 174.449 119.84 174.449L121.385 176.039C121.385 176.039 122.225 177.979 122.749 178.296C123.273 178.612 123.971 178.367 124.003 177.824C124.035 177.281 123.635 174.824 122.193 173.796Z" fill="white" stroke="#263238" stroke-linecap="round" stroke-linejoin="round"/>
<path d="M110.021 174.715C110.021 174.715 112.665 176.092 113.726 176.564C114.786 177.036 114.682 178.969 114.682 178.969" fill="white"/>
<path d="M110.021 174.715C110.021 174.715 112.665 176.092 113.726 176.564C114.786 177.036 114.682 178.969 114.682 178.969" stroke="#263238" stroke-linecap="round" stroke-linejoin="round"/>
<path d="M112.852 172.84C112.852 172.84 116.905 175.794 117.668 176.66C117.892 176.925 118.038 177.246 118.09 177.588C118.143 177.93 118.099 178.281 117.965 178.6" fill="white"/>
<path d="M112.852 172.84C112.852 172.84 116.905 175.794 117.668 176.66C117.892 176.925 118.038 177.246 118.09 177.588C118.143 177.93 118.099 178.281 117.965 178.6" stroke="#263238" stroke-linecap="round" stroke-linejoin="round"/>
<path d="M119.84 174.442C119.84 174.442 115.961 170.408 115.457 170.24L119.84 174.442Z" fill="white"/>
<path d="M119.84 174.442C119.84 174.442 115.961 170.408 115.457 170.24" stroke="#263238" stroke-linecap="round" stroke-linejoin="round"/>
<path d="M131.877 158.282C131.877 158.282 133.997 162.393 145.537 168.231C153.078 171.992 160.879 175.207 168.88 177.85C171.168 178.589 173.549 179.001 175.952 179.072C178.803 179.072 184.356 179.621 184.518 178.8C184.68 177.979 181.796 177.307 180.982 177.171C180.052 176.924 179.142 176.607 178.26 176.221C178.26 176.221 184.246 177.036 186.018 178.257C187.789 179.479 190.64 180.436 191.319 180.164C191.998 179.893 189.69 176.764 187.918 174.864C186.147 172.963 183.27 170.778 180.685 170.778C178.099 170.778 168.227 171.541 166.727 171.541C165.228 171.541 164.639 170.506 157.845 163.848C151.051 157.189 146.681 150.524 141.787 148.365" fill="#91D2FF"/>
<path d="M131.877 158.282C131.877 158.282 133.997 162.393 145.537 168.231C153.078 171.992 160.879 175.207 168.88 177.85C171.168 178.589 173.549 179.001 175.952 179.072C178.803 179.072 184.356 179.621 184.518 178.8C184.68 177.979 181.796 177.307 180.982 177.171C180.052 176.924 179.142 176.607 178.26 176.221C178.26 176.221 184.246 177.036 186.018 178.257C187.789 179.479 190.64 180.436 191.319 180.164C191.998 179.893 189.69 176.764 187.918 174.864C186.147 172.963 183.27 170.778 180.685 170.778C178.099 170.778 168.227 171.541 166.727 171.541C165.228 171.541 164.639 170.506 157.845 163.848C151.051 157.189 146.681 150.524 141.787 148.365" stroke="#263238" stroke-linecap="round" stroke-linejoin="round"/>
<path d="M180.685 170.779C178.099 170.779 168.228 171.542 166.728 171.542C165.228 171.542 164.64 170.508 157.845 163.849C154.322 160.391 151.446 156.952 148.795 154.152C140.721 155.607 138.807 161.05 138.394 164.166C140.681 165.668 143.055 167.032 145.505 168.252C153.046 172.013 160.847 175.227 168.848 177.871C171.136 178.61 173.517 179.021 175.92 179.093C178.771 179.093 184.324 179.642 184.486 178.821C184.648 178 181.764 177.328 180.95 177.192C180.02 176.945 179.11 176.627 178.228 176.242C178.228 176.242 184.214 177.056 185.986 178.278C187.757 179.5 190.608 180.457 191.287 180.185C191.966 179.914 189.658 176.785 187.886 174.884C186.115 172.984 183.271 170.779 180.685 170.779Z" fill="white" stroke="#263238" stroke-linecap="round" stroke-linejoin="round"/>
<path d="M181.661 174.443C183.223 174.786 184.732 175.336 186.148 176.079C187.73 177.037 189.078 178.338 190.091 179.887" fill="white"/>
<path d="M181.661 174.443C183.223 174.786 184.732 175.336 186.148 176.079C187.73 177.037 189.078 178.338 190.091 179.887" stroke="#263238" stroke-linecap="round" stroke-linejoin="round"/>
<path d="M183.562 172.949C183.562 172.949 188.049 174.307 190.635 177.979L183.562 172.949Z" fill="white"/>
<path d="M183.562 172.949C183.562 172.949 188.049 174.307 190.635 177.979" stroke="#263238" stroke-linecap="round" stroke-linejoin="round"/>
<path d="M107.843 128.94C107.38 128.941 106.927 128.805 106.541 128.549C106.155 128.293 105.854 127.927 105.676 127.5C105.498 127.072 105.451 126.602 105.54 126.147C105.63 125.693 105.852 125.275 106.179 124.947C106.506 124.62 106.923 124.396 107.377 124.305C107.831 124.214 108.302 124.26 108.73 124.437C109.158 124.614 109.524 124.914 109.782 125.299C110.039 125.684 110.176 126.137 110.176 126.6C110.176 127.219 109.931 127.814 109.493 128.252C109.056 128.691 108.462 128.938 107.843 128.94ZM107.843 124.913C107.507 124.911 107.179 125.01 106.899 125.195C106.62 125.381 106.402 125.645 106.273 125.955C106.144 126.265 106.11 126.606 106.175 126.935C106.24 127.264 106.401 127.567 106.639 127.804C106.876 128.041 107.178 128.203 107.507 128.268C107.837 128.333 108.178 128.299 108.487 128.17C108.797 128.041 109.062 127.823 109.247 127.543C109.433 127.264 109.531 126.935 109.53 126.6C109.53 126.378 109.486 126.159 109.402 125.954C109.317 125.75 109.192 125.564 109.036 125.407C108.879 125.25 108.693 125.126 108.488 125.041C108.284 124.956 108.064 124.913 107.843 124.913Z" fill="#263238"/>
<path d="M108.928 129.469C108.721 129.469 108.518 129.403 108.351 129.279C108.183 129.156 108.059 128.983 107.998 128.784L106.737 124.718C106.661 124.472 106.685 124.206 106.805 123.978C106.925 123.75 107.131 123.579 107.377 123.503C107.623 123.426 107.889 123.451 108.117 123.571C108.345 123.691 108.516 123.897 108.592 124.143L109.885 128.209C109.96 128.456 109.934 128.722 109.813 128.95C109.692 129.178 109.485 129.348 109.239 129.424C109.139 129.457 109.034 129.473 108.928 129.469Z" fill="#263238"/>
<path d="M95.1192 106.63C95.1192 106.63 95.6622 97.9291 94.5762 90.8633H108.152C108.152 90.8633 106.788 100.243 108.152 105.68" fill="white"/>
<path d="M95.1192 106.63C95.1192 106.63 95.6622 97.9291 94.5762 90.8633H108.152C108.152 90.8633 106.788 100.243 108.152 105.68" stroke="#263238" stroke-linecap="round" stroke-linejoin="round"/>
<path d="M99.7486 51.4354C99.7486 51.4354 91.4998 48.6815 86.6643 55.6697C84.0332 59.4709 82.9795 65.7868 80.5036 72.4776C79.3861 75.5068 79.1989 78.8008 79.966 81.9371C80.7331 85.0734 82.4195 87.9092 84.809 90.0806C89.2889 94.1986 96.2448 93.9206 96.2448 93.9206C96.2448 93.9206 90.6788 84.728 90.9891 77.8691C91.2994 71.0101 100.731 67.5775 101.501 61.9533C101.892 58.353 101.286 54.7143 99.7486 51.4354Z" fill="#263238" stroke="#263238" stroke-linecap="round" stroke-linejoin="round"/>
<path d="M83.2383 86.0527C83.5336 86.9431 83.9012 87.808 84.3373 88.6386" stroke="white" stroke-linecap="round" stroke-linejoin="round"/>
<path d="M94.3895 57.6406C94.3895 57.6406 93.2452 60.7953 86.9229 67.9839C85.0565 70.0527 83.6929 72.5244 82.9382 75.2065C82.1836 77.8886 82.0584 80.7088 82.5722 83.4472" stroke="white" stroke-linecap="round" stroke-linejoin="round"/>
<path d="M89.4119 74.1451C89.4119 74.1451 87.3691 71.8372 86.6904 74.4166C86.0116 76.996 86.4188 79.989 87.2334 81.3531C87.4993 81.7532 87.8655 82.0765 88.2954 82.2909C88.7253 82.5053 89.2039 82.6032 89.6835 82.5749L89.4119 74.1451Z" fill="white" stroke="#263238" stroke-linecap="round" stroke-linejoin="round"/>
<path d="M96.6453 62.3139C96.6453 62.3139 89.0365 69.3797 89.0365 71.4225C89.0365 73.4653 88.6228 82.4123 89.9868 85.4248C91.3508 88.4372 97.4599 96.2982 100.86 96.9769C104.261 97.6557 111.598 88.573 112.283 86.375C112.968 84.1771 113.233 74.4091 112.555 71.9655C111.876 69.5219 98.7916 61.3571 96.6453 62.3139Z" fill="white" stroke="#263238" stroke-linecap="round" stroke-linejoin="round"/>
<path d="M97.1563 76.9959C97.1563 77.8169 96.8525 78.4892 96.5098 78.4892C96.1672 78.4892 95.8311 77.8427 95.8311 76.9959C95.8311 76.149 96.1349 75.4961 96.5098 75.4961C96.8848 75.4961 97.1563 76.1813 97.1563 76.9959Z" fill="#263238"/>
<path d="M105.857 78.4886C106.232 78.4886 106.536 77.82 106.536 76.9953C106.536 76.1705 106.232 75.502 105.857 75.502C105.483 75.502 105.179 76.1705 105.179 76.9953C105.179 77.82 105.483 78.4886 105.857 78.4886Z" fill="#263238"/>
<path d="M92.8047 73.3243C92.8047 73.3243 94.033 71.01 98.1121 71.6952" stroke="#263238" stroke-linecap="round" stroke-linejoin="round"/>
<path d="M109.121 73.3243C109.121 73.3243 107.899 71.01 103.82 71.6952" stroke="#263238" stroke-linecap="round" stroke-linejoin="round"/>
<path d="M101.234 83.5184C101.679 83.5621 102.125 83.4509 102.498 83.2035C102.87 82.9562 103.145 82.5878 103.277 82.1608C103.277 82.1608 101.732 77.474 103.07 73.6211" stroke="#263238" stroke-linecap="round" stroke-linejoin="round"/>
<path d="M97.5635 86.2402C97.5635 86.2402 101.1 88.2766 106.129 86.2402C106.129 86.2402 103.957 89.4725 101.643 89.4725C99.3283 89.4725 97.5635 86.2402 97.5635 86.2402Z" fill="#263238" stroke="#263238" stroke-linecap="round" stroke-linejoin="round"/>
<path d="M97.5635 86.2402C97.5635 86.2402 97.6605 86.4083 97.8221 86.654C98.9095 87.4549 100.215 87.9059 101.565 87.9469C103.196 88.0199 104.792 87.4646 106.026 86.3954L106.129 86.2467C101.1 88.2766 97.5635 86.2402 97.5635 86.2402Z" fill="white" stroke="#263238" stroke-width="0.5" stroke-linecap="round" stroke-linejoin="round"/>
<path d="M101.643 89.4991C102.416 89.4586 103.159 89.181 103.769 88.704C102.322 88.825 100.866 88.7729 99.4316 88.5488C100.033 89.1171 100.816 89.4539 101.643 89.4991Z" fill="white" stroke="#263238" stroke-width="0.5" stroke-linecap="round" stroke-linejoin="round"/>
<path d="M96.6005 61.2613C99.1439 64.9746 102.114 68.3767 105.451 71.3978C110.577 75.923 112.077 82.0902 110.7 88.1475C109.956 91.4379 105.011 94.2953 106.297 95.168C107.584 96.0407 117.507 95.0516 123.28 90.1709C129.053 85.2901 129.518 78.6252 128.109 70.3634C126.7 62.1017 115.322 50 108.928 50C102.535 50 94.7064 51.7519 96.6005 61.2613Z" fill="#263238" stroke="#263238" stroke-linecap="round" stroke-linejoin="round"/>
<path d="M112.16 93.7383C111.153 94.1024 110.1 94.3201 109.031 94.3847" stroke="white" stroke-linecap="round" stroke-linejoin="round"/>
<path d="M101.72 61.7969C103.374 63.6927 105.252 65.3814 107.312 66.8263C114.209 71.7071 120.241 78.0294 118.515 85.2116C118.062 87.4952 117.044 89.6289 115.554 91.4176" stroke="white" stroke-linecap="round" stroke-linejoin="round"/>
<path d="M98.4102 56.7871C98.7832 57.6454 99.2378 58.4659 99.7677 59.2372" stroke="white" stroke-linecap="round" stroke-linejoin="round"/>
<path d="M105.049 56.7871C105.049 56.7871 121.417 66.5551 125.154 74.597C128.89 82.639 125.729 88.0951 121.708 90.6809" stroke="white" stroke-linecap="round" stroke-linejoin="round"/>
<path d="M63.6307 183.909L80.1606 179.002V177.936L29.3296 179.002L10.3496 183.909H63.6307Z" fill="white" stroke="#263238" stroke-linecap="round" stroke-linejoin="round"/>
<path d="M63.6307 182.842L80.1606 177.936H29.3296L10.3496 182.842H63.6307Z" fill="white" stroke="#263238" stroke-linecap="round" stroke-linejoin="round"/>
<path d="M53.4096 145.438H4.5956C4.28728 145.437 3.98281 145.506 3.7046 145.639C3.42639 145.772 3.18152 145.965 2.98801 146.205C2.7945 146.445 2.65727 146.726 2.58643 147.026C2.51558 147.326 2.51292 147.638 2.57865 147.939L10.3361 183.908H63.3457L55.3878 147.06C55.2899 146.606 55.0411 146.198 54.6819 145.904C54.3227 145.609 53.8742 145.445 53.4096 145.438Z" fill="white"/>
<path d="M57.5407 156.859C48.2963 156.484 33.0141 157.59 26.3038 167.907C20.5762 176.705 13.8983 178.8 9.28906 178.968L10.3493 183.888H63.3588L57.5407 156.859Z" fill="#91D2FF"/>
<path d="M53.4096 145.438H4.5956C4.28728 145.437 3.98281 145.506 3.7046 145.639C3.42639 145.772 3.18152 145.965 2.98801 146.205C2.7945 146.445 2.65727 146.726 2.58643 147.026C2.51558 147.326 2.51292 147.638 2.57865 147.939L10.3361 183.908H63.3457L55.3878 147.06C55.2899 146.606 55.0411 146.198 54.6819 145.904C54.3227 145.609 53.8742 145.445 53.4096 145.438V145.438Z" stroke="#263238" stroke-linecap="round" stroke-linejoin="round"/>
<path d="M35.8781 164.159C35.8781 166.034 33.9387 167.546 31.5533 167.546C29.1679 167.546 27.2285 166.034 27.2285 164.159C27.2285 162.284 29.1679 160.771 31.5533 160.771C33.9387 160.771 35.8781 162.291 35.8781 164.159Z" fill="#263238"/>
</g>
<defs>
<linearGradient id="paint0_linear_211_36926" x1="100" y1="0" x2="100" y2="200" gradientUnits="userSpaceOnUse">
<stop stop-color="#BDE8FD"/>
<stop offset="1" stop-color="#5FB6CD"/>
</linearGradient>
</defs>
</svg>
