<svg width="78" height="62" viewBox="0 0 78 62" fill="none" xmlns="http://www.w3.org/2000/svg">
<path d="M66.0993 49.2734H30.7773" stroke="#00C0F3" stroke-width="2.38472" stroke-linecap="round" stroke-linejoin="round"/>
<path d="M5.61749 60.4247H72.3825C74.3804 60.4247 76 58.8051 76 56.8072V19.1136C76 17.1157 74.3804 15.4961 72.3825 15.4961H5.61749C3.61959 15.4961 2 17.1157 2 19.1136V56.8072C2 58.8051 3.61959 60.4247 5.61749 60.4247Z" stroke="#005E9E" stroke-width="2.38472" stroke-linecap="round" stroke-linejoin="round"/>
<path d="M21.1428 33.3417C19.8492 31.1285 17.0129 29.7771 14.4941 30.5939C13.1131 31.0417 11.9525 32.2642 11.7992 33.7079C11.2171 39.1906 21.3965 36.3642 21.26 41.9643C21.2366 42.9259 20.7173 43.8378 19.976 44.4506C19.2346 45.0635 18.2906 45.3966 17.3363 45.5178C14.9437 45.8217 12.5061 44.779 11.0156 42.8992M16.1384 49.275V45.5588M16.1384 30.3564V26.6484M45.9205 34.5265H66.1015M30.7795 26.6484H66.1015" stroke="#00C0F3" stroke-width="2.38472" stroke-linecap="round" stroke-linejoin="round"/>
<path d="M68.2504 11.7217L62.3203 7.41016L68.2504 11.7217Z" fill="white"/>
<path d="M68.2504 11.7217L62.3203 7.41016" stroke="#00C0F3" stroke-width="2.38472" stroke-linecap="round" stroke-linejoin="round"/>
<path d="M68.2509 11.7215L45.4612 43.0665L39.5312 38.7552L62.321 7.41016" fill="#E0F9FF"/>
<path d="M68.2509 11.7215L45.4612 43.0665L39.5312 38.7552L62.321 7.41016" stroke="#005E9E" stroke-width="2.38472" stroke-linecap="round" stroke-linejoin="round"/>
<path d="M45.4597 43.066L36.3867 49.3101L39.5288 38.7539" stroke="#005E9E" stroke-width="2.38472" stroke-linecap="round" stroke-linejoin="round"/>
<path d="M62.3203 7.41016L68.2504 11.7217L62.3203 7.41016Z" fill="white"/>
<path d="M62.3203 7.41016L68.2504 11.7217" stroke="#00C0F3" stroke-width="2.38472" stroke-linecap="round" stroke-linejoin="round"/>
<path d="M62.3203 7.41019L66.2539 2L72.184 6.31131L68.2504 11.7215" stroke="#00C0F3" stroke-width="2.38472" stroke-linecap="round" stroke-linejoin="round"/>
</svg>
