<svg width="159" height="159" viewBox="0 0 159 159" fill="none" xmlns="http://www.w3.org/2000/svg">
<g clip-path="url(#clip0_211_54835)">
<mask id="mask0_211_54835" style="mask-type:alpha" maskUnits="userSpaceOnUse" x="4" y="72" width="114" height="90">
<rect x="4" y="72" width="113.108" height="90" fill="#C4C4C4"/>
</mask>
<g mask="url(#mask0_211_54835)">
<path d="M88.153 119.745C89.5608 117.424 96.3213 117.459 96.9324 118.492C96.9324 118.492 93.5831 129.321 89.8509 128.192C86.1187 127.062 88.153 119.745 88.153 119.745Z" fill="#757575"/>
<path opacity="0.5" d="M88.1511 119.748C89.5589 117.427 96.3194 117.462 96.9304 118.495C96.9304 118.495 93.5811 129.324 89.8489 128.195C86.1167 127.065 88.1511 119.748 88.1511 119.748Z" fill="black" fill-opacity="0.7"/>
<path d="M88.153 119.745C89.5608 117.424 96.3213 117.459 96.9324 118.492C96.9324 118.492 93.5831 129.321 89.8509 128.192C86.1187 127.062 88.153 119.745 88.153 119.745Z" stroke="#263238" stroke-width="0.386757" stroke-linecap="round" stroke-linejoin="round"/>
<path d="M91.9489 105.797C91.9489 105.797 93.1092 105.797 95.0894 110.353C95.9157 112.34 96.1285 114.529 95.7005 116.638L94.927 125.305L88.0156 124.311L89.8334 116.116C89.8334 116.116 87.7449 109.568 91.9489 105.797Z" fill="white" stroke="#263238" stroke-width="0.386757" stroke-linecap="round" stroke-linejoin="round"/>
<path d="M96.2048 125.254C96.6637 125.836 96.9155 126.555 96.9203 127.296C96.9203 128.305 94.9865 148.471 89.0498 155.49C87.8045 156.964 86.3812 157.857 84.7607 157.877C79.7328 157.931 77.2924 153.94 74.0901 144.681C73.693 143.528 73.2792 142.29 72.8486 140.968C69.7545 131.411 65.9102 111.478 65.9102 111.478C65.9102 111.478 72.6977 113.052 76.7393 117.043C78.4952 118.787 80.3478 123.738 81.5081 127.358C82.0843 129.145 82.502 130.61 82.6683 131.225L82.7534 131.542C82.9257 130.917 83.1642 130.311 83.465 129.736C83.4758 129.723 83.4837 129.707 83.4883 129.69C84.3673 128.101 85.4389 126.627 86.679 125.3L88.1448 119.743C88.1448 119.743 88.6631 120.756 91.0068 121.116C93.3505 121.475 96.9242 118.489 96.9242 118.489L96.2048 125.254Z" fill="#CFEBFE"/>
<path opacity="0.3" d="M89.0613 155.491C87.816 156.965 86.3927 157.858 84.7722 157.877C79.7443 157.932 77.3039 153.94 74.1016 144.681L74.1712 123.162C74.1712 123.162 77.9537 123.897 81.5002 127.374C82.0765 129.161 82.4942 130.627 82.6605 131.241C81.245 134.189 78.7929 140.965 81.6085 148.185C83.4417 152.884 86.4584 154.776 89.0613 155.491Z" fill="black" fill-opacity="0.7"/>
<path d="M96.2048 125.254C96.6637 125.836 96.9155 126.555 96.9203 127.296C96.9203 128.305 94.9865 148.471 89.0498 155.49C87.8045 156.964 86.3812 157.857 84.7607 157.877C79.7328 157.931 77.2924 153.94 74.0901 144.681C73.693 143.528 73.2792 142.29 72.8486 140.968C69.7545 131.411 65.9102 111.478 65.9102 111.478C65.9102 111.478 72.6977 113.052 76.7393 117.043C78.4952 118.787 80.3478 123.738 81.5081 127.358C82.0843 129.145 82.502 130.61 82.6683 131.225L82.7534 131.542C82.9257 130.917 83.1642 130.311 83.465 129.736C83.465 129.736 83.465 129.736 83.465 129.736C83.4758 129.723 83.4837 129.707 83.4883 129.69C84.3673 128.101 85.4389 126.627 86.679 125.3L88.1448 119.743C88.1448 119.743 88.6631 120.756 91.0068 121.116C93.3505 121.475 96.9242 118.489 96.9242 118.489L96.2048 125.254Z" stroke="#263238" stroke-width="0.386757" stroke-linecap="round" stroke-linejoin="round"/>
<path d="M35.5333 108.857C35.5333 108.857 42.4949 109.839 46.9929 107.855C51.4909 105.871 48.3195 122.857 41.8723 120.409C35.425 117.961 35.5333 108.857 35.5333 108.857Z" fill="#999999"/>
<path opacity="0.5" d="M35.5353 108.857C35.5353 108.857 42.4969 109.839 46.9949 107.855C51.4929 105.871 48.3214 122.857 41.8742 120.409C35.427 117.961 35.5353 108.857 35.5353 108.857Z" fill="black" fill-opacity="0.7"/>
<path d="M35.5333 108.857C35.5333 108.857 42.4949 109.839 46.9929 107.855C51.4909 105.871 48.3195 122.857 41.8723 120.409C35.425 117.961 35.5333 108.857 35.5333 108.857Z" stroke="#263238" stroke-width="0.386757" stroke-linecap="round" stroke-linejoin="round"/>
<path d="M79.3436 184.895C78.3187 184.791 77.3015 184.675 76.2844 184.547C75.4722 184.447 74.6626 184.336 73.8555 184.215C72.6179 184.037 71.3829 183.839 70.1504 183.623H70.1117C61.2163 182.037 52.8198 179.291 45.2703 175.145C42.4336 173.59 39.7186 171.823 37.1484 169.858C32.1979 156.913 21.3649 127.118 24.196 122.028C27.6768 115.793 35.0445 110.812 48.5848 110.135C61.1428 109.509 71.4963 113.96 73.9715 119.135C76.3346 124.074 76.2379 157.207 75.6385 172.589C75.6114 173.32 75.5805 174.008 75.5495 174.654L75.9749 175.919L79.3436 184.895Z" fill="white"/>
<path opacity="0.3" d="M79.3489 184.895C78.324 184.79 77.3068 184.674 76.2896 184.546C75.4774 184.446 74.6678 184.335 73.8608 184.214C72.6232 184.036 71.3881 183.839 70.1557 183.622L68.1445 175.728C68.1445 175.728 69.6916 167.313 69.5136 165.824C69.3276 164.821 68.8516 163.894 68.1445 163.159C70.4148 155.946 68.1445 136.504 68.1445 136.504L71.5789 132.559L75.6437 172.607L75.9802 175.937L79.3489 184.895Z" fill="black" fill-opacity="0.7"/>
<path d="M79.3436 184.895C78.3187 184.791 77.3015 184.675 76.2843 184.547C75.4722 184.447 74.6625 184.336 73.8555 184.215C72.6179 184.037 71.3829 183.839 70.1504 183.623H70.1117C61.2163 182.037 52.8198 179.291 45.2703 175.145C42.4336 173.59 39.7186 171.823 37.1484 169.858C32.1979 156.913 21.3649 127.118 24.196 122.028C27.6768 115.793 35.0445 110.812 48.5848 110.135C61.1428 109.509 71.4963 113.96 73.9715 119.135C76.3346 124.074 76.2379 157.207 75.6385 172.589C75.6114 173.32 75.5805 174.008 75.5495 174.654L75.9749 175.919L79.3436 184.895Z" stroke="#263238" stroke-width="0.386757" stroke-linecap="round" stroke-linejoin="round"/>
<path d="M80.1803 184.985C78.8757 184.864 77.5787 184.722 76.2895 184.56C75.4774 184.459 74.6677 184.348 73.8607 184.227C73.0872 177.521 71.9849 167.852 70.9562 158.199C70.1208 150.398 69.3202 142.601 68.74 136.389C68.655 135.461 68.5699 134.572 68.4925 133.721C68.2875 131.4 68.1058 129.35 68.0052 127.73C68.0052 127.598 67.9859 127.475 67.9781 127.343C67.924 126.57 67.8853 125.87 67.8621 125.313C67.7832 121.925 67.016 118.59 65.6073 115.508C63.7741 111.641 61.4961 110.094 61.4961 110.094C63.5732 110.48 65.6117 111.051 67.5875 111.799C69.7843 112.646 72.1783 113.841 74.027 115.489C74.4966 115.901 74.93 116.353 75.3226 116.839C75.6875 117.283 76.0087 117.761 76.2818 118.266C79.6505 124.539 78.1189 173.011 78.1189 173.011L80.1803 184.985Z" fill="#CFEBFE" stroke="#263238" stroke-width="0.386757" stroke-linecap="round" stroke-linejoin="round"/>
<path d="M67.9184 126.383C67.9184 126.383 66.2747 119.874 64.2094 115.743C63.7441 114.708 63.1029 113.762 62.3143 112.947C59.781 110.684 52.5332 110.104 52.5332 110.104C53.0279 109.124 53.786 108.302 54.7222 107.729C57.913 105.796 62.79 107.343 66.7388 111.075C71.7666 115.84 67.9184 126.383 67.9184 126.383Z" fill="#A4DAFF"/>
<path opacity="0.5" d="M64.2074 115.758C63.7421 114.723 63.1009 113.777 62.3123 112.961C59.7791 110.699 52.5312 110.119 52.5312 110.119C53.0259 109.139 53.784 108.317 54.7203 107.744C57.0408 107.876 59.4581 108.189 60.9084 108.87C63.3295 109.98 64.3815 112.528 64.2074 115.758Z" fill="black" fill-opacity="0.7"/>
<path d="M67.9184 126.383C67.9184 126.383 66.2747 119.874 64.2094 115.743C63.7441 114.708 63.1029 113.762 62.3143 112.947C59.781 110.684 52.5332 110.104 52.5332 110.104C53.0279 109.124 53.786 108.302 54.7222 107.729C57.913 105.796 62.79 107.343 66.7388 111.075C71.7666 115.84 67.9184 126.383 67.9184 126.383Z" stroke="#263238" stroke-width="0.386757" stroke-linecap="round" stroke-linejoin="round"/>
<path d="M41.873 99.9972C41.873 99.9972 44.9478 104.058 42.546 111.635C42.546 111.635 48.6684 114.257 55.309 112.083C55.309 112.083 52.7912 107.918 53.9089 103.459C55.0266 98.9994 44.8588 94.8379 41.873 99.9972Z" fill="white" stroke="#263238" stroke-width="0.386757" stroke-linecap="round" stroke-linejoin="round"/>
<path d="M40.0972 93.9683C37.6529 83.4911 42.7194 78.9467 46.0378 77.5737C51.3518 75.3731 58.2632 78.8307 59.8373 84.6552C61.4114 90.4798 59.992 91.8025 60.0655 94.1849C60.1157 95.8557 61.1484 96.6756 60.0113 100.868C59.261 103.633 58.0156 108.073 53.2856 107.277C51.8355 107.021 50.4282 106.565 49.1048 105.919" fill="white"/>
<path d="M40.0972 93.9683C37.6529 83.4911 42.7194 78.9467 46.0378 77.5737C51.3518 75.3731 58.2632 78.8307 59.8373 84.6552C61.4114 90.4798 59.992 91.8025 60.0655 94.1849C60.1157 95.8557 61.1484 96.6756 60.0113 100.868C59.261 103.633 58.0156 108.073 53.2856 107.277C51.8355 107.021 50.4282 106.565 49.1048 105.919" stroke="#263238" stroke-width="0.386757" stroke-linecap="round" stroke-linejoin="round"/>
<path d="M53.8966 88.8376C53.8966 88.8376 51.9319 88.1067 50.8799 90.4117" stroke="#263238" stroke-width="0.386757" stroke-linecap="round" stroke-linejoin="round"/>
<path d="M60.5801 88.4917C60.5801 88.4917 59.1182 87.1535 57.6523 89.0447" stroke="#263238" stroke-width="0.386757" stroke-linecap="round" stroke-linejoin="round"/>
<path d="M53.5078 93.2724C53.5078 93.7597 53.2912 94.1542 53.0205 94.1542C52.7498 94.1542 52.5332 93.7675 52.5332 93.2724C52.5332 92.7774 52.7498 92.3906 53.0205 92.3906C53.2912 92.3906 53.5078 92.7851 53.5078 93.2724Z" fill="#263238"/>
<path d="M59.1211 92.789C59.1211 93.2763 58.9045 93.6708 58.6338 93.6708C58.3631 93.6708 58.1465 93.2841 58.1465 92.789C58.1465 92.294 58.3631 91.9072 58.6338 91.9072C58.9045 91.9072 59.1211 92.3017 59.1211 92.789Z" fill="#263238"/>
<path d="M46.0396 93.2734C46.0396 93.2734 49.1685 100.85 49.8066 101.252C51.2415 102.15 54.4477 96.5454 57.623 97.7289C57.623 97.7289 59.0385 97.0521 59.4175 97.4079C61.4906 99.3417 60.4889 96.615 60.4889 96.615C60.4889 96.615 63.6255 103.724 61.711 106.311C57.8899 111.486 50.5183 108.632 48.5613 106.535C46.6043 104.439 46.5347 98.4869 46.5347 98.4869C46.5347 98.4869 46.759 96.615 45.0225 94.3332L46.0396 93.2734Z" fill="#263238"/>
<path d="M46.452 94.1547C46.452 94.1547 46.1465 92.1165 48.5869 89.8192C48.5869 89.8192 48.1576 86.1721 46.4404 84.8223C46.4404 84.8223 53.754 80.8116 59.5901 83.8864C59.5901 83.8864 64.9583 81.2216 57.6563 76.3833C50.3544 71.5449 38.5389 76.1551 36.9648 85.2787C36.9648 85.2787 37.8621 84.0449 38.8754 83.5963C38.8754 83.5963 34.3001 91.0259 43.0021 102.547C42.9982 102.544 43.0099 95.8371 46.452 94.1547Z" fill="#263238"/>
<path d="M57.2132 90.7266C57.2132 90.7266 57.0005 93.4339 58.6326 95.5146C60.2647 97.5954 59.2089 97.9821 56.9889 97.6534C55.1712 97.3826 56.0298 96.5859 56.0298 96.5859" fill="white"/>
<path d="M57.2132 90.7266C57.2132 90.7266 57.0005 93.4339 58.6326 95.5146C60.2647 97.5954 59.2089 97.9821 56.9889 97.6534C55.1712 97.3826 56.0298 96.5859 56.0298 96.5859" stroke="#263238" stroke-width="0.386757" stroke-linecap="round" stroke-linejoin="round"/>
<path d="M46.0391 95.8066C46.0391 95.8066 44.1053 92.2253 42.1097 93.0993C40.114 93.9734 41.4986 98.2509 43.2429 99.6471C44.9871 101.043 46.0391 99.6471 46.0391 99.6471" fill="white"/>
<path d="M46.0391 95.8066C46.0391 95.8066 44.1053 92.2253 42.1097 93.0993C40.114 93.9734 41.4986 98.2509 43.2429 99.6471C44.9871 101.043 46.0391 99.6471 46.0391 99.6471" stroke="#263238" stroke-width="0.386757" stroke-linecap="round" stroke-linejoin="round"/>
<path d="M57.4164 99.6348C56.6236 99.7818 56.1556 100.795 56.0783 101.453C56.0009 102.11 56.5772 103.386 57.343 103.278C58.1087 103.17 57.6524 101.437 57.6524 101.437C57.6524 101.437 58.4143 99.453 57.4164 99.6348Z" fill="white"/>
<path d="M46.8396 159.419C46.654 161.287 46.4528 163.128 46.2865 164.903C45.9694 167.939 45.6097 171.66 45.2732 175.137C39.3957 171.934 34.0653 167.816 29.482 162.938C29.5168 161.913 29.5129 160.977 29.4588 160.181C29.2877 158.513 29.0295 156.855 28.6852 155.215C27.7648 150.388 26.1829 143.612 24.8177 137.544C23.3828 131.143 22.18 125.52 22.2457 123.768C22.4198 119.641 28.5228 113.306 35.8712 111.074C35.8712 111.074 47.1993 118.879 48.5761 127.295C49.2955 131.638 48.1314 146.269 46.8396 159.419Z" fill="#CFEBFE"/>
<path opacity="0.3" d="M46.8424 159.42C46.6568 161.288 46.4557 163.129 46.2894 164.904C46.2082 164.931 46.1269 164.951 46.0418 164.97C40.1013 166.308 33.0275 159.965 28.7074 155.224C27.7869 150.397 26.2051 143.621 24.8398 137.553L28.8428 140.233C28.8428 140.233 42.6848 152.072 46.8424 159.42Z" fill="black" fill-opacity="0.7"/>
<path d="M46.8396 159.419C46.654 161.287 46.4528 163.128 46.2865 164.903C45.9694 167.939 45.6097 171.66 45.2732 175.137C39.3957 171.934 34.0653 167.816 29.482 162.938C29.5168 161.913 29.5129 160.977 29.4588 160.181C29.2877 158.513 29.0295 156.855 28.6852 155.215C27.7648 150.388 26.1829 143.612 24.8177 137.544C23.3828 131.143 22.18 125.52 22.2457 123.768C22.4198 119.641 28.5228 113.306 35.8712 111.074C35.8712 111.074 47.1993 118.879 48.5761 127.295C49.2955 131.638 48.1314 146.269 46.8396 159.419Z" stroke="#263238" stroke-width="0.386757" stroke-linecap="round" stroke-linejoin="round"/>
<path d="M74.0586 113.211C74.1952 113.653 74.4953 114.027 74.8978 114.255C75.3002 114.484 75.7747 114.55 76.2244 114.441" stroke="#263238" stroke-width="0.386757" stroke-linecap="round" stroke-linejoin="round"/>
<path d="M64.3145 116.115C64.9565 114.955 66.7936 115.512 68.9323 118.88C71.0711 122.249 71.949 126.171 71.4347 127.602C70.9203 129.033 63.9857 130.761 63.9857 130.761L62.5586 127.141L64.3145 116.115Z" fill="#757575"/>
<path opacity="0.5" d="M64.3154 116.114C64.9575 114.954 66.7946 115.511 68.9333 118.879C71.0721 122.248 71.95 126.17 71.4356 127.601C70.9213 129.032 63.9867 130.76 63.9867 130.76L62.5596 127.14L64.3154 116.114Z" fill="black" fill-opacity="0.7"/>
<path d="M64.3145 116.115C64.9565 114.955 66.7936 115.512 68.9323 118.88C71.0711 122.249 71.949 126.171 71.4347 127.602C70.9203 129.033 63.9857 130.761 63.9857 130.761L62.5586 127.141L64.3145 116.115Z" stroke="#263238" stroke-width="0.386757" stroke-linecap="round" stroke-linejoin="round"/>
<path d="M79.9085 109.226C79.9085 109.226 81.0688 109.226 81.1732 110.076C81.2776 110.927 79.5488 112.01 79.5488 112.01" fill="white"/>
<path d="M79.9085 109.226C79.9085 109.226 81.0688 109.226 81.1732 110.076C81.2776 110.927 79.5488 112.01 79.5488 112.01" stroke="#263238" stroke-width="0.386757" stroke-linecap="round" stroke-linejoin="round"/>
<path d="M61.4912 123.215L67.9733 111.075C67.9733 111.075 72.2546 105.908 73.9912 105.274C75.7277 104.64 85.2071 104.338 85.2071 104.338C85.2071 104.338 85.5939 105.367 84.1281 105.885C82.6623 106.403 78.172 106.825 78.172 106.825C78.172 106.825 79.4947 107.397 79.8003 107.861C80.1058 108.325 79.8003 112.174 79.1892 112.955C78.5781 113.736 76.2305 114.448 76.2305 114.448C76.2305 114.448 75.9211 117.155 73.6276 118.501C71.3342 119.847 70.2126 119.855 70.2126 119.855L67.045 130.452L61.4912 123.215Z" fill="white" stroke="#263238" stroke-width="0.386757" stroke-linecap="round" stroke-linejoin="round"/>
<path d="M74.1602 108.854C74.1602 108.854 77.4901 109.241 77.9117 109.547C78.3333 109.852 78.1283 112.223 77.9117 113.055C77.8749 113.272 77.7907 113.478 77.665 113.658C77.5393 113.839 77.3752 113.989 77.1846 114.099" stroke="#263238" stroke-width="0.386757" stroke-linecap="round" stroke-linejoin="round"/>
<path d="M75.5254 106.891C75.5254 106.891 78.8012 107.711 79.0062 108.132C79.3143 109.281 79.3671 110.484 79.1609 111.655C78.894 112.951 78.8167 113.353 78.3139 113.589" stroke="#263238" stroke-width="0.386757" stroke-linecap="round" stroke-linejoin="round"/>
<path d="M78.1703 106.816C77.705 106.623 77.2268 106.461 76.7393 106.333" stroke="#263238" stroke-width="0.386757" stroke-linecap="round" stroke-linejoin="round"/>
<path d="M76.1712 111.478C75.8914 111.797 75.5471 112.053 75.1612 112.23C74.7753 112.406 74.3563 112.499 73.9319 112.502C73.9319 112.502 74.6474 115.256 73.3711 117.043" stroke="#263238" stroke-width="0.386757" stroke-linecap="round" stroke-linejoin="round"/>
<path d="M75.5254 112.027C75.5254 112.027 76.268 112.627 76.1713 112.948" stroke="#263238" stroke-width="0.386757" stroke-linecap="round" stroke-linejoin="round"/>
<path d="M89.1203 114.719L84.63 116.208C84.1543 116.332 83.2183 115.539 83.257 115.048L84.6029 99.3496C84.6292 99.0405 84.7508 98.7472 84.9511 98.5102C85.1513 98.2732 85.4202 98.1044 85.7207 98.0269L90.6982 96.9479C91.1701 96.8241 92.369 97.3926 92.3265 97.8838L90.2496 113.397C90.2226 113.707 90.0992 114.002 89.8967 114.239C89.6943 114.476 89.4228 114.644 89.1203 114.719Z" fill="#CFEBFE"/>
<path opacity="0.3" d="M89.1173 114.718L84.6271 116.207C84.1514 116.331 83.2154 115.538 83.2541 115.047L84.6 99.3486C84.6263 99.0395 84.7479 98.7462 84.9482 98.5092C85.1484 98.2723 85.4173 98.1034 85.7177 98.0259L90.6953 96.9469C91.1671 96.8231 92.3661 97.3916 92.3235 97.8828L90.2467 113.396C90.2196 113.706 90.0963 114.001 89.8938 114.238C89.6914 114.475 89.4199 114.643 89.1173 114.718Z" fill="black" fill-opacity="0.7"/>
<path d="M89.1203 114.719L84.63 116.208C84.1543 116.332 83.2183 115.539 83.257 115.048L84.6029 99.3496C84.6292 99.0405 84.7508 98.7472 84.9511 98.5102C85.1513 98.2732 85.4202 98.1044 85.7207 98.0269L90.6982 96.9479C91.1701 96.8241 92.369 97.3926 92.3265 97.8838L90.2496 113.397C90.2226 113.707 90.0992 114.002 89.8967 114.239C89.6943 114.476 89.4228 114.644 89.1203 114.719V114.719Z" stroke="#263238" stroke-width="0.386757" stroke-linecap="round" stroke-linejoin="round"/>
<path d="M89.8585 115.105L84.8849 116.184C84.7747 116.213 84.6591 116.215 84.5479 116.19C84.4368 116.165 84.3333 116.113 84.2464 116.039C84.1594 115.966 84.0915 115.872 84.0485 115.767C84.0055 115.661 83.9885 115.547 83.9992 115.433L85.3296 99.7349C85.3559 99.4257 85.4775 99.1324 85.6778 98.8955C85.878 98.6585 86.1469 98.4896 86.4474 98.4122L91.4249 97.3331C91.5351 97.304 91.6507 97.3019 91.7618 97.327C91.873 97.3521 91.9765 97.4036 92.0634 97.4773C92.1504 97.551 92.2182 97.6445 92.2613 97.7501C92.3043 97.8556 92.3212 97.9699 92.3106 98.0834L90.9801 113.782C90.9536 114.091 90.8314 114.385 90.6304 114.622C90.4295 114.859 90.1597 115.028 89.8585 115.105Z" fill="#CFEBFE" stroke="#263238" stroke-width="0.386757" stroke-linecap="round" stroke-linejoin="round"/>
<path opacity="0.3" d="M87.1014 102.64L86.3009 102.818C86.2829 102.822 86.2641 102.822 86.2461 102.818C86.2281 102.813 86.2114 102.805 86.1974 102.793C86.1833 102.781 86.1724 102.765 86.1656 102.748C86.1587 102.731 86.156 102.712 86.1578 102.694L86.3705 100.164C86.3741 100.114 86.3937 100.067 86.4264 100.028C86.4591 99.99 86.5032 99.9632 86.5522 99.9517L87.3528 99.7738C87.3708 99.7694 87.3896 99.7694 87.4076 99.7737C87.4256 99.7781 87.4423 99.7867 87.4563 99.7988C87.4703 99.8109 87.4812 99.8262 87.4881 99.8434C87.495 99.8606 87.4977 99.8792 87.4959 99.8976L87.2832 102.427C87.279 102.477 87.2592 102.524 87.2266 102.563C87.194 102.601 87.1502 102.628 87.1014 102.64Z" fill="black" fill-opacity="0.7"/>
<path d="M94.1031 110.511C94.2964 108.311 92.2892 105.008 90.9587 105.008C89.6283 105.008 85.5673 108.133 85.5673 108.133C83.9971 109.27 84.7745 110.353 84.7745 110.353C83.8501 110.964 83.6142 111.792 84.0203 112.174C84.4264 112.557 85.7878 112.174 85.7878 112.174C85.7878 112.174 84.4419 113.157 84.7745 113.64C85.5673 114.8 88.1779 113.273 88.1779 113.273C88.1779 113.273 86.6619 114.275 86.7508 114.464C87.3193 115.709 89.7907 114.255 89.7907 114.255L91.5311 115.145C91.5296 115.349 91.5702 115.551 91.6503 115.739C91.7305 115.926 91.8484 116.096 91.9969 116.236C92.1453 116.376 92.321 116.484 92.5131 116.553C92.7051 116.622 92.9093 116.651 93.113 116.638" fill="white"/>
<path d="M94.1031 110.511C94.2964 108.311 92.2892 105.008 90.9587 105.008C89.6283 105.008 85.5673 108.133 85.5673 108.133C83.9971 109.27 84.7745 110.353 84.7745 110.353C83.8501 110.964 83.6142 111.792 84.0203 112.174C84.4264 112.557 85.7878 112.174 85.7878 112.174C85.7878 112.174 84.4419 113.157 84.7745 113.64C85.5673 114.8 88.1779 113.273 88.1779 113.273C88.1779 113.273 86.6619 114.275 86.7508 114.464C87.3193 115.709 89.7907 114.255 89.7907 114.255L91.5311 115.145C91.5296 115.349 91.5702 115.551 91.6503 115.739C91.7305 115.926 91.8484 116.096 91.9969 116.236C92.1453 116.376 92.321 116.484 92.5131 116.553C92.7051 116.622 92.9093 116.651 93.113 116.638" stroke="#263238" stroke-width="0.386757" stroke-linecap="round" stroke-linejoin="round"/>
<path d="M84.7734 110.34C84.7734 110.34 88.5753 107.885 89.051 107.819C89.5267 107.753 91.2903 107.37 91.2903 107.37" fill="white"/>
<path d="M84.7734 110.34C84.7734 110.34 88.5753 107.885 89.051 107.819C89.5267 107.753 91.2903 107.37 91.2903 107.37" stroke="#263238" stroke-width="0.386757" stroke-linecap="round" stroke-linejoin="round"/>
<path d="M85.7871 112.174C85.7871 112.174 88.8812 110.581 89.4381 110.581C90.2855 110.486 91.1263 110.34 91.9559 110.144" fill="white"/>
<path d="M85.7871 112.174C85.7871 112.174 88.8812 110.581 89.4381 110.581C90.2855 110.486 91.1263 110.34 91.9559 110.144" stroke="#263238" stroke-width="0.386757" stroke-linecap="round" stroke-linejoin="round"/>
<path d="M88.1758 113.271C88.5355 113.015 88.9173 112.791 89.3167 112.602C90.0532 112.549 90.7925 112.549 91.529 112.602" fill="white"/>
<path d="M88.1758 113.271C88.5355 113.015 88.9173 112.791 89.3167 112.602C90.0532 112.549 90.7925 112.549 91.529 112.602" stroke="#263238" stroke-width="0.386757" stroke-linecap="round" stroke-linejoin="round"/>
<path d="M48.5885 129.13C48.5885 129.13 41.2711 116.553 29.7032 114.047L26.9263 116.205C26.9263 116.205 26.4003 114.271 31.753 109.243C37.1057 104.215 45.216 114.294 47.6642 119.194C50.1124 124.094 48.5885 129.13 48.5885 129.13Z" fill="#A4DAFF" stroke="#263238" stroke-width="0.386757" stroke-linecap="round" stroke-linejoin="round"/>
<path d="M34.1264 119.329C38.957 122.512 41.8615 130.201 41.8615 130.201L49.4072 144.225C49.4072 144.225 55.7461 128.615 57.5291 128.418L64.2934 116.115C64.2934 116.115 63.4928 123.324 66.3123 126.384C69.1318 129.443 71.4523 127.602 71.4523 127.602L69.3445 133.403L68.8223 136.165C68.8223 136.165 59.9269 162.851 57.0224 164.495C54.1179 166.138 47.5005 166.885 41.8925 162.781C36.2845 158.678 24.6547 142.473 23.7343 137.414C22.8138 132.355 20.3308 121.317 27.3775 118.513" fill="#CFEBFE"/>
<path d="M34.1264 119.329C38.957 122.512 41.8615 130.201 41.8615 130.201L49.4072 144.225C49.4072 144.225 55.7461 128.615 57.5291 128.418L64.2934 116.115C64.2934 116.115 63.4928 123.324 66.3123 126.384C69.1318 129.443 71.4523 127.602 71.4523 127.602L69.3445 133.403L68.8223 136.165C68.8223 136.165 59.9269 162.851 57.0224 164.495C54.1179 166.138 47.5005 166.885 41.8925 162.781C36.2845 158.678 24.6547 142.473 23.7343 137.414C22.8138 132.355 20.3308 121.317 27.3775 118.513" stroke="#263238" stroke-width="0.386757" stroke-linecap="round" stroke-linejoin="round"/>
<path d="M44.8457 118.997C45.1671 119.521 45.4353 120.075 45.6463 120.652" stroke="#263238" stroke-width="0.386757" stroke-linecap="round" stroke-linejoin="round"/>
<path d="M33.3262 110.461C37.8783 110.801 41.3243 115.052 44.2443 118.103" stroke="#263238" stroke-width="0.386757" stroke-linecap="round" stroke-linejoin="round"/>
<path d="M29.8379 111.158C30.592 110.786 31.4068 110.553 32.2435 110.47" stroke="#263238" stroke-width="0.386757" stroke-linecap="round" stroke-linejoin="round"/>
<path d="M60.5539 110.022C59.9526 109.662 59.3008 109.393 58.6201 109.226" stroke="#263238" stroke-width="0.386757" stroke-linecap="round" stroke-linejoin="round"/>
<path d="M63.675 114.754C63.5849 113.936 63.3334 113.145 62.935 112.425C62.5367 111.705 61.9995 111.072 61.3545 110.562" stroke="#263238" stroke-width="0.386757" stroke-linecap="round" stroke-linejoin="round"/>
<path d="M60.2667 130.262C60.0231 129.896 59.7985 129.518 59.5938 129.129" stroke="#263238" stroke-width="0.386757" stroke-linecap="round" stroke-linejoin="round"/>
<path d="M65.9696 133.907C64.022 133.675 62.2371 132.706 60.9805 131.2" stroke="#263238" stroke-width="0.386757" stroke-linecap="round" stroke-linejoin="round"/>
<path d="M69.3259 133.416C68.5752 133.733 67.7733 133.911 66.959 133.942" stroke="#263238" stroke-width="0.386757" stroke-linecap="round" stroke-linejoin="round"/>
<path d="M47.4376 150.403C47.3981 151.052 47.4502 151.703 47.5923 152.337" stroke="#263238" stroke-width="0.386757" stroke-linecap="round" stroke-linejoin="round"/>
<path d="M49.4083 144.225C48.503 145.78 47.8773 147.481 47.5596 149.252" stroke="#263238" stroke-width="0.386757" stroke-linecap="round" stroke-linejoin="round"/>
<path d="M45.2402 146.735C45.2402 146.735 46.6132 145.017 48.1757 144.225" stroke="#263238" stroke-width="0.386757" stroke-linecap="round" stroke-linejoin="round"/>
<path d="M33.3262 126.384C33.3262 126.384 37.5805 125.815 40.9337 129.698" stroke="#263238" stroke-width="0.386757" stroke-linecap="round" stroke-linejoin="round"/>
<path d="M28.8418 138.245C29.6556 138.365 30.4864 138.23 31.2204 137.858" stroke="#263238" stroke-width="0.386757" stroke-linecap="round" stroke-linejoin="round"/>
<path d="M23.7314 135.029C24.8109 136.334 26.2005 137.348 27.7731 137.976" stroke="#263238" stroke-width="0.386757" stroke-linecap="round" stroke-linejoin="round"/>
<path d="M80.215 138.133C79.8515 140.02 79.8283 142.07 80.7139 143.826" stroke="#263238" stroke-width="0.386757" stroke-linecap="round" stroke-linejoin="round"/>
<path d="M82.7546 131.562C81.7547 133.255 80.9909 135.076 80.4844 136.976" stroke="#263238" stroke-width="0.386757" stroke-linecap="round" stroke-linejoin="round"/>
<path d="M79.5488 133.934C79.5488 133.934 80.2566 132 82.1672 131.556" stroke="#263238" stroke-width="0.386757" stroke-linecap="round" stroke-linejoin="round"/>
<path d="M89.3114 126.827C88.8518 126.576 88.4223 126.274 88.0312 125.926" stroke="#263238" stroke-width="0.386757" stroke-linecap="round" stroke-linejoin="round"/>
<path d="M96.2055 125.255C94.7088 126.856 92.3728 127.904 90.1953 127.208" stroke="#263238" stroke-width="0.386757" stroke-linecap="round" stroke-linejoin="round"/>
<path d="M46.0391 114.262C46.0391 114.262 53.078 115.898 57.0036 113.271" stroke="#263238" stroke-width="0.386757" stroke-linecap="round" stroke-linejoin="round"/>
<path d="M70.9534 158.187C70.9534 158.187 67.4532 168.18 58.5771 170.017" stroke="#263238" stroke-width="0.386757" stroke-linecap="round" stroke-linejoin="round"/>
<path opacity="0.3" d="M83.4987 129.698L83.4727 129.739C83.483 129.726 83.4906 129.711 83.495 129.694L83.4987 129.698Z" fill="black" fill-opacity="0.7"/>
</g>
<circle cx="130.518" cy="57.5185" r="22.1269" fill="white" stroke="#11CDFF" stroke-width="0.783251"/>
<mask id="mask1_211_54835" style="mask-type:alpha" maskUnits="userSpaceOnUse" x="108" y="35" width="46" height="46">
<circle cx="130.518" cy="57.5204" r="22.5185" fill="#F1F9FF"/>
</mask>
<g mask="url(#mask1_211_54835)">
<path d="M128.901 41.3172C131.135 39.6622 134.08 39.8373 135.848 40.9447C137.617 42.0521 138.164 44.045 138.66 45.4089C139.647 48.1219 141.765 49.7349 144.059 51.301C146.279 52.8228 149.162 55.0524 147.64 58.0934C146.952 59.4721 146.091 60.4192 147.394 62.6587C148.696 64.8982 150.065 65.934 149.12 68.0847C148.175 70.2354 146.967 73.5995 141.884 72.3935C136.8 71.1874 135.249 65.4136 134.731 63.2679C134.213 61.1221 131.725 60.2416 129.907 58.7002C128.089 57.1587 128.269 54.7367 128.787 53.1878C129.182 51.999 129.626 50.3071 128.267 48.9605L128.089 49.0147C128.089 49.0147 125.359 47.7815 124.905 47.0293C124.451 46.277 126.669 42.9696 128.901 41.3172Z" fill="#263238" stroke="#263238" stroke-width="0.379271" stroke-linecap="round" stroke-linejoin="round"/>
<path d="M127.884 74.1543C127.884 74.1543 125.8 80.4805 125.8 85.1149C125.8 89.7492 126.71 101.901 126.71 101.901L129.929 121.817L133.382 121.903C133.382 121.903 133.118 115.062 133.473 109.717C133.828 104.372 133.052 100.559 133.052 100.559L133.545 103.235C133.643 103.79 139.306 122.036 139.306 122.036L142.905 121.462L141.837 112.908L139.97 102.019C139.97 102.019 142.138 89.1252 142.683 87.342C143.228 85.5588 142.929 81.0996 142.039 79.1388C141.149 77.1781 138.963 74.8178 138.963 74.8178C138.963 74.8178 130.309 75.3456 127.884 74.1543Z" fill="#263238" stroke="#263238" stroke-width="0.379271" stroke-linecap="round" stroke-linejoin="round"/>
<path d="M138.632 55.513C138.632 55.513 135.628 54.1836 134.124 54.1836C132.619 54.1836 130.574 56.5464 130.054 57.0101C129.534 57.4737 126.436 62.9121 126.147 64.3574C125.859 65.8027 126.986 82.1153 126.986 82.1153C126.986 82.1153 130.861 83.3707 133.751 83.2547C136.642 83.1388 141.565 82.8626 141.565 82.8626C141.565 82.8626 141.944 67.5908 142.524 64.1798C143.104 60.7688 143.737 58.5071 143.217 57.6488C142.697 56.7906 138.632 55.513 138.632 55.513Z" fill="white" stroke="#263238" stroke-width="0.379271" stroke-linecap="round" stroke-linejoin="round"/>
<path d="M120.104 74.0664L119.09 71.822L120.249 71.748L120.104 74.0664Z" fill="#263238" stroke="#263238" stroke-width="0.379271" stroke-linecap="round" stroke-linejoin="round"/>
<path d="M119.089 69.6483C119.089 69.6483 118.798 67.6925 118.51 67.3324C118.075 66.8688 117.589 66.4552 117.062 66.0992C116.554 65.7391 116.337 64.5799 116.048 65.231C115.76 65.8821 115.76 66.3187 116.048 66.5357C116.292 66.7508 116.511 66.9933 116.7 67.2584L115.76 68.4916C115.76 68.4916 115.903 70.0133 116.771 70.8815C117.639 71.7496 118.147 72.0407 118.581 72.0407C119.015 72.0407 121.541 72.9804 121.541 72.9804L121.396 70.2304C121.396 70.2304 119.723 70.0626 119.089 69.6483Z" fill="white" stroke="#263238" stroke-width="0.379271" stroke-miterlimit="10"/>
<path d="M113.874 62.9866L117.928 70.8074L118.437 70.0823L114.453 62.624H114.165L113.874 62.9866Z" fill="#263238" stroke="#263238" stroke-width="0.379271" stroke-linecap="round" stroke-linejoin="round"/>
<path d="M115.688 68.1271C115.688 68.1271 114.674 66.2452 114.674 65.4486C114.674 64.652 115.254 65.3056 115.325 65.6656C115.397 66.0257 116.559 67.8385 116.559 67.8385L115.688 68.1271Z" fill="white" stroke="#263238" stroke-width="0.379271" stroke-miterlimit="10"/>
<path d="M115.833 67.8377L117.789 67.041C117.789 67.041 118.223 67.2581 118.006 67.6206C117.789 67.9832 116.338 68.7798 116.338 68.7798L115.904 69.2139C115.904 69.2139 115.542 68.4173 115.833 67.8377Z" fill="white" stroke="#263238" stroke-width="0.379271" stroke-linecap="round" stroke-linejoin="round"/>
<path d="M116.108 68.8032L117.75 68.1348C117.819 68.1062 117.895 68.1016 117.967 68.1217C118.039 68.1419 118.101 68.1856 118.145 68.2458C118.186 68.3034 118.208 68.3724 118.208 68.4431C118.208 68.5138 118.186 68.5828 118.145 68.6404C117.95 68.966 116.751 69.6492 116.52 69.7774C116.493 69.7912 116.469 69.8096 116.448 69.8317C116.404 69.8762 116.348 69.9074 116.287 69.9216C116.226 69.9359 116.163 69.9327 116.103 69.9123C116.044 69.892 115.992 69.8553 115.952 69.8066C115.913 69.7579 115.888 69.699 115.881 69.6368C115.845 69.4316 115.855 69.2211 115.91 69.0202C115.925 68.9716 115.95 68.9269 115.985 68.8894C116.019 68.8518 116.061 68.8224 116.108 68.8032Z" fill="white" stroke="#263238" stroke-width="0.379271" stroke-linecap="round" stroke-linejoin="round"/>
<path d="M116.725 69.7073L118.121 69.14C118.179 69.1148 118.244 69.1103 118.305 69.1274C118.366 69.1444 118.419 69.182 118.456 69.2338C118.491 69.2827 118.51 69.3413 118.51 69.4015C118.51 69.4616 118.491 69.5202 118.456 69.5692C118.288 69.8479 117.27 70.425 117.072 70.536C117.05 70.5486 117.029 70.5644 117.011 70.5829C116.973 70.6202 116.926 70.6461 116.874 70.6578C116.822 70.6695 116.768 70.6664 116.718 70.6489C116.668 70.6315 116.624 70.6003 116.59 70.559C116.557 70.5176 116.536 70.4678 116.53 70.4152C116.5 70.2411 116.508 70.0627 116.554 69.8923C116.567 69.8505 116.589 69.8122 116.618 69.7801C116.648 69.748 116.684 69.7231 116.725 69.7073Z" fill="white" stroke="#263238" stroke-width="0.379271" stroke-linecap="round" stroke-linejoin="round"/>
<path d="M120.175 70.0098L120.104 74.0645L125.823 75.3667V70.1528L120.175 70.0098Z" fill="#CFEBFE" stroke="#263238" stroke-width="0.379271" stroke-miterlimit="10"/>
<path d="M131.189 57.1956C129.829 59.2497 128.9 61.5577 128.456 63.9806C127.753 67.9465 127.805 87.1201 127.805 87.1201L124.801 86.1582C125.343 83.042 125.672 79.8926 125.787 76.7317C125.859 73.703 125.378 70.6003 125.378 69.0046C125.378 64.9499 126.244 62.6389 126.949 60.8779C127.654 59.1169 129.647 56.1918 130.422 55.7676C130.857 55.5185 131.344 55.3709 131.845 55.3359L131.189 57.1956Z" fill="#CFEBFE" stroke="#263238" stroke-width="0.379271" stroke-miterlimit="10"/>
<path d="M138.629 55.5146C138.629 55.5146 135.151 59.0465 134.27 62.3934C133.39 65.7402 133.735 88.2409 133.735 88.2409C133.735 88.2409 135.146 88.3297 138.759 88.3297C140.952 88.3242 143.137 88.0761 145.275 87.5898C145.275 87.5898 142.562 73.0506 142.562 72.7916C142.562 72.5326 143.443 61.3328 143.532 60.2772C143.62 59.2216 143.707 58.6889 143.707 58.425C143.707 58.1611 143.253 56.4741 138.629 55.5146Z" fill="#CFEBFE" stroke="#263238" stroke-width="0.379271" stroke-miterlimit="10"/>
<path d="M132.168 54.8819L132.486 58.14C132.486 58.14 135.394 56.0387 135.776 55.5848C136.038 55.1973 136.221 54.7613 136.313 54.3023L135.983 50.001C135.983 50.001 134.039 53.1456 133.541 53.4761C133.043 53.8066 132.209 54.4676 132.168 54.8819Z" fill="white" stroke="#263238" stroke-width="0.379271" stroke-linecap="round" stroke-linejoin="round"/>
<path d="M136.463 52.4082C136.463 52.4082 134.298 54.4232 133.326 54.8746C132.354 55.3259 132.283 55.0225 131.461 55.0225C130.64 55.0225 130.416 55.247 130.416 55.7624C130.416 56.2779 130.64 57.1066 130.64 57.553C130.64 57.9995 130.49 59.1216 132.655 58.8972C134.821 58.6728 136.91 57.2546 137.588 56.5073C137.989 56.0628 138.272 55.5241 138.409 54.9411L137.736 54.2012C137.735 53.7441 137.66 53.2902 137.514 52.8571C137.285 52.3317 136.463 52.4082 136.463 52.4082Z" fill="white" stroke="#263238" stroke-width="0.379271" stroke-linecap="round" stroke-linejoin="round"/>
<path d="M128.611 44.7891C128.611 44.7891 133.036 47.396 134.36 48.0151L135.1 48.2223C135.1 48.2223 136.055 46.8534 136.516 47.1469C136.977 47.4404 137.219 48.1803 136.97 48.8438C136.748 49.3096 136.408 49.7087 135.983 50.0005C135.983 50.0005 135.941 51.9859 135.65 52.7308C135.359 53.4756 132.323 55.2539 131.83 55.3353C131.336 55.4167 130.878 55.3353 130.628 54.8815C130.379 54.4276 128.811 52.5655 128.108 50.0005C127.405 47.4355 127.824 45.2034 128.611 44.7891Z" fill="white" stroke="#263238" stroke-width="0.379271" stroke-linecap="round" stroke-linejoin="round"/>
<path d="M129.604 48.9668L129.48 51.3666L130.805 51.0755" stroke="#263238" stroke-width="0.379271" stroke-linecap="round" stroke-linejoin="round"/>
<path d="M132.455 51.3682C132.455 51.3682 132.167 51.7381 130.975 52.1525" stroke="#263238" stroke-width="0.379271" stroke-linecap="round" stroke-linejoin="round"/>
<path d="M132.665 48.6787C132.665 48.6787 132.335 49.3816 131.136 49.1325" stroke="#263238" stroke-width="0.379271" stroke-linecap="round" stroke-linejoin="round"/>
<path d="M129.15 49.6289C129.062 49.7709 128.927 49.8777 128.769 49.9309C128.61 49.984 128.438 49.9801 128.282 49.9199" stroke="#263238" stroke-width="0.379271" stroke-linecap="round" stroke-linejoin="round"/>
<path d="M132.322 47.5195C132.015 47.3887 131.684 47.3213 131.351 47.3213C131.017 47.3213 130.686 47.3887 130.379 47.5195" stroke="#263238" stroke-width="0.379271" stroke-linecap="round" stroke-linejoin="round"/>
<path d="M127.952 48.4721C128.117 48.0158 128.859 47.8506 128.859 47.8506" stroke="#263238" stroke-width="0.379271" stroke-linecap="round" stroke-linejoin="round"/>
<path d="M135.639 49.3398L137.048 49.6703L137.79 52.0701" stroke="#263238" stroke-width="0.379271" stroke-linecap="round" stroke-linejoin="round"/>
<path d="M118.968 64.2569C119.232 64.2371 122.221 63.9165 122.606 63.8573C122.99 63.7981 123.575 64.141 123.797 64.4049C124.019 64.6688 126.263 67.2141 126.793 67.8233L128.969 68.9825L128.054 71.0123L125.915 68.7629C125.748 68.7013 125.607 68.647 125.528 68.6076C125.205 68.4448 124.843 67.7591 124.843 67.7591C124.526 67.7808 124.208 67.7734 123.893 67.7369C123.671 67.6753 122.926 67.0488 122.724 67.0488C122.522 67.0488 121.168 67.0266 120.946 66.3607C120.724 65.6948 122.783 66.4224 122.783 66.4224L121.937 64.6836C121.937 64.6836 120.24 65.0461 119.431 64.8439C118.622 64.6416 118.706 64.2766 118.968 64.2569Z" fill="white" stroke="#263238" stroke-width="0.379271" stroke-miterlimit="10"/>
<path d="M123.795 64.4037C123.795 64.4037 122.808 63.7674 122.702 63.8118C122.596 63.8562 121.716 65.3064 121.659 65.4199C121.602 65.5333 122.436 66.2362 122.569 66.3497C122.702 66.4631 122.766 66.5667 122.966 66.4064C123.1 66.2926 123.214 66.1586 123.307 66.0093" fill="white"/>
<path d="M123.795 64.4037C123.795 64.4037 122.808 63.7674 122.702 63.8118C122.596 63.8562 121.716 65.3064 121.659 65.4199C121.602 65.5333 122.436 66.2362 122.569 66.3497C122.702 66.4631 122.766 66.5667 122.966 66.4064C123.1 66.2926 123.214 66.1586 123.307 66.0093" stroke="#263238" stroke-width="0.379271" stroke-miterlimit="10"/>
<path d="M124.217 65.0459C124.217 65.0459 123.166 64.449 123.053 64.486C122.939 64.523 122.229 65.6107 122.276 65.7537C122.323 65.8968 122.769 66.691 122.927 66.6737C123.128 66.6123 123.323 66.5297 123.506 66.4271" fill="white"/>
<path d="M124.217 65.0459C124.217 65.0459 123.166 64.449 123.053 64.486C122.939 64.523 122.229 65.6107 122.276 65.7537C122.323 65.8968 122.769 66.691 122.927 66.6737C123.128 66.6123 123.323 66.5297 123.506 66.4271" stroke="#263238" stroke-width="0.379271" stroke-miterlimit="10"/>
<path d="M124.521 65.8597C124.242 65.7051 123.947 65.5811 123.641 65.4898C123.375 65.4528 123.027 66.1064 122.783 66.4221C122.538 66.7378 122.21 66.9745 122.447 67.1176C122.684 67.2606 123.241 66.7575 123.384 66.7106C123.533 66.632 123.67 66.5333 123.791 66.4171L124.531 67.4037" fill="white"/>
<path d="M124.521 65.8597C124.242 65.7051 123.947 65.5811 123.641 65.4898C123.375 65.4528 123.027 66.1064 122.783 66.4221C122.538 66.7378 122.21 66.9745 122.447 67.1176C122.684 67.2606 123.241 66.7575 123.384 66.7106C123.533 66.632 123.67 66.5333 123.791 66.4171L124.531 67.4037" stroke="#263238" stroke-width="0.379271" stroke-miterlimit="10"/>
<path d="M143.22 57.6498C143.22 57.6498 144.929 59.0556 145.129 62.0892C145.269 64.267 143.871 76.4509 143.427 77.0182C142.983 77.5855 141.19 78.1034 140.425 77.5929C139.661 77.0823 126.873 71.5922 126.873 71.5922L127.921 68.3563L138.319 70.7215C138.319 70.7215 138.635 61.0731 139.148 59.0926C139.661 57.1121 139.912 56.7298 140.233 56.6016" fill="#CFEBFE"/>
<path d="M143.22 57.6498C143.22 57.6498 144.929 59.0556 145.129 62.0892C145.269 64.267 143.871 76.4509 143.427 77.0182C142.983 77.5855 141.19 78.1034 140.425 77.5929C139.661 77.0823 126.873 71.5922 126.873 71.5922L127.921 68.3563L138.319 70.7215C138.319 70.7215 138.635 61.0731 139.148 59.0926C139.661 57.1121 139.912 56.7298 140.233 56.6016" stroke="#263238" stroke-width="0.379271" stroke-miterlimit="10"/>
</g>
<circle cx="94.5" cy="83.5" r="2.5" fill="white"/>
<circle cx="100.5" cy="74.5" r="1.5" fill="white"/>
</g>
<defs>
<clipPath id="clip0_211_54835">
<rect width="159" height="159" fill="white"/>
</clipPath>
</defs>
</svg>
