<svg width="156" height="58" viewBox="0 0 156 58" fill="none" xmlns="http://www.w3.org/2000/svg">
<path d="M32.9762 12.502C36.1672 12.502 38.7376 10.2861 38.7376 7.62699C38.7376 4.87924 36.1672 2.75195 32.9762 2.75195C29.7853 2.75195 27.2148 4.96788 27.2148 7.62699C27.3035 10.3747 29.7853 12.502 32.9762 12.502Z" fill="#005E9E"/>
<path d="M58.4138 15.2497C57.3501 3.99286 63.9979 4.52468 66.3911 5.0565C67.2774 5.23378 67.2774 4.25877 67.2774 3.99286C67.1888 3.10649 66.657 2.30876 66.0365 1.77693C63.6433 -0.173078 59.3001 0.00419583 59.3001 0.00419583C51.3228 0.00419583 48.5751 5.94287 48.5751 10.8179C48.5751 13.2997 48.5751 15.427 48.5751 15.427H46.1819C44.7637 15.427 44.2318 16.8452 44.2318 17.6429V19.4157H48.5751V31.4703C39.8886 38.8272 37.9386 34.3953 37.9386 32.534C37.9386 29.2544 37.9386 23.2271 37.9386 19.2384C37.9386 15.9588 33.2409 14.8952 30.4045 14.8066C27.6567 14.7179 28.0113 16.8452 28.0113 16.8452V33.1544C28.0113 33.1544 27.2136 41.4863 34.3045 41.4863C42.0159 41.4863 48.6637 35.1931 48.6637 35.1931C48.6637 35.1931 48.6637 39.6249 48.7523 42.9931C48.7523 43.5249 48.7523 43.8795 48.7523 44.1454C48.9296 46.2727 51.0569 46.0068 51.0569 46.0068C58.6797 46.0068 58.5024 40.5999 58.5024 40.5999V19.2384H63.2888C64.2638 19.2384 65.8593 18.7952 65.8593 16.9339C65.8593 15.8702 65.8593 15.0725 65.8593 15.0725H58.4138V15.2497Z" fill="#005E9E"/>
<path d="M93.5163 33.9524C93.5163 33.8637 93.5163 33.8637 93.5163 33.9524C93.4276 33.6865 93.1617 33.5092 92.4526 33.9524C91.0344 34.8387 86.6912 36.6115 84.6526 37.0547C82.6139 37.4979 79.2457 37.5865 76.9411 36.0797C74.6366 34.6615 74.1934 31.9137 74.1048 31.6478C73.9275 30.6728 73.9275 29.7864 73.9275 29.166C73.9275 26.8614 75.3457 21.1 81.1957 21.1C86.4253 21.0114 87.0458 29.0773 76.0548 29.6978C76.0548 29.6978 76.9411 31.2046 77.5616 31.6478C79.2457 32.8001 80.4866 32.8001 81.8162 32.8887C85.273 33.1546 93.9594 30.4955 93.339 23.05C92.5412 13.2113 78.0934 15.0727 73.5729 16.9341C69.3184 18.7068 63.2911 22.4296 63.9115 31.0274C64.6206 40.7774 75.6116 41.6638 80.5753 41.5752C81.1957 41.5752 81.8162 41.4865 82.5253 41.4865C88.8185 40.9547 92.364 37.3206 93.1617 35.991C93.5163 35.3706 93.6935 34.8387 93.6935 34.4842C93.6049 34.3956 93.6049 34.1297 93.5163 33.9524Z" fill="#005E9E"/>
<path fill-rule="evenodd" clip-rule="evenodd" d="M122.144 33.8624C122.765 35.5465 123.562 36.876 124.626 38.0283C125.054 38.456 125.523 38.8416 125.977 39.214C126.182 39.3819 126.383 39.5472 126.576 39.7124C125.424 43.2579 123.474 46.3602 120.726 48.9307C116.117 53.3625 109.646 56.1102 101.58 57.1739L100.96 54.3375L103.974 53.8057C106.367 53.0966 108.317 52.2989 109.824 51.2352C111.419 50.1716 112.66 49.0193 113.635 47.6011C114.61 46.1829 115.408 44.6761 115.94 43.0806C116.471 41.4852 116.915 39.8011 117.18 38.117C115.496 39.6238 113.901 40.5988 112.305 41.042C110.71 41.4852 108.937 41.7511 106.987 41.7511C105.303 41.7511 103.796 41.3965 102.378 40.7761C100.96 40.1556 99.719 39.2692 98.6553 38.117C97.5917 36.9647 96.7939 35.5465 96.1735 33.951C95.553 32.3556 95.2871 30.5828 95.2871 28.7214C95.2871 24.6441 96.7939 21.3646 99.8962 18.7055C102.91 16.0464 106.81 14.7168 111.419 14.7168C116.471 14.7168 120.46 16.2236 123.385 19.3259C123.651 19.5918 123.917 19.9464 124.183 20.3009C122.233 22.6941 121.258 25.4419 121.258 28.6328C121.258 30.4942 121.524 32.2669 122.144 33.8624ZM117.445 33.5077V32.5327C117.445 32.0895 117.445 31.7349 117.711 31.3804C117.711 26.8599 117.091 23.3144 116.027 20.9212C114.964 18.528 113.545 17.2871 111.773 17.2871C110 17.2871 108.67 18.1735 107.607 20.0349C106.543 21.8962 106.011 24.5553 106.011 28.0122C106.011 31.0258 106.543 33.5077 107.607 35.2804C108.67 37.1418 110.089 38.0282 111.861 38.0282C112.925 38.0282 113.9 37.8509 114.875 37.4077C115.761 36.9645 116.648 36.1668 117.445 34.9259V34.394V33.5077Z" fill="#005E9E"/>
<path d="M25.7112 37.9761C25.7112 36.5174 24.7393 35.1499 23.3256 35.1499C19.7032 35.0587 9.9843 35.1499 9.9843 35.1499C9.9843 35.1499 10.0727 21.4747 10.0727 13.1784C10.0727 11.4462 10.161 8.52885 10.0727 7.52601C9.9843 4.1528 5.12488 3.05878 2.38593 2.96762C-0.0879605 2.87645 0.000392681 5.06448 0.000392681 5.06448V13.1784V38.7966C0.000392681 40.9846 2.29758 41.5316 2.29758 41.5316H25.7112C25.7112 41.5316 25.7112 39.7083 25.7112 37.9761Z" fill="#005E9E"/>
<path fill-rule="evenodd" clip-rule="evenodd" d="M148.997 48.9307C153.695 44.4988 156 38.826 156 31.9124C156 26.6828 154.493 22.5168 151.657 19.3259C148.643 16.2236 144.654 14.7168 139.691 14.7168C135.081 14.7168 131.27 16.0464 128.168 18.7055C125.065 21.3646 123.559 24.7328 123.559 28.7214C123.559 30.5828 123.825 32.3556 124.445 33.951C125.065 35.6351 125.863 36.9647 126.927 38.117C127.99 39.2692 129.231 40.1556 130.65 40.7761C132.068 41.3965 133.663 41.7511 135.259 41.7511C137.209 41.7511 138.981 41.4852 140.577 41.042C142.172 40.5101 143.768 39.6238 145.452 38.117C145.186 39.8011 144.743 41.4852 144.211 43.0806C143.679 44.6761 142.97 46.1829 141.906 47.6011C140.931 48.9307 139.602 50.1716 138.095 51.2352C136.5 52.2989 134.55 53.0966 132.245 53.8057L129.231 54.3375L129.852 57.1739C137.918 56.1102 144.3 53.3625 148.997 48.9307ZM145.54 32.4448V33.4198C145.54 33.863 145.54 34.1289 145.274 34.3061V34.838C144.476 36.0789 143.59 36.8766 142.704 37.3198C141.817 37.763 140.754 37.9403 139.69 37.9403C137.917 37.9403 136.499 36.9653 135.435 35.1925C134.372 33.4198 133.84 30.9379 133.84 27.9243C133.84 24.4674 134.372 21.8083 135.435 19.947C136.499 18.0856 137.917 17.1992 139.601 17.1992C141.374 17.1992 142.792 18.4401 143.856 20.8333C145.008 23.2265 145.54 26.6834 145.54 31.2925V32.4448Z" fill="#005E9E"/>
</svg>
