<svg width="31" height="30" viewBox="0 0 31 30" fill="none" xmlns="http://www.w3.org/2000/svg">
<path d="M24.6019 1.625H24.6025C24.7682 1.62539 24.932 1.66046 25.0833 1.72795C25.2343 1.79528 25.3696 1.8934 25.4805 2.01601C25.5912 2.13677 25.6757 2.27913 25.7288 2.43415C25.7819 2.58949 25.8023 2.75416 25.7885 2.91777L25.7883 2.92027L23.5009 27.2569C23.5009 27.2571 23.5009 27.2573 23.5008 27.2575L23.5008 27.2578L23.2519 27.2344C23.2308 27.4681 23.1228 27.6854 22.9492 27.8434C22.7756 28.0013 22.5491 28.0884 22.3144 28.0875L24.6019 1.625ZM24.6019 1.625L5.85191 1.625L5.85132 1.625C5.68561 1.62539 5.52182 1.66046 5.37048 1.72795C5.21947 1.79529 5.08419 1.89343 4.9733 2.01607C4.86261 2.13681 4.77809 2.27916 4.72506 2.43415C4.67192 2.58949 4.65157 2.75416 4.66529 2.91777L4.66527 2.91777L4.66553 2.92047L5.36864 10.3359L24.6019 1.625ZM11.6728 7.31133C10.1316 7.48454 8.80058 7.98889 7.58653 8.53347L7.15791 4H23.2963L22.722 10.1632C20.9675 9.62971 19.2431 9.00192 17.5562 8.28253L17.5545 8.2818C15.2725 7.329 13.3549 7.12229 11.6728 7.31133ZM22.4591 12.567L21.2238 26H9.22938L7.81425 11.0361C9.11546 10.4275 10.3163 9.89394 11.6671 9.69378C13.0635 9.48687 14.6368 9.63493 16.6482 10.4677C18.5398 11.2873 20.4805 11.9884 22.4591 12.567Z" fill="#005E9E" stroke="#005E9E" stroke-width="0.5"/>
<path d="M12.6302 13.0134L12.6301 13.0134L13.5674 23.2302C13.5675 23.2305 13.5675 23.2309 13.5676 23.2312C13.5824 23.3738 13.5689 23.518 13.5278 23.6553C13.4867 23.793 13.4186 23.9212 13.3276 24.0324C13.2366 24.1437 13.1244 24.2358 12.9976 24.3034L12.927 24.171L12.9976 24.3034C12.8708 24.371 12.7318 24.4128 12.5887 24.4264L12.5816 24.4271H12.5745H12.4811H12.4808V24.2771L12.6302 13.0134ZM12.6302 13.0134L12.6299 13.0114M12.6302 13.0134L12.6299 13.0114M12.6299 13.0114C12.615 12.8693 12.5722 12.7315 12.504 12.6059M12.6299 13.0114L12.504 12.6059M12.504 12.6059C12.4358 12.4804 12.3435 12.3695 12.2324 12.2796M12.504 12.6059L12.2324 12.2796M12.2324 12.2796C12.1213 12.1897 11.9936 12.1226 11.8565 12.0821M12.2324 12.2796L11.8565 12.0821M11.8565 12.0821C11.7197 12.0416 11.5763 12.0285 11.4344 12.0435M11.8565 12.0821L11.4344 12.0435M11.4344 12.0435C11.1478 12.0712 10.8838 12.2115 10.7005 12.4335C10.517 12.6557 10.4292 12.9417 10.4564 13.2285C10.4564 13.2286 10.4564 13.2287 10.4564 13.2288L11.4344 12.0435Z" fill="#0BB8E4" stroke="#0BB8E4" stroke-width="0.3"/>
</svg>
