<?xml version="1.0" encoding="utf-8"?>
<!-- Generator: Adobe Illustrator 24.1.1, SVG Export Plug-In . SVG Version: 6.00 Build 0)  -->
<svg version="1.1" id="Layer_1" xmlns="http://www.w3.org/2000/svg" xmlns:xlink="http://www.w3.org/1999/xlink" x="0px" y="0px"
	 viewBox="0 0 946 300" style="enable-background:new 0 0 946 300;" xml:space="preserve">
<style type="text/css">
	.st0{fill:#BCE6F4;}
	.st1{fill:#11CDFF;filter:url(#Adobe_OpacityMaskFilter);}
	.st2{mask:url(#mask0_211_45260_1_);}
	.st3{fill:#455A64;}
	.st4{fill:#37474F;}
	.st5{fill:#0BB8E4;}
	.st6{opacity:0.1;}
	.st7{opacity:0.1;enable-background:new    ;}
	.st8{fill:#FFFFFF;}
	.st9{fill:#263238;}
	.st10{fill:#DBDBDB;}
	.st11{fill:#C7C7C7;}
	.st12{fill:#EBEBEB;}
</style>
<rect class="st0" width="946" height="300"/>
<defs>
	<filter id="Adobe_OpacityMaskFilter" filterUnits="userSpaceOnUse" x="706" y="119.1" width="140" height="180.4">
		<feColorMatrix  type="matrix" values="1 0 0 0 0  0 1 0 0 0  0 0 1 0 0  0 0 0 1 0"/>
	</filter>
</defs>
<mask maskUnits="userSpaceOnUse" x="706" y="119.1" width="140" height="180.4" id="mask0_211_45260_1_">
	<path class="st1" d="M16,0h914c8.8,0,16,7.2,16,16v251c0,8.8-7.2,16-16,16H16c-8.8,0-16-7.2-16-16V16C0,7.2,7.2,0,16,0z"/>
</mask>
<g class="st2">
	<path class="st3" d="M768,263.3h41.1v-1.7H768V263.3z"/>
	<path class="st3" d="M807.6,263.3l20.2-3.9v-1.7l-20.2,3.9V263.3z"/>
	<path class="st3" d="M761.5,299.5h-3.2l17.4-88.6h7.9L761.5,299.5z"/>
	<path class="st4" d="M775.8,210.9h7.9l-4.7,18.7c-2.2-0.6-4.3-1.5-6.4-2.4L775.8,210.9z"/>
	<path class="st3" d="M816.6,299.5h3.2l-22.1-88.6h-7.9L816.6,299.5z"/>
	<path class="st4" d="M797.7,210.9l4.7,18.9c-2.1,0.6-4.3,1-6.5,1.3l-6.1-20.2H797.7z"/>
	<path class="st3" d="M842.8,299.5h3.2l-38.2-93.4h-7.9L842.8,299.5z"/>
	<path class="st4" d="M815,223.9c-1.7,1.2-3.6,2.3-5.4,3.2l-9.7-21h7.9L815,223.9z"/>
	<path class="st5" d="M836.9,193.9c10.2-25.4,1-52.9-20.5-61.6c-21.5-8.6-47.2,4.9-57.4,30.3c-10.2,25.4-1,52.9,20.5,61.6
		C801.1,232.8,826.7,219.3,836.9,193.9z"/>
	<path class="st5" d="M796.1,129.1l10,0.7l-16.4,96.8l-10-0.7L796.1,129.1z"/>
	<g class="st6">
		<path class="st7" d="M836.9,193.9c10.2-25.4,1-52.9-20.5-61.6c-21.5-8.6-47.2,4.9-57.4,30.3c-10.2,25.4-1,52.9,20.5,61.6
			C801.1,232.8,826.7,219.3,836.9,193.9z"/>
		<path class="st7" d="M796.1,129.1l10,0.7l-16.4,96.8l-10-0.7L796.1,129.1z"/>
	</g>
	<path class="st5" d="M827.8,193.2c10.2-25.4,1-52.9-20.5-61.6c-21.5-8.6-47.2,4.9-57.4,30.3c-10.2,25.4-1,52.9,20.5,61.6
		C791.9,232.2,817.6,218.6,827.8,193.2z"/>
	<path class="st8" d="M819.2,189.8c8-19.8,0.8-41.3-16-48c-16.8-6.7-36.8,3.8-44.8,23.6c-8,19.8-0.8,41.3,16,48
		C791.2,220.2,811.2,209.6,819.2,189.8z"/>
	<path class="st5" d="M810.7,186.4c5.7-14.3,0.6-29.8-11.5-34.6s-26.5,2.8-32.3,17c-5.7,14.3-0.6,29.8,11.5,34.6
		C790.6,208.3,805,200.7,810.7,186.4z"/>
	<path class="st8" d="M802.2,182.9c3.5-8.7,0.4-18.1-7-21.1c-7.4-3-16.2,1.7-19.6,10.4c-3.5,8.7-0.4,18.1,7,21.1
		C789.9,196.3,798.7,191.6,802.2,182.9z"/>
	<path class="st5" d="M795.4,176.8c0,4.1-3,7.7-6.6,8.2c-3.6,0.4-6.5-2.5-6.5-6.5c0-4.1,3-7.7,6.6-8.2
		C792.5,169.7,795.4,172.7,795.4,176.8z"/>
	<path class="st9" d="M715.1,141.2l-0.3,0.7l68.4,27.5l0.3-0.7L715.1,141.2z"/>
	<path class="st9" d="M712.2,143.4l0.2-0.1l2.9-1.2l-6.2-2.5l-3.1,1.3L712.2,143.4z"/>
	<path class="st9" d="M708,135.9l1.3,3l6.2,2.5c-0.6-0.9-1-1.9-1.4-3L708,135.9z"/>
	<path class="st9" d="M784.9,168.3l-1,2.3l-3.3,0l2-2l-0.1-2.8L784.9,168.3z"/>
	<path class="st9" d="M769.5,127.9l-0.5,0.6l56,47.9l0.5-0.6L769.5,127.9z"/>
	<path class="st9" d="M765.3,127.5l0.2,0l3.1-0.3l-5.1-4.3l-3.3,0.2L765.3,127.5z"/>
	<path class="st9" d="M763.7,119.1l0.4,3.3l5.1,4.3c-0.2-1.1-0.4-2.2-0.3-3.3L763.7,119.1z"/>
	<path class="st9" d="M826.7,174.8l-1.3,1.4l-3.8-1.2l2.5-1.2l0.8-2.7L826.7,174.8z"/>
	<path class="st9" d="M726.5,230.7l-0.6,0.3l29.4,56l0.6-0.3L726.5,230.7z"/>
	<path class="st9" d="M723.4,230.5l0.1,0l2.6,0.8l-2.7-5.1l-2.7-0.9L723.4,230.5z"/>
	<path class="st9" d="M724.8,223.3L724,226l2.7,5.1c0.2-0.9,0.4-1.8,0.8-2.7L724.8,223.3z"/>
</g>
<g class="st6">
	<path class="st10" d="M346.1,299.2c0,0,98.7-61.3,170.7-61.3c70.5,0,166.2,31,192.2,38c68.3,18.3,156.2,23.4,156.2,23.4
		L346.1,299.2z"/>
	<path class="st11" d="M865.3,299.2c0,0-53.8-41.2-114.6-41.2c-42.4,0-103.3,16.6-160.6,25.9c-21.8,3.5-135.5,15.3-135.5,15.3H865.3
		z"/>
	<path class="st12" d="M754.4,299.3h-0.9l-19.4-67.6l0.8-0.2L754.4,299.3z"/>
	<path class="st12" d="M731.1,230.4l0.2,0.1l3,1.7l-2-7.1l-3.2-1.8L731.1,230.4z"/>
	<path class="st12" d="M734.8,221.6l-1.7,3.2l2,7.1c0.4-1.1,1-2.2,1.7-3.2L734.8,221.6z"/>
	<path class="st4" d="M366.7,232c0,0,18.1,40.3-11.5,40.3c-29.6,0-10.5-41.6-10.5-41.6s-6.9-3,1.1-25.5
		c7.9-22.5,11.5-22.5,14.8-22.5c4.2,0,8.1,9.7,5.2,24.7C365.9,207.4,376.3,226,366.7,232z"/>
	<path class="st9" d="M352.6,299l2.8-60.7l2.9,60.7H352.6z"/>
	<path class="st9" d="M354.3,263.8l10.7-12.6l-8.4,14.2L354.3,263.8z"/>
	<path class="st3" d="M373.4,237.1c0,0-8.3-3.3-14.9,8.2c-6.8,11.8,1.7,19.6,8.5,14.9c0,0,5.3,11.2,15.9,8.5
		c10.6-2.7,12.3-11.2,12.3-11.2s9.4,0.6,9.7-6.4c0.3-7-6.6-13.2-6.6-13.2s-0.4-17.5-11.8-17.3C374.9,220.8,373.4,237.1,373.4,237.1z
		"/>
	<path class="st9" d="M381.2,299l2.3-52l2.4,52L381.2,299z"/>
	<path class="st9" d="M382.8,266.6l-7.3-14.6l8.5,12.3L382.8,266.6z"/>
	<path class="st4" d="M657.1,224.4c0,0,20.1,44.7-12.7,44.7c-32.8,0-11.6-46.2-11.6-46.2s-7.6-3.3,1.2-28.3
		c8.8-24.9,12.7-24.9,16.3-24.9c4.6,0,8.9,10.8,5.8,27.4C656.2,197,667.8,217.7,657.1,224.4z"/>
	<path class="st9" d="M641.5,298.7l3.1-67.3l3.2,67.3H641.5z"/>
	<path class="st9" d="M643.4,259.6l11.9-13.9l-9.3,15.8L643.4,259.6z"/>
	<path class="st4" d="M519.9,233.9c0,0-17.5,39.2,11.2,39.1c28.7,0,10.1-40.5,10.1-40.5s6.7-2.9-1.1-24.8
		c-7.7-21.9-11.2-21.8-14.4-21.8c-4.1,0-7.8,9.5-5,24C520.7,209.9,510.6,228,519.9,233.9z"/>
	<path class="st9" d="M533.7,299l-2.8-59l-2.7,59H533.7z"/>
	<path class="st9" d="M532,264.7l-10.5-12.2l8.2,13.8L532,264.7z"/>
	<path class="st3" d="M606.3,229.2c0,0-9.4-3.7-16.8,9.2c-7.6,13.3,1.9,22,9.5,16.8c0,0,6,12.5,17.8,9.5c11.9-3,13.8-12.5,13.8-12.5
		s10.5,0.7,10.8-7.1c0.3-7.9-7.4-14.9-7.4-14.9s-0.5-19.6-13.2-19.5C608.1,210.9,606.3,229.2,606.3,229.2z"/>
	<path class="st9" d="M615.1,298.8l2.6-58.4l2.7,58.4L615.1,298.8z"/>
	<path class="st9" d="M616.9,262.3l-8.2-16.3l9.8,13.8L616.9,262.3z"/>
</g>
</svg>
