<?xml version="1.0" encoding="utf-8"?>
<!-- Generator: Adobe Illustrator 24.1.1, SVG Export Plug-In . SVG Version: 6.00 Build 0)  -->
<svg version="1.1" id="Layer_1" xmlns="http://www.w3.org/2000/svg" xmlns:xlink="http://www.w3.org/1999/xlink" x="0px" y="0px"
	 viewBox="0 0 375 344" style="enable-background:new 0 0 375 344;" xml:space="preserve">
<style type="text/css">
	.st0{fill:#11CDFF;fill-opacity:0.22;}
	.st1{fill:#455A64;}
	.st2{fill:#37474F;}
	.st3{fill:#0BB8E4;}
	.st4{opacity:0.1;}
	.st5{opacity:0.1;enable-background:new    ;}
	.st6{fill:#FFFFFF;}
	.st7{fill:#263238;}
</style>
<g>
	<path class="st0" d="M9.6,2h354.8c10.5,0,19.2,8.6,19.2,19.2v297.2c0,10.5-8.6,19.2-19.2,19.2H9.6c-10.5,0-19.2-8.6-19.2-19.2V21.2
		C-9.6,10.6-0.9,2,9.6,2z"/>
</g>
<path class="st1" d="M299.3,279.3h28.9v-1.2h-28.9V279.3z"/>
<path class="st1" d="M327,279.3l14.1-2.8v-1.2l-14.1,2.8V279.3z"/>
<path class="st1" d="M294.8,304.7h-2.2l12.2-62.1h5.5L294.8,304.7z"/>
<path class="st2" d="M304.8,242.7h5.5l-3.2,13.2c-1.6-0.5-3-1.1-4.4-1.7L304.8,242.7z"/>
<path class="st1" d="M333.3,304.7h2.2L320,242.7h-5.5L333.3,304.7z"/>
<path class="st2" d="M320,242.7l3.4,13.3c-1.4,0.5-3,0.7-4.6,1l-4.3-14.1h5.5V242.7z"/>
<path class="st1" d="M351.8,304.7h2.2l-26.7-65.4h-5.5L351.8,304.7z"/>
<path class="st2" d="M332.3,251.8c-1.2,0.8-2.5,1.6-3.8,2.3l-6.8-14.7h5.5L332.3,251.8z"/>
<path class="st3" d="M347.6,230.8c7.2-17.7,0.7-37.2-14.4-43.1c-15.1-6.1-33.1,3.5-40.3,21.2s-0.7,37.2,14.4,43.1
	C322.4,258,340.5,248.5,347.6,230.8z"/>
<path class="st3" d="M319,185.4l7,0.5l-11.5,67.8l-7-0.5L319,185.4z"/>
<g class="st4">
	<path class="st5" d="M347.6,230.8c7.2-17.7,0.7-37.2-14.4-43.1c-15.1-6.1-33.1,3.5-40.3,21.2s-0.7,37.2,14.4,43.1
		C322.4,258,340.5,248.5,347.6,230.8z"/>
	<path class="st5" d="M319,185.4l7,0.5l-11.5,67.8l-7-0.5L319,185.4z"/>
</g>
<path class="st3" d="M341.1,230.3c7.2-17.7,0.7-37.2-14.4-43.1c-15.1-6.1-33.1,3.5-40.3,21.2c-7.2,17.7-0.7,37.2,14.4,43.1
	C316.1,257.5,334.1,248.1,341.1,230.3z"/>
<path class="st6" d="M335.1,227.8c5.6-13.9,0.6-29-11.1-33.7c-11.7-4.7-25.8,2.8-31.4,16.5c-5.6,13.9-0.6,29,11.1,33.7
	C315.6,249.1,329.6,241.7,335.1,227.8z"/>
<path class="st3" d="M329.3,225.5c4.1-9.9,0.4-20.9-8-24.3c-8.5-3.4-18.6,1.9-22.7,12c-4.1,9.9-0.4,20.9,8,24.3
	C315.1,240.9,325.2,235.5,329.3,225.5z"/>
<path class="st6" d="M323.3,223c2.4-6.1,0.2-12.7-4.9-14.7s-11.4,1.2-13.8,7.3c-2.4,6.1-0.2,12.7,4.9,14.7S320.8,229.1,323.3,223z"
	/>
<path class="st3" d="M318.5,218.7c0,2.9-2,5.4-4.7,5.8s-4.6-1.8-4.6-4.6c0-2.9,2-5.4,4.7-5.8C316.4,213.8,318.5,215.9,318.5,218.7z"
	/>
<path class="st7" d="M262.2,193.8l-0.2,0.5l47.9,19.3l0.2-0.5L262.2,193.8z"/>
<path class="st7" d="M260.2,195.3L260.2,195.3l2.2-1l-4.3-1.8l-2.2,1L260.2,195.3z"/>
<path class="st7" d="M257.2,190l1,2.2l4.3,1.7c-0.4-0.6-0.7-1.3-1-2L257.2,190z"/>
<path class="st7" d="M311.2,212.8l-0.7,1.7h-2.3l1.3-1.3v-1.9L311.2,212.8z"/>
<path class="st7" d="M300.4,184.5l-0.4,0.4l39.3,33.6l0.4-0.4L300.4,184.5z"/>
<path class="st7" d="M297.4,184.2h0.1l2.2-0.1l-3.6-3l-2.4,0.1L297.4,184.2z"/>
<path class="st7" d="M296.2,178.3l0.2,2.3l3.6,3c-0.1-0.7-0.2-1.6-0.2-2.3L296.2,178.3z"/>
<path class="st7" d="M340.4,217.4l-1,1l-2.6-0.8l1.8-0.8l0.6-1.9L340.4,217.4z"/>
<path class="st7" d="M270.2,256.6l-0.4,0.2l20.6,39.3l0.4-0.2L270.2,256.6z"/>
<path class="st7" d="M268,256.4L268,256.4l1.9,0.6l-1.9-3.6l-1.9-0.6L268,256.4z"/>
<path class="st7" d="M269,251.4l-0.5,1.9l1.9,3.6c0.1-0.6,0.2-1.3,0.6-1.9L269,251.4z"/>
<path class="st7" d="M291.6,296h-2.4l-0.5-0.4l1.7-0.1l1.1-1.3L291.6,296z"/>
</svg>
