<svg width="155" height="47" viewBox="0 0 155 47" fill="none" xmlns="http://www.w3.org/2000/svg">
<g clip-path="url(#clip0_211_37078)">
<path fill-rule="evenodd" clip-rule="evenodd" d="M148.72 46.3284H5.95038C2.80166 46.3284 0.237305 43.7535 0.237305 40.6174V6.35159C0.237305 3.20415 2.80166 0.640625 5.95038 0.640625H148.72C151.866 0.640625 154.433 3.20415 154.433 6.35159V40.6174C154.433 43.7535 151.866 46.3284 148.72 46.3284Z" fill="black"/>
<path fill-rule="evenodd" clip-rule="evenodd" d="M148.72 1.55495C151.361 1.55495 153.523 3.71116 153.523 6.35159V40.6174C153.523 43.2578 151.376 45.4141 148.72 45.4141H5.95038C3.30943 45.4141 1.14788 43.2578 1.14788 40.6174V6.35159C1.14788 3.71116 3.29524 1.55495 5.95038 1.55495H148.72ZM148.72 0.640625H5.95038C2.80166 0.640625 0.237305 3.21555 0.237305 6.35159V40.6174C0.237305 43.7649 2.80166 46.3284 5.95038 46.3284H148.72C151.866 46.3284 154.433 43.7649 154.433 40.6174V6.35159C154.433 3.21555 151.866 0.640625 148.72 0.640625Z" fill="#A6A6A6"/>
<path d="M81.4678 15.7549C80.4381 15.7549 79.5701 15.3932 78.8836 14.6811C78.2028 13.989 77.8227 13.0348 77.8397 12.0606C77.8397 11.021 78.1915 10.1408 78.8836 9.44297C79.5672 8.73088 80.4353 8.36914 81.465 8.36914C82.4833 8.36914 83.3513 8.73088 84.0492 9.44297C84.7413 10.1636 85.0931 11.0438 85.0931 12.0606C85.0817 13.1031 84.73 13.9833 84.0492 14.6783C83.3655 15.3961 82.4975 15.7549 81.4678 15.7549ZM50.829 15.7549C49.822 15.7549 48.9483 15.3989 48.2335 14.6954C47.5243 13.9947 47.1641 13.1088 47.1641 12.0635C47.1641 11.0181 47.5243 10.1323 48.2335 9.43158C48.9341 8.72803 49.8078 8.37199 50.829 8.37199C51.3283 8.37199 51.8133 8.47168 52.2786 8.67392C52.7353 8.87045 53.1069 9.1382 53.382 9.46576L53.4501 9.54836L52.6814 10.306L52.6019 10.212C52.1679 9.69363 51.5864 9.44013 50.8177 9.44013C50.1312 9.44013 49.5327 9.68508 49.0391 10.1693C48.5427 10.6564 48.2902 11.2944 48.2902 12.0663C48.2902 12.8382 48.5427 13.4763 49.0391 13.9633C49.5327 14.4475 50.1312 14.6925 50.8177 14.6925C51.5495 14.6925 52.1651 14.4475 52.6445 13.9633C52.9282 13.6785 53.104 13.2797 53.1664 12.7756H50.7014V11.7103H54.2245L54.2387 11.8071C54.2642 11.9866 54.2898 12.1717 54.2898 12.3426C54.2898 13.3253 53.9947 14.12 53.4104 14.7067C52.7466 15.4018 51.8786 15.7549 50.829 15.7549ZM91.5663 15.604H90.4799L87.1525 10.2576L87.1808 11.2204V15.6011H86.0944V8.52295H87.334L87.3681 8.57707L90.4969 13.613L90.4685 12.6531V8.52295H91.5663V15.604ZM73.3039 15.604H72.2033V9.58824H70.2942V8.52295H75.2101V9.58824H73.3011V15.604H73.3039ZM69.3978 15.604H68.3V8.52295H69.3978V15.604ZM63.2281 15.604H62.1303V9.58824H60.2212V8.52295H65.1371V9.58824H63.2281V15.604ZM59.5262 15.5926H55.3166V8.52295H59.5262V9.58824H56.4172V11.5308H59.2227V12.5847H56.4172V14.5273H59.5262V15.5926ZM79.6892 13.9491C80.18 14.4419 80.7757 14.6897 81.4678 14.6897C82.1798 14.6897 82.7613 14.4475 83.2464 13.9491C83.7286 13.4649 83.9726 12.8297 83.9726 12.0635C83.9726 11.2973 83.7286 10.6592 83.2492 10.1779C82.7585 9.68508 82.1599 9.43728 81.4706 9.43728C80.7586 9.43728 80.1771 9.67939 79.6949 10.1779C79.2127 10.6621 78.9687 11.2973 78.9687 12.0635C78.9687 12.8297 79.2098 13.4677 79.6892 13.9491Z" fill="white"/>
<path fill-rule="evenodd" clip-rule="evenodd" d="M77.7386 25.4905C75.0579 25.4905 72.885 27.5328 72.885 30.3498C72.885 33.1412 75.0721 35.2091 77.7386 35.2091C80.4192 35.2091 82.5921 33.1526 82.5921 30.3498C82.5921 27.5328 80.4192 25.4905 77.7386 25.4905ZM77.7386 33.2836C76.272 33.2836 75.0097 32.0645 75.0097 30.3384C75.0097 28.5867 76.2748 27.3932 77.7386 27.3932C79.2051 27.3932 80.4675 28.5867 80.4675 30.3384C80.4703 32.0759 79.2051 33.2836 77.7386 33.2836ZM67.1492 25.4905C64.4686 25.4905 62.2957 27.5328 62.2957 30.3498C62.2957 33.1412 64.4828 35.2091 67.1492 35.2091C69.8299 35.2091 72.0028 33.1526 72.0028 30.3498C72.0028 27.5328 69.8271 25.4905 67.1492 25.4905ZM67.1492 33.2836C65.6827 33.2836 64.4203 32.0645 64.4203 30.3384C64.4203 28.5867 65.6855 27.3932 67.1492 27.3932C68.6158 27.3932 69.8781 28.5867 69.8781 30.3384C69.8781 32.0759 68.6158 33.2836 67.1492 33.2836ZM54.5487 26.9745V29.031H59.4647C59.3143 30.1846 58.9342 31.0363 58.3527 31.6202C57.6322 32.3437 56.5202 33.1298 54.56 33.1298C51.539 33.1298 49.176 30.6802 49.176 27.6467C49.176 24.6132 51.539 22.1636 54.56 22.1636C56.1911 22.1636 57.3797 22.8102 58.2619 23.6362L59.7143 22.1779C58.4888 20.9986 56.8578 20.0957 54.5714 20.0957C50.427 20.0957 46.9492 23.4853 46.9492 27.6353C46.9492 31.7968 50.4242 35.1749 54.5714 35.1749C56.8095 35.1749 58.4888 34.4401 59.8164 33.0558C61.1695 31.6971 61.5978 29.7801 61.5978 28.2335C61.5978 27.7521 61.561 27.3192 61.4844 26.9517H54.5459C54.5487 26.9489 54.5487 26.9745 54.5487 26.9745ZM106.088 28.5753C105.683 27.4844 104.457 25.4791 101.944 25.4791C99.4534 25.4791 97.3826 27.4473 97.3826 30.3384C97.3826 33.0671 99.4307 35.1977 102.185 35.1977C104.398 35.1977 105.686 33.8391 106.216 33.0415L104.574 31.9363C104.029 32.7481 103.272 33.2808 102.196 33.2808C101.11 33.2808 100.35 32.7852 99.8448 31.8082L106.315 29.1165C106.315 29.1193 106.088 28.5753 106.088 28.5753ZM99.4902 30.1988C99.4392 28.3218 100.943 27.3676 102.018 27.3676C102.866 27.3676 103.572 27.7863 103.813 28.3958L99.4902 30.1988ZM94.2339 34.9072H96.3585V20.6312H94.2339V34.9072ZM90.7448 26.57H90.6682C90.1888 25.9975 89.2782 25.4791 88.1151 25.4791C85.7011 25.4791 83.4772 27.6125 83.4772 30.3527C83.4772 33.0814 85.6898 35.1892 88.1151 35.1892C89.264 35.1892 90.1888 34.6679 90.6682 34.084H90.7448V34.7819C90.7448 36.6361 89.7576 37.6359 88.1662 37.6359C86.8642 37.6359 86.0557 36.696 85.7267 35.9098L83.88 36.6846C84.4104 37.9663 85.826 39.5529 88.1634 39.5529C90.654 39.5529 92.7645 38.0803 92.7645 34.4885V25.7696H90.7561V26.57C90.7589 26.57 90.7448 26.57 90.7448 26.57ZM88.3052 33.2836C86.8386 33.2836 85.6132 32.0531 85.6132 30.3527C85.6132 28.6379 86.8386 27.3961 88.3052 27.3961C89.7576 27.3961 90.8838 28.6522 90.8838 30.3527C90.8979 32.0531 89.7604 33.2836 88.3052 33.2836ZM116.037 20.6312H110.956V34.9072H113.081V29.501H116.039C118.391 29.501 120.703 27.7891 120.703 25.0718C120.703 22.3545 118.4 20.6312 116.037 20.6312ZM116.099 27.5071H113.078V22.608H116.099C117.69 22.608 118.59 23.9268 118.59 25.0576C118.59 26.177 117.679 27.5071 116.099 27.5071ZM129.219 25.4649C127.676 25.4649 126.084 26.1513 125.426 27.6467L127.31 28.4329C127.715 27.6467 128.458 27.379 129.244 27.379C130.345 27.379 131.457 28.0398 131.482 29.219V29.37C131.102 29.1535 130.268 28.8231 129.27 28.8231C127.236 28.8231 125.174 29.9396 125.174 32.0332C125.174 33.9501 126.842 35.1806 128.7 35.1806C130.126 35.1806 130.912 34.5341 131.403 33.7849H131.48V34.8901H133.528V29.4212C133.528 26.8748 131.644 25.4649 129.219 25.4649ZM128.952 33.2836C128.257 33.2836 127.284 32.9418 127.284 32.0645C127.284 30.9594 128.498 30.5407 129.534 30.5407C130.47 30.5407 130.912 30.7429 131.468 31.022C131.315 32.3038 130.237 33.2722 128.952 33.2836ZM140.999 25.7696L138.56 31.962H138.483L135.956 25.7696H133.669L137.462 34.4258L135.301 39.2367H137.513L143.348 25.7696H140.999ZM121.875 34.9072H123.999V20.6312H121.875V34.9072Z" fill="white"/>
<path fill-rule="evenodd" clip-rule="evenodd" d="M12.106 9.24683C11.777 9.60287 11.5869 10.1469 11.5869 10.859V36.1154C11.5869 36.8275 11.777 37.3716 12.1174 37.7134L12.2053 37.7903L26.2979 23.6396V23.3234L12.194 9.16992L12.106 9.24683Z" fill="url(#paint0_linear_211_37078)"/>
<path fill-rule="evenodd" clip-rule="evenodd" d="M30.9875 28.3695L26.2871 23.6498V23.3193L30.9875 18.5996L31.0896 18.6623L36.6496 21.8354C38.2409 22.7354 38.2409 24.2223 36.6496 25.1338L31.0896 28.3068L30.9875 28.3695Z" fill="url(#paint1_linear_211_37078)"/>
<path fill-rule="evenodd" clip-rule="evenodd" d="M31.0885 28.3067L26.286 23.4844L12.1055 37.7233C12.6246 38.2816 13.4954 38.3443 14.4684 37.8002L31.0885 28.3067Z" fill="url(#paint2_linear_211_37078)"/>
<path fill-rule="evenodd" clip-rule="evenodd" d="M31.0885 18.6624L14.4684 9.18302C13.4954 8.62474 12.6217 8.70164 12.1055 9.25992L26.286 23.4847L31.0885 18.6624Z" fill="url(#paint3_linear_211_37078)"/>
<path opacity="0.2" fill-rule="evenodd" clip-rule="evenodd" d="M30.9879 28.2051L14.4811 37.6217C13.5592 38.1544 12.7366 38.1173 12.2061 37.6331L12.1182 37.7214L12.2061 37.7983C12.7366 38.2797 13.5592 38.3196 14.4811 37.7869L31.1013 28.3076L30.9879 28.2051Z" fill="black"/>
<path opacity="0.12" fill-rule="evenodd" clip-rule="evenodd" d="M36.6488 24.9684L30.9727 28.2041L31.0748 28.3067L36.6347 25.1336C37.4318 24.6778 37.8232 24.0797 37.8232 23.4844C37.775 24.0313 37.3694 24.5497 36.6488 24.9684Z" fill="black"/>
<path opacity="0.25" fill-rule="evenodd" clip-rule="evenodd" d="M14.469 9.34929L36.649 22.0017C37.3695 22.409 37.7751 22.9417 37.8375 23.4857C37.8375 22.8904 37.4461 22.2923 36.649 21.8365L14.469 9.18409C12.8776 8.26976 11.5869 9.03312 11.5869 10.8589V11.0241C11.5869 9.19548 12.8776 8.44636 14.469 9.34929Z" fill="white"/>
</g>
<defs>
<linearGradient id="paint0_linear_211_37078" x1="25.0338" y1="10.5865" x2="2.44764" y2="16.5799" gradientUnits="userSpaceOnUse">
<stop stop-color="#00A0FF"/>
<stop offset="0.00657" stop-color="#00A1FF"/>
<stop offset="0.2601" stop-color="#00BEFF"/>
<stop offset="0.5122" stop-color="#00D2FF"/>
<stop offset="0.7604" stop-color="#00DFFF"/>
<stop offset="1" stop-color="#00E3FF"/>
</linearGradient>
<linearGradient id="paint1_linear_211_37078" x1="38.7249" y1="23.4846" x2="11.2006" y2="23.4846" gradientUnits="userSpaceOnUse">
<stop stop-color="#FFE000"/>
<stop offset="0.4087" stop-color="#FFBD00"/>
<stop offset="0.7754" stop-color="#FFA500"/>
<stop offset="1" stop-color="#FF9C00"/>
</linearGradient>
<linearGradient id="paint2_linear_211_37078" x1="28.4771" y1="26.1084" x2="10.2445" y2="56.6695" gradientUnits="userSpaceOnUse">
<stop stop-color="#FF3A44"/>
<stop offset="1" stop-color="#C31162"/>
</linearGradient>
<linearGradient id="paint3_linear_211_37078" x1="8.53465" y1="0.84499" x2="16.669" y2="14.4941" gradientUnits="userSpaceOnUse">
<stop stop-color="#32A071"/>
<stop offset="0.0685" stop-color="#2DA771"/>
<stop offset="0.4762" stop-color="#15CF74"/>
<stop offset="0.8009" stop-color="#06E775"/>
<stop offset="1" stop-color="#00F076"/>
</linearGradient>
<clipPath id="clip0_211_37078">
<rect width="154.196" height="45.6878" fill="white" transform="translate(0.237305 0.640625)"/>
</clipPath>
</defs>
</svg>
