<svg width="56" height="57" viewBox="0 0 56 57" fill="none" xmlns="http://www.w3.org/2000/svg">
<g clip-path="url(#clip0_211_37329)">
<path d="M36.2871 23.6713C35.4823 22.8509 31.574 25.5049 27.5575 29.5993C23.5411 33.6937 20.9377 37.678 21.7425 38.4983" stroke="white" stroke-width="1.5" stroke-linecap="round" stroke-linejoin="round"/>
<path d="M14.3207 21.3871C15.4312 22.4607 17.414 20.6977 18.4815 21.9104C19.5748 23.1522 17.5221 25.0301 18.6154 26.272C19.7086 27.5138 21.7613 25.6357 22.8545 26.8776C22.891 26.919 22.924 26.9611 22.9535 27.0038M31.6826 30.713C28.9097 25.0649 32.478 11.024 42.5659 13.8589C42.6134 13.8722 42.6608 13.8852 42.708 13.8981L31.6826 30.713ZM28.7891 34.4304C28.6004 34.2818 28.41 34.1357 28.2178 33.9919C24.7285 31.3856 15.8664 31.4891 14.8174 38.6753L28.7891 34.4304ZM23.4836 12.2139C23.5508 13.7725 26.1785 13.9084 26.12 15.5367C26.0603 17.2042 23.304 17.1015 23.2442 18.769C23.1844 20.4365 25.9408 20.5391 25.881 22.2066C25.879 22.2623 25.8739 22.3158 25.8661 22.3675L23.4836 12.2139Z" stroke="#11CDFF" stroke-width="1.5" stroke-linecap="round" stroke-linejoin="round"/>
<path d="M15.0201 44.7644L16.7328 45.8239M21.742 38.4985C22.5468 39.3189 26.455 36.6648 30.4715 32.5704C34.4879 28.476 37.0914 24.4919 36.2867 23.6715L36.431 24.063L44.4887 45.8295C44.727 46.4732 44.1095 47.1028 43.478 46.8598L22.1261 38.6457L21.742 38.4985V38.4985ZM31.0102 12.4057L30.1952 11.0088L31.0102 12.4057Z" stroke="white" stroke-width="1.5" stroke-linecap="round" stroke-linejoin="round"/>
<path d="M44.5938 30.7996L43.4664 29.6504M9.99798 37.8352L9.18304 36.4383L9.99798 37.8352Z" stroke="#11CDFF" stroke-width="2.02272" stroke-linecap="round" stroke-linejoin="round"/>
<path d="M13.1031 13.9491L14.2305 12.7998" stroke="white" stroke-width="2.02272" stroke-linecap="round" stroke-linejoin="round"/>
<path d="M27.0087 45.8282L27.584 44.3125" stroke="#11CDFF" stroke-width="2.02272" stroke-linecap="round" stroke-linejoin="round"/>
<path d="M11.8002 28.6403L12.2322 27.076M41.4795 19.8496L40.2711 20.9096L41.4795 19.8496Z" stroke="white" stroke-width="2.02272" stroke-linecap="round" stroke-linejoin="round"/>
</g>
<defs>
<clipPath id="clip0_211_37329">
<rect width="56" height="56" fill="white" transform="translate(0 0.0986328)"/>
</clipPath>
</defs>
</svg>
