<svg width="150" height="150" viewBox="0 0 150 150" fill="none" xmlns="http://www.w3.org/2000/svg">
<circle cx="75" cy="75" r="75" fill="white"/>
<mask id="mask0_211_37429" style="mask-type:alpha" maskUnits="userSpaceOnUse" x="0" y="0" width="150" height="150">
<circle cx="75" cy="75" r="75" fill="#C4C4C4"/>
</mask>
<g mask="url(#mask0_211_37429)">
<path d="M86.3512 116.748C86.3512 116.748 39.8007 114.982 33.9422 125.318C29.8097 132.605 24.6613 151.519 21.9862 162.034C24.8762 163.185 27.8263 164.179 30.8235 165.012C55.9152 171.96 76.8676 174.544 95.8178 172.583C92.6472 151.807 86.3512 116.748 86.3512 116.748Z" fill="#263238" stroke="#263238" stroke-width="0.435288" stroke-linecap="round" stroke-linejoin="round"/>
<path d="M45.7983 63.4348C45.7983 63.4348 34.9055 71.3537 29.8156 79.5278C24.7257 87.702 29.0205 120.873 32.8398 126.022C36.6591 131.172 43.2665 134.643 58.5435 132.612C73.8205 130.581 85.1344 123.401 87.4416 116.624C89.7488 109.846 86.1582 92.8016 86.1582 92.8016C86.1582 92.8016 93.6377 88.7354 93.0783 80.0173C92.5188 71.2992 83.4313 68.6559 78.8239 66.6821C74.2164 64.7084 64.1189 61.6103 64.1189 61.6103C64.1189 61.6103 52.9778 59.7983 45.7983 63.4348Z" fill="#F17C7C"/>
<g opacity="0.35">
<path opacity="0.35" d="M88.1185 72.3726L89.4459 72.3981C89.141 72.102 88.8284 71.8304 88.5081 71.5834C88.3894 71.6785 88.293 71.7984 88.2257 71.9348C88.1584 72.0711 88.1218 72.2206 88.1185 72.3726Z" fill="white"/>
<path opacity="0.35" d="M78.7383 71.1387L78.7181 72.1875L79.7626 72.2076C79.7658 72.0701 79.7419 71.9333 79.6921 71.8051C79.6423 71.6768 79.5677 71.5597 79.4725 71.4604C79.3773 71.3611 79.2635 71.2815 79.1375 71.2263C79.0115 71.1711 78.8758 71.1413 78.7383 71.1387Z" fill="white"/>
<path opacity="0.35" d="M88.9829 81.7839C88.7753 81.7791 88.5709 81.836 88.3956 81.9474C88.2204 82.0587 88.0821 82.2197 87.9984 82.4097C87.9147 82.5997 87.8892 82.8103 87.9253 83.0148C87.9613 83.2194 88.0573 83.4086 88.201 83.5585C88.3446 83.7084 88.5296 83.8124 88.7324 83.8571C88.9352 83.9018 89.1467 83.8854 89.3401 83.8098C89.5335 83.7343 89.7002 83.603 89.8189 83.4326C89.9377 83.2623 90.0032 83.0605 90.0072 82.8529C90.0104 82.7154 89.9865 82.5786 89.9367 82.4503C89.8869 82.3221 89.8123 82.205 89.7171 82.1056C89.6219 82.0063 89.5081 81.9268 89.3821 81.8716C89.2561 81.8164 89.1204 81.7866 88.9829 81.7839Z" fill="white"/>
<path opacity="0.35" d="M83.6194 89.0045C83.8272 89.0094 84.0318 88.9524 84.2071 88.8408C84.3825 88.7292 84.5207 88.568 84.6043 88.3777C84.6879 88.1874 84.7132 87.9766 84.6767 87.772C84.6403 87.5673 84.5439 87.3781 84.3998 87.2284C84.2557 87.0786 84.0703 86.975 83.8673 86.9307C83.6642 86.8865 83.4525 86.9036 83.2591 86.9798C83.0658 87.056 82.8994 87.188 82.7812 87.3589C82.6629 87.5299 82.5981 87.7321 82.595 87.9399C82.5897 88.2169 82.6946 88.4847 82.8867 88.6844C83.0788 88.884 83.3424 88.9992 83.6194 89.0045Z" fill="white"/>
<path opacity="0.35" d="M83.8206 78.5592C84.0284 78.564 84.2329 78.5071 84.4083 78.3955C84.5836 78.2839 84.7219 78.1227 84.8055 77.9324C84.8891 77.7421 84.9143 77.5313 84.8779 77.3267C84.8415 77.122 84.7451 76.9328 84.601 76.783C84.4569 76.6333 84.2715 76.5297 84.0684 76.4854C83.8653 76.4412 83.6537 76.4583 83.4603 76.5345C83.267 76.6107 83.1006 76.7427 82.9823 76.9136C82.8641 77.0846 82.7993 77.2868 82.7962 77.4946C82.7908 77.7716 82.8958 78.0394 83.0879 78.2391C83.28 78.4387 83.5436 78.5539 83.8206 78.5592Z" fill="white"/>
<path opacity="0.35" d="M79.3612 93.1021C79.3645 92.9646 79.3405 92.8278 79.2907 92.6996C79.2409 92.5713 79.1663 92.4542 79.0711 92.3549C78.976 92.2556 78.8621 92.176 78.7361 92.1208C78.6101 92.0656 78.4744 92.0358 78.3369 92.0332L78.3167 93.0821L79.3612 93.1021Z" fill="white"/>
<path opacity="0.35" d="M78.5381 81.584L78.4978 83.6773C78.7641 83.6653 79.0158 83.5524 79.2018 83.3615C79.3878 83.1706 79.4942 82.916 79.4993 82.6495C79.5044 82.383 79.4079 82.1246 79.2294 81.9267C79.0508 81.7288 78.8037 81.6063 78.5381 81.584Z" fill="white"/>
<path opacity="0.35" d="M89.1436 73.4376C89.317 73.4397 89.4882 73.3986 89.6418 73.3179C89.7954 73.2372 89.9264 73.1196 90.0232 72.9756C89.8354 72.7761 89.6389 72.5851 89.4422 72.3985L88.1191 72.373C88.1138 72.6501 88.2187 72.9179 88.4109 73.1175C88.603 73.3171 88.8665 73.4323 89.1436 73.4376Z" fill="white"/>
<path opacity="0.35" d="M78.6977 73.2379C78.9747 73.2432 79.2425 73.1382 79.4421 72.9461C79.6418 72.754 79.7569 72.4905 79.7623 72.2134L78.7178 72.1934L78.6977 73.2379Z" fill="white"/>
<path opacity="0.35" d="M87.3156 114.152L87.9859 114.165C88.0298 113.84 88.0667 113.506 88.0966 113.161C87.8766 113.219 87.6814 113.347 87.5406 113.526C87.3997 113.705 87.3207 113.924 87.3156 114.152Z" fill="white"/>
<path opacity="0.35" d="M87.936 104.547C87.8891 104.046 87.8377 103.548 87.7862 103.055C87.6282 103.237 87.5389 103.468 87.5342 103.708C87.5318 103.869 87.5668 104.029 87.6365 104.175C87.7063 104.32 87.8088 104.448 87.936 104.547Z" fill="white"/>
<path opacity="0.35" d="M83.2583 107.798C83.0507 107.793 82.8463 107.85 82.671 107.961C82.4958 108.072 82.3575 108.233 82.2738 108.423C82.19 108.613 82.1646 108.824 82.2007 109.029C82.2367 109.233 82.3327 109.422 82.4763 109.572C82.62 109.722 82.805 109.826 83.0078 109.871C83.2105 109.916 83.4221 109.899 83.6155 109.823C83.8089 109.748 83.9756 109.617 84.0943 109.446C84.2131 109.276 84.2786 109.074 84.2826 108.867C84.2858 108.729 84.2619 108.592 84.2121 108.464C84.1623 108.336 84.0877 108.219 83.9925 108.119C83.8973 108.02 83.7835 107.94 83.6575 107.885C83.5315 107.83 83.3958 107.8 83.2583 107.798Z" fill="white"/>
<path opacity="0.35" d="M83.4595 97.3523C83.2518 97.3474 83.0475 97.4043 82.8722 97.5157C82.6969 97.6271 82.5587 97.788 82.475 97.978C82.3912 98.1681 82.3658 98.3787 82.4018 98.5832C82.4379 98.7877 82.5338 98.9769 82.6775 99.1269C82.8212 99.2768 83.0061 99.3807 83.2089 99.4255C83.4117 99.4702 83.6232 99.4537 83.8167 99.3782C84.0101 99.3026 84.1767 99.1713 84.2955 99.001C84.4143 98.8306 84.4798 98.6289 84.4838 98.4212C84.487 98.2837 84.463 98.1469 84.4132 98.0187C84.3635 97.8904 84.2888 97.7733 84.1937 97.674C84.0985 97.5747 83.9846 97.4951 83.8586 97.4399C83.7327 97.3847 83.597 97.3549 83.4595 97.3523Z" fill="white"/>
<path opacity="0.35" d="M78.9589 113.991C78.9621 113.853 78.9381 113.716 78.8884 113.588C78.8386 113.46 78.764 113.343 78.6688 113.244C78.5736 113.144 78.4598 113.065 78.3338 113.009C78.2078 112.954 78.0721 112.925 77.9346 112.922L77.9144 113.971L78.9589 113.991Z" fill="white"/>
<path opacity="0.35" d="M78.1357 102.475L78.0955 104.568C78.3617 104.556 78.6134 104.443 78.7994 104.252C78.9854 104.061 79.0918 103.807 79.0969 103.54C79.1021 103.274 79.0056 103.015 78.827 102.817C78.6485 102.619 78.4013 102.497 78.1357 102.475Z" fill="white"/>
<path opacity="0.35" d="M78.3164 93.082L78.2963 94.1265C78.5733 94.1319 78.8411 94.0269 79.0408 93.8348C79.2404 93.6427 79.3556 93.3791 79.3609 93.1021L78.3164 93.082Z" fill="white"/>
<path opacity="0.35" d="M81.9925 119.275C81.9894 119.482 82.0475 119.685 82.1595 119.858C82.2715 120.031 82.4324 120.168 82.6218 120.25C82.8113 120.332 83.0207 120.356 83.2239 120.319C83.427 120.282 83.6146 120.186 83.763 120.042C83.9115 119.899 84.0141 119.715 84.058 119.513C84.1018 119.311 84.0849 119.101 84.0094 118.909C83.9339 118.717 83.8031 118.551 83.6337 118.434C83.4642 118.316 83.2636 118.251 83.0572 118.247C82.9197 118.244 82.783 118.269 82.6549 118.319C82.5269 118.369 82.4101 118.444 82.3112 118.54C82.2123 118.635 82.1332 118.75 82.0785 118.876C82.0238 119.002 81.9946 119.138 81.9925 119.275Z" fill="white"/>
<path opacity="0.35" d="M77.7344 123.363L77.6941 125.457C77.9604 125.445 78.2121 125.332 78.3981 125.141C78.5841 124.95 78.6905 124.695 78.6956 124.429C78.7007 124.162 78.6042 123.904 78.4257 123.706C78.2471 123.508 78 123.386 77.7344 123.363Z" fill="white"/>
<path opacity="0.35" d="M87.8376 115.074C87.8955 114.779 87.9448 114.48 87.9857 114.167L87.3154 114.154C87.3132 114.34 87.3603 114.523 87.4521 114.685C87.5438 114.847 87.6769 114.981 87.8376 115.074Z" fill="white"/>
<path opacity="0.35" d="M77.915 113.973L77.895 115.017C78.172 115.022 78.4398 114.918 78.6394 114.725C78.8391 114.533 78.9542 114.27 78.9595 113.993L77.915 113.973Z" fill="white"/>
<path opacity="0.35" d="M68.2935 70.9381C68.156 70.9354 68.0193 70.9599 67.8913 71.0103C67.7633 71.0606 67.6464 71.1357 67.5475 71.2313C67.4486 71.3269 67.3695 71.4411 67.3148 71.5673C67.2601 71.6935 67.2309 71.8293 67.2289 71.9668L69.3179 72.007C69.3211 71.8695 69.2971 71.7327 69.2473 71.6044C69.1975 71.4762 69.1229 71.3591 69.0277 71.2598C68.9326 71.1604 68.8187 71.0809 68.6927 71.0257C68.5667 70.9705 68.4311 70.9407 68.2935 70.9381Z" fill="white"/>
<path opacity="0.35" d="M78.7388 71.1392C78.6687 71.1384 78.5986 71.1444 78.5295 71.157C78.3285 71.1947 78.1429 71.2903 77.9955 71.4321C77.8481 71.5739 77.7454 71.7557 77.7 71.9552C77.6848 72.0251 77.6761 72.0964 77.6742 72.168L78.7187 72.1881L78.7388 71.1392Z" fill="white"/>
<path opacity="0.35" d="M74.6412 66.8894C74.6452 66.6828 74.5878 66.4797 74.4763 66.3057C74.3648 66.1317 74.2043 65.9947 74.0149 65.912C73.8256 65.8292 73.616 65.8045 73.4126 65.8409C73.2092 65.8773 73.0212 65.9732 72.8723 66.1165C72.7234 66.2598 72.6204 66.444 72.5762 66.6458C72.532 66.8476 72.5486 67.0581 72.624 67.2504C72.6994 67.4428 72.8301 67.6085 72.9997 67.7266C73.1692 67.8447 73.37 67.9098 73.5766 67.9138C73.8536 67.9191 74.1214 67.8142 74.3211 67.622C74.5207 67.4299 74.6359 67.1664 74.6412 66.8894Z" fill="white"/>
<path opacity="0.35" d="M64.1959 66.6882C64.1998 66.4816 64.1425 66.2785 64.031 66.1045C63.9195 65.9305 63.759 65.7935 63.5696 65.7108C63.3803 65.6281 63.1707 65.6033 62.9673 65.6398C62.7639 65.6762 62.5759 65.7721 62.427 65.9153C62.2781 66.0586 62.1751 66.2428 62.1309 66.4446C62.0867 66.6465 62.1033 66.8569 62.1787 67.0493C62.2541 67.2416 62.3848 67.4073 62.5544 67.5254C62.7239 67.6435 62.9247 67.7086 63.1313 67.7126C63.4083 67.7179 63.6761 67.613 63.8757 67.4209C64.0754 67.2288 64.1905 66.9652 64.1959 66.6882Z" fill="white"/>
<path opacity="0.35" d="M58.0571 70.768C57.9886 70.7525 57.9188 70.7439 57.8486 70.7422L57.8285 71.791L58.873 71.8111C58.8776 71.57 58.7991 71.3345 58.6504 71.1445C58.5018 70.9545 58.2923 70.8215 58.0571 70.768Z" fill="white"/>
<path opacity="0.35" d="M58.218 62.3737C58.4547 62.3301 58.6691 62.2061 58.825 62.0227C58.9808 61.8393 59.0685 61.6077 59.0733 61.367C59.079 61.3048 59.0802 61.2423 59.0769 61.1799C58.7461 61.1735 58.4023 61.1669 58.0498 61.1602L58.0261 62.3918C58.0905 62.3916 58.1547 62.3855 58.218 62.3737Z" fill="white"/>
<path opacity="0.35" d="M68.7494 92.3099C68.6277 92.1217 68.4488 91.9776 68.239 91.8989C68.0292 91.8203 67.7997 91.8111 67.5843 91.8728C67.3689 91.9346 67.179 92.0639 67.0428 92.2418C66.9065 92.4197 66.831 92.6366 66.8275 92.8607L68.9165 92.9008C68.9207 92.6916 68.8625 92.4859 68.7494 92.3099Z" fill="white"/>
<path opacity="0.35" d="M78.3365 92.0299C78.2663 92.0291 78.1962 92.035 78.1272 92.0476C77.9259 92.0848 77.74 92.1802 77.5926 92.3221C77.4451 92.464 77.3426 92.6461 77.2977 92.8458C77.2824 92.9158 77.2738 92.987 77.2718 93.0586L78.3163 93.0787L78.3365 92.0299Z" fill="white"/>
<path opacity="0.35" d="M68.0932 81.3835C67.8856 81.3787 67.6813 81.4356 67.506 81.547C67.3307 81.6584 67.1925 81.8193 67.1087 82.0093C67.025 82.1993 66.9996 82.4099 67.0356 82.6145C67.0717 82.819 67.1676 83.0082 67.3113 83.1581C67.455 83.3081 67.6399 83.412 67.8427 83.4567C68.0455 83.5014 68.257 83.485 68.4504 83.4094C68.6439 83.3339 68.8105 83.2026 68.9293 83.0322C69.048 82.8619 69.1136 82.6601 69.1176 82.4525C69.1208 82.315 69.0968 82.1782 69.047 82.0499C68.9972 81.9217 68.9226 81.8046 68.8274 81.7052C68.7323 81.6059 68.6184 81.5264 68.4924 81.4712C68.3664 81.416 68.2308 81.3862 68.0932 81.3835Z" fill="white"/>
<path opacity="0.35" d="M78.3286 81.6047C78.1276 81.6424 77.942 81.738 77.7946 81.8799C77.6473 82.0217 77.5446 82.2035 77.4992 82.4029C77.4656 82.5457 77.4627 82.6941 77.4908 82.8381C77.528 83.0393 77.6234 83.2252 77.7653 83.3727C77.9072 83.5202 78.0893 83.6227 78.289 83.6676C78.3583 83.6756 78.4283 83.6769 78.4979 83.6716L78.538 81.5826C78.4677 81.5832 78.3976 81.5906 78.3286 81.6047Z" fill="white"/>
<path opacity="0.35" d="M73.1741 88.8033C73.3819 88.8082 73.5864 88.7512 73.7618 88.6396C73.9372 88.528 74.0754 88.3669 74.159 88.1766C74.2426 87.9863 74.2678 87.7754 74.2314 87.5708C74.195 87.3662 74.0986 87.177 73.9545 87.0272C73.8104 86.8774 73.625 86.7738 73.4219 86.7296C73.2189 86.6853 73.0072 86.7024 72.8138 86.7786C72.6205 86.8549 72.4541 86.9868 72.3359 87.1578C72.2176 87.3287 72.1528 87.5309 72.1497 87.7387C72.1444 88.0158 72.2493 88.2836 72.4414 88.4832C72.6335 88.6828 72.8971 88.798 73.1741 88.8033Z" fill="white"/>
<path opacity="0.35" d="M62.7298 88.6022C62.9375 88.607 63.1421 88.55 63.3175 88.4384C63.4928 88.3268 63.6311 88.1657 63.7147 87.9754C63.7983 87.7851 63.8235 87.5743 63.7871 87.3696C63.7507 87.165 63.6543 86.9758 63.5102 86.826C63.3661 86.6762 63.1807 86.5727 62.9776 86.5284C62.7745 86.4841 62.5629 86.5012 62.3695 86.5775C62.1761 86.6537 62.0098 86.7857 61.8915 86.9566C61.7733 87.1275 61.7085 87.3297 61.7053 87.5376C61.7 87.8146 61.805 88.0824 61.9971 88.282C62.1892 88.4817 62.4527 88.5968 62.7298 88.6022Z" fill="white"/>
<path opacity="0.35" d="M73.3753 78.36C73.5831 78.3648 73.7876 78.3078 73.963 78.1963C74.1383 78.0847 74.2766 77.9235 74.3602 77.7332C74.4438 77.5429 74.469 77.3321 74.4326 77.1274C74.3962 76.9228 74.2998 76.7336 74.1557 76.5838C74.0116 76.434 73.8262 76.3305 73.6231 76.2862C73.42 76.242 73.2084 76.259 73.015 76.3353C72.8216 76.4115 72.6553 76.5435 72.537 76.7144C72.4188 76.8853 72.354 77.0876 72.3508 77.2954C72.3455 77.5724 72.4505 77.8402 72.6426 78.0398C72.8347 78.2395 73.0982 78.3546 73.3753 78.36Z" fill="white"/>
<path opacity="0.35" d="M62.9299 78.1588C63.1377 78.1637 63.3423 78.1067 63.5177 77.9951C63.693 77.8835 63.8313 77.7223 63.9149 77.532C63.9985 77.3417 64.0237 77.1309 63.9873 76.9263C63.9509 76.7216 63.8545 76.5324 63.7104 76.3826C63.5663 76.2329 63.3809 76.1293 63.1778 76.085C62.9747 76.0408 62.7631 76.0579 62.5697 76.1341C62.3763 76.2103 62.21 76.3423 62.0917 76.5132C61.9735 76.6842 61.9087 76.8864 61.9055 77.0942C61.9002 77.3712 62.0051 77.639 62.1973 77.8387C62.3894 78.0383 62.6529 78.1535 62.9299 78.1588Z" fill="white"/>
<path opacity="0.35" d="M58.4716 92.6998C58.4769 92.4224 58.3721 92.1541 58.1802 91.9538C57.9882 91.7535 57.7247 91.6373 57.4473 91.6309L57.4271 92.6797L58.4716 92.6998Z" fill="white"/>
<path opacity="0.35" d="M57.8559 81.2113C57.7875 81.1959 57.7176 81.1872 57.6475 81.1855L57.6072 83.2789C57.6765 83.2871 57.7465 83.2884 57.8161 83.2829C58.0545 83.2408 58.271 83.1172 58.4284 82.9332C58.5857 82.7492 58.6743 82.5163 58.679 82.2742C58.6837 82.0321 58.6041 81.796 58.4539 81.606C58.3037 81.4161 58.0922 81.2843 57.8555 81.2331L57.8559 81.2113Z" fill="white"/>
<path opacity="0.35" d="M68.2529 73.0353C68.5299 73.0406 68.7977 72.9357 68.9974 72.7436C69.197 72.5514 69.3122 72.2879 69.3175 72.0109L67.2285 71.9707C67.2232 72.2477 67.3281 72.5155 67.5202 72.7152C67.7124 72.9148 67.9759 73.03 68.2529 73.0353Z" fill="white"/>
<path opacity="0.35" d="M78.7183 72.192L77.6738 72.1719C77.6733 72.242 77.6792 72.3121 77.6916 72.3812C77.7287 72.5824 77.8242 72.7683 77.9661 72.9158C78.108 73.0633 78.2901 73.1658 78.4898 73.2107C78.5591 73.2187 78.6291 73.22 78.6987 73.2147L78.7183 72.192Z" fill="white"/>
<path opacity="0.35" d="M57.8281 71.791L57.808 72.8355C57.8774 72.8437 57.9473 72.8451 58.0169 72.8395C58.2536 72.7959 58.468 72.672 58.6239 72.4885C58.7797 72.3051 58.8674 72.0735 58.8722 71.8329L57.8281 71.791Z" fill="white"/>
<path opacity="0.35" d="M67.4898 112.719C67.3523 112.717 67.2156 112.741 67.0876 112.792C66.9595 112.842 66.8427 112.917 66.7438 113.013C66.6449 113.108 66.5658 113.222 66.5111 113.349C66.4564 113.475 66.4272 113.611 66.4252 113.748L68.5141 113.788C68.5174 113.651 68.4934 113.514 68.4436 113.386C68.3938 113.257 68.3192 113.14 68.224 113.041C68.1288 112.942 68.015 112.862 67.889 112.807C67.763 112.752 67.6273 112.722 67.4898 112.719Z" fill="white"/>
<path opacity="0.35" d="M77.9351 112.919C77.8649 112.918 77.7948 112.924 77.7258 112.936C77.525 112.974 77.3397 113.07 77.1924 113.212C77.0451 113.354 76.9422 113.535 76.8963 113.734C76.8811 113.804 76.8724 113.876 76.8705 113.947L77.915 113.967L77.9351 112.919Z" fill="white"/>
<path opacity="0.35" d="M67.6909 102.272C67.4833 102.267 67.2789 102.324 67.1036 102.436C66.9284 102.547 66.7901 102.708 66.7064 102.898C66.6227 103.088 66.5972 103.299 66.6333 103.503C66.6693 103.708 66.7653 103.897 66.909 104.047C67.0526 104.197 67.2376 104.301 67.4404 104.345C67.6432 104.39 67.8547 104.374 68.0481 104.298C68.2415 104.223 68.4082 104.091 68.5269 103.921C68.6457 103.751 68.7112 103.549 68.7152 103.341C68.7184 103.204 68.6945 103.067 68.6447 102.939C68.5949 102.81 68.5203 102.693 68.4251 102.594C68.3299 102.495 68.2161 102.415 68.0901 102.36C67.9641 102.305 67.8284 102.275 67.6909 102.272Z" fill="white"/>
<path opacity="0.35" d="M77.9263 102.495C77.7255 102.534 77.5402 102.629 77.3929 102.771C77.2456 102.913 77.1427 103.094 77.0968 103.294C77.0632 103.436 77.0604 103.585 77.0884 103.729C77.1256 103.93 77.2211 104.116 77.363 104.263C77.5049 104.411 77.687 104.513 77.8866 104.558C77.9551 104.573 78.0249 104.582 78.0951 104.584L78.1357 102.473C78.0653 102.474 77.9952 102.481 77.9263 102.495Z" fill="white"/>
<path opacity="0.35" d="M72.813 107.596C72.6054 107.592 72.401 107.648 72.2257 107.76C72.0505 107.871 71.9122 108.032 71.8285 108.222C71.7447 108.412 71.7193 108.623 71.7553 108.827C71.7914 109.032 71.8873 109.221 72.031 109.371C72.1747 109.521 72.3597 109.625 72.5624 109.67C72.7652 109.714 72.9767 109.698 73.1702 109.622C73.3636 109.547 73.5303 109.415 73.649 109.245C73.7678 109.075 73.8333 108.873 73.8373 108.665C73.8405 108.528 73.8165 108.391 73.7668 108.263C73.717 108.135 73.6423 108.017 73.5472 107.918C73.452 107.819 73.3381 107.739 73.2121 107.684C73.0862 107.629 72.9505 107.599 72.813 107.596Z" fill="white"/>
<path opacity="0.35" d="M62.3686 107.395C62.161 107.39 61.9566 107.447 61.7814 107.559C61.6061 107.67 61.4679 107.831 61.3841 108.021C61.3004 108.211 61.2749 108.422 61.311 108.626C61.3471 108.831 61.443 109.02 61.5867 109.17C61.7304 109.32 61.9153 109.424 62.1181 109.468C62.3209 109.513 62.5324 109.497 62.7258 109.421C62.9193 109.346 63.0859 109.214 63.2047 109.044C63.3234 108.874 63.389 108.672 63.393 108.464C63.3962 108.327 63.3722 108.19 63.3224 108.062C63.2726 107.933 63.198 107.816 63.1028 107.717C63.0077 107.618 62.8938 107.538 62.7678 107.483C62.6418 107.428 62.5062 107.398 62.3686 107.395Z" fill="white"/>
<path opacity="0.35" d="M73.0141 97.1511C72.8065 97.1463 72.6022 97.2031 72.4269 97.3145C72.2516 97.4259 72.1134 97.5868 72.0296 97.7769C71.9459 97.9669 71.9205 98.1775 71.9565 98.382C71.9926 98.5865 72.0885 98.7758 72.2322 98.9257C72.3759 99.0756 72.5608 99.1796 72.7636 99.2243C72.9664 99.269 73.1779 99.2526 73.3713 99.177C73.5648 99.1014 73.7314 98.9702 73.8502 98.7998C73.9689 98.6295 74.0345 98.4277 74.0385 98.2201C74.0417 98.0825 74.0177 97.9457 73.9679 97.8175C73.9181 97.6893 73.8435 97.5721 73.7483 97.4728C73.6532 97.3735 73.5393 97.294 73.4133 97.2388C73.2873 97.1835 73.1517 97.1538 73.0141 97.1511Z" fill="white"/>
<path opacity="0.35" d="M62.5688 96.9499C62.3612 96.9451 62.1568 97.002 61.9816 97.1134C61.8063 97.2248 61.6681 97.3857 61.5843 97.5757C61.5006 97.7657 61.4751 97.9763 61.5112 98.1809C61.5473 98.3854 61.6432 98.5746 61.7869 98.7245C61.9306 98.8745 62.1155 98.9784 62.3183 99.0231C62.5211 99.0679 62.7326 99.0514 62.926 98.9758C63.1195 98.9003 63.2861 98.769 63.4049 98.5986C63.5236 98.4283 63.5892 98.2265 63.5932 98.0189C63.5964 97.8814 63.5724 97.7446 63.5226 97.6163C63.4728 97.4881 63.3982 97.371 63.303 97.2716C63.2079 97.1723 63.094 97.0928 62.968 97.0376C62.842 96.9824 62.7064 96.9526 62.5688 96.9499Z" fill="white"/>
<path opacity="0.35" d="M58.0693 113.59C58.0739 113.349 57.9953 113.114 57.8467 112.924C57.6981 112.734 57.4886 112.601 57.2534 112.547C57.1849 112.532 57.1151 112.523 57.0449 112.521L57.0248 113.57L58.0693 113.59Z" fill="white"/>
<path opacity="0.35" d="M57.4546 102.102C57.3861 102.086 57.3163 102.078 57.2461 102.076L57.2058 104.17C57.276 104.171 57.3461 104.165 57.4152 104.152C57.6536 104.11 57.87 103.986 58.0274 103.802C58.1848 103.618 58.2734 103.385 58.2781 103.143C58.2827 102.901 58.2031 102.665 58.0529 102.475C57.9027 102.285 57.6912 102.153 57.4546 102.102Z" fill="white"/>
<path opacity="0.35" d="M66.8271 92.8613C66.8218 93.1383 66.9268 93.4061 67.1189 93.6058C67.311 93.8054 67.5745 93.9206 67.8516 93.9259C68.1286 93.9312 68.3964 93.8263 68.596 93.6342C68.7957 93.4421 68.9108 93.1785 68.9161 92.9015L66.8271 92.8613Z" fill="white"/>
<path opacity="0.35" d="M77.2725 93.0625C77.2719 93.1327 77.2778 93.2027 77.2902 93.2718C77.3274 93.4731 77.4228 93.659 77.5647 93.8064C77.7066 93.9539 77.8887 94.0564 78.0884 94.1013C78.1569 94.1165 78.2267 94.1252 78.2969 94.1271L78.317 93.0826L77.2725 93.0625Z" fill="white"/>
<path opacity="0.35" d="M57.4268 92.6816L57.4067 93.7261C57.4769 93.7272 57.547 93.7212 57.616 93.7084C57.8527 93.6648 58.0671 93.5408 58.2229 93.3574C58.3788 93.174 58.4665 92.9424 58.4713 92.7017L57.4268 92.6816Z" fill="white"/>
<path opacity="0.35" d="M67.2895 123.163C67.0819 123.158 66.8775 123.215 66.7023 123.326C66.527 123.438 66.3888 123.599 66.305 123.789C66.2213 123.979 66.1958 124.189 66.2319 124.394C66.268 124.598 66.3639 124.787 66.5076 124.937C66.6513 125.087 66.8362 125.191 67.039 125.236C67.2418 125.281 67.4533 125.264 67.6467 125.189C67.8402 125.113 68.0068 124.982 68.1256 124.812C68.2443 124.641 68.3099 124.439 68.3139 124.232C68.3171 124.094 68.2931 123.957 68.2433 123.829C68.1935 123.701 68.1189 123.584 68.0237 123.485C67.9286 123.385 67.8147 123.306 67.6887 123.25C67.5627 123.195 67.4271 123.165 67.2895 123.163Z" fill="white"/>
<path opacity="0.35" d="M77.5249 123.386C77.3241 123.424 77.1388 123.52 76.9915 123.662C76.8442 123.803 76.7414 123.985 76.6954 124.184C76.6619 124.327 76.659 124.475 76.6871 124.619C76.7242 124.821 76.8197 125.006 76.9616 125.154C77.1035 125.301 77.2856 125.404 77.4853 125.449C77.5538 125.464 77.6236 125.473 77.6937 125.475L77.7343 123.364C77.664 123.364 77.5939 123.372 77.5249 123.386Z" fill="white"/>
<path opacity="0.35" d="M71.3485 129.441C71.9319 129.217 72.5066 128.989 73.0641 128.751C72.882 128.588 72.6474 128.496 72.403 128.491C72.1398 128.487 71.885 128.583 71.6895 128.759C71.494 128.936 71.3722 129.179 71.3485 129.441Z" fill="white"/>
<path opacity="0.35" d="M61.9663 128.286C61.7587 128.281 61.5543 128.338 61.379 128.449C61.2038 128.561 61.0655 128.722 60.9818 128.912C60.898 129.102 60.8726 129.312 60.9087 129.517C60.9447 129.721 61.0407 129.911 61.1843 130.06C61.328 130.21 61.513 130.314 61.7158 130.359C61.9186 130.404 62.1301 130.387 62.3235 130.312C62.5169 130.236 62.6836 130.105 62.8023 129.935C62.9211 129.764 62.9866 129.562 62.9906 129.355C62.9938 129.217 62.9699 129.081 62.9201 128.952C62.8703 128.824 62.7957 128.707 62.7005 128.608C62.6053 128.508 62.4915 128.429 62.3655 128.374C62.2395 128.318 62.1038 128.289 61.9663 128.286Z" fill="white"/>
<path opacity="0.35" d="M71.5472 119.074C71.5441 119.281 71.6022 119.483 71.7142 119.657C71.8262 119.83 71.9871 119.967 72.1765 120.049C72.3659 120.131 72.5754 120.155 72.7785 120.118C72.9816 120.081 73.1693 119.985 73.3177 119.841C73.4662 119.698 73.5688 119.514 73.6127 119.312C73.6565 119.11 73.6396 118.9 73.5641 118.708C73.4886 118.516 73.3578 118.35 73.1884 118.232C73.0189 118.114 72.8183 118.049 72.6119 118.045C72.4744 118.043 72.3377 118.067 72.2096 118.118C72.0816 118.168 71.9648 118.243 71.8659 118.339C71.7669 118.434 71.6879 118.548 71.6332 118.675C71.5785 118.801 71.5493 118.937 71.5472 119.074Z" fill="white"/>
<path opacity="0.35" d="M62.1675 117.839C61.9598 117.834 61.7555 117.891 61.5802 118.002C61.4049 118.113 61.2667 118.274 61.183 118.464C61.0992 118.654 61.0738 118.865 61.1098 119.07C61.1459 119.274 61.2418 119.463 61.3855 119.613C61.5292 119.763 61.7141 119.867 61.9169 119.912C62.1197 119.957 62.3312 119.94 62.5247 119.865C62.7181 119.789 62.8847 119.658 63.0035 119.487C63.1223 119.317 63.1878 119.115 63.1918 118.908C63.195 118.77 63.171 118.633 63.1212 118.505C63.0715 118.377 62.9968 118.26 62.9017 118.16C62.8065 118.061 62.6926 117.981 62.5666 117.926C62.4406 117.871 62.305 117.841 62.1675 117.839Z" fill="white"/>
<path opacity="0.35" d="M57.0532 122.993C56.9847 122.977 56.9149 122.968 56.8447 122.967L56.8045 125.06C56.8747 125.061 56.9448 125.055 57.0138 125.042C57.2522 125 57.4686 124.877 57.626 124.693C57.7834 124.509 57.872 124.276 57.8767 124.034C57.8813 123.792 57.8018 123.555 57.6516 123.366C57.5014 123.176 57.2899 123.044 57.0532 122.993Z" fill="white"/>
<path opacity="0.35" d="M66.4258 113.752C66.4205 114.029 66.5254 114.297 66.7175 114.496C66.9096 114.696 67.1732 114.811 67.4502 114.817C67.7272 114.822 67.995 114.717 68.1947 114.525C68.3943 114.333 68.5095 114.069 68.5148 113.792L66.4258 113.752Z" fill="white"/>
<path opacity="0.35" d="M76.8701 113.953C76.8696 114.023 76.8755 114.093 76.8879 114.162C76.925 114.364 77.0205 114.55 77.1624 114.697C77.3043 114.845 77.4864 114.947 77.686 114.992C77.7546 115.007 77.8244 115.016 77.8945 115.018L77.9146 113.973L76.8701 113.953Z" fill="white"/>
<path opacity="0.35" d="M57.0254 113.57L57.0053 114.615C57.0755 114.616 57.1456 114.61 57.2146 114.597C57.4513 114.553 57.6657 114.429 57.8216 114.246C57.9774 114.063 58.0651 113.831 58.0699 113.59L57.0254 113.57Z" fill="white"/>
<path opacity="0.35" d="M47.4039 70.5357C47.2663 70.5331 47.1297 70.5576 47.0016 70.6079C46.8736 70.6582 46.7568 70.7334 46.6579 70.8289C46.5589 70.9245 46.4799 71.0387 46.4252 71.1649C46.3705 71.2912 46.3413 71.4269 46.3392 71.5645L48.4282 71.6046C48.4335 71.3272 48.3288 71.059 48.1368 70.8587C47.9448 70.6583 47.6813 70.5422 47.4039 70.5357Z" fill="white"/>
<path opacity="0.35" d="M57.8482 70.7369C57.778 70.7359 57.7079 70.7418 57.6389 70.7546C57.4379 70.7923 57.2523 70.888 57.1049 71.0298C56.9575 71.1716 56.8548 71.3534 56.8094 71.5528C56.7941 71.6228 56.7855 71.6941 56.7835 71.7656L57.828 71.7857L57.8482 70.7369Z" fill="white"/>
<path opacity="0.35" d="M57.0025 61.5344C57.0396 61.7357 57.1351 61.9216 57.277 62.069C57.4189 62.2165 57.601 62.319 57.8006 62.3639C57.87 62.3721 57.9399 62.3735 58.0095 62.3679L58.0327 61.1624C57.6976 61.156 57.3538 61.1493 57.0056 61.1426C57.0001 61.1976 56.999 61.2529 57.0025 61.308C56.9949 61.3833 56.9949 61.4591 57.0025 61.5344Z" fill="white"/>
<path opacity="0.35" d="M53.7515 66.487C53.7555 66.2804 53.6981 66.0773 53.5867 65.9033C53.4752 65.7294 53.3146 65.5923 53.1253 65.5096C52.936 65.4269 52.7263 65.4022 52.523 65.4386C52.3196 65.475 52.1315 65.5709 51.9827 65.7142C51.8338 65.8574 51.7307 66.0416 51.6865 66.2435C51.6423 66.4453 51.659 66.6557 51.7344 66.8481C51.8097 67.0405 51.9405 67.2062 52.11 67.3242C52.2796 67.4423 52.4804 67.5075 52.6869 67.5114C52.9636 67.5156 53.2308 67.4103 53.4302 67.2184C53.6296 67.0265 53.7451 66.7637 53.7515 66.487Z" fill="white"/>
<path opacity="0.35" d="M42.2414 67.311C42.4423 67.3133 42.6397 67.2576 42.8098 67.1505C42.9799 67.0434 43.1155 66.8896 43.2003 66.7074C43.2852 66.5252 43.3157 66.3224 43.2881 66.1233C43.2606 65.9242 43.1763 65.7373 43.0452 65.585C42.5557 65.9848 42.0218 66.4288 41.4435 66.9169C41.5389 67.0377 41.66 67.1358 41.798 67.204C41.936 67.2721 42.0875 67.3087 42.2414 67.311Z" fill="white"/>
<path opacity="0.35" d="M36.9461 71.0023L36.9386 71.3896L37.9831 71.4097C37.9873 71.2251 37.9418 71.0428 37.8515 70.8818C37.7612 70.7208 37.6293 70.5869 37.4696 70.4943L36.9461 71.0023Z" fill="white"/>
<path opacity="0.35" d="M47.8597 91.9075C47.7381 91.7194 47.5591 91.5753 47.3493 91.4966C47.1395 91.4179 46.91 91.4087 46.6946 91.4705C46.4792 91.5322 46.2894 91.6616 46.1531 91.8394C46.0168 92.0173 45.9414 92.2343 45.9379 92.4583L48.0269 92.4985C48.0311 92.2893 47.9729 92.0835 47.8597 91.9075Z" fill="white"/>
<path opacity="0.35" d="M57.4468 91.6275C57.2062 91.623 56.9714 91.7018 56.7821 91.8505C56.5928 91.9991 56.4607 92.2086 56.408 92.4434C56.3928 92.5134 56.3841 92.5847 56.3822 92.6563L57.4267 92.6764L57.4468 91.6275Z" fill="white"/>
<path opacity="0.35" d="M47.2026 80.9812C46.995 80.9763 46.7906 81.0332 46.6154 81.1446C46.4401 81.256 46.3019 81.4169 46.2181 81.607C46.1344 81.797 46.1089 82.0076 46.145 82.2121C46.181 82.4166 46.277 82.6058 46.4207 82.7558C46.5643 82.9057 46.7493 83.0096 46.9521 83.0544C47.1549 83.0991 47.3664 83.0827 47.5598 83.0071C47.7532 82.9315 47.9199 82.8002 48.0387 82.6299C48.1574 82.4595 48.223 82.2578 48.2269 82.0501C48.2302 81.9126 48.2062 81.7758 48.1564 81.6476C48.1066 81.5194 48.032 81.4022 47.9368 81.3029C47.8416 81.2036 47.7278 81.124 47.6018 81.0688C47.4758 81.0136 47.3401 80.9838 47.2026 80.9812Z" fill="white"/>
<path opacity="0.35" d="M57.438 81.2043C57.237 81.242 57.0514 81.3377 56.904 81.4795C56.7566 81.6213 56.6539 81.8031 56.6085 82.0025C56.5749 82.1453 56.5721 82.2937 56.6002 82.4377C56.6373 82.639 56.7328 82.8248 56.8747 82.9723C57.0166 83.1198 57.1987 83.2223 57.3983 83.2672C57.4677 83.2754 57.5376 83.2767 57.6072 83.2712L57.6474 81.1822C57.5771 81.1826 57.5069 81.19 57.438 81.2043Z" fill="white"/>
<path opacity="0.35" d="M52.2844 88.401C52.4922 88.4058 52.6968 88.3489 52.8721 88.2373C53.0475 88.1257 53.1858 87.9645 53.2694 87.7742C53.353 87.5839 53.3782 87.3731 53.3418 87.1684C53.3054 86.9638 53.209 86.7746 53.0649 86.6248C52.9207 86.4751 52.7354 86.3715 52.5323 86.3272C52.3292 86.283 52.1176 86.3001 51.9242 86.3763C51.7308 86.4525 51.5645 86.5845 51.4462 86.7554C51.328 86.9264 51.2632 87.1286 51.26 87.3364C51.2559 87.6131 51.3612 87.8802 51.553 88.0796C51.7449 88.279 52.0078 88.3945 52.2844 88.401Z" fill="white"/>
<path opacity="0.35" d="M41.8401 88.1998C42.0479 88.2047 42.2525 88.1477 42.4278 88.0361C42.6032 87.9245 42.7414 87.7633 42.825 87.573C42.9087 87.3828 42.9339 87.1719 42.8974 86.9673C42.861 86.7626 42.7646 86.5734 42.6205 86.4237C42.4764 86.2739 42.291 86.1703 42.088 86.1261C41.8849 86.0818 41.6732 86.0989 41.4799 86.1751C41.2865 86.2514 41.1201 86.3833 41.0019 86.5543C40.8836 86.7252 40.8188 86.9274 40.8157 87.1352C40.8115 87.4119 40.9168 87.679 41.1087 87.8784C41.3006 88.0778 41.5635 88.1933 41.8401 88.1998Z" fill="white"/>
<path opacity="0.35" d="M52.4856 77.9576C52.6934 77.9625 52.898 77.9055 53.0733 77.7939C53.2487 77.6823 53.3869 77.5212 53.4705 77.3309C53.5542 77.1406 53.5794 76.9297 53.5429 76.7251C53.5065 76.5205 53.4102 76.3312 53.266 76.1815C53.1219 76.0317 52.9366 75.9281 52.7335 75.8839C52.5304 75.8396 52.3187 75.8567 52.1254 75.9329C51.932 76.0092 51.7656 76.1411 51.6474 76.3121C51.5291 76.483 51.4643 76.6852 51.4612 76.893C51.457 77.1697 51.5623 77.4369 51.7542 77.6363C51.9461 77.8357 52.209 77.9512 52.4856 77.9576Z" fill="white"/>
<path opacity="0.35" d="M41.016 76.6914C41.0129 76.8978 41.071 77.1005 41.183 77.274C41.295 77.4474 41.4558 77.5837 41.6453 77.6658C41.8347 77.7478 42.0442 77.7719 42.2473 77.735C42.4504 77.6981 42.638 77.6019 42.7865 77.4584C42.9349 77.315 43.0376 77.1308 43.0814 76.929C43.1252 76.7273 43.1083 76.5171 43.0328 76.325C42.9573 76.1329 42.8266 75.9674 42.6571 75.8495C42.4876 75.7317 42.287 75.6666 42.0806 75.6627C41.9431 75.66 41.8064 75.6846 41.6784 75.7349C41.5504 75.7852 41.4335 75.8603 41.3346 75.9559C41.2357 76.0515 41.1566 76.1657 41.1019 76.2919C41.0473 76.4181 41.018 76.5539 41.016 76.6914Z" fill="white"/>
<path opacity="0.35" d="M37.581 92.2994C37.5852 92.0902 37.527 91.8845 37.4138 91.7084C37.3014 91.5396 37.1442 91.4055 36.9598 91.3209C36.8329 91.264 36.6957 91.2333 36.5566 91.2305L36.5365 92.2793L37.581 92.2994Z" fill="white"/>
<path opacity="0.35" d="M37.161 80.8756C37.034 80.8187 36.8969 80.7879 36.7578 80.7852L36.7176 82.8785C36.9942 82.8827 37.2614 82.7774 37.4608 82.5855C37.6602 82.3936 37.7757 82.1307 37.7821 81.8541C37.7868 81.6479 37.7302 81.4449 37.6197 81.2708C37.5091 81.0967 37.3495 80.9592 37.161 80.8756Z" fill="white"/>
<path opacity="0.35" d="M47.3633 72.6349C47.64 72.6391 47.9071 72.5338 48.1065 72.3419C48.3059 72.15 48.4214 71.8871 48.4279 71.6105L46.3389 71.5703C46.3335 71.8473 46.4385 72.1151 46.6306 72.3148C46.8227 72.5144 47.0863 72.6296 47.3633 72.6349Z" fill="white"/>
<path opacity="0.35" d="M57.8287 71.7896L56.7842 71.7695C56.7836 71.8397 56.7896 71.9098 56.8019 71.9788C56.8391 72.1801 56.9346 72.366 57.0765 72.5134C57.2184 72.6609 57.4004 72.7635 57.6001 72.8083C57.6694 72.8165 57.7394 72.8179 57.809 72.8124L57.8287 71.7896Z" fill="white"/>
<path opacity="0.35" d="M36.9184 72.4332C37.1951 72.4373 37.4622 72.332 37.6616 72.1402C37.861 71.9483 37.9765 71.6854 37.983 71.4088L36.9385 71.3887L36.9184 72.4332Z" fill="white"/>
<path opacity="0.35" d="M46.6002 112.317C46.4626 112.314 46.3259 112.339 46.1979 112.389C46.0699 112.44 45.9531 112.515 45.8541 112.61C45.7552 112.706 45.6762 112.82 45.6215 112.946C45.5668 113.072 45.5376 113.208 45.5355 113.346L47.6245 113.386C47.6298 113.108 47.5251 112.84 47.3331 112.64C47.1411 112.44 46.8776 112.323 46.6002 112.317Z" fill="white"/>
<path opacity="0.35" d="M57.0455 112.518C56.805 112.514 56.5706 112.594 56.3815 112.742C56.1924 112.891 56.0601 113.1 56.0067 113.334C55.9914 113.404 55.9828 113.475 55.9808 113.547L57.0253 113.567L57.0455 112.518Z" fill="white"/>
<path opacity="0.35" d="M46.8012 101.872C46.5936 101.867 46.3893 101.924 46.214 102.035C46.0387 102.147 45.9005 102.308 45.8167 102.498C45.733 102.688 45.7076 102.898 45.7436 103.103C45.7797 103.307 45.8756 103.496 46.0193 103.646C46.163 103.796 46.3479 103.9 46.5507 103.945C46.7535 103.99 46.965 103.973 47.1584 103.898C47.3519 103.822 47.5185 103.691 47.6373 103.521C47.7561 103.35 47.8216 103.148 47.8256 102.941C47.8288 102.803 47.8048 102.666 47.755 102.538C47.7052 102.41 47.6306 102.293 47.5354 102.194C47.4403 102.094 47.3264 102.015 47.2004 101.959C47.0744 101.904 46.9388 101.874 46.8012 101.872Z" fill="white"/>
<path opacity="0.35" d="M57.0366 102.093C56.8358 102.131 56.6505 102.227 56.5032 102.369C56.3559 102.51 56.2531 102.692 56.2072 102.891C56.1736 103.034 56.1707 103.182 56.1988 103.326C56.236 103.528 56.3314 103.714 56.4733 103.861C56.6152 104.008 56.7973 104.111 56.997 104.156C57.0654 104.171 57.1353 104.18 57.2055 104.182L57.246 102.071C57.1757 102.071 57.1055 102.079 57.0366 102.093Z" fill="white"/>
<path opacity="0.35" d="M51.9233 107.194C51.7157 107.189 51.5113 107.246 51.3361 107.358C51.1608 107.469 51.0226 107.63 50.9388 107.82C50.8551 108.01 50.8296 108.22 50.8657 108.425C50.9018 108.63 50.9977 108.819 51.1414 108.969C51.2851 109.119 51.47 109.223 51.6728 109.267C51.8756 109.312 52.0871 109.296 52.2805 109.22C52.4739 109.144 52.6406 109.013 52.7594 108.843C52.8781 108.672 52.9437 108.471 52.9476 108.263C52.9509 108.126 52.9269 107.989 52.8771 107.86C52.8273 107.732 52.7527 107.615 52.6575 107.516C52.5623 107.416 52.4485 107.337 52.3225 107.282C52.1965 107.227 52.0608 107.197 51.9233 107.194Z" fill="white"/>
<path opacity="0.35" d="M41.478 106.993C41.2704 106.988 41.066 107.045 40.8908 107.156C40.7155 107.268 40.5772 107.429 40.4935 107.619C40.4098 107.809 40.3843 108.019 40.4204 108.224C40.4564 108.428 40.5524 108.618 40.6961 108.767C40.8397 108.917 41.0247 109.021 41.2275 109.066C41.4303 109.111 41.6418 109.094 41.8352 109.019C42.0286 108.943 42.1953 108.812 42.3141 108.642C42.4328 108.471 42.4983 108.269 42.5023 108.062C42.5056 107.924 42.4816 107.788 42.4318 107.659C42.382 107.531 42.3074 107.414 42.2122 107.315C42.117 107.215 42.0032 107.136 41.8772 107.081C41.7512 107.025 41.6155 106.996 41.478 106.993Z" fill="white"/>
<path opacity="0.35" d="M52.1245 96.7507C51.9169 96.7459 51.7125 96.8027 51.5372 96.9141C51.362 97.0255 51.2237 97.1864 51.14 97.3765C51.0563 97.5665 51.0308 97.7771 51.0669 97.9816C51.1029 98.1862 51.1989 98.3754 51.3425 98.5253C51.4862 98.6752 51.6712 98.7792 51.874 98.8239C52.0768 98.8686 52.2883 98.8522 52.4817 98.7766C52.6751 98.701 52.8418 98.5698 52.9605 98.3994C53.0793 98.2291 53.1448 98.0273 53.1488 97.8197C53.152 97.6821 53.1281 97.5453 53.0783 97.4171C53.0285 97.2889 52.9539 97.1717 52.8587 97.0724C52.7635 96.9731 52.6497 96.8936 52.5237 96.8384C52.3977 96.7832 52.262 96.7534 52.1245 96.7507Z" fill="white"/>
<path opacity="0.35" d="M41.6792 96.5496C41.4716 96.5447 41.2672 96.6016 41.0919 96.713C40.9167 96.8244 40.7784 96.9853 40.6947 97.1753C40.6109 97.3653 40.5855 97.576 40.6216 97.7805C40.6576 97.985 40.7536 98.1742 40.8972 98.3241C41.0409 98.4741 41.2259 98.578 41.4287 98.6227C41.6314 98.6675 41.8429 98.651 42.0364 98.5754C42.2298 98.4999 42.3965 98.3686 42.5152 98.1983C42.634 98.0279 42.6995 97.8261 42.7035 97.6185C42.7067 97.481 42.6828 97.3442 42.633 97.2159C42.5832 97.0877 42.5086 96.9706 42.4134 96.8713C42.3182 96.7719 42.2044 96.6924 42.0784 96.6372C41.9524 96.582 41.8167 96.5522 41.6792 96.5496Z" fill="white"/>
<path opacity="0.35" d="M37.1796 113.19C37.1842 112.984 37.1277 112.781 37.0171 112.607C36.9066 112.433 36.747 112.295 36.5584 112.212C36.4315 112.155 36.2944 112.124 36.1553 112.121L36.1351 113.17L37.1796 113.19Z" fill="white"/>
<path opacity="0.35" d="M36.7596 101.764C36.6327 101.707 36.4955 101.677 36.3564 101.674L36.3162 103.767C36.5929 103.771 36.86 103.666 37.0594 103.474C37.2588 103.282 37.3743 103.019 37.3808 102.743C37.3854 102.537 37.3289 102.334 37.2183 102.159C37.1078 101.985 36.9482 101.848 36.7596 101.764Z" fill="white"/>
<path opacity="0.35" d="M46.9619 93.5236C47.2386 93.5277 47.5057 93.4224 47.7051 93.2305C47.9045 93.0387 48.02 92.7758 48.0265 92.4992L45.9375 92.459C45.9322 92.736 46.0371 93.0038 46.2292 93.2034C46.4213 93.4031 46.6849 93.5182 46.9619 93.5236Z" fill="white"/>
<path opacity="0.35" d="M56.3828 92.6602C56.3822 92.7303 56.3882 92.8004 56.4006 92.8695C56.4377 93.0707 56.5332 93.2566 56.6751 93.4041C56.817 93.5515 56.9991 93.6541 57.1987 93.699C57.2672 93.7144 57.337 93.7231 57.4072 93.7247L57.4273 92.6802L56.3828 92.6602Z" fill="white"/>
<path opacity="0.35" d="M36.5371 92.2793L36.517 93.3238C36.7937 93.328 37.0608 93.2226 37.2602 93.0308C37.4596 92.8389 37.5751 92.576 37.5816 92.2994L36.5371 92.2793Z" fill="white"/>
<path opacity="0.35" d="M46.3989 122.76C46.1913 122.756 45.9869 122.813 45.8117 122.924C45.6364 123.035 45.4981 123.196 45.4144 123.386C45.3307 123.576 45.3052 123.787 45.3413 123.991C45.3773 124.196 45.4733 124.385 45.617 124.535C45.7606 124.685 45.9456 124.789 46.1484 124.834C46.3512 124.878 46.5627 124.862 46.7561 124.786C46.9495 124.711 47.1162 124.58 47.235 124.409C47.3537 124.239 47.4192 124.037 47.4232 123.829C47.4265 123.692 47.4025 123.555 47.3527 123.427C47.3029 123.299 47.2283 123.182 47.1331 123.082C47.0379 122.983 46.9241 122.903 46.7981 122.848C46.6721 122.793 46.5364 122.763 46.3989 122.76Z" fill="white"/>
<path opacity="0.35" d="M56.6353 122.984C56.4345 123.022 56.2491 123.118 56.1019 123.259C55.9546 123.401 55.8517 123.583 55.8058 123.782C55.7722 123.925 55.7694 124.073 55.7974 124.217C55.8346 124.418 55.9301 124.604 56.072 124.752C56.2139 124.899 56.3959 125.002 56.5956 125.046C56.6641 125.062 56.7339 125.071 56.8041 125.072L56.8447 122.962C56.7743 122.962 56.7042 122.969 56.6353 122.984Z" fill="white"/>
<path opacity="0.35" d="M51.521 128.085C51.3134 128.08 51.109 128.137 50.9337 128.248C50.7585 128.36 50.6202 128.52 50.5365 128.71C50.4527 128.901 50.4273 129.111 50.4633 129.316C50.4994 129.52 50.5953 129.709 50.739 129.859C50.8827 130.009 51.0677 130.113 51.2704 130.158C51.4732 130.203 51.6847 130.186 51.8782 130.111C52.0716 130.035 52.2383 129.904 52.357 129.733C52.4758 129.563 52.5413 129.361 52.5453 129.154C52.5485 129.016 52.5245 128.879 52.4748 128.751C52.425 128.623 52.3503 128.506 52.2552 128.406C52.16 128.307 52.0462 128.228 51.9202 128.172C51.7942 128.117 51.6585 128.087 51.521 128.085Z" fill="white"/>
<path opacity="0.35" d="M41.0766 127.884C40.869 127.879 40.6647 127.936 40.4894 128.047C40.3141 128.158 40.1759 128.319 40.0921 128.509C40.0084 128.699 39.983 128.91 40.019 129.114C40.0551 129.319 40.151 129.508 40.2947 129.658C40.4384 129.808 40.6233 129.912 40.8261 129.957C41.0289 130.001 41.2404 129.985 41.4338 129.909C41.6273 129.834 41.7939 129.703 41.9127 129.532C42.0314 129.362 42.097 129.16 42.101 128.952C42.1042 128.815 42.0802 128.678 42.0304 128.55C41.9806 128.422 41.906 128.305 41.8108 128.205C41.7157 128.106 41.6018 128.026 41.4758 127.971C41.3498 127.916 41.2142 127.886 41.0766 127.884Z" fill="white"/>
<path opacity="0.35" d="M51.7221 117.639C51.5145 117.635 51.3102 117.691 51.1349 117.803C50.9596 117.914 50.8214 118.075 50.7376 118.265C50.6539 118.455 50.6285 118.666 50.6645 118.87C50.7006 119.075 50.7965 119.264 50.9402 119.414C51.0839 119.564 51.2688 119.668 51.4716 119.713C51.6744 119.757 51.8859 119.741 52.0793 119.665C52.2728 119.59 52.4394 119.458 52.5582 119.288C52.677 119.118 52.7425 118.916 52.7465 118.708C52.7497 118.571 52.7257 118.434 52.6759 118.306C52.6261 118.178 52.5515 118.06 52.4563 117.961C52.3612 117.862 52.2473 117.782 52.1213 117.727C51.9953 117.672 51.8597 117.642 51.7221 117.639Z" fill="white"/>
<path opacity="0.35" d="M41.2768 117.438C41.0692 117.433 40.8648 117.49 40.6896 117.602C40.5143 117.713 40.3761 117.874 40.2923 118.064C40.2086 118.254 40.1831 118.465 40.2192 118.669C40.2553 118.874 40.3512 119.063 40.4949 119.213C40.6386 119.363 40.8235 119.467 41.0263 119.511C41.2291 119.556 41.4406 119.54 41.634 119.464C41.8275 119.389 41.9941 119.257 42.1129 119.087C42.2316 118.917 42.2972 118.715 42.3012 118.507C42.3044 118.37 42.2804 118.233 42.2306 118.105C42.1808 117.976 42.1062 117.859 42.011 117.76C41.9159 117.661 41.802 117.581 41.676 117.526C41.55 117.471 41.4144 117.441 41.2768 117.438Z" fill="white"/>
<path opacity="0.35" d="M36.3573 122.655C36.2303 122.598 36.0932 122.567 35.9541 122.564L35.9138 124.658C36.1905 124.662 36.4577 124.557 36.6571 124.365C36.8565 124.173 36.972 123.91 36.9784 123.633C36.983 123.427 36.9265 123.224 36.816 123.05C36.7054 122.876 36.5458 122.738 36.3573 122.655Z" fill="white"/>
<path opacity="0.35" d="M45.5352 113.35C45.5298 113.627 45.6348 113.894 45.8269 114.094C46.019 114.294 46.2825 114.409 46.5596 114.414C46.8366 114.42 47.1044 114.315 47.304 114.122C47.5037 113.93 47.6188 113.667 47.6242 113.39L45.5352 113.35Z" fill="white"/>
<path opacity="0.35" d="M55.9805 113.551C55.9799 113.621 55.9858 113.691 55.9982 113.76C56.0354 113.961 56.1308 114.147 56.2727 114.295C56.4146 114.442 56.5967 114.545 56.7964 114.59C56.8649 114.605 56.9347 114.614 57.0049 114.615L57.025 113.571L55.9805 113.551Z" fill="white"/>
<path opacity="0.35" d="M36.1348 113.168L36.1147 114.212C36.3914 114.217 36.6585 114.111 36.8579 113.919C37.0573 113.728 37.1728 113.465 37.1793 113.188L36.1348 113.168Z" fill="white"/>
<path opacity="0.35" d="M36.946 70.9995L36.5599 71.3795L36.9386 71.3868L36.946 70.9995Z" fill="white"/>
<path opacity="0.35" d="M36.5369 92.2784L36.5572 91.2252C36.4181 91.2226 36.2799 91.2481 36.1509 91.3001C35.9634 91.3774 35.8011 91.5055 35.6823 91.6698C35.5624 91.8414 35.4964 92.0447 35.4925 92.2539L36.5369 92.2784Z" fill="white"/>
<path opacity="0.35" d="M36.3516 80.8592C36.1599 80.9349 35.9948 81.0656 35.8772 81.235C35.7596 81.4043 35.6947 81.6047 35.6907 81.8108C35.6868 82.0169 35.7439 82.2196 35.8549 82.3934C35.9659 82.5671 36.1258 82.7041 36.3146 82.7871C36.4415 82.8441 36.5786 82.8748 36.7177 82.8776L36.758 80.7799C36.6186 80.7787 36.4804 80.8057 36.3516 80.8592Z" fill="white"/>
<path opacity="0.35" d="M32.4586 86.9753C32.4625 86.7687 32.4052 86.5656 32.2937 86.3916C32.1822 86.2177 32.0217 86.0806 31.8323 85.9979C31.643 85.9152 31.4334 85.8905 31.23 85.9269C31.0266 85.9633 30.8386 86.0592 30.6897 86.2024C30.5408 86.3457 30.4377 86.5299 30.3936 86.7317C30.3494 86.9336 30.366 87.144 30.4414 87.3364C30.5168 87.5287 30.6475 87.6944 30.8171 87.8125C30.9866 87.9306 31.1874 87.9957 31.394 87.9997C31.6707 88.0039 31.9378 87.8986 32.1372 87.7067C32.3366 87.5148 32.4521 87.2519 32.4586 86.9753Z" fill="white"/>
<path opacity="0.35" d="M32.6602 76.529C32.6636 76.295 32.5882 76.0666 32.4463 75.8805C32.0182 76.4063 31.6075 76.9354 31.2142 77.4677C31.3707 77.5364 31.5419 77.5651 31.7123 77.5512C31.8826 77.5373 32.0469 77.4813 32.1903 77.3883C32.3337 77.2952 32.4517 77.1679 32.5337 77.0179C32.6158 76.868 32.6592 76.6999 32.6602 76.529Z" fill="white"/>
<path opacity="0.35" d="M36.939 71.3883L36.5604 71.381L36.0366 71.9064C36.1453 72.1014 36.313 72.2571 36.5156 72.351C36.6426 72.4079 36.7797 72.4387 36.9188 72.4415L36.939 71.3883Z" fill="white"/>
<path opacity="0.35" d="M36.1356 113.169L36.1558 112.116C36.0167 112.113 35.8785 112.139 35.7495 112.191C35.5579 112.267 35.3931 112.398 35.2759 112.568C35.1588 112.738 35.0945 112.938 35.0912 113.145L36.1356 113.169Z" fill="white"/>
<path opacity="0.35" d="M35.9503 101.75C35.7585 101.825 35.5934 101.956 35.4758 102.126C35.3582 102.295 35.2933 102.495 35.2894 102.701C35.2854 102.908 35.3425 103.11 35.4535 103.284C35.5645 103.458 35.7245 103.595 35.9132 103.678C36.0401 103.735 36.1772 103.765 36.3163 103.768L36.3567 101.671C36.2172 101.669 36.079 101.696 35.9503 101.75Z" fill="white"/>
<path opacity="0.35" d="M31.0337 106.792C30.8261 106.787 30.6217 106.844 30.4464 106.955C30.2712 107.067 30.1329 107.227 30.0492 107.417C29.9654 107.608 29.94 107.818 29.976 108.023C30.0121 108.227 30.108 108.416 30.2517 108.566C30.3954 108.716 30.5804 108.82 30.7831 108.865C30.9859 108.91 31.1974 108.893 31.3909 108.818C31.5843 108.742 31.751 108.611 31.8697 108.44C31.9885 108.27 32.054 108.068 32.058 107.861C32.0612 107.723 32.0372 107.586 31.9875 107.458C31.9377 107.33 31.863 107.213 31.7679 107.113C31.6727 107.014 31.5588 106.935 31.4329 106.879C31.3069 106.824 31.1712 106.794 31.0337 106.792Z" fill="white"/>
<path opacity="0.35" d="M31.2339 96.3484C31.0263 96.3435 30.8219 96.4004 30.6466 96.5118C30.4714 96.6232 30.3331 96.7841 30.2494 96.9741C30.1656 97.1642 30.1402 97.3748 30.1762 97.5793C30.2123 97.7838 30.3082 97.973 30.4519 98.123C30.5956 98.2729 30.7805 98.3768 30.9833 98.4216C31.1861 98.4663 31.3976 98.4498 31.5911 98.3743C31.7845 98.2987 31.9512 98.1674 32.0699 97.9971C32.1887 97.8267 32.2542 97.625 32.2582 97.4173C32.2614 97.2798 32.2374 97.143 32.1877 97.0148C32.1379 96.8865 32.0632 96.7694 31.9681 96.6701C31.8729 96.5708 31.759 96.4912 31.633 96.436C31.5071 96.3808 31.3714 96.351 31.2339 96.3484Z" fill="white"/>
<path opacity="0.35" d="M35.4922 92.2578C35.488 92.5345 35.5933 92.8016 35.7852 93.001C35.9771 93.2004 36.24 93.3159 36.5166 93.3224L36.5367 92.2779L35.4922 92.2578Z" fill="white"/>
<path opacity="0.35" d="M35.5479 122.638C35.3561 122.714 35.1911 122.845 35.0735 123.014C34.9558 123.184 34.891 123.384 34.887 123.59C34.8831 123.796 34.9402 123.999 35.0512 124.173C35.1622 124.346 35.3221 124.483 35.5108 124.566C35.6378 124.623 35.7749 124.654 35.914 124.657L35.9543 122.559C35.8149 122.558 35.6767 122.585 35.5479 122.638Z" fill="white"/>
<path opacity="0.35" d="M31.8563 118.312C31.8624 118.095 31.8008 117.882 31.6801 117.702C31.5593 117.523 31.3854 117.385 31.1827 117.309C30.98 117.232 30.7585 117.221 30.5491 117.277C30.3398 117.333 30.153 117.452 30.0149 117.619C30.1391 118.179 30.2593 118.721 30.3885 119.246C30.5155 119.303 30.6526 119.333 30.7917 119.336C31.0684 119.34 31.3355 119.235 31.5349 119.043C31.7343 118.851 31.8498 118.588 31.8563 118.312Z" fill="white"/>
<path opacity="0.35" d="M35.0908 113.148C35.0866 113.425 35.192 113.692 35.3838 113.892C35.5757 114.091 35.8386 114.207 36.1152 114.213L36.1353 113.169L35.0908 113.148Z" fill="white"/>
</g>
<path d="M45.7983 63.4348C45.7983 63.4348 34.9055 71.3537 29.8156 79.5278C24.7257 87.702 29.0205 120.873 32.8398 126.022C36.6591 131.172 43.2666 134.643 58.5435 132.612C73.8205 130.581 85.1344 123.401 87.4416 116.624C89.7488 109.846 86.1582 92.8016 86.1582 92.8016C86.1582 92.8016 93.6377 88.7354 93.0783 80.0173C92.5188 71.2992 83.4313 68.6559 78.8239 66.6821C74.2164 64.7084 64.1189 61.6103 64.1189 61.6103C64.1189 61.6103 52.9778 59.7983 45.7983 63.4348Z" stroke="#263238" stroke-width="0.435288" stroke-linecap="round" stroke-linejoin="round"/>
<path d="M45.1721 67.7399C45.1721 67.7399 44.5507 77.4149 47.1828 82.0369C49.815 86.6589 55.5962 80.3484 57.927 77.9987C60.2579 75.649 65.5766 82.0641 70.3221 78.6724C75.0675 75.2807 68.7821 68.1939 65.7963 64.9801C62.8105 61.7663 57.5964 61.2306 54.1127 61.2725C50.6289 61.3143 48.1014 62.5718 45.1721 67.7399Z" fill="white" stroke="#263238" stroke-width="0.435288" stroke-linecap="round" stroke-linejoin="round"/>
<path d="M49.7769 71.6386C49.7769 71.6386 54.3864 80.9788 58.6213 81.4956C62.8562 82.0124 63.8626 69.2972 63.8626 69.2972C63.8626 69.2972 55.3991 73.597 49.7769 71.6386Z" fill="white" stroke="#263238" stroke-width="0.435288" stroke-linecap="round" stroke-linejoin="round"/>
<path d="M63.8626 69.2972C63.8626 69.2972 55.3991 73.597 49.7769 71.6386C50.5389 73.1326 51.3922 74.5783 52.332 75.9674C54.2857 76.4358 56.3259 76.4032 58.2636 75.8725C60.0099 75.4215 61.6819 74.7204 63.2276 73.7911C63.6966 71.3621 63.8626 69.2972 63.8626 69.2972Z" fill="#263238" stroke="#263238" stroke-width="0.435288" stroke-linecap="round" stroke-linejoin="round"/>
<path d="M34.5661 74.102C34.5661 74.102 28.8806 75.4424 26.1187 83.2259C24.6182 87.4463 16.1614 109.056 17.1393 118.653C18.1172 128.25 24.514 127.503 30.3616 125.438C36.2091 123.374 47.8543 107.572 47.8849 105.979C47.9155 104.386 46.5652 98.9876 44.3892 98.9458C42.2131 98.9039 36.6532 101.409 36.6532 101.409C36.6532 101.409 37.4957 95.1823 36.8569 90.8163" fill="#F17C7C"/>
<g opacity="0.35">
<path opacity="0.35" d="M37.0118 92.2904C36.9878 91.9547 36.9549 91.6275 36.9175 91.309C36.8026 91.2636 36.681 91.2377 36.5576 91.2324L36.5374 92.2813L37.0118 92.2904Z" fill="white"/>
<path opacity="0.35" d="M45.737 102.907C45.7319 103.117 45.7901 103.323 45.904 103.499C46.0179 103.674 46.1822 103.812 46.3754 103.892C46.5686 103.973 46.7817 103.994 46.9868 103.952C47.1919 103.91 47.3795 103.806 47.5251 103.656C47.3736 103.061 47.1872 102.476 46.9667 101.904C46.9117 101.898 46.8564 101.897 46.8013 101.9C46.5273 101.895 46.2621 101.998 46.063 102.186C45.864 102.374 45.7469 102.634 45.737 102.907Z" fill="white"/>
<path opacity="0.35" d="M41.478 106.995C41.2704 106.99 41.066 107.047 40.8908 107.158C40.7155 107.27 40.5772 107.431 40.4935 107.621C40.4098 107.811 40.3843 108.021 40.4204 108.226C40.4564 108.43 40.5524 108.62 40.6961 108.769C40.8397 108.919 41.0247 109.023 41.2275 109.068C41.4303 109.113 41.6418 109.096 41.8352 109.021C42.0286 108.945 42.1953 108.814 42.3141 108.644C42.4328 108.473 42.4983 108.271 42.5023 108.064C42.5056 107.926 42.4816 107.789 42.4318 107.661C42.382 107.533 42.3074 107.416 42.2122 107.317C42.117 107.217 42.0032 107.138 41.8772 107.083C41.7512 107.027 41.6155 106.998 41.478 106.995Z" fill="white"/>
<path opacity="0.35" d="M37.1806 113.192C37.1852 112.986 37.1287 112.783 37.0181 112.609C36.9076 112.435 36.748 112.297 36.5594 112.214C36.4325 112.157 36.2953 112.126 36.1562 112.123L36.1361 113.172L37.1806 113.192Z" fill="white"/>
<path opacity="0.35" d="M36.7225 103.696C36.9444 103.605 37.1283 103.44 37.2434 103.229C37.3585 103.019 37.3979 102.775 37.3551 102.539C37.3123 102.303 37.1898 102.089 37.008 101.932C36.8263 101.775 36.5963 101.685 36.3564 101.678L36.3162 103.771C36.4553 103.774 36.5935 103.748 36.7225 103.696Z" fill="white"/>
<path opacity="0.35" d="M36.5174 93.3259C36.6565 93.3285 36.7947 93.303 36.9237 93.251C36.9723 93.2308 37.0193 93.207 37.0644 93.1797C37.0702 92.8794 37.0367 92.5827 37.0115 92.308L36.5371 92.2988L36.5174 93.3259Z" fill="white"/>
<path opacity="0.35" d="M36.1157 114.216C36.3923 114.221 36.6595 114.115 36.8589 113.923C37.0583 113.731 37.1738 113.469 37.1802 113.192L36.1357 113.172L36.1157 114.216Z" fill="white"/>
<path opacity="0.35" d="M26.9691 91.5091C26.8474 91.3209 26.6685 91.1769 26.4587 91.0982C26.2489 91.0195 26.0194 91.0103 25.804 91.072C25.5886 91.1338 25.3987 91.2631 25.2625 91.441C25.1262 91.6189 25.0508 91.8359 25.0472 92.0599L27.1362 92.1001C27.1405 91.8908 27.0823 91.6851 26.9691 91.5091Z" fill="white"/>
<path opacity="0.35" d="M36.5369 92.2803L36.5572 91.2271C36.4181 91.2245 36.2799 91.25 36.1509 91.302C35.9634 91.3794 35.8011 91.5074 35.6823 91.6718C35.5624 91.8433 35.4964 92.0467 35.4925 92.2559L36.5369 92.2803Z" fill="white"/>
<path opacity="0.35" d="M27.3374 81.6559C27.3423 81.4025 27.2541 81.1561 27.0895 80.9633C26.8057 81.5256 26.5505 82.1019 26.3249 82.69C26.5949 82.6828 26.8515 82.5709 27.0405 82.3779C27.2294 82.1849 27.3359 81.926 27.3374 81.6559Z" fill="white"/>
<path opacity="0.35" d="M31.3948 88.0045C31.6026 88.0094 31.8071 87.9524 31.9825 87.8408C32.1579 87.7292 32.2961 87.568 32.3797 87.3777C32.4633 87.1874 32.4885 86.9766 32.4521 86.772C32.4157 86.5673 32.3193 86.3781 32.1752 86.2284C32.0311 86.0786 31.8457 85.975 31.6426 85.9307C31.4396 85.8865 31.2279 85.9036 31.0345 85.9798C30.8412 86.056 30.6748 86.188 30.5566 86.3589C30.4383 86.5299 30.3735 86.7321 30.3704 86.9399C30.3662 87.2166 30.4715 87.4837 30.6634 87.6831C30.8553 87.8825 31.1181 87.998 31.3948 88.0045Z" fill="white"/>
<path opacity="0.35" d="M31.5958 77.5572C31.8596 77.5572 32.1136 77.4575 32.3069 77.2779C32.5002 77.0984 32.6184 76.8524 32.6378 76.5893C32.6572 76.3262 32.5763 76.0655 32.4114 75.8596C32.2466 75.6537 32.0099 75.5177 31.7489 75.4791C31.344 75.7576 30.9558 76.0597 30.5865 76.3841C30.5834 76.4202 30.5827 76.4566 30.5844 76.4929C30.5791 76.7676 30.6823 77.0334 30.8716 77.2326C31.0609 77.4319 31.3211 77.5485 31.5958 77.5572Z" fill="white"/>
<path opacity="0.35" d="M25.7105 111.917C25.573 111.914 25.4363 111.938 25.3083 111.989C25.1802 112.039 25.0634 112.114 24.9645 112.21C24.8656 112.305 24.7865 112.42 24.7318 112.546C24.6771 112.672 24.6479 112.808 24.6459 112.945L26.7349 112.986C26.7402 112.708 26.6354 112.44 26.4434 112.24C26.2514 112.039 25.9879 111.923 25.7105 111.917Z" fill="white"/>
<path opacity="0.35" d="M36.1356 113.171L36.1558 112.118C36.0167 112.115 35.8785 112.141 35.7495 112.193C35.5579 112.269 35.3931 112.4 35.2759 112.57C35.1588 112.74 35.0945 112.94 35.0912 113.147L36.1356 113.171Z" fill="white"/>
<path opacity="0.35" d="M25.9116 101.473C25.704 101.469 25.4996 101.525 25.3244 101.637C25.1491 101.748 25.0108 101.909 24.9271 102.099C24.8434 102.289 24.8179 102.5 24.854 102.704C24.89 102.909 24.986 103.098 25.1297 103.248C25.2733 103.398 25.4583 103.502 25.6611 103.547C25.8639 103.591 26.0754 103.575 26.2688 103.499C26.4622 103.424 26.6289 103.292 26.7476 103.122C26.8664 102.952 26.9319 102.75 26.9359 102.542C26.9391 102.405 26.9152 102.268 26.8654 102.14C26.8156 102.012 26.741 101.894 26.6458 101.795C26.5506 101.696 26.4368 101.616 26.3108 101.561C26.1848 101.506 26.0491 101.476 25.9116 101.473Z" fill="white"/>
<path opacity="0.35" d="M35.2923 102.708C35.2881 102.984 35.3934 103.251 35.5853 103.451C35.7772 103.65 36.04 103.766 36.3167 103.772L36.357 101.674C36.2179 101.672 36.0797 101.697 35.9507 101.749C35.7584 101.826 35.5931 101.958 35.4759 102.128C35.3587 102.299 35.2947 102.501 35.2923 102.708Z" fill="white"/>
<path opacity="0.35" d="M31.0337 106.794C30.8261 106.789 30.6217 106.846 30.4464 106.957C30.2712 107.069 30.1329 107.229 30.0492 107.419C29.9654 107.609 29.94 107.82 29.976 108.025C30.0121 108.229 30.108 108.418 30.2517 108.568C30.3954 108.718 30.5804 108.822 30.7831 108.867C30.9859 108.912 31.1974 108.895 31.3909 108.82C31.5843 108.744 31.751 108.613 31.8697 108.442C31.9885 108.272 32.054 108.07 32.058 107.863C32.0612 107.725 32.0372 107.588 31.9875 107.46C31.9377 107.332 31.863 107.215 31.7679 107.115C31.6727 107.016 31.5588 106.937 31.4329 106.881C31.3069 106.826 31.1712 106.796 31.0337 106.794Z" fill="white"/>
<path opacity="0.35" d="M20.5884 106.594C20.3808 106.59 20.1764 106.646 20.0011 106.758C19.8259 106.869 19.6876 107.03 19.6039 107.22C19.5201 107.41 19.4947 107.621 19.5307 107.825C19.5668 108.03 19.6627 108.219 19.8064 108.369C19.9501 108.519 20.135 108.623 20.3378 108.668C20.5406 108.712 20.7521 108.696 20.9456 108.62C21.139 108.545 21.3056 108.414 21.4244 108.243C21.5432 108.073 21.6087 107.871 21.6127 107.663C21.6159 107.526 21.5919 107.389 21.5421 107.261C21.4924 107.133 21.4177 107.015 21.3226 106.916C21.2274 106.817 21.1135 106.737 20.9875 106.682C20.8615 106.627 20.7259 106.597 20.5884 106.594Z" fill="white"/>
<path opacity="0.35" d="M31.2348 96.3503C31.0272 96.3455 30.8229 96.4024 30.6476 96.5138C30.4723 96.6251 30.3341 96.7861 30.2503 96.9761C30.1666 97.1661 30.1412 97.3767 30.1772 97.5812C30.2133 97.7858 30.3092 97.975 30.4529 98.1249C30.5966 98.2749 30.7815 98.3788 30.9843 98.4235C31.1871 98.4683 31.3986 98.4518 31.592 98.3762C31.7855 98.3007 31.9521 98.1694 32.0709 97.999C32.1896 97.8287 32.2552 97.6269 32.2592 97.4193C32.2624 97.2818 32.2384 97.145 32.1886 97.0167C32.1388 96.8885 32.0642 96.7714 31.969 96.672C31.8739 96.5727 31.76 96.4932 31.634 96.438C31.508 96.3828 31.3724 96.353 31.2348 96.3503Z" fill="white"/>
<path opacity="0.35" d="M21.8134 97.2213C21.8163 97.0749 21.788 96.9295 21.7306 96.7948C21.6731 96.6602 21.5878 96.5392 21.4802 96.4399C21.2904 97.0283 21.1004 97.6255 20.9146 98.2314C21.1598 98.1969 21.3849 98.0764 21.5495 97.8914C21.7141 97.7064 21.8077 97.4689 21.8134 97.2213Z" fill="white"/>
<path opacity="0.35" d="M26.0723 93.1251C26.3489 93.1293 26.6161 93.024 26.8155 92.8321C27.0149 92.6402 27.1304 92.3774 27.1368 92.1007L25.0479 92.0605C25.0425 92.3376 25.1475 92.6054 25.3396 92.805C25.5317 93.0046 25.7952 93.1198 26.0723 93.1251Z" fill="white"/>
<path opacity="0.35" d="M36.1134 93.2358C36.2404 93.2927 36.3775 93.3235 36.5166 93.3263L36.5367 92.2818L35.4922 92.2617C35.4884 92.4672 35.5454 92.6692 35.6559 92.8425C35.7664 93.0157 35.9256 93.1526 36.1134 93.2358Z" fill="white"/>
<path opacity="0.35" d="M25.5102 122.362C25.3026 122.357 25.0982 122.414 24.923 122.525C24.7477 122.637 24.6095 122.798 24.5257 122.988C24.442 123.178 24.4165 123.388 24.4526 123.593C24.4887 123.797 24.5846 123.987 24.7283 124.137C24.872 124.287 25.0569 124.39 25.2597 124.435C25.4625 124.48 25.674 124.464 25.8674 124.388C26.0609 124.312 26.2275 124.181 26.3463 124.011C26.465 123.84 26.5306 123.639 26.5346 123.431C26.5378 123.293 26.5138 123.157 26.464 123.028C26.4142 122.9 26.3396 122.783 26.2444 122.684C26.1493 122.584 26.0354 122.505 25.9094 122.45C25.7834 122.394 25.6478 122.365 25.5102 122.362Z" fill="white"/>
<path opacity="0.35" d="M29.7679 118.273C29.7648 118.48 29.8229 118.683 29.9349 118.856C30.0469 119.029 30.2078 119.166 30.3972 119.248C30.5866 119.33 30.7961 119.354 30.9992 119.317C31.2024 119.28 31.39 119.184 31.5384 119.04C31.6869 118.897 31.7895 118.713 31.8334 118.511C31.8772 118.309 31.8603 118.099 31.7848 117.907C31.7093 117.715 31.5785 117.549 31.4091 117.432C31.2396 117.314 31.039 117.249 30.8326 117.245C30.6951 117.242 30.5584 117.267 30.4303 117.317C30.3023 117.367 30.1855 117.442 30.0866 117.538C29.9876 117.634 29.9086 117.748 29.8539 117.874C29.7992 118 29.77 118.136 29.7679 118.273Z" fill="white"/>
<path opacity="0.35" d="M20.3882 117.04C20.1806 117.035 19.9762 117.092 19.8009 117.203C19.6257 117.315 19.4874 117.476 19.4037 117.666C19.3199 117.856 19.2945 118.066 19.3305 118.271C19.3666 118.475 19.4625 118.664 19.6062 118.814C19.7499 118.964 19.9349 119.068 20.1376 119.113C20.3404 119.158 20.5519 119.141 20.7454 119.066C20.9388 118.99 21.1054 118.859 21.2242 118.688C21.343 118.518 21.4085 118.316 21.4125 118.109C21.4157 117.971 21.3917 117.834 21.3419 117.706C21.2922 117.578 21.2175 117.461 21.1224 117.361C21.0272 117.262 20.9133 117.183 20.7873 117.127C20.6614 117.072 20.5257 117.042 20.3882 117.04Z" fill="white"/>
<path opacity="0.35" d="M24.6455 112.949C24.6402 113.226 24.7451 113.494 24.9372 113.694C25.1293 113.893 25.3929 114.008 25.6699 114.014C25.9469 114.019 26.2147 113.914 26.4144 113.722C26.614 113.53 26.7292 113.266 26.7345 112.989L24.6455 112.949Z" fill="white"/>
<path opacity="0.35" d="M35.7121 114.124C35.839 114.181 35.9761 114.212 36.1152 114.215L36.1353 113.17L35.0908 113.15C35.0871 113.356 35.144 113.558 35.2545 113.731C35.365 113.904 35.5242 114.041 35.7121 114.124Z" fill="white"/>
</g>
<path d="M34.5661 74.102C34.5661 74.102 28.8806 75.4424 26.1187 83.2259C24.6182 87.4463 16.1614 109.056 17.1393 118.653C18.1172 128.25 24.514 127.503 30.3616 125.438C36.2091 123.374 47.8543 107.572 47.8849 105.979C47.9155 104.386 46.5652 98.9876 44.3892 98.9458C42.2131 98.9039 36.6532 101.409 36.6532 101.409C36.6532 101.409 37.4957 95.1823 36.8569 90.8163" stroke="#263238" stroke-width="0.435288" stroke-linecap="round" stroke-linejoin="round"/>
<path d="M36.652 101.426C36.652 101.426 30.2089 104.35 29.0246 105.485L36.652 101.426Z" fill="white"/>
<path d="M36.652 101.426C36.652 101.426 30.2089 104.35 29.0246 105.485" stroke="#263238" stroke-width="0.435288" stroke-linecap="round" stroke-linejoin="round"/>
<path d="M54.6776 95.0598C54.6776 95.0598 57.4949 95.4884 58.7882 96.8325C60.0815 98.1765 60.3623 103.276 60.5349 104.032C60.7076 104.789 58.9893 106.075 57.6561 106.802C56.323 107.53 52.7194 108.593 51.7967 107.447C50.874 106.302 53.1748 103.703 53.1748 103.703C53.1748 103.703 48.2583 107.841 46.3416 107.669C44.425 107.497 42.5442 104.326 43.5542 102.517C44.5642 100.708 53.1674 95.0308 54.6776 95.0598Z" fill="white" stroke="#263238" stroke-width="0.435288" stroke-linecap="round" stroke-linejoin="round"/>
<path d="M48.8511 95.7574C49.3564 94.9452 50.074 94.2866 50.9264 93.8526C51.7788 93.4186 52.7335 93.2257 53.6875 93.2948C54.805 93.3685 59.4779 99.6362 58.9623 101.542C58.4468 103.448 56.3431 104.848 54.7736 103.377C53.2041 101.906 49.7574 97.5293 49.7574 97.5293" fill="white"/>
<path d="M48.8511 95.7574C49.3564 94.9452 50.074 94.2866 50.9264 93.8526C51.7788 93.4186 52.7335 93.2257 53.6875 93.2948C54.805 93.3685 59.4779 99.6362 58.9623 101.542C58.4468 103.448 56.3431 104.848 54.7736 103.377C53.2041 101.906 49.7574 97.5293 49.7574 97.5293" stroke="#263238" stroke-width="0.435288" stroke-linecap="round" stroke-linejoin="round"/>
<path d="M46.3588 107.653C46.3886 106.108 44.3405 103.26 43.5714 102.501C42.8024 101.742 41.5534 102.392 40.8824 103.777C40.2115 105.162 42.3027 107.801 43.6427 108.754C44.9828 109.707 46.3536 108.832 46.3588 107.653Z" fill="white" stroke="#263238" stroke-width="0.435288" stroke-linecap="round" stroke-linejoin="round"/>
<path d="M48.8709 105.396C49.2426 103.496 47.4118 99.5382 46.6503 98.3873C45.8888 97.2363 44.1935 97.7784 43.0448 99.3236C41.8962 100.869 43.84 104.611 45.27 106.093C46.7 107.575 48.5815 106.858 48.8709 105.396Z" fill="white" stroke="#263238" stroke-width="0.435288" stroke-linecap="round" stroke-linejoin="round"/>
<path d="M52.3979 102.648C52.7696 100.752 50.9389 96.79 50.1774 95.6391C49.4158 94.4881 47.7249 95.0303 46.5718 96.5798C45.4188 98.1293 47.3671 101.863 48.797 103.349C50.2269 104.835 52.1083 104.127 52.3979 102.648Z" fill="white" stroke="#263238" stroke-width="0.435288" stroke-linecap="round" stroke-linejoin="round"/>
<path d="M67.5091 54.6771C67.5091 54.6771 67.4684 51.1324 69.109 50.4935C70.7495 49.8546 72.9303 51.2331 71.8195 54.6642C70.7086 58.0953 68.8953 59.3405 68.2255 58.6266C67.5557 57.9128 67.5091 54.6771 67.5091 54.6771Z" fill="white" stroke="#263238" stroke-width="0.435288" stroke-linecap="round" stroke-linejoin="round"/>
<path d="M39.8489 61.5418C39.8489 61.5418 37.5055 58.8845 35.8609 59.5059C34.2163 60.1274 33.5154 62.6173 36.6372 64.4188C39.7589 66.2203 41.9413 65.9357 41.9601 64.9565C41.9789 63.9773 39.8489 61.5418 39.8489 61.5418Z" fill="white" stroke="#263238" stroke-width="0.435288" stroke-linecap="round" stroke-linejoin="round"/>
<path d="M38.2789 43.8064C38.2789 43.8064 36.7971 49.7729 37.2209 53.547C37.6446 57.3211 39.1367 60.7805 41.9561 65.6281C44.7755 70.4757 51.0158 75.3804 58.075 73.4743C67.0165 71.034 68.6779 65.4584 68.7998 59.1218C68.9216 52.7852 68.1664 46.78 66.5514 42.4649C64.9365 38.1498 58.992 34.6135 48.8481 36.6432C38.7042 38.6729 38.2789 43.8064 38.2789 43.8064Z" fill="white" stroke="#263238" stroke-width="0.435288" stroke-linecap="round" stroke-linejoin="round"/>
<path d="M49.8888 55.8452C50.0687 56.6803 49.8059 57.4415 49.2983 57.5754C48.7907 57.7093 48.2273 57.1194 48.0477 56.2713C47.8681 55.4233 48.1307 54.6751 48.6383 54.5412C49.1459 54.4073 49.7045 55.0145 49.8888 55.8452Z" fill="#263238"/>
<path d="M60.7947 53.1605C60.9747 53.9911 60.7118 54.7567 60.2003 54.8687C59.6887 54.9808 59.1337 54.4129 58.9541 53.5648C58.7744 52.7167 59.0327 51.9685 59.5442 51.8564C60.0557 51.7444 60.6104 52.3297 60.7947 53.1605Z" fill="#263238"/>
<path d="M53.2829 59.8282C53.2829 59.8282 53.9719 60.9038 56.1081 60.7533C58.2443 60.6028 57.8435 58.1222 57.8435 58.1222" stroke="#263238" stroke-width="0.435288" stroke-linecap="round" stroke-linejoin="round"/>
<path d="M51.4746 61.4743C50.6306 62.4328 50.1455 63.6545 50.102 64.9309" stroke="#263238" stroke-width="0.435288" stroke-linecap="round" stroke-linejoin="round"/>
<path d="M63.0035 62.1321C62.931 61.3841 62.6361 60.675 62.1568 60.0962C61.6775 59.5174 61.0358 59.0954 60.3145 58.8848" stroke="#263238" stroke-width="0.435288" stroke-linecap="round" stroke-linejoin="round"/>
<path d="M50.6553 62.6158C51.5973 63.2727 52.6734 63.7122 53.8058 63.9026C54.9383 64.093 56.0989 64.0296 57.2039 63.717C60.9514 62.6353 62.0665 59.8922 62.0665 59.8922" stroke="#263238" stroke-width="0.435288" stroke-linecap="round" stroke-linejoin="round"/>
<path d="M43.5832 51.8576C43.4849 51.8574 43.3882 51.8331 43.3015 51.7868C43.2244 51.749 43.1555 51.6961 43.0991 51.6313C43.0426 51.5665 42.9997 51.491 42.9729 51.4094C42.9461 51.3277 42.9359 51.2415 42.9429 51.1559C42.9498 51.0702 42.9739 50.9868 43.0136 50.9106C43.0817 50.7682 44.8229 47.384 50.375 48.9101C50.4578 48.9329 50.5352 48.9717 50.603 49.0244C50.6707 49.077 50.7274 49.1425 50.7698 49.2171C50.8123 49.2917 50.8396 49.374 50.8502 49.4591C50.8609 49.5443 50.8547 49.6307 50.8319 49.7134C50.8092 49.7962 50.7704 49.8737 50.7177 49.9414C50.665 50.0091 50.5995 50.0659 50.5249 50.1083C50.4503 50.1507 50.3681 50.178 50.2829 50.1887C50.1978 50.1993 50.1113 50.1931 50.0286 50.1704C45.568 48.9396 44.2365 51.3912 44.1779 51.4946C44.1232 51.6051 44.0383 51.6978 43.933 51.762C43.8278 51.8263 43.7065 51.8594 43.5832 51.8576Z" fill="#B2B2B2" stroke="#969696" stroke-width="0.435288" stroke-linecap="round" stroke-linejoin="round"/>
<path d="M56.4177 49.1776C56.2707 49.1765 56.1286 49.1246 56.0156 49.0305C55.8822 48.9201 55.7978 48.7614 55.7808 48.5891C55.7637 48.4168 55.8153 48.2446 55.9245 48.1102C55.9557 48.0716 59.0965 44.353 63.6094 46.7167C63.7632 46.7971 63.8787 46.9352 63.9306 47.1007C63.9826 47.2662 63.9666 47.4456 63.8863 47.5993C63.806 47.7531 63.6679 47.8686 63.5023 47.9206C63.3368 47.9725 63.1575 47.9565 63.0037 47.8762C62.0243 47.3245 60.8836 47.1301 59.7768 47.3264C58.6699 47.5228 57.6656 48.0975 56.9357 48.9525C56.8717 49.0264 56.792 49.085 56.7023 49.1239C56.6126 49.1629 56.5154 49.1812 56.4177 49.1776Z" fill="#B2B2B2" stroke="#969696" stroke-width="0.435288" stroke-linecap="round" stroke-linejoin="round"/>
<path d="M47.9782 60.6049C50.9515 60.6621 53.4081 58.2982 53.4653 55.3249C53.5224 52.3517 51.1585 49.8951 48.1853 49.8379C45.212 49.7807 42.7554 52.1447 42.6982 55.1179C42.6411 58.0911 45.005 60.5478 47.9782 60.6049Z" stroke="#263238" stroke-width="0.435288" stroke-linecap="round" stroke-linejoin="round"/>
<path d="M60.444 57.5795C63.4173 57.6367 65.8739 55.2728 65.9311 52.2995C65.9883 49.3263 63.6243 46.8697 60.6511 46.8125C57.6779 46.7553 55.2212 49.1193 55.1641 52.0925C55.1069 55.0657 57.4708 57.5224 60.444 57.5795Z" stroke="#263238" stroke-width="0.435288" stroke-linecap="round" stroke-linejoin="round"/>
<path d="M42.8764 56.9209L39.0181 59.4589" stroke="#263238" stroke-width="0.435288" stroke-linecap="round" stroke-linejoin="round"/>
<path d="M53.388 53.6397L55.3569 53.1334" stroke="#263238" stroke-width="0.435288" stroke-linecap="round" stroke-linejoin="round"/>
<path d="M65.9463 51.4883L68.4487 51.5364" stroke="#263238" stroke-width="0.435288" stroke-linecap="round" stroke-linejoin="round"/>
<path d="M39.2543 55.1144C39.2543 55.1144 41.0927 57.5486 40.3721 59.2501C39.6515 60.9516 37.0684 61.9251 34.376 59.3046C31.6836 56.6842 28.5592 53.4328 27.6584 46.393C25.8964 32.5144 39.8197 20.5048 52.9796 21.7069C57.2257 22.0933 59.4447 23.9733 63.1087 25.4282C63.1087 25.4282 71.2704 28.6719 73.7328 34.2005C76.1951 39.7292 74.0027 46.8793 72.0656 49.5805C70.1285 52.2817 67.5903 50.6961 67.2717 49.8323C66.9531 48.9685 66.1901 43.8165 63.3148 41.876C60.4395 39.9356 58.5045 42.9851 54.7082 44.1094C50.9119 45.2337 50.7728 43.8639 50.7728 43.8639C50.7728 43.8639 50.4071 45.224 49.2059 45.2009C48.0048 45.1778 46.1695 43.2617 44.2586 43.9215C42.2295 44.6139 42.5154 45.599 41.8255 45.9297L41.1312 46.2603C41.1312 46.2603 38.3313 50.1334 39.2543 55.1144Z" fill="#B2B2B2"/>
<path d="M39.1891 54.6165C38.9309 52.6521 39.1607 50.6543 39.8582 48.7998L39.8191 48.7991C37.563 49.7483 36.4609 49.1046 34.7582 47.0865C33.0555 45.0685 32.135 47.6587 29.5334 47.108C28.8022 46.939 28.1399 46.5511 27.6348 45.9961C27.6323 46.1223 27.656 46.249 27.671 46.3756C27.9537 48.9677 28.7268 51.4825 29.9492 53.7858C31.2052 54.8069 32.6451 56.4499 33.9381 57.1321C35.9078 58.167 36.6783 56.8148 37.954 55.2241C38.1012 55.0367 38.2886 54.8848 38.5024 54.7796C38.7162 54.6745 38.9509 54.6187 39.1891 54.6165Z" fill="#D9D9D9"/>
<path d="M73.7498 34.2C73.3158 33.242 72.7464 32.3514 72.0592 31.5553C71.6832 33.2199 70.8068 33.7429 69.903 35.4626C68.7458 37.6781 70.6778 40.4494 68.6694 41.6516C67.2072 42.5247 65.2453 42.6698 64.2959 42.682C65.9676 44.4992 66.7033 47.4477 67.0834 48.9658C67.5469 48.9003 67.9769 48.6872 68.3097 48.3581C69.3231 47.5068 69.9411 47.5187 72.3186 46.8199C72.9997 46.5751 73.583 46.1157 73.9807 45.511C74.9717 42.2038 75.3732 37.8491 73.7498 34.2Z" fill="#D9D9D9"/>
<path d="M50.7899 43.864C51.0543 42.6348 51.0647 41.3646 50.8204 40.1313C50.5761 38.898 50.0823 37.7277 49.3692 36.6922C46.9358 33.0537 42.0342 33.2424 39.1523 35.9516C35.1618 39.7017 38.3342 44.5344 40.6064 45.2311C42.8787 45.9279 45.2851 43.7276 44.5882 41.9336C43.9785 40.3545 42.9938 39.9437 42.1066 40.7974" fill="#B2B2B2"/>
<path d="M50.7899 43.864C51.0543 42.6348 51.0647 41.3646 50.8204 40.1313C50.5761 38.898 50.0823 37.7277 49.3692 36.6922C46.9358 33.0537 42.0342 33.2424 39.1523 35.9516C35.1618 39.7017 38.3342 44.5344 40.6064 45.2311C42.8787 45.9279 45.2851 43.7276 44.5882 41.9336C43.9785 40.3545 42.9938 39.9437 42.1066 40.7974" stroke="#969696" stroke-width="0.435288" stroke-linecap="round" stroke-linejoin="round"/>
<path d="M51.8236 44.4677C51.8236 44.4677 55.0981 43.9864 56.8013 40.3186C59.2811 34.9764 56.4539 30.0807 52.7798 28.704" stroke="#969696" stroke-width="0.435288" stroke-linecap="round" stroke-linejoin="round"/>
<path d="M61.4071 41.2023C61.4071 41.2023 66.8839 39.6227 65.0046 32.5249" stroke="#969696" stroke-width="0.435288" stroke-linecap="round" stroke-linejoin="round"/>
<path d="M31.2285 40.043C31.2285 40.043 31.9783 48.5993 41.1227 46.2457" stroke="#969696" stroke-width="0.435288" stroke-linecap="round" stroke-linejoin="round"/>
<path d="M65.2188 44.0721C65.2188 44.0721 68.3008 47.9408 73.517 42.7078" stroke="#969696" stroke-width="0.435288" stroke-linecap="round" stroke-linejoin="round"/>
<path d="M39.2543 55.1144C39.2543 55.1144 41.0927 57.5486 40.3721 59.2501C39.6515 60.9516 37.0684 61.9251 34.376 59.3046C31.6836 56.6842 28.5592 53.4328 27.6584 46.393C25.8964 32.5144 39.8197 20.5048 52.9796 21.7069C57.2257 22.0933 59.4447 23.9733 63.1087 25.4282C63.1087 25.4282 71.2704 28.6719 73.7328 34.2005C76.1951 39.7292 74.0027 46.8793 72.0656 49.5805C70.1285 52.2817 67.5903 50.6961 67.2717 49.8323C66.9531 48.9685 66.1901 43.8165 63.3148 41.876C60.4395 39.9356 58.5045 42.9851 54.7082 44.1094C50.9119 45.2337 50.7728 43.8639 50.7728 43.8639C50.7728 43.8639 50.4071 45.2239 49.2059 45.2009C48.0048 45.1778 46.1695 43.2617 44.2586 43.9215C42.2295 44.6139 42.5154 45.599 41.8255 45.9297L41.1312 46.2603C41.1312 46.2603 38.3313 50.1334 39.2543 55.1144Z" stroke="#5C5C5C" stroke-width="0.435288" stroke-miterlimit="10"/>
<path d="M122.342 81.3061C122.342 81.3061 119.694 79.2786 117.235 82.2006C114.776 85.1225 115.624 85.1344 115.624 85.1344L120.105 87.3409C120.105 87.3409 122.973 84.0045 122.342 81.3061Z" fill="white" stroke="#263238" stroke-width="0.435288" stroke-linecap="round" stroke-linejoin="round"/>
<path d="M127.45 164.48C128.079 157.174 126.344 154.088 126.344 154.088C126.344 154.088 123.055 155.331 120.419 156.587C117.782 157.842 113.393 159.717 98.223 156.16C83.0535 152.603 76.4501 145.075 76.4501 145.075C76.4501 145.075 53.2555 152.901 42.0526 167.893L42.6203 168.025L67.0406 172.305C88.1333 174.617 106.279 172.58 123.524 166.011C124.852 165.514 126.16 165.004 127.45 164.48Z" fill="#263238" stroke="#263238" stroke-width="0.435288" stroke-linecap="round" stroke-linejoin="round"/>
<path d="M96.7057 82.932C96.7057 82.932 83.5162 85.0816 77.8923 90.9119C72.2684 96.7422 69.8669 103.901 69.4229 105.025C68.979 106.148 60.0496 114.754 60.0496 114.754L75.9602 147.69C75.9602 147.69 87.012 161.617 110.047 160.945C123.351 160.557 126.548 155.468 127.145 154.77C127.742 154.072 128.917 143.484 128.917 143.484C128.917 143.484 137.216 145.481 141.512 142.594C145.807 139.708 141.956 126.93 140.544 119.536C139.132 112.143 134.472 97.0894 129.623 92.046C124.774 87.0026 116.354 83.5929 112.417 82.5289C108.48 81.4649 96.7057 82.932 96.7057 82.932Z" fill="#F17C7C" stroke="#263238" stroke-width="0.435288" stroke-linecap="round" stroke-linejoin="round"/>
<path d="M77.1328 104.635C77.2636 108.246 77.6731 113.897 78.9073 118.993" stroke="#263238" stroke-width="0.435288" stroke-linecap="round" stroke-linejoin="round"/>
<path d="M77.0781 100.896C77.0781 100.896 77.0655 101.554 77.0832 102.673" stroke="#263238" stroke-width="0.435288" stroke-linecap="round" stroke-linejoin="round"/>
<path d="M128.317 87.5294C128.317 87.5294 129.768 86.7823 130.726 88.5683C131.684 90.3543 130.212 92.6422 129.081 93.7219C127.95 94.8017 127.206 93.6859 126.89 92.9092C126.574 92.1325 128.317 87.5294 128.317 87.5294Z" fill="white" stroke="#263238" stroke-width="0.435288" stroke-linecap="round" stroke-linejoin="round"/>
<path d="M125.37 84.3327C125.37 84.3327 127.225 83.3801 128.457 85.6633C129.689 87.9466 127.791 90.875 126.349 92.2665C124.907 93.6581 123.947 92.2203 123.543 91.2243C123.14 90.2282 125.37 84.3327 125.37 84.3327Z" fill="white" stroke="#263238" stroke-width="0.435288" stroke-linecap="round" stroke-linejoin="round"/>
<path d="M122.434 82.5823C122.434 82.5823 124.294 81.6254 125.521 83.9129C126.749 86.2004 124.855 89.1245 123.413 90.5161C121.972 91.9077 121.011 90.4699 120.608 89.4695C120.205 88.4691 122.434 82.5823 122.434 82.5823Z" fill="white" stroke="#263238" stroke-width="0.435288" stroke-linecap="round" stroke-linejoin="round"/>
<path d="M118.907 82.3632C118.907 82.3632 116.818 87.9828 117.503 89.2629C118.189 90.543 120.018 90.7262 121.198 88.202C122.379 85.6778 122.994 82.8771 122.341 81.3059C121.688 79.7347 119.672 80.41 118.807 81.238" fill="white"/>
<path d="M118.907 82.3632C118.907 82.3632 116.818 87.9828 117.503 89.2629C118.189 90.543 120.018 90.7262 121.198 88.202C122.379 85.6778 122.994 82.8771 122.341 81.3059C121.688 79.7347 119.672 80.41 118.807 81.238" stroke="#263238" stroke-width="0.435288" stroke-linecap="round" stroke-linejoin="round"/>
<path d="M118.678 114.902C119.922 118.118 123.526 134.443 124.174 138.374" stroke="#263238" stroke-width="0.435288" stroke-linecap="round" stroke-linejoin="round"/>
<path d="M118.071 108.652C118.098 110.182 118.233 111.708 118.475 113.218" stroke="#263238" stroke-width="0.435288" stroke-linecap="round" stroke-linejoin="round"/>
<path d="M102.439 106.46L100.16 104.784C100.111 104.749 100.056 104.726 99.9977 104.715C99.9393 104.704 99.8792 104.706 99.8216 104.72L65.875 113.593L50.2604 101.264C50.1401 101.168 49.9977 101.103 49.8462 101.076C49.6947 101.049 49.5389 101.06 49.3926 101.108L47.3858 101.775L70.3293 161.57L72.0701 161.603L105.549 148.751L102.439 106.46Z" fill="white" stroke="#263238" stroke-width="0.435288" stroke-linecap="round" stroke-linejoin="round"/>
<path d="M65.8506 114.902C65.8506 114.902 71.3116 163.045 71.4636 162.613C71.6156 162.18 102.291 151.825 106.844 150.284C107.005 150.231 107.143 150.124 107.237 149.982C107.331 149.841 107.374 149.671 107.359 149.502L103.994 105.809C103.985 105.697 103.952 105.589 103.896 105.492C103.841 105.394 103.765 105.31 103.674 105.245C103.582 105.18 103.478 105.136 103.368 105.116C103.258 105.096 103.144 105.1 103.036 105.129L65.8506 114.902Z" fill="#FF6D6D" stroke="#263238" stroke-width="0.435288" stroke-linecap="round" stroke-linejoin="round"/>
<path d="M68.6316 117.44C68.6316 117.44 73.3592 159.126 73.497 158.75C73.6349 158.374 100.186 149.411 104.13 148.081C104.269 148.032 104.388 147.94 104.469 147.817C104.55 147.694 104.589 147.548 104.579 147.401L101.662 109.568C101.654 109.472 101.625 109.378 101.577 109.294C101.529 109.21 101.464 109.137 101.385 109.081C101.306 109.024 101.216 108.986 101.12 108.968C101.025 108.951 100.927 108.954 100.833 108.978L68.6316 117.44Z" fill="white" stroke="#263238" stroke-width="0.435288" stroke-linecap="round" stroke-linejoin="round"/>
<path d="M64.4065 114.584L70.4576 162.156L50.1891 139.17C50.1634 139.141 50.1474 139.104 50.1433 139.065L46.7175 101C46.7154 100.965 46.7234 100.93 46.7406 100.899C46.7579 100.869 46.7836 100.844 46.8147 100.827C46.8458 100.811 46.881 100.804 46.916 100.807C46.951 100.81 46.9844 100.823 47.0122 100.845L64.4065 114.584Z" fill="#FF6D6D" stroke="#263238" stroke-width="0.435288" stroke-linecap="round" stroke-linejoin="round"/>
<path d="M63.7338 116.536L69.0852 158.608L51.1515 138.28C51.129 138.254 51.1145 138.222 51.1097 138.188L48.0823 104.541C48.08 104.51 48.0868 104.479 48.1019 104.452C48.1169 104.424 48.1395 104.402 48.167 104.387C48.1944 104.373 48.2256 104.366 48.2566 104.369C48.2876 104.372 48.3172 104.383 48.3418 104.402L63.7338 116.536Z" fill="white" stroke="#263238" stroke-width="0.435288" stroke-linecap="round" stroke-linejoin="round"/>
<path d="M63.1684 117.153C63.1684 117.153 63.1688 119.625 65.6417 119.621C68.1147 119.616 67.9558 117.014 67.9558 117.014" stroke="#263238" stroke-width="0.870576" stroke-linecap="round" stroke-linejoin="round"/>
<path d="M63.7533 122.061C63.7533 122.061 63.7536 124.534 66.2266 124.529C68.6996 124.525 68.5407 121.918 68.5407 121.918" stroke="#263238" stroke-width="0.870576" stroke-linecap="round" stroke-linejoin="round"/>
<path d="M64.3383 126.969C64.3383 126.969 64.3387 129.438 66.8117 129.433C69.2846 129.429 69.1257 126.826 69.1257 126.826" stroke="#263238" stroke-width="0.870576" stroke-linecap="round" stroke-linejoin="round"/>
<path d="M64.9232 131.874C64.9232 131.874 64.9235 134.347 67.3965 134.342C69.8695 134.337 69.7107 131.731 69.7107 131.731" stroke="#263238" stroke-width="0.870576" stroke-linecap="round" stroke-linejoin="round"/>
<path d="M65.5082 136.784C65.5082 136.784 65.5129 139.252 67.9816 139.248C70.4502 139.243 70.2956 136.641 70.2956 136.641" stroke="#263238" stroke-width="0.870576" stroke-linecap="round" stroke-linejoin="round"/>
<path d="M66.0931 141.69C66.0931 141.69 66.0978 144.163 68.5665 144.158C71.0351 144.154 70.8806 141.547 70.8806 141.547" stroke="#263238" stroke-width="0.870576" stroke-linecap="round" stroke-linejoin="round"/>
<path d="M66.6644 146.598C66.6644 146.598 66.6692 149.067 69.1377 149.067C71.6063 149.066 71.4519 146.455 71.4519 146.455" stroke="#263238" stroke-width="0.870576" stroke-linecap="round" stroke-linejoin="round"/>
<path d="M139.92 134.61C139.92 134.61 132.414 132.581 127.943 131.189C123.473 129.797 120.514 132.644 119.155 135.373C117.797 138.103 118.298 142.179 120.291 144.246C122.284 146.313 129.614 149.798 134.668 151.201C139.722 152.605 145.127 150.675 146.387 145.619C147.646 140.562 142.238 134.947 142.238 134.947" fill="#FF6D6D"/>
<path d="M139.92 134.61C139.92 134.61 132.414 132.581 127.943 131.189C123.473 129.797 120.514 132.644 119.155 135.373C117.797 138.103 118.298 142.179 120.291 144.246C122.284 146.313 129.614 149.798 134.668 151.201C139.722 152.605 145.127 150.675 146.387 145.619C147.646 140.562 142.238 134.947 142.238 134.947" stroke="#263238" stroke-width="0.435288" stroke-linecap="round" stroke-linejoin="round"/>
<path d="M115.756 138.5C115.756 138.5 117.166 140.56 118.907 140.593C120.647 140.627 123.033 137.481 123.08 135.014C123.128 132.546 120.239 131.768 119.236 131.165C118.233 130.563 110.108 122.718 108.4 120.943C106.693 119.169 105.26 118.271 103.655 118.675C102.049 119.08 96.63 121.736 94.8501 123.73C93.0703 125.725 93.6394 126.467 94.3647 126.333C95.09 126.199 96.711 125.22 97.1518 124.937C97.5926 124.654 100.819 122.831 100.819 122.831C100.819 122.831 96.6915 126.234 95.648 127.52C94.6045 128.806 95.019 130.12 96.3329 129.71C97.6469 129.3 99.2749 127.734 100.003 127.46C100.731 127.187 103.074 126.213 103.074 126.213C103.074 126.213 99.0906 129.62 98.4866 130.914C97.8827 132.209 98.5913 132.945 99.3181 132.959C100.045 132.973 101.977 130.546 102.42 130.119C103.318 129.46 104.25 128.847 105.211 128.283C105.211 128.283 102.528 132.006 101.646 132.568C100.765 133.131 102.045 134.466 103.362 133.908C104.679 133.349 107.634 130.655 107.634 130.655C107.634 130.655 108.873 134.162 110.442 135.641C112.012 137.121 115.043 137.763 115.043 137.763L115.756 138.5Z" fill="white" stroke="#263238" stroke-width="0.435288" stroke-linecap="round" stroke-linejoin="round"/>
<path d="M103.075 126.215L106.348 123.522C106.539 123.395 106.768 123.338 106.996 123.363C107.225 123.389 107.436 123.493 107.595 123.659" stroke="#263238" stroke-width="0.435288" stroke-miterlimit="10"/>
<path d="M105.212 128.283C105.212 128.283 106.518 126.48 107.541 126.499" stroke="#263238" stroke-width="0.435288" stroke-miterlimit="10"/>
<path d="M100.819 122.831L104.477 120.289C104.705 120.199 104.954 120.175 105.194 120.22C105.435 120.264 105.659 120.376 105.839 120.542" stroke="#263238" stroke-width="0.435288" stroke-linecap="round" stroke-linejoin="round"/>
<path d="M119.235 131.166C119.146 131.11 119.06 131.048 118.978 130.982C119.216 132.393 119.279 135.69 115.601 138.34L115.755 138.5C115.755 138.5 117.165 140.56 118.906 140.594C120.647 140.627 123.032 137.482 123.08 135.014C123.127 132.546 120.238 131.768 119.235 131.166Z" fill="white" stroke="#263238" stroke-width="0.435288" stroke-linecap="round" stroke-linejoin="round"/>
<path d="M89.4179 87.0188C89.4179 87.0188 86.5696 95.445 86.6382 99.1209C86.7069 102.797 88.6815 103.122 90.2532 102.443C91.8249 101.763 97.6865 98.062 97.6865 98.062C97.6865 98.062 104.318 105.965 106.309 105.438C108.3 104.91 115.513 97.2729 115.913 90.9242C116.314 84.5755 112.607 79.2668 111.365 78.3939C110.124 77.5211 107.737 75.7816 104.05 76.416C100.363 77.0504 93.776 80.8986 89.4179 87.0188Z" fill="white" stroke="#263238" stroke-width="0.435288" stroke-linecap="round" stroke-linejoin="round"/>
<path d="M92.0588 89.3472C92.0588 89.3472 96.3497 101.442 97.4883 101.324C98.6269 101.207 101.372 97.4413 104.258 93.4C107.144 89.3587 108.815 84.445 109.006 81.7625C109.196 79.0799 107.155 75.2225 107.155 75.2225C107.155 75.2225 101.923 82.6146 97.2009 85.4799C92.4787 88.3452 92.0588 89.3472 92.0588 89.3472Z" fill="white" stroke="#263238" stroke-width="0.435288" stroke-linecap="round" stroke-linejoin="round"/>
<path d="M107.172 75.2189C107.172 75.2189 101.941 82.611 97.2183 85.4763C92.4961 88.3417 92.059 89.3346 92.059 89.3346C92.059 89.3346 92.53 90.6498 93.1967 92.4302L93.6961 92.2744C97.2545 91.0672 101.388 89.1701 104.125 86.5365C106.862 83.9029 107.786 79.9632 107.8 79.2581L107.824 77.983C107.824 77.983 108 77.9167 108.264 77.7781C107.955 76.9026 107.59 76.0478 107.172 75.2189Z" fill="#263238" stroke="#263238" stroke-width="0.435288" stroke-linecap="round" stroke-linejoin="round"/>
<path d="M80.2942 61.557C80.2942 61.557 79.5519 70.729 80.1824 74.8423C80.813 78.9556 84.7116 88.3562 86.4057 89.2377C88.0997 90.1193 90.1926 90.8648 93.7465 89.6619C97.3005 88.459 101.438 86.5576 104.175 83.924C106.912 81.2904 107.837 77.3507 107.85 76.6457L107.875 75.3749C107.875 75.3749 112.003 73.7563 113.203 69.9612C114.404 66.1661 113.461 64.0321 112.898 63.1723C112.336 62.3125 98.5631 58.7998 94.8927 58.5856C91.2223 58.3713 81.2407 56.4858 80.2942 61.557Z" fill="white" stroke="#263238" stroke-width="0.435288" stroke-linecap="round" stroke-linejoin="round"/>
<path d="M102.91 60.7209C102.91 60.7209 104.615 68.512 106.333 67.2737C108.05 66.0355 109.801 63.5222 111.085 62.8416C112.369 62.161 111.853 59.6042 109.597 59.4215C107.34 59.2388 103.23 57.9276 102.91 60.7209Z" fill="white" stroke="#BFBFBF" stroke-width="0.435288" stroke-linecap="round" stroke-linejoin="round"/>
<path d="M87.5291 67.4924C87.5291 67.4924 86.5545 74.2567 86.6692 75.5345C86.7839 76.8123 89.0254 77.9787 90.0215 77.5755C91.0175 77.1724 91.6295 74.7809 91.6295 74.7809C91.6295 74.7809 94.9997 76.117 95.6585 78.5329" stroke="#263238" stroke-width="0.435288" stroke-linecap="round" stroke-linejoin="round"/>
<path d="M86.6696 75.5341C86.6696 75.5341 84.1118 76.3295 83.9328 78.1633" stroke="#263238" stroke-width="0.435288" stroke-linecap="round" stroke-linejoin="round"/>
<path d="M85.037 79.6009C85.037 79.6009 90.6512 81.9728 94.0915 79.2091" stroke="#263238" stroke-width="0.435288" stroke-linecap="round" stroke-linejoin="round"/>
<path d="M94.8514 69.1179C94.8386 69.7794 94.4801 70.3123 94.0492 70.304C93.6184 70.2958 93.2806 69.7494 93.2933 69.0879C93.306 68.4264 93.6646 67.8934 94.0954 67.9017C94.5263 67.91 94.8642 68.452 94.8514 69.1179Z" fill="#263238"/>
<path d="M92.1543 69.7012C93.4503 70.23 94.8755 70.356 96.2442 70.0628" stroke="#263238" stroke-width="0.435288" stroke-linecap="round" stroke-linejoin="round"/>
<path d="M85.0355 68.5748C85.0228 69.2363 84.6642 69.7693 84.2377 69.7611C83.8112 69.7529 83.4691 69.2064 83.4818 68.5449C83.4945 67.8834 83.8531 67.3504 84.2839 67.3587C84.7148 67.367 85.0483 67.9089 85.0355 68.5748Z" fill="#263238"/>
<path d="M82.3379 69.1582C83.6352 69.6879 85.0621 69.814 86.4321 69.5199" stroke="#263238" stroke-width="0.435288" stroke-linecap="round" stroke-linejoin="round"/>
<path d="M91.8525 70.6836C92.409 71.472 93.1406 72.1208 93.9899 72.579C94.8392 73.0372 95.7831 73.2924 96.7475 73.3246" stroke="#263238" stroke-width="0.435288" stroke-linecap="round" stroke-linejoin="round"/>
<path d="M86.3447 70.4374C86.0154 71.2131 85.453 71.8671 84.7355 72.3089C84.0179 72.7506 83.1806 72.9582 82.3398 72.9029" stroke="#263238" stroke-width="0.435288" stroke-linecap="round" stroke-linejoin="round"/>
<path d="M79.3418 59.7028C79.3418 59.7028 76.4253 56.9605 76.4715 54.5581C76.5177 52.1558 83.8437 45.6529 90.4156 43.5023C96.9875 41.3517 103.693 44.0406 107.332 46.7925C110.971 49.5443 115.377 54.7229 116.31 57.8494C117.242 60.9758 114.789 63.3362 113.935 63.5984C113.081 63.8607 102.399 60.8341 99.2996 60.3521C96.2004 59.8702 84.8759 58.5379 79.3418 59.7028Z" fill="#999999" stroke="#263238" stroke-width="0.435288" stroke-linecap="round" stroke-linejoin="round"/>
<path d="M102.91 60.7228C102.91 60.7228 91.9539 57.8999 84.9953 58.2015C78.0367 58.503 73.7656 61.9038 79.3785 63.8882C84.9915 65.8726 102.91 60.7228 102.91 60.7228Z" fill="#999999" stroke="#263238" stroke-width="0.435288" stroke-linecap="round" stroke-linejoin="round"/>
<path d="M84.0752 56.2598C88.7071 56.6975 93.2544 57.7845 97.5835 59.4887" stroke="#263238" stroke-width="0.435288" stroke-linecap="round" stroke-linejoin="round"/>
<path d="M90.8503 63.8804C90.8503 63.8804 90.6082 61.7555 93.5818 61.5297C96.5553 61.3039 99.3227 64.3263 99.443 65.3169C99.5633 66.3075 98.6154 64.4302 95.9461 63.5517C93.2768 62.6732 92.1157 64.1877 90.8503 63.8804Z" fill="white" stroke="#BFBFBF" stroke-width="0.435288" stroke-linecap="round" stroke-linejoin="round"/>
<path d="M86.4662 63.6545C86.5031 63.3602 86.4793 63.0615 86.3966 62.7767C86.3138 62.4919 86.1736 62.227 85.9848 61.9983C85.7959 61.7696 85.5623 61.582 85.2983 61.4468C85.0343 61.3117 84.7455 61.2319 84.4495 61.2125C82.1701 60.8856 79.937 63.8119 79.8091 64.8021C79.6812 65.7923 80.4783 63.966 82.5618 63.1571C84.6454 62.3482 85.4816 63.9185 86.4662 63.6545Z" fill="white" stroke="#BFBFBF" stroke-width="0.435288" stroke-linecap="round" stroke-linejoin="round"/>
<path d="M45.8464 119.84C45.7328 120.262 45.7161 120.705 45.7975 121.134C45.879 121.564 46.0565 121.97 46.3168 122.321C47.2107 123.379 49.2009 123.801 49.6802 123.557C50.643 123.071 48.0423 120.661 48.0423 120.661L45.8464 119.84Z" fill="white" stroke="#263238" stroke-width="0.435288" stroke-linecap="round" stroke-linejoin="round"/>
<path d="M45.2373 116.832C45.2373 116.832 45.1997 118.786 45.8325 119.839C46.4653 120.892 48.918 121.718 49.9631 121.481C51.0082 121.244 50.1337 119.399 48.978 118.598C47.8223 117.796 45.2373 116.832 45.2373 116.832Z" fill="white" stroke="#263238" stroke-width="0.435288" stroke-linecap="round" stroke-linejoin="round"/>
<path d="M45.9614 113.856C45.5939 114.813 45.355 115.814 45.2511 116.834C45.2286 118.004 47.9367 119.358 49.2429 119.126C50.5491 118.895 50.0494 117.71 49.6746 117.049C49.2999 116.389 47.5013 115.057 47.5013 115.057L45.9614 113.856Z" fill="white" stroke="#263238" stroke-width="0.435288" stroke-linecap="round" stroke-linejoin="round"/>
<path d="M47.6182 111.031C47.6182 111.031 45.2743 111.117 44.972 112.8C44.6697 114.484 46.7229 116.608 48.8212 116.392C50.9195 116.175 47.6182 111.031 47.6182 111.031Z" fill="white" stroke="#263238" stroke-width="0.435288" stroke-linecap="round" stroke-linejoin="round"/>
<path d="M38.608 51.1518C38.608 51.1518 35.0354 53.3209 30.751 49.7207" stroke="#969696" stroke-width="0.435288" stroke-linecap="round" stroke-linejoin="round"/>
</g>
</svg>
