<svg width="167" height="164" viewBox="0 0 167 164" fill="none" xmlns="http://www.w3.org/2000/svg">
<path d="M98.2238 32.7592L90.8216 36.9065L80.9062 28.6163L85.6397 22.6973L98.2238 32.7592Z" fill="white" stroke="#263238" stroke-width="0.444039" stroke-miterlimit="10"/>
<path d="M43.5277 124.083C43.5277 124.083 43.1547 125.944 47.4353 126.303C50.0598 126.535 52.6701 126.907 55.2548 127.418C55.2548 127.418 49.8553 121.09 50.7878 115.131C51.7203 109.172 48.7408 111.033 46.8758 115.131C45.5964 118.052 44.4787 121.04 43.5277 124.083Z" fill="#A5E1FE" stroke="#263238" stroke-width="0.444039" stroke-miterlimit="10"/>
<path d="M86.5373 51.3015C86.5373 51.3015 85.9778 61.7275 86.9058 64.334C87.8339 66.9405 96.9633 85.3725 99.1968 87.979C100.296 89.1985 101.293 90.507 102.176 91.891C102.176 91.891 98.2644 91.145 95.0984 93.0056C91.9324 94.8661 91.5461 99.897 91.7503 102.504C91.9546 105.11 88.5843 117.21 82.9983 120.936C77.4123 124.661 67.7323 126.708 62.5193 123.356C57.3062 120.003 50.2283 120.003 47.4219 120.936C45.7736 121.473 44.3819 122.6 43.5144 124.102C43.5144 124.102 41.09 113.303 46.4895 100.452C51.889 87.6016 55.0683 69.9111 55.0683 69.9111C55.0683 69.9111 82.4388 50.5466 82.8118 49.4276C83.1848 48.3086 86.7194 46.0884 86.5373 51.3015Z" fill="#A5E1FE" stroke="#263238" stroke-width="0.444039" stroke-miterlimit="10"/>
<path d="M82.3271 73.1816C82.4826 74.1008 82.6691 75.0155 82.8955 75.9169" stroke="#263238" stroke-width="0.444039" stroke-miterlimit="10"/>
<path d="M82.1989 55.9023C81.5546 60.7717 81.4756 65.6992 81.9635 70.5867" stroke="#263238" stroke-width="0.444039" stroke-miterlimit="10"/>
<path d="M55.5254 99.4277C55.5816 101.378 55.7835 103.32 56.1293 105.24" stroke="#263238" stroke-width="0.444039" stroke-miterlimit="10"/>
<path d="M59.6244 72.8906C59.6244 72.8906 55.8456 84.5111 55.5215 96.1582" stroke="#263238" stroke-width="0.444039" stroke-miterlimit="10"/>
<path d="M77.057 57.4785L75.5783 67.5449C75.5783 67.5449 84.1616 92.1135 84.7522 93.8897C85.3427 95.6658 103.109 105.732 104.29 106.025C105.471 106.318 119.094 112.242 119.094 112.242L103.997 132.077L78.5356 122.308H74.3927C72.6166 122.308 68.7668 118.165 68.7668 117.277V107.801C68.7668 107.801 66.9906 98.0325 66.9906 90.9279C66.9906 83.8233 67.2881 71.0972 67.2881 71.0972L66.1025 63.3975L77.057 57.4785Z" fill="white" stroke="#263238" stroke-width="0.444039" stroke-miterlimit="10"/>
<path d="M90.5247 33.9459C87.361 32.2376 84.3845 30.2032 81.6439 27.8759C77.3545 24.177 73.9487 23.289 71.7285 24.3236C69.5083 25.3582 68.0297 28.1734 68.0297 28.1734C68.0297 28.1734 64.1799 29.208 62.2572 31.2816C60.3345 33.3553 52.4884 43.1242 51.4493 46.0814C50.4103 49.0387 50.1172 49.9313 50.1172 49.9313C50.1172 49.9313 70.6939 37.3517 76.613 35.5755C82.532 33.7993 89.4901 36.9076 90.8222 36.9076C92.1543 36.9076 92.5984 36.6101 90.5247 33.9459Z" fill="#A5E1FE" stroke="#263238" stroke-width="0.444039" stroke-miterlimit="10"/>
<path d="M68.0293 28.1725C68.0293 28.1725 75.7245 27.2845 84.1612 32.1689" stroke="#263238" stroke-width="0.444039" stroke-miterlimit="10"/>
<path d="M36.5027 70.8008C36.5027 70.8008 19.0342 74.0556 16.37 74.0556C13.7057 74.0556 8.0842 74.3531 5.5665 73.7625C3.0488 73.172 0.384574 73.3185 1.12612 77.9054C1.86766 82.4923 2.87563 82.1371 2.75574 85.4541C2.66249 87.9984 4.23439 94.4813 6.30805 95.8135C8.38171 97.1456 9.26534 96.111 8.97228 93.3002C8.67921 90.4895 10.7484 84.2685 11.783 83.0873C12.5429 82.2618 13.3867 81.5177 14.3007 80.8671C14.3007 80.8671 24.5136 81.4577 29.9886 82.0483C35.4636 82.6388 38.5719 83.6779 39.3134 83.6779C40.055 83.6779 42.8657 78.6469 41.8311 75.6852C41.8311 75.6852 40.9431 72.4304 36.5027 70.8008Z" fill="white" stroke="#263238" stroke-width="0.444039" stroke-miterlimit="10"/>
<path d="M13.5858 81.4088C12.9908 81.169 10.3843 80.1255 9.86035 80.1255C9.33639 80.1255 4.94041 78.0607 7.49807 74.0244C6.84865 73.9847 6.20304 73.8971 5.5665 73.7624C3.0488 73.1674 0.384574 73.3184 1.12612 77.9053C1.86766 82.4922 3.03104 83.5535 2.75574 85.454C2.38719 87.9717 4.23439 94.4813 6.30805 95.8134C8.38171 97.1455 9.26534 96.1109 8.97228 93.3001C8.67921 90.4894 10.7484 84.2684 11.783 83.0872C12.3341 82.4765 12.9373 81.9149 13.5858 81.4088Z" fill="white" stroke="#263238" stroke-width="0.444039" stroke-miterlimit="10"/>
<path d="M4.7629 86.2229C4.7629 82.9237 3.19101 81.8225 2.71588 76.9514C2.56506 75.8443 2.59054 74.7202 2.79137 73.6211C1.49922 73.9497 0.673307 75.0909 1.12623 77.9061C1.86777 82.493 3.03115 83.5542 2.75585 85.4547C2.38729 87.9724 4.23449 94.482 6.30815 95.8141C6.76591 96.1651 7.32138 96.3653 7.89781 96.3869C5.58881 93.6561 4.7629 89.3179 4.7629 86.2229Z" fill="white" stroke="#263238" stroke-width="0.444039" stroke-miterlimit="10"/>
<path d="M33.0967 81.5101C33.0967 81.5101 34.2512 82.8733 38.9713 83.2863C43.6914 83.6992 47.9897 84.7516 50.5163 85.1734C53.0429 85.5953 55.2364 86.0127 55.867 85.0669C56.4975 84.1211 55.7604 84.3342 50.201 81.2926C44.6417 78.2509 36.9865 79.2988 35.6233 79.5164C34.2601 79.734 33.0967 81.5101 33.0967 81.5101Z" fill="#263238" stroke="#263238" stroke-width="0.444039" stroke-miterlimit="10"/>
<path d="M51.8933 82.644C51.8933 82.644 53.0789 84.8642 49.5266 87.0844C45.9743 89.3046 25.251 102.475 25.251 102.475C25.251 102.475 26.2901 110.618 27.0272 113.132C27.7643 115.645 29.5449 116.537 28.9543 117.572C28.3637 118.607 25.1045 118.904 21.5522 116.981C17.9999 115.059 11.4858 106.915 11.0418 105.29C10.5977 103.665 16.6677 99.664 16.6677 99.664C16.6677 99.664 19.332 98.1853 21.6987 96.5557C24.0654 94.9261 28.2127 87.8215 31.1745 85.6013C34.1362 83.3811 36.352 82.7905 36.352 82.7905L36.6495 79.5357C36.6495 79.5357 47.4529 76.8715 51.8933 82.644Z" fill="white" stroke="#263238" stroke-width="0.444039" stroke-miterlimit="10"/>
<path d="M21.6987 102.771C20.7197 103.395 19.8671 104.198 19.1854 105.138C19.1854 105.138 17.9333 101.932 16.9653 99.4941L16.6677 99.6629C16.6677 99.6629 10.5977 103.659 11.0418 105.289C11.4858 106.918 17.9999 115.058 21.5522 116.98C25.1045 118.903 28.3593 118.61 28.9543 117.571C29.5493 116.532 27.7687 115.648 27.0272 113.131C26.2856 110.613 25.251 102.474 25.251 102.474C25.251 102.474 23.3283 101.737 21.6987 102.771Z" fill="white" stroke="#263238" stroke-width="0.444039" stroke-miterlimit="10"/>
<path d="M28.9541 117.571C29.0229 117.45 29.0623 117.315 29.0692 117.176C29.0762 117.037 29.0504 116.899 28.9941 116.771C25.937 116.728 23.0086 115.534 20.7927 113.428C17.1205 110.018 13.244 104.991 12.0451 103.393C11.3391 104.103 10.8951 104.805 11.0416 105.289C11.4856 106.914 17.9997 115.057 21.552 116.98C25.1043 118.903 28.3591 118.61 28.9541 117.571Z" fill="white" stroke="#263238" stroke-width="0.444039" stroke-miterlimit="10"/>
<path d="M41.9774 55.4587C40.6169 56.4922 39.53 57.8429 38.8114 59.3929C37.093 63.1806 35.5389 68.5801 35.5389 71.0223C35.5389 74.1305 33.3187 80.1251 33.3187 80.1251C33.3187 80.1251 32.2086 82.1232 33.7627 81.6792C35.3169 81.2352 40.2013 80.3471 44.4196 81.0131C47.6922 81.5282 52.7054 84.188 54.788 85.3514C55.1715 85.5737 55.6259 85.6396 56.0568 85.5354C56.4877 85.4311 56.8618 85.1649 57.1014 84.7919C57.227 84.5907 57.2946 84.3586 57.2968 84.1214C57.2968 83.0113 57.5188 77.6829 57.5188 77.6829L67.7317 67.248L51.5243 48.1543L41.9774 55.4587Z" fill="white" stroke="#263238" stroke-width="0.444039" stroke-miterlimit="10"/>
<path d="M41.1696 67.3331C41.1696 67.3331 38.128 75.9297 38.6564 76.8533C39.1848 77.7769 40.9077 76.9865 44.7397 77.7813C48.5718 78.5761 53.3363 78.9713 53.4695 78.0433C53.6027 77.1153 51.8843 66.8047 51.8843 66.8047L41.1696 67.3331Z" fill="white" stroke="#263238" stroke-width="0.444039" stroke-miterlimit="10"/>
<path d="M41.0902 65.6946L40.1133 69.0516C40.1133 69.0516 44.1984 68.5809 47.5287 68.5809C50.859 68.5809 52.4131 69.469 52.4131 69.469V66.1387C52.4131 66.1387 44.6425 64.3625 41.0902 65.6946Z" fill="white" stroke="#263238" stroke-width="0.444039" stroke-miterlimit="10"/>
<path d="M43.4209 58.0742C43.4209 58.0742 51.8843 58.6026 56.2492 61.3823" stroke="#263238" stroke-width="0.444039" stroke-miterlimit="10"/>
<path d="M48.4434 53.709C48.4434 53.709 54.1315 58.3403 57.1732 62.3056" stroke="#263238" stroke-width="0.444039" stroke-miterlimit="10"/>
<path d="M57.5194 77.6825L57.4395 64.6855" stroke="#263238" stroke-width="0.444039" stroke-miterlimit="10"/>
<path d="M103.477 36.6091L104.143 44.8238L95.4842 46.5999L67.7318 67.2477L51.5244 48.1541C51.5244 48.1541 62.8474 38.1632 69.73 35.721C76.6126 33.2788 79.8674 30.3925 86.6789 33.5008C93.4905 36.6091 98.3705 36.8311 98.3705 36.8311L103.477 36.6091Z" fill="#263238" stroke="#263238" stroke-width="0.444039" stroke-miterlimit="10"/>
<path d="M103.744 12.0487C103.988 13.594 104.446 15.1037 104.685 16.649C104.925 18.1942 104.432 19.2466 104.432 20.5832C104.432 21.4091 107.185 22.8033 106.359 24.0245C106.137 24.3786 105.834 24.6752 105.475 24.8905C105.116 25.1057 104.712 25.2334 104.295 25.2633C103.407 25.9249 102.918 29.455 102.558 30.5074C102.199 31.5598 102.092 32.2125 101.195 32.7942C100.054 33.5313 98.1669 33.6823 96.8614 33.7977C93.5578 34.073 90.6671 31.5775 89.5659 30.907C88.4646 30.2365 86.8128 27.3281 86.8128 27.3281C86.8128 27.3281 81.5066 25.361 81.3689 24.9481C81.2313 24.5351 83.6468 16.1783 85.5739 14.8018C87.5011 13.4253 90.1165 6.95117 95.0719 6.95117C100.027 6.95117 103.744 12.0443 103.744 12.0487Z" fill="white" stroke="#263238" stroke-width="0.444039" stroke-miterlimit="10"/>
<path d="M102.581 20.2769C102.665 20.863 102.403 21.3825 101.999 21.4402C101.595 21.498 101.2 21.0717 101.111 20.4811C101.022 19.8905 101.288 19.3755 101.693 19.3177C102.097 19.26 102.501 19.6863 102.581 20.2769Z" fill="#263238"/>
<path d="M100.146 17.4179C100.146 17.4179 101.523 14.5227 103.863 17.6932" stroke="#263238" stroke-width="0.444039" stroke-miterlimit="10"/>
<path d="M102.642 28.2929C102.642 28.2929 98.6458 27.4669 98.2373 24.8516" stroke="#263238" stroke-width="0.444039" stroke-miterlimit="10"/>
<path d="M92.4564 16.0415L91.7948 22.3069L90.6847 20.9482C90.6847 20.9482 91.1287 22.4046 90.5604 22.6799C89.992 22.9552 88.9929 20.1089 88.5799 19.8336C88.167 19.5583 85.596 20.2777 86.4663 24.2296C87.3544 28.3103 87.3544 28.4258 86.5374 28.0839C86.5374 28.0839 86.1244 29.8067 83.922 30.082C81.7195 30.3573 76.1913 24.718 75.1611 22.2936C73.6691 18.7679 75.0501 11.4413 75.0501 11.4413L72.8299 11.579C72.8299 11.579 72.6922 10.6154 73.5182 10.3401C74.3441 10.0648 76.5465 9.23887 76.5465 9.23887C76.3127 8.67835 76.2279 8.06689 76.3003 7.46389C76.3726 6.8609 76.5997 6.28687 76.9595 5.79757C78.2028 4.02142 78.7356 6.89878 78.7356 6.89878C80.6088 4.6236 83.0508 2.88477 85.8136 1.85895C90.3561 0.207125 98.0646 1.44599 98.0646 1.44599L95.4492 1.9966C95.4492 1.9966 100.129 2.13425 102.057 2.68486C103.984 3.23547 107.98 7.08972 106.324 7.22738C105.397 7.29767 104.477 7.43569 103.571 7.64033C103.571 7.64033 107.7 10.3934 107.842 11.6367C107.984 12.88 101.506 12.7379 99.3035 12.8755L95.0363 13.1508C95.0363 13.1508 96.8124 16.1836 96.1375 16.3213C95.4625 16.4589 92.4564 16.0415 92.4564 16.0415Z" fill="#263238" stroke="#263238" stroke-width="0.444039" stroke-miterlimit="10"/>
<path d="M89.9781 22.6473C89.9781 22.6473 88.455 18.0737 86.2659 18.9751C84.3033 19.7832 83.4818 22.7539 85.7508 25.0273C88.0199 27.3008 90.5997 25.538 90.5997 25.538" fill="white"/>
<path d="M89.9781 22.6473C89.9781 22.6473 88.455 18.0737 86.2659 18.9751C84.3033 19.7832 83.4818 22.7539 85.7508 25.0273C88.0199 27.3008 90.5997 25.538 90.5997 25.538" stroke="#263238" stroke-width="0.444039" stroke-miterlimit="10"/>
<path d="M103.553 42.6798L114.21 39.4206C114.21 39.4206 117.167 38.5325 120.129 37.9419C123.091 37.3513 133.45 33.799 133.45 33.799L132.562 29.9492L103.478 36.6098L103.553 42.6798Z" fill="white" stroke="#263238" stroke-width="0.444039" stroke-miterlimit="10"/>
<path d="M137.002 27.2852C137.002 27.2852 139.777 26.8412 140.443 27.2852C141.109 27.7293 142.663 31.5036 142.774 32.3917C142.885 33.2798 138.667 33.7238 138.667 33.7238L137.002 27.2852Z" fill="white" stroke="#263238" stroke-width="0.444039" stroke-miterlimit="10"/>
<path d="M139.333 27.3965C139.333 27.3965 141.886 32.1699 141.886 33.169" stroke="#263238" stroke-width="0.444039" stroke-miterlimit="10"/>
<path d="M137.002 27.2852C137.002 27.2852 139.999 31.9476 140.332 33.3907" stroke="#263238" stroke-width="0.444039" stroke-miterlimit="10"/>
<path d="M137.192 33.3143C137.192 33.3143 137.779 34.7219 138.223 34.9439C138.667 35.1659 141.664 35.499 142.219 35.1659C142.774 34.8329 140.221 33.0567 139.222 32.5017C138.223 31.9467 137.61 32.1287 137.192 33.3143Z" fill="white" stroke="#263238" stroke-width="0.444039" stroke-miterlimit="10"/>
<path d="M87.0479 40.6049L95.4846 46.5994L92.3763 39.0508L87.0479 40.6049Z" fill="#A5E1FE" stroke="#263238" stroke-width="0.444039" stroke-miterlimit="10"/>
<path d="M95.1465 45.627C95.1465 45.627 93.0551 50.2627 91.4299 53.6196C89.8047 56.9766 93.4858 64.8716 93.4858 64.8716C94.9448 63.1395 96.1485 61.2076 97.0603 59.1346C98.3569 55.9997 98.5212 50.4847 98.5212 50.4847L95.1465 45.627Z" fill="#A5E1FE" stroke="#263238" stroke-width="0.444039" stroke-miterlimit="10"/>
<path d="M98.2507 45.3931C98.2507 45.3931 100.2 44.8514 103.664 45.3931C107.127 45.9348 110.155 49.0698 111.456 51.2367C112.757 53.4036 113.401 54.789 113.401 54.789C113.401 54.789 105.502 56.9559 101.497 53.1682C97.4914 49.3806 98.2507 45.3931 98.2507 45.3931Z" fill="#A5E1FE" stroke="#263238" stroke-width="0.444039" stroke-miterlimit="10"/>
<path d="M94.1523 43.2695L95.9285 47.7099C95.9285 47.7099 98.5217 51.1512 98.5217 50.4852C98.5217 49.8191 98.5927 44.6016 98.5927 44.6016L94.1523 43.2695Z" fill="#A5E1FE" stroke="#263238" stroke-width="0.444039" stroke-miterlimit="10"/>
<path d="M98.5931 44.603L101.821 38.2488L98.0336 38.0312L96.626 43.7682L98.5931 44.603Z" fill="#A5E1FE" stroke="#263238" stroke-width="0.444039" stroke-miterlimit="10"/>
<path d="M98.5176 46.6758C101.049 47.7873 103.346 49.3712 105.285 51.3426" stroke="#263238" stroke-width="0.444039" stroke-miterlimit="10"/>
<path d="M96.7371 49.0703C96.7371 49.0703 96.5195 57.7335 93.9219 60.1135" stroke="#263238" stroke-width="0.444039" stroke-miterlimit="10"/>
<path d="M138.907 32.0801C138.907 32.0801 139.476 33.7896 139.001 34.0738C138.525 34.358 135.484 36.3562 135.004 35.4059C134.525 34.4557 136.43 33.2168 136.43 33.2168L138.907 32.0801Z" fill="white" stroke="#263238" stroke-width="0.444039" stroke-miterlimit="10"/>
<path d="M85.4932 33.6489L98.2238 32.7608C98.2238 32.7608 105.475 31.1356 111.838 30.3941C118.201 29.6526 125.603 28.7645 125.603 28.7645C125.603 28.7645 135.967 26.8418 136.704 26.8418C137.441 26.8418 139.368 30.8381 139.368 31.8728C139.368 32.9074 137.299 33.2049 136.26 33.9464C135.452 34.5539 134.46 34.8672 133.449 34.8345C132.682 34.7585 131.933 34.5591 131.229 34.2439C130.014 34.6094 128.779 34.9059 127.53 35.132C125.754 35.4251 122.841 34.3594 122.841 34.3594C122.841 34.3594 97.4822 41.9391 92.3003 42.0856C87.1184 42.2322 80.9062 42.8272 80.9062 42.8272L85.4932 33.6489Z" fill="white" stroke="#263238" stroke-width="0.444039" stroke-miterlimit="10"/>
<path d="M131.23 34.2414C131.23 34.2414 129.876 33.4066 131.11 33.1224C132.344 32.8382 132.917 33.1224 132.917 33.1224" stroke="#263238" stroke-width="0.444039" stroke-miterlimit="10"/>
<path d="M134.342 29.3242L135.292 34.5506" stroke="#263238" stroke-width="0.444039" stroke-miterlimit="10"/>
<path d="M136.531 28.084L137.193 33.3148" stroke="#263238" stroke-width="0.444039" stroke-miterlimit="10"/>
<path d="M67.1416 38.3855C67.1416 38.3855 71.1379 33.3546 76.9104 32.3155C82.6829 31.2765 86.6793 33.5011 86.6793 33.5011L79.8677 47.4128L73.6512 43.1234" fill="#263238"/>
<path d="M67.1416 38.3855C67.1416 38.3855 71.1379 33.3546 76.9104 32.3155C82.6829 31.2765 86.6793 33.5011 86.6793 33.5011L79.8677 47.4128L73.6512 43.1234" stroke="#263238" stroke-width="0.444039" stroke-miterlimit="10"/>
<path d="M140.336 53.9258C140.336 53.9258 132.721 55.9595 130.683 58.4461C126.94 63.0108 124.728 62.962 124.728 62.962C124.728 62.962 118.352 62.7355 118.352 64.3785C118.459 66.1646 118.665 67.9435 118.969 69.7069C118.969 69.7069 114.449 77.6996 113.641 81.0033C112.833 84.3069 115.697 85.9321 117.952 86.3317C119.184 86.523 120.369 86.9416 121.447 87.5661L121.238 95.3679C121.238 95.3679 123.498 95.3679 131.1 96.1894C135.573 96.6496 139.943 97.8297 144.04 99.6839C144.04 99.6839 141.575 94.7551 143.831 88.3876C146.087 82.0201 152.663 69.9023 153.076 68.8766C153.489 67.8508 154.514 61.0704 150.816 57.5802C147.117 54.0901 143.418 53.9258 140.336 53.9258Z" fill="white" stroke="#263238" stroke-width="0.444039" stroke-miterlimit="10"/>
<path d="M128.605 64.6134C127.842 65.0574 127.038 65.084 126.829 64.6888C126.621 64.2937 127.034 63.6098 127.797 63.1702C128.561 62.7306 129.365 62.6951 129.573 63.0947C129.782 63.4944 129.369 64.1738 128.605 64.6134Z" fill="#263238"/>
<path d="M117.504 73.1181C117.504 73.1181 119.586 74.508 122.362 72.9805" stroke="#263238" stroke-width="0.444039" stroke-miterlimit="10"/>
<path d="M122.225 72.1465L123.055 73.2566" stroke="#263238" stroke-width="0.444039" stroke-miterlimit="10"/>
<path d="M130.271 60.4931C130.271 60.4931 133.183 59.5207 132.073 62.5712" stroke="#263238" stroke-width="0.444039" stroke-miterlimit="10"/>
<path d="M142.392 46.3072C142.392 46.3072 137.255 48.3586 138.076 51.4403C138.898 54.5219 142.184 59.2553 142.184 59.2553C142.184 59.2553 138.694 58.4339 137.872 61.7197C137.319 64.0896 136.907 66.4901 136.638 68.9087C136.638 68.9087 132.117 72.5765 131.3 73.0205C130.483 73.4646 132.739 75.6848 132.739 75.6848C132.739 75.6848 138.285 72.8118 141.775 76.302C145.265 79.7921 137.89 84.0948 137.89 84.0948L133.37 84.9163C133.58 86.5221 134.201 88.0464 135.173 89.3422C136.144 90.638 137.433 91.6615 138.916 92.314C144.053 94.5697 148.161 94.5697 150.017 93.544C151.873 92.5183 154.945 90.6711 155.563 90.0538C156.18 89.4366 159.874 90.8753 163.999 85.125C168.124 79.3747 166.464 66.844 165.025 62.5323C164.075 59.8389 162.449 57.4342 160.305 55.5476C160.305 55.5476 163.178 54.3176 160.713 53.2875C159.254 52.6762 157.743 52.1962 156.198 51.8532C156.198 51.8532 156.81 44.6642 153.733 44.2513C150.656 43.8383 146.131 48.3586 146.131 48.3586C146.131 48.3586 148.964 42.1998 142.392 46.3072Z" fill="#263238" stroke="#263238" stroke-width="0.444039" stroke-miterlimit="10"/>
<path d="M78.3893 95.8134C78.3893 95.8134 72.0262 70.0591 71.1382 66.8043C70.2501 63.5495 71.2847 62.0664 71.7287 60.5878C72.1728 59.1091 74.6905 53.7807 73.8024 52.1511C72.9143 50.5214 72.4703 49.6334 72.6168 48.1547C72.7633 46.6761 71.4312 45.9345 70.0991 47.2666C68.767 48.5987 68.918 50.0774 69.362 51.5605C69.806 53.0436 69.362 53.6297 69.362 53.6297C69.362 53.6297 64.9216 49.7843 64.6241 49.1893C64.3266 48.5943 63.4385 45.4905 63.4385 45.4905C63.4385 45.4905 61.9599 41.3476 61.3693 41.0501C60.7787 40.7526 59.7397 40.9036 60.0372 42.8262C60.3347 44.7489 60.6278 47.1201 60.6278 47.1201L60.7743 49.7843L60.0372 51.263L57.9635 47.5641C57.9635 47.5641 58.4076 43.5678 57.5195 43.4168C56.6314 43.2658 56.0408 45.3439 55.7433 46.232C55.4458 47.1201 55.4458 49.1893 55.4458 49.1893C55.4458 49.1893 52.9326 49.6334 52.9326 51.5605C52.9326 53.4876 56.3339 58.0701 56.3339 58.0701L56.1874 59.4022L53.3766 58.8116C53.3766 58.8116 53.0791 57.9236 51.747 56.2939C50.4149 54.6643 49.6733 58.0701 50.7124 59.4022C51.7514 60.7343 53.0791 62.2174 54.5578 62.5105C56.0364 62.8035 60.0372 64.4376 60.0372 64.4376L61.2183 65.6187C61.2183 65.6187 62.1064 88.1182 61.9599 94.9253C61.8133 101.732 62.4039 108.69 63.736 111.652C65.0681 114.614 68.767 113.282 68.767 113.282C68.767 113.282 73.6514 103.215 74.837 100.698C76.0226 98.1801 78.3893 95.8134 78.3893 95.8134Z" fill="white" stroke="#263238" stroke-width="0.444039" stroke-miterlimit="10"/>
<path d="M55.4453 49.1895L56.0403 51.7072L57.519 53.7808" stroke="#263238" stroke-width="0.444039" stroke-miterlimit="10"/>
<path d="M140.998 145.176C140.998 144.066 148.324 124.972 148.102 118.09C147.88 111.207 146.77 102.668 146.77 102.668C146.77 102.668 144.026 99.7065 141.886 98.996C139.746 98.2856 126.567 95.6657 121.234 95.3904C115.901 95.1151 113.911 96.3318 109.471 98.1079C105.031 99.8841 97.7041 112.761 96.15 116.314C94.5958 119.866 92.5976 130.745 90.5995 135.629C89.1297 139.217 82.0295 153.235 78.3662 160.42C85.6821 161.968 93.1175 162.884 100.59 163.16C114.489 163.635 126.811 161.85 137.601 158.479C139.084 153.022 140.998 145.842 140.998 145.176Z" fill="url(#paint0_linear_211_38681)"/>
<path d="M115.089 127.936C117.803 129.015 120.572 129.953 123.384 130.746" stroke="#263238" stroke-width="0.444039" stroke-miterlimit="10"/>
<path d="M101.626 121.865C101.626 121.865 106.422 124.352 112.416 126.852" stroke="#263238" stroke-width="0.444039" stroke-miterlimit="10"/>
<path d="M117.069 137.215C117.744 137.656 118.419 138.064 119.094 138.44" stroke="#263238" stroke-width="0.444039" stroke-miterlimit="10"/>
<path d="M99.4053 121.42C99.4053 121.42 106.807 129.857 114.8 135.678" stroke="#263238" stroke-width="0.444039" stroke-miterlimit="10"/>
<path d="M147.334 101.839C147.334 101.839 148.444 97.6784 147.197 96.2885C145.949 94.8987 137.206 92.5586 126.789 92.5586C116.372 92.5586 110.417 96.8569 110.417 96.8569C110.417 96.8569 123.179 96.3018 133.449 98.9394C143.72 101.577 146.77 102.683 146.77 102.683L147.334 101.839Z" fill="#A5E1FE" stroke="#263238" stroke-width="0.444039" stroke-miterlimit="10"/>
<path d="M136.558 104.992C136.558 104.992 132.118 99.886 123.903 97.4438C115.688 95.0016 80.3873 98.3319 80.3873 98.3319C80.3873 98.3319 77.279 97.2218 74.8368 101.218C72.3946 105.214 69.7304 112.763 71.2845 114.761C72.8386 116.759 73.7267 119.202 74.3928 119.424C75.0588 119.646 121.683 125.862 121.683 125.862" fill="#A5E1FE"/>
<path d="M136.558 104.992C136.558 104.992 132.118 99.886 123.903 97.4438C115.688 95.0016 80.3873 98.3319 80.3873 98.3319C80.3873 98.3319 77.279 97.2218 74.8368 101.218C72.3946 105.214 69.7304 112.763 71.2845 114.761C72.8386 116.759 73.7267 119.202 74.3928 119.424C75.0588 119.646 121.683 125.862 121.683 125.862" stroke="#263238" stroke-width="0.444039" stroke-miterlimit="10"/>
<path d="M87.0479 107.105C91.0442 109.148 96.3505 111.604 101.182 112.985" stroke="#263238" stroke-width="0.444039" stroke-miterlimit="10"/>
<path d="M80.7559 103.658C80.7559 103.658 81.8571 104.32 83.6554 105.306" stroke="#263238" stroke-width="0.444039" stroke-miterlimit="10"/>
<path d="M99.0459 118.207C100.49 119.006 101.997 119.685 103.553 120.236" stroke="#263238" stroke-width="0.444039" stroke-miterlimit="10"/>
<path d="M78.2422 103.807C78.2422 103.807 87.3716 111.178 95.5597 116.195" stroke="#263238" stroke-width="0.444039" stroke-miterlimit="10"/>
<path d="M81.0531 98.4782C81.0531 98.4782 75.8712 103.216 74.246 109.286C72.6208 115.356 74.9831 119.055 74.9831 119.055L76.6127 119.646C76.6127 119.646 76.6127 120.534 75.4271 120.387C74.2415 120.241 69.9521 120.978 67.8785 119.348C65.8048 117.718 65.2142 110.023 67.5854 102.626C69.9566 95.2278 76.3152 94.0378 78.3889 94.6328C80.4625 95.2278 84.6054 96.5555 84.6054 97.2971C84.6054 98.0386 81.0531 98.4782 81.0531 98.4782Z" fill="#A5E1FE" stroke="#263238" stroke-width="0.444039" stroke-miterlimit="10"/>
<defs>
<linearGradient id="paint0_linear_211_38681" x1="135" y1="95" x2="98.4995" y2="187.5" gradientUnits="userSpaceOnUse">
<stop stop-color="#A5E1FE"/>
<stop offset="0.254645" stop-color="#A5E1FE" stop-opacity="0.9"/>
<stop offset="1" stop-color="#A5E1FE" stop-opacity="0"/>
</linearGradient>
</defs>
</svg>
