<svg width="93" height="43" viewBox="0 0 93 43" fill="none" xmlns="http://www.w3.org/2000/svg">
<path d="M16.759 6.35339C18.3806 6.35339 19.6869 5.22726 19.6869 3.87591C19.6869 2.47952 18.3806 1.39844 16.759 1.39844C15.1374 1.39844 13.8311 2.52456 13.8311 3.87591C13.8761 5.27231 15.1374 6.35339 16.759 6.35339Z" fill="#005E9E"/>
<path d="M29.6863 7.74987C29.1457 2.02916 32.5241 2.29943 33.7403 2.5697C34.1908 2.65979 34.1908 2.16429 34.1908 2.02916C34.1457 1.57871 33.8755 1.1733 33.5601 0.903032C32.3439 -0.0879577 30.1367 0.00213231 30.1367 0.00213231C26.0827 0.00213231 24.6863 3.02015 24.6863 5.49762C24.6863 6.75888 24.6863 7.83996 24.6863 7.83996H23.4701C22.7493 7.83996 22.4791 8.56068 22.4791 8.96609V9.86699H24.6863V15.9931C20.2719 19.7318 19.2809 17.4796 19.2809 16.5336C19.2809 14.867 19.2809 11.8039 19.2809 9.7769C19.2809 8.11023 16.8935 7.56969 15.4521 7.52465C14.0557 7.4796 14.2358 8.56068 14.2358 8.56068V16.849C14.2358 16.849 13.8304 21.0832 17.434 21.0832C21.353 21.0832 24.7313 17.885 24.7313 17.885C24.7313 17.885 24.7313 20.1372 24.7764 21.849C24.7764 22.1192 24.7764 22.2994 24.7764 22.4345C24.8665 23.5156 25.9475 23.3805 25.9475 23.3805C29.8214 23.3805 29.7313 20.6327 29.7313 20.6327V9.7769H32.1638C32.6592 9.7769 33.4701 9.55167 33.4701 8.60573C33.4701 8.06519 33.4701 7.65978 33.4701 7.65978H29.6863V7.74987Z" fill="#005E9E"/>
<path d="M47.5246 17.2548C47.5246 17.2098 47.5246 17.2098 47.5246 17.2548C47.4795 17.1197 47.3444 17.0296 46.984 17.2548C46.2633 17.7053 44.0561 18.6062 43.0201 18.8314C41.9841 19.0566 40.2723 19.1017 39.1012 18.3359C37.93 17.6152 37.7048 16.2188 37.6597 16.0836C37.5696 15.5881 37.5696 15.1377 37.5696 14.8224C37.5696 13.6512 38.2904 10.7233 41.2633 10.7233C43.921 10.6782 44.2363 14.7773 38.6507 15.0926C38.6507 15.0926 39.1012 15.8584 39.4165 16.0836C40.2723 16.6692 40.903 16.6692 41.5786 16.7143C43.3354 16.8494 47.7498 15.4981 47.4345 11.7143C47.0291 6.71428 39.6868 7.66022 37.3895 8.60617C35.2273 9.50707 32.1642 11.399 32.4796 15.7683C32.8399 20.7233 38.4255 21.1737 40.948 21.1287C41.2633 21.1287 41.5786 21.0836 41.939 21.0836C45.1372 20.8134 46.939 18.9665 47.3444 18.2908C47.5246 17.9755 47.6147 17.7053 47.6147 17.5251C47.5696 17.48 47.5696 17.3449 47.5246 17.2548Z" fill="#005E9E"/>
<path fill-rule="evenodd" clip-rule="evenodd" d="M62.0734 17.2092C62.3888 18.0651 62.7942 18.7407 63.3347 19.3263C63.552 19.5437 63.7908 19.7396 64.0214 19.9289C64.1254 20.0142 64.2277 20.0982 64.3257 20.1822C63.7401 21.984 62.7491 23.5606 61.3527 24.8669C59.0104 27.1191 55.7221 28.5155 51.623 29.056L51.3077 27.6146L52.8392 27.3443C54.0554 26.984 55.0464 26.5786 55.8122 26.038C56.623 25.4975 57.2536 24.9119 57.7491 24.1912C58.2446 23.4705 58.65 22.7047 58.9203 21.8939C59.1906 21.0831 59.4158 20.2272 59.5509 19.3714C58.6951 20.1371 57.8843 20.6326 57.0734 20.8579C56.2626 21.0831 55.3617 21.2182 54.3707 21.2182C53.5149 21.2182 52.7491 21.038 52.0284 20.7227C51.3077 20.4074 50.6771 19.957 50.1365 19.3714C49.596 18.7858 49.1906 18.0651 48.8753 17.2543C48.5599 16.4434 48.4248 15.5425 48.4248 14.5966C48.4248 12.5245 49.1906 10.8579 50.7671 9.50652C52.2987 8.15517 54.2807 7.47949 56.623 7.47949C59.1906 7.47949 61.2176 8.24526 62.7041 9.82183C62.8392 9.95696 62.9743 10.1371 63.1095 10.3173L63.1095 10.3173C62.1185 11.5335 61.623 12.9299 61.623 14.5516C61.623 15.4975 61.7581 16.3984 62.0734 17.2092ZM59.6856 17.028V16.5325C59.6856 16.3073 59.6856 16.1271 59.8207 15.9469C59.8207 13.6496 59.5054 11.8478 58.9649 10.6316C58.4244 9.41539 57.7036 8.78476 56.8027 8.78476C55.9018 8.78476 55.2262 9.23521 54.6856 10.1812C54.1451 11.1271 53.8748 12.4784 53.8748 14.2352C53.8748 15.7667 54.1451 17.028 54.6856 17.9289C55.2262 18.8748 55.9469 19.3253 56.8478 19.3253C57.3883 19.3253 57.8838 19.2352 58.3793 19.01C58.8298 18.7847 59.2802 18.3793 59.6856 17.7487V17.4784V17.028Z" fill="#005E9E"/>
<path d="M13.0663 19.2994C13.0663 18.5581 12.5724 17.8632 11.854 17.8632C10.0131 17.8168 5.07399 17.8632 5.07399 17.8632C5.07399 17.8632 5.11889 10.9135 5.11889 6.69734C5.11889 5.81704 5.16379 4.33445 5.11889 3.8248C5.07399 2.11055 2.60445 1.55458 1.21252 1.50824C-0.0447012 1.46191 0.000199559 2.57386 0.000199559 2.57386V6.69734V19.7164C0.000199559 20.8283 1.16762 21.1063 1.16762 21.1063H13.0663C13.0663 21.1063 13.0663 20.1797 13.0663 19.2994Z" fill="#005E9E"/>
<path fill-rule="evenodd" clip-rule="evenodd" d="M75.7199 24.8669C78.1073 22.6146 79.2785 19.7317 79.2785 16.2182C79.2785 13.5606 78.5127 11.4435 77.0713 9.82183C75.5397 8.24526 73.5127 7.47949 70.9902 7.47949C68.6478 7.47949 66.7109 8.15517 65.1343 9.50652C63.5578 10.8579 62.792 12.5696 62.792 14.5966C62.792 15.5425 62.9271 16.4434 63.2424 17.2543C63.5578 18.1101 63.9632 18.7858 64.5037 19.3714C65.0442 19.957 65.6749 20.4074 66.3956 20.7227C67.1163 21.038 67.9271 21.2182 68.7379 21.2182C69.7289 21.2182 70.6298 21.0831 71.4406 20.8579C72.2514 20.5876 73.0623 20.1371 73.9181 19.3714C73.783 20.2272 73.5577 21.0831 73.2875 21.8939C73.0172 22.7047 72.6568 23.4705 72.1163 24.1912C71.6208 24.8669 70.9451 25.4975 70.1794 26.038C69.3686 26.5786 68.3776 26.984 67.2064 27.3443L65.6749 27.6146L65.9902 29.056C70.0893 28.5155 73.3325 27.1191 75.7199 24.8669ZM73.9629 16.4878V16.9833C73.9629 17.2085 73.9629 17.3437 73.8278 17.4338V17.704C73.4224 18.3347 72.9719 18.7401 72.5215 18.9653C72.071 19.1905 71.5305 19.2806 70.9899 19.2806C70.089 19.2806 69.3683 18.7851 68.8278 17.8842C68.2872 16.9833 68.017 15.7221 68.017 14.1905C68.017 12.4338 68.2872 11.0824 68.8278 10.1365C69.3683 9.19054 70.089 8.74009 70.9449 8.74009C71.8458 8.74009 72.5665 9.37072 73.1071 10.5869C73.6926 11.8032 73.9629 13.5599 73.9629 15.9022V16.4878Z" fill="#005E9E"/>
<path d="M3.86331 37.1379C3.86331 37.5506 3.72102 37.8945 3.43643 38.1696C3.15658 38.4399 2.72732 38.5751 2.14866 38.5751H1.19528V40.6455H0.547836V35.6865H2.14866C2.70835 35.6865 3.13286 35.8217 3.4222 36.0921C3.71627 36.3624 3.86331 36.711 3.86331 37.1379ZM2.14866 38.0415C2.50914 38.0415 2.77475 37.9632 2.94551 37.8067C3.11626 37.6502 3.20164 37.4273 3.20164 37.1379C3.20164 36.5261 2.85064 36.2201 2.14866 36.2201H1.19528V38.0415H2.14866ZM6.36843 40.7095C6.0032 40.7095 5.67118 40.6265 5.37236 40.4605C5.07829 40.2945 4.84587 40.0597 4.67512 39.7562C4.5091 39.4479 4.4261 39.0921 4.4261 38.689C4.4261 38.2905 4.51148 37.9395 4.68223 37.636C4.85773 37.3277 5.09489 37.0929 5.39371 36.9316C5.69253 36.7656 6.02692 36.6826 6.39689 36.6826C6.76685 36.6826 7.10125 36.7656 7.40007 36.9316C7.69889 37.0929 7.93367 37.3253 8.10443 37.6289C8.27992 37.9324 8.36767 38.2858 8.36767 38.689C8.36767 39.0921 8.27755 39.4479 8.09731 39.7562C7.92182 40.0597 7.68229 40.2945 7.37872 40.4605C7.07516 40.6265 6.73839 40.7095 6.36843 40.7095ZM6.36843 40.1404C6.60084 40.1404 6.81903 40.0858 7.02298 39.9767C7.22694 39.8676 7.39058 39.704 7.5139 39.4858C7.64197 39.2676 7.706 39.002 7.706 38.689C7.706 38.3759 7.64434 38.1103 7.52102 37.8921C7.39769 37.6739 7.23643 37.5126 7.03721 37.4083C6.838 37.2992 6.62219 37.2447 6.38977 37.2447C6.15261 37.2447 5.93443 37.2992 5.73521 37.4083C5.54074 37.5126 5.38422 37.6739 5.26564 37.8921C5.14706 38.1103 5.08777 38.3759 5.08777 38.689C5.08777 39.0067 5.14469 39.2747 5.25853 39.4929C5.3771 39.7111 5.53363 39.8747 5.7281 39.9838C5.92257 40.0882 6.13601 40.1404 6.36843 40.1404ZM14.4127 36.7466L13.1961 40.6455H12.5273L11.5882 37.5506L10.649 40.6455H9.98022L8.75648 36.7466H9.41816L10.3146 40.0194L11.2822 36.7466H11.9439L12.8902 40.0265L13.7724 36.7466H14.4127ZM18.6126 38.5467C18.6126 38.67 18.6055 38.8004 18.5913 38.938H15.475C15.4987 39.3222 15.6292 39.6234 15.8663 39.8415C16.1082 40.055 16.4 40.1617 16.7415 40.1617C17.0213 40.1617 17.2537 40.0977 17.4387 39.9696C17.6284 39.8368 17.7612 39.6613 17.8371 39.4431H18.5344C18.43 39.8178 18.2213 40.1238 17.9083 40.3609C17.5952 40.5933 17.2063 40.7095 16.7415 40.7095C16.3715 40.7095 16.0395 40.6265 15.7454 40.4605C15.4561 40.2945 15.2284 40.0597 15.0624 39.7562C14.8964 39.4479 14.8134 39.0921 14.8134 38.689C14.8134 38.2858 14.894 37.9324 15.0553 37.6289C15.2165 37.3253 15.4418 37.0929 15.7312 36.9316C16.0252 36.7656 16.362 36.6826 16.7415 36.6826C17.1114 36.6826 17.4387 36.7632 17.7233 36.9245C18.0079 37.0858 18.2261 37.3087 18.3779 37.5933C18.5344 37.8731 18.6126 38.1909 18.6126 38.5467ZM17.9439 38.4115C17.9439 38.1648 17.8893 37.9538 17.7802 37.7783C17.6711 37.598 17.5217 37.4628 17.332 37.3727C17.147 37.2779 16.9407 37.2304 16.713 37.2304C16.3857 37.2304 16.1059 37.3348 15.8735 37.5435C15.6458 37.7522 15.5154 38.0415 15.4821 38.4115H17.9439ZM20.1147 37.3798C20.2285 37.1569 20.3898 36.9838 20.5985 36.8605C20.8119 36.7371 21.0704 36.6755 21.374 36.6755V37.3443H21.2032C20.4775 37.3443 20.1147 37.7379 20.1147 38.5253V40.6455H19.4672V36.7466H20.1147V37.3798ZM25.6788 38.5467C25.6788 38.67 25.6716 38.8004 25.6574 38.938H22.5412C22.5649 39.3222 22.6953 39.6234 22.9325 39.8415C23.1744 40.055 23.4661 40.1617 23.8076 40.1617C24.0874 40.1617 24.3198 40.0977 24.5048 39.9696C24.6946 39.8368 24.8274 39.6613 24.9033 39.4431H25.6005C25.4961 39.8178 25.2874 40.1238 24.9744 40.3609C24.6613 40.5933 24.2724 40.7095 23.8076 40.7095C23.4376 40.7095 23.1056 40.6265 22.8115 40.4605C22.5222 40.2945 22.2945 40.0597 22.1285 39.7562C21.9625 39.4479 21.8795 39.0921 21.8795 38.689C21.8795 38.2858 21.9601 37.9324 22.1214 37.6289C22.2826 37.3253 22.5079 37.0929 22.7973 36.9316C23.0914 36.7656 23.4281 36.6826 23.8076 36.6826C24.1775 36.6826 24.5048 36.7632 24.7894 36.9245C25.074 37.0858 25.2922 37.3087 25.444 37.5933C25.6005 37.8731 25.6788 38.1909 25.6788 38.5467ZM25.01 38.4115C25.01 38.1648 24.9554 37.9538 24.8463 37.7783C24.7372 37.598 24.5878 37.4628 24.3981 37.3727C24.2131 37.2779 24.0068 37.2304 23.7791 37.2304C23.4518 37.2304 23.172 37.3348 22.9396 37.5435C22.7119 37.7522 22.5815 38.0415 22.5483 38.4115H25.01ZM26.2915 38.6818C26.2915 38.2834 26.3721 37.9348 26.5334 37.636C26.6946 37.3324 26.9152 37.0976 27.195 36.9316C27.4796 36.7656 27.7974 36.6826 28.1484 36.6826C28.452 36.6826 28.7342 36.7537 28.9951 36.896C29.2559 37.0336 29.4552 37.2162 29.5927 37.4439V35.3806H30.2473V40.6455H29.5927V39.9127C29.4646 40.1451 29.2749 40.3372 29.0235 40.489C28.7721 40.636 28.4781 40.7095 28.1413 40.7095C27.795 40.7095 27.4796 40.6242 27.195 40.4534C26.9152 40.2827 26.6946 40.0431 26.5334 39.7348C26.3721 39.4265 26.2915 39.0755 26.2915 38.6818ZM29.5927 38.689C29.5927 38.3949 29.5334 38.1387 29.4148 37.9206C29.2963 37.7024 29.135 37.5364 28.931 37.4225C28.7318 37.3039 28.5113 37.2447 28.2694 37.2447C28.0275 37.2447 27.8069 37.3016 27.6077 37.4154C27.4085 37.5292 27.2496 37.6953 27.131 37.9134C27.0124 38.1316 26.9531 38.3878 26.9531 38.6818C26.9531 38.9807 27.0124 39.2415 27.131 39.4645C27.2496 39.6826 27.4085 39.851 27.6077 39.9696C27.8069 40.0834 28.0275 40.1404 28.2694 40.1404C28.5113 40.1404 28.7318 40.0834 28.931 39.9696C29.135 39.851 29.2963 39.6826 29.4148 39.4645C29.5334 39.2415 29.5927 38.983 29.5927 38.689ZM33.8856 37.4723C34.0184 37.2399 34.2129 37.0502 34.469 36.9031C34.7252 36.7561 35.0169 36.6826 35.3442 36.6826C35.6951 36.6826 36.0106 36.7656 36.2904 36.9316C36.5703 37.0976 36.7908 37.3324 36.9521 37.636C37.1134 37.9348 37.194 38.2834 37.194 38.6818C37.194 39.0755 37.1134 39.4265 36.9521 39.7348C36.7908 40.0431 36.5679 40.2827 36.2833 40.4534C36.0035 40.6242 35.6904 40.7095 35.3442 40.7095C35.0074 40.7095 34.7109 40.636 34.4548 40.489C34.2034 40.3419 34.0137 40.1546 33.8856 39.9269V40.6455H33.2382V35.3806H33.8856V37.4723ZM36.5323 38.6818C36.5323 38.3878 36.473 38.1316 36.3544 37.9134C36.2359 37.6953 36.0746 37.5292 35.8706 37.4154C35.6714 37.3016 35.4509 37.2447 35.209 37.2447C34.9718 37.2447 34.7513 37.3039 34.5473 37.4225C34.3481 37.5364 34.1868 37.7047 34.0635 37.9277C33.9449 38.1459 33.8856 38.3996 33.8856 38.689C33.8856 38.983 33.9449 39.2415 34.0635 39.4645C34.1868 39.6826 34.3481 39.851 34.5473 39.9696C34.7513 40.0834 34.9718 40.1404 35.209 40.1404C35.4509 40.1404 35.6714 40.0834 35.8706 39.9696C36.0746 39.851 36.2359 39.6826 36.3544 39.4645C36.473 39.2415 36.5323 38.9807 36.5323 38.6818ZM41.4044 36.7466L39.0565 42.4811H38.3877L39.1561 40.6028L37.5837 36.7466H38.3023L39.5261 39.9056L40.7356 36.7466H41.4044ZM47.7726 35.6865V40.6455H47.1252V38.3972H44.5994V40.6455H43.952V35.6865H44.5994V37.8636H47.1252V35.6865H47.7726ZM50.422 35.6865C50.9628 35.6865 51.43 35.7885 51.8236 35.9925C52.2221 36.1917 52.5256 36.4786 52.7343 36.8533C52.9478 37.2281 53.0545 37.6692 53.0545 38.1767C53.0545 38.6842 52.9478 39.1253 52.7343 39.5C52.5256 39.87 52.2221 40.1546 51.8236 40.3538C51.43 40.5483 50.9628 40.6455 50.422 40.6455H48.8781V35.6865H50.422ZM50.422 40.1119C51.0624 40.1119 51.5509 39.9435 51.8877 39.6068C52.2244 39.2652 52.3928 38.7886 52.3928 38.1767C52.3928 37.5601 52.2221 37.0786 51.8806 36.7324C51.5438 36.3861 51.0576 36.213 50.422 36.213H49.5256V40.1119H50.422ZM56.7117 35.6865V36.213H54.5559V37.885H56.3062V38.4115H54.5559V40.6455H53.9085V35.6865H56.7117ZM57.2518 38.1625C57.2518 37.6787 57.3608 37.2447 57.579 36.8605C57.7972 36.4715 58.0937 36.168 58.4684 35.9498C58.8478 35.7316 59.2676 35.6225 59.7277 35.6225C60.2684 35.6225 60.7404 35.7529 61.1435 36.0138C61.5467 36.2747 61.8408 36.6446 62.0258 37.1237H61.2502C61.1127 36.8249 60.9135 36.5948 60.6526 36.4336C60.3965 36.2723 60.0882 36.1917 59.7277 36.1917C59.3814 36.1917 59.0708 36.2723 58.7957 36.4336C58.5206 36.5948 58.3047 36.8249 58.1482 37.1237C57.9917 37.4178 57.9134 37.764 57.9134 38.1625C57.9134 38.5561 57.9917 38.9024 58.1482 39.2012C58.3047 39.4953 58.5206 39.723 58.7957 39.8842C59.0708 40.0455 59.3814 40.1261 59.7277 40.1261C60.0882 40.1261 60.3965 40.0479 60.6526 39.8913C60.9135 39.7301 61.1127 39.5 61.2502 39.2012H62.0258C61.8408 39.6755 61.5467 40.0431 61.1435 40.304C60.7404 40.5601 60.2684 40.6882 59.7277 40.6882C59.2676 40.6882 58.8478 40.5815 58.4684 40.368C58.0937 40.1498 57.7972 39.8487 57.579 39.4645C57.3608 39.0803 57.2518 38.6463 57.2518 38.1625ZM65.5338 37.4652C65.6618 37.2423 65.8516 37.0573 66.103 36.9103C66.3591 36.7585 66.6555 36.6826 66.9923 36.6826C67.3385 36.6826 67.6516 36.7656 67.9314 36.9316C68.216 37.0976 68.439 37.3324 68.6002 37.636C68.7615 37.9348 68.8421 38.2834 68.8421 38.6818C68.8421 39.0755 68.7615 39.4265 68.6002 39.7348C68.439 40.0431 68.216 40.2827 67.9314 40.4534C67.6516 40.6242 67.3385 40.7095 66.9923 40.7095C66.6603 40.7095 66.3662 40.636 66.1101 40.489C65.8587 40.3372 65.6666 40.1498 65.5338 39.9269V42.4953H64.8863V36.7466H65.5338V37.4652ZM68.1805 38.6818C68.1805 38.3878 68.1212 38.1316 68.0026 37.9134C67.884 37.6953 67.7227 37.5292 67.5188 37.4154C67.3196 37.3016 67.099 37.2447 66.8571 37.2447C66.62 37.2447 66.3994 37.3039 66.1954 37.4225C65.9962 37.5364 65.835 37.7047 65.7116 37.9277C65.5931 38.1459 65.5338 38.3996 65.5338 38.689C65.5338 38.983 65.5931 39.2415 65.7116 39.4645C65.835 39.6826 65.9962 39.851 66.1954 39.9696C66.3994 40.0834 66.62 40.1404 66.8571 40.1404C67.099 40.1404 67.3196 40.0834 67.5188 39.9696C67.7227 39.851 67.884 39.6826 68.0026 39.4645C68.1212 39.2415 68.1805 38.9807 68.1805 38.6818ZM73.2517 38.5467C73.2517 38.67 73.2446 38.8004 73.2304 38.938H70.1141C70.1378 39.3222 70.2683 39.6234 70.5054 39.8415C70.7473 40.055 71.039 40.1617 71.3805 40.1617C71.6604 40.1617 71.8928 40.0977 72.0778 39.9696C72.2675 39.8368 72.4003 39.6613 72.4762 39.4431H73.1735C73.0691 39.8178 72.8604 40.1238 72.5474 40.3609C72.2343 40.5933 71.8454 40.7095 71.3805 40.7095C71.0106 40.7095 70.6786 40.6265 70.3845 40.4605C70.0951 40.2945 69.8675 40.0597 69.7015 39.7562C69.5355 39.4479 69.4524 39.0921 69.4524 38.689C69.4524 38.2858 69.5331 37.9324 69.6944 37.6289C69.8556 37.3253 70.0809 37.0929 70.3703 36.9316C70.6643 36.7656 71.0011 36.6826 71.3805 36.6826C71.7505 36.6826 72.0778 36.7632 72.3624 36.9245C72.647 37.0858 72.8652 37.3087 73.0169 37.5933C73.1735 37.8731 73.2517 38.1909 73.2517 38.5467ZM72.5829 38.4115C72.5829 38.1648 72.5284 37.9538 72.4193 37.7783C72.3102 37.598 72.1608 37.4628 71.9711 37.3727C71.7861 37.2779 71.5798 37.2304 71.3521 37.2304C71.0248 37.2304 70.745 37.3348 70.5125 37.5435C70.2849 37.7522 70.1544 38.0415 70.1212 38.4115H72.5829ZM76.006 36.6755C76.4803 36.6755 76.8645 36.8201 77.1586 37.1095C77.4526 37.3941 77.5997 37.8067 77.5997 38.3474V40.6455H76.9593V38.4399C76.9593 38.051 76.8621 37.7545 76.6676 37.5506C76.4732 37.3419 76.2076 37.2375 75.8708 37.2375C75.5293 37.2375 75.2565 37.3443 75.0526 37.5577C74.8534 37.7711 74.7538 38.0818 74.7538 38.4897V40.6455H74.1063V36.7466H74.7538V37.3016C74.8818 37.1024 75.055 36.9482 75.2732 36.8391C75.4961 36.73 75.7404 36.6755 76.006 36.6755ZM80.0375 40.7095C79.7387 40.7095 79.4707 40.6597 79.2336 40.5601C78.9964 40.4558 78.8091 40.3135 78.6715 40.1332C78.5339 39.9483 78.4581 39.7372 78.4438 39.5H79.1126C79.1316 39.6945 79.2217 39.8534 79.383 39.9767C79.549 40.1 79.7648 40.1617 80.0304 40.1617C80.2771 40.1617 80.4715 40.1072 80.6138 39.9981C80.7561 39.889 80.8273 39.7514 80.8273 39.5854C80.8273 39.4147 80.7514 39.289 80.5996 39.2083C80.4478 39.123 80.213 39.0399 79.8952 38.9593C79.6059 38.8834 79.3687 38.8075 79.1838 38.7316C79.0035 38.651 78.847 38.5348 78.7142 38.383C78.5861 38.2265 78.5221 38.0225 78.5221 37.7711C78.5221 37.5719 78.5814 37.3893 78.7 37.2233C78.8185 37.0573 78.9869 36.9269 79.2051 36.832C79.4233 36.7324 79.6723 36.6826 79.9522 36.6826C80.3838 36.6826 80.7324 36.7917 80.998 37.0099C81.2636 37.2281 81.4059 37.5269 81.4249 37.9063H80.7775C80.7632 37.7024 80.6802 37.5387 80.5285 37.4154C80.3814 37.2921 80.1822 37.2304 79.9308 37.2304C79.6984 37.2304 79.5134 37.2802 79.3759 37.3798C79.2383 37.4794 79.1695 37.6099 79.1695 37.7711C79.1695 37.8992 79.2099 38.0059 79.2905 38.0913C79.3759 38.1719 79.4802 38.2383 79.6035 38.2905C79.7316 38.338 79.9071 38.3925 80.13 38.4542C80.4099 38.5301 80.6375 38.6059 80.813 38.6818C80.9885 38.753 81.1379 38.8621 81.2613 39.0091C81.3893 39.1562 81.4557 39.3483 81.4605 39.5854C81.4605 39.7989 81.4012 39.991 81.2826 40.1617C81.164 40.3325 80.9957 40.4676 80.7775 40.5672C80.564 40.6621 80.3174 40.7095 80.0375 40.7095ZM82.7088 36.1134C82.5855 36.1134 82.4812 36.0707 82.3958 35.9853C82.3104 35.9 82.2677 35.7956 82.2677 35.6723C82.2677 35.549 82.3104 35.4446 82.3958 35.3592C82.4812 35.2739 82.5855 35.2312 82.7088 35.2312C82.8274 35.2312 82.927 35.2739 83.0077 35.3592C83.093 35.4446 83.1357 35.549 83.1357 35.6723C83.1357 35.7956 83.093 35.9 83.0077 35.9853C82.927 36.0707 82.8274 36.1134 82.7088 36.1134ZM83.0219 36.7466V40.6455H82.3745V36.7466H83.0219ZM85.8258 40.7095C85.4606 40.7095 85.1285 40.6265 84.8297 40.4605C84.5356 40.2945 84.3032 40.0597 84.1325 39.7562C83.9665 39.4479 83.8834 39.0921 83.8834 38.689C83.8834 38.2905 83.9688 37.9395 84.1396 37.636C84.3151 37.3277 84.5522 37.0929 84.8511 36.9316C85.1499 36.7656 85.4843 36.6826 85.8542 36.6826C86.2242 36.6826 86.5586 36.7656 86.8574 36.9316C87.1562 37.0929 87.391 37.3253 87.5618 37.6289C87.7373 37.9324 87.825 38.2858 87.825 38.689C87.825 39.0921 87.7349 39.4479 87.5547 39.7562C87.3792 40.0597 87.1396 40.2945 86.8361 40.4605C86.5325 40.6265 86.1957 40.7095 85.8258 40.7095ZM85.8258 40.1404C86.0582 40.1404 86.2764 40.0858 86.4803 39.9767C86.6843 39.8676 86.8479 39.704 86.9713 39.4858C87.0993 39.2676 87.1634 39.002 87.1634 38.689C87.1634 38.3759 87.1017 38.1103 86.9784 37.8921C86.855 37.6739 86.6938 37.5126 86.4946 37.4083C86.2954 37.2992 86.0795 37.2447 85.8471 37.2447C85.61 37.2447 85.3918 37.2992 85.1926 37.4083C84.9981 37.5126 84.8416 37.6739 84.723 37.8921C84.6044 38.1103 84.5451 38.3759 84.5451 38.689C84.5451 39.0067 84.602 39.2747 84.7159 39.4929C84.8345 39.7111 84.991 39.8747 85.1854 39.9838C85.3799 40.0882 85.5934 40.1404 85.8258 40.1404ZM90.5759 36.6755C91.0502 36.6755 91.4344 36.8201 91.7285 37.1095C92.0226 37.3941 92.1696 37.8067 92.1696 38.3474V40.6455H91.5293V38.4399C91.5293 38.051 91.4321 37.7545 91.2376 37.5506C91.0431 37.3419 90.7775 37.2375 90.4408 37.2375C90.0992 37.2375 89.8265 37.3443 89.6226 37.5577C89.4233 37.7711 89.3237 38.0818 89.3237 38.4897V40.6455H88.6763V36.7466H89.3237V37.3016C89.4518 37.1024 89.6249 36.9482 89.8431 36.8391C90.066 36.73 90.3103 36.6755 90.5759 36.6755Z" fill="#005E9E"/>
</svg>
