<svg width="33" height="32" viewBox="0 0 33 32" fill="none" xmlns="http://www.w3.org/2000/svg">
<path d="M4.05371 16H9.05371L11.0537 13L15.0537 19L17.0537 16H20.0537" stroke="#0BB8E4" stroke-width="2" stroke-linecap="round" stroke-linejoin="round"/>
<path d="M3.56799 11.9992C3.55854 11.8334 3.55378 11.667 3.55371 11.5C3.55397 9.99768 4.07453 8.5418 5.02689 7.3799C5.97926 6.21801 7.30464 5.42181 8.7777 5.12669C10.2508 4.83156 11.7806 5.05572 13.107 5.76105C14.4335 6.46638 15.4747 7.60935 16.0537 8.99563L16.0537 8.99565C16.6327 7.60936 17.6739 6.46639 19.0004 5.76106C20.3269 5.05572 21.8567 4.83156 23.3297 5.12669C24.8028 5.42181 26.1282 6.21801 27.0805 7.3799C28.0329 8.5418 28.5535 9.99768 28.5537 11.5C28.5537 20 16.0537 27 16.0537 27C16.0537 27 11.0606 24.2039 7.3859 20.0001" stroke="#005E9E" stroke-width="2" stroke-linecap="round" stroke-linejoin="round"/>
</svg>
