<svg width="32" height="33" viewBox="0 0 32 33" fill="none" xmlns="http://www.w3.org/2000/svg">
<path d="M19 27.4844V20.4844C19 20.2192 18.8946 19.9648 18.7071 19.7773C18.5196 19.5897 18.2652 19.4844 18 19.4844H14C13.7348 19.4844 13.4804 19.5897 13.2929 19.7773C13.1054 19.9648 13 20.2192 13 20.4844V27.4844" stroke="#00C0F3" stroke-width="3" stroke-linecap="round" stroke-linejoin="round"/>
<path d="M27 27.4855V14.9278C27 14.7885 26.9709 14.6507 26.9145 14.5233C26.8582 14.3959 26.7758 14.2816 26.6727 14.1879L16.672 5.09601C16.4879 4.92866 16.2481 4.83593 15.9993 4.83594C15.7505 4.83595 15.5106 4.92869 15.3266 5.09606L5.32726 14.1879C5.22418 14.2816 5.14183 14.3959 5.08547 14.5233C5.02911 14.6507 5 14.7885 5 14.9278V27.4855" stroke="#005E9E" stroke-width="3" stroke-linecap="round" stroke-linejoin="round"/>
<path d="M2 27.4863H30" stroke="#005E9E" stroke-width="3" stroke-linecap="round" stroke-linejoin="round"/>
</svg>
