<svg width="64" height="77" viewBox="0 0 64 77" fill="none" xmlns="http://www.w3.org/2000/svg">
<path d="M18.295 20.1864L4.29701 47.6313C-3.42857 62.7783 8.96815 75.0762 31.9624 75.0762C54.9566 75.0762 67.4027 62.7783 59.738 47.6313L45.8502 20.1864M45.6297 19.966L53.6758 2.11022C53.6758 2.11022 47.1655 6.51904 42.4904 6.51904C37.7587 6.51904 35.9365 2.05511 31.5671 2.05511C27.1978 2.05511 24.7511 6.51904 20.7313 6.51904C16.7116 6.51904 9.80804 2 9.80804 2L18.0746 19.7455L45.6297 19.966Z" stroke="#005E9E" stroke-width="2.77756" stroke-linecap="round" stroke-linejoin="round"/>
<path d="M17.7422 20.4062H46.2893M46.2893 20.4062C46.2893 20.4062 41.5498 32.1999 48.2733 38.9233M46.2893 20.4062C46.2893 20.4062 53.4537 23.7129 51.4697 31.5385M38.025 43.2484C36.343 40.3712 32.6559 38.6147 29.3815 39.6763C27.5864 40.2585 26.0777 41.8477 25.8782 43.7245C25.1215 50.8518 38.3548 47.1777 38.1773 54.4578C38.1469 55.7079 37.4719 56.8932 36.5081 57.6899C35.5444 58.4866 34.3169 58.9195 33.0765 59.0771C29.9663 59.4722 26.797 58.1169 24.8596 55.6731M31.5193 63.9612V59.1305M31.5193 39.3675V34.5475" stroke="#00C0F3" stroke-width="2.77756" stroke-linecap="round" stroke-linejoin="round"/>
</svg>
