<svg width="25" height="22" viewBox="0 0 25 22" fill="none" xmlns="http://www.w3.org/2000/svg">
<path fill-rule="evenodd" clip-rule="evenodd" d="M4.50982 9.8418H23.3C23.9627 9.8418 24.5 10.4073 24.5 11.105C24.5 11.8026 23.9627 12.3681 23.3 12.3681H4.50926L10.3012 19.1253C10.7552 19.655 10.6938 20.4524 10.1642 20.9065C9.63448 21.3605 8.83705 21.2991 8.38304 20.7694L0.928556 12.0725C0.669042 11.843 0.503189 11.5 0.500046 11.1161C0.500016 11.1124 0.5 11.1087 0.5 11.105C0.5 10.7154 0.667527 10.367 0.930881 10.1353L8.38304 1.44113C8.83705 0.911454 9.63448 0.850113 10.1642 1.30412C10.6938 1.75813 10.7552 2.55556 10.3012 3.08523L4.50982 9.8418Z" fill="#275FA8"/>
<path d="M4.50982 9.8418L4.32001 9.6791L3.96627 10.0918H4.50982V9.8418ZM4.50926 12.3681V12.1181H3.9657L4.31944 12.5308L4.50926 12.3681ZM10.3012 19.1253L10.491 18.9626V18.9626L10.3012 19.1253ZM10.1642 20.9065L10.0015 20.7166L10.1642 20.9065ZM8.38304 20.7694L8.19323 20.9321L8.38304 20.7694ZM0.928556 12.0725L1.11837 11.9098L1.10712 11.8967L1.09417 11.8853L0.928556 12.0725ZM0.500046 11.1161L0.250054 11.1181L0.500046 11.1161ZM0.930881 10.1353L1.09602 10.323L1.10924 10.3114L1.1207 10.298L0.930881 10.1353ZM8.38304 1.44113L8.19323 1.27843V1.27843L8.38304 1.44113ZM10.1642 1.30412L10.0015 1.49393L10.1642 1.30412ZM10.3012 3.08523L10.491 3.24793L10.3012 3.08523ZM4.50982 10.0918H23.3V9.5918H4.50982V10.0918ZM23.3 10.0918C23.8127 10.0918 24.25 10.5332 24.25 11.105H24.75C24.75 10.2815 24.1127 9.5918 23.3 9.5918V10.0918ZM24.25 11.105C24.25 11.6767 23.8127 12.1181 23.3 12.1181V12.6181C24.1127 12.6181 24.75 11.9284 24.75 11.105H24.25ZM23.3 12.1181H4.50926V12.6181H23.3V12.1181ZM4.31944 12.5308L10.1114 19.288L10.491 18.9626L4.69907 12.2054L4.31944 12.5308ZM10.1114 19.288C10.4755 19.7129 10.4263 20.3525 10.0015 20.7166L10.3269 21.0963C10.9614 20.5524 11.0348 19.5971 10.491 18.9626L10.1114 19.288ZM10.0015 20.7166C9.57662 21.0808 8.93701 21.0316 8.57286 20.6067L8.19323 20.9321C8.73709 21.5666 9.69235 21.6401 10.3269 21.0963L10.0015 20.7166ZM8.57286 20.6067L1.11837 11.9098L0.738741 12.2352L8.19323 20.9321L8.57286 20.6067ZM1.09417 11.8853C0.887364 11.7024 0.752595 11.4265 0.750037 11.114L0.250054 11.1181C0.253782 11.5735 0.450719 11.9837 0.76294 12.2598L1.09417 11.8853ZM0.750037 11.114C0.750013 11.111 0.75 11.108 0.75 11.105H0.25C0.25 11.1094 0.250018 11.1137 0.250054 11.1181L0.750037 11.114ZM0.75 11.105C0.75 10.7878 0.886176 10.5076 1.09602 10.323L0.765741 9.94763C0.448877 10.2264 0.25 10.643 0.25 11.105H0.75ZM1.1207 10.298L8.57286 1.60383L8.19323 1.27843L0.741067 9.97262L1.1207 10.298ZM8.57286 1.60383C8.93701 1.17898 9.57662 1.12978 10.0015 1.49393L10.3269 1.11431C9.69235 0.570443 8.73709 0.643925 8.19323 1.27843L8.57286 1.60383ZM10.0015 1.49393C10.4263 1.85809 10.4755 2.49769 10.1114 2.92254L10.491 3.24793C11.0348 2.61342 10.9614 1.65817 10.3269 1.11431L10.0015 1.49393ZM10.1114 2.92254L4.32001 9.6791L4.69964 10.0045L10.491 3.24793L10.1114 2.92254Z" fill="#275FA8"/>
</svg>
