<svg width="200" height="200" viewBox="0 0 200 200" fill="none" xmlns="http://www.w3.org/2000/svg">
<circle cx="100" cy="100" r="100" fill="#DBF5FF"/>
<mask id="mask0_211_36608" style="mask-type:alpha" maskUnits="userSpaceOnUse" x="0" y="0" width="200" height="200">
<circle cx="100" cy="100" r="100" fill="url(#paint0_linear_211_36608)"/>
</mask>
<g mask="url(#mask0_211_36608)">
<path d="M142.271 88.3125L140.199 99.5736L123.302 109.84L125.638 114.129C125.638 114.129 145.171 108.172 145.648 106.779C146.124 105.385 150.626 90.6279 150.626 90.6279L142.271 88.3125Z" fill="#263238"/>
<path d="M149.673 69.2715L148.544 82.9257L147.948 90.0895C144.69 91.6745 141.504 89.2918 141.308 89.1364C142.193 86.5361 143.224 71.8614 149.673 69.2715Z" fill="#90D2FF" stroke="#263238" stroke-width="0.517989" stroke-linecap="round" stroke-linejoin="round"/>
<path d="M148.522 82.9258L147.927 90.0896C144.669 91.6746 141.483 89.2918 141.286 89.1365C141.426 89.1986 143.141 89.9238 144.254 89.1365C143.865 88.7159 143.518 88.2578 143.218 87.769C143.151 87.4996 144.254 87.4271 144.254 87.4271C144.254 87.4271 143.529 81.6204 145.461 79.1393C146.217 78.1965 147.398 80.1649 148.522 82.9258Z" fill="#263238"/>
<path d="M161.374 195.719L161.892 197.242C161.107 198.537 160.228 199.774 159.261 200.94C159.261 200.94 158.743 200.774 157.893 201.525C157.37 202.047 157.047 202.737 156.982 203.473C156.982 203.473 153.024 208.218 148.005 208.285C142.986 208.353 144.498 205.825 144.498 205.825L161.374 195.719Z" fill="#90D2FF" stroke="#263238" stroke-width="0.517989" stroke-linecap="round" stroke-linejoin="round"/>
<path d="M156.655 183.644C156.655 183.644 149.921 181.163 148.605 186.125C148.605 186.125 149.807 191.59 149.087 194.578C148.367 197.567 144.741 203.276 144.519 204.358C144.078 206.482 144.41 206.627 144.41 206.627C144.41 206.627 147.046 208.15 150.589 206.518C154.132 204.886 160.265 197.863 161.224 196.417C162.182 194.972 158.219 189.274 158.219 189.274L156.655 183.644Z" fill="white"/>
<path opacity="0.4" d="M156.655 183.646C156.655 183.646 149.921 181.165 148.605 186.127C148.605 186.127 149.807 191.592 149.087 194.58C148.367 197.569 144.741 203.277 144.519 204.36C144.078 206.484 144.41 206.629 144.41 206.629C144.41 206.629 147.046 208.152 150.589 206.52C154.132 204.888 160.265 197.864 161.224 196.419C162.182 194.974 158.219 189.276 158.219 189.276L156.655 183.646Z" fill="#90D2FF"/>
<path d="M156.655 183.644C156.655 183.644 149.921 181.163 148.605 186.125C148.605 186.125 149.807 191.59 149.087 194.578C148.367 197.567 144.741 203.276 144.519 204.358C144.078 206.482 144.41 206.627 144.41 206.627C144.41 206.627 147.046 208.15 150.589 206.518C154.132 204.886 160.265 197.863 161.224 196.417C162.182 194.972 158.219 189.274 158.219 189.274L156.655 183.644Z" stroke="#263238" stroke-width="0.517989" stroke-linecap="round" stroke-linejoin="round"/>
<path d="M153.211 190.662C153.797 194.005 153.202 197.448 151.527 200.4" stroke="#263238" stroke-width="0.517989" stroke-linecap="round" stroke-linejoin="round"/>
<path d="M152.48 199.723C152.48 199.723 148.958 199.935 147.119 199.205" stroke="#263238" stroke-width="0.517989" stroke-linecap="round" stroke-linejoin="round"/>
<path d="M153.133 197.78C153.133 197.78 149.839 198.298 148 197.262" stroke="#263238" stroke-width="0.517989" stroke-linecap="round" stroke-linejoin="round"/>
<path d="M153.693 195.62C153.693 195.62 150.807 196.039 148.922 195.148" stroke="#263238" stroke-width="0.517989" stroke-linecap="round" stroke-linejoin="round"/>
<path d="M154.013 193.174C154.013 193.174 150.802 194.179 149.284 193.174" stroke="#263238" stroke-width="0.517989" stroke-linecap="round" stroke-linejoin="round"/>
<path d="M154.496 187.134L155.055 190.661C155.055 190.661 150.808 193.459 148 189.962V186.279C148 186.279 149.057 188.755 154.496 187.134Z" fill="#90D2FF" stroke="#263238" stroke-width="0.517989" stroke-linecap="round" stroke-linejoin="round"/>
<path d="M150.807 107.951C146.502 121.59 133.143 143.465 134.495 149.064C135.236 152.12 139.644 169.436 143.094 177.035C144.404 179.941 147.238 181.884 147.238 181.884L149.284 186.271C154.272 188.442 156.059 184.028 156.059 184.028L155.054 179.056C157.727 174.197 156.608 174.197 153.132 149.012C152.723 146.044 159.607 136.871 159.607 136.871L163.14 159.952L163.715 178.859L165.548 184.702C165.548 184.702 166.004 190.187 165.963 190.519H174.163L175.054 184.489C175.054 184.489 178.861 180.9 178.861 176.756C178.861 172.612 178.042 151.504 178.861 145.355C179.679 139.207 176.944 110.541 176.944 110.541L150.807 107.951Z" fill="#263238"/>
<path d="M95.0637 95.7966L106.459 96.8222C106.718 96.8455 106.956 96.9704 107.122 97.1694C107.289 97.3685 107.369 97.6254 107.346 97.8837L106.614 106.016L93.2703 104.815L94.0022 96.6828C94.0254 96.4245 94.1503 96.1861 94.3494 96.0199C94.5485 95.8537 94.8054 95.7734 95.0637 95.7966Z" fill="#90D2FF"/>
<path opacity="0.3" d="M95.0637 95.7986L106.459 96.8242C106.718 96.8474 106.956 96.9723 107.122 97.1714C107.289 97.3705 107.369 97.6274 107.346 97.8857L106.614 106.018L93.2703 104.817L94.0022 96.6848C94.0254 96.4265 94.1503 96.188 94.3494 96.0218C94.5485 95.8556 94.8054 95.7753 95.0637 95.7986Z" fill="black" fill-opacity="0.7"/>
<path opacity="0.3" d="M106.639 96.6849L103.372 96.4043L102.811 102.938L106.078 103.219L106.639 96.6849Z" fill="white" fill-opacity="0.7"/>
<path d="M95.0637 95.7966L106.459 96.8222C106.718 96.8455 106.956 96.9704 107.122 97.1694C107.289 97.3685 107.369 97.6254 107.346 97.8837L106.614 106.016L93.2703 104.815L94.0022 96.6828C94.0254 96.4245 94.1503 96.1861 94.3494 96.0199C94.5485 95.8537 94.8054 95.7734 95.0637 95.7966V95.7966Z" stroke="#263238" stroke-width="0.520083" stroke-linecap="round" stroke-linejoin="round"/>
<path d="M114.734 96.5169L126.088 97.4923C126.345 97.5144 126.583 97.6378 126.75 97.8354C126.916 98.033 126.997 98.2886 126.975 98.5459L126.279 106.649L112.984 105.506L113.68 97.4038C113.702 97.1465 113.826 96.9085 114.023 96.7422C114.221 96.5759 114.477 96.4948 114.734 96.5169Z" fill="#90D2FF"/>
<path opacity="0.3" d="M114.733 96.5169L126.087 97.4923C126.344 97.5144 126.582 97.6378 126.749 97.8354C126.915 98.033 126.996 98.2886 126.974 98.5459L126.278 106.649L112.983 105.506L113.679 97.4038C113.701 97.1465 113.825 96.9085 114.022 96.7422C114.22 96.5759 114.476 96.4948 114.733 96.5169Z" fill="black" fill-opacity="0.7"/>
<path opacity="0.3" d="M126.025 98.351L124.054 98.1816L123.492 104.715L125.464 104.885L126.025 98.351Z" fill="white" fill-opacity="0.7"/>
<path d="M114.734 96.5169L126.088 97.4923C126.345 97.5144 126.583 97.6378 126.75 97.8354C126.916 98.033 126.997 98.2886 126.975 98.5459L126.279 106.649L112.984 105.506L113.68 97.4038C113.702 97.1465 113.826 96.9085 114.023 96.7422C114.221 96.5759 114.477 96.4948 114.734 96.5169Z" stroke="#263238" stroke-width="0.517989" stroke-linecap="round" stroke-linejoin="round"/>
<path d="M110.61 96.1615L121.964 97.1368C122.221 97.159 122.459 97.2824 122.625 97.48C122.792 97.6776 122.873 97.9331 122.851 98.1904L122.155 106.293L108.86 105.151L109.556 97.0484C109.578 96.791 109.702 96.553 109.899 96.3867C110.097 96.2204 110.353 96.1394 110.61 96.1615Z" fill="#90D2FF" stroke="#263238" stroke-width="0.517989" stroke-linecap="round" stroke-linejoin="round"/>
<path d="M130.216 97.849L141.57 98.8243C141.828 98.8465 142.066 98.9699 142.232 99.1675C142.398 99.3651 142.479 99.6206 142.457 99.8779L141.762 107.975L128.467 106.833L129.163 98.7307C129.187 98.4744 129.31 98.2378 129.508 98.0725C129.705 97.9073 129.96 97.8269 130.216 97.849Z" fill="#90D2FF" stroke="#263238" stroke-width="0.517989" stroke-linecap="round" stroke-linejoin="round"/>
<path opacity="0.3" d="M122.121 98.0111L118.854 97.7305L118.293 104.264L121.56 104.545L122.121 98.0111Z" fill="white" fill-opacity="0.7"/>
<path opacity="0.3" d="M141.514 99.6752L138.247 99.3945L137.686 105.928L140.953 106.209L141.514 99.6752Z" fill="white" fill-opacity="0.7"/>
<path d="M147.699 106.598L144.493 143.857L84.4629 138.677L87.6692 101.423C87.6953 101.115 87.782 100.815 87.9243 100.54C88.0666 100.265 88.2617 100.021 88.4984 99.8218C88.7352 99.6226 89.0089 99.4721 89.304 99.3788C89.599 99.2856 89.9095 99.2515 90.2178 99.2785L145.549 104.034C145.86 104.059 146.162 104.146 146.438 104.289C146.715 104.432 146.96 104.628 147.16 104.867C147.36 105.105 147.51 105.381 147.603 105.678C147.696 105.975 147.728 106.288 147.699 106.598Z" fill="#90D2FF"/>
<path opacity="0.3" d="M147.699 106.598L144.493 143.857L84.4629 138.677L87.6692 101.423C87.6953 101.115 87.782 100.815 87.9243 100.54C88.0666 100.265 88.2617 100.021 88.4984 99.8218C88.7352 99.6226 89.0089 99.4721 89.304 99.3788C89.599 99.2856 89.9095 99.2515 90.2178 99.2785L145.549 104.034C145.86 104.059 146.162 104.146 146.438 104.289C146.715 104.432 146.96 104.628 147.16 104.867C147.36 105.105 147.51 105.381 147.603 105.678C147.696 105.975 147.728 106.288 147.699 106.598Z" fill="black" fill-opacity="0.7"/>
<path d="M147.699 106.598L144.493 143.857L84.4629 138.677L87.6692 101.423C87.6953 101.115 87.782 100.815 87.9243 100.54C88.0666 100.265 88.2617 100.021 88.4984 99.8218C88.7352 99.6226 89.0089 99.4721 89.304 99.3788C89.599 99.2856 89.9095 99.2515 90.2178 99.2785L145.549 104.034C145.86 104.059 146.162 104.146 146.438 104.289C146.715 104.432 146.96 104.628 147.16 104.867C147.36 105.105 147.51 105.381 147.603 105.678C147.696 105.975 147.728 106.288 147.699 106.598V106.598Z" stroke="#263238" stroke-width="0.517989" stroke-linecap="round" stroke-linejoin="round"/>
<path d="M147.7 106.599L144.493 143.858L99.9463 140.024L103.158 102.771C103.184 102.462 103.271 102.162 103.413 101.887C103.555 101.613 103.75 101.369 103.987 101.169C104.224 100.97 104.497 100.82 104.793 100.726C105.088 100.633 105.398 100.599 105.706 100.626L145.555 104.05C145.864 104.076 146.164 104.163 146.438 104.305C146.713 104.447 146.957 104.642 147.156 104.879C147.356 105.116 147.506 105.39 147.599 105.685C147.693 105.98 147.727 106.29 147.7 106.599Z" fill="#90D2FF" stroke="#263238" stroke-width="0.517989" stroke-linecap="round" stroke-linejoin="round"/>
<path opacity="0.3" d="M144.57 107.664L106.493 104.391C106.239 104.368 106.004 104.247 105.838 104.054C105.673 103.86 105.589 103.609 105.607 103.355C105.629 103.101 105.75 102.866 105.944 102.7C106.138 102.535 106.388 102.452 106.643 102.469L144.72 105.743C144.974 105.765 145.209 105.886 145.374 106.08C145.54 106.274 145.623 106.524 145.606 106.779C145.583 107.033 145.462 107.267 145.269 107.433C145.075 107.599 144.824 107.682 144.57 107.664Z" fill="white" fill-opacity="0.7"/>
<path d="M174.432 190.73C174.432 190.73 171.563 188.684 165.627 189.093C165.627 189.093 165.191 196.216 164.383 198.287C163.575 200.359 159.317 203.949 158.525 204.566C157.732 205.182 157.732 207.332 157.732 207.332H175.769C175.537 204.249 175.058 201.19 174.334 198.184L174.432 190.73Z" fill="white"/>
<path opacity="0.4" d="M174.432 190.732C174.432 190.732 171.563 188.686 165.627 189.095C165.627 189.095 165.191 196.217 164.383 198.289C163.575 200.361 159.317 203.951 158.525 204.567C157.732 205.184 157.732 207.334 157.732 207.334H175.769C175.537 204.251 175.058 201.192 174.334 198.186L174.432 190.732Z" fill="#90D2FF"/>
<path d="M174.432 190.73C174.432 190.73 171.563 188.684 165.627 189.093C165.627 189.093 165.191 196.216 164.383 198.287C163.575 200.359 159.317 203.949 158.525 204.566C157.732 205.182 157.732 207.332 157.732 207.332H175.769C175.537 204.249 175.058 201.19 174.334 198.184L174.432 190.73Z" stroke="#263238" stroke-width="0.517989" stroke-linecap="round" stroke-linejoin="round"/>
<path d="M170.708 191.652C170.708 191.652 170.284 198.21 169.263 199.94C168.718 200.891 168.045 201.762 167.264 202.53" stroke="#263238" stroke-width="0.517989" stroke-linecap="round" stroke-linejoin="round"/>
<path d="M169.569 200.4C169.569 200.4 166.886 198.302 163.721 199.452" stroke="#263238" stroke-width="0.517989" stroke-linecap="round" stroke-linejoin="round"/>
<path d="M170.709 198.116C170.709 198.116 167.818 195.868 164.772 197.298" stroke="#263238" stroke-width="0.517989" stroke-linecap="round" stroke-linejoin="round"/>
<path d="M171.102 195.263C171.102 195.263 167.595 193.377 165.047 194.807" stroke="#263238" stroke-width="0.517989" stroke-linecap="round" stroke-linejoin="round"/>
<path d="M173.179 190.31L172.718 193.216C172.718 193.216 167.305 191.46 164.316 192.599V189.025C164.316 189.025 169.874 187.077 173.179 190.31Z" fill="#90D2FF" stroke="#263238" stroke-width="0.517989" stroke-linecap="round" stroke-linejoin="round"/>
<path d="M179.033 117.911C179.033 117.911 167.528 120.164 156.241 116.507C153.671 115.688 151.213 114.553 148.922 113.13C148.922 113.13 148.953 112.404 148.974 111.218C149.067 106.587 149.041 94.9378 146.601 92.0526C145.047 90.2344 143.83 78.9941 146.829 73.3117L156.003 65.9355C168.704 68.4167 171.387 71.7785 173.485 79.0303C173.873 80.3564 174.236 81.8119 174.64 83.4177C175.08 85.1685 175.495 87.3078 175.888 89.6336C177.795 101.216 179.033 117.911 179.033 117.911Z" fill="#90D2FF"/>
<path opacity="0.2" d="M175.888 89.6344L170.709 112.773C170.709 112.773 163.224 114.845 156.246 116.508C153.675 115.689 151.214 114.555 148.922 113.13C148.922 113.13 148.953 112.405 148.974 111.219C155.241 108.013 164.389 103.299 164.317 103.076C164.197 102.729 164.317 90.6445 164.317 90.6445C164.317 90.6445 172.604 88.7227 173.485 79.0156C173.873 80.3417 174.236 81.7972 174.64 83.403C175.08 85.159 175.495 87.2827 175.888 89.6344Z" fill="black"/>
<path d="M179.033 117.911C179.033 117.911 167.528 120.164 156.241 116.507C153.671 115.688 151.213 114.553 148.922 113.13C148.922 113.13 148.953 112.404 148.974 111.218C149.067 106.587 149.041 94.9378 146.601 92.0526C145.047 90.2344 143.83 78.9941 146.829 73.3117L156.003 65.9355C168.704 68.4167 171.387 71.7785 173.485 79.0303C173.873 80.3564 174.236 81.8119 174.64 83.4177C175.08 85.1685 175.495 87.3078 175.888 89.6336C177.795 101.216 179.033 117.911 179.033 117.911Z" stroke="#263238" stroke-width="0.517989" stroke-linecap="round" stroke-linejoin="round"/>
<path d="M156.407 56.2539C156.407 56.2539 152.356 62.0554 157.743 66.5826C157.743 66.5826 151.206 73.9173 149.056 72.9073C148.15 72.4825 149.056 69.8356 149.056 69.8356L145.265 62.822L156.407 56.2539Z" fill="white" stroke="#263238" stroke-width="0.517989" stroke-linecap="round" stroke-linejoin="round"/>
<path d="M155.086 59.2604C156.35 53.7334 155.744 45.5026 148 46.233C142.571 46.751 138.702 49.7553 140.23 57.0382C140.867 60.1099 141.39 64.461 144.208 68.3874C144.99 69.4751 153.174 65.6265 152.677 62.5134" fill="white"/>
<path d="M155.086 59.2604C156.35 53.7334 155.744 45.5026 148 46.233C142.571 46.751 138.702 49.7553 140.23 57.0382C140.867 60.1099 141.39 64.461 144.208 68.3874C144.99 69.4751 153.174 65.6265 152.677 62.5134" stroke="#263238" stroke-width="0.517989" stroke-linecap="round" stroke-linejoin="round"/>
<path d="M144.006 55.8038C144.552 55.5923 145.14 55.5117 145.723 55.5684C146.306 55.625 146.867 55.8174 147.362 56.1301" stroke="#263238" stroke-width="0.517989" stroke-linecap="round" stroke-linejoin="round"/>
<path d="M140.11 56.4821C140.21 56.2701 140.382 56.1009 140.596 56.0058C140.811 55.9107 141.052 55.8959 141.276 55.9642" stroke="#263238" stroke-width="0.517989" stroke-linecap="round" stroke-linejoin="round"/>
<path d="M142.048 57.6328C142.048 57.6328 140.452 60.5387 140.447 60.9531C140.442 61.3675 142.41 61.5074 142.41 61.5074" fill="white"/>
<path d="M142.048 57.6328C142.048 57.6328 140.452 60.5387 140.447 60.9531C140.442 61.3675 142.41 61.5074 142.41 61.5074" stroke="#263238" stroke-width="0.517989" stroke-linecap="round" stroke-linejoin="round"/>
<path d="M145.477 58.2236C145.477 58.5395 145.337 58.7985 145.14 58.8089C144.943 58.8193 144.777 58.5603 144.767 58.2443C144.757 57.9283 144.907 57.6693 145.104 57.6641C145.301 57.659 145.466 57.918 145.477 58.2236Z" fill="#263238"/>
<path d="M143.224 63.6192C143.224 63.6192 146.285 63.0442 146.85 61.9668" stroke="#263238" stroke-width="0.517989" stroke-linecap="round" stroke-linejoin="round"/>
<path d="M140.09 52.007L142.473 51.3129C142.473 51.3129 145.814 49.7589 146.523 49.9765C147.233 50.1941 148.673 52.4059 148.626 53.6698C148.626 53.6698 150.875 55.6485 151.159 58.5181L151.843 58.2073C151.843 58.2073 151.807 55.6174 153.278 55.6847C154.749 55.7521 155.412 57.5132 155.314 58.0675C155.215 58.6217 153.604 60.9216 153.604 60.9216C153.604 60.9216 157.292 60.3725 157.412 53.1518C157.531 45.931 149.616 44.7552 145.767 45.0504C143.818 45.2371 141.861 45.3097 139.904 45.268L140.121 47.3399L138.567 47.7491L139.738 49.184L138.453 49.7693L140.09 52.007Z" fill="#263238"/>
<path d="M153.433 130.742C153.433 130.742 162.808 133.223 165.346 140.206" stroke="white" stroke-width="0.517989" stroke-linecap="round" stroke-linejoin="round"/>
<path d="M157.727 134.496C157.727 134.496 152.662 142.934 144.907 147.316" stroke="white" stroke-width="0.517989" stroke-linecap="round" stroke-linejoin="round"/>
<path d="M150.605 181.95C150.605 181.95 153.485 181.302 154.273 180.184" stroke="white" stroke-width="0.517989" stroke-linecap="round" stroke-linejoin="round"/>
<path d="M166.642 183.022C166.642 183.022 169.459 181.562 172.267 183.022" stroke="white" stroke-width="0.517989" stroke-linecap="round" stroke-linejoin="round"/>
<path d="M175.764 143.738C175.764 143.738 171.035 155.989 168.642 157.123" stroke="white" stroke-width="0.517989" stroke-linecap="round" stroke-linejoin="round"/>
<path d="M155.055 124.553C155.184 125.884 160.753 132.053 165.347 134.498" stroke="white" stroke-width="0.517989" stroke-linecap="round" stroke-linejoin="round"/>
<path d="M159.805 119.344C160.475 120.995 160.614 122.815 160.204 124.55C159.757 126.047 159.757 127.642 160.204 129.139" stroke="white" stroke-width="0.517989" stroke-linecap="round" stroke-linejoin="round"/>
<path d="M149.673 93.8711C149.673 93.8711 158.391 105.153 167.761 108.857" stroke="#263238" stroke-width="0.517989" stroke-linecap="round" stroke-linejoin="round"/>
<path d="M158.696 75.6328C158.696 75.6328 158.665 83.3042 164.197 86.7644" stroke="#263238" stroke-width="0.517989" stroke-linecap="round" stroke-linejoin="round"/>
<path d="M161.809 86.8258C160.638 87.9758 161.913 102.407 161.913 102.407C161.913 102.407 155.112 105.069 152.983 106.784C150.854 108.498 140.768 112.435 140.768 112.435C140.768 112.435 139.214 117.729 141.152 117.91C143.089 118.092 163.151 111.254 167.74 108.856C167.74 108.856 170.729 91.2443 170.708 86.7637" fill="white"/>
<path d="M161.809 86.8258C160.638 87.9758 161.913 102.407 161.913 102.407C161.913 102.407 155.112 105.069 152.983 106.784C150.854 108.498 140.768 112.435 140.768 112.435C140.768 112.435 139.214 117.729 141.152 117.91C143.089 118.092 163.151 111.254 167.74 108.856C167.74 108.856 170.729 91.2443 170.708 86.7637" stroke="#263238" stroke-width="0.517989" stroke-linecap="round" stroke-linejoin="round"/>
<path d="M141.567 112.12C140.634 111.944 138.977 111.333 138.107 111.535C137.236 111.737 135.646 112.695 134.009 113.089C132.372 113.482 133.051 114.125 134.009 114.316C134.711 114.433 135.426 114.433 136.128 114.316L134.797 115.616C134.034 116.029 133.247 116.394 132.44 116.709C131.958 116.709 130.254 117.17 130.368 117.896C130.482 118.621 131.461 118.538 132.554 118.579C132.554 118.579 130.813 118.926 131 119.916C131.114 120.594 133.072 119.983 134.071 119.983C134.071 119.983 133.253 120.874 133.864 121.148C134.475 121.423 135.833 120.739 135.833 120.739C135.833 120.739 135.781 121.475 136.392 121.547C137.003 121.62 138.542 121.029 139.588 120.397C140.618 119.733 141.605 119.003 142.541 118.211C142.937 117.849 143.39 117.555 143.882 117.341" fill="white"/>
<path d="M141.567 112.12C140.634 111.944 138.977 111.333 138.107 111.535C137.236 111.737 135.646 112.695 134.009 113.089C132.372 113.482 133.051 114.125 134.009 114.316C134.711 114.433 135.426 114.433 136.128 114.316L134.797 115.616C134.034 116.029 133.247 116.394 132.44 116.709C131.958 116.709 130.254 117.17 130.368 117.896C130.482 118.621 131.461 118.538 132.554 118.579C132.554 118.579 130.813 118.926 131 119.916C131.114 120.594 133.072 119.983 134.071 119.983C134.071 119.983 133.253 120.874 133.864 121.148C134.475 121.423 135.833 120.739 135.833 120.739C135.833 120.739 135.781 121.475 136.392 121.547C137.003 121.62 138.542 121.029 139.588 120.397C140.618 119.733 141.605 119.003 142.541 118.211C142.937 117.849 143.39 117.555 143.882 117.341" stroke="#263238" stroke-width="0.517989" stroke-linecap="round" stroke-linejoin="round"/>
<path d="M132.579 118.599C133.06 118.573 133.539 118.518 134.014 118.434C134.423 118.33 134.832 118.195 134.832 118.195" stroke="#263238" stroke-width="0.517989" stroke-linecap="round" stroke-linejoin="round"/>
<path d="M134.076 120.004C134.702 119.916 135.305 119.708 135.853 119.393" stroke="#263238" stroke-width="0.517989" stroke-linecap="round" stroke-linejoin="round"/>
<path d="M135.837 120.759C136.3 120.701 136.743 120.536 137.132 120.277" stroke="#263238" stroke-width="0.517989" stroke-linecap="round" stroke-linejoin="round"/>
<path d="M134.962 116.01C134.962 116.01 134.589 116.864 134.962 117.341C135.335 117.818 135.785 117.859 135.853 118.377C135.92 118.895 136.811 118.895 137.132 119.232C137.453 119.568 137.697 120.216 138.722 120.268" stroke="#263238" stroke-width="0.517989" stroke-linecap="round" stroke-linejoin="round"/>
<path d="M161.374 71.8613C157.847 79.8435 161.374 90.9181 161.374 90.9181C161.374 90.9181 169.911 93.8189 170.698 92.5705C171.486 91.3222 172.926 85.1995 173.169 82.3713" fill="#90D2FF"/>
<path d="M161.374 71.8613C157.847 79.8435 161.374 90.9181 161.374 90.9181C161.374 90.9181 169.911 93.8189 170.698 92.5705C171.486 91.3222 172.926 85.1995 173.169 82.3713" stroke="#263238" stroke-width="0.517989" stroke-linecap="round" stroke-linejoin="round"/>
<path d="M170.708 83.2578C170.708 83.2578 167.082 88.246 164.197 88.3134" stroke="#263238" stroke-width="0.517989" stroke-linecap="round" stroke-linejoin="round"/>
<path d="M41.1076 208.661C41.1076 208.661 40.2218 205.279 41.2578 204.025C43.1122 201.777 41.0299 199.881 42.8946 199.109L43.6768 200.016C43.827 199.099 43.3919 196.297 46.8521 195.934C51.0374 195.494 51.1151 198.524 51.343 199.56L51.2705 198.156C53.0576 198.156 52.1304 199.938 54.8343 202.849C55.5431 203.635 56.0827 204.559 56.4196 205.562C56.7564 206.565 56.8833 207.627 56.7923 208.682L41.1076 208.661Z" fill="#263238"/>
<path d="M73.0102 208.662C71.3267 207.911 72.8703 201.56 72.8703 201.56C72.8703 201.56 70.6067 200.042 72.8703 198.452C73.7458 199.194 74.8073 199.683 75.9402 199.865C77.0731 200.048 78.2343 199.917 79.2986 199.488C79.2986 199.488 79.7388 195.241 82.4065 195.784C82.4065 195.784 83.0902 198.478 84.6494 200.016C88.871 204.16 94.3254 204.678 95.2371 206.667C95.5116 207.268 95.1801 208.641 95.1801 208.641L73.0102 208.662Z" fill="#263238"/>
<path d="M65.815 107.383L67.8869 111.775C67.8869 111.775 76.4545 129.48 81.7017 149.754C81.826 150.236 84.5403 159.84 82.3647 183.755L83.6079 187.951L82.2508 194.882C82.2508 194.882 84.2917 197.829 84.2191 198.792C84.2191 198.792 79.1843 199.73 77.4853 200.631C76.1799 201.336 72.2588 205.205 72.2588 205.205C71.1451 204.977 71.0467 200.481 71.0467 200.481C71.0467 200.481 68.7209 160.56 68.0527 158.84C67.3845 157.12 63.3027 149.703 56.9315 132.728C56.9315 132.728 56.7864 156.436 55.0874 162.435C53.5697 167.77 55.3671 182.704 55.3671 182.704L54.3312 199.326C54.3312 199.326 57.9156 203.05 55.0097 204.05C55.0097 204.05 53.0673 200.315 47.5351 199.466C44.7225 199.031 41.2209 204.024 41.2209 204.024C39.988 203.63 41.7388 197.358 41.7388 197.358C37.8177 167.77 40.7029 173.126 39.9259 158.664C39.4079 149.381 36.792 109.672 39.8793 106.445L65.815 107.383Z" fill="#BFBFBF"/>
<path opacity="0.2" d="M38.4395 121.06C52.2905 122.148 64.282 117.615 69.4878 115.248C68.4984 113.031 67.8924 111.777 67.8924 111.777L65.8204 107.39L39.921 106.447C38.8228 107.613 38.4343 113.533 38.4395 121.06Z" fill="black"/>
<path opacity="0.2" d="M57.0713 133.036C63.3752 149.793 67.4311 157.128 68.0837 158.837C68.4619 159.832 69.3891 173.388 70.1143 184.763C70.943 174.403 71.7977 163.489 71.8702 161.35C72.0256 157.081 68.9436 151.233 68.4826 149.721C68.0216 148.208 69.0627 146.571 69.0627 146.571L63.5203 139.579C63.7067 137.206 60.7697 126.852 60.7697 126.852C59.0241 128.504 57.4701 132.021 57.0713 133.036Z" fill="black"/>
<path d="M65.815 107.383L67.8869 111.775C67.8869 111.775 76.4545 129.48 81.7017 149.754C81.826 150.236 84.5403 159.84 82.3647 183.755L83.6079 187.951L82.2508 194.882C82.2508 194.882 84.2917 197.829 84.2191 198.792C84.2191 198.792 79.1843 199.73 77.4853 200.631C76.1799 201.336 72.2588 205.205 72.2588 205.205C71.1451 204.977 71.0467 200.481 71.0467 200.481C71.0467 200.481 68.7209 160.56 68.0527 158.84C67.3845 157.12 63.3027 149.703 56.9315 132.728C56.9315 132.728 56.7864 156.436 55.0874 162.435C53.5697 167.77 55.3671 182.704 55.3671 182.704L54.3312 199.326C54.3312 199.326 57.9156 203.05 55.0097 204.05C55.0097 204.05 53.0673 200.315 47.5351 199.466C44.7225 199.031 41.2209 204.024 41.2209 204.024C39.988 203.63 41.7388 197.358 41.7388 197.358C37.8177 167.77 40.7029 173.126 39.9259 158.664C39.4079 149.381 36.792 109.672 39.8793 106.445L65.815 107.383Z" stroke="#263238" stroke-width="0.517989" stroke-linecap="round" stroke-linejoin="round"/>
<path d="M56.9531 132.731C56.9531 132.731 60.118 126.624 62.8168 124.92" stroke="#263238" stroke-width="0.517989" stroke-linecap="round" stroke-linejoin="round"/>
<path d="M64.0073 122.939C64.0073 122.939 54.3935 125.866 51.0576 126.431" stroke="#263238" stroke-width="0.517989" stroke-linecap="round" stroke-linejoin="round"/>
<path d="M59.0866 113.131C59.501 121.134 62.3241 122.496 59.6046 124.242C59.6046 124.242 59.6823 127.987 58.3252 130.359" stroke="#263238" stroke-width="0.517989" stroke-linecap="round" stroke-linejoin="round"/>
<path d="M42.242 110.068C42.242 110.068 43.3763 122.371 39.5898 124.686" stroke="#263238" stroke-width="0.517989" stroke-linecap="round" stroke-linejoin="round"/>
<path d="M39.5895 114.035C39.5895 114.035 39.3046 122.225 39.5895 128.824C39.5895 128.824 40.5374 156.717 41.4854 160.219C42.4333 163.721 40.0246 169.025 40.2318 184.161" stroke="#263238" stroke-width="0.517989" stroke-linecap="round" stroke-linejoin="round"/>
<path d="M48.6655 196.008C47.7691 195.813 46.8328 195.937 46.0186 196.36" stroke="#263238" stroke-width="0.517989" stroke-linecap="round" stroke-linejoin="round"/>
<path d="M54.3624 199.329C53.1745 198.173 51.7975 197.229 50.291 196.537" stroke="#263238" stroke-width="0.517989" stroke-linecap="round" stroke-linejoin="round"/>
<path d="M52.8087 134.662C50.6849 137.045 47.318 141.536 43.8682 141.914" stroke="#263238" stroke-width="0.517989" stroke-linecap="round" stroke-linejoin="round"/>
<path d="M56.0567 130.787C55.404 131.611 54.7306 132.419 54.0469 133.222" stroke="#263238" stroke-width="0.517989" stroke-linecap="round" stroke-linejoin="round"/>
<path d="M53.0312 158.664C53.0312 158.664 48.2036 165.237 45.5566 165.615" stroke="#263238" stroke-width="0.517989" stroke-linecap="round" stroke-linejoin="round"/>
<path d="M58.709 131.543C58.709 131.543 67.3076 155.49 70.2964 157.852C70.2964 157.852 70.6331 175.463 70.7315 181.612C70.8299 187.76 72.244 195.934 72.244 195.934" stroke="#263238" stroke-width="0.517989" stroke-linecap="round" stroke-linejoin="round"/>
<path d="M81.4226 195.758C81.4226 195.758 78.1127 196.903 76.5017 197.633C75.5126 198.116 74.7374 198.948 74.3262 199.969" stroke="#263238" stroke-width="0.517989" stroke-linecap="round" stroke-linejoin="round"/>
<path d="M73.0466 149.218C68.4313 146.323 62.3449 142.702 59.8896 137.6" stroke="#263238" stroke-width="0.517989" stroke-linecap="round" stroke-linejoin="round"/>
<path d="M77.0714 151.606C76.196 151.124 75.3361 150.622 74.4814 150.104" stroke="#263238" stroke-width="0.517989" stroke-linecap="round" stroke-linejoin="round"/>
<path d="M62.5262 116.366C60.045 116.33 57.3463 116.003 55.207 114.6" stroke="#263238" stroke-width="0.517989" stroke-linecap="round" stroke-linejoin="round"/>
<path d="M66.4684 116.133C65.7587 116.231 65.0439 116.293 64.3291 116.33" stroke="#263238" stroke-width="0.517989" stroke-linecap="round" stroke-linejoin="round"/>
<path d="M71.073 61.1444C69.1772 58.2747 59.5167 57.5444 53.3163 57.5444C47.116 57.5444 39.5896 56.5084 36.1916 63.5012C33.6017 68.8417 39.5689 97.0825 39.5689 97.0825L38.1082 109.276C49.3382 112.798 68.5763 112.021 68.5763 112.021L65.9863 100.998C65.9863 100.998 72.9688 64.0089 71.073 61.1444Z" fill="#263238"/>
<path d="M49.6333 50.4512C49.6333 50.4512 50.4672 57.097 47.9395 58.5318C47.9395 58.5318 49.2033 63.4061 53.6373 63.7117C58.0713 64.0173 60.0293 59.257 60.0293 59.257L49.6333 50.4512Z" fill="white" stroke="#263238" stroke-width="0.517989" stroke-linecap="round" stroke-linejoin="round"/>
<path d="M73.1307 33.389L84.4783 32.3423C84.7355 32.3186 84.9916 32.398 85.1902 32.5631C85.3888 32.7282 85.5137 32.9654 85.5375 33.2226L86.2844 41.3206L73.018 42.5443L72.2711 34.4463C72.2476 34.1926 72.3245 33.9399 72.4852 33.7423C72.6459 33.5446 72.8776 33.4178 73.1307 33.389Z" fill="#90D2FF"/>
<path opacity="0.3" d="M73.1307 33.389L84.4783 32.3423C84.7355 32.3186 84.9916 32.398 85.1902 32.5631C85.3888 32.7282 85.5137 32.9654 85.5375 33.2226L86.2844 41.3206L73.018 42.5443L72.2711 34.4463C72.2476 34.1926 72.3245 33.9399 72.4852 33.7423C72.6459 33.5446 72.8776 33.4178 73.1307 33.389Z" fill="black" fill-opacity="0.7"/>
<path opacity="0.3" d="M84.809 33.1598L81.5439 33.4609L82.1463 39.991L85.4113 39.6898L84.809 33.1598Z" fill="white" fill-opacity="0.7"/>
<path d="M73.1307 33.389L84.4783 32.3423C84.7355 32.3186 84.9916 32.398 85.1902 32.5631C85.3888 32.7282 85.5137 32.9654 85.5375 33.2226L86.2844 41.3206L73.018 42.5443L72.2711 34.4463C72.2476 34.1926 72.3245 33.9399 72.4852 33.7423C72.6459 33.5446 72.8776 33.4178 73.1307 33.389V33.389Z" stroke="#263238" stroke-width="0.517989" stroke-linecap="round" stroke-linejoin="round"/>
<path d="M92.7519 31.5688L104.1 30.5221C104.357 30.4983 104.613 30.5778 104.811 30.7428C105.01 30.9079 105.135 31.1451 105.159 31.4023L105.906 39.5004L92.6186 40.726L91.8717 32.6279C91.8479 32.3707 91.9274 32.1147 92.0924 31.916C92.2575 31.7174 92.4948 31.5925 92.7519 31.5688Z" fill="#90D2FF"/>
<path opacity="0.3" d="M92.7519 31.5668L104.1 30.5201C104.357 30.4964 104.613 30.5758 104.811 30.7409C105.01 30.906 105.135 31.1432 105.159 31.4004L105.906 39.4984L92.6186 40.724L91.8717 32.626C91.8479 32.3688 91.9274 32.1127 92.0924 31.9141C92.2575 31.7154 92.4948 31.5905 92.7519 31.5668Z" fill="black" fill-opacity="0.7"/>
<path opacity="0.3" d="M104.196 31.3788L102.226 31.5605L102.828 38.0906L104.798 37.9088L104.196 31.3788Z" fill="white" fill-opacity="0.7"/>
<path d="M92.7519 31.5688L104.1 30.5221C104.357 30.4983 104.613 30.5778 104.811 30.7428C105.01 30.9079 105.135 31.1451 105.159 31.4023L105.906 39.5004L92.6186 40.726L91.8717 32.6279C91.8479 32.3707 91.9274 32.1147 92.0924 31.916C92.2575 31.7174 92.4948 31.5925 92.7519 31.5688V31.5688Z" stroke="#263238" stroke-width="0.517989" stroke-linecap="round" stroke-linejoin="round"/>
<path d="M88.629 31.944L99.9766 30.8973C100.234 30.8736 100.49 30.953 100.689 31.1181C100.887 31.2832 101.012 31.5204 101.036 31.7776L101.783 39.8757L88.4751 41.1031L87.7281 33.0051C87.7162 32.876 87.7302 32.7458 87.7692 32.6222C87.8082 32.4985 87.8716 32.384 87.9555 32.2851C88.0394 32.1863 88.1422 32.1052 88.2579 32.0466C88.3735 31.9881 88.4997 31.9532 88.629 31.944Z" fill="#90D2FF" stroke="#263238" stroke-width="0.517989" stroke-linecap="round" stroke-linejoin="round"/>
<path d="M108.229 30.1352L119.577 29.0885C119.834 29.0648 120.09 29.1442 120.289 29.3092C120.488 29.4743 120.612 29.7115 120.636 29.9687L121.383 38.0668L108.096 39.2924L107.349 31.1943C107.325 30.9371 107.405 30.6811 107.57 30.4824C107.735 30.2838 107.972 30.1589 108.229 30.1352Z" fill="#90D2FF" stroke="#263238" stroke-width="0.517989" stroke-linecap="round" stroke-linejoin="round"/>
<path opacity="0.3" d="M100.287 31.734L97.0225 32.0352L97.6248 38.5652L100.89 38.264L100.287 31.734Z" fill="white" fill-opacity="0.7"/>
<path opacity="0.3" d="M119.673 29.943L116.408 30.2441L117.011 36.7742L120.276 36.473L119.673 29.943Z" fill="white" fill-opacity="0.7"/>
<path d="M126.99 35.6499L130.429 72.883L70.42 78.4255L67.0013 41.1821C66.9436 40.5598 67.1356 39.94 67.5348 39.4592C67.934 38.9784 68.5079 38.6758 69.1302 38.618L124.431 33.5158C124.739 33.4874 125.05 33.52 125.345 33.6119C125.641 33.7039 125.916 33.8532 126.153 34.0515C126.391 34.2498 126.587 34.4931 126.731 34.7674C126.874 35.0417 126.962 35.3416 126.99 35.6499Z" fill="#90D2FF"/>
<path opacity="0.3" d="M126.99 35.6499L130.429 72.883L70.42 78.4255L67.0013 41.1821C66.9436 40.5598 67.1356 39.94 67.5348 39.4592C67.934 38.9784 68.5079 38.6758 69.1302 38.618L124.431 33.5158C124.739 33.4874 125.05 33.52 125.345 33.6119C125.641 33.7039 125.916 33.8532 126.153 34.0515C126.391 34.2498 126.587 34.4931 126.731 34.7674C126.874 35.0417 126.962 35.3416 126.99 35.6499Z" fill="black" fill-opacity="0.7"/>
<path d="M126.99 35.6499L130.429 72.883L70.42 78.4255L67.0013 41.1821C66.9436 40.5598 67.1356 39.94 67.5348 39.4592C67.934 38.9784 68.5079 38.6758 69.1302 38.618L124.431 33.5158C124.739 33.4874 125.05 33.52 125.345 33.6119C125.641 33.7039 125.916 33.8532 126.153 34.0515C126.391 34.2498 126.587 34.4931 126.731 34.7674C126.874 35.0417 126.962 35.3416 126.99 35.6499V35.6499Z" stroke="#263238" stroke-width="0.517989" stroke-linecap="round" stroke-linejoin="round"/>
<path d="M126.99 35.6486L130.43 72.8816L85.8828 76.9893L82.4485 39.7562C82.3909 39.1339 82.5828 38.5142 82.982 38.0334C83.3813 37.5525 83.9552 37.2499 84.5775 37.1922L124.406 33.5144C124.716 33.4823 125.03 33.5123 125.328 33.6025C125.627 33.6928 125.904 33.8416 126.145 34.0402C126.386 34.2388 126.584 34.4833 126.729 34.7594C126.874 35.0355 126.963 35.3378 126.99 35.6486Z" fill="#90D2FF" stroke="#263238" stroke-width="0.517989" stroke-linecap="round" stroke-linejoin="round"/>
<path opacity="0.3" d="M124.105 37.2489L86.0484 40.7609C85.795 40.7782 85.5448 40.6958 85.3513 40.5313C85.1577 40.3668 85.0361 40.1332 85.0124 39.8803C84.9937 39.6274 85.0749 39.3772 85.2385 39.1835C85.4022 38.9898 85.6353 38.868 85.8878 38.8443L123.944 35.3323C124.198 35.315 124.448 35.3974 124.642 35.5619C124.835 35.7264 124.957 35.96 124.98 36.2129C124.997 36.4652 124.914 36.714 124.751 36.9071C124.588 37.1002 124.357 37.2227 124.105 37.2489Z" fill="white" fill-opacity="0.7"/>
<path d="M57.2316 37.2733C57.2316 37.2733 48.4517 35.5122 47.4675 41.1634C46.4833 46.8147 49.7 49.2181 49.7 49.2181L57.2316 37.2733Z" fill="#263238"/>
<path d="M49.7002 52.3234C48.6969 49.514 48.5403 46.472 49.2496 43.5745C50.1094 39.9486 54.4295 34.9603 60.982 39.4928C64.3541 41.8289 64.5613 46.9 63.5098 51.5412C63.2612 52.6497 63.4477 53.7323 63.0799 54.7527C61.7849 58.3268 59.4177 61.0774 58.1227 61.1395C55.9627 61.2483 51.6427 58.6325 51.8188 56.3533" fill="white"/>
<path d="M49.7002 52.3234C48.6969 49.514 48.5403 46.472 49.2496 43.5745C50.1094 39.9486 54.4295 34.9603 60.982 39.4928C64.3541 41.8289 64.5613 46.9 63.5098 51.5412C63.2612 52.6497 63.4477 53.7323 63.0799 54.7527C61.7849 58.3268 59.4177 61.0774 58.1227 61.1395C55.9627 61.2483 51.6427 58.6325 51.8188 56.3533" stroke="#263238" stroke-width="0.517989" stroke-linecap="round" stroke-linejoin="round"/>
<path d="M58.4493 50.6808C58.4493 50.6808 56.7037 49.4169 55.0254 50.4529" stroke="#263238" stroke-width="0.517989" stroke-linecap="round" stroke-linejoin="round"/>
<path d="M61.7441 50.4519C61.7441 50.4519 63.065 49.2398 63.9249 49.4159" stroke="#263238" stroke-width="0.517989" stroke-linecap="round" stroke-linejoin="round"/>
<path d="M55.9844 52.6173C55.9844 52.9384 56.145 53.2026 56.347 53.2026C56.549 53.2026 56.7147 52.9384 56.7147 52.6173C56.7147 52.2961 56.549 52.0371 56.347 52.0371C56.145 52.0371 55.9844 52.2961 55.9844 52.6173Z" fill="#263238"/>
<path d="M61.7447 52.8771C61.9478 52.8771 62.1125 52.6173 62.1125 52.2969C62.1125 51.9765 61.9478 51.7168 61.7447 51.7168C61.5416 51.7168 61.377 51.9765 61.377 52.2969C61.377 52.6173 61.5416 52.8771 61.7447 52.8771Z" fill="#263238"/>
<path d="M61.0035 51.6758C60.3612 52.5149 61.2625 55.7109 61.0035 55.9388C60.7445 56.1667 59.0973 55.5193 59.0973 55.5193C59.0973 55.5193 58.714 55.0323 59.5169 54.7734" stroke="#263238" stroke-width="0.517989" stroke-linecap="round" stroke-linejoin="round"/>
<path d="M59.5426 57.5444C59.5426 57.5444 57.3307 57.5444 56.7402 56.7363" stroke="#263238" stroke-width="0.517989" stroke-linecap="round" stroke-linejoin="round"/>
<path d="M54.2491 45.5747L54.0781 48.2475C54.0781 48.2475 52.1823 49.2265 51.7058 50.2211C51.4222 50.8724 51.3184 51.5879 51.4053 52.293C51.4053 52.293 50.2554 50.2832 49.6338 50.449C49.4111 50.506 49.4111 51.3503 49.4111 51.3503C49.4111 51.3503 46.8211 45.5695 49.1624 42.5134C51.5037 39.4572 54.2491 45.5747 54.2491 45.5747Z" fill="#757575" stroke="#263238" stroke-width="0.517989" stroke-linecap="round" stroke-linejoin="round"/>
<path d="M50.5968 51.7153C50.5968 51.7153 50.0788 49.7729 48.3332 49.2601C46.5876 48.7473 47.7841 53.404 49.2707 54.01C50.7574 54.6161 51.1303 55.046 51.2184 54.4918" fill="white"/>
<path d="M50.5968 51.7153C50.5968 51.7153 50.0788 49.7729 48.3332 49.2601C46.5876 48.7473 47.7841 53.404 49.2707 54.01C50.7574 54.6161 51.1303 55.046 51.2184 54.4918" stroke="#263238" stroke-width="0.517989" stroke-linecap="round" stroke-linejoin="round"/>
<path d="M48.2192 45.2367C48.0742 45.0398 47.4319 40.0568 50.7211 37.8191C54.0103 35.5814 59.5684 35.8196 63.1062 38.9172C66.6441 42.0148 65.6392 47.3863 63.1062 49.22V46.9771C63.1062 46.9771 61.9408 49.2252 58.4443 49.4117L59.5114 47.7645C59.5114 47.7645 57.7917 48.8005 54.7614 48.7124C54.7614 48.7124 56.1859 47.578 55.9787 46.5679C55.9839 46.5679 51.1718 49.277 48.2192 45.2367Z" fill="#263238"/>
<path d="M48.8361 63.2016C46.412 63.4917 42.9621 66.6566 45.2102 72.2768C46.6451 75.8406 58.4345 73.722 58.4345 73.722C62.8063 71.9194 69.1931 65.4342 73.8809 62.4246C73.8809 62.4246 72.8916 56.2088 71.752 57.0894C66.453 61.1452 62.0967 61.4249 54.705 64.9783C54.7205 64.9576 50.359 63.0203 48.8361 63.2016Z" fill="white" stroke="#263238" stroke-width="0.517989" stroke-linecap="round" stroke-linejoin="round"/>
<path d="M54.249 70.0996C54.1765 72.4202 55.1296 72.8294 56.7353 73.3785L54.249 70.0996Z" fill="white"/>
<path d="M54.249 70.0996C54.1765 72.4202 55.1296 72.8294 56.7353 73.3785" stroke="#263238" stroke-width="0.517989" stroke-linecap="round" stroke-linejoin="round"/>
<path d="M71.3994 57.5437C71.5082 57.207 73.4714 53.7572 74.0256 52.8818C74.5799 52.0064 77.0559 51.2139 78.0141 50.6855C78.9724 50.1572 79.0501 49.3543 79.5681 49.9293C80.0861 50.5042 79.5681 51.8147 76.6984 53.2081C77.7181 53.2645 78.7401 53.2645 79.7598 53.2081C80.5264 53.0942 81.2101 52.4001 81.552 52.8818C81.8939 53.3635 81.9612 54.2286 80.2518 54.7569C79.4389 55.0516 78.5874 55.2261 77.7241 55.2749C78.5604 55.4536 79.3827 55.6925 80.1845 55.9897C80.4591 56.1917 80.8683 56.6631 81.2775 56.7356C81.6867 56.8082 82.1322 57.2536 81.3811 57.7716C81.1147 57.9188 80.8164 57.9986 80.5121 58.0041C80.2078 58.0095 79.9069 57.9403 79.6354 57.8027C79.6354 57.8027 81.6193 58.761 81.0029 59.3567C80.3865 59.9523 78.413 59.8332 78.413 59.8332C78.413 59.8332 75.4864 63.4022 73.0104 62.6562" fill="white"/>
<path d="M71.3994 57.5437C71.5082 57.207 73.4714 53.7572 74.0256 52.8818C74.5799 52.0064 77.0559 51.2139 78.0141 50.6855C78.9724 50.1572 79.0501 49.3543 79.5681 49.9293C80.0861 50.5042 79.5681 51.8147 76.6984 53.2081C77.7181 53.2645 78.7401 53.2645 79.7598 53.2081C80.5264 53.0942 81.2101 52.4001 81.552 52.8818C81.8939 53.3635 81.9612 54.2286 80.2518 54.7569C79.4389 55.0516 78.5874 55.2261 77.7241 55.2749C78.5604 55.4536 79.3827 55.6925 80.1845 55.9897C80.459 56.1917 80.8683 56.6631 81.2775 56.7356C81.6867 56.8082 82.1322 57.2536 81.3811 57.7716C81.1147 57.9188 80.8164 57.9986 80.5121 58.0041C80.2078 58.0095 79.9069 57.9403 79.6354 57.8027C79.6354 57.8027 81.6193 58.761 81.0029 59.3567C80.3865 59.9523 78.413 59.8332 78.413 59.8332C78.413 59.8332 75.4863 63.4022 73.0104 62.6562" stroke="#263238" stroke-width="0.517989" stroke-linecap="round" stroke-linejoin="round"/>
<path d="M74.9062 52.877C75.0737 52.9158 75.2272 53.0003 75.3497 53.121C75.4722 53.2416 75.559 53.3938 75.6004 53.5607C75.7713 54.1719 76.2737 54.2082 76.5794 54.8919C76.885 55.5757 76.7969 56.6324 77.0973 56.995C77.3978 57.3576 77.0973 58.8856 77.0973 58.8856" stroke="#263238" stroke-width="0.517989" stroke-linecap="round" stroke-linejoin="round"/>
<path d="M49.3436 62.7594C48.0745 61.1432 45.2256 61.8736 45.2256 61.8736" stroke="white" stroke-width="0.517989" stroke-linecap="round" stroke-linejoin="round"/>
<path d="M43.6709 58.8965C43.6709 58.8965 46.6027 59.3264 47.4678 61.7661" stroke="white" stroke-width="0.517989" stroke-linecap="round" stroke-linejoin="round"/>
<path d="M48.8354 74.3404C48.8354 74.3404 45.9761 76.5522 41.625 73.377" stroke="white" stroke-width="0.517989" stroke-linecap="round" stroke-linejoin="round"/>
<path d="M45.2262 75.0098C45.2262 75.0098 43.7759 77.0144 40.2432 76.9885" stroke="white" stroke-width="0.517989" stroke-linecap="round" stroke-linejoin="round"/>
<path d="M63.396 100.23C63.396 100.23 55.9163 106.193 48.3174 105.41" stroke="white" stroke-width="0.517989" stroke-linecap="round" stroke-linejoin="round"/>
<path d="M43.1797 87.1309C43.1797 87.1309 54.7878 95.6466 63.3813 96.1905" stroke="white" stroke-width="0.517989" stroke-linecap="round" stroke-linejoin="round"/>
<path d="M43.4854 150.168C45.4822 149.06 47.8299 148.767 50.0379 149.35C53.8244 150.303 63.661 164.371 65.0285 165.744C66.396 167.117 68.9549 167.816 71.3117 170.297C75.0413 174.187 80.4646 177.627 81.0137 177.627C81.5627 177.627 82.003 177.285 82.6868 177.15C83.3705 177.015 88.6644 176.534 88.6644 176.534C88.6644 176.534 90.4411 176.927 88.6644 177.689C86.8877 178.45 87.0224 179.129 87.0224 179.129C87.0224 179.129 86.6649 179.704 87.3798 180.253C88.0946 180.802 88.5142 180.501 89.5346 181.947C90.555 183.392 88.0946 182.573 88.0946 182.573C88.0946 182.573 88.6385 184.127 87.5455 183.972C86.4526 183.817 87.4108 185.49 85.6341 185.262C83.8574 185.034 80.0554 182.636 79.1023 180.123C79.1023 180.123 63.5937 172.711 61.2731 170.799C58.9525 168.888 49.1832 158.637 48.515 158.502" fill="#263238"/>
<path d="M84.0598 164.051H95.4555C95.7138 164.051 95.9615 164.153 96.1441 164.336C96.3267 164.519 96.4293 164.766 96.4293 165.025V173.157H83.0859V165.025C83.0859 164.766 83.1885 164.519 83.3712 164.336C83.5538 164.153 83.8015 164.051 84.0598 164.051Z" fill="#90D2FF"/>
<path opacity="0.3" d="M84.0598 164.051H95.4555C95.7138 164.051 95.9615 164.153 96.1441 164.336C96.3267 164.519 96.4293 164.766 96.4293 165.025V173.157H83.0859V165.025C83.0859 164.766 83.1885 164.519 83.3712 164.336C83.5538 164.153 83.8015 164.051 84.0598 164.051Z" fill="black" fill-opacity="0.7"/>
<path opacity="0.3" d="M95.6881 164.91H92.4092V171.468H95.6881V164.91Z" fill="white" fill-opacity="0.7"/>
<path d="M84.0598 164.051H95.4555C95.7138 164.051 95.9615 164.153 96.1441 164.336C96.3267 164.519 96.4293 164.766 96.4293 165.025V173.157H83.0859V165.025C83.0859 164.766 83.1885 164.519 83.3712 164.336C83.5538 164.153 83.8015 164.051 84.0598 164.051V164.051Z" stroke="#263238" stroke-width="0.517989" stroke-linecap="round" stroke-linejoin="round"/>
<path d="M103.743 164.051H115.139C115.397 164.051 115.645 164.153 115.828 164.336C116.01 164.519 116.113 164.766 116.113 165.025V173.157H102.77V165.025C102.77 164.897 102.795 164.77 102.844 164.652C102.893 164.534 102.964 164.426 103.055 164.336C103.145 164.246 103.253 164.174 103.371 164.125C103.489 164.076 103.615 164.051 103.743 164.051Z" fill="#90D2FF"/>
<path opacity="0.3" d="M103.743 164.051H115.139C115.397 164.051 115.645 164.153 115.828 164.336C116.01 164.519 116.113 164.766 116.113 165.025V173.157H102.77V165.025C102.77 164.897 102.795 164.77 102.844 164.652C102.893 164.534 102.964 164.426 103.055 164.336C103.145 164.246 103.253 164.174 103.371 164.125C103.489 164.076 103.615 164.051 103.743 164.051Z" fill="black" fill-opacity="0.7"/>
<path opacity="0.3" d="M115.154 164.91H113.176V171.468H115.154V164.91Z" fill="white" fill-opacity="0.7"/>
<path d="M103.743 164.051H115.139C115.397 164.051 115.645 164.153 115.828 164.336C116.01 164.519 116.113 164.766 116.113 165.025V173.157H102.77V165.025C102.77 164.897 102.795 164.77 102.844 164.652C102.893 164.534 102.964 164.426 103.055 164.336C103.145 164.246 103.253 164.174 103.371 164.125C103.489 164.076 103.615 164.051 103.743 164.051V164.051Z" stroke="#263238" stroke-width="0.517989" stroke-linecap="round" stroke-linejoin="round"/>
<path d="M99.5998 164.051H110.996C111.254 164.051 111.502 164.153 111.684 164.336C111.867 164.519 111.969 164.766 111.969 165.025V173.157H98.626V165.025C98.626 164.897 98.6512 164.77 98.7001 164.652C98.749 164.534 98.8208 164.426 98.9112 164.336C99.0016 164.246 99.109 164.174 99.2271 164.125C99.3453 164.076 99.4719 164.051 99.5998 164.051Z" fill="#90D2FF" stroke="#263238" stroke-width="0.517989" stroke-linecap="round" stroke-linejoin="round"/>
<path d="M119.282 164.051H130.678C130.936 164.051 131.184 164.153 131.367 164.336C131.549 164.519 131.652 164.766 131.652 165.025V173.157H118.309V165.025C118.309 164.766 118.411 164.519 118.594 164.336C118.776 164.153 119.024 164.051 119.282 164.051Z" fill="#90D2FF" stroke="#263238" stroke-width="0.517989" stroke-linecap="round" stroke-linejoin="round"/>
<path opacity="0.3" d="M111.228 164.91H107.949V171.468H111.228V164.91Z" fill="white" fill-opacity="0.7"/>
<path opacity="0.3" d="M130.694 164.91H127.415V171.468H130.694V164.91Z" fill="white" fill-opacity="0.7"/>
<path d="M137.458 171.259V208.653H77.2109V171.259C77.2109 170.634 77.4592 170.035 77.9012 169.593C78.3432 169.151 78.9427 168.902 79.5678 168.902H135.101C135.726 168.902 136.326 169.151 136.768 169.593C137.21 170.035 137.458 170.634 137.458 171.259Z" fill="#90D2FF"/>
<path opacity="0.3" d="M137.459 171.259V208.653H77.2119V171.259C77.2119 170.634 77.4602 170.035 77.9022 169.593C78.3442 169.151 78.9437 168.902 79.5688 168.902H135.102C135.727 168.902 136.327 169.151 136.769 169.593C137.211 170.035 137.459 170.634 137.459 171.259Z" fill="black" fill-opacity="0.7"/>
<path d="M137.458 171.259V208.653H77.2109V171.259C77.2109 170.634 77.4592 170.035 77.9012 169.593C78.3432 169.151 78.9427 168.902 79.5678 168.902H135.101C135.726 168.902 136.326 169.151 136.768 169.593C137.21 170.035 137.458 170.634 137.458 171.259V171.259Z" stroke="#263238" stroke-width="0.517989" stroke-linecap="round" stroke-linejoin="round"/>
<path d="M137.459 171.259V208.653H92.751V171.259C92.751 170.634 92.9993 170.035 93.4413 169.593C93.8833 169.151 94.4828 168.902 95.1078 168.902H135.102C135.727 168.902 136.326 169.151 136.768 169.593C137.21 170.035 137.459 170.634 137.459 171.259Z" fill="#90D2FF" stroke="#263238" stroke-width="0.517989" stroke-linecap="round" stroke-linejoin="round"/>
<path opacity="0.3" d="M134.433 172.591H96.2162C95.958 172.591 95.7103 172.489 95.5276 172.306C95.345 172.124 95.2424 171.876 95.2424 171.618C95.2396 171.488 95.2628 171.359 95.3105 171.239C95.3582 171.118 95.4295 171.008 95.5202 170.916C95.6109 170.823 95.7192 170.749 95.8387 170.699C95.9582 170.649 96.0866 170.623 96.2162 170.623H134.433C134.692 170.623 134.939 170.726 135.122 170.908C135.305 171.091 135.407 171.339 135.407 171.597C135.41 171.726 135.387 171.855 135.339 171.976C135.292 172.096 135.22 172.206 135.129 172.299C135.039 172.392 134.931 172.465 134.811 172.515C134.691 172.566 134.563 172.591 134.433 172.591Z" fill="white" fill-opacity="0.7"/>
<path d="M63.6868 208.654C60.5788 208.654 56.2122 206.655 51.1825 204.541C45.9664 202.345 40.025 200.025 33.9956 199.677C31.7476 199.548 33.1099 208.654 33.1099 208.654H28.189C28.189 208.654 23.3302 202.169 22.7656 196.362C22.7656 196.362 26.7334 193.912 27.6865 193.772C28.0152 193.738 28.3455 193.722 28.6759 193.726C29.7429 193.726 31.1674 193.772 31.1674 193.772C30.9395 193.638 27.3084 191.452 25.3038 189.23C23.6514 187.396 22.8951 184.5 22.8381 182.77C22.9022 181.625 23.0284 180.483 23.2163 179.352L49.0743 179.781C49.0743 179.781 49.354 179.978 49.8513 180.346C52.8504 182.532 63.8111 190.675 69.2914 196.813C71.0629 198.797 72.2595 200.568 72.4356 201.863C73.2592 207.836 68.3746 208.654 63.6868 208.654Z" fill="#757575" stroke="#263238" stroke-width="0.517989" stroke-linecap="round" stroke-linejoin="round"/>
<path d="M69.2966 196.803L56.7198 199.678C54.5636 200.911 52.677 202.565 51.1722 204.541C45.956 202.345 40.0147 200.025 33.9853 199.678C31.7372 199.548 33.0995 208.654 33.0995 208.654H28.1786C28.1786 208.654 23.3302 202.169 22.7656 196.362C22.7656 196.362 27.3447 202.889 28.4635 206.204C28.4635 206.204 30.2402 200.071 33.1254 197.611C31.8223 196.143 30.3415 194.843 28.7173 193.741C29.7844 193.741 31.2089 193.788 31.2089 193.788C30.9809 193.653 27.3498 191.467 25.3452 189.245C23.6928 187.412 23.0246 184.511 22.8796 182.786C22.8071 181.936 22.9107 179.367 22.9107 179.367C22.9107 179.367 42.1954 182.118 49.8927 180.362C52.8556 182.537 63.8163 190.665 69.2966 196.803Z" fill="#263238"/>
<path d="M49.0791 196.363C49.0791 196.363 59.3249 201.497 62.0599 203.506C64.7949 205.516 65.6081 204.972 65.6081 204.972" stroke="#263238" stroke-width="0.517989" stroke-linecap="round" stroke-linejoin="round"/>
<path d="M25.3086 195.818C25.3086 195.818 27.769 199.574 27.8985 200.698" stroke="#263238" stroke-width="0.517989" stroke-linecap="round" stroke-linejoin="round"/>
<path d="M66.5206 123.737C66.5206 123.737 71.975 121.364 71.457 131.455C70.939 141.545 72.7883 142.063 72.7883 142.063C72.7883 142.063 59.0615 147.699 55.5755 142.882C52.0894 138.064 55.3994 124.882 66.5206 123.737Z" fill="#263238"/>
<path d="M65.7589 142.06C65.7589 142.06 60.1128 144.723 59.6 147.183C59.0872 149.644 52.0166 145.94 52.0166 145.94L57.1395 138.574L65.7589 142.06Z" fill="white" stroke="#263238" stroke-width="0.517989" stroke-linecap="round" stroke-linejoin="round"/>
<path d="M28.7382 169.071C15.7885 185.564 26.2985 193.52 40.9783 192.204L38.0361 196.866L45.4226 198.146C45.4226 198.146 51.0843 194.447 58.8023 190.495C71.9385 183.761 77.2479 184.165 75.896 177.426C74.544 170.687 58.4449 166.315 42.3043 173.417C42.2888 173.412 33.5244 163 28.7382 169.071Z" fill="#757575" stroke="#263238" stroke-width="0.517989" stroke-linecap="round" stroke-linejoin="round"/>
<path d="M33.2548 204.972C33.2548 204.972 36.6269 195.648 38.0358 195.13C39.4447 194.612 44.7697 196.632 45.4223 198.134C45.4223 198.134 47.2197 195.378 47.9553 196.549C48.6908 197.72 47.629 199.657 47.9553 201.138C48.2816 202.62 51.9231 204.692 53.3786 204.966C54.8342 205.241 55.663 206.059 55.663 206.878V208.654H33.2548C33.0061 208.072 32.8779 207.446 32.8779 206.813C32.8779 206.18 33.0061 205.554 33.2548 204.972Z" fill="white" stroke="#263238" stroke-width="0.517989" stroke-linecap="round" stroke-linejoin="round"/>
<path d="M47.9548 199.678C47.9548 199.678 44.9868 201.144 43.9042 200.714C42.8216 200.284 44.4584 203.174 44.8676 203.449C45.2768 203.723 47.9756 202.49 47.9756 202.49" stroke="#263238" stroke-width="0.517989" stroke-linecap="round" stroke-linejoin="round"/>
<path d="M36.0576 198.139C36.0576 198.139 40.0876 198.216 41.3152 199.693" stroke="#263238" stroke-width="0.517989" stroke-linecap="round" stroke-linejoin="round"/>
<path d="M40.9785 192.213C47.1115 191.55 59.0253 183.993 63.1692 181.367C67.3131 178.74 68.3491 179.429 68.3491 179.429" stroke="#263238" stroke-width="0.517989" stroke-linecap="round" stroke-linejoin="round"/>
<path d="M22.874 179.342L23.853 171.909L26.2151 170.127C30.043 160.839 47.3853 143.492 52.1145 143.549C59.2162 143.632 60.4697 151.086 61.3451 159.244C62.2205 167.402 51.1562 166.175 51.1562 166.175V168.221L44.8627 171.479L48.6751 171.36C48.6751 171.36 37.7092 182.02 22.874 179.342Z" fill="#90D2FF" stroke="#263238" stroke-width="0.517989" stroke-linecap="round" stroke-linejoin="round"/>
<path d="M53.6118 129.184C55.0984 124.522 61.8996 123.279 64.3445 124.04C66.3515 124.824 67.9961 126.324 68.9598 128.251C69.5814 129.593 68.2812 131.965 69.2084 133.348C70.5345 135.332 70.4205 139.518 69.944 142.154C69.685 143.553 63.868 144.382 59.1128 141.118C54.0055 137.586 52.1718 133.67 53.6118 129.184Z" fill="white" stroke="#263238" stroke-width="0.517989" stroke-linecap="round" stroke-linejoin="round"/>
<path d="M60.4858 122.648C60.4858 122.648 66.4738 121.674 66.5152 123.212C66.7794 133.432 60.6516 135.577 60.6516 135.577C60.6516 135.577 58.1497 133.582 57.5903 134.95C57.0308 136.317 58.4708 140.099 60.2424 140.176C59.8341 140.811 59.611 141.546 59.5982 142.3C59.5854 143.054 59.7834 143.797 60.1699 144.445C60.1699 144.445 50.0276 146.139 49.1885 141.44C49.5805 139.807 49.8609 138.149 50.0276 136.478C50.6855 129.894 49.147 125.466 60.4858 122.648Z" fill="#263238"/>
<path d="M68.4834 133.064C69.7318 134.188 70.6279 134.188 70.6123 134.593C70.5657 135.851 69.0584 136.478 69.0584 136.478" fill="white"/>
<path d="M68.4834 133.064C69.7318 134.188 70.6279 134.188 70.6123 134.593C70.5657 135.851 69.0584 136.478 69.0584 136.478" stroke="#263238" stroke-width="0.517989" stroke-linecap="round" stroke-linejoin="round"/>
<path d="M69.0277 138.574C68.1456 138.873 67.1936 138.896 66.2979 138.642" stroke="#263238" stroke-width="0.517989" stroke-linecap="round" stroke-linejoin="round"/>
<path d="M65.7066 126.792C65.7066 126.792 69.69 125.637 68.9596 132.102C68.9596 132.102 70.6172 129.848 70.612 127.315C70.612 122.928 64.7432 123.809 64.7432 123.809L65.5098 126.917" fill="#263238"/>
<path d="M69.328 129.957C69.1772 129.856 69.0076 129.788 68.8296 129.755C68.6515 129.722 68.4687 129.725 68.292 129.765" stroke="#263238" stroke-width="0.517989" stroke-linecap="round" stroke-linejoin="round"/>
<path d="M66.6446 129.885C66.6446 129.885 64.5053 130.009 63.5781 131.439" stroke="#263238" stroke-width="0.517989" stroke-linecap="round" stroke-linejoin="round"/>
<path d="M66.1317 133.288C66.1628 133.63 66.0177 133.925 65.8054 133.945C65.593 133.966 65.3962 133.702 65.3599 133.36C65.3236 133.018 65.4739 132.723 65.6862 132.702C65.8986 132.682 66.1006 132.946 66.1317 133.288Z" fill="#263238"/>
<path d="M41.3145 193.768C41.3145 193.768 46.08 194.286 47.1159 196.358" stroke="#263238" stroke-width="0.517989" stroke-linecap="round" stroke-linejoin="round"/>
<path d="M53.3789 147.045C55.3758 145.937 57.7235 145.644 59.9315 146.227C63.7231 147.185 73.5546 161.248 74.9221 162.621C76.2896 163.994 78.8484 164.693 81.2053 167.174C84.9348 171.064 90.3582 174.504 90.9072 174.504C91.4563 174.504 91.8966 174.162 92.5803 174.027C93.2641 173.892 98.5579 173.411 98.5579 173.411C98.5579 173.411 100.335 173.809 98.5579 174.566C96.7812 175.322 96.9159 176.011 96.9159 176.011C96.9159 176.011 96.5637 176.581 97.2733 177.13C97.983 177.679 98.4077 177.378 99.4282 178.824C100.449 180.269 97.9881 179.45 97.9881 179.45C97.9881 179.45 98.532 181.004 97.4391 180.849C96.3461 180.694 97.3044 182.367 95.5277 182.139C93.751 181.911 89.9489 179.512 88.9958 177C88.9958 177 73.4872 169.588 71.1667 167.676C68.8461 165.765 59.0871 155.514 58.3982 155.379" fill="white"/>
<path d="M53.3789 147.045C55.3758 145.937 57.7235 145.644 59.9315 146.227C63.7231 147.185 73.5546 161.248 74.9221 162.621C76.2896 163.994 78.8484 164.693 81.2053 167.174C84.9348 171.064 90.3582 174.504 90.9072 174.504C91.4563 174.504 91.8966 174.162 92.5803 174.027C93.2641 173.892 98.5579 173.411 98.5579 173.411C98.5579 173.411 100.335 173.809 98.5579 174.566C96.7812 175.322 96.9159 176.011 96.9159 176.011C96.9159 176.011 96.5637 176.581 97.2733 177.13C97.983 177.679 98.4077 177.378 99.4281 178.824C100.449 180.269 97.9881 179.45 97.9881 179.45C97.9881 179.45 98.532 181.004 97.4391 180.849C96.3461 180.694 97.3044 182.367 95.5277 182.139C93.751 181.911 89.9489 179.512 88.9958 177C88.9958 177 73.4872 169.588 71.1667 167.676C68.8461 165.765 59.0871 155.514 58.3982 155.379" stroke="#263238" stroke-width="0.517989" stroke-linecap="round" stroke-linejoin="round"/>
<path d="M51.1514 145.542C51.1514 145.542 58.7969 143.496 61.4645 144.998C64.1322 146.5 69.1877 153.467 69.1877 153.467C69.1877 153.467 63.0237 158.984 61.1175 158.481C59.2113 157.979 53.3787 157.155 53.3787 157.155" fill="#90D2FF"/>
<path d="M51.1514 145.542C51.1514 145.542 58.7969 143.496 61.4645 144.998C64.1322 146.5 69.1877 153.467 69.1877 153.467C69.1877 153.467 63.0237 158.984 61.1175 158.481C59.2113 157.979 53.3787 157.155 53.3787 157.155" stroke="#263238" stroke-width="0.517989" stroke-linecap="round" stroke-linejoin="round"/>
<path d="M57.7809 157.828C57.7809 157.828 55.0097 159.351 53.9893 159.351" stroke="#263238" stroke-width="0.517989" stroke-linecap="round" stroke-linejoin="round"/>
<path d="M53.3789 150.189C53.612 150.599 53.5343 155.079 58.3982 156.473" stroke="#263238" stroke-width="0.517989" stroke-linecap="round" stroke-linejoin="round"/>
<path d="M27.3809 170.27C27.3809 170.27 37.7406 172.047 41.3148 168.902" stroke="#263238" stroke-width="0.517989" stroke-linecap="round" stroke-linejoin="round"/>
<path d="M44.8583 171.48C44.8583 171.48 42.2683 171.024 41.3152 172.355C40.3621 173.686 35.1719 174.945 35.1719 174.945" stroke="#263238" stroke-width="0.517989" stroke-linecap="round" stroke-linejoin="round"/>
<path d="M24.0353 181.367C24.0353 181.367 22.5383 187.821 28.9251 190.691" stroke="#263238" stroke-width="0.517989" stroke-linecap="round" stroke-linejoin="round"/>
<path d="M27.3809 181.814C27.3809 181.814 27.4171 184.994 28.4168 186.735L31.5921 187.771L35.1455 185.792C35.1455 185.792 34.3893 181.726 34.3219 180.902" stroke="#263238" stroke-width="0.517989" stroke-linecap="round" stroke-linejoin="round"/>
</g>
<defs>
<linearGradient id="paint0_linear_211_36608" x1="183.243" y1="200" x2="89.4388" y2="-69.0061" gradientUnits="userSpaceOnUse">
<stop stop-color="#4AAAC1"/>
<stop offset="1" stop-color="#206F82"/>
</linearGradient>
</defs>
</svg>
