<svg width="31" height="30" viewBox="0 0 31 30" fill="none" xmlns="http://www.w3.org/2000/svg">
<path d="M0.5 15C0.5 6.71573 7.21573 0 15.5 0C23.7843 0 30.5 6.71573 30.5 15C30.5 23.2843 23.7843 30 15.5 30C7.21573 30 0.5 23.2843 0.5 15Z" fill="#005E9E"/>
<path fill-rule="evenodd" clip-rule="evenodd" d="M11.3242 9.26419C11.3242 10.2449 10.586 11.0296 9.40074 11.0296H9.37902C8.23779 11.0296 7.5 10.2449 7.5 9.26419C7.5 8.26275 8.26026 7.5 9.42315 7.5C10.586 7.5 11.3022 8.26275 11.3242 9.26419ZM11.1005 12.4239V22.6374H7.7012V12.4239H11.1005ZM23.3595 22.637L23.3596 16.7808C23.3596 13.6437 21.6826 12.1836 19.4457 12.1836C17.6409 12.1836 16.8328 13.1749 16.3817 13.8704V12.4237H12.9819C13.0267 13.3821 12.9819 22.6373 12.9819 22.6373H16.3817V16.9332C16.3817 16.6279 16.4037 16.3234 16.4936 16.1049C16.7393 15.495 17.2987 14.8637 18.2378 14.8637C19.4684 14.8637 19.9603 15.8002 19.9603 17.1727V22.637H23.3595Z" fill="white"/>
</svg>
