<svg width="383" height="457" viewBox="0 0 383 457" fill="none" xmlns="http://www.w3.org/2000/svg">
<g opacity="0.1">
<path d="M-54.515 52.4683C-17.1272 28.9894 25.2072 13.3489 68.9317 6.85899C95.9826 2.84411 127.089 3.63522 146.091 23.206C160.334 37.8727 164.155 59.7542 163.711 80.1471C163.268 100.54 159.271 120.872 160.784 141.213C162.298 161.553 170.702 182.99 188.533 193.05C205.405 202.571 226.203 199.82 245.543 198.327C264.885 196.837 286.884 197.941 299.861 212.285C318.239 232.601 307.587 266.319 320.586 290.399C332.915 313.238 363.618 322.121 374.488 345.682C383.576 365.375 375.759 388.321 367.815 408.498C359.532 429.533 351.143 450.527 342.648 471.478" stroke="#0BB8E4" stroke-width="5.75855"/>
<path d="M-79.1219 76.776C-42.6061 53.7974 -1.26144 38.4878 41.4436 32.1358C67.8637 28.2074 98.2446 28.9825 116.805 48.1401C130.716 62.4958 134.449 83.9146 134.015 103.876C133.584 123.836 129.68 143.738 131.159 163.65C132.638 183.561 140.848 204.543 158.261 214.391C174.742 223.711 195.053 221.019 213.943 219.558C232.833 218.099 254.318 219.18 266.994 233.223C284.944 253.109 274.542 286.114 287.238 309.684C299.281 332.039 329.267 340.736 339.887 363.799C348.761 383.074 341.128 405.534 333.37 425.286C325.28 445.875 317.088 466.424 308.793 486.931" stroke="#0BB8E4" stroke-width="5.75855"/>
<path d="M-103.748 99.8347C-67.9943 77.3501 -27.5136 62.3727 14.2997 56.1596C40.1678 52.3135 69.9139 53.0727 88.0856 71.8148C101.705 85.8618 105.359 106.818 104.935 126.346C104.511 145.876 100.691 165.347 102.138 184.828C103.586 204.308 111.623 224.836 128.673 234.471C144.809 243.59 164.696 240.954 183.192 239.527C201.687 238.098 222.723 239.156 235.133 252.895C252.709 272.352 242.523 304.641 254.955 327.703C266.746 349.575 296.105 358.083 306.502 380.646C315.191 399.505 307.716 421.479 300.12 440.804C292.199 460.947 284.179 481.053 276.055 501.117" stroke="#0BB8E4" stroke-width="5.75855"/>
<path d="M-128.352 124.017C-93.4713 102.09 -53.9767 87.4866 -13.1842 81.4253C12.0532 77.6753 41.0738 78.4151 58.8017 96.6915C72.0893 110.39 75.6553 130.823 75.2412 149.866C74.8271 168.911 71.0986 187.898 72.512 206.894C73.924 225.89 81.7645 245.908 98.3991 255.303C114.143 264.196 133.543 261.626 151.587 260.233C169.633 258.84 190.155 259.872 202.262 273.267C219.408 292.24 209.471 323.729 221.599 346.216C233.102 367.545 261.745 375.839 271.889 397.843C280.367 416.233 273.074 437.662 265.663 456.505C257.936 476.148 250.11 495.753 242.184 515.319" stroke="#0BB8E4" stroke-width="5.75855"/>
<path d="M-154.229 147.09C-120.11 125.66 -81.4812 111.385 -41.579 105.461C-16.8949 101.797 11.4909 102.519 28.8319 120.381C41.8277 133.768 45.3149 153.739 44.9094 172.35C44.5054 190.963 40.8587 209.521 42.2392 228.086C43.6212 246.651 51.2908 266.217 67.5606 275.398C82.9588 284.088 101.936 281.578 119.586 280.215C137.236 278.853 157.309 279.862 169.153 292.954C185.922 311.497 176.202 342.271 188.064 364.25C199.316 385.094 227.333 393.201 237.253 414.706C245.545 432.679 238.413 453.622 231.163 472.039C223.605 491.237 215.949 510.398 208.198 529.519" stroke="#0BB8E4" stroke-width="5.75855"/>
<path d="M-178.838 171.274C-145.592 150.404 -107.947 136.501 -69.0672 130.731C-45.0123 127.162 -17.3535 127.865 -0.456321 145.26C12.2079 158.3 15.6051 177.748 15.2111 195.874C14.8171 214.003 11.2624 232.075 12.6087 250.157C13.955 268.237 21.4277 287.293 37.2823 296.234C52.2862 304.698 70.7799 302.251 87.9782 300.925C105.176 299.599 124.737 300.579 136.277 313.331C152.618 331.389 143.146 361.36 154.706 382.765C165.669 403.066 192.969 410.961 202.637 431.906C210.716 449.41 203.766 469.806 196.702 487.743C189.336 506.44 181.876 525.1 174.322 543.724" stroke="#0BB8E4" stroke-width="5.75855"/>
<path d="M-203.444 195.579C-171.07 175.207 -134.415 161.636 -96.5543 156.005C-73.1303 152.523 -46.1969 153.21 -29.7412 170.193C-17.4096 182.92 -14.0998 201.907 -14.483 219.602C-14.8678 237.296 -18.3267 254.939 -17.0153 272.59C-15.7039 290.24 -8.42575 308.841 7.01268 317.571C21.624 325.833 39.6301 323.446 56.378 322.153C73.1258 320.858 92.1733 321.816 103.411 334.265C119.325 351.894 110.102 381.151 121.359 402.047C132.036 421.865 158.62 429.573 168.035 450.018C175.903 467.107 169.136 487.016 162.257 504.526C155.086 522.777 147.822 540.993 140.468 559.174" stroke="#0BB8E4" stroke-width="5.75855"/>
<path d="M-228.066 218.635C-196.456 198.761 -160.663 185.519 -123.695 180.026C-100.824 176.627 -74.5239 177.298 -58.4581 193.865C-46.4167 206.283 -43.1842 224.806 -43.5604 242.069C-43.9335 259.333 -47.3137 276.544 -46.0322 293.766C-44.7522 310.986 -37.6466 329.132 -22.5713 337.65C-8.3052 345.71 9.27693 343.381 25.6308 342.118C41.9832 340.857 60.5821 341.791 71.5547 353.936C87.0934 371.135 78.0875 399.678 89.0791 420.063C99.5029 439.398 125.462 446.918 134.653 466.864C142.336 483.535 135.729 502.961 129.012 520.045C122.01 537.851 114.916 555.621 107.734 573.358" stroke="#0BB8E4" stroke-width="5.75855"/>
<path d="M-252.676 242.815C-221.937 223.497 -187.132 210.629 -151.184 205.29C-128.944 201.987 -103.37 202.638 -87.7463 218.741C-76.0366 230.808 -72.8955 248.81 -73.2602 265.588C-73.6248 282.367 -76.91 299.094 -75.6657 315.83C-74.42 332.567 -67.5112 350.203 -52.8512 358.48C-38.9794 366.315 -21.8804 364.051 -5.97991 362.823C9.92208 361.596 28.0082 362.505 38.6777 374.308C53.788 391.021 45.0301 418.764 55.7181 438.574C65.8561 457.365 91.0962 464.675 100.035 484.059C107.506 500.261 101.081 519.14 94.5474 535.743C87.739 553.048 80.8417 570.32 73.8585 587.558" stroke="#0BB8E4" stroke-width="5.75855"/>
<path d="M-278.546 265.892C-248.569 247.071 -214.628 234.534 -179.572 229.333C-157.884 226.113 -132.944 226.749 -117.709 242.435C-106.292 254.193 -103.228 271.731 -103.582 288.078C-103.938 304.425 -107.143 320.724 -105.93 337.027C-104.716 353.333 -97.9783 370.516 -83.683 378.58C-70.155 386.212 -53.4815 384.005 -37.975 382.811C-22.4671 381.614 -4.83123 382.498 5.57293 393.999C20.3084 410.283 11.7672 437.31 22.1895 456.613C32.076 474.92 56.6897 482.04 65.407 500.926C72.6922 516.712 66.425 535.105 60.0551 551.279C53.4151 568.142 46.6891 584.969 39.8785 601.764" stroke="#0BB8E4" stroke-width="5.75855"/>
<path d="M-303.156 290.078C-274.052 271.816 -241.097 259.651 -207.062 254.603C-186.005 251.479 -161.79 252.094 -146.999 267.315C-135.913 278.723 -132.939 295.742 -133.284 311.603C-133.63 327.462 -136.741 343.278 -135.562 359.099C-134.384 374.919 -127.841 391.593 -113.963 399.416C-100.828 406.822 -84.6403 404.681 -69.5842 403.52C-54.5281 402.36 -37.405 403.219 -27.3025 414.377C-12.9969 430.178 -21.2886 456.402 -11.1699 475.131C-1.57372 492.895 22.3257 499.803 30.7886 518.127C37.8617 533.444 31.777 551.292 25.5921 566.986C19.1447 583.346 12.6144 599.674 6.00116 615.97" stroke="#0BB8E4" stroke-width="5.75855"/>
<path d="M-327.762 314.379C-299.53 296.616 -267.565 284.782 -234.548 279.872C-214.123 276.836 -190.634 277.436 -176.284 292.242C-165.531 303.341 -162.644 319.896 -162.978 335.325C-163.313 350.755 -166.33 366.138 -165.187 381.529C-164.043 396.918 -157.697 413.136 -144.233 420.75C-131.492 427.955 -115.789 425.872 -101.183 424.745C-86.5792 423.616 -69.9688 424.452 -60.1689 435.307C-46.2922 450.677 -54.3332 476.189 -44.5169 494.408C-35.2057 511.688 -12.0232 518.41 -3.81382 536.236C3.048 551.137 -2.85334 568.498 -8.85236 583.764C-15.1063 599.679 -21.4401 615.562 -27.8536 631.416" stroke="#0BB8E4" stroke-width="5.75855"/>
</g>
</svg>
