<svg width="384" height="429" viewBox="0 0 384 429" fill="none" xmlns="http://www.w3.org/2000/svg">
<g opacity="0.1">
<path d="M48.3104 -2.85547C25.4029 34.8851 10.408 77.4524 4.58388 121.271C0.980873 148.379 2.24498 179.47 22.1025 198.172C36.9841 212.191 58.9212 215.678 79.3049 214.925C99.6887 214.171 119.958 209.866 140.319 211.069C160.68 212.273 182.242 220.351 192.572 238.026C202.348 254.752 199.914 275.589 198.716 294.949C197.52 314.312 198.959 336.291 213.499 349.049C234.091 367.115 267.644 355.952 291.918 368.583C314.942 380.563 324.292 411.128 348.015 421.639C367.844 430.426 390.668 422.26 410.722 414.011C431.629 405.409 452.493 396.702 473.312 387.889" stroke="#0BB8E4" stroke-width="5.75855"/>
<path d="M72.2409 -27.8291C49.8202 9.03186 35.1412 50.6046 29.4394 93.4014C25.9133 119.878 27.1504 150.244 46.5881 168.51C61.1537 182.201 82.6268 185.608 102.579 184.871C122.53 184.136 142.371 179.93 162.303 181.106C182.234 182.282 203.339 190.172 213.45 207.433C223.02 223.771 220.637 244.121 219.464 263.031C218.292 281.941 219.7 303.406 233.934 315.867C254.091 333.513 286.933 322.61 310.694 334.947C333.229 346.647 342.381 376.498 365.603 386.766C385.011 395.346 407.353 387.372 426.984 379.314C447.447 370.913 467.87 362.409 488.248 353.803" stroke="#0BB8E4" stroke-width="5.75855"/>
<path d="M94.9225 -52.8037C72.9843 -16.7124 58.6242 23.9914 53.0478 65.8943C49.5956 91.818 50.807 121.549 69.8234 139.434C84.0759 152.838 105.085 156.173 124.605 155.452C144.126 154.731 163.537 150.615 183.037 151.766C202.537 152.917 223.185 160.641 233.078 177.543C242.442 193.538 240.108 213.463 238.963 231.979C237.815 250.493 239.193 271.51 253.12 283.711C272.841 300.988 304.971 290.312 328.22 302.392C350.269 313.849 359.223 343.075 381.941 353.128C400.93 361.529 422.788 353.721 441.995 345.832C462.015 337.605 481.997 329.28 501.935 320.853" stroke="#0BB8E4" stroke-width="5.75855"/>
<path d="M118.728 -77.7725C97.3339 -42.5623 83.3324 -2.85008 77.8923 38.0299C74.5265 63.3214 75.7076 92.3274 94.2515 109.775C108.15 122.853 128.636 126.108 147.67 125.404C166.706 124.7 185.635 120.684 204.65 121.808C223.665 122.931 243.8 130.466 253.447 146.956C262.578 162.562 260.304 182 259.186 200.063C258.067 218.128 259.411 238.631 272.989 250.534C292.22 267.389 323.555 256.975 346.223 268.759C367.724 279.936 376.453 308.45 398.609 318.258C417.126 326.455 438.442 318.837 457.169 311.14C476.693 303.116 496.176 294.992 515.619 286.77" stroke="#0BB8E4" stroke-width="5.75855"/>
<path d="M141.404 -103.997C120.495 -69.5564 106.81 -30.7147 101.493 9.273C98.2045 34.01 99.3586 62.3815 117.483 79.4488C131.065 92.2395 151.087 95.4226 169.69 94.7341C188.295 94.047 206.795 90.1185 225.379 91.2165C243.963 92.316 263.643 99.6871 273.071 115.815C281.994 131.08 279.772 150.093 278.678 167.761C277.585 185.43 278.899 205.486 292.169 217.129C310.965 233.614 341.588 223.427 363.745 234.954C384.757 245.887 393.29 273.777 414.943 283.37C433.04 291.388 453.872 283.937 472.177 276.408C491.258 268.559 510.3 260.613 529.301 252.571" stroke="#0BB8E4" stroke-width="5.75855"/>
<path d="M165.212 -128.971C144.85 -95.4112 131.521 -57.5596 126.343 -18.5963C123.14 5.51002 124.264 33.1549 141.914 49.7856C155.144 62.25 174.642 65.3511 192.76 64.6815C210.881 64.0118 228.896 60.1826 246.997 61.2538C265.095 62.3249 284.263 69.5069 293.444 85.2238C302.135 100.097 299.97 118.626 298.905 135.842C297.841 153.059 299.119 172.602 312.045 183.947C330.349 200.012 360.173 190.085 381.751 201.318C402.216 211.971 410.526 239.147 431.615 248.495C449.24 256.308 469.528 249.048 487.356 241.712C505.939 234.063 524.483 226.32 542.99 218.484" stroke="#0BB8E4" stroke-width="5.75855"/>
<path d="M189.14 -153.943C169.263 -121.263 156.25 -84.4064 151.196 -46.4646C148.07 -22.9904 149.167 3.92944 166.398 20.125C179.311 32.2616 198.347 35.2823 216.033 34.6299C233.72 33.9761 251.308 30.2493 268.977 31.2921C286.645 32.3349 305.355 39.3293 314.318 54.6332C322.802 69.1172 320.689 87.1575 319.651 103.923C318.611 120.689 319.858 139.719 332.477 150.767C350.346 166.41 379.459 156.744 400.523 167.682C420.502 178.056 428.613 204.52 449.199 213.622C466.405 221.23 486.209 214.161 503.613 207.017C521.753 199.569 539.856 192.028 557.923 184.398" stroke="#0BB8E4" stroke-width="5.75855"/>
<path d="M211.819 -178.914C192.427 -147.005 179.732 -111.016 174.801 -73.9675C171.751 -51.0479 172.822 -24.761 189.631 -8.94904C202.231 2.90208 220.801 5.85251 238.056 5.21385C255.312 4.57819 272.47 0.936637 289.71 1.95609C306.947 2.97404 325.199 9.80287 333.945 24.7468C342.222 38.8887 340.16 56.5042 339.146 72.8754C338.133 89.2451 339.351 107.828 351.661 118.614C369.094 133.89 397.497 124.451 418.047 135.131C437.538 145.259 445.452 171.101 465.535 179.988C482.322 187.417 501.645 180.514 518.624 173.539C536.322 166.266 553.982 158.904 571.608 151.453" stroke="#0BB8E4" stroke-width="5.75855"/>
<path d="M235.621 -203.889C216.773 -172.859 204.436 -137.863 199.644 -101.838C196.679 -79.5503 197.72 -53.9886 214.058 -38.6117C226.302 -27.0869 244.35 -24.22 261.12 -24.8398C277.892 -25.4596 294.567 -28.9988 311.319 -28.0092C328.073 -27.0181 345.813 -20.3784 354.312 -5.84588C362.356 7.90512 360.353 25.0366 359.367 40.9539C358.382 56.8727 359.566 74.9429 371.53 85.4317C388.471 100.286 416.077 91.1073 436.048 101.493C454.991 111.344 462.683 136.47 482.201 145.113C498.515 152.336 517.294 145.625 533.796 138.84C550.995 131.769 568.161 124.61 585.291 117.365" stroke="#0BB8E4" stroke-width="5.75855"/>
<path d="M258.303 -230.106C239.94 -199.847 227.92 -165.719 223.253 -130.588C220.363 -108.854 221.378 -83.9267 237.295 -68.932C249.224 -57.6942 266.807 -54.8975 283.147 -55.5006C299.486 -56.1053 315.734 -59.5576 332.054 -58.5929C348.377 -57.6267 365.661 -51.151 373.941 -36.98C381.777 -23.5697 379.825 -6.86455 378.867 8.6583C377.905 24.1827 379.058 41.803 390.716 52.0311C407.222 66.5172 434.116 57.5659 453.575 67.6934C472.03 77.3003 479.524 101.803 498.541 110.232C514.435 117.276 532.731 110.73 548.806 104.115C565.566 97.2193 582.289 90.238 598.978 83.1728" stroke="#0BB8E4" stroke-width="5.75855"/>
<path d="M282.112 -255.082C264.294 -225.704 252.632 -192.568 248.102 -158.46C245.299 -137.357 246.282 -113.155 261.726 -98.5971C273.302 -87.6856 290.364 -84.9709 306.218 -85.5567C322.07 -86.144 337.836 -89.4954 353.674 -88.5576C369.51 -87.6197 386.281 -81.3317 394.315 -67.5736C401.919 -54.5527 400.025 -38.3346 399.094 -23.2626C398.163 -8.19063 399.281 8.91742 410.592 18.849C426.608 32.9127 452.703 24.2231 471.584 34.0559C489.492 43.3807 496.763 67.1723 515.213 75.3555C530.637 82.1948 548.39 75.8394 563.987 69.4166C580.248 62.7211 596.474 55.9432 612.668 49.0829" stroke="#0BB8E4" stroke-width="5.75855"/>
<path d="M306.035 -280.055C288.704 -251.556 277.357 -219.415 272.95 -186.326C270.225 -165.858 271.182 -142.381 286.205 -128.258C297.466 -117.674 314.063 -115.04 329.485 -115.608C344.908 -116.178 360.244 -119.429 375.65 -118.519C391.055 -117.61 407.368 -111.511 415.185 -98.1642C422.583 -85.5342 420.74 -69.8016 419.834 -55.1805C418.928 -40.5608 420.016 -23.9651 431.02 -14.3314C446.599 -0.690059 471.985 -9.11808 490.352 0.419908C507.772 9.46723 514.845 32.5448 532.794 40.4822C547.797 47.1166 565.066 40.9519 580.24 34.7214C596.058 28.2261 611.843 21.6515 627.597 14.9977" stroke="#0BB8E4" stroke-width="5.75855"/>
<path d="M328.717 -305.025C311.871 -277.296 300.842 -246.024 296.558 -213.831C293.907 -193.914 294.838 -171.073 309.442 -157.33C320.387 -147.032 336.521 -144.469 351.511 -145.023C366.503 -145.577 381.409 -148.74 396.385 -147.857C411.36 -146.97 427.216 -141.037 434.814 -128.052C442.005 -115.763 440.214 -100.455 439.334 -86.2295C438.453 -72.0042 439.51 -55.8567 450.205 -46.4837C465.351 -33.2106 490.026 -41.4111 507.877 -32.131C524.81 -23.3293 531.687 -0.875114 549.134 6.84852C563.717 13.3036 580.503 7.30434 595.252 1.24359C610.629 -5.07507 625.973 -11.4732 641.284 -17.9478" stroke="#0BB8E4" stroke-width="5.75855"/>
</g>
</svg>
