<svg width="48" height="48" viewBox="0 0 48 48" fill="none" xmlns="http://www.w3.org/2000/svg">
<path d="M23.998 3C19.6236 3.00519 15.4297 4.74524 12.3365 7.83847C9.24329 10.9317 7.50324 15.1255 7.49805 19.5C7.49805 33.6182 22.498 44.2822 23.1367 44.729C23.3893 44.9054 23.69 45 23.998 45C24.3061 45 24.6068 44.9054 24.8594 44.729C25.498 44.2822 40.498 33.6182 40.498 19.5C40.4929 15.1255 38.7528 10.9317 35.6596 7.83847C32.5664 4.74524 28.3725 3.00519 23.998 3ZM23.9991 13.5005C25.1858 13.5005 26.3459 13.8524 27.3326 14.5117C28.3193 15.171 29.0883 16.1081 29.5424 17.2044C29.9965 18.3008 30.1154 19.5072 29.8839 20.6711C29.6523 21.835 29.0809 22.9041 28.2418 23.7432C27.4027 24.5823 26.3336 25.1537 25.1697 25.3853C24.0058 25.6168 22.7994 25.4979 21.703 25.0438C20.6067 24.5897 19.6696 23.8207 19.0103 22.834C18.351 21.8473 17.9991 20.6872 17.9991 19.5005C17.9991 18.7126 18.1543 17.9324 18.4558 17.2044C18.7573 16.4765 19.1993 15.815 19.7565 15.2579C20.3136 14.7007 20.9751 14.2587 21.703 13.9572C22.431 13.6557 23.2112 13.5005 23.9991 13.5005Z" fill="#005E9E"/>
</svg>
