<svg width="61" height="66" viewBox="0 0 61 66" fill="none" xmlns="http://www.w3.org/2000/svg">
<path d="M39.5769 26.2207L53.299 26.2239L58.9989 39.0485H2L7.69998 26.2239L21.6356 26.2207" stroke="#005E9E" stroke-width="2.57158" stroke-linecap="round" stroke-linejoin="round"/>
<path d="M51.1239 39.0507C52.029 38.0545 52.5296 36.7564 52.5278 35.4105C52.5278 32.4192 50.1038 29.9952 47.1125 29.9952C46.7306 29.9952 46.3596 30.0326 46.0021 30.1099C45.64 28.2865 44.0307 26.9134 42.1035 26.9134C41.1922 26.9128 40.3085 27.2253 39.6002 27.7987C39.6246 27.6199 39.6376 27.4343 39.6376 27.2489C39.6376 24.9001 37.7324 22.9949 35.3791 22.9949C33.6395 22.9949 32.145 24.0392 31.4872 25.5336C31.0634 23.295 29.0965 21.5977 26.7321 21.5977C24.061 21.5977 21.8909 23.7656 21.8909 26.4367C21.8909 26.781 21.9283 27.1165 21.9945 27.4367C21.7866 27.4108 21.5772 27.3982 21.3677 27.3991C18.7848 27.3991 16.6632 29.366 16.4204 31.8848C15.5609 31.2376 14.514 30.8881 13.4381 30.8893C10.6941 30.8893 8.46875 33.1147 8.46875 35.8586C8.46725 37.0267 8.87941 38.1575 9.63216 39.0507" fill="#E0F9FF"/>
<path d="M51.1239 39.0507C52.029 38.0545 52.5296 36.7564 52.5278 35.4105C52.5278 32.4192 50.1038 29.9952 47.1125 29.9952C46.7306 29.9952 46.3596 30.0326 46.0021 30.1099C45.64 28.2865 44.0307 26.9134 42.1035 26.9134C41.1922 26.9128 40.3085 27.2253 39.6002 27.7987C39.6246 27.6199 39.6376 27.4343 39.6376 27.2489C39.6376 24.9001 37.7324 22.9949 35.3791 22.9949C33.6395 22.9949 32.145 24.0392 31.4872 25.5336C31.0634 23.295 29.0965 21.5977 26.7321 21.5977C24.061 21.5977 21.8909 23.7656 21.8909 26.4367C21.8909 26.781 21.9283 27.1165 21.9945 27.4367C21.7866 27.4108 21.5772 27.3982 21.3677 27.3991C18.7848 27.3991 16.6632 29.366 16.4204 31.8848C15.5609 31.2376 14.514 30.8881 13.4381 30.8893C10.6941 30.8893 8.46875 33.1147 8.46875 35.8586C8.46725 37.0267 8.87941 38.1575 9.63216 39.0507" stroke="#0BB8E4" stroke-width="2.57158" stroke-linecap="round" stroke-linejoin="round"/>
<path d="M58.9989 39.0488H2V60.5751C2 62.8524 3.84603 64.6984 6.12328 64.6984H54.8757C57.1529 64.6984 58.9989 62.8524 58.9989 60.5751V39.0488ZM12.1977 64.6984V39.0488V64.6984ZM19.246 39.0488V64.6984V39.0488ZM41.7529 64.6984V39.0488V64.6984ZM48.8013 39.0488V64.6984V39.0488ZM26.5481 52.0872H34.4508V44.0495H26.5481V52.0872Z" stroke="#005E9E" stroke-width="2.57158" stroke-linecap="round" stroke-linejoin="round"/>
<path d="M41.7533 13.3997L42.4155 2.00107M46.6421 2.00107L48.8017 13.3997M12.1973 13.3997L14.3483 2.03118M18.5878 2.00107L19.2456 13.3997M7.69998 26.2245L2 13.3997L27.2957 13.3989M53.299 26.2245L58.9989 13.3997L33.5965 13.3989M2.00107 13.3865L3.4904 7.43855C4.28943 4.24244 7.16131 2 10.4559 2H50.543C53.8376 2 56.7095 4.24244 57.5085 7.43855L59 13.3865H2.00107ZM30.4995 17.9936C28.8256 17.9936 27.4687 16.6366 27.4687 14.9628V8.80807H33.5303V14.9628C33.5303 16.6366 32.1733 17.9936 30.4995 17.9936Z" stroke="#005E9E" stroke-width="2.57158" stroke-linecap="round" stroke-linejoin="round"/>
</svg>
