<svg width="200" height="200" viewBox="0 0 200 200" fill="none" xmlns="http://www.w3.org/2000/svg">
<circle cx="100" cy="100" r="100" fill="#DBF5FF"/>
<mask id="mask0_211_36523" style="mask-type:alpha" maskUnits="userSpaceOnUse" x="0" y="0" width="200" height="200">
<circle cx="100" cy="100" r="100" fill="url(#paint0_linear_211_36523)"/>
</mask>
<g mask="url(#mask0_211_36523)">
<path d="M170.987 184.492C167.609 187.303 141.586 205.164 104.453 202.284C102.455 185.381 94.8352 115.941 103.501 105.051C103.501 105.051 124.526 95.0235 143.893 99.2335C163.26 103.443 170.798 107.477 172.178 110.969C173.224 113.609 171.731 162.78 170.987 184.492Z" fill="#91D2FF"/>
<path d="M143.252 106.651C132.096 116.313 117.727 114.271 118.042 106.853C118.092 105.693 119.334 104.256 119.334 104.256L118.899 103.588L117.008 100.733C115.628 98.5968 113.901 95.912 112.698 93.9583C111.689 92.2945 136.829 76.8284 136.829 85.7211C136.829 98.2502 142.981 100.607 142.981 100.607C145.3 101.54 147.462 103.015 143.252 106.651Z" fill="white" stroke="#1D4255" stroke-width="0.888637" stroke-linecap="round" stroke-linejoin="round"/>
<path d="M150.304 125.787C150.304 125.787 148.054 133.501 149.119 135.713" stroke="#1D4255" stroke-width="0.888637" stroke-linecap="round" stroke-linejoin="round"/>
<path d="M147.676 103.389C147.676 110.832 125.473 118.124 118.969 110.655" stroke="white" stroke-width="0.888637" stroke-linecap="round" stroke-linejoin="round"/>
<path d="M129.412 94.7969C129.412 94.7969 127.925 100.406 120.992 104.786C120.661 104.218 120.128 103.797 119.498 103.608C119.29 103.574 119.077 103.574 118.868 103.608L116.978 100.753C120.564 98.1686 129.412 94.7969 129.412 94.7969Z" fill="#1D4255"/>
<path d="M132.523 87.9014C132.523 87.9014 132.448 93.4349 131.263 94.563C122.471 102.996 113.875 103.664 112.457 101.439C102.908 86.4644 105.165 82.5317 104.194 79.9667C102.474 75.4668 100.362 68.1182 101.295 63.6687C103.375 53.7298 122.093 46.022 131.95 56.0176C136.677 60.8011 138.17 71.1811 137.175 79.828" fill="white"/>
<path d="M132.523 87.9014C132.523 87.9014 132.448 93.4349 131.263 94.563C122.471 102.996 113.875 103.664 112.457 101.439C102.908 86.4644 105.165 82.5317 104.194 79.9667C102.474 75.4668 100.362 68.1182 101.295 63.6687C103.375 53.7298 122.093 46.022 131.95 56.0176C136.677 60.8011 138.17 71.1811 137.175 79.828" stroke="#1D4255" stroke-width="0.888637" stroke-linecap="round" stroke-linejoin="round"/>
<path d="M105.399 75.3414C105.399 75.3414 102.771 74.1629 102.204 75.5683" stroke="#1D4255" stroke-width="0.888637" stroke-linecap="round" stroke-linejoin="round"/>
<path d="M111.771 75.4303C111.771 75.4303 117.236 73.1426 119.694 75.9219" stroke="#1D4255" stroke-width="0.888637" stroke-linecap="round" stroke-linejoin="round"/>
<path d="M117.84 79.3061C117.929 80.1254 117.532 80.8376 116.945 80.9069C116.359 80.9762 115.817 80.3523 115.729 79.533C115.641 78.7137 116.038 77.9952 116.624 77.9322C117.21 77.8691 117.727 78.4868 117.84 79.3061Z" fill="#1D4255"/>
<path d="M107.126 79.5518C107.22 80.3711 106.817 81.0896 106.231 81.1526C105.644 81.2156 105.102 80.6043 105.014 79.785C104.926 78.9657 105.323 78.2472 105.909 78.1842C106.495 78.1211 107.025 78.7325 107.126 79.5518Z" fill="#1D4255"/>
<path d="M107.391 77.3965C108.154 78.6255 107.738 80.7242 106.729 83.6043C105.721 86.4845 106.61 87.5244 110.479 87.8143" fill="white"/>
<path d="M107.391 77.3965C108.154 78.6255 107.738 80.7242 106.729 83.6043C105.721 86.4845 106.61 87.5244 110.479 87.8143" stroke="#1D4255" stroke-width="0.888637" stroke-linecap="round" stroke-linejoin="round"/>
<path d="M110.479 92.7991C110.479 92.7991 115.52 92.339 117.827 91.0723" stroke="#1D4255" stroke-width="0.888637" stroke-linecap="round" stroke-linejoin="round"/>
<path d="M142.419 64.2243C142.419 60.4807 138.726 52.7981 132.247 51.9346C128.522 48.0398 123.216 46.6091 116.775 48.0902C101.888 51.5061 97.357 66.2033 96.7078 68.636C96.6448 68.8629 96.6133 68.9889 96.6133 68.9889L100.596 67.9805L98.8821 71.3271L100.968 72.7073L100.489 73.2367L102.909 75.5686L102.153 71.3082C102.619 68.5604 105.783 64.7159 105.783 64.7159C104.629 66.2125 103.909 67.9985 103.703 69.8775C104.964 66.6066 112.527 63.5752 112.527 63.5752C110.075 65.5667 108.745 69.4616 108.745 69.4616C111.077 66.5877 116.541 64.7285 120.039 63.739C121.218 66.5814 123.09 69.5498 125.762 71.1947C128.283 72.7451 128.195 75.9468 128.195 75.9468C130.907 77.8321 132.905 80.5763 133.867 83.7365L136.917 87.9087C136.917 87.9087 142.419 81.1588 142.419 64.2243Z" fill="#1D4255"/>
<path d="M129.582 77.0183C128.561 74.8314 132.267 68.9072 134.895 69.6382C136.369 70.0542 138.298 72.7453 138.676 75.5688C139.054 78.3923 137.056 83.7619 134.926 84.9279C133.571 85.6841 132.456 83.6233 132.456 83.6233" fill="white"/>
<path d="M129.582 77.0183C128.561 74.8314 132.267 68.9072 134.895 69.6382C136.369 70.0542 138.298 72.7453 138.676 75.5688C139.054 78.3923 137.056 83.7619 134.926 84.9279C133.571 85.6841 132.456 83.6233 132.456 83.6233" stroke="#1D4255" stroke-width="0.888637" stroke-linecap="round" stroke-linejoin="round"/>
<path d="M-31.2051 183.989L40.0056 167.338L188.54 184.493L150.297 210.648L-31.2051 183.989Z" fill="white"/>
<path d="M-31.2051 183.989L40.0056 167.338L188.54 184.493" fill="white"/>
<path d="M-31.2051 183.989L40.0056 167.338L188.54 184.493" stroke="#1D4255" stroke-width="0.888637" stroke-linecap="round" stroke-linejoin="round"/>
<path d="M30.4199 187.329L59.2471 174.586L95.6938 176.47L79.484 190.329L30.4199 187.329Z" fill="white" stroke="#1D4255" stroke-width="0.888637" stroke-linecap="round" stroke-linejoin="round"/>
<path d="M104.907 104.422C95.6617 108.203 93.6701 116.705 77.9583 150.303C77.9583 150.303 70.9815 151.734 67.2442 160.211C63.5069 168.687 69.7651 175.38 76.9688 175.154C76.9688 175.154 79.8616 177.675 85.7921 177.416C91.7227 177.158 117.934 137.049 117.934 137.049L104.907 104.422Z" fill="#91D2FF"/>
<path d="M80.7129 152.275C84.8473 155.956 87.2233 161.357 85.9628 167.344" stroke="#1D4255" stroke-width="0.888637" stroke-linecap="round" stroke-linejoin="round"/>
<path d="M84.7021 154.047C84.7021 154.047 89.7819 155.156 90.5697 161.66" stroke="#1D4255" stroke-width="0.888637" stroke-linecap="round" stroke-linejoin="round"/>
<path d="M99.5632 135.012C97.1632 129.09 96.3339 122.649 97.1557 116.312" stroke="#1D4255" stroke-width="0.888637" stroke-linecap="round" stroke-linejoin="round"/>
<path d="M98.8447 126.441C98.4602 129.088 101.195 143.181 101.177 157.997" stroke="#1D4255" stroke-width="0.888637" stroke-linecap="round" stroke-linejoin="round"/>
<path d="M167.958 107.207C179.523 113.018 180.896 130.898 169.987 152.275C162.279 167.363 151.641 189.642 144.91 191.136C138.179 192.63 131.612 188.439 131.612 188.439C131.612 188.439 125.94 188.174 124.225 184.14C119.536 173.117 131.454 159.189 136.118 162.523C136.118 162.523 151.092 129.959 153.821 127.904" fill="#91D2FF"/>
<path d="M123.152 177.439C121.621 169.832 133.595 160.858 136.116 162.522C136.116 162.522 145.009 163.02 146.339 169.171" stroke="#1D4255" stroke-width="0.888637" stroke-linecap="round" stroke-linejoin="round"/>
<path d="M155.73 179.061C160.936 169.878 169.986 152.275 169.986 152.275" stroke="#1D4255" stroke-width="0.888637" stroke-linecap="round" stroke-linejoin="round"/>
<path d="M136.117 162.522C136.117 162.522 142.35 158.791 147.008 162.321" stroke="#1D4255" stroke-width="0.888637" stroke-linecap="round" stroke-linejoin="round"/>
<path d="M138.247 157.991C138.247 157.991 141.688 150.429 145.18 143.496C148.671 136.563 156.663 126.297 159.984 125.799" stroke="#1D4255" stroke-width="0.888637" stroke-linecap="round" stroke-linejoin="round"/>
<path d="M72.5637 171.587C71.8152 171.55 71.0838 171.35 70.4209 171.001C59.7068 165.411 51.3751 156.171 46.3584 149.541C44.4079 147.007 42.6127 144.357 40.9824 141.606L43.5538 130.59C43.5538 130.59 45.9739 136.892 55.6985 143.087C65.4231 149.283 76.9754 151.325 80.7127 157.583C84.0214 163.035 78.1917 171.858 72.5637 171.587Z" fill="white"/>
<path opacity="0.4" d="M72.5637 171.587C72.4442 170.79 72.2327 170.01 71.9335 169.261C69.6835 163.627 56.0703 152.428 56.0703 152.428C52.8309 152.327 49.2701 150.978 46.371 149.541C44.4162 147.007 42.6167 144.358 40.9824 141.606L43.5538 130.59C43.5538 130.59 45.9739 136.892 55.6985 143.087C65.4231 149.283 76.9754 151.325 80.7127 157.583C84.0214 163.035 78.1917 171.858 72.5637 171.587Z" fill="#4C6978"/>
<path d="M72.5637 171.587C71.8152 171.55 71.0838 171.35 70.4209 171.001C59.7068 165.411 51.3751 156.171 46.3584 149.541C44.4079 147.007 42.6127 144.357 40.9824 141.606L43.5538 130.59C43.5538 130.59 45.9739 136.892 55.6985 143.087C65.4231 149.283 76.9754 151.325 80.7127 157.583C84.0214 163.035 78.1917 171.858 72.5637 171.587Z" stroke="#1D4255" stroke-width="0.888637" stroke-linecap="round" stroke-linejoin="round"/>
<path d="M48.2995 140.938C48.2995 140.938 46.9697 146.812 43.4656 145.495C41.5749 144.783 37.9321 139.136 37.2451 136.287L48.2995 140.938Z" fill="white" stroke="#1D4255" stroke-width="0.888637" stroke-linecap="round" stroke-linejoin="round"/>
<path d="M32.8535 104.768L35.7148 103.293C35.7148 103.293 43.8008 103.362 48.8175 107.44C53.3741 111.146 55.6871 116.95 55.6871 116.95C55.6871 116.95 73.3905 107.175 91.4721 112.784L98.8458 153.882L64.9453 156.101L43.7882 136.002L32.8535 104.768Z" fill="white" stroke="#1D4255" stroke-width="0.888637" stroke-linecap="round" stroke-linejoin="round"/>
<path d="M101.177 155.527C101.177 155.527 97.2007 155.407 91.8815 155.584C83.8396 155.836 72.7285 156.743 67.6488 159.699L67.4093 159.617L62.7581 157.991L62.6636 157.853C61.8065 156.592 54.8927 146.666 45.0169 142.626L31.0508 103.602C31.0508 103.602 45.5463 104.232 53.4684 117.328L57.4452 118.765C57.4452 118.765 81.1107 111.757 94.3583 114.278L101.177 155.527Z" fill="#4C6978"/>
<path opacity="0.3" d="M62.6636 157.858C61.8064 156.598 54.8927 146.672 45.0169 142.632L31.0508 103.607C31.0508 103.607 45.5463 104.238 53.4684 117.334L62.6636 157.858Z" fill="black" fill-opacity="0.7"/>
<path opacity="0.3" d="M91.883 155.583C83.8411 155.835 72.73 156.743 67.6503 159.698L67.4108 159.617L58.1211 120.176C58.1211 120.176 65.7218 118.468 68.06 119.332C68.0537 119.344 83.5071 130.745 91.883 155.583Z" fill="black" fill-opacity="0.7"/>
<path d="M101.177 155.527C101.177 155.527 97.2007 155.407 91.8815 155.584C83.8396 155.836 72.7285 156.743 67.6488 159.699L67.4093 159.617L62.7581 157.991L62.6636 157.853C61.8065 156.592 54.8927 146.666 45.0169 142.626L31.0508 103.602C31.0508 103.602 45.5463 104.232 53.4684 117.328L57.4452 118.765C57.4452 118.765 81.1107 111.757 94.3583 114.278L101.177 155.527Z" stroke="#1D4255" stroke-width="0.888637" stroke-linecap="round" stroke-linejoin="round"/>
<path d="M57.457 118.771L66.5766 156.605" stroke="#1D4255" stroke-width="0.888637" stroke-linecap="round" stroke-linejoin="round"/>
<path d="M62.7577 157.998L53.8965 120.189" stroke="#1D4255" stroke-width="0.888637" stroke-linecap="round" stroke-linejoin="round"/>
<path d="M40.2458 141.635C38.2227 141.074 34.1451 128.917 36.0106 123.68C36.0106 123.68 38.229 119.829 39.1618 119.564C40.5735 119.154 46.2708 119.274 45.9935 120.232C45.3633 122.451 40.9894 122.413 40.9894 122.413L39.5714 125.009L39.6281 126.44C39.6281 126.44 41.689 124.94 42.4453 124.984C42.836 124.984 44.8528 125.993 46.4536 126.837C47.8212 127.562 48.6595 127.959 48.3443 128.614C47.3296 130.795 43.0125 129.245 43.0125 129.245L41.3865 131.696C41.3865 131.696 42.9558 131.967 43.6428 132.043C44.3297 132.118 50.0334 135.919 49.8632 136.392C49.1889 138.244 43.7814 136.24 43.7814 136.24L42.8234 137.041C42.8234 137.041 46.8066 138.068 47.2351 138.219C47.8654 138.452 50.2918 140.318 50.254 140.532C49.964 142.171 46.6175 140.967 46.6175 140.967L43.6869 140.847C43.2405 141.241 42.7035 141.518 42.1239 141.654" fill="white"/>
<path d="M40.2458 141.635C38.2227 141.074 34.1451 128.917 36.0106 123.68C36.0106 123.68 38.229 119.829 39.1618 119.564C40.5735 119.154 46.2708 119.274 45.9935 120.232C45.3633 122.451 40.9894 122.413 40.9894 122.413L39.5714 125.009L39.6281 126.44C39.6281 126.44 41.689 124.94 42.4453 124.984C42.836 124.984 44.8528 125.993 46.4536 126.837C47.8212 127.562 48.6595 127.959 48.3443 128.614C47.3296 130.795 43.0125 129.245 43.0125 129.245L41.3865 131.696C41.3865 131.696 42.9558 131.967 43.6428 132.043C44.3297 132.118 50.0334 135.919 49.8632 136.392C49.1889 138.244 43.7814 136.24 43.7814 136.24L42.8234 137.041C42.8234 137.041 46.8066 138.068 47.2351 138.219C47.8654 138.452 50.2918 140.318 50.254 140.532C49.964 142.171 46.6175 140.967 46.6175 140.967L43.6869 140.847C43.2405 141.241 42.7035 141.518 42.1239 141.654" stroke="#1D4255" stroke-width="0.888637" stroke-linecap="round" stroke-linejoin="round"/>
<path d="M39.6023 126.441C39.6023 126.441 37.7116 128.03 37.2263 128.49C36.741 128.95 36.8607 130.412 36.8607 130.412" stroke="#1D4255" stroke-width="0.888637" stroke-linecap="round" stroke-linejoin="round"/>
<path d="M38.2344 133.639C38.2344 135.239 39.3058 136.21 39.7974 136.727C40.289 137.244 39.0096 138.649 40.4276 139.657" stroke="#1D4255" stroke-width="0.888637" stroke-linecap="round" stroke-linejoin="round"/>
<path d="M131.586 184.379C127.584 185.469 123.236 178.435 117.929 170.759C114.425 165.717 110.505 160.341 105.999 156.894C105.639 156.623 105.274 156.358 104.908 156.106L107.543 142.871C113.013 145.739 116.404 150.333 122.082 155.054C131.221 162.661 139.319 167.331 141.563 170.696C143.807 174.062 138.443 182.507 131.586 184.379Z" fill="white"/>
<path opacity="0.4" d="M117.928 170.753C114.424 165.711 110.504 160.335 105.998 156.888C106.592 156.918 107.186 156.828 107.744 156.623C107.744 156.623 114.866 162.402 117.928 170.753Z" fill="#4C6978"/>
<path d="M131.586 184.379C127.584 185.469 123.236 178.435 117.929 170.759C114.425 165.717 110.505 160.341 105.999 156.894C105.639 156.623 105.274 156.358 104.908 156.106L107.543 142.871C113.013 145.739 116.404 150.333 122.082 155.054C131.221 162.661 139.319 167.331 141.563 170.696C143.807 174.062 138.443 182.507 131.586 184.379Z" stroke="#1D4255" stroke-width="0.888637" stroke-linecap="round" stroke-linejoin="round"/>
<path d="M109.017 155.584C108.743 156.073 108.292 156.439 107.756 156.605C107.614 156.661 107.469 156.709 107.322 156.75H107.202C102.973 157.853 93.4562 155.559 93.4562 155.559C93.4562 155.559 87.2232 152.597 86.845 151.897C86.5816 151.343 86.348 150.775 86.1455 150.196L85.9753 149.698C85.9753 149.698 83.7317 148.437 83.4544 147.454C83.177 146.471 82.7044 146.193 84.0846 146.017C85.4648 145.841 92.9079 146.017 92.9079 146.017L84.8094 142.715C84.8094 142.715 79.446 140.011 78.9481 139.059C78.4503 138.108 77.8263 137.477 80.5678 137.855C83.3094 138.234 89.2967 139.973 89.2967 139.973L94.0172 140.975L89.3282 138.977C89.3282 138.977 80.1015 137.862 81.8473 134.994H87.0845C90.0515 135.125 93.0026 135.5 95.9079 136.116C97.4331 136.582 107.517 142.847 107.517 142.847" fill="white"/>
<path opacity="0.4" d="M107.188 156.775C102.959 157.878 93.4426 155.584 93.4426 155.584C93.4426 155.584 87.2095 152.622 86.8314 151.922C86.5679 151.368 86.3344 150.8 86.1318 150.221L93.7829 151.059C93.5153 151.541 93.3749 152.083 93.3749 152.635C93.3749 153.186 93.5153 153.728 93.7829 154.21C94.6338 155.742 104.327 157.292 107.188 156.775Z" fill="#4C6978"/>
<path d="M109.017 155.584C108.743 156.073 108.292 156.439 107.756 156.605C107.614 156.661 107.469 156.709 107.322 156.75H107.202C102.973 157.853 93.4562 155.559 93.4562 155.559C93.4562 155.559 87.2232 152.597 86.845 151.897C86.5816 151.343 86.348 150.775 86.1455 150.196L85.9753 149.698C85.9753 149.698 83.7317 148.437 83.4544 147.454C83.177 146.471 82.7044 146.193 84.0846 146.017C85.4648 145.841 92.9079 146.017 92.9079 146.017L84.8094 142.715C84.8094 142.715 79.446 140.011 78.9481 139.059C78.4503 138.108 77.8263 137.477 80.5678 137.855C83.3094 138.234 89.2967 139.973 89.2967 139.973L94.0172 140.975L89.3282 138.977C89.3282 138.977 80.1015 137.862 81.8473 134.994H87.0845C90.0515 135.125 93.0026 135.5 95.9079 136.116C97.4331 136.582 107.517 142.847 107.517 142.847" stroke="#1D4255" stroke-width="0.888637" stroke-linecap="round" stroke-linejoin="round"/>
<path d="M85.9629 149.723L95.1707 151.078" stroke="#1D4255" stroke-width="0.888637" stroke-linecap="round" stroke-linejoin="round"/>
<path d="M-5.82617 177.918L17.2532 184.851L59.4792 175.214C59.4792 175.214 33.6898 167.891 33.4503 168.074C33.2108 168.256 -5.82617 177.918 -5.82617 177.918Z" fill="#4C6978"/>
<path opacity="0.3" d="M-5.82617 177.918L17.2532 184.851L59.4792 175.214C59.4792 175.214 33.6898 167.891 33.4503 168.074C33.2108 168.256 -5.82617 177.918 -5.82617 177.918Z" fill="black" fill-opacity="0.7"/>
<path d="M-5.82617 177.918L17.2532 184.851L59.4792 175.214C59.4792 175.214 33.6898 167.891 33.4503 168.074C33.2108 168.256 -5.82617 177.918 -5.82617 177.918Z" stroke="#1D4255" stroke-width="0.888637" stroke-linecap="round" stroke-linejoin="round"/>
<path d="M-5.49199 169.79C-7.1117 169.903 -7.51505 175.739 -5.82601 177.92L31.4589 170.181L34.4463 163.109L-5.49199 169.79Z" fill="#4C6978"/>
<path opacity="0.3" d="M-5.49199 169.79C-7.1117 169.903 -7.51505 175.739 -5.82601 177.92L31.4589 170.181L34.4463 163.109L-5.49199 169.79Z" fill="black" fill-opacity="0.7"/>
<path d="M-5.49199 169.79C-7.1117 169.903 -7.51505 175.739 -5.82601 177.92L31.4589 170.181L34.4463 163.109L-5.49199 169.79Z" stroke="#1D4255" stroke-width="0.888637" stroke-linecap="round" stroke-linejoin="round"/>
<path d="M57.672 169.707C57.672 169.707 57.1174 172.776 57.4766 174.667L17.2106 183.78L-4.01581 177.528C-4.01581 177.528 -6.22164 173.627 -4.29941 170.596L34.4855 164.01L57.672 169.707Z" fill="white" stroke="#1D4255" stroke-width="0.888637" stroke-linecap="round" stroke-linejoin="round"/>
<path d="M-5.49219 169.79L34.4461 163.109L59.246 169.393L17.5368 177.706L-5.49219 169.79Z" fill="#4C6978" stroke="#1D4255" stroke-width="0.888637" stroke-linecap="round" stroke-linejoin="round"/>
<path d="M-4.07324 173.522L17.0461 179.811L51.6147 172.854" stroke="#1D4255" stroke-width="0.888637" stroke-linecap="round" stroke-linejoin="round"/>
<path d="M57.3609 173.496L20.1895 181.424" stroke="#1D4255" stroke-width="0.888637" stroke-linecap="round" stroke-linejoin="round"/>
<path d="M-3.57422 175.998C-3.2528 176.03 12.3456 180.832 12.3456 180.832" stroke="#1D4255" stroke-width="0.888637" stroke-linecap="round" stroke-linejoin="round"/>
<path d="M54.3242 172.04L57.28 171.561" stroke="#1D4255" stroke-width="0.888637" stroke-linecap="round" stroke-linejoin="round"/>
<path d="M16.3603 181.997L14.791 181.645" stroke="#1D4255" stroke-width="0.888637" stroke-linecap="round" stroke-linejoin="round"/>
<path d="M81.9613 179.811L122.265 181.462L118.339 195.333L68.7578 193.443L81.9613 179.811Z" fill="white"/>
<path opacity="0.4" d="M81.9613 179.811L122.265 181.462L118.339 195.333L68.7578 193.443L81.9613 179.811Z" fill="#4C6978"/>
<path d="M81.9613 179.811L122.265 181.462L118.339 195.333L68.7578 193.443L81.9613 179.811Z" stroke="#1D4255" stroke-width="0.888637" stroke-linecap="round" stroke-linejoin="round"/>
</g>
<defs>
<linearGradient id="paint0_linear_211_36523" x1="100" y1="0" x2="100" y2="200" gradientUnits="userSpaceOnUse">
<stop stop-color="#CAE8FF"/>
<stop offset="1" stop-color="#89C0FF"/>
</linearGradient>
</defs>
</svg>
