<svg width="199" height="134" viewBox="0 0 199 134" fill="none" xmlns="http://www.w3.org/2000/svg">
<g clip-path="url(#clip0_211_38616)">
<path d="M199 0L136.134 17.6991L151.333 33.0787C134.477 50.2083 113.398 71.7408 112.838 72.7593C111.912 74.4584 95.5417 41.0185 95.5417 41.0185L51.3889 89.8148L35.2546 68.4908L0 107.87L32.9167 85.463L50.6991 108.657L90.3981 68.3287L107.324 102.926L166.338 48.2639L182.671 64.8148L199 0Z" fill="#D03240"/>
<path d="M107.943 103.018L167.49 49.4442L164.105 45.3887L107.943 103.018Z" fill="#AE2436"/>
<path d="M50.6973 108.657L92.6602 72.8703L90.4195 68.3379L50.6973 108.657Z" fill="#AE2436"/>
<path d="M32.9167 85.4629L0 107.884L35.1389 88.361L32.9167 85.4629Z" fill="#AE2436"/>
<path d="M137.596 69.9069C130.217 57.2263 110.49 62.8976 110.416 62.9208C104.74 70.1939 97.3092 81.4393 93.8647 94.1522C87.8925 116.166 95.2305 127.259 95.2305 127.259C95.2305 127.259 99.3277 135.796 123.221 133.407C131.369 132.592 138.781 132.879 145.041 132.745C155.633 111.175 144.99 82.6106 137.596 69.9069Z" fill="#404799"/>
<path d="M165.374 115.999C165.888 96.7167 148.115 62.8741 135.508 54.3926H117.814C115.182 57.0911 112.708 59.94 110.406 62.925C110.48 62.925 130.207 57.2305 137.587 69.9111C144.966 82.5917 155.642 111.175 145.031 132.749C157.189 132.49 164.985 130.633 165.374 115.999Z" fill="#3B448E"/>
<path d="M117.815 54.3935C117.815 54.3935 103 32.6713 113.422 33.0324C123.843 33.3935 121.917 37.1666 128.454 36.4444C134.991 35.7222 136.255 31.0509 143.801 33.9305C151.348 36.8101 133.917 56.4027 133.917 56.4027L117.815 54.3935Z" fill="#404799"/>
<path d="M133.333 83.7699C134.005 83.7699 134.649 83.5031 135.124 83.0282C135.599 82.5533 135.866 81.9091 135.866 81.2375C135.866 80.5659 135.599 79.9217 135.124 79.4468C134.649 78.9719 134.005 78.7051 133.333 78.7051H113.315C112.663 78.733 112.046 79.0117 111.595 79.4832C111.143 79.9546 110.891 80.5823 110.891 81.2352C110.891 81.8881 111.143 82.5157 111.595 82.9872C112.046 83.4586 112.663 83.7374 113.315 83.7653H119.056C120.219 83.7597 121.358 84.0913 122.337 84.7198C123.315 85.3484 124.091 86.247 124.569 87.3069H113.338C112.686 87.3348 112.069 87.6136 111.618 88.085C111.166 88.5565 110.914 89.1841 110.914 89.837C110.914 90.4899 111.166 91.1176 111.618 91.589C112.069 92.0604 112.686 92.3392 113.338 92.3671H124.569C124.084 93.4222 123.307 94.3163 122.33 94.9439C121.353 95.5715 120.217 95.9063 119.056 95.9088H113.315C112.808 95.9095 112.313 96.062 111.894 96.3466C111.474 96.6312 111.15 97.035 110.962 97.5057C110.774 97.9765 110.732 98.4927 110.84 98.9879C110.948 99.483 111.202 99.9344 111.569 100.284L125.889 113.816C126.362 114.259 126.986 114.505 127.634 114.501C127.98 114.499 128.321 114.429 128.639 114.293C128.957 114.158 129.245 113.961 129.486 113.714C129.714 113.474 129.893 113.191 130.011 112.882C130.13 112.573 130.186 112.243 130.177 111.912C130.168 111.581 130.094 111.255 129.959 110.952C129.823 110.65 129.63 110.377 129.389 110.15L119.667 100.964C122.067 100.827 124.359 99.9185 126.201 98.3736C128.043 96.8286 129.336 94.73 129.889 92.3903H133.333C133.675 92.4049 134.015 92.3503 134.335 92.2297C134.655 92.1091 134.947 91.9251 135.194 91.6887C135.44 91.4523 135.637 91.1685 135.771 90.8542C135.905 90.54 135.974 90.2018 135.974 89.8602C135.974 89.5185 135.905 89.1804 135.771 88.8661C135.637 88.5519 135.44 88.268 135.194 88.0316C134.947 87.7952 134.655 87.6112 134.335 87.4907C134.015 87.3701 133.675 87.3155 133.333 87.3301H129.87C129.574 86.0701 129.06 84.8715 128.352 83.7884H133.333V83.7699Z" fill="#E9F4F9"/>
<path d="M126.782 133.123C126.782 133.123 111.615 133.123 107.675 124.836C107.675 124.836 106.935 131.359 112.939 133.79C112.963 133.799 123.611 134.1 126.782 133.123Z" fill="#3B448E"/>
<path d="M132.277 49.4354C132.277 49.4354 137.245 41.9539 138.583 33.0048C138.583 33.0048 148.828 32.0511 145.064 39.9493C145.064 39.9493 143.425 45.1345 137.12 52.5928L132.277 49.4354Z" fill="#3B448E"/>
<path d="M117.957 55.2087C117.597 55.2139 117.244 55.1024 116.952 54.8909C116.66 54.6793 116.445 54.379 116.337 54.0348C116.23 53.6906 116.237 53.3209 116.357 52.9809C116.477 52.641 116.704 52.349 117.004 52.1485C117.351 51.9216 125.647 46.5929 137.184 50.6855C137.581 50.8494 137.9 51.1597 138.074 51.5522C138.248 51.9447 138.265 52.3892 138.12 52.7935C137.975 53.1978 137.681 53.5309 137.297 53.7237C136.913 53.9165 136.47 53.9542 136.059 53.829C126.156 50.2966 119.133 54.755 118.842 54.9401C118.578 55.1107 118.271 55.2038 117.957 55.2087Z" fill="#18186B"/>
<path d="M139.431 57.9119C139.243 57.9124 139.057 57.8811 138.88 57.8193C124.338 52.7267 115.023 57.6619 114.931 57.7128C114.542 57.912 114.092 57.9516 113.675 57.823C113.258 57.6945 112.908 57.408 112.699 57.0248C112.491 56.6416 112.44 56.192 112.559 55.7721C112.677 55.3522 112.955 54.9953 113.333 54.7776C113.764 54.5461 124.06 49.1017 139.982 54.6711C140.354 54.8007 140.668 55.0579 140.869 55.3973C141.069 55.7366 141.143 56.136 141.077 56.5245C141.011 56.9131 140.809 57.2657 140.508 57.5197C140.206 57.7737 139.825 57.9126 139.431 57.9119Z" fill="#1C1980"/>
<path d="M129.444 70.0511C129.221 70.0521 129 70.0063 128.796 69.9168C128.594 69.8319 128.411 69.7079 128.257 69.552C128.103 69.3962 127.981 69.2115 127.898 69.0085C127.816 68.8056 127.774 68.5883 127.775 68.3692C127.777 68.1501 127.822 67.9335 127.907 67.7316C132.175 57.6529 128.513 55.6576 128.476 55.639L128.305 55.5326L129.8 52.5742C129.99 52.6529 131.652 53.3983 132.634 55.7501C133.93 58.9076 133.375 63.3751 130.981 69.0326C130.853 69.3344 130.639 69.5919 130.366 69.773C130.092 69.9541 129.772 70.0508 129.444 70.0511Z" fill="#1C1980"/>
<path d="M143.597 74.8062C143.158 74.8655 142.714 74.7481 142.361 74.4799C142.009 74.2117 141.777 73.8145 141.717 73.3757C141.332 71.1069 140.66 68.8963 139.717 66.797C137.69 62.2599 134.805 59.1396 131.148 57.5377C130.948 57.449 130.767 57.3216 130.616 57.1629C130.464 57.0043 130.346 56.8174 130.267 56.613C130.188 56.4086 130.15 56.1906 130.156 55.9716C130.161 55.7525 130.21 55.5367 130.298 55.3363C130.387 55.136 130.514 54.9551 130.673 54.804C130.832 54.6529 131.019 54.5345 131.223 54.4556C131.427 54.3768 131.645 54.3389 131.864 54.3442C132.084 54.3496 132.299 54.398 132.5 54.4868C143.051 59.1488 144.949 72.3803 145.027 72.9405C145.083 73.3772 144.964 73.8181 144.696 74.1674C144.428 74.5168 144.033 74.7463 143.597 74.8062Z" fill="#1C1980"/>
<path fill-rule="evenodd" clip-rule="evenodd" d="M35.1152 123.526C35.1152 123.526 61.1939 122.04 87.268 123.526H35.1152Z" fill="#F1E28E"/>
<path d="M35.1152 123.523V130.477H87.268V123.523H35.1152Z" fill="#CA9A27"/>
<path d="M37.4648 132.665V122.434" stroke="#ECD757" stroke-width="0.865741" stroke-miterlimit="10"/>
<path d="M41.4502 132.466V122.234" stroke="#ECD757" stroke-width="0.865741" stroke-miterlimit="10"/>
<path d="M45.4355 132.265V122.033" stroke="#ECD757" stroke-width="0.865741" stroke-miterlimit="10"/>
<path d="M49.4238 131.832V121.605" stroke="#ECD757" stroke-width="0.865741" stroke-miterlimit="10"/>
<path d="M53.4102 132.165V121.934" stroke="#ECD757" stroke-width="0.865741" stroke-miterlimit="10"/>
<path d="M57.3945 132.165V121.934" stroke="#ECD757" stroke-width="0.865741" stroke-miterlimit="10"/>
<path d="M61.3828 132.685V122.453" stroke="#ECD757" stroke-width="0.865741" stroke-miterlimit="10"/>
<path d="M65.3672 132.165V121.934" stroke="#ECD757" stroke-width="0.865741" stroke-miterlimit="10"/>
<path d="M77.3262 132.623V122.396" stroke="#ECD757" stroke-width="0.865741" stroke-miterlimit="10"/>
<path d="M69.3535 132.165V121.934" stroke="#ECD757" stroke-width="0.865741" stroke-miterlimit="10"/>
<path d="M81.3125 132.153V121.926" stroke="#ECD757" stroke-width="0.865741" stroke-miterlimit="10"/>
<path d="M73.3418 132.36V122.129" stroke="#ECD757" stroke-width="0.865741" stroke-miterlimit="10"/>
<path d="M85.2969 132.022V121.795" stroke="#ECD757" stroke-width="0.865741" stroke-miterlimit="10"/>
<path fill-rule="evenodd" clip-rule="evenodd" d="M32.8691 115.469C32.8691 115.469 58.9432 113.983 85.0173 115.469H32.8691Z" fill="#F1E28E"/>
<path d="M32.875 115.464V122.418H85.0278V115.464H32.875Z" fill="#CA9A27"/>
<path d="M35.2227 124.606V114.375" stroke="#ECD757" stroke-width="0.865741" stroke-miterlimit="10"/>
<path d="M39.208 124.407V114.176" stroke="#ECD757" stroke-width="0.865741" stroke-miterlimit="10"/>
<path d="M43.1934 124.206V113.975" stroke="#ECD757" stroke-width="0.865741" stroke-miterlimit="10"/>
<path d="M47.1816 123.774V113.547" stroke="#ECD757" stroke-width="0.865741" stroke-miterlimit="10"/>
<path d="M51.168 124.106V113.875" stroke="#ECD757" stroke-width="0.865741" stroke-miterlimit="10"/>
<path d="M55.1523 124.106V113.875" stroke="#ECD757" stroke-width="0.865741" stroke-miterlimit="10"/>
<path d="M59.1406 124.621V114.395" stroke="#ECD757" stroke-width="0.865741" stroke-miterlimit="10"/>
<path d="M63.125 124.106V113.875" stroke="#ECD757" stroke-width="0.865741" stroke-miterlimit="10"/>
<path d="M75.084 124.565V114.338" stroke="#ECD757" stroke-width="0.865741" stroke-miterlimit="10"/>
<path d="M67.1113 124.106V113.875" stroke="#ECD757" stroke-width="0.865741" stroke-miterlimit="10"/>
<path d="M79.0703 124.094V113.867" stroke="#ECD757" stroke-width="0.865741" stroke-miterlimit="10"/>
<path d="M71.0996 124.302V114.07" stroke="#ECD757" stroke-width="0.865741" stroke-miterlimit="10"/>
<path d="M83.0547 123.964V113.732" stroke="#ECD757" stroke-width="0.865741" stroke-miterlimit="10"/>
<path d="M78.588 133.219C91.7329 133.219 102.389 122.563 102.389 109.418C102.389 96.2732 91.7329 85.6172 78.588 85.6172C65.4432 85.6172 54.7871 96.2732 54.7871 109.418C54.7871 122.563 65.4432 133.219 78.588 133.219Z" fill="#CA9A27"/>
<path d="M77.5558 133.219C90.7007 133.219 101.357 122.563 101.357 109.418C101.357 96.2732 90.7007 85.6172 77.5558 85.6172C64.4109 85.6172 53.7549 96.2732 53.7549 109.418C53.7549 122.563 64.4109 133.219 77.5558 133.219Z" fill="#ECD757"/>
<path d="M77.5558 133.219C90.7007 133.219 101.357 122.563 101.357 109.418C101.357 96.2732 90.7007 85.6172 77.5558 85.6172C64.4109 85.6172 53.7549 96.2732 53.7549 109.418C53.7549 122.563 64.4109 133.219 77.5558 133.219Z" fill="#ECD757"/>
<path d="M77.5551 128.606C88.1533 128.606 96.7449 120.015 96.7449 109.416C96.7449 98.8181 88.1533 90.2266 77.5551 90.2266C66.9568 90.2266 58.3652 98.8181 58.3652 109.416C58.3652 120.015 66.9568 128.606 77.5551 128.606Z" fill="#CA9A27"/>
<path d="M77.5561 90.228H77.1348C82.15 90.3382 86.9227 92.4079 90.4307 95.9938C93.9387 99.5797 95.9031 104.397 95.9031 109.413C95.9031 114.43 93.9387 119.247 90.4307 122.833C86.9227 126.419 82.15 128.488 77.1348 128.598H77.5561C82.6455 128.598 87.5265 126.577 91.1253 122.978C94.7241 119.379 96.7459 114.498 96.7459 109.409C96.7459 104.319 94.7241 99.4381 91.1253 95.8393C87.5265 92.2405 82.6455 90.2188 77.5561 90.2188V90.228Z" fill="#F1E28E"/>
<path d="M59.6523 109.415C59.653 104.437 61.5877 99.654 65.048 96.0754C68.5082 92.4968 73.2235 90.4025 78.1986 90.2344H77.5551C72.4656 90.2344 67.5846 92.2562 63.9858 95.8549C60.387 99.4537 58.3652 104.335 58.3652 109.424C58.3652 114.514 60.387 119.395 63.9858 122.993C67.5846 126.592 72.4656 128.614 77.5551 128.614H78.1986C73.2203 128.446 68.5023 126.349 65.0415 122.766C61.5807 119.184 59.6482 114.396 59.6523 109.415Z" fill="#B68D24"/>
<path fill-rule="evenodd" clip-rule="evenodd" d="M80.5553 101.579C81.2436 102.535 81.752 103.608 82.0553 104.746H85.5599L84.1988 108.829H82.259C81.6803 113.052 78.7543 116.352 74.6016 116.931L80.9118 125.839H75.9256L69.6479 117.042V112.964H73.0506C74.2371 112.963 75.3879 112.558 76.3135 111.816C77.2392 111.073 77.8845 110.038 78.1432 108.88H68.7266L70.0877 104.797H77.8469C77.4473 103.856 76.7792 103.054 75.9261 102.491C75.0731 101.927 74.0729 101.628 73.0506 101.63H68.7266L70.0877 97.5469H85.5414L84.1803 101.63H80.5553V101.579Z" fill="#B68D24"/>
<path fill-rule="evenodd" clip-rule="evenodd" d="M81.4459 100.732C82.1325 101.688 82.6407 102.761 82.9459 103.898H86.4506L85.0894 107.982H83.1496C82.5709 112.204 79.6404 115.505 75.4876 116.083L81.8024 125H76.8533L70.5756 116.204V112.121H73.983C75.1703 112.12 76.322 111.715 77.2479 110.972C78.1738 110.229 78.8185 109.192 79.0756 108.033H69.6357L70.9969 103.949H78.7561C78.3565 103.008 77.6884 102.206 76.8353 101.643C75.9822 101.08 74.9821 100.78 73.9598 100.783H69.6357L70.9969 96.6992H86.4506L85.0894 100.783H81.4459V100.732Z" fill="#ECD757"/>
</g>
<defs>
<clipPath id="clip0_211_38616">
<rect width="199" height="133.833" fill="white"/>
</clipPath>
</defs>
</svg>
