<svg width="334" height="344" viewBox="0 0 334 344" fill="none" xmlns="http://www.w3.org/2000/svg">
<path opacity="0.2" d="M174.89 343.314C262.764 343.314 334 329.774 334 313.07C334 296.367 262.764 282.826 174.89 282.826C87.0154 282.826 15.7793 296.367 15.7793 313.07C15.7793 329.774 87.0154 343.314 174.89 343.314Z" fill="black"/>
<path d="M99.6766 180.958C99.6811 180.946 99.6832 180.933 99.6828 180.921C99.6824 180.908 99.6794 180.895 99.6741 180.884C99.6687 180.872 99.6611 180.862 99.6517 180.853C99.6423 180.844 99.6313 180.838 99.6193 180.833C99.6074 180.829 99.5947 180.827 99.5819 180.827C99.5692 180.828 99.5567 180.831 99.5451 180.836C99.5335 180.841 99.5231 180.849 99.5145 180.858C99.506 180.868 99.4993 180.879 99.4951 180.891C96.69 187.626 94.4724 194.592 92.8672 201.711C91.2293 208.831 89.9953 216.038 89.1712 223.297L88.6555 228.754C88.5791 229.663 88.474 230.572 88.4072 231.482L88.2639 234.22C88.1875 236.048 88.0729 237.876 88.0156 239.705L88.0729 245.19L88.1302 247.927C88.1302 248.837 88.2353 249.756 88.3021 250.665C88.4358 252.484 88.5505 254.312 88.7128 256.131C89.0662 259.769 89.6105 263.377 90.1644 266.986C90.1704 267.007 90.1828 267.026 90.1999 267.04C90.2171 267.054 90.238 267.062 90.26 267.063C90.2729 267.064 90.286 267.063 90.2982 267.059C90.3105 267.054 90.3217 267.047 90.3309 267.038C90.3401 267.029 90.3471 267.018 90.3513 267.006C90.3556 266.993 90.357 266.98 90.3555 266.967C90.3555 265.139 90.2695 263.33 90.2313 261.501C90.1931 259.673 90.0212 257.883 90.0498 256.064C90.0785 254.245 90.0498 252.426 89.9925 250.617L89.9352 247.899V245.18V239.743L90.0785 234.315L90.1358 231.597C90.1358 230.687 90.2409 229.787 90.2886 228.878L90.6229 223.45C91.2388 216.222 92.2623 209.034 93.6885 201.922C95.0768 194.774 97.0803 187.759 99.6766 180.958Z" fill="#263238"/>
<path d="M100.449 209.369C100.456 209.346 100.453 209.322 100.443 209.301C100.432 209.28 100.414 209.263 100.392 209.254C100.38 209.25 100.367 209.248 100.355 209.248C100.342 209.249 100.329 209.252 100.318 209.257C100.306 209.262 100.296 209.27 100.287 209.279C100.279 209.289 100.272 209.3 100.268 209.312C97.1721 218.379 95.112 227.769 94.1271 237.302C93.6496 242.088 93.1148 246.817 93.0479 251.603C92.9343 256.395 93.1034 261.19 93.5541 265.962C93.5594 265.982 93.5704 266 93.5857 266.013C93.6009 266.027 93.6198 266.036 93.64 266.039C93.652 266.041 93.6645 266.042 93.6766 266.039C93.6886 266.037 93.7 266.032 93.71 266.024C93.72 266.017 93.7283 266.008 93.7343 265.997C93.7404 265.986 93.744 265.974 93.7451 265.962C94.299 261.176 94.6333 256.447 94.9675 251.699C95.3018 246.951 95.3495 242.193 95.6551 237.445C96.3052 227.956 97.905 218.557 100.43 209.388L100.449 209.369Z" fill="#263238"/>
<path d="M116.17 219.373C116.152 219.356 116.128 219.346 116.103 219.346C116.078 219.346 116.054 219.356 116.037 219.373C112.106 221.902 108.567 224.995 105.531 228.553C104.006 230.351 102.633 232.272 101.425 234.297L100.584 235.895L99.9156 237.561C99.692 238.107 99.5006 238.667 99.3426 239.236C99.1707 239.81 98.9797 240.366 98.8269 240.94C97.6265 245.485 96.9 250.144 96.659 254.839C96.4245 259.51 96.5971 264.193 97.1747 268.834C97.1807 268.856 97.1931 268.874 97.2102 268.888C97.2273 268.902 97.2483 268.91 97.2702 268.911C97.2823 268.912 97.2945 268.911 97.306 268.907C97.3176 268.904 97.3282 268.898 97.3372 268.889C97.3463 268.881 97.3535 268.871 97.3584 268.86C97.3633 268.849 97.3658 268.837 97.3657 268.825L98.569 254.973C98.8949 250.391 99.4784 245.83 100.317 241.313C100.441 240.749 100.603 240.212 100.747 239.657C100.875 239.103 101.035 238.557 101.224 238.02L101.787 236.422L102.513 234.909C103.607 232.894 104.865 230.972 106.276 229.166C109.081 225.496 112.404 222.255 116.142 219.545C116.157 219.538 116.171 219.527 116.181 219.514C116.192 219.5 116.199 219.484 116.202 219.467C116.204 219.45 116.203 219.432 116.198 219.416C116.192 219.4 116.183 219.385 116.17 219.373Z" fill="#263238"/>
<path d="M108.559 237.168C106.52 238.659 104.879 240.632 103.783 242.911C102.629 245.155 101.729 247.522 101.1 249.966C100.918 250.57 100.766 251.182 100.632 251.795L100.202 253.633C99.9751 254.87 99.8189 256.12 99.7341 257.376C99.7341 258.639 99.6864 259.893 99.7341 261.147C99.8253 262.403 99.9879 263.653 100.221 264.89C100.227 264.908 100.237 264.924 100.251 264.937C100.264 264.95 100.28 264.96 100.298 264.967C100.31 264.969 100.323 264.97 100.336 264.967C100.348 264.965 100.36 264.96 100.371 264.953C100.382 264.946 100.391 264.936 100.398 264.926C100.405 264.915 100.41 264.903 100.412 264.89C100.702 263.675 100.925 262.444 101.081 261.205C101.272 259.979 101.463 258.773 101.606 257.557C101.749 256.342 101.94 255.145 102.036 253.929C102.131 252.714 102.294 251.498 102.561 250.311C102.981 247.913 103.666 245.569 104.605 243.323C105.451 241.034 106.826 238.977 108.616 237.321C108.624 237.313 108.631 237.303 108.635 237.293C108.64 237.282 108.642 237.271 108.642 237.259C108.642 237.247 108.64 237.236 108.635 237.225C108.631 237.214 108.624 237.205 108.616 237.197C108.6 237.181 108.58 237.171 108.559 237.168Z" fill="#263238"/>
<path d="M86.5162 251.049C86.0005 244.903 84.9882 238.805 84.0331 232.727C83.0781 226.648 82.0085 220.57 80.9006 214.539C79.7928 208.508 78.5513 202.449 77.2429 196.437C77.2476 196.423 77.2488 196.407 77.2465 196.393C77.2442 196.378 77.2384 196.363 77.2295 196.351C77.2206 196.339 77.209 196.329 77.1956 196.322C77.1821 196.315 77.1672 196.312 77.1521 196.312C77.137 196.312 77.1222 196.315 77.1087 196.322C77.0953 196.329 77.0836 196.339 77.0748 196.351C77.0659 196.363 77.0601 196.378 77.0578 196.393C77.0555 196.407 77.0567 196.423 77.0614 196.437C78.112 202.506 79.0574 208.585 79.9265 214.673C80.7956 220.761 81.7124 226.84 82.486 232.937C83.2596 239.035 83.823 245.161 84.5775 251.25L86.8218 269.562C86.8273 269.584 86.8394 269.604 86.8564 269.62C86.8734 269.635 86.8946 269.645 86.9173 269.648C86.9436 269.648 86.969 269.638 86.9884 269.621C87.0079 269.603 87.02 269.578 87.0224 269.552C87.0892 268.011 87.0892 266.47 87.1274 264.919C87.1656 263.368 87.0606 261.837 87.0415 260.296C87.0128 257.204 86.7454 254.131 86.5162 251.049Z" fill="#263238"/>
<path d="M82.8398 250.962C82.5056 248.521 82.0663 246.099 81.5983 243.687L80.7388 240.097C80.4523 238.901 80.1848 237.704 79.841 236.517C78.616 231.747 77.0456 227.073 75.1423 222.532L74.4069 220.837L73.5951 219.181C73.0699 218.071 72.4491 217.008 71.8474 215.927C70.6415 213.776 69.1508 211.799 67.4161 210.049C67.4081 210.041 67.3984 210.034 67.3878 210.029C67.3771 210.025 67.3656 210.022 67.354 210.022C67.3424 210.022 67.3309 210.025 67.3203 210.029C67.3096 210.034 67.3 210.041 67.2919 210.049C67.2744 210.067 67.2646 210.091 67.2646 210.116C67.2646 210.141 67.2744 210.165 67.2919 210.183C68.908 211.997 70.2702 214.022 71.3413 216.204C71.8761 217.295 72.4396 218.368 72.898 219.497L73.6238 221.172L74.2637 222.886C75.9606 227.443 77.3266 232.117 78.3512 236.871C78.9051 239.236 79.3062 241.658 79.736 244.041L80.309 247.64C80.5191 248.837 80.777 250.034 80.9393 251.24C81.3213 253.642 81.7702 256.026 82.1809 258.448C82.5915 260.87 82.9926 263.234 83.5084 265.675C83.512 265.697 83.5222 265.716 83.5376 265.732C83.553 265.747 83.5728 265.758 83.5943 265.761C83.6206 265.761 83.646 265.752 83.6654 265.734C83.6849 265.716 83.697 265.692 83.6994 265.665C83.6994 263.209 83.6421 260.752 83.5275 258.295C83.3842 255.844 83.0881 253.403 82.8398 250.962Z" fill="#263238"/>
<path d="M77.7583 251.278C76.6218 248.042 75.3039 244.883 73.8713 241.792C72.4269 238.701 70.7939 235.702 68.9816 232.813C68.9766 232.8 68.9689 232.788 68.959 232.778C68.949 232.768 68.937 232.761 68.9239 232.756C68.9108 232.752 68.8969 232.75 68.8831 232.751C68.8693 232.753 68.8559 232.757 68.844 232.764C68.832 232.771 68.8217 232.781 68.8138 232.792C68.8059 232.804 68.8006 232.817 68.7983 232.83C68.7959 232.844 68.7966 232.858 68.8002 232.872C68.8038 232.885 68.8103 232.898 68.8192 232.908C70.396 235.91 71.7898 239.004 72.9927 242.174C74.2342 245.314 75.3612 248.511 76.2971 251.747C77.233 254.983 77.9493 258.285 78.8088 261.54C79.6684 264.794 80.4419 268.078 81.4447 271.371C81.4505 271.389 81.4619 271.406 81.4772 271.418C81.4926 271.43 81.5112 271.437 81.5307 271.438C81.557 271.438 81.5823 271.428 81.6018 271.41C81.6212 271.393 81.6333 271.368 81.6357 271.342C81.6717 267.907 81.3516 264.478 80.6807 261.109C79.9711 257.759 78.9938 254.471 77.7583 251.278Z" fill="#263238"/>
<path d="M77.5487 262.028C76.9225 260.014 76.0124 258.099 74.846 256.342C73.7598 254.542 72.4363 252.896 70.9113 251.451C70.133 250.742 69.2959 250.102 68.4091 249.536C67.5241 248.966 66.5581 248.534 65.544 248.253C65.5226 248.25 65.5005 248.253 65.4814 248.264C65.4623 248.274 65.4473 248.291 65.4389 248.311C65.4241 248.328 65.416 248.35 65.416 248.373C65.416 248.396 65.4241 248.418 65.4389 248.435C67.2492 249.31 68.8539 250.56 70.1472 252.102C71.4533 253.609 72.5547 255.283 73.423 257.079C74.378 258.841 74.8364 260.793 75.6482 262.622C76.0016 263.579 76.3549 264.488 76.7752 265.427C77.1177 266.412 77.5294 267.371 78.0071 268.298C78.0165 268.313 78.0292 268.325 78.0442 268.333C78.0592 268.341 78.076 268.346 78.0931 268.346C78.1052 268.348 78.1174 268.346 78.1289 268.343C78.1405 268.339 78.1511 268.333 78.1602 268.325C78.1692 268.316 78.1764 268.307 78.1813 268.295C78.1862 268.284 78.1887 268.272 78.1886 268.26C78.2269 267.209 78.1886 266.156 78.074 265.111C78.0071 264.067 77.797 263.043 77.5487 262.028Z" fill="#263238"/>
<path d="M77.9308 205.206C74.8595 204.354 72.0792 202.677 69.8908 200.355C67.7024 198.033 66.1893 195.156 65.5154 192.034C63.1947 181.179 70.6725 185.831 63.9682 168.773C57.2639 151.714 58.8111 147.837 61.1031 142.927C63.3952 138.016 64.7132 139.567 66.776 146.028C68.8389 152.49 76.3263 162.57 79.1914 181.447C82.0565 200.324 77.9308 205.206 77.9308 205.206Z" fill="#6DC4E5"/>
<path d="M97.7668 186.864C97.7668 186.864 91.0816 184.538 90.8047 171.874C90.5277 159.209 95.704 161.794 96.4775 146.028C97.2511 130.262 98.2825 119.148 101.119 118.89C103.955 118.631 111.433 126.644 114.012 144.219C116.59 161.794 110.66 173.425 105.503 178.594C100.345 183.763 97.7668 186.864 97.7668 186.864Z" fill="#6DC4E5"/>
<path d="M74.3204 220.454C74.3204 220.454 72.7732 211.15 69.6789 206.756C66.5846 202.362 59.8803 198.485 55.4967 189.966C51.1131 181.446 46.2138 177.301 46.4717 189.449C46.7295 201.596 52.1446 207.79 58.8871 211.925C65.6296 216.06 74.3204 220.454 74.3204 220.454Z" fill="#6DC4E5"/>
<path d="M71.4841 236.479C71.4841 236.479 65.2955 224.59 56.2704 215.802C47.2454 207.015 40.0349 202.621 42.604 207.015C45.173 211.409 48.2768 211.15 52.6604 218.904C57.044 226.658 55.7547 232.305 61.9433 236.737C68.1319 241.17 71.4841 236.479 71.4841 236.479Z" fill="#6DC4E5"/>
<path d="M70.7102 251.728C70.4523 250.952 70.1944 245.266 61.4273 240.614C52.6601 235.962 44.4086 237.742 45.4401 240.097C46.4715 242.452 51.8865 246.3 57.3015 248.626C62.7166 250.952 70.7102 251.728 70.7102 251.728Z" fill="#6DC4E5"/>
<path d="M97.2603 220.972C97.2603 220.972 93.3925 216.061 95.4553 205.723C97.5182 195.384 102.141 197.969 107.317 192.541C112.493 187.114 111.443 186.348 116.6 180.662C121.757 174.976 126.398 171.874 128.461 174.2C130.524 176.526 127.43 183.773 124.335 187.899C121.241 192.024 116.342 194.092 114.002 199.223C111.662 204.354 112.713 212.624 106.782 216.54C100.851 220.455 97.2603 220.972 97.2603 220.972Z" fill="#6DC4E5"/>
<path d="M110.183 223.814C110.183 223.814 119.466 213.218 126.17 205.464C132.874 197.71 135.453 191.775 135.72 196.935C135.988 202.094 138.041 206.239 132.626 212.959C127.211 219.679 110.183 223.814 110.183 223.814Z" fill="#6DC4E5"/>
<path d="M105.254 240.872C105.254 240.872 104.996 236.737 119.694 227.174C134.392 217.611 140.581 215.802 139.034 219.679C137.486 223.556 131.04 227.433 124.078 234.411C117.116 241.389 105.254 240.872 105.254 240.872Z" fill="#6DC4E5"/>
<path d="M78.5421 204.105C78.5421 204.105 75.0945 185.572 71.4844 172.391C67.8744 159.209 65.5537 151.197 65.5537 151.197" stroke="#263238" stroke-width="0.87664" stroke-linecap="round" stroke-linejoin="round"/>
<path d="M97.1846 187.056C97.1846 187.056 103.45 166.954 105.512 154.816C107.575 142.678 105.255 133.622 104.223 128.194" stroke="#263238" stroke-width="0.87664" stroke-linecap="round" stroke-linejoin="round"/>
<path d="M73.5087 220.072C70.7319 215.285 67.5528 210.744 64.0061 206.498C58.3333 199.797 53.9497 196.16 51.3711 189.708" stroke="#263238" stroke-width="0.87664" stroke-linecap="round" stroke-linejoin="round"/>
<path d="M97.2607 220.971C97.2607 220.971 99.3236 208.527 104.223 202.104C109.122 195.681 118.921 185.572 122.789 179.13" stroke="#263238" stroke-width="0.87664" stroke-linecap="round" stroke-linejoin="round"/>
<path d="M70.0702 251.441C70.0702 251.441 61.3986 245.783 55.21 242.682" stroke="#263238" stroke-width="0.87664" stroke-linecap="round" stroke-linejoin="round"/>
<path d="M98.6167 306.253H80.7004L71.7422 261.291H107.575L98.6167 306.253Z" fill="#263238" stroke="#263238" stroke-width="0.87664" stroke-linecap="round" stroke-linejoin="round"/>
<path d="M265.375 306.253H256.322L254.383 284.657H267.314L265.375 306.253Z" fill="#263238" stroke="#263238" stroke-width="0.87664" stroke-miterlimit="10"/>
<path d="M303.081 306.253H294.028L292.089 284.657H305.02L303.081 306.253Z" fill="#263238" stroke="#263238" stroke-width="0.87664" stroke-miterlimit="10"/>
<path d="M212.591 306.253H203.538L201.608 284.657H214.53L212.591 306.253Z" fill="#263238" stroke="#263238" stroke-width="0.87664" stroke-miterlimit="10"/>
<path d="M172.193 306.253H163.149L161.21 284.657H174.132L172.193 306.253Z" fill="#263238" stroke="#263238" stroke-width="0.87664" stroke-miterlimit="10"/>
<path d="M215.4 145.521H309.489C309.489 145.521 309.862 178.306 305.02 201.52C300.178 224.733 294.247 238.767 294.247 238.767H204.837C204.837 238.767 218.102 187.42 215.4 145.521Z" fill="white" stroke="#263238" stroke-width="0.87664" stroke-miterlimit="10"/>
<path d="M254.451 150.527C246.2 149.876 242.924 148.21 236.754 144.783C228.723 140.371 227.004 143.309 227.577 147.722C228.15 152.135 219.774 181.226 218.026 195.872C216.279 210.518 216.871 218.396 216.871 218.396C216.871 218.396 211.713 222.809 215.152 224.274C217.363 225.194 219.674 225.852 222.037 226.236H288.565C288.565 226.236 300.388 165.345 301.534 155.553C302.68 145.76 297.523 144.783 294.648 146.248C291.774 147.713 291.21 148.699 287.189 149.187C277.792 150.403 265.759 151.408 254.451 150.527Z" fill="#6DC4E5"/>
<path d="M233.028 151.513C234.749 149.577 235.961 147.241 236.552 144.717C235.75 144.286 235.015 143.932 234.337 143.645C233.895 145.999 232.819 148.188 231.223 149.972C230.032 151.422 228.557 152.612 226.887 153.466C226.716 154.337 226.525 155.285 226.314 156.338C228.951 155.375 231.273 153.707 233.028 151.513Z" fill="white"/>
<path d="M292.595 170.562C288.383 175.521 288.545 179.924 288.698 184.194C288.851 188.176 288.985 191.928 285.375 196.188C281.765 200.448 278.03 200.898 274.086 201.395C269.865 201.912 265.491 202.458 261.289 207.417C257.087 212.375 257.23 216.779 257.392 221.038C257.512 222.784 257.464 224.538 257.249 226.274H259.656C259.838 224.506 259.873 222.726 259.761 220.952C259.618 216.97 259.474 213.208 263.094 208.958C266.713 204.708 270.428 204.238 274.382 203.75C278.604 203.233 282.978 202.688 287.18 197.729C291.382 192.771 291.229 188.367 291.076 184.098C290.923 180.116 290.79 176.354 294.409 172.103C295.777 170.434 297.526 169.12 299.509 168.274C299.671 167.317 299.834 166.437 299.987 165.565C297.084 166.461 294.511 168.2 292.595 170.562Z" fill="white"/>
<path d="M225.006 225.202C229.237 224.676 233.602 224.13 237.813 219.172C242.025 214.213 241.863 209.81 241.71 205.55C241.557 201.568 241.423 197.806 245.033 193.555C248.643 189.305 252.378 188.836 256.322 188.348C260.543 187.822 264.917 187.285 269.119 182.327C273.321 177.368 273.178 172.955 273.016 168.696C272.873 164.713 272.729 160.951 276.349 156.701C279.968 152.451 283.693 151.982 287.637 151.494C291.582 151.006 295.526 150.536 299.422 146.573C298.668 146.01 297.746 145.72 296.806 145.75C294.647 147.517 292.016 148.606 289.242 148.88C288.574 149.032 287.898 149.147 287.217 149.225L284.352 149.56C280.495 150.138 276.994 152.147 274.544 155.189C270.323 160.157 270.485 164.56 270.647 168.82C270.791 172.802 270.934 176.564 267.314 180.824C263.695 185.084 259.98 185.534 256.026 186.022C251.805 186.548 247.431 187.084 243.228 192.043C239.026 197.002 239.179 201.415 239.332 205.674C239.485 209.656 239.618 213.418 236.008 217.669C232.398 221.919 228.664 222.388 224.72 222.876C221.947 223.056 219.232 223.758 216.717 224.944C217.966 225.382 219.242 225.74 220.537 226.016C222.005 225.634 223.499 225.362 225.006 225.202Z" fill="white"/>
<path d="M219.763 203.77C223.975 198.811 223.812 194.408 223.659 190.148C223.516 186.156 223.373 182.404 226.993 178.144C230.612 173.884 234.327 173.434 238.271 172.946C242.493 172.42 246.867 171.874 251.078 166.915C255.29 161.957 255.128 157.553 254.975 153.294C254.975 152.336 254.908 151.465 254.918 150.556H254.45L252.54 150.374C252.54 151.398 252.54 152.403 252.587 153.409C252.74 157.391 252.874 161.153 249.264 165.403C245.654 169.653 241.92 170.122 237.975 170.61C233.754 171.137 229.38 171.673 225.168 176.631C220.957 181.59 221.119 185.993 221.281 190.263C221.425 194.245 221.558 198.007 217.948 202.257C217.748 202.497 217.547 202.717 217.337 202.927C217.242 204.143 217.156 205.292 217.089 206.364C218.07 205.597 218.966 204.727 219.763 203.77Z" fill="white"/>
<path d="M254.451 150.527C246.2 149.876 242.924 148.21 236.754 144.783C228.723 140.371 227.004 143.309 227.577 147.722C228.15 152.135 219.774 181.226 218.026 195.872C216.279 210.518 216.871 218.396 216.871 218.396C216.871 218.396 211.713 222.809 215.152 224.274C217.363 225.194 219.674 225.852 222.037 226.236H288.565C288.565 226.236 300.388 165.345 301.534 155.553C302.68 145.76 297.523 144.783 294.648 146.248C291.774 147.713 291.21 148.699 287.189 149.187C277.792 150.403 265.759 151.408 254.451 150.527Z" stroke="#263238" stroke-width="0.87664" stroke-miterlimit="10"/>
<path d="M215.4 145.521H210.08C209.115 145.52 208.178 145.846 207.421 146.445C206.664 147.044 206.13 147.882 205.907 148.823L199.298 176.583C198.075 181.733 193.892 196.571 189.289 199.165C186.462 200.754 183.276 201.588 180.035 201.587H160.094L168.574 288.477H204.866L214.416 150.125C214.447 149.807 214.447 149.486 214.416 149.168H215.495L215.4 145.521Z" fill="white" stroke="#263238" stroke-width="0.87664" stroke-miterlimit="10"/>
<path d="M165.413 201.577H185.364C188.604 201.577 191.791 200.743 194.618 199.155C199.221 196.561 203.395 181.724 204.627 176.574L211.226 148.813C211.451 147.873 211.985 147.036 212.742 146.437C213.499 145.838 214.435 145.512 215.399 145.511C215.988 145.511 216.569 145.632 217.109 145.867C217.648 146.102 218.134 146.445 218.535 146.876C218.936 147.307 219.245 147.816 219.441 148.372C219.638 148.927 219.719 149.517 219.678 150.106L209.889 288.467H173.598L165.413 201.577Z" fill="white" stroke="#263238" stroke-width="0.87664" stroke-miterlimit="10"/>
<path d="M250.611 288.516L252.683 226.275L169.49 225.538L171.572 288.516H250.611Z" fill="white" stroke="#263238" stroke-width="0.87664" stroke-miterlimit="10"/>
<path d="M314.808 145.521H309.488C308.524 145.522 307.588 145.848 306.831 146.447C306.074 147.046 305.54 147.883 305.315 148.823L298.706 176.583C297.484 181.733 293.31 196.571 288.697 199.165C285.871 200.755 282.684 201.59 279.443 201.587H259.502L262.988 288.467H303.882L313.767 150.115C313.803 149.797 313.803 149.476 313.767 149.158H314.846L314.808 145.521Z" fill="white" stroke="#263238" stroke-width="0.87664" stroke-miterlimit="10"/>
<path d="M264.821 201.577H284.772C288.013 201.577 291.199 200.743 294.026 199.155C298.629 196.561 302.812 181.724 304.035 176.574L310.644 148.813C310.867 147.874 311.399 147.037 312.154 146.438C312.91 145.839 313.844 145.512 314.808 145.511C315.396 145.509 315.979 145.629 316.519 145.864C317.059 146.098 317.545 146.442 317.946 146.873C318.348 147.304 318.656 147.814 318.852 148.37C319.049 148.926 319.128 149.517 319.086 150.106L309.383 286.332C309.34 286.906 309.083 287.441 308.664 287.833C308.244 288.225 307.693 288.445 307.12 288.448H268.078L264.821 201.577Z" fill="white" stroke="#263238" stroke-width="0.87664" stroke-miterlimit="10"/>
<path d="M252.684 207.838L250.573 288.515H268.041L271.078 207.838C271.078 207.015 270.916 206.2 270.601 205.44C270.287 204.679 269.826 203.989 269.245 203.407C268.664 202.826 267.974 202.365 267.215 202.051C266.457 201.737 265.643 201.576 264.822 201.577H258.939C258.118 201.576 257.305 201.737 256.546 202.051C255.787 202.365 255.098 202.826 254.517 203.407C253.936 203.989 253.475 204.679 253.16 205.44C252.846 206.2 252.684 207.015 252.684 207.838Z" fill="white" stroke="#263238" stroke-width="0.87664" stroke-miterlimit="10"/>
<path d="M151.192 207.838L154.191 288.515H171.659L169.577 207.838C169.577 206.177 168.919 204.585 167.747 203.411C166.576 202.237 164.987 201.577 163.331 201.577H157.448C156.627 201.576 155.814 201.737 155.055 202.051C154.296 202.365 153.606 202.826 153.025 203.407C152.444 203.989 151.983 204.679 151.669 205.44C151.354 206.2 151.192 207.015 151.192 207.838Z" fill="white" stroke="#263238" stroke-width="0.87664" stroke-miterlimit="10"/>
<path d="M169.911 253.049H251.891" stroke="#263238" stroke-width="0.87664" stroke-miterlimit="10"/>
<path d="M129.807 145.836C129.807 145.836 122.224 188.07 120.562 195.211C118.901 202.352 114.832 238.757 114.832 247.803C114.832 256.849 115.539 284.178 115.539 284.178C115.539 284.178 112.454 285.605 112.454 286.792C112.454 287.979 114.832 295.599 114.832 295.599L128.833 300.835C128.833 300.835 131.698 294.134 131.918 291.789C132.137 289.443 130.256 288.457 130.256 284.408C130.256 280.359 137.38 233.253 139.52 225.403C141.659 217.554 147.828 193.996 149.013 191.851C150.197 189.707 156.137 174.008 156.137 174.008L159.461 175.674C159.461 175.674 161.59 225.164 162.784 228.256C163.978 231.348 179.898 281.738 179.898 281.738C179.898 281.738 177.291 282.924 178.943 285.787C180.595 288.649 183.451 295.062 183.451 295.062C183.451 295.062 186.068 291.492 189.181 290.784C192.295 290.075 197.49 293.158 197.49 293.158C197.49 293.158 200.575 286.016 199.858 282.695C199.142 279.373 196.038 273.649 195.828 271.983C195.618 270.317 189.143 222.34 189.143 222.34C189.143 222.34 190.805 155.236 190.805 150.718C190.716 147.635 190.155 144.585 189.143 141.672C179.184 145.098 168.793 147.102 158.276 147.626C141.42 148.335 132.166 141.442 132.166 141.442L129.807 145.836Z" fill="#263238" stroke="#263238" stroke-width="0.87664" stroke-miterlimit="10"/>
<path d="M114.87 295.627C114.87 295.627 107.029 302.759 105.606 303.716C104.183 304.673 94.2127 308.502 94.4515 310.417C94.6902 312.331 97.3166 313.508 97.3166 313.508H129.606C129.606 313.508 129.835 312.551 130.313 308.033C130.541 305.104 130.053 302.163 128.89 299.466L114.87 295.627Z" fill="white" stroke="#263238" stroke-width="0.87664" stroke-miterlimit="10"/>
<path d="M130.075 310.034L94.624 310.991C95.2344 312.073 96.1703 312.935 97.2981 313.452H129.588C129.588 313.452 129.75 312.81 130.075 310.034Z" fill="white" stroke="#263238" stroke-width="0.87664" stroke-miterlimit="10"/>
<path d="M183.469 295.062C183.469 295.062 183.231 301.006 183.231 304.108C183.231 307.209 182.763 310.809 182.992 311.479C183.221 312.149 183.708 313.393 183.708 313.393H202.465C202.465 313.393 203.172 311.479 202.226 307.918C201.281 304.357 199.609 302.452 199.141 299.302C198.779 297.194 198.222 295.124 197.48 293.119C197.48 293.119 188.216 285.786 183.469 295.062Z" fill="white" stroke="#263238" stroke-width="0.87664" stroke-miterlimit="10"/>
<path d="M202.714 311.135C195.58 311.135 186.698 310.905 182.926 310.81C182.925 311.035 182.947 311.259 182.993 311.48C183.231 312.198 183.709 313.394 183.709 313.394H202.466C202.672 312.66 202.756 311.897 202.714 311.135Z" fill="white" stroke="#263238" stroke-width="0.87664" stroke-miterlimit="10"/>
<path d="M123.073 56.2463C123.073 56.2463 102.903 75.2287 103.782 76.9996C104.66 78.7705 110.181 93.1389 110.181 93.1389C110.181 93.1389 111.766 102.711 110.887 108.752C110.35 112.572 110.171 116.433 110.352 120.287C112.206 122.629 114.472 124.611 117.038 126.135C120.934 128.27 123.943 131.994 126.426 125.963C128.909 119.932 127.839 109.106 127.839 109.106C127.839 109.106 131.191 122.239 131.755 124.556C132.318 126.873 129.845 145.845 129.845 145.845C129.845 145.845 142.012 156.145 162.707 153.81C183.403 151.474 189.964 144.237 189.964 144.237C189.964 144.237 187.834 120.995 187.834 118.334C187.814 116.494 187.696 114.657 187.481 112.83C187.481 112.83 194.739 120.287 198.282 119.932C201.825 119.578 208.014 105.028 206.419 102.702C204.824 100.376 199.342 90.9755 195.98 84.2364C193.954 80.1748 192.267 75.9516 190.938 71.6103C190.938 71.6103 185.093 51.7377 183.298 50.3209C181.502 48.9042 161.618 49.1244 158.075 48.2437C153.397 47.3205 148.667 46.6812 143.912 46.3292C142.728 46.31 126.97 50.0337 123.073 56.2463Z" fill="#6DC4E5" stroke="#263238" stroke-width="0.87664" stroke-miterlimit="10"/>
<path d="M182.572 82.8105C182.476 77.7179 182.457 73.7549 182.457 73.7549" stroke="#263238" stroke-width="0.87664" stroke-miterlimit="10"/>
<path d="M187.539 112.83C186.188 110.069 185.007 107.227 184.005 104.321C183.299 102.205 182.926 94.6522 182.726 87.5781" stroke="#263238" stroke-width="0.87664" stroke-miterlimit="10"/>
<path d="M117.753 91.8188C115.948 88.6599 114.573 86.1902 114.401 85.6924" stroke="#263238" stroke-width="0.87664" stroke-miterlimit="10"/>
<path d="M127.858 109.106C127.858 109.106 123.331 101.448 119.53 94.9004" stroke="#263238" stroke-width="0.87664" stroke-miterlimit="10"/>
<path d="M150.864 48.79C151.593 55.0357 151.654 61.3415 151.046 67.6001" stroke="#263238" stroke-width="0.87664" stroke-miterlimit="10"/>
<path d="M162.774 136.351C164.904 136.781 167.187 137.174 169.622 137.49" stroke="#263238" stroke-width="0.87664" stroke-miterlimit="10"/>
<path d="M137.055 124.9C137.055 124.9 142.785 131.199 158.065 135.239" stroke="#263238" stroke-width="0.87664" stroke-miterlimit="10"/>
<path d="M152.631 138.38C159.193 141.332 166.326 142.787 173.517 142.64" stroke="#263238" stroke-width="0.87664" stroke-miterlimit="10"/>
<path d="M110.334 27.5C110.334 27.5 112.454 37.4363 112.636 39.571C112.817 41.7057 113.342 44.5392 115.997 48.7894C118.652 53.0396 125.548 62.4494 126.971 62.9854C128.394 63.5215 133.875 62.0952 133.875 62.0952C133.875 62.0952 139.711 73.6301 141.306 73.2759C142.901 72.9217 146.969 59.7882 147.504 54.4659C147.841 51.8182 147.899 49.1422 147.676 46.4824L145.202 37.6182C145.202 37.6182 143.082 25.1739 143.082 24.3124C143.082 23.4508 144.314 17.0372 137.419 14.3761C130.523 11.7149 122.014 11.5043 116.351 18.0998C110.687 24.6953 110.334 27.5 110.334 27.5Z" fill="white" stroke="#263238" stroke-width="0.87664" stroke-miterlimit="10"/>
<path d="M129.281 16.3293C126.799 20.1059 123.543 23.3102 119.731 25.7295C113.189 29.9893 116.369 25.3753 116.369 25.3753C116.369 25.3753 111.766 28.2471 108.051 30.1616C104.336 32.0761 105.749 32.6504 104.336 32.0761C102.923 31.5017 97.6508 16.3963 109.484 9.10199C121.316 1.80771 129.95 3.73179 129.95 3.73179C129.95 3.73179 124.812 1.4248 129.415 1.4248C134.018 1.4248 135.967 3.94239 135.967 3.94239C135.967 3.94239 138.44 3.23402 139.5 4.65076C139.964 5.15671 140.544 5.54122 141.191 5.77075C146.921 8.20217 148.917 13.6394 149.996 19.3159C150.703 23.0396 147.694 31.9134 147.694 31.9134L142.728 34.5745C141.525 33.4755 140.551 32.148 139.863 30.6689C139.411 29.2346 139.173 27.741 139.156 26.2368C139.156 26.2368 136.148 30.1329 135.613 27.2994C135.078 24.4659 133.703 17.1908 133.703 17.1908C133.703 17.1908 134.238 20.0625 132.471 20.0625C130.704 20.0625 129.281 16.3293 129.281 16.3293Z" fill="#263238" stroke="#263238" stroke-width="0.87664" stroke-miterlimit="10"/>
<path d="M142.365 35.8383C142.365 35.8383 142.193 29.8076 145.736 27.8548C149.279 25.902 151.753 28.0367 150.683 33.7132C149.613 39.3897 143.253 41.5148 143.253 41.5148" fill="white"/>
<path d="M142.365 35.8383C142.365 35.8383 142.193 29.8076 145.736 27.8548C149.279 25.902 151.753 28.0367 150.683 33.7132C149.613 39.3897 143.253 41.5148 143.253 41.5148" stroke="#263238" stroke-width="0.87664" stroke-miterlimit="10"/>
<path d="M133.875 62.0956L143.253 52.6953L137.055 67.0637L133.875 62.0956Z" fill="#263238" stroke="#263238" stroke-width="0.87664" stroke-miterlimit="10"/>
<path d="M129.539 52.5899C129.738 52.9378 129.798 53.3481 129.708 53.7387C129.618 54.1292 129.383 54.4711 129.052 54.6958C128.412 54.9543 127.601 54.4278 127.238 53.5184C126.875 52.609 127.094 51.6613 127.725 51.4029C128.355 51.1444 129.167 51.6805 129.539 52.5899Z" fill="#263238"/>
<path d="M131.984 36.1632C132.328 37.2927 132.079 38.3649 131.44 38.5659C130.8 38.7669 129.978 38.0107 129.635 36.8907C129.291 35.7707 129.539 34.6986 130.179 34.4975C130.819 34.2965 131.64 35.0432 131.984 36.1632Z" fill="#263238"/>
<path d="M120.362 38.1358C120.706 39.2654 120.457 40.3375 119.808 40.5385C119.158 40.7396 118.356 39.9929 118.012 38.8633C117.669 37.7338 117.907 36.6712 118.557 36.4702C119.206 36.2692 120.008 37.0158 120.362 38.1358Z" fill="#263238"/>
<path d="M120.781 33.7129C121.566 34.3564 122.197 35.1692 122.625 36.0907C123.053 37.0123 123.268 38.0187 123.255 39.0352C123.255 42.5866 122.72 47.909 122.72 47.909L129.1 47.0187" stroke="#263238" stroke-width="0.87664" stroke-miterlimit="10"/>
<path d="M125.021 31.4057C125.021 31.4057 128.211 25.7291 133.168 26.7917" stroke="#263238" stroke-width="0.87664" stroke-miterlimit="10"/>
<path d="M119.358 32.4689C119.358 32.4689 115.471 31.2341 112.816 32.8231" stroke="#263238" stroke-width="0.87664" stroke-miterlimit="10"/>
<path d="M227.65 78.0625C227.65 78.0625 231.546 76.6457 232.96 76.1479C234.373 75.6502 235.825 76.5021 238.27 75.2673C240.715 74.0324 243.58 71.534 243.761 73.3528C243.943 75.1716 243.045 75.8321 241.632 76.7223C240.218 77.6126 237.916 79.3835 237.916 79.3835L237.21 81.1544L226.59 80.2737C226.59 80.2737 226.79 78.6081 227.65 78.0625Z" fill="white" stroke="#263238" stroke-width="0.87664" stroke-miterlimit="10"/>
<path d="M248.994 82.6476C248.994 82.6476 253.875 78.7708 254.581 76.9998C255.288 75.2289 254.046 75.0853 252.815 75.7554C251.583 76.4255 247.705 79.661 247.705 79.661L248.994 82.6476Z" fill="white" stroke="#263238" stroke-width="0.87664" stroke-miterlimit="10"/>
<path d="M245.002 83.4902C245.002 83.4902 248.631 83.8731 248.994 82.6478C249.357 81.4225 252.222 73.707 251.754 72.7402C251.286 71.7734 250.379 71.8595 249.376 73.4581C248.303 75.6497 247.378 77.9106 246.606 80.2259C246.606 80.2259 244.18 80.7716 243.569 82.4372C242.958 84.1028 245.002 83.4902 245.002 83.4902Z" fill="white" stroke="#263238" stroke-width="0.87664" stroke-miterlimit="10"/>
<path d="M240.418 84.4479C240.418 84.4479 243.79 85.8742 244.496 84.8021C245.203 83.73 250.16 77.1441 249.978 76.1102C249.797 75.0764 248.918 74.8754 247.505 76.1102C245.843 77.8948 244.305 79.7914 242.901 81.7868C242.901 81.7868 240.418 81.6144 239.358 83.0312C238.298 84.4479 240.418 84.4479 240.418 84.4479Z" fill="white" stroke="#263238" stroke-width="0.87664" stroke-miterlimit="10"/>
<path d="M191.043 113.548C192.442 107.872 196 102.969 200.957 99.888C209.447 94.3838 220.964 84.4475 220.964 84.4475C220.964 84.4475 224.861 78.9528 227.65 78.0626C230.438 77.1723 239.683 79.8335 239.683 79.8335C239.683 79.8335 247.123 72.3861 247.323 73.9847C247.524 75.5833 243.79 81.2598 242.013 83.3849C240.237 85.51 234.755 86.0461 233.523 86.0461C231.332 86.1121 229.145 86.2911 226.972 86.5821C226.265 86.7544 214.556 102.721 209.275 110.513C203.994 118.306 201.635 119.732 198.302 119.914C194.969 120.096 191.397 117.425 190.509 116.19C189.62 114.955 191.043 113.548 191.043 113.548Z" fill="white" stroke="#263238" stroke-width="0.87664" stroke-miterlimit="10"/>
<path d="M80.3551 84.1792L91.5098 108.436C91.6816 108.782 91.9608 109.062 92.3053 109.234C92.6498 109.407 93.041 109.463 93.4199 109.393L102.674 107.68C102.931 107.63 103.174 107.524 103.385 107.368C103.596 107.213 103.769 107.013 103.894 106.782C104.018 106.551 104.09 106.296 104.103 106.034C104.117 105.772 104.072 105.51 103.973 105.268L93.9451 81.5946C93.8003 81.245 93.5458 80.9522 93.2201 80.7604C92.8944 80.5687 92.5153 80.4885 92.1401 80.5321L81.7398 81.6903C81.4645 81.7235 81.201 81.8215 80.9707 81.9764C80.7404 82.1312 80.55 82.3385 80.4149 82.5812C80.2799 82.8239 80.204 83.0953 80.1936 83.373C80.1832 83.6507 80.2385 83.927 80.3551 84.1792Z" fill="#263238" stroke="#263238" stroke-width="0.87664" stroke-miterlimit="10"/>
<path d="M87.6803 104.942C87.6803 104.942 83.6787 98.7965 83.6787 97.418C83.6787 96.0396 86.009 92.7754 87.3747 89.827C88.7404 86.8787 88.9505 84.9067 90.1252 85.3088C91.2999 85.7108 91.0802 86.8787 90.7077 88.8411C89.9897 91.3721 89.1418 93.8643 88.1674 96.3076L88.5589 98.6721C89.505 96.759 90.6891 94.9739 92.083 93.3593C93.8498 91.5979 95.8076 88.6496 97.1828 89.2335C98.5581 89.8175 99.1407 90.1908 97.966 91.598C96.4912 93.3686 95.1685 95.2611 94.0121 97.2553C92.975 98.9572 92.0836 100.744 91.3476 102.597C92.6594 101.337 94.0537 100.167 95.5211 99.0932C97.4311 97.7148 100.124 95.7237 101.251 96.5087C102.378 97.2936 102.627 98.0786 101.452 99.0645C100.277 100.05 99.2075 100.721 97.6317 102.099C95.988 103.744 94.4445 105.486 93.0094 107.316C94.4092 106.232 95.9686 105.373 97.6317 104.77C100.965 103.401 104.011 103.554 104.135 104.607C104.26 105.66 100.631 106.617 100.631 106.617C98.0328 107.211 97.9087 108.101 97.9087 108.101C97.9087 108.101 100.067 112.428 99.6755 113.845C99.6755 113.845 108.385 112.476 111.718 111.499C115.051 110.523 120.256 112.457 121.832 114.036C125.165 117.377 126.731 122.489 124.974 126.815C123.217 131.142 123.207 129.764 109.283 125.858C95.3587 121.952 95.6261 120.555 92.2262 114.85C90.9942 112.629 87.6803 104.942 87.6803 104.942Z" fill="white" stroke="#263238" stroke-width="0.87664" stroke-miterlimit="10"/>
<path d="M99.7326 113.807L99.4365 117.406" stroke="#263238" stroke-width="0.87664" stroke-miterlimit="10"/>
<path d="M31.1043 35.9724C40.5193 36.1179 48.3636 39.687 54.5476 46.8253C54.7465 47.0414 54.8996 47.2957 54.9976 47.5726C55.0956 47.8496 55.1364 48.1435 55.1176 48.4367C55.0988 48.7299 55.0207 49.0162 54.8882 49.2784C54.7557 49.5406 54.5714 49.7732 54.3464 49.9622C54.1289 50.1488 53.876 50.2897 53.603 50.3767C53.3299 50.4638 53.0421 50.495 52.7567 50.4687C52.4713 50.4423 52.1941 50.3589 51.9416 50.2234C51.689 50.0879 51.4663 49.903 51.2866 49.6797C49.08 47.0722 46.3975 44.9083 43.3823 43.3032C38.7455 40.8398 33.4755 39.8267 28.2559 40.3952C23.0363 40.9637 18.108 43.0876 14.1103 46.4915C12.9929 47.4848 11.9327 48.5407 10.9349 49.654C10.7486 49.8796 10.5195 50.066 10.2608 50.2024C10.0021 50.3388 9.71883 50.4226 9.42751 50.4489C9.13619 50.4751 8.84255 50.4434 8.56358 50.3554C8.28462 50.2675 8.02586 50.1251 7.80227 49.9365C7.58165 49.7435 7.40216 49.5081 7.2745 49.2442C7.14685 48.9804 7.07365 48.6935 7.05927 48.4007C7.04489 48.108 7.08963 47.8153 7.19081 47.5402C7.292 47.2651 7.44756 47.0133 7.64821 46.7996C12.5978 40.9197 19.5804 37.1197 27.2057 36.1564C27.8219 36.0751 28.4424 36.0066 29.063 35.9809C29.6835 35.9553 30.4239 35.9724 31.1043 35.9724Z" fill="white"/>
<path d="M31.8832 44.6982C37.8318 44.8523 43.438 47.3901 47.8202 52.4741C48.022 52.6875 48.1776 52.94 48.2776 53.2161C48.3775 53.4922 48.4196 53.7859 48.4011 54.079C48.3826 54.372 48.304 54.6581 48.1702 54.9195C48.0364 55.1809 47.8503 55.4119 47.6233 55.5982C47.404 55.7886 47.1482 55.9324 46.8716 56.0207C46.5949 56.1091 46.3032 56.1402 46.0141 56.1122C45.725 56.0841 45.4447 55.9976 45.1901 55.8577C44.9356 55.7178 44.7122 55.5276 44.5335 55.2986C42.3364 52.6393 39.3804 50.7134 36.0601 49.778C29.1657 47.9122 23.1744 49.6154 18.1674 54.7295C17.9791 54.922 17.8079 55.1275 17.6324 55.3243C17.4469 55.5447 17.2195 55.7261 16.9633 55.8579C16.7071 55.9897 16.4273 56.0692 16.1401 56.0919C15.8529 56.1146 15.5641 56.08 15.2904 55.99C15.0167 55.9001 14.7636 55.7567 14.5458 55.5681C14.3281 55.3796 14.1499 55.1496 14.0218 54.8916C13.8937 54.6335 13.8181 54.3526 13.7995 54.0651C13.7808 53.7777 13.8196 53.4893 13.9133 53.2169C14.0071 52.9446 14.1541 52.6935 14.3457 52.4784C16.2803 50.1838 18.6664 48.3119 21.3556 46.9792C24.4326 45.4514 27.6979 44.7111 31.8832 44.6982Z" fill="white"/>
<path d="M41.6651 59.5733C41.667 60.0138 41.5349 60.4444 41.2866 60.8082C41.0382 61.1719 40.6852 61.4517 40.2743 61.6104C39.8577 61.7754 39.3999 61.8055 38.9653 61.6965C38.5307 61.5875 38.1414 61.3448 37.8521 61.0027C36.9486 59.9363 35.8125 59.0915 34.5311 58.5334C30.962 57.0184 27.0249 57.9428 24.3673 60.9385C24.0992 61.2802 23.732 61.5307 23.316 61.6556C22.8999 61.7805 22.4555 61.7737 22.0435 61.636C21.702 61.5292 21.3922 61.3396 21.1417 61.0841C20.8913 60.8286 20.7079 60.5151 20.6079 60.1715C20.5079 59.8279 20.4945 59.465 20.5687 59.115C20.643 58.7649 20.8027 58.4387 21.0335 58.1653C22.2616 56.6884 23.8003 55.5006 25.5401 54.6864C27.2798 53.8723 29.1777 53.4518 31.0985 53.4551C33.0192 53.4584 34.9157 53.8852 36.6526 54.7053C38.3896 55.5254 39.9242 56.7185 41.1473 58.1996C41.4137 58.6129 41.6293 59.0569 41.7892 59.5219L41.6651 59.5733Z" fill="white"/>
<path d="M31.0986 70.9958C30.2338 70.9984 29.3878 70.744 28.6678 70.2649C27.9478 69.7859 27.3863 69.1038 27.0546 68.3051C26.7229 67.5065 26.6359 66.6273 26.8046 65.7791C26.9733 64.9309 27.3902 64.152 28.0023 63.5411C28.6144 62.9302 29.3941 62.5149 30.2426 62.3478C31.0911 62.1808 31.9701 62.2695 32.7681 62.6028C33.5661 62.9361 34.2471 63.4989 34.7248 64.2199C35.2024 64.9408 35.4551 65.7873 35.4509 66.6521C35.4515 67.2234 35.3392 67.7892 35.1206 68.317C34.9019 68.8449 34.5813 69.3243 34.1769 69.7279C33.7725 70.1315 33.2924 70.4512 32.7642 70.6688C32.2359 70.8864 31.6699 70.9975 31.0986 70.9958Z" fill="white"/>
<path d="M31.125 20.7109C24.9696 20.7101 18.9521 22.5347 13.8337 25.9539C8.71523 29.3732 4.72574 34.2336 2.36976 39.9203C0.0137725 45.607 -0.602882 51.8647 0.597781 57.902C1.79845 63.9392 4.76249 69.4848 9.11506 73.8373C13.4676 78.1899 19.0132 81.154 25.0504 82.3546C31.0877 83.5553 37.3454 82.9386 43.0321 80.5827C48.7189 78.2267 53.5792 74.2372 56.9985 69.1187C60.4177 64.0003 62.2423 57.9828 62.2415 51.8274C62.2313 43.5779 58.9497 35.6692 53.1164 29.836C47.2832 24.0027 39.3745 20.7211 31.125 20.7109ZM4.28382 51.8445C4.27698 46.6302 5.79003 41.527 8.63787 37.1591C11.4857 32.7911 15.5449 29.3479 20.3188 27.2507C25.0927 25.1534 30.3744 24.493 35.5178 25.3502C40.6611 26.2074 45.4431 28.5451 49.2788 32.0774L11.3579 69.9811C6.80612 65.0384 4.28079 58.5639 4.28382 51.8445ZM31.125 78.6857C25.0873 78.6893 19.2266 76.6467 14.4991 72.8912L52.1589 35.2314C55.2885 39.1845 57.2404 43.9397 57.7907 48.9515C58.341 53.9634 57.4674 59.0288 55.2701 63.5668C53.0728 68.1048 49.6409 71.9315 45.3679 74.6079C41.095 77.2843 36.1541 78.7021 31.1122 78.6985L31.125 78.6857Z" fill="#6DC4E5"/>
</svg>
