<svg width="25" height="27" viewBox="0 0 25 27" fill="none" xmlns="http://www.w3.org/2000/svg">
<path fill-rule="evenodd" clip-rule="evenodd" d="M7.65467 0.0486159C8.48793 -0.153854 9.34442 0.294569 9.56769 1.0502L9.99924 2.51201C14.4733 2.12288 18.7335 4.70684 19.9355 8.77456L21.7247 14.8251C23.3271 15.337 24.4172 16.2806 24.8394 17.7092C25.8597 21.1623 21.9377 23.9306 15.3938 25.6715L14.4854 25.9025L14.0157 26.0139C7.16499 27.5998 2.04405 27.0314 1.00106 23.5015C0.578931 22.0729 1.00277 20.7615 2.10826 19.5916L0.321665 13.5404C-0.88026 9.47269 1.38453 5.30323 5.4737 3.61165L5.04143 2.15001C4.81816 1.39438 5.31265 0.617689 6.14592 0.41522L7.65467 0.0486159ZM12.0785 17.7534C6.38519 19.1368 3.23712 21.2148 3.71792 22.842C4.19871 24.4692 8.07077 24.8414 13.7641 23.458C19.4574 22.0746 22.6055 19.9966 22.1247 18.3694C21.6439 16.7423 17.7718 16.3701 12.0785 17.7534ZM12.3186 18.7186L13.1097 18.5215C13.5668 20.3531 12.3375 22.2027 10.3052 22.6965C8.59121 23.113 6.84018 22.4354 5.96474 21.1376C7.61076 20.1907 9.77271 19.3781 12.3186 18.7186Z" fill="#005E9E"/>
</svg>
