<svg width="68" height="62" viewBox="0 0 68 62" fill="none" xmlns="http://www.w3.org/2000/svg">
<path d="M2 7.59235V54.7662C2 57.8689 4.51537 60.3843 7.61807 60.3843H62.4587V13.1847H7.59217C4.50363 13.1847 2 10.6809 2 7.59235C2 4.50382 4.50363 2 7.59217 2H54.1862L54.1476 13.1847" stroke="#005E9E" stroke-width="2.34855" stroke-linejoin="round"/>
<path d="M46.6136 42.5027H65.9988V29.4707H46.6136C43.0149 29.4707 40.0977 32.3881 40.0977 35.9868C40.0977 39.5855 43.0149 42.5027 46.6136 42.5027Z" fill="#E0F9FF" stroke="#0BB8E4" stroke-width="2.34855" stroke-linecap="round" stroke-linejoin="round"/>
<path d="M49.2445 35.9877C49.2445 37.4867 48.0295 38.7018 46.5305 38.7018C45.0315 38.7018 43.8164 37.4867 43.8164 35.9877C43.8164 34.4887 45.0315 33.2734 46.5305 33.2734C48.0295 33.2734 49.2445 34.4887 49.2445 35.9877Z" fill="#0BB8E4"/>
</svg>
