<svg width="465" height="416" viewBox="0 0 465 416" fill="none" xmlns="http://www.w3.org/2000/svg">
<path opacity="0.2" d="M232.5 415.459C360.906 415.459 465 407.572 465 397.843C465 388.114 360.906 380.227 232.5 380.227C104.094 380.227 0 388.114 0 397.843C0 407.572 104.094 415.459 232.5 415.459Z" fill="black"/>
<path d="M263.849 25.0137H51.8085C46.8372 25.0137 42.8071 29.0437 42.8071 34.0151V152.884C42.8071 157.855 46.8372 161.885 51.8085 161.885H263.849C268.821 161.885 272.851 157.855 272.851 152.884V34.0151C272.851 29.0437 268.821 25.0137 263.849 25.0137Z" fill="white"/>
<path d="M272.851 34.0156V37.5759H42.8071V34.0156C42.8071 31.6236 43.7538 29.3288 45.4405 27.6328C47.1272 25.9367 49.4166 24.9772 51.8085 24.9639H263.89C265.073 24.9678 266.244 25.2053 267.335 25.6627C268.426 26.1201 269.417 26.7884 270.249 27.6293C271.082 28.4703 271.74 29.4673 272.187 30.5632C272.633 31.659 272.859 32.8323 272.851 34.0156Z" fill="#73CFF1"/>
<path d="M263.849 25.0137H51.8085C46.8372 25.0137 42.8071 29.0437 42.8071 34.0151V152.884C42.8071 157.855 46.8372 161.885 51.8085 161.885H263.849C268.821 161.885 272.851 157.855 272.851 152.884V34.0151C272.851 29.0437 268.821 25.0137 263.849 25.0137Z" stroke="#263238" stroke-width="1.00574" stroke-linecap="round" stroke-linejoin="round"/>
<path d="M272.851 34.0156V37.5759H42.8071V34.0156C42.8071 31.6236 43.7538 29.3288 45.4405 27.6328C47.1272 25.9367 49.4166 24.9772 51.8085 24.9639H263.89C265.073 24.9678 266.244 25.2053 267.335 25.6627C268.426 26.1201 269.417 26.7884 270.249 27.6293C271.082 28.4703 271.74 29.4673 272.187 30.5632C272.633 31.659 272.859 32.8323 272.851 34.0156V34.0156Z" stroke="#263238" stroke-width="1.00574" stroke-linecap="round" stroke-linejoin="round"/>
<path d="M68.6449 31.2902C68.6468 31.7461 68.5135 32.1924 68.2616 32.5725C68.0097 32.9525 67.6507 33.2493 67.2301 33.4252C66.8094 33.601 66.346 33.6481 65.8986 33.5603C65.4511 33.4726 65.0398 33.2541 64.7167 32.9324C64.3936 32.6107 64.1733 32.2003 64.0836 31.7533C63.9939 31.3062 64.0389 30.8426 64.2129 30.4212C64.3869 29.9997 64.6821 29.6394 65.0611 29.3859C65.4401 29.1324 65.8858 28.9971 66.3417 28.9971C66.9508 28.9971 67.5351 29.2383 67.9667 29.6681C68.3984 30.0978 68.6422 30.6811 68.6449 31.2902Z" fill="#263238"/>
<path d="M80.6639 31.2902C80.6659 31.7461 80.5325 32.1924 80.2806 32.5725C80.0288 32.9525 79.6698 33.2493 79.2491 33.4252C78.8285 33.601 78.365 33.6481 77.9176 33.5603C77.4702 33.4726 77.0589 33.2541 76.7358 32.9324C76.4127 32.6107 76.1923 32.2003 76.1026 31.7533C76.0129 31.3062 76.0579 30.8426 76.232 30.4212C76.406 29.9997 76.7012 29.6394 77.0802 29.3859C77.4591 29.1324 77.9048 28.9971 78.3607 28.9971C78.9698 28.9971 79.5541 29.2383 79.9858 29.6681C80.4174 30.0978 80.6612 30.6811 80.6639 31.2902Z" fill="#263238"/>
<path d="M90.3788 33.5936C91.6508 33.5936 92.682 32.5625 92.682 31.2905C92.682 30.0185 91.6508 28.9873 90.3788 28.9873C89.1068 28.9873 88.0757 30.0185 88.0757 31.2905C88.0757 32.5625 89.1068 33.5936 90.3788 33.5936Z" fill="#263238"/>
<path d="M125.197 47.541H60.156C58.1064 47.541 56.4448 49.2026 56.4448 51.2522V82.5409C56.4448 84.5905 58.1064 86.2521 60.156 86.2521H125.197C127.247 86.2521 128.909 84.5905 128.909 82.5409V51.2522C128.909 49.2026 127.247 47.541 125.197 47.541Z" stroke="#263238" stroke-width="1.00574" stroke-linecap="round" stroke-linejoin="round"/>
<path d="M60.709 81.3857H123.538" stroke="#263238" stroke-width="1.00574" stroke-linecap="round" stroke-linejoin="round"/>
<path d="M72.6676 73.9932H65.376V81.2848H72.6676V73.9932Z" fill="#73CFF1" stroke="#263238" stroke-width="1.00574" stroke-miterlimit="10"/>
<path d="M83.3385 64.4092H76.0469V81.3861H83.3385V64.4092Z" fill="#73CFF1" stroke="#263238" stroke-width="1.00574" stroke-miterlimit="10"/>
<path d="M95.3571 67.3262H88.0654V81.5574H95.3571V67.3262Z" fill="#73CFF1" stroke="#263238" stroke-width="1.00574" stroke-miterlimit="10"/>
<path d="M107.989 53.1543H100.698V81.0637H107.989V53.1543Z" fill="#73CFF1" stroke="#263238" stroke-width="1.00574" stroke-miterlimit="10"/>
<path d="M120.611 53.377H113.32V81.2863H120.611V53.377Z" fill="#73CFF1" stroke="#263238" stroke-width="1.00574" stroke-miterlimit="10"/>
<path d="M218.752 88.2543C230.011 88.2543 239.139 79.127 239.139 67.8679C239.139 56.6088 230.011 47.4814 218.752 47.4814C207.493 47.4814 198.366 56.6088 198.366 67.8679C198.366 79.127 207.493 88.2543 218.752 88.2543Z" fill="white" stroke="#263238" stroke-width="1.00574" stroke-miterlimit="10"/>
<path d="M220.421 80.5806V82.6726H217.002V80.5806C215.597 80.2409 214.355 79.4225 213.489 78.2661C212.622 77.1098 212.186 75.6877 212.255 74.2444V73.299L216.127 72.8766V73.8824C216.127 75.8234 217.132 77.0002 218.711 77.0002C219.054 77.0286 219.399 76.9825 219.722 76.8652C220.045 76.7478 220.339 76.5618 220.584 76.3201C220.829 76.0784 221.018 75.7866 221.139 75.4647C221.26 75.1429 221.311 74.7987 221.286 74.4556C221.286 72.595 219.546 70.9959 217.494 69.2962C215.061 67.2847 212.637 64.891 212.637 61.5117C212.637 58.1324 214.226 55.8494 217.002 55.1655V53.0635H220.421V55.1454C223.227 55.7991 224.857 58.1626 224.857 61.5318V62.2157L220.984 62.6281V61.9241C220.984 59.9126 220.19 58.8063 218.782 58.8063C217.374 58.8063 216.579 59.6813 216.579 61.3508C216.579 63.2114 218.369 64.7703 220.381 66.5103C222.775 68.5217 225.239 70.9154 225.239 74.2947C225.298 75.7405 224.848 77.1613 223.968 78.3098C223.088 79.4583 221.833 80.2618 220.421 80.5806Z" fill="#263238"/>
<path d="M54.7554 106.025H60.7094" stroke="#263238" stroke-width="1.00574" stroke-linecap="round" stroke-linejoin="round"/>
<path d="M54.7554 117.533H60.7094" stroke="#263238" stroke-width="1.00574" stroke-linecap="round" stroke-linejoin="round"/>
<path d="M54.7554 129.048H60.7094" stroke="#263238" stroke-width="1.00574" stroke-linecap="round" stroke-linejoin="round"/>
<path d="M54.7554 140.554H60.7094" stroke="#263238" stroke-width="1.00574" stroke-linecap="round" stroke-linejoin="round"/>
<path d="M73.8345 149.244V144.617" stroke="#263238" stroke-width="1.00574" stroke-linecap="round" stroke-linejoin="round"/>
<path d="M83.2681 149.244V144.617" stroke="#263238" stroke-width="1.00574" stroke-linecap="round" stroke-linejoin="round"/>
<path d="M92.7017 149.244V144.617" stroke="#263238" stroke-width="1.00574" stroke-linecap="round" stroke-linejoin="round"/>
<path d="M102.146 149.244V144.617" stroke="#263238" stroke-width="1.00574" stroke-linecap="round" stroke-linejoin="round"/>
<path d="M111.58 149.244V144.617" stroke="#263238" stroke-width="1.00574" stroke-linecap="round" stroke-linejoin="round"/>
<path d="M121.014 149.244V144.617" stroke="#263238" stroke-width="1.00574" stroke-linecap="round" stroke-linejoin="round"/>
<path d="M130.448 149.244V144.617" stroke="#263238" stroke-width="1.00574" stroke-linecap="round" stroke-linejoin="round"/>
<path d="M139.892 149.244V144.617" stroke="#263238" stroke-width="1.00574" stroke-linecap="round" stroke-linejoin="round"/>
<path d="M149.325 149.244V144.617" stroke="#263238" stroke-width="1.00574" stroke-linecap="round" stroke-linejoin="round"/>
<path d="M158.759 149.244V144.617" stroke="#263238" stroke-width="1.00574" stroke-linecap="round" stroke-linejoin="round"/>
<path d="M168.192 149.244V144.617" stroke="#263238" stroke-width="1.00574" stroke-linecap="round" stroke-linejoin="round"/>
<path d="M177.638 149.244V144.617" stroke="#263238" stroke-width="1.00574" stroke-linecap="round" stroke-linejoin="round"/>
<path d="M187.071 149.244V144.617" stroke="#263238" stroke-width="1.00574" stroke-linecap="round" stroke-linejoin="round"/>
<path d="M196.505 149.244V144.617" stroke="#263238" stroke-width="1.00574" stroke-linecap="round" stroke-linejoin="round"/>
<path d="M205.938 149.244V144.617" stroke="#263238" stroke-width="1.00574" stroke-linecap="round" stroke-linejoin="round"/>
<path d="M215.021 149.244V144.617" stroke="#263238" stroke-width="1.00574" stroke-linecap="round" stroke-linejoin="round"/>
<path d="M224.103 149.244V144.617" stroke="#263238" stroke-width="1.00574" stroke-linecap="round" stroke-linejoin="round"/>
<path d="M233.174 149.244V144.617" stroke="#263238" stroke-width="1.00574" stroke-linecap="round" stroke-linejoin="round"/>
<path d="M257.191 98.987V143.702C257.191 146.77 254.073 149.244 250.231 149.244H61.735C60.5873 149.285 59.4456 149.06 58.399 148.587C57.3523 148.114 56.4289 147.406 55.7006 146.518C55.0713 145.712 54.7187 144.725 54.6948 143.702V98.987C54.6948 95.9697 57.8126 93.4453 61.6546 93.4453H250.231C254.073 93.4453 257.191 95.9195 257.191 98.987Z" stroke="#73CFF1" stroke-width="1.00574" stroke-linecap="round" stroke-linejoin="round"/>
<path d="M199.823 12.3829L139.65 93.4458L116.638 124.443L91.4948 108.431L60.7291 149.244H60.2866C59.3219 149.245 58.3738 148.994 57.5359 148.516C56.6981 148.038 55.9995 147.35 55.5093 146.519L90.0767 100.647L115.22 116.628L132.429 93.4961L195.177 9.01367L199.823 12.3829Z" fill="#263238"/>
<path d="M184.556 13.4075L206.672 0.000976562L200.558 23.1934L196.655 12.4621L184.556 13.4075Z" fill="#263238"/>
<path d="M294.363 132.638C294.362 140.892 291.564 148.903 286.426 155.363C281.289 161.823 274.114 166.352 266.072 168.211H265.961C265.006 168.423 264.05 168.614 263.065 168.755C261.336 169.001 259.591 169.125 257.845 169.127C248.299 169.093 239.146 165.322 232.346 158.622C225.546 151.923 221.639 142.827 221.463 133.282C221.287 123.738 224.855 114.504 231.403 107.558C237.951 100.612 246.959 96.5063 256.497 96.1198C256.829 96.1198 257.181 96.1198 257.503 96.1198C257.61 96.1098 257.718 96.1098 257.825 96.1198C257.949 96.1098 258.073 96.1098 258.197 96.1198C263.124 96.1516 267.992 97.1957 272.499 99.1873C278.999 102.035 284.53 106.716 288.413 112.657C292.296 118.597 294.364 125.541 294.363 132.638Z" fill="white"/>
<path opacity="0.4" d="M272.52 99.1978C230.349 97.0053 230.148 143.823 230.148 143.823C230.148 143.823 223.711 128.545 234.221 111.639C240.094 102.175 250.313 98.001 258.218 96.1504C263.144 96.1758 268.011 97.2131 272.52 99.1978Z" fill="white"/>
<path d="M294.364 132.64C294.363 140.914 291.553 148.943 286.393 155.411C281.233 161.88 274.029 166.404 265.961 168.243C263.3 168.856 260.577 169.163 257.845 169.158C248.16 169.337 238.8 165.661 231.825 158.939C224.85 152.216 220.831 142.999 220.653 133.313C220.474 123.628 224.15 114.269 230.872 107.294C237.594 100.319 246.812 96.2998 256.497 96.1211C256.94 96.1211 257.393 96.1211 257.845 96.1211C267.53 96.1238 276.817 99.9721 283.665 106.82C290.513 113.668 294.361 122.955 294.364 132.64V132.64Z" stroke="#263238" stroke-width="1.00574" stroke-linecap="round" stroke-linejoin="round"/>
<path d="M294.364 132.64C294.363 140.914 291.553 148.943 286.393 155.411C281.233 161.88 274.029 166.404 265.962 168.243C265.519 168.243 265.066 168.243 264.614 168.243C255.65 168.219 247.008 164.9 240.332 158.918C233.656 152.936 229.413 144.707 228.411 135.799C227.408 126.892 229.716 117.926 234.895 110.61C240.074 103.293 247.763 98.1365 256.498 96.1211C256.94 96.1211 257.393 96.1211 257.845 96.1211C267.53 96.1238 276.817 99.9721 283.665 106.82C290.513 113.668 294.361 122.955 294.364 132.64V132.64Z" stroke="#263238" stroke-width="1.00574" stroke-linecap="round" stroke-linejoin="round"/>
<path d="M270.427 155.458L271.372 159.32L265.056 160.858L264.111 157.006C258.458 157.006 253.923 153.335 252.474 147.442L252.042 145.692L259.012 143.167L259.454 144.988C260.329 148.568 262.693 150.288 265.639 149.564C266.286 149.463 266.904 149.223 267.449 148.861C267.994 148.499 268.454 148.022 268.797 147.465C269.14 146.908 269.359 146.282 269.437 145.632C269.515 144.982 269.451 144.323 269.25 143.7C268.405 140.261 264.463 138.108 259.897 135.886C254.496 133.271 248.924 129.952 247.395 123.706C245.907 117.611 247.777 112.532 252.595 110.018L251.65 106.156L257.956 104.617L258.901 108.469C264.382 108.389 268.466 111.999 269.964 118.235L270.276 119.502L263.316 122.027L262.964 120.629C262.039 116.837 260.088 115.238 257.493 115.871C254.898 116.505 253.822 118.486 254.576 121.564C255.421 125.004 259.414 127.075 263.93 129.389C269.27 132.094 274.902 135.323 276.431 141.558C277.97 147.562 275.516 152.913 270.427 155.458Z" stroke="#263238" stroke-width="1.00574" stroke-miterlimit="10"/>
<path opacity="0.3" d="M270.427 155.458L271.372 159.32L265.056 160.858L264.111 157.006C258.458 157.006 253.923 153.335 252.474 147.442L252.042 145.692L259.012 143.167L259.454 144.988C260.329 148.568 262.693 150.288 265.639 149.564C266.286 149.463 266.904 149.223 267.449 148.861C267.994 148.499 268.454 148.022 268.797 147.465C269.14 146.908 269.359 146.282 269.437 145.632C269.515 144.982 269.451 144.323 269.25 143.7C268.405 140.261 264.463 138.108 259.897 135.886C254.496 133.271 248.924 129.952 247.395 123.706C245.907 117.611 247.777 112.532 252.595 110.018L251.65 106.156L257.956 104.617L258.901 108.469C264.382 108.389 268.466 111.999 269.964 118.235L270.276 119.502L263.316 122.027L262.964 120.629C262.039 116.837 260.088 115.238 257.493 115.871C254.898 116.505 253.822 118.486 254.576 121.564C255.421 125.004 259.414 127.075 263.93 129.389C269.27 132.094 274.902 135.323 276.431 141.558C277.97 147.562 275.516 152.913 270.427 155.458Z" fill="black"/>
<path d="M239.179 164.039L246.893 163.687" stroke="#263238" stroke-width="1.00574" stroke-linecap="round" stroke-linejoin="round"/>
<path d="M235.467 161.474L242.196 160.9" stroke="#263238" stroke-width="1.00574" stroke-linecap="round" stroke-linejoin="round"/>
<path d="M232.45 158.769L239.178 158.195" stroke="#263238" stroke-width="1.00574" stroke-linecap="round" stroke-linejoin="round"/>
<path d="M231.525 107.313H237.288" stroke="#263238" stroke-width="1.00574" stroke-linecap="round" stroke-linejoin="round"/>
<path d="M234.37 104.66L240.113 104.398" stroke="#263238" stroke-width="1.00574" stroke-linecap="round" stroke-linejoin="round"/>
<path d="M237.971 101.993L244.026 101.42" stroke="#263238" stroke-width="1.00574" stroke-linecap="round" stroke-linejoin="round"/>
<path opacity="0.3" d="M266.072 168.213H265.961C263.299 168.825 260.576 169.133 257.845 169.128C248.299 169.094 239.146 165.323 232.346 158.624C225.546 151.924 221.639 142.828 221.463 133.284C221.287 123.739 224.855 114.505 231.403 107.559C237.951 100.613 246.959 96.5076 256.497 96.1211C256.829 96.1211 257.181 96.1211 257.503 96.1211C248.602 98.9271 233.667 106.098 229.674 121.053C224.032 142.305 236.734 166.433 266.072 168.213Z" fill="black"/>
<path opacity="0.1" d="M294.364 132.639C294.362 140.893 291.564 148.903 286.427 155.364C281.289 161.824 274.114 166.353 266.072 168.212H265.961C265.006 168.423 264.051 168.615 263.065 168.755L272.519 99.168C279.019 102.02 284.547 106.705 288.427 112.65C292.307 118.594 294.37 125.541 294.364 132.639Z" fill="black"/>
<path d="M315.082 75.1505C312.19 79.235 307.999 82.2185 303.193 83.6141C298.387 85.0097 293.25 84.7348 288.621 82.8344L288.49 82.7741C287.803 82.4722 287.132 82.1365 286.479 81.7683C285.74 81.3715 285.028 80.9281 284.346 80.4407C279.891 77.0383 276.893 72.0716 275.959 66.5442C275.025 61.0167 276.223 55.3407 279.312 50.6628C282.401 45.9849 287.151 42.654 292.602 41.3431C298.052 40.0321 303.797 40.8389 308.675 43.6003L309.168 43.9121C309.399 44.0429 309.621 44.2038 309.852 44.3647C310.083 44.5256 310.526 44.8575 310.858 45.119C315.254 48.6453 318.139 53.7163 318.924 59.2973C319.709 64.8782 318.335 70.5483 315.082 75.1505Z" fill="white"/>
<path opacity="0.4" d="M281.752 75.4519C281.752 75.4519 278.141 64.8212 282.939 56.9965C288.973 47.1905 298.216 42.7149 310.798 45.1287C310.798 45.1287 303.979 40.5224 292.564 43.7911C281.148 47.0597 275.023 62.7694 281.752 75.4519Z" fill="white"/>
<path d="M315.082 75.1615C312.188 79.2425 307.995 82.222 303.19 83.6139C298.384 85.0057 293.248 84.7277 288.621 82.8253C287.094 82.2013 285.643 81.4049 284.296 80.4517C279.813 77.0127 276.816 71.9889 275.918 66.4104C275.021 60.8319 276.291 55.1214 279.47 50.4498C282.648 45.7782 287.493 42.4995 293.011 41.286C298.53 40.0724 304.303 41.016 309.148 43.9231C309.369 44.0539 309.601 44.2048 309.822 44.3657C314.596 47.7579 317.83 52.9041 318.816 58.6767C319.802 64.4492 318.459 70.3772 315.082 75.1615Z" stroke="#263238" stroke-width="1.00574" stroke-linecap="round" stroke-linejoin="round"/>
<path d="M315.082 75.1609C312.188 79.2418 307.996 82.2213 303.19 83.6132C298.384 85.005 293.248 84.7271 288.621 82.8246L287.947 82.3821C283.578 79.2149 280.517 74.56 279.339 69.2933C278.162 64.0267 278.951 58.5115 281.556 53.7854C284.161 49.0593 288.404 45.4483 293.485 43.6319C298.567 41.8154 304.137 41.9188 309.148 43.9225C309.37 44.0532 309.601 44.2041 309.822 44.365C314.596 47.7572 317.83 52.9034 318.816 58.676C319.802 64.4485 318.459 70.3765 315.082 75.1609Z" stroke="#263238" stroke-width="1.00574" stroke-linecap="round" stroke-linejoin="round"/>
<path d="M295.279 78.0986L294.404 80.3313L290.743 78.8931L291.618 76.6503C290.26 75.694 289.276 74.2951 288.836 72.6933C288.395 71.0915 288.526 69.3865 289.204 67.8702L289.606 66.8644L293.931 68.0411L293.519 69.1072C292.704 71.1791 293.257 72.8486 294.967 73.5224C295.322 73.6991 295.711 73.7964 296.107 73.8078C296.504 73.8192 296.898 73.7444 297.262 73.5885C297.626 73.4326 297.953 73.1993 298.218 72.9048C298.483 72.6104 298.682 72.2617 298.799 71.8831C299.583 69.8716 298.387 67.4478 296.908 64.7624C295.158 61.5843 293.569 58.0038 294.987 54.3832C296.405 50.7625 299.081 48.9924 302.329 49.4349L303.214 47.2021L306.865 48.6404L305.99 50.8631C308.726 52.7337 309.48 55.8918 308.062 59.5627L307.77 60.2869L303.445 59.1101L303.767 58.2955C304.632 56.103 304.23 54.6245 302.762 54.0311C301.293 53.4378 300.036 54.0311 299.332 55.8314C298.548 57.8429 299.805 60.2366 301.223 62.9521C302.923 66.1604 304.572 69.7207 303.154 73.3314C302.616 74.9283 301.53 76.2833 300.089 77.156C298.647 78.0286 296.943 78.3626 295.279 78.0986V78.0986Z" stroke="#263238" stroke-width="1.00574" stroke-miterlimit="10"/>
<path opacity="0.3" d="M295.279 78.0986L294.404 80.3313L290.743 78.8931L291.618 76.6503C290.26 75.694 289.276 74.2951 288.836 72.6933C288.395 71.0915 288.526 69.3865 289.204 67.8702L289.606 66.8644L293.931 68.0411L293.519 69.1072C292.704 71.1791 293.257 72.8486 294.967 73.5224C295.322 73.6991 295.711 73.7964 296.107 73.8078C296.504 73.8192 296.898 73.7444 297.262 73.5885C297.626 73.4326 297.953 73.1993 298.218 72.9048C298.483 72.6104 298.682 72.2617 298.799 71.8831C299.583 69.8716 298.387 67.4478 296.908 64.7624C295.158 61.5843 293.569 58.0038 294.987 54.3832C296.405 50.7625 299.081 48.9924 302.329 49.4349L303.214 47.2021L306.865 48.6404L305.99 50.8631C308.726 52.7337 309.48 55.8918 308.062 59.5627L307.77 60.2869L303.445 59.1101L303.767 58.2955C304.632 56.103 304.23 54.6245 302.762 54.0311C301.293 53.4378 300.036 54.0311 299.332 55.8314C298.548 57.8429 299.805 60.2366 301.223 62.9521C302.923 66.1604 304.572 69.7207 303.154 73.3314C302.616 74.9283 301.53 76.2833 300.089 77.156C298.647 78.0286 296.943 78.3626 295.279 78.0986Z" fill="black"/>
<path opacity="0.3" d="M308.625 43.6102C302.591 42.5341 294.947 41.9407 290.823 44.616C283.25 49.4737 278.533 55.5987 278.604 65.5254C278.674 75.452 287.947 82.4118 287.947 82.4118L288.49 82.804C287.011 82.1863 285.604 81.4071 284.296 80.4808C279.841 77.0783 276.843 72.1116 275.909 66.5842C274.974 61.0568 276.173 55.3807 279.262 50.7028C282.351 46.0249 287.101 42.694 292.551 41.3831C298.002 40.0722 303.747 40.8789 308.625 43.6404V43.6102Z" fill="black"/>
<path opacity="0.1" d="M315.081 75.1503C312.19 79.2348 307.999 82.2184 303.193 83.6139C298.387 85.0095 293.25 84.7346 288.62 82.8342L288.49 82.7739C287.803 82.472 287.132 82.1363 286.478 81.7681L310.797 45.1289C315.2 48.6463 318.095 53.7112 318.891 59.2902C319.687 64.8692 318.325 70.5417 315.081 75.1503Z" fill="black"/>
<path d="M303.696 358.377C294.335 369.638 283.175 379.272 270.668 386.889C266.771 389.221 262.741 391.323 258.599 393.185C230.026 406.029 197.46 406.864 167.006 399.481C102.97 383.963 68.9962 327.44 64.6816 264.692C63.525 247.735 60.9301 229.42 67.7994 213.288C74.6686 197.156 88.5579 187.139 104.268 180.179C115.673 175.1 127.993 171.691 139.187 168.905C159.445 163.9 180.813 166.105 199.622 175.14C212.787 181.386 222.161 192.238 233.234 201.38C234.407 202.346 235.588 203.308 236.774 204.267C247.96 213.27 259.718 221.538 271.975 229.018C290.592 240.373 309.65 251.084 321.548 270.153C340.527 300.546 324.515 333.635 303.696 358.377Z" fill="#73CFF1"/>
<path d="M303.696 358.377C294.335 369.638 283.175 379.272 270.668 386.889C266.771 389.221 262.741 391.323 258.599 393.185C230.026 406.029 197.46 406.864 167.006 399.481C102.97 383.963 68.9962 327.44 64.6816 264.692C63.525 247.735 60.9301 229.42 67.7994 213.288C74.6686 197.156 88.5579 187.139 104.268 180.179C115.673 175.1 127.993 171.691 139.187 168.905C159.445 163.9 180.813 166.105 199.622 175.14C212.787 181.386 222.161 192.238 233.234 201.38C234.407 202.346 235.588 203.308 236.774 204.267C247.96 213.27 259.718 221.538 271.975 229.018C290.592 240.373 309.65 251.084 321.548 270.153C340.527 300.546 324.515 333.635 303.696 358.377Z" fill="white"/>
<path d="M236.734 204.267C235.547 203.315 234.367 202.349 233.194 201.371C222.131 192.208 212.737 181.386 199.582 175.141C180.771 166.11 159.405 163.906 139.147 168.905C112.525 175.513 79.5061 185.691 67.7389 213.299C60.8697 229.391 63.4645 247.735 64.6312 264.692C68.9961 327.44 102.97 383.963 167.006 399.482C201.845 407.93 239.419 405.617 270.668 386.89C283.174 379.272 294.335 369.638 303.696 358.377C324.515 333.636 340.527 300.547 321.568 270.153C309.68 251.044 290.622 240.373 271.995 229.018C259.718 221.541 247.939 213.273 236.734 204.267V204.267Z" stroke="#263238" stroke-width="1.00574" stroke-miterlimit="10"/>
<path d="M139.73 316.156C134.399 317.77 129.225 319.864 124.272 322.412" stroke="#263238" stroke-width="1.00574" stroke-linecap="round" stroke-linejoin="round"/>
<path d="M172.366 309.939C164.578 310.613 156.848 311.84 149.234 313.61" stroke="#263238" stroke-width="1.00574" stroke-linecap="round" stroke-linejoin="round"/>
<path d="M165.577 308.333C165.577 308.333 135.526 290.853 99.2588 304.863" stroke="#263238" stroke-width="1.00574" stroke-linecap="round" stroke-linejoin="round"/>
<path opacity="0.1" d="M303.696 358.377C294.334 369.638 283.174 379.272 270.667 386.889C266.77 389.221 262.74 391.323 258.598 393.185C255.328 392.184 252.115 391.006 248.973 389.655C230.206 381.609 214.456 368.002 199.068 354.585C189.785 346.539 180.352 338.292 169.238 332.992C154.21 325.886 137.112 324.477 121.123 329.029C129.393 319.696 140.635 313.509 152.945 311.519C145 304.288 133.947 301.25 123.205 301.059C112.464 300.868 106.55 302.186 96.0502 304.539C99.5602 298.082 108.873 292.239 116.225 292.41C109.236 292.317 102.258 291.824 95.326 290.932C85.8419 289.403 81.5977 278.239 80.1796 268.745C76.2572 242.596 80.2299 214.746 94.5013 192.52C97.3268 188.086 100.595 183.951 104.257 180.179C115.662 175.1 127.983 171.691 139.176 168.905C159.434 163.9 180.802 166.105 199.612 175.14C212.777 181.386 222.15 192.238 233.224 201.38C234.397 202.346 235.577 203.308 236.764 204.267C247.949 213.27 259.708 221.538 271.965 229.018C290.581 240.373 309.64 251.084 321.538 270.153C340.526 300.546 324.515 333.635 303.696 358.377Z" fill="black"/>
<path d="M314.176 357.611C319.815 362.299 325.715 366.664 331.847 370.686C343.805 371.491 338.445 385.943 338.445 385.943L328.206 392.531C328.206 392.531 310.676 378.601 301.101 374.085C291.527 369.57 314.176 357.611 314.176 357.611Z" fill="white"/>
<path opacity="0.3" d="M229.201 205.443C229.201 205.443 227.562 189.221 224.947 184.665L185.24 176.578V173.501C185.24 173.501 186.155 168.15 177.305 164.801C168.454 161.452 150.009 165.807 145.252 169.407C140.494 173.008 142.234 179.203 142.234 179.203C142.234 179.203 126.243 187.28 119.062 190.357C113.184 193.069 107.453 196.091 101.894 199.409C101.894 199.409 98.6353 236.702 99.279 245.361C99.9227 254.021 98.756 262.167 99.5003 266.965C100.245 271.762 100.828 274.488 105.857 278.571C110.885 282.654 115.461 288.628 128.647 282.704L126.806 281.246L213.602 252.009L229.201 205.443Z" fill="black"/>
<path d="M229.201 205.443C229.201 205.443 227.562 189.221 224.947 184.665L185.24 176.578V173.501C185.24 173.501 186.155 168.15 177.305 164.801C168.454 161.452 150.009 165.807 145.252 169.407C140.494 173.008 142.234 179.203 142.234 179.203C142.234 179.203 126.243 187.28 119.062 190.357C113.184 193.069 107.453 196.091 101.894 199.409C101.894 199.409 98.6353 236.702 99.279 245.361C99.9227 254.021 98.756 262.167 99.5003 266.965C100.245 271.762 100.828 274.488 105.857 278.571C110.885 282.654 115.461 288.628 128.647 282.704L126.806 281.246L213.602 252.009L229.201 205.443Z" fill="#73CFF1"/>
<path opacity="0.05" d="M229.201 205.443C229.201 205.443 227.562 189.221 224.947 184.665L185.24 176.578V173.501C185.24 173.501 186.155 168.15 177.305 164.801C168.454 161.452 150.009 165.807 145.252 169.407C140.494 173.008 142.234 179.203 142.234 179.203C142.234 179.203 126.243 187.28 119.062 190.357C113.184 193.069 107.453 196.091 101.894 199.409C101.894 199.409 98.6353 236.702 99.279 245.361C99.9227 254.021 98.756 262.167 99.5003 266.965C100.245 271.762 100.828 274.488 105.857 278.571C110.885 282.654 115.461 288.628 128.647 282.704L126.806 281.246L213.602 252.009L229.201 205.443Z" fill="black"/>
<path opacity="0.1" d="M225.47 186.635H208.855C207.293 186.637 205.782 187.193 204.591 188.204C203.399 189.215 202.605 190.615 202.348 192.156L194.161 241.438C194.161 241.438 182.887 242.373 174.901 248.196C166.916 254.02 147.273 212.472 116.236 212.452C116.236 212.452 125.167 232.869 127.148 249.162C127.148 249.162 107.748 247.05 104.529 254.643C101.311 262.236 105.988 276.468 114.195 270.956C122.401 265.445 130.125 256.252 135.607 262.065C141.088 267.879 165.578 271.007 165.578 271.007L203.263 252.008L217.877 245.139L225.47 186.635Z" fill="black"/>
<path opacity="0.4" d="M172.719 162.207C172.719 162.207 182.153 164.822 183.682 167.99C185.21 171.158 185.049 179.174 185.049 179.174C182.76 184.531 179.291 189.303 174.901 193.134L167.861 179.174L168.495 195.004C168.495 195.004 155.139 192.782 149.466 188.517L143.804 184.243C143.804 184.243 141.36 176.197 141.712 173.471C142.064 170.746 152.252 165.214 152.252 165.214L172.719 162.207Z" fill="white"/>
<path d="M329.856 406.309C329.594 405.736 333.728 398.434 330.489 391.002C327.251 383.569 322.091 386.436 322.091 386.436C322.091 386.436 307.397 377.082 301.222 374.126C296.773 371.891 292.488 369.343 288.399 366.502L281.872 375.292L287.906 393.959L329.856 406.309Z" fill="#73CFF1"/>
<path d="M321.558 385.985L340.426 397.511C340.426 397.511 353.692 389.002 360.018 383.128C366.344 377.255 380.555 364.743 380.555 364.743L389.607 352.564C389.607 352.564 383.331 344.8 372.871 351.035C359.354 359.081 342.87 370.768 331.877 370.657C331.877 370.657 334.039 384.164 321.629 385.985" fill="#73CFF1"/>
<path d="M169.52 113.449C169.52 113.449 178.079 126.403 179.638 130.597C181.197 134.791 182.454 140.997 182.142 143.984C181.831 146.971 178.693 162.972 177.114 163.435L175.595 165.154L176.601 171.933C176.601 171.933 169.902 183.509 150.21 175.021C150.21 175.021 149.446 161.504 147.052 157.259C144.658 153.015 141.078 158.064 137.487 145.804C133.897 133.544 145.332 120.66 145.332 120.66L169.52 113.449Z" fill="white"/>
<path opacity="0.5" d="M381.39 348.781C381.39 348.781 371.684 350.471 368.536 356.214C365.388 361.956 359.344 372.627 357.282 377.787C355.22 382.946 338.173 395.407 338.173 395.407L340.436 397.51C340.436 397.51 354.315 388.931 362.693 380.774C371.071 372.617 389.546 352.1 389.546 352.1C389.546 352.1 388.219 350.783 381.39 348.781Z" fill="white"/>
<path opacity="0.5" d="M284.275 372.064L281.872 375.293L289.254 390.6L329.856 405.194L331.736 399.25C331.736 399.25 332.36 393.215 318.109 388.629C303.857 384.043 295.168 381.016 291.114 377.868C287.061 374.72 284.275 372.064 284.275 372.064Z" fill="white"/>
<path d="M150.241 258.377C150.241 258.377 137.81 256.506 132.007 266.674C126.203 276.842 126.797 281.247 126.797 281.247C126.797 281.247 135.014 288.71 146.308 288.288C157.603 287.865 174.047 274.931 179.407 270.717C184.768 266.503 198.285 254.444 207.508 256.939L208.514 248.219C208.514 248.219 207.608 244.307 199.723 245.363C191.838 246.419 188.741 250.914 186.196 250.914C183.652 250.914 181.248 248.47 176.139 257.2C176.129 257.2 158.196 260.378 150.241 258.377Z" fill="white"/>
<path d="M166.392 132.074C166.657 133.704 167.033 135.314 167.519 136.892C167.7 137.662 168.043 138.385 168.524 139.014C169.47 140.02 170.998 140.281 172.396 140.492C172.627 140.509 172.846 140.601 173.02 140.754C173.133 140.934 173.186 141.145 173.171 141.357C173.162 142.941 172.687 144.488 171.803 145.803" stroke="#263238" stroke-width="1.00574" stroke-linecap="round" stroke-linejoin="round"/>
<path opacity="0.1" d="M292.613 361.635L284.276 372.024C284.276 372.024 293.428 380.482 302.902 383.62C312.376 386.758 328.961 392.672 331.737 397.228L330.671 391.807C330.671 391.807 304.733 375.896 298.779 372.094C297.018 370.94 295.547 369.396 294.478 367.583C293.409 365.769 292.771 363.734 292.613 361.635Z" fill="black"/>
<path opacity="0.1" d="M321.558 385.984L338.163 395.407C338.163 395.407 346.36 389.795 350.383 385.662C354.406 381.528 359.364 376.942 362.452 367.679C366.666 354.876 378.735 348.781 378.735 348.781C378.735 348.781 361.949 356.686 353.209 362.862C344.469 369.037 335.95 371.652 331.002 371.229C330.952 371.26 334.924 383.831 321.558 385.984Z" fill="black"/>
<path d="M160.539 148.087C160.539 148.087 167.066 153.206 173.845 151.285C173.845 151.285 167.448 163.958 160.539 148.087Z" fill="white" stroke="#263238" stroke-width="1.00574" stroke-linecap="round" stroke-linejoin="round"/>
<path d="M160.297 137.023C160.488 138.431 160.056 139.648 159.352 139.749C158.647 139.849 157.913 138.743 157.722 137.365C157.531 135.987 157.954 134.74 158.668 134.639C159.382 134.539 160.146 135.615 160.297 137.023Z" fill="#263238"/>
<path d="M174.508 134.458C174.689 135.876 174.267 137.093 173.563 137.184C172.859 137.274 172.115 136.178 171.934 134.81C171.753 133.442 172.165 132.175 172.879 132.085C173.593 131.994 174.317 133.05 174.508 134.458Z" fill="#263238"/>
<path d="M159.292 131.05C159.292 131.05 155.49 129.088 152.785 133.292" stroke="#263238" stroke-width="1.00574" stroke-linecap="round" stroke-linejoin="round"/>
<path d="M169.037 128.433C169.037 128.433 173.06 124.983 175.383 128.433" stroke="#263238" stroke-width="1.00574" stroke-linecap="round" stroke-linejoin="round"/>
<path d="M146.378 143.994C146.378 143.994 143.934 140.383 141.349 140.494C138.765 140.604 137.739 144.225 138.664 147.725C139.589 151.225 143.441 156.113 146.358 155.65C148.003 155.438 149.504 154.603 150.552 153.317" stroke="#263238" stroke-width="1.00574" stroke-linecap="round" stroke-linejoin="round"/>
<path d="M169.812 116.364C172.557 118.647 175.464 121.131 176.852 124.491C178.079 127.347 178.35 130.525 179.477 133.412C180.674 136.499 181.981 139.728 182.082 143.097C182.029 146.214 181.62 149.315 180.865 152.34C180.447 154.962 179.825 157.548 179.004 160.074C177.646 163.684 175.142 165.907 171.783 167.617C169.339 168.864 165.266 170.634 162.621 168.965C161.082 167.959 158.769 165.082 156.848 162.437" stroke="#263238" stroke-width="1.00574" stroke-linecap="round" stroke-linejoin="round"/>
<path d="M146.378 155.649C146.378 155.649 150.703 166.25 149.657 173.703" stroke="#263238" stroke-width="1.00574" stroke-linecap="round" stroke-linejoin="round"/>
<path d="M145.272 142.213C145.847 141.787 146.304 141.22 146.596 140.566C146.888 139.912 147.007 139.194 146.941 138.481C146.78 136.852 145.654 135.343 145.875 133.714C146.06 132.934 146.351 132.183 146.74 131.481C147.326 130.128 147.584 128.656 147.493 127.185C147.402 125.713 146.965 124.284 146.217 123.013C146.217 123.013 159.956 123.657 166.392 119.563C172.829 115.47 177.737 105 173.845 100.002C169.953 95.003 162.369 101.822 156.747 102.576C151.125 103.331 131.131 106.519 127.943 114.223C124.755 121.927 129.612 124.693 129.763 132.045C129.914 139.397 129.914 153.326 140.907 152.049C140.907 152.049 136.793 146.728 139.65 141.247C141.591 138.944 145.272 142.213 145.272 142.213Z" fill="#263238"/>
<path d="M172.215 108.691C174.081 110.144 175.628 111.966 176.759 114.042C177.891 116.118 178.583 118.405 178.793 120.76C179.406 126.272 189.182 136.983 182.132 143.088C182.132 143.088 180.493 136.601 179.527 133.403C178.562 130.204 177.325 124.351 175.705 122.339C174.086 120.328 165.497 113.288 165.497 113.288L172.215 108.691Z" fill="#263238"/>
<path d="M147.645 173.471C147.645 173.471 154.424 177.937 167.016 178.118L168.494 195.004C168.494 195.004 154.333 193.928 143.803 184.243C143.803 184.243 140.957 176.71 141.711 173.471C142.466 170.233 149.234 167.024 149.234 167.024" stroke="#263238" stroke-width="1.00574" stroke-linecap="round" stroke-linejoin="round"/>
<path d="M176.128 165.918L176.53 171.953C173.876 174.717 170.62 176.834 167.016 178.138L174.901 193.154C174.901 193.154 184.305 185.832 185.24 178.138C185.24 178.138 185.321 170.263 183.681 168.01C182.042 165.757 176.068 164.701 176.068 164.701" stroke="#263238" stroke-width="1.00574" stroke-linecap="round" stroke-linejoin="round"/>
<path opacity="0.8" d="M137.971 119.253C138.976 116.728 141.732 115.23 144.418 114.827C147.103 114.425 149.859 114.707 152.574 114.636C156.334 114.606 160.017 113.564 163.235 111.619C164.834 110.645 166.225 109.366 167.33 107.854C168.434 106.342 169.23 104.628 169.672 102.809" stroke="white" stroke-width="1.00574" stroke-linecap="round" stroke-linejoin="round"/>
<path opacity="0.8" d="M131.483 118.759C133.183 113.599 138.694 110.411 144.115 109.958C146.8 109.727 149.516 110.039 152.161 109.727C154.806 109.415 157.622 108.309 159.02 106.006" stroke="white" stroke-width="1.00574" stroke-linecap="round" stroke-linejoin="round"/>
<path d="M128.626 282.705C115.552 289.484 110.905 282.504 103.623 276.731C96.3418 270.958 101.119 260.639 99.6004 244.095C98.0817 227.55 101.863 199.409 101.863 199.409C101.863 199.409 105.122 198.665 114.164 193.134C123.205 187.602 142.234 179.174 142.234 179.174" stroke="#263238" stroke-width="1.00574" stroke-linecap="round" stroke-linejoin="round"/>
<path d="M141.581 257.662C141.581 257.662 139.509 251.095 133.655 250.924C127.802 250.753 118.569 253.388 111.992 265.829" stroke="#263238" stroke-width="1.00574" stroke-linecap="round" stroke-linejoin="round"/>
<path d="M132.317 250.53C131.954 250.506 131.597 250.421 131.261 250.279C126.436 248.543 121.198 248.304 116.235 249.595" stroke="#263238" stroke-width="1.00574" stroke-linecap="round" stroke-linejoin="round"/>
<path d="M112.867 208.391C123.518 220.158 128.708 235.727 133.626 250.813" stroke="#263238" stroke-width="1.00574" stroke-linecap="round" stroke-linejoin="round"/>
<path d="M185.241 176.579C185.241 176.579 204.551 181.185 213.985 182.282C223.419 183.378 224.947 184.695 224.947 184.695L226.708 191.273" stroke="#263238" stroke-width="1.00574" stroke-linecap="round" stroke-linejoin="round"/>
<path d="M275.224 188.023L209.458 190.548L204.087 258.184H215.352L272.458 245.401L279.639 189.643L275.224 188.023Z" fill="white"/>
<path d="M207.507 260.186L279.438 191.242L272.458 245.401L207.507 260.186Z" fill="#73CFF1"/>
<path opacity="0.7" d="M207.507 260.186L279.438 191.242L272.458 245.401L207.507 260.186Z" fill="white"/>
<path d="M207.507 258.376L213.26 193.133L279.639 189.644L272.458 245.402L207.507 258.376Z" stroke="#263238" stroke-width="1.00574" stroke-linecap="round" stroke-linejoin="round"/>
<path d="M251.659 221.254C251.217 225.227 249.095 228.244 246.922 228.002C244.75 227.761 243.362 224.331 243.804 220.359C244.247 216.386 246.379 213.369 248.551 213.61C250.724 213.852 252.112 217.281 251.659 221.254Z" fill="#263238"/>
<path d="M272.458 245.402C272.458 245.402 302.851 244.537 312.355 250.813C321.86 257.088 327.442 288.558 326.124 305.274C324.807 321.989 313.341 360.348 313.341 360.348L291.376 335.486C291.376 335.486 280.554 296.141 286.458 280.733C286.458 280.733 257.291 282.373 245.805 278.772C245.805 278.772 235.517 261.926 217.876 256.354L272.458 245.402Z" fill="#263238"/>
<path d="M317.978 361.002C310.176 353.719 303.17 345.627 297.078 336.864C286.448 320.44 271.754 304.68 256.637 292.38C244.458 282.504 241.702 266.412 226.676 258.335C201.784 244.989 180.261 271.511 172.215 276.881C164.169 282.252 150.24 288.337 150.24 288.337C150.24 288.337 155.329 307.446 170.274 309.709C185.219 311.972 200.336 301.663 207.487 306.641C214.637 311.62 219.928 333.847 243.543 346.871C262.843 357.512 289.143 367.891 302.71 374.891C305.728 376.46 307.981 378.109 309.69 379.045C314.377 381.599 319.386 384.607 324.113 387.584L340.396 397.5C340.396 397.5 356.739 387.835 363.015 378.924C363.85 377.727 365.589 374.539 367.219 371.461C370.769 364.733 375.265 358.699 381.49 355.37C385.795 353.046 389.627 352.352 389.536 352.111C389.124 351.347 381.319 347.354 376.019 349.536C364.795 354.173 342.357 371.984 331.766 370.657C326.84 367.937 322.218 364.7 317.978 361.002V361.002Z" stroke="#263238" stroke-width="1.00574" stroke-miterlimit="10"/>
<path d="M317.978 361.001C308.192 364.953 304.249 371.058 302.741 374.9C289.173 367.86 262.873 357.521 243.573 346.88C219.958 333.805 214.708 311.619 207.517 306.65C200.326 301.682 185.199 312.021 170.304 309.718C155.409 307.415 150.24 288.326 150.24 288.326C150.24 288.326 164.179 282.291 172.225 276.92C180.271 271.55 198.827 245.018 226.676 258.374C242.054 265.747 244.458 282.512 256.637 292.419C271.723 304.679 286.448 320.479 297.078 336.903C303.155 345.666 310.162 353.745 317.978 361.001Z" fill="#263238"/>
<path d="M244.438 275.735C244.438 275.735 236.905 260.428 224.826 257.461" stroke="white" stroke-width="1.00574" stroke-linecap="round" stroke-linejoin="round"/>
<path d="M204.952 245.261C196.645 243.451 187.523 252.633 183.681 250.913C180.825 249.636 176.128 257.199 176.128 257.199C168.397 258.315 160.579 258.709 152.775 258.376C141.581 257.662 136.28 259.844 132.318 265.829L126.786 280.482C126.786 280.482 141.379 293.557 156.958 285.943C172.537 278.33 193.236 255.359 207.497 255.439" stroke="#263238" stroke-width="1.00574" stroke-linecap="round" stroke-linejoin="round"/>
<path d="M320.924 385.593C320.924 385.593 334.562 386.709 331.364 370.416" stroke="#263238" stroke-width="1.00574" stroke-miterlimit="10"/>
<path d="M385.192 360.349C384.186 362.36 371.685 373.001 360.913 382.304C360.913 382.163 363.93 376.481 365.177 374.057C368.044 368.706 375.446 354.033 389.537 352.102C391.538 353.308 385.192 360.349 385.192 360.349Z" fill="#263238"/>
<path d="M379.831 348.893C365.579 351.729 362.341 370.013 357.282 377.788C352.223 385.562 338.173 396.132 338.173 396.132" stroke="#263238" stroke-width="1.00574" stroke-miterlimit="10"/>
<path d="M330.489 391.467C332.812 395.711 331.716 400.639 330.489 403.727C329.888 405.26 329.14 406.732 328.256 408.122C308.081 404.803 287.906 393.961 287.906 393.961L282.706 377.869L281.872 375.294L289.706 364.744" stroke="#263238" stroke-width="1.00574" stroke-miterlimit="10"/>
<path d="M330.489 403.727C329.888 405.26 329.14 406.732 328.256 408.122C308.081 404.803 287.906 393.961 287.906 393.961L282.706 377.869C285.311 381.269 290.138 386.247 297.38 388.289C307.206 391.075 325.34 394.333 330.489 403.727Z" fill="#263238"/>
<path d="M204.087 255.831L209.458 190.548L275.224 188.023L279.639 189.643" stroke="#263238" stroke-width="1.00574" stroke-linecap="round" stroke-linejoin="round"/>
<path d="M331.273 377.789C331.273 377.789 340.265 379.398 347.174 373.766C354.084 368.133 365.217 355.391 365.217 355.391" stroke="#263238" stroke-width="1.00574" stroke-miterlimit="10"/>
<path d="M340.426 369.682C340.426 369.682 338.254 372.95 340.426 379.508" stroke="#263238" stroke-width="1.00574" stroke-linecap="round" stroke-linejoin="round"/>
<path d="M346.802 366.555C345.814 369.814 346.105 373.328 347.617 376.381" stroke="#263238" stroke-width="1.00574" stroke-linecap="round" stroke-linejoin="round"/>
<path d="M354.406 362.148C354.406 362.148 352.585 367.61 354.406 372.427" stroke="#263238" stroke-width="1.00574" stroke-linecap="round" stroke-linejoin="round"/>
<path d="M291.487 363.385L284.276 372.064C284.276 372.064 291.537 380 301.786 383.299C312.034 386.597 330.339 392.199 331.858 398.163" stroke="#263238" stroke-width="1.00574" stroke-miterlimit="10"/>
</svg>
