<svg width="321" height="301" viewBox="0 0 321 301" fill="none" xmlns="http://www.w3.org/2000/svg">
<g opacity="0.1">
<path d="M106.941 -89.9048C91.7553 -64.975 81.8151 -36.857 77.9543 -7.91262C75.5658 9.99428 76.4038 30.5314 89.5674 42.885C99.4325 52.1452 113.975 54.4488 127.487 53.9511C141 53.4534 154.436 50.6094 167.934 51.404C181.431 52.1996 195.725 57.5352 202.573 69.2109C209.053 80.2593 207.44 94.0229 206.645 106.812C205.852 119.602 206.806 134.12 216.445 142.548C230.096 154.481 252.338 147.107 268.43 155.451C283.692 163.365 289.89 183.554 305.616 190.497C318.761 196.302 333.891 190.908 347.185 185.458C361.044 179.776 374.875 174.025 388.676 168.204" stroke="#0BB8E4" stroke-width="2.3"/>
<path d="M122.801 -106.401C107.938 -82.0519 98.2076 -54.5908 94.4279 -26.3212C92.0904 -8.83182 92.9105 11.2263 105.796 23.2925C115.451 32.3361 129.686 34.5867 142.913 34.0994C156.138 33.6141 169.291 30.8358 182.504 31.6127C195.716 32.3895 209.707 37.6012 216.409 49.0032C222.753 59.7953 221.173 73.2372 220.396 85.7284C219.619 98.2195 220.552 112.399 229.988 120.63C243.35 132.286 265.122 125.084 280.873 133.233C295.812 140.962 301.878 160.68 317.272 167.462C330.138 173.13 344.948 167.863 357.962 162.54C371.527 156.99 385.065 151.374 398.574 145.688" stroke="#0BB8E4" stroke-width="2.3"/>
<path d="M137.836 -122.896C123.293 -99.0562 113.774 -72.1691 110.077 -44.4899C107.789 -27.3659 108.592 -7.72683 121.198 4.08689C130.646 12.941 144.573 15.1441 157.513 14.6678C170.454 14.1916 183.321 11.4726 196.248 12.233C209.175 12.9935 222.862 18.0958 229.421 29.26C235.627 39.8261 234.081 52.9874 233.321 65.218C232.561 77.4476 233.474 91.3308 242.706 99.3898C255.779 110.802 277.079 103.75 292.49 111.73C307.106 119.298 313.042 138.603 328.102 145.244C340.69 150.793 355.18 145.636 367.912 140.424C381.184 134.99 394.429 129.491 407.646 123.924" stroke="#0BB8E4" stroke-width="2.3"/>
<path d="M153.617 -139.393C139.435 -116.134 130.154 -89.9022 126.547 -62.8987C124.316 -46.1922 125.099 -27.0322 137.392 -15.5069C146.605 -6.86832 160.185 -4.71833 172.803 -5.18314C185.422 -5.64795 197.97 -8.30132 210.576 -7.55861C223.181 -6.8169 236.528 -1.83948 242.923 9.0529C248.976 19.3618 247.469 32.2014 246.727 44.1332C245.986 56.066 246.877 69.6097 255.878 77.4719C268.626 88.6056 289.398 81.7264 304.425 89.5105C318.678 96.8941 324.464 115.729 339.152 122.207C351.427 127.622 365.557 122.59 377.972 117.506C390.914 112.205 403.83 106.839 416.718 101.408" stroke="#0BB8E4" stroke-width="2.3"/>
<path d="M168.653 -156.713C154.793 -133.963 145.721 -108.306 142.197 -81.892C140.016 -65.5518 140.782 -46.8109 152.796 -35.537C161.8 -27.088 175.072 -24.9854 187.405 -25.4402C199.738 -25.894 212.002 -28.489 224.321 -27.7637C236.64 -27.0374 249.686 -22.1684 255.936 -11.5148C261.851 -1.43187 260.378 11.1272 259.653 22.7984C258.929 34.4696 259.8 47.7173 268.597 55.4083C281.057 66.2978 301.357 59.5689 316.044 67.1826C329.974 74.4049 335.63 92.8278 349.984 99.1643C361.98 104.46 375.79 99.5389 387.924 94.5658C400.573 89.3807 413.197 84.1321 425.792 78.8202" stroke="#0BB8E4" stroke-width="2.3"/>
<path d="M184.434 -173.209C170.936 -151.041 162.1 -126.038 158.668 -100.301C156.545 -84.377 157.29 -66.116 168.99 -55.1305C177.76 -46.8971 190.686 -44.8486 202.696 -45.2909C214.709 -45.7333 226.651 -48.2627 238.65 -47.5551C250.647 -46.8476 263.353 -42.1035 269.44 -31.7216C275.201 -21.8969 273.766 -9.6576 273.06 1.71482C272.355 13.0873 273.202 25.9965 281.77 33.4907C293.904 44.1022 313.675 37.5451 327.979 44.9651C341.546 52.0021 347.054 69.9533 361.034 76.1284C372.718 81.2892 386.167 76.4936 397.985 71.6475C410.303 66.5947 422.597 61.4804 434.865 56.3039" stroke="#0BB8E4" stroke-width="2.3"/>
<path d="M200.294 -189.705C187.117 -168.118 178.491 -143.772 175.14 -118.709C173.068 -103.203 173.795 -85.4211 185.218 -74.723C193.778 -66.7061 206.397 -64.7108 218.121 -65.1417C229.846 -65.5736 241.505 -68.0354 253.218 -67.3465C264.93 -66.6577 277.333 -62.0375 283.275 -51.9285C288.899 -42.361 287.498 -30.4444 286.81 -19.3697C286.12 -8.29514 286.947 4.27571 295.312 11.5731C307.158 21.9065 326.457 15.5213 340.421 22.7466C353.665 29.5993 359.042 47.0799 372.688 53.0925C384.094 58.1179 397.222 53.4483 408.759 48.7293C420.784 43.8097 432.785 38.8288 444.762 33.7886" stroke="#0BB8E4" stroke-width="2.3"/>
<path d="M215.328 -206.201C202.474 -185.123 194.058 -161.35 190.789 -136.878C188.767 -121.738 189.477 -104.374 200.62 -93.9294C208.972 -86.1011 221.282 -84.1522 232.721 -84.574C244.16 -84.9939 255.535 -87.3994 266.962 -86.726C278.389 -86.0535 290.489 -81.5427 296.286 -71.6714C301.773 -62.3299 300.406 -50.6939 299.734 -39.8798C299.063 -29.0667 299.87 -16.792 308.03 -9.66676C319.587 0.423404 338.415 -5.81152 352.038 1.24338C364.959 7.93384 370.205 25.0036 383.518 30.8741C394.646 35.7811 407.455 31.2217 418.711 26.6139C430.443 21.8099 442.15 16.9466 453.834 12.0248" stroke="#0BB8E4" stroke-width="2.3"/>
<path d="M231.11 -222.697C218.615 -202.2 210.437 -179.083 207.261 -155.286C205.295 -140.564 205.985 -123.679 216.815 -113.522C224.932 -105.909 236.896 -104.015 248.013 -104.425C259.131 -104.834 270.185 -107.172 281.291 -106.518C292.397 -105.864 304.156 -101.478 309.79 -91.8782C315.123 -82.7949 313.795 -71.4786 313.142 -60.9644C312.488 -50.4491 313.273 -38.5128 321.204 -31.5843C332.435 -21.7722 350.735 -27.8353 363.974 -20.9751C376.531 -14.468 381.63 2.1292 394.569 7.83828C405.384 12.6099 417.832 8.1765 428.771 3.69468C440.173 -0.976024 451.552 -5.70507 462.907 -10.4905" stroke="#0BB8E4" stroke-width="2.3"/>
</g>
</svg>
