<svg width="50" height="75" viewBox="0 0 50 75" fill="none" xmlns="http://www.w3.org/2000/svg">
<path d="M22.1607 10.2528C21.4332 9.008 19.8381 8.24804 18.4213 8.70739C17.6447 8.95931 16.9917 9.64661 16.9054 10.4587C16.578 13.5423 22.3034 11.953 22.2267 15.1027C22.2134 15.6435 21.9215 16.1563 21.5045 16.501C21.0875 16.8457 20.5564 17.0328 20.0198 17.1011C18.6742 17.2719 17.303 16.6857 16.4648 15.6283M19.3461 19.2142V17.1241M19.3461 8.57377V6.48828" stroke="#00C0F3" stroke-width="2.30826" stroke-linecap="round" stroke-linejoin="round"/>
<path d="M30.1987 12.8513C30.1987 18.8444 25.3404 23.7026 19.3474 23.7026C13.3544 23.7026 8.49609 18.8444 8.49609 12.8513C8.49609 6.85827 13.3544 2 19.3474 2C25.3404 2 30.1987 6.85827 30.1987 12.8513V12.8513Z" stroke="#005E9E" stroke-width="2.30826" stroke-linecap="round" stroke-linejoin="round"/>
<path d="M24.9923 43.723V43.4924C24.9924 36.6728 24.0632 29.8851 22.2305 23.3164C22.2305 23.3164 22.2305 23.3164 22.2305 23.3164" stroke="#005E9E" stroke-width="2.30826" stroke-linecap="round" stroke-linejoin="round"/>
<path d="M16.7621 36.7785C24.1087 38.6487 24.9894 44.6484 24.9894 44.6484M10.7373 30.4221C13.7194 31.5688 15.8507 33.9679 16.7621 36.7875C14.1972 38.2714 11.0074 38.6243 8.02429 37.4771C5.04215 36.3304 2.91103 33.9311 2 31.1106C4.56573 29.6282 7.75512 29.2755 10.7373 30.4221Z" stroke="#005E9E" stroke-width="2.30826" stroke-linecap="round" stroke-linejoin="round"/>
<path d="M24.9909 44.6492C24.9909 44.6492 24.2093 37.8826 32.8716 33.5185M41.9984 31.434C39.3249 33.5559 35.9607 34.2156 32.8716 33.5245C32.8979 30.3589 34.3037 27.2322 36.9782 25.1093C39.6516 22.9874 43.0159 22.3277 46.1058 23.0198C46.0776 26.1852 44.6719 29.3121 41.9984 31.434V31.434Z" stroke="#005E9E" stroke-width="2.30826" stroke-linecap="round" stroke-linejoin="round"/>
<path d="M23.2512 66.0161H33.3265C33.9367 66.0161 34.4344 65.5165 34.434 64.9063C34.4343 64.4409 34.3426 63.98 34.1643 63.5501C33.9861 63.1201 33.7247 62.7296 33.3951 62.401C33.0662 62.0712 32.6754 61.8096 32.2451 61.6313C31.8148 61.453 31.3535 61.3615 30.8877 61.362H22.4102C21.1127 61.362 19.8191 61.2075 18.5611 60.89C14.3482 59.827 9.41951 60.5927 3.07812 62.7418V70.8363H4.35457C8.47761 70.8363 12.5903 71.2517 16.63 72.0765L23.5149 73.4821C26.3967 74.0705 29.3939 73.6014 31.9582 72.1608L47.3791 61.983C47.5214 61.9073 47.6464 61.803 47.7463 61.6766C47.8463 61.5502 47.919 61.4044 47.9598 61.2485C48.0358 60.962 47.9998 60.6572 47.8591 60.3962C46.951 58.7022 44.8415 58.0638 43.1468 58.9717L34.4191 64.5813M37.0828 50.5548H12.8928V44.6484H37.0828V50.5548ZM35.4808 50.5544L33.9337 63.0927L35.4808 50.5544ZM15.7111 60.4508L14.4937 50.5544L15.7111 60.4508Z" stroke="#005E9E" stroke-width="2.30826" stroke-linecap="round" stroke-linejoin="round"/>
</svg>
