<svg width="58" height="59" viewBox="0 0 58 59" fill="none" xmlns="http://www.w3.org/2000/svg">
<path d="M20.0347 45.8551L22.3037 34.2148M13.916 40.2668C15.7591 44.5391 21.7894 47.6722 28.9422 47.6722C36.095 47.6722 42.1252 44.5391 43.9684 40.2668H13.916ZM35.5806 34.2148L37.8497 45.8551L35.5806 34.2148Z" stroke="#11CDFF" stroke-width="1.61824" stroke-linecap="round" stroke-linejoin="round"/>
<path d="M18.3413 34.2148H39.5434V33.5833C39.5434 31.3999 37.7732 29.6298 35.5898 29.6298H21.8292L19.4386 14.041C19.0917 11.7789 16.9775 10.227 14.7168 10.5739L18.3399 34.2051M18.3413 34.2148L18.3399 34.2051M18.3413 34.2148H18.3399V34.2051M17.1512 26.4674L25.0325 24.328L32.9138 22.1887M32.9138 22.1887C33.8593 21.9321 34.8569 21.9387 35.7988 22.2078M32.9138 22.1887L32.1891 34.2151M25.8181 24.1148L27.0287 34.2151" stroke="white" stroke-width="1.61824" stroke-linecap="round" stroke-linejoin="round"/>
</svg>
