<svg width="200" height="200" viewBox="0 0 200 200" fill="none" xmlns="http://www.w3.org/2000/svg">
<circle cx="102" cy="102" r="98" fill="#DBF5FF"/>
<circle cx="102" cy="102" r="98" stroke="#9A9494"/>
<mask id="mask0_211_36377" style="mask-type:alpha" maskUnits="userSpaceOnUse" x="0" y="0" width="200" height="200">
<circle cx="100" cy="100" r="100" fill="#C4C4C4"/>
</mask>
<g mask="url(#mask0_211_36377)">
<path d="M72.9159 142.386C72.9159 142.386 68.3749 162.276 68.1932 171.63C68.0116 180.985 68.5305 214.699 68.7057 221.932C68.8808 229.165 72.0596 252.642 72.0596 254.757C72.0596 256.872 72.5915 260.932 72.5915 260.932L71.1773 268.522C69.7934 269.592 68.3171 270.536 66.766 271.344C63.5873 273.109 59.8832 275.405 58.8258 276.638C58.6969 276.786 58.6056 276.963 58.5596 277.154C58.5135 277.345 58.514 277.545 58.5611 277.735C58.6081 277.926 58.7003 278.103 58.8299 278.251C58.9596 278.398 59.1228 278.513 59.3058 278.584C60.5639 279.077 61.8893 279.377 63.237 279.473C66.2341 279.648 71.1773 279.648 73.8241 278.941C76.4708 278.234 78.5921 275.944 79.8247 275.049L81.0637 274.166L81.2389 276.112C81.833 276.025 82.422 275.906 83.0034 275.756C84.2986 275.383 85.5427 274.851 86.7076 274.173C86.7076 274.173 86.8827 271.169 86.8827 269.405C86.8827 267.64 86.0005 264.462 85.8253 263.761C85.6501 263.06 85.8253 256.696 85.2998 254.582C84.7744 252.467 84.4176 252.992 84.0608 249.113C83.704 245.234 86.8827 208.516 86.7076 207.459C86.5324 206.401 91.1967 174.595 91.1967 174.595C91.1967 174.595 100.117 216.113 102.938 224.059C105.76 232.006 107.175 247.355 107.175 248.419C107.175 249.483 108.764 262.003 109.471 263.774C110.178 265.545 112.118 271.007 112.118 271.007C112.118 271.007 114.94 275.243 116.172 277.358C117.405 279.473 121.647 281.25 124.82 281.769C127.992 282.288 130.47 282.476 130.658 278.24C130.846 274.004 129.25 271.182 126.597 269.243C123.944 267.303 123.425 265.538 123.425 265.538C123.617 262.947 123.617 260.345 123.425 257.754C123.068 254.75 121.128 252.454 120.953 246.278C120.778 240.102 119.539 207.628 118.482 202.509C117.424 197.391 116.03 163.152 116.205 158.396C116.38 153.641 115.757 140.356 115.757 140.356L72.7861 139.869L72.9159 142.386Z" fill="#263238" stroke="#263238" stroke-width="0.56383" stroke-miterlimit="10"/>
<path d="M89.7822 71.2803C89.7822 71.2803 83.2236 75.1726 78.5788 77.469C73.934 79.7655 68.2643 81.1018 67.6869 82.4057C67.1095 83.7097 57.0869 105.065 55.1991 107.965C53.3114 110.865 48.8093 116.535 49.6785 119.726C50.5478 122.918 54.1806 127.277 56.503 126.992C58.8254 126.707 63.4767 125.39 65.3645 122.055C67.2523 118.721 71.7543 107.965 71.7543 107.965C71.7543 107.965 72.4809 117.988 72.3317 122.925C72.1825 127.861 72.189 131.929 71.8971 134.394C71.6051 136.859 70.3012 139.914 70.8786 140.784C71.4559 141.653 72.176 142.529 72.9155 142.386C73.6551 142.243 84.534 142.094 87.836 142.237C91.138 142.38 106.279 142.237 109.477 142.386C112.675 142.535 115.432 140.933 115.718 140.349C116.003 139.765 116.594 138.896 116.302 135.704C116.01 132.513 116.594 122.782 117.463 119.006C118.332 115.231 123.561 100.706 123.561 100.706C123.561 100.706 137.359 111.598 140.265 112.467C143.171 113.337 151.008 112.033 153.622 108.841C156.237 105.649 157.106 103.171 155.51 100.998C153.914 98.8247 148.102 96.7878 142.004 90.2487C135.906 83.7097 133.57 80.6672 129.373 78.6302C125.176 76.5933 116.594 73.8427 114.557 72.9669C112.52 72.0912 111.962 71.6695 110.664 71.0792C109.367 70.4888 106.305 69.3406 100.642 69.1914C96.922 69.192 93.2366 69.9009 89.7822 71.2803V71.2803Z" fill="#91D2FF" stroke="#263238" stroke-width="0.56383" stroke-miterlimit="10"/>
<path d="M68.8219 97.6758C69.023 98.3764 71.7476 107.964 71.7476 107.964L67.7256 99.9917" stroke="#263238" stroke-width="0.56383" stroke-miterlimit="10"/>
<path d="M123.586 100.708C122.983 100.708 117.274 97.4648 117.274 97.4648" stroke="#263238" stroke-width="0.56383" stroke-miterlimit="10"/>
<path d="M114.368 97.0801C114.368 97.0801 116.671 100.084 118.676 100.68" stroke="#263238" stroke-width="0.56383" stroke-miterlimit="10"/>
<path d="M88.9649 80.188L90.7878 87.0709C90.7878 87.0709 85.0142 115.932 84.106 120.804C83.553 123.748 83.1803 126.722 82.9902 129.711L88.0502 139.734L94.4336 128.9C94.4336 128.9 93.8238 115.232 93.6227 104.301C93.4216 93.3699 93.8238 88.0829 93.72 87.7974C93.6162 87.512 100.103 82.731 100.103 82.731C100.103 82.731 103.846 78.5792 104.048 77.8721C104.249 77.165 101.42 78.0732 100.804 78.683C100.114 79.2666 99.297 79.6804 98.4182 79.8911C97.5394 80.1018 96.6235 80.1035 95.744 79.8961C93.1102 79.3901 89.6655 76.4579 89.1595 77.8721C88.8566 78.6053 88.7886 79.4145 88.9649 80.188V80.188Z" fill="white" stroke="#263238" stroke-width="0.56383" stroke-miterlimit="10"/>
<path d="M93.3178 68.4463C93.0129 68.6475 90.5867 69.2573 89.7758 71.2812C88.9649 73.3052 84.8131 82.6208 83.6 84.1388C82.3869 85.6568 84.3071 85.047 85.9289 84.035C87.5507 83.023 88.9649 79.0788 89.8731 80.7914C90.7813 82.504 93.4216 83.2176 93.4216 83.2176C93.4216 83.2176 98.8838 82.2056 100.103 81.3947C100.934 80.8146 101.714 80.1635 102.432 79.4486C102.432 79.4486 107.09 86.4352 108.4 87.0385C109.711 87.6419 109.925 86.6363 110.022 85.5206C110.502 81.4533 111.281 77.4269 112.351 73.4739C113.649 69.121 111.138 67.7003 109.516 65.8839C107.894 64.0675 106.072 65.2741 104.255 65.4752C102.439 65.6763 93.3178 68.4463 93.3178 68.4463Z" fill="#91D2FF" stroke="#263238" stroke-width="0.56383" stroke-miterlimit="10"/>
<path d="M90.5404 37.2682C90.5404 37.2682 87.3747 42.0752 87.9455 43.2428C88.5164 44.4105 88.5294 45.9415 87.9455 46.7589C87.5045 47.2963 87.1822 47.9209 87 48.5918C86.8177 49.2627 86.7796 49.9645 86.8881 50.6512C87.1217 52.6427 85.954 62.7173 87.712 63.8915C88.8424 64.6269 90.0607 65.2175 91.3383 65.6495C91.3383 65.6495 93.3299 82.5161 94.037 82.049C94.7441 81.582 104.832 71.2479 105.999 69.0163C107.167 66.7847 108.594 63.632 108.594 63.632C108.594 63.632 112.577 56.0161 114.919 52.8503C117.261 49.6846 119.96 43.8332 119.142 40.7842C118.325 37.7353 114.102 35.5102 112.11 33.8689C110.119 32.2277 111.41 28.4846 108.594 26.6098C105.779 24.735 102.386 24.2679 100.161 25.0853C97.9358 25.9027 97.819 27.6802 95.1203 25.9027C92.4217 24.1252 89.8527 22.3931 85.7529 24.3847C81.653 26.3762 80.8291 33.4018 83.2878 35.2766C85.7464 37.1514 90.5404 37.2682 90.5404 37.2682Z" fill="white" stroke="#263238" stroke-width="0.56383" stroke-miterlimit="10"/>
<path d="M112.097 33.8689C110.106 32.2341 111.397 28.4846 108.581 26.6098C105.766 24.735 102.373 24.2679 100.148 25.0853C97.9231 25.9027 97.8063 27.6802 95.1076 25.9027C92.409 24.1252 89.8401 22.3931 85.7402 24.3847C81.6403 26.3762 80.8164 33.4018 83.2751 35.2766C85.7337 37.1514 90.5407 37.2682 90.5407 37.2682C90.5407 37.2682 94.0567 35.6269 96.3791 34.3425C98.7015 33.058 103.995 35.1599 104.929 35.9837C105.863 36.8076 104.462 36.2173 104.229 37.7353C103.995 39.2533 106.921 41.7249 108.212 42.925C109.503 44.1251 107.978 44.9165 107.628 46.441C107.278 47.9655 108.679 48.5494 109.503 47.9655C110.326 47.3817 112.895 44.0732 113.836 45.974C114.777 47.8747 116.178 50.6577 113.603 52.6492C111.027 54.6408 109.146 54.1737 109.146 54.1737C109.146 54.1737 108.309 59.2467 110.742 59.6424C112.005 57.3184 113.388 55.0621 114.887 52.8828C117.235 49.7235 119.927 43.8656 119.11 40.8167C118.293 37.7677 114.089 35.5102 112.097 33.8689Z" fill="#263238" stroke="#263238" stroke-width="0.56383" stroke-miterlimit="10"/>
<path d="M96.8662 43.4759C97.6138 43.1969 98.4115 43.0776 99.2081 43.1256" stroke="#263238" stroke-width="0.375886" stroke-miterlimit="10"/>
<path d="M90.8716 44.6328C90.2935 44.7552 89.7347 44.956 89.2109 45.2296" stroke="#263238" stroke-width="0.375886" stroke-miterlimit="10"/>
<path d="M90.9113 41.4336C91.3278 42.2311 91.4496 43.15 91.2551 44.0285C90.8724 45.3259 87.246 48.1608 87.2914 48.7122C87.3368 49.2636 89.4192 50.4183 89.3803 50.8854C89.3414 51.3525 89.2116 52.1244 89.2116 52.1244" stroke="#263238" stroke-width="0.56383" stroke-miterlimit="10"/>
<path d="M98.8387 45.0981C99.2615 45.0981 99.6042 44.6769 99.6042 44.1574C99.6042 43.6379 99.2615 43.2168 98.8387 43.2168C98.416 43.2168 98.0732 43.6379 98.0732 44.1574C98.0732 44.6769 98.416 45.0981 98.8387 45.0981Z" fill="#263238" stroke="#263238" stroke-width="0.375886" stroke-miterlimit="10"/>
<path d="M97.3457 45.6953C98.3757 45.2641 99.4737 45.0181 100.589 44.9688" stroke="#263238" stroke-width="0.56383" stroke-miterlimit="10"/>
<path d="M94.6406 40.0526C94.6406 40.0526 97.1511 37.7237 99.0973 38.1908C101.043 38.6579 101.783 40.5327 101.472 40.5392C101.16 40.5457 100.174 39.099 99.1103 38.9887C98.0464 38.8785 97.2874 39.3845 96.3662 39.8515C95.445 40.3186 94.8806 40.643 94.6406 40.0526Z" fill="#263238" stroke="#263238" stroke-width="0.375886" stroke-miterlimit="10"/>
<path d="M91.0797 41.9008C91.0508 41.7424 90.9889 41.592 90.898 41.4591C90.8072 41.3263 90.6895 41.214 90.5525 41.1296C90.4154 41.0452 90.2622 40.9905 90.1027 40.9692C89.9432 40.9478 89.781 40.9602 89.6266 41.0055C88.4783 41.1807 87.6091 43.2695 87.9594 43.2436C88.3097 43.2177 88.6924 41.9008 89.5876 41.7775C90.4829 41.6542 91.0797 43.0555 91.0797 41.9008Z" fill="#263238" stroke="#263238" stroke-width="0.375886" stroke-miterlimit="10"/>
<path d="M89.1328 54.7704C89.1328 54.7704 90.9687 54.5563 93.3559 54.2579C95.7432 53.9595 99.1036 53.4924 99.6615 51.7863C99.9795 50.9596 100.123 50.0762 100.083 49.1914" stroke="#263238" stroke-width="0.56383" stroke-miterlimit="10"/>
<path d="M98.793 49.0614C99.4919 49.0043 100.195 49.048 100.882 49.1912" stroke="#263238" stroke-width="0.56383" stroke-miterlimit="10"/>
<path d="M108.627 57.4824C108.291 59.0638 107.363 60.4566 106.032 61.3747C103.904 62.7305 88.2769 64.281 88.7958 64.4756C89.3148 64.6702 91.3453 65.6433 91.3453 65.6433L91.9551 71.1898C94.4162 69.011 97.1536 67.1658 100.096 65.7017C105.273 63.016 108.504 62.1272 108.627 57.4824Z" fill="#263238" stroke="#263238" stroke-width="0.375886" stroke-miterlimit="10"/>
<path d="M117.346 133.234C117.346 133.234 114.439 133.091 113.713 132.949C112.986 132.806 110.664 130.62 109.645 130.769C108.627 130.918 106.746 132.949 106.019 134.661C105.292 136.374 105.001 137.256 105.001 137.256C105.001 137.256 102.406 139.579 103.703 141.148C105.001 142.718 106.467 142.167 106.467 142.167C106.467 142.167 107.336 143.62 108.497 143.763C109.359 143.858 110.225 143.908 111.092 143.912C111.844 144.142 112.629 144.241 113.414 144.204C114.035 144.068 114.626 143.822 115.159 143.477C115.776 143.549 116.397 143.392 116.904 143.036C117.436 142.615 120.012 139.981 121.342 138.625L122.127 137.814L117.346 133.234Z" fill="white" stroke="#263238" stroke-width="0.56383" stroke-miterlimit="10"/>
<path d="M141.595 103.32C141.595 103.32 136.223 109.275 134.459 112.175C131.647 116.599 128.593 120.866 125.312 124.954C123.281 127.277 116.165 132.946 116.165 132.946C116.165 132.946 118.338 137.591 119.941 138.318C120.873 138.747 121.844 139.086 122.84 139.33L128.679 134.977C128.679 134.977 139.707 126.544 145.545 121.763C151.384 116.981 159.486 110.579 160.07 107.822C160.654 105.065 160.213 103.611 157.313 101.432C155.508 100.096 153.497 99.0659 151.358 98.3828" fill="#91D2FF"/>
<path d="M141.595 103.32C141.595 103.32 136.223 109.275 134.459 112.175C131.647 116.599 128.593 120.866 125.312 124.954C123.281 127.277 116.165 132.946 116.165 132.946C116.165 132.946 118.338 137.591 119.941 138.318C120.873 138.747 121.844 139.086 122.84 139.33L128.679 134.977C128.679 134.977 139.707 126.544 145.545 121.763C151.384 116.981 159.486 110.579 160.07 107.822C160.654 105.065 160.213 103.611 157.313 101.432C155.508 100.096 153.497 99.0659 151.358 98.3828" stroke="#263238" stroke-width="0.56383" stroke-miterlimit="10"/>
<path d="M120.688 129.312C120.688 129.312 121.985 135.702 126.493 135.702" stroke="#263238" stroke-width="0.56383" stroke-miterlimit="10"/>
<path d="M57.4111 82.2614C57.4111 82.2614 58.008 87.3668 58.3129 89.6698C58.3998 90.8303 58.7409 91.9576 59.3119 92.9717C59.3119 92.9717 54.6087 103.481 54.4076 103.786C54.2065 104.091 49.3022 113.296 48.4978 114.392C47.6934 115.489 45.7991 118.998 46.9992 121.204C48.1994 123.409 50.1001 127.912 52.6042 128.009C55.1082 128.106 58.6113 126.608 61.0375 125.206C63.4637 123.805 64.2421 122.903 64.4432 118.901C64.6443 114.898 64.5405 107.691 65.2476 103.883C65.9547 100.075 66.4477 96.0986 66.9473 94.5741C67.4468 93.0496 70.353 93.575 71.352 92.9717C72.3511 92.3684 73.2528 91.071 75.0562 90.2666C76.6203 89.6719 78.3213 89.5347 79.9605 89.8709C80.5638 90.072 81.6601 89.1703 81.3617 88.0674C81.0633 86.9646 79.0588 86.3678 77.0543 86.5624C75.0497 86.757 73.2528 87.3668 72.7533 87.0684C72.2538 86.77 71.7542 81.457 71.7542 81.457C71.7542 81.457 64.6184 82.0603 62.1403 82.1576C59.6622 82.255 57.4111 82.2614 57.4111 82.2614Z" fill="white" stroke="#263238" stroke-width="0.56383" stroke-miterlimit="10"/>
<path d="M68.4199 78.359C68.4199 78.359 68.5237 84.9694 68.5237 85.5662C68.525 85.7054 68.555 85.8429 68.6119 85.97C68.6687 86.097 68.7511 86.211 68.854 86.3048C68.9569 86.3986 69.0781 86.4701 69.2099 86.5149C69.3417 86.5597 69.4813 86.5769 69.62 86.5653C70.126 86.468 71.4235 86.9675 71.7284 85.4689C72.0333 83.9704 72.6236 79.7602 72.3252 78.7612C72.0268 77.7622 69.3216 77.36 68.4199 78.359Z" fill="white" stroke="#263238" stroke-width="0.56383" stroke-miterlimit="10"/>
<path d="M68.4206 78.3574C68.4206 78.3574 65.2224 77.5594 64.3207 78.059C63.419 78.5585 64.8202 85.6684 64.9175 86.2652C65.0148 86.862 66.4225 87.1669 67.0193 86.9658C67.6162 86.7647 68.5244 86.369 68.5244 85.5646C68.5244 84.7602 68.4206 78.3574 68.4206 78.3574Z" fill="white" stroke="#263238" stroke-width="0.56383" stroke-miterlimit="10"/>
<path d="M63.6194 78.261C63.6194 78.261 61.5176 77.8588 60.9143 78.5594C60.311 79.26 60.1163 80.2591 60.311 82.0625C60.5756 83.8374 61.1163 85.56 61.9133 87.1679C62.3155 87.7712 63.6194 87.8685 64.4173 87.5701C65.2152 87.2717 64.9168 86.2727 64.9168 86.2727C64.9168 86.2727 64.5146 85.8705 64.4173 82.7696C64.32 79.6687 64.32 78.0664 64.32 78.0664L63.6194 78.261Z" fill="white" stroke="#263238" stroke-width="0.56383" stroke-miterlimit="10"/>
<path d="M60.1164 79.4609C59.7142 79.5582 57.2101 79.662 57.1128 80.6611C57.0155 81.6601 57.9107 86.3698 58.3129 86.8693C58.7151 87.3688 59.8115 87.1677 60.2137 86.9666C60.6159 86.7655 61.3165 86.4671 61.2127 85.8638C61.1089 85.2605 60.1164 79.4609 60.1164 79.4609Z" fill="white" stroke="#263238" stroke-width="0.56383" stroke-miterlimit="10"/>
<path d="M60.9143 99.2804C60.1952 99.1659 59.5182 98.8665 58.9496 98.4116C58.381 97.9567 57.9403 97.362 57.6707 96.6855C56.2954 99.7475 54.5439 103.62 54.4271 103.821C54.226 104.12 49.3217 113.332 48.5173 114.428C47.7129 115.524 45.8187 119.034 47.0188 121.239C48.2189 123.445 50.1196 127.947 52.6237 128.044C55.1277 128.142 58.6308 126.643 61.057 125.242C63.4832 123.841 64.2616 122.939 64.4627 118.937C64.6638 114.934 64.5601 107.727 65.2672 103.919C65.6045 102.05 65.9159 100.143 66.1754 98.4955C64.4861 99.0835 62.7016 99.3497 60.9143 99.2804V99.2804Z" fill="#91D2FF" stroke="#263238" stroke-width="0.56383" stroke-miterlimit="10"/>
<path d="M65.5205 88.2695C65.5205 88.2695 63.8143 89.7681 63.6197 91.072C63.5185 91.9052 63.694 92.7486 64.1192 93.4722" fill="white"/>
<path d="M65.5205 88.2695C65.5205 88.2695 63.8143 89.7681 63.6197 91.072C63.5185 91.9052 63.694 92.7486 64.1192 93.4722" stroke="#263238" stroke-width="0.56383" stroke-miterlimit="10"/>
</g>
</svg>
