<svg width="25" height="22" viewBox="0 0 25 22" fill="none" xmlns="http://www.w3.org/2000/svg">
<path fill-rule="evenodd" clip-rule="evenodd" d="M20.4902 9.8418H1.7C1.03726 9.8418 0.499998 10.4073 0.499998 11.105C0.499998 11.8026 1.03726 12.3681 1.7 12.3681H20.4907L14.6988 19.1253C14.2448 19.655 14.3062 20.4524 14.8358 20.9065C15.3655 21.3605 16.1629 21.2991 16.617 20.7694L24.0714 12.0725C24.331 11.843 24.4968 11.5 24.5 11.1161C24.5 11.1124 24.5 11.1087 24.5 11.105C24.5 10.7154 24.3325 10.367 24.0691 10.1353L16.617 1.44113C16.1629 0.911454 15.3655 0.850113 14.8358 1.30412C14.3062 1.75813 14.2448 2.55556 14.6988 3.08523L20.4902 9.8418Z" fill="#275FA8"/>
<path d="M20.4902 9.8418L20.68 9.6791L21.0337 10.0918H20.4902V9.8418ZM20.4907 12.3681V12.1181H21.0343L20.6806 12.5308L20.4907 12.3681ZM14.6988 19.1253L14.509 18.9626V18.9626L14.6988 19.1253ZM14.8358 20.9065L14.9985 20.7166L14.8358 20.9065ZM16.617 20.7694L16.8068 20.9321L16.617 20.7694ZM24.0714 12.0725L23.8816 11.9098L23.8929 11.8967L23.9058 11.8853L24.0714 12.0725ZM24.5 11.1161L24.7499 11.1181L24.5 11.1161ZM24.0691 10.1353L23.904 10.323L23.8908 10.3114L23.8793 10.298L24.0691 10.1353ZM16.617 1.44113L16.8068 1.27843V1.27843L16.617 1.44113ZM14.8358 1.30412L14.9985 1.49393L14.8358 1.30412ZM14.6988 3.08523L14.509 3.24793L14.6988 3.08523ZM20.4902 10.0918H1.7V9.5918H20.4902V10.0918ZM1.7 10.0918C1.18726 10.0918 0.749998 10.5332 0.749998 11.105H0.249998C0.249998 10.2815 0.887257 9.5918 1.7 9.5918V10.0918ZM0.749998 11.105C0.749998 11.6767 1.18726 12.1181 1.7 12.1181V12.6181C0.887257 12.6181 0.249998 11.9284 0.249998 11.105H0.749998ZM1.7 12.1181H20.4907V12.6181H1.7V12.1181ZM20.6806 12.5308L14.8886 19.288L14.509 18.9626L20.3009 12.2054L20.6806 12.5308ZM14.8886 19.288C14.5245 19.7129 14.5737 20.3525 14.9985 20.7166L14.6731 21.0963C14.0386 20.5524 13.9652 19.5971 14.509 18.9626L14.8886 19.288ZM14.9985 20.7166C15.4234 21.0808 16.063 21.0316 16.4271 20.6067L16.8068 20.9321C16.2629 21.5666 15.3077 21.6401 14.6731 21.0963L14.9985 20.7166ZM16.4271 20.6067L23.8816 11.9098L24.2613 12.2352L16.8068 20.9321L16.4271 20.6067ZM23.9058 11.8853C24.1126 11.7024 24.2474 11.4265 24.25 11.114L24.7499 11.1181C24.7462 11.5735 24.5493 11.9837 24.2371 12.2598L23.9058 11.8853ZM24.25 11.114C24.25 11.111 24.25 11.108 24.25 11.105H24.75C24.75 11.1094 24.75 11.1137 24.7499 11.1181L24.25 11.114ZM24.25 11.105C24.25 10.7878 24.1138 10.5076 23.904 10.323L24.2343 9.94763C24.5511 10.2264 24.75 10.643 24.75 11.105H24.25ZM23.8793 10.298L16.4271 1.60383L16.8068 1.27843L24.2589 9.97262L23.8793 10.298ZM16.4271 1.60383C16.063 1.17898 15.4234 1.12978 14.9985 1.49393L14.6731 1.11431C15.3077 0.570443 16.2629 0.643925 16.8068 1.27843L16.4271 1.60383ZM14.9985 1.49393C14.5737 1.85809 14.5245 2.49769 14.8886 2.92254L14.509 3.24793C13.9652 2.61342 14.0386 1.65817 14.6731 1.11431L14.9985 1.49393ZM14.8886 2.92254L20.68 9.6791L20.3004 10.0045L14.509 3.24793L14.8886 2.92254Z" fill="#275FA8"/>
</svg>
