<svg width="48" height="48" viewBox="0 0 48 48" fill="none" xmlns="http://www.w3.org/2000/svg">
<path d="M27 40.5H21C20.6022 40.5 20.2206 40.658 19.9393 40.9393C19.658 41.2206 19.5 41.6022 19.5 42C19.5 42.3978 19.658 42.7794 19.9393 43.0607C20.2206 43.342 20.6022 43.5 21 43.5H27C27.3978 43.5 27.7794 43.342 28.0607 43.0607C28.342 42.7794 28.5 42.3978 28.5 42C28.5 41.6022 28.342 41.2206 28.0607 40.9393C27.7794 40.658 27.3978 40.5 27 40.5Z" fill="#005E9E"/>
<path d="M41.1797 26.9733L35.5104 20.17C35.3291 17.9291 34.8251 15.7262 34.0141 13.6294C31.8359 7.96462 27.9848 4.25455 25.8831 2.54708C25.3501 2.11809 24.6871 1.88316 24.003 1.88088C23.3188 1.8786 22.6542 2.10911 22.1184 2.53454C19.9893 4.24026 16.0888 7.9476 13.8886 13.6132C13.0504 15.7574 12.5386 18.0152 12.3704 20.3113L6.81888 26.9733C6.52645 27.3263 6.31827 27.7414 6.21015 28.1869C6.10203 28.6325 6.0968 29.0968 6.19487 29.5446L8.51298 39.9758C8.62283 40.4735 8.8578 40.935 9.19567 41.3166C9.53354 41.6982 9.96316 41.9874 10.4439 42.1568C10.9247 42.3261 11.4406 42.3701 11.9431 42.2845C12.4456 42.1989 12.9179 41.9866 13.3155 41.6676L18.5254 37.4997H29.4732L34.683 41.6676C35.2125 42.0938 35.8716 42.3265 36.5514 42.327C36.8929 42.3267 37.2319 42.2684 37.5539 42.1546C38.0352 41.9868 38.4655 41.6985 38.8037 41.317C39.1419 40.9356 39.3767 40.4738 39.4856 39.9759L41.8037 29.5448C41.9018 29.0969 41.8966 28.6326 41.7885 28.187C41.6804 27.7415 41.4722 27.3264 41.1797 26.9733ZM11.4416 39.325L9.12345 28.8938L12.4847 24.8602C12.9108 28.3649 14.1071 31.9513 16.0735 35.6195L11.4416 39.325ZM23.9993 20.2497C23.5543 20.2497 23.1193 20.1178 22.7493 19.8705C22.3793 19.6233 22.0909 19.2719 21.9206 18.8608C21.7503 18.4496 21.7057 17.9972 21.7925 17.5608C21.8794 17.1243 22.0936 16.7234 22.4083 16.4087C22.723 16.0941 23.1239 15.8798 23.5604 15.793C23.9968 15.7061 24.4492 15.7507 24.8603 15.921C25.2715 16.0913 25.6229 16.3797 25.8701 16.7497C26.1173 17.1197 26.2493 17.5547 26.2493 17.9997C26.2493 18.5965 26.0123 19.1688 25.5903 19.5907C25.1683 20.0127 24.596 20.2497 23.9993 20.2497ZM36.557 39.325L31.9165 35.6125C33.8578 31.9186 35.0293 28.3013 35.4309 24.7606L38.8752 28.8938L36.557 39.325Z" fill="#005E9E"/>
</svg>
