<svg width="203" height="200" viewBox="0 0 203 200" fill="none" xmlns="http://www.w3.org/2000/svg">
<circle cx="100" cy="100" r="100" fill="#DBF5FF"/>
<mask id="mask0_211_36416" style="mask-type:alpha" maskUnits="userSpaceOnUse" x="2" y="0" width="201" height="200">
<circle cx="102.837" cy="100" r="100" fill="url(#paint0_linear_211_36416)"/>
</mask>
<g mask="url(#mask0_211_36416)">
<path d="M-10.6387 140.506H214.184" stroke="#263238" stroke-width="0.6767" stroke-linecap="round" stroke-linejoin="round"/>
<path d="M64.561 140.516L52.6924 150.839L68.4772 151.789L78.9205 141.226L64.561 140.516Z" fill="white" stroke="#263238" stroke-width="0.6767" stroke-linecap="round" stroke-linejoin="round"/>
<path d="M78.9198 141.227L94.1144 141.937L84.6166 152.975L68.4766 151.79L78.9198 141.227Z" fill="white" stroke="#263238" stroke-width="0.6767" stroke-linecap="round" stroke-linejoin="round"/>
<path d="M63.7793 143.674L72.8692 144.346" stroke="#263238" stroke-width="0.6767" stroke-linecap="round" stroke-linejoin="round"/>
<path d="M59.9004 146.082L71.3995 146.749" stroke="#263238" stroke-width="0.6767" stroke-linecap="round" stroke-linejoin="round"/>
<path d="M58.1641 148.088L69.26 148.889" stroke="#263238" stroke-width="0.6767" stroke-linecap="round" stroke-linejoin="round"/>
<path d="M73.2715 149.422L84.7706 150.228" stroke="#263238" stroke-width="0.6767" stroke-linecap="round" stroke-linejoin="round"/>
<path d="M52.6922 150.84L52.457 151.79L68.4771 152.74V151.79L52.6922 150.84Z" fill="#263238" stroke="#263238" stroke-width="0.6767" stroke-linecap="round" stroke-linejoin="round"/>
<path d="M68.4766 152.144V152.739L84.9717 153.924L93.9944 142.766L93.6392 142.176L84.6166 152.974L68.4766 152.144Z" fill="#263238" stroke="#263238" stroke-width="0.6767" stroke-linecap="round" stroke-linejoin="round"/>
<path d="M105.034 143.48L95.6562 155.584L114.882 156.415L121.409 143.956L105.034 143.48Z" fill="#919191" stroke="#263238" stroke-width="0.6767" stroke-linecap="round" stroke-linejoin="round"/>
<path d="M95.4207 154.873L94.2305 156.178L114.052 157.129L114.647 155.583L95.4207 154.873Z" fill="#919191" stroke="#263238" stroke-width="0.6767" stroke-linecap="round" stroke-linejoin="round"/>
<path d="M114.647 155.584L114.882 156.414L121.409 143.955L121.611 144.579L114.992 157.868L114.052 157.129L114.647 155.584Z" fill="#263238" stroke="#263238" stroke-width="0.6767" stroke-linecap="round" stroke-linejoin="round"/>
<path d="M109.506 147.396L110.831 145.443L108.686 145.371L107.227 147.281L109.506 147.396Z" fill="white" stroke="#263238" stroke-width="0.6767" stroke-linecap="round" stroke-linejoin="round"/>
<path d="M105.432 148.117L103.196 148.002L102.385 148.995L104.717 149.053L105.432 148.117Z" fill="white" stroke="#263238" stroke-width="0.6767" stroke-linecap="round" stroke-linejoin="round"/>
<path d="M103.958 151.566L103.166 152.598L105.926 152.694L106.641 151.638L103.958 151.566Z" fill="white" stroke="#263238" stroke-width="0.6767" stroke-linecap="round" stroke-linejoin="round"/>
<path d="M104.026 149.955L101.641 149.902L101.094 150.569L103.513 150.632L104.026 149.955Z" fill="white" stroke="#263238" stroke-width="0.6767" stroke-linecap="round" stroke-linejoin="round"/>
<path d="M107.011 152.733L110.289 152.844L110.951 151.754L107.731 151.668L107.011 152.733Z" fill="white" stroke="#263238" stroke-width="0.6767" stroke-linecap="round" stroke-linejoin="round"/>
<path d="M113.543 149.258L117.31 149.344L117.656 148.725L113.98 148.543L113.543 149.258Z" fill="white" stroke="#263238" stroke-width="0.6767" stroke-linecap="round" stroke-linejoin="round"/>
<path d="M114.521 147.647L118.159 147.829L119.33 145.723L115.76 145.607L114.521 147.647Z" fill="white" stroke="#263238" stroke-width="0.6767" stroke-linecap="round" stroke-linejoin="round"/>
<path d="M112.564 150.876L116.399 150.977L116.802 150.257L112.992 150.166L112.564 150.876Z" fill="white" stroke="#263238" stroke-width="0.6767" stroke-linecap="round" stroke-linejoin="round"/>
<path d="M104.645 150.666L107.255 150.733L107.721 150.042L105.163 149.984L104.645 150.666Z" fill="white" stroke="#263238" stroke-width="0.6767" stroke-linecap="round" stroke-linejoin="round"/>
<path d="M113.476 147.593L114.705 145.568L111.916 145.477L110.582 147.449L113.476 147.593Z" fill="white" stroke="#263238" stroke-width="0.6767" stroke-linecap="round" stroke-linejoin="round"/>
<path d="M112.012 151.783L111.345 152.882L115.266 153.012L115.894 151.884L112.012 151.783Z" fill="white" stroke="#263238" stroke-width="0.6767" stroke-linecap="round" stroke-linejoin="round"/>
<path d="M106.109 147.224L107.554 145.333L105.442 145.266L103.926 147.118L106.109 147.224Z" fill="white" stroke="#263238" stroke-width="0.6767" stroke-linecap="round" stroke-linejoin="round"/>
<path d="M102.821 151.533L100.359 151.471L99.5332 152.474L102.038 152.56L102.821 151.533Z" fill="white" stroke="#263238" stroke-width="0.6767" stroke-linecap="round" stroke-linejoin="round"/>
<path d="M105.854 149.077L108.331 149.135L108.907 148.29L106.55 148.17L105.854 149.077Z" fill="white" stroke="#263238" stroke-width="0.6767" stroke-linecap="round" stroke-linejoin="round"/>
<path d="M112.933 148.491L109.982 148.342L109.425 149.162L112.482 149.234L112.933 148.491Z" fill="white" stroke="#263238" stroke-width="0.6767" stroke-linecap="round" stroke-linejoin="round"/>
<path d="M111.931 150.142L108.811 150.07L108.346 150.761L111.504 150.848L111.931 150.142Z" fill="white" stroke="#263238" stroke-width="0.6767" stroke-linecap="round" stroke-linejoin="round"/>
<path d="M94.2305 156.18L95.4639 156.88L114.992 157.869L114.052 157.13L94.2305 156.18Z" fill="#263238" stroke="#263238" stroke-width="0.6767" stroke-linecap="round" stroke-linejoin="round"/>
<path d="M97.4609 154.93L98.3824 153.625L114.575 154.239L113.5 155.622L97.4609 154.93Z" fill="white" stroke="#263238" stroke-width="0.6767" stroke-linecap="round" stroke-linejoin="round"/>
<path d="M43.2284 136.455C47.199 136.455 50.4177 135.424 50.4177 134.151C50.4177 132.879 47.199 131.848 43.2284 131.848C39.2578 131.848 36.0391 132.879 36.0391 134.151C36.0391 135.424 39.2578 136.455 43.2284 136.455Z" fill="white" stroke="#263238" stroke-width="0.6767" stroke-linecap="round" stroke-linejoin="round"/>
<path d="M43.9237 125.508L44.8835 123.492L45.3011 125.657L43.5061 142.613C43.4972 142.703 43.4704 142.791 43.4273 142.87C43.3842 142.95 43.3257 143.021 43.2552 143.078C43.1847 143.135 43.1035 143.178 43.0165 143.203C42.9294 143.229 42.8381 143.237 42.7479 143.227C42.566 143.208 42.3991 143.117 42.284 142.975C42.1688 142.833 42.1147 142.651 42.1335 142.469L43.9237 125.508Z" fill="white" stroke="#263238" stroke-width="0.6767" stroke-linecap="round" stroke-linejoin="round"/>
<path d="M42.1532 142.469C42.1444 142.645 42.2036 142.818 42.3185 142.953C42.4335 143.087 42.5956 143.172 42.7713 143.19C42.9471 143.209 43.1233 143.159 43.2636 143.052C43.404 142.944 43.4978 142.787 43.5258 142.613L43.8378 139.68L42.4652 139.551L42.1532 142.469Z" fill="white" stroke="#263238" stroke-width="0.6767" stroke-linecap="round" stroke-linejoin="round"/>
<path d="M42.743 143.227C42.8332 143.237 42.9245 143.229 43.0116 143.204C43.0987 143.178 43.1798 143.136 43.2503 143.078C43.3209 143.021 43.3794 142.951 43.4224 142.871C43.4655 142.791 43.4923 142.703 43.5013 142.613L43.7316 140.453L42.359 140.295L42.1287 142.469C42.1099 142.651 42.164 142.833 42.2791 142.975C42.3943 143.117 42.5611 143.208 42.743 143.227Z" fill="white" stroke="#263238" stroke-width="0.6767" stroke-linecap="round" stroke-linejoin="round"/>
<path d="M43.9237 125.508L43.9141 125.618L45.2867 125.777L45.2963 125.657L44.8787 123.492L43.9237 125.508Z" fill="white" stroke="#263238" stroke-width="0.6767" stroke-linecap="round" stroke-linejoin="round"/>
<path d="M48.2105 126.986L49.7175 125.34L49.4823 127.533L42.7633 143.198C42.6904 143.366 42.5544 143.498 42.3846 143.566C42.2148 143.635 42.025 143.633 41.8562 143.563C41.6884 143.49 41.556 143.354 41.4877 143.184C41.4195 143.014 41.4208 142.824 41.4915 142.656L48.2105 126.986Z" fill="#263238" stroke="#263238" stroke-width="0.6767" stroke-linecap="round" stroke-linejoin="round"/>
<path d="M41.4773 142.654C41.4054 142.823 41.4034 143.013 41.4718 143.183C41.5402 143.353 41.6734 143.489 41.842 143.561C42.0107 143.633 42.201 143.635 42.3711 143.567C42.5412 143.498 42.6772 143.365 42.7491 143.197L43.9105 140.49L42.6339 139.957L41.4773 142.654Z" fill="white" stroke="#263238" stroke-width="0.6767" stroke-linecap="round" stroke-linejoin="round"/>
<path d="M41.8411 143.562C42.0099 143.632 42.1997 143.634 42.3695 143.566C42.5393 143.497 42.6753 143.365 42.7482 143.197L43.5928 141.215L42.3258 140.658L41.462 142.669C41.3966 142.838 41.3996 143.026 41.4704 143.192C41.5412 143.359 41.6742 143.492 41.8411 143.562Z" fill="white" stroke="#263238" stroke-width="0.6767" stroke-linecap="round" stroke-linejoin="round"/>
<path d="M48.2092 126.986L48.166 127.087L49.433 127.643L49.481 127.533L49.7162 125.34L48.2092 126.986Z" fill="white" stroke="#263238" stroke-width="0.6767" stroke-linecap="round" stroke-linejoin="round"/>
<path d="M41.9369 141.906L40.5547 141.858L41.097 124.816C41.0995 124.725 41.1199 124.636 41.157 124.554C41.1941 124.471 41.2472 124.396 41.3132 124.334C41.3792 124.272 41.4569 124.224 41.5417 124.192C41.6265 124.16 41.7168 124.146 41.8073 124.149C41.8979 124.151 41.987 124.172 42.0697 124.209C42.1523 124.246 42.2268 124.299 42.2888 124.365C42.3508 124.431 42.3991 124.509 42.431 124.594C42.4629 124.678 42.4776 124.769 42.4744 124.859L41.9369 141.906Z" fill="#263238" stroke="#263238" stroke-width="0.6767" stroke-linecap="round" stroke-linejoin="round"/>
<path d="M42.4753 124.859C42.4673 124.685 42.394 124.52 42.2701 124.398C42.1461 124.276 41.9806 124.205 41.8066 124.2C41.6327 124.194 41.463 124.254 41.3316 124.369C41.2003 124.483 41.1168 124.642 41.0979 124.815L41.002 127.762L42.3842 127.791L42.4753 124.859Z" fill="white" stroke="#263238" stroke-width="0.6767" stroke-linecap="round" stroke-linejoin="round"/>
<path d="M41.8077 124.149C41.7171 124.146 41.6269 124.16 41.5421 124.192C41.4573 124.224 41.3796 124.272 41.3136 124.334C41.2476 124.396 41.1944 124.471 41.1573 124.554C41.1202 124.636 41.0999 124.725 41.0974 124.816L41.0254 126.99L42.4076 127.043L42.4748 124.859C42.478 124.769 42.4632 124.678 42.4314 124.594C42.3995 124.509 42.3512 124.431 42.2892 124.365C42.2271 124.299 42.1527 124.246 42.07 124.209C41.9874 124.172 41.8982 124.151 41.8077 124.149Z" fill="white" stroke="#263238" stroke-width="0.6767" stroke-linecap="round" stroke-linejoin="round"/>
<path d="M43.2282 136.454C39.2544 136.454 36.0293 135.422 36.0293 134.15V150.425C36.0293 151.697 39.2448 152.728 43.2282 152.728C47.2116 152.728 50.4272 151.697 50.4272 150.425V134.15C50.4128 135.422 47.1972 136.454 43.2282 136.454Z" fill="white" stroke="#263238" stroke-width="0.6767" stroke-linecap="round" stroke-linejoin="round"/>
<path d="M115.64 114.56C114.777 122.344 114.244 133.277 114.201 140.524H161.598C161.55 133.258 161.018 122.344 160.159 114.56C159.256 106.425 161.786 103.521 163.413 93.9515C165.04 84.3817 164.137 63.9367 162.693 61.945C162.035 61.0428 160.485 60.774 158.983 60.75C157.9 64.4161 155.818 67.7083 152.969 70.2574C145.439 77.01 131.507 78.9537 121.774 69.7391C119.209 67.3166 117.416 64.1914 116.62 60.7548C115.18 60.798 113.74 61.0812 113.097 61.945C111.657 63.9367 110.745 84.3673 112.372 93.9515C113.999 103.536 116.543 106.425 115.64 114.56Z" fill="#263238" stroke="#263238" stroke-width="0.6767" stroke-linecap="round" stroke-linejoin="round"/>
<path d="M157.816 49.108C159.453 57.5884 157.091 64.8401 151.846 69.5434C144.887 75.7825 132.001 77.5774 123.026 69.0635C114.051 60.5495 118.563 46.766 122.013 46.766C125.464 46.766 157.221 46.0797 157.816 49.108Z" fill="#263238" stroke="#263238" stroke-width="0.6767" stroke-linecap="round" stroke-linejoin="round"/>
<path d="M110.005 140.084C110.005 140.084 105.057 140.66 104.366 140.66C103.675 140.66 103.329 141.466 104.251 142.272C105.172 143.079 108.282 142.618 108.282 142.618L110.005 140.084Z" fill="white" stroke="#263238" stroke-width="0.6767" stroke-linecap="round" stroke-linejoin="round"/>
<path d="M109.506 76.5059V81.7035C109.506 81.7035 100.762 86.1524 97.0762 87.5346C93.3904 88.9168 90.7843 90.1454 90.3236 92.2907C89.8629 94.436 85.4139 114.396 85.1068 116.849C84.7996 119.301 82.496 121.61 82.496 122.987C82.4577 123.667 82.5624 124.347 82.8031 124.983C82.8031 124.983 83.8782 130.047 87.5592 132.043C91.2403 134.04 94.3118 131.563 96.0012 130.2C97.6905 128.837 99.3607 125.291 99.3607 125.291C99.3607 125.291 98.1321 137.111 97.9785 138.182C97.8808 138.946 97.8295 139.715 97.8249 140.485H141.873C141.785 131.309 142.246 122.135 143.255 113.014C143.86 107.365 142.775 89.6847 141.105 87.0979C139.435 84.5111 134.967 83.1097 131.132 82.0346C127.297 80.9596 122.383 80.0381 122.383 80.0381L122.229 78.0416L109.506 76.5059Z" fill="#91D2FF" stroke="#263238" stroke-width="0.6767" stroke-linecap="round" stroke-linejoin="round"/>
<path d="M96.2751 106.439L95.6943 102.902" stroke="#263238" stroke-width="0.6767" stroke-linecap="round" stroke-linejoin="round"/>
<path d="M99.38 125.31L96.6396 108.646" stroke="#263238" stroke-width="0.6767" stroke-linecap="round" stroke-linejoin="round"/>
<path d="M115.496 94.1528C126.055 95.4726 137.006 85.6101 138.379 84.7078C136.306 83.532 133.604 82.7161 131.151 82.0298C127.312 80.9548 122.402 80.0333 122.402 80.0333L122.249 78.0368L109.507 76.5059V81.7035C109.507 81.7035 103.747 84.6311 99.6152 86.474C103.889 90.7549 109.487 93.4616 115.496 94.1528Z" fill="white" stroke="#263238" stroke-width="0.6767" stroke-linecap="round" stroke-linejoin="round"/>
<path d="M109.506 81.7031C109.364 83.8125 109.109 85.9128 108.743 87.995" stroke="#263238" stroke-width="0.6767" stroke-linecap="round" stroke-linejoin="round"/>
<path d="M122.402 80.0332C122.402 80.0332 122.71 84.4821 123.17 86.0179" stroke="#263238" stroke-width="0.6767" stroke-linecap="round" stroke-linejoin="round"/>
<path d="M126.789 43.1514C123.967 41.5389 118.088 40.3774 114.906 41.0349C111.513 41.7308 107.064 43.1994 103.56 46.2662C96.9996 52.0253 99.4184 60.7744 99.9943 61.5759L100.57 62.3822C100.296 64.5967 99.8729 66.7902 99.3032 68.9476C98.2666 73.0894 103.33 77.1064 109.545 78.2678C115.76 79.4293 125.776 78.4982 132.337 76.5449C138.897 74.5916 140.059 69.4035 137.75 61.6911C135.442 53.9786 132.951 46.9957 129.155 44.5816C128.305 44.0393 127.513 43.5642 126.789 43.1514Z" fill="#282F34" stroke="#263238" stroke-width="0.6767" stroke-linecap="round" stroke-linejoin="round"/>
<path d="M114.436 50.2891C114.907 50.1694 115.389 50.0954 115.875 50.0684" stroke="#263238" stroke-width="0.6767" stroke-linecap="round" stroke-linejoin="round"/>
<path d="M102.063 61.9223C102.063 61.9223 100.455 61.3512 101.141 59.0428C101.703 57.1711 107.961 52.5685 112.818 50.7832" stroke="#263238" stroke-width="0.6767" stroke-linecap="round" stroke-linejoin="round"/>
<path d="M113.082 46.2714C113.61 46.2138 114.157 46.1754 114.728 46.1562" stroke="#263238" stroke-width="0.6767" stroke-linecap="round" stroke-linejoin="round"/>
<path d="M99.7441 57.2267C99.7441 57.2267 101.563 48.4153 111.584 46.5195" stroke="#263238" stroke-width="0.6767" stroke-linecap="round" stroke-linejoin="round"/>
<path d="M119.264 44.4043C118.362 46.0744 117.287 48.3397 117.027 50.0675" stroke="#263238" stroke-width="0.6767" stroke-linecap="round" stroke-linejoin="round"/>
<path d="M120.597 42.125C120.597 42.125 120.458 42.341 120.232 42.7153" stroke="#263238" stroke-width="0.6767" stroke-linecap="round" stroke-linejoin="round"/>
<path d="M126.938 48.373C130.538 51.6967 133.297 55.829 134.986 60.4289" stroke="#263238" stroke-width="0.6767" stroke-linecap="round" stroke-linejoin="round"/>
<path d="M123.132 45.5801C124.132 46.1342 125.076 46.7853 125.949 47.5238" stroke="#263238" stroke-width="0.6767" stroke-linecap="round" stroke-linejoin="round"/>
<path d="M136.631 72.2051C135.72 73.8073 134.221 74.9917 132.451 75.507" stroke="#263238" stroke-width="0.6767" stroke-linecap="round" stroke-linejoin="round"/>
<path d="M127.273 53.293C127.273 53.293 137.75 63.3043 137.52 68.8331C137.496 69.4656 137.401 70.0935 137.237 70.7048" stroke="#263238" stroke-width="0.6767" stroke-linecap="round" stroke-linejoin="round"/>
<path d="M129.232 67.7852C129.232 67.7852 132.452 69.6233 131.075 72.9636C129.697 76.3039 127.504 75.3632 127.504 75.3632" stroke="#263238" stroke-width="0.6767" stroke-linecap="round" stroke-linejoin="round"/>
<path d="M116.705 52.2461C114.121 54.8523 111.188 57.0877 107.99 58.8883L102.456 62.0702C102.456 62.0702 105.777 74.3804 107.299 76.7321C108.82 79.0837 111.445 82.5392 115.184 82.5392C118.922 82.5392 124.451 77.1448 124.725 76.1801C124.998 75.2155 126.246 70.229 126.246 70.229C126.87 69.8349 127.354 69.2538 127.628 68.5685C127.811 67.7978 127.904 67.0088 127.907 66.2168C127.907 66.2168 121.668 60.2705 119.47 57.6405C118.147 56.078 117.201 54.2323 116.705 52.2461Z" fill="white" stroke="#263238" stroke-width="0.6767" stroke-linecap="round" stroke-linejoin="round"/>
<path d="M112.224 64.94L103.004 64.3256C102.923 64.3197 102.842 64.3325 102.767 64.3631C102.691 64.3937 102.624 64.4413 102.57 64.5022C102.516 64.563 102.477 64.6355 102.456 64.7139C102.435 64.7923 102.432 64.8746 102.447 64.9544C102.726 66.351 103.436 69.4849 104.396 70.2336C105.644 71.1934 109.325 71.0447 110.074 71.0447C111.662 71.0447 112.588 66.7493 112.689 66.2694C112.691 66.239 112.691 66.2085 112.689 66.1782V65.4871C112.694 65.3542 112.649 65.2245 112.562 65.1232C112.476 65.022 112.356 64.9566 112.224 64.94V64.94Z" stroke="#263238" stroke-width="1.3534" stroke-linecap="round" stroke-linejoin="round"/>
<path d="M115.103 65.204L124.341 65.4535C124.421 65.4566 124.5 65.478 124.57 65.5162C124.641 65.5544 124.701 65.6082 124.748 65.6736C124.794 65.739 124.825 65.8142 124.838 65.8934C124.85 65.9726 124.845 66.0536 124.821 66.1302C124.418 67.4932 123.415 70.5456 122.388 71.1983C121.058 72.0477 117.406 71.5438 116.662 71.4766C115.079 71.3279 114.555 66.9653 114.503 66.4758C114.498 66.4456 114.498 66.4148 114.503 66.3846L114.551 65.6983C114.554 65.6296 114.572 65.5622 114.601 65.5002C114.631 65.4381 114.673 65.3825 114.724 65.3366C114.775 65.2907 114.835 65.2553 114.9 65.2325C114.965 65.2098 115.034 65.2001 115.103 65.204Z" stroke="#263238" stroke-width="1.3534" stroke-linecap="round" stroke-linejoin="round"/>
<path d="M112.218 64.9395L115.097 65.2034" stroke="#263238" stroke-width="1.3534" stroke-linecap="round" stroke-linejoin="round"/>
<path d="M112.875 66.0293L114.512 66.0821" stroke="#263238" stroke-width="1.3534" stroke-linecap="round" stroke-linejoin="round"/>
<path d="M124.936 65.7761L126.419 64.8066" stroke="#263238" stroke-width="1.3534" stroke-linecap="round" stroke-linejoin="round"/>
<path d="M119.422 67.2598C119.422 67.9077 119.125 68.4356 118.76 68.4356C118.395 68.4356 118.093 67.9077 118.093 67.2598C118.093 66.6119 118.39 66.084 118.76 66.084C119.129 66.084 119.422 66.6071 119.422 67.2598Z" fill="#263238"/>
<path d="M109.3 66.9992C109.3 67.6519 109.003 68.175 108.638 68.175C108.273 68.175 107.971 67.6519 107.971 66.9992C107.971 66.3464 108.268 65.8281 108.638 65.8281C109.007 65.8281 109.3 66.3464 109.3 66.9992Z" fill="#263238"/>
<path d="M112.655 67.7578C112.655 67.7578 111.503 72.3603 111.35 72.8978C111.196 73.4354 112.041 73.9729 113.577 73.4354" stroke="#263238" stroke-width="0.6767" stroke-linecap="round" stroke-linejoin="round"/>
<path d="M111.35 75.97C111.35 75.97 114.114 76.6563 116.264 75.8164" stroke="#263238" stroke-width="0.6767" stroke-linecap="round" stroke-linejoin="round"/>
<path d="M116.265 64.3785C116.265 64.3785 117.796 62.6124 122.633 64.3017" stroke="#263238" stroke-width="0.6767" stroke-linecap="round" stroke-linejoin="round"/>
<path d="M111.579 63.9946C111.579 63.9946 108.743 61.7677 105.518 63.5146" stroke="#263238" stroke-width="0.6767" stroke-linecap="round" stroke-linejoin="round"/>
<path d="M135.192 98.709C135.192 98.709 135.029 117.071 134.712 120.709C134.395 124.347 135.192 127.514 138.762 129.415C142.333 131.315 146.868 131.157 148.327 130.682C149.786 130.207 154.974 127.514 154.327 123.401C153.679 119.288 149.302 105.514 147.353 99.0257C145.405 92.5371 145.083 89.5279 142.487 87.4642C139.89 85.4006 139.098 84.8438 136.828 86.4276" fill="#91D2FF"/>
<path d="M135.192 98.709C135.192 98.709 135.029 117.071 134.712 120.709C134.395 124.347 135.192 127.514 138.762 129.415C142.333 131.315 146.868 131.157 148.327 130.682C149.786 130.207 154.974 127.514 154.327 123.401C153.679 119.288 149.302 105.514 147.353 99.0257C145.405 92.5371 145.083 89.5279 142.487 87.4642C139.89 85.4006 139.098 84.8438 136.828 86.4276" stroke="#263238" stroke-width="0.6767" stroke-linecap="round" stroke-linejoin="round"/>
<path d="M78.3495 138.047L80.346 135.134C80.346 135.134 85.8748 133.444 88.0249 132.216C90.175 130.987 91.5572 127.46 89.4071 125.156C87.257 122.852 83.7295 122.089 81.2723 123.927C78.8151 125.765 77.9128 129.149 76.5162 130.066C75.1196 130.982 69.4565 132.369 67.9207 132.676C66.3849 132.984 65.7706 134.212 66.0778 135.287C66.3849 136.362 67.46 140.658 68.2278 141.272C68.9957 141.886 71.5873 143.729 73.4447 143.729C75.302 143.729 77.1305 141.579 77.764 141.425C78.3975 141.272 80.0389 139.736 78.3495 138.047Z" fill="white" stroke="#263238" stroke-width="0.6767" stroke-linecap="round" stroke-linejoin="round"/>
<path d="M74.7072 133.133C74.7072 133.133 73.9825 139.895 74.2272 140.155C74.4989 140.357 74.8117 140.497 75.1434 140.565C75.4751 140.633 75.8177 140.627 76.147 140.548C76.934 140.351 77.9803 135.235 77.9803 134.184C77.8996 133.336 77.6551 132.511 77.2604 131.756" stroke="#263238" stroke-width="0.6767" stroke-linecap="round" stroke-linejoin="round"/>
<path d="M70.1094 133.656C70.1094 133.656 72.341 137.664 73.1953 138.254L74.0496 138.844" stroke="#263238" stroke-width="0.6767" stroke-linecap="round" stroke-linejoin="round"/>
<path d="M67.6807 135.826C67.6807 135.826 69.9123 139.958 71.0402 140.486C72.168 141.014 74.7164 141.993 77.2792 141.796" stroke="#263238" stroke-width="0.6767" stroke-linecap="round" stroke-linejoin="round"/>
<path d="M70.4692 127.196L73.2 138.235L73.9871 138.494L74.1215 137.313L71.7842 126.865C71.7616 126.776 71.7212 126.693 71.6655 126.62C71.6097 126.548 71.5398 126.487 71.4599 126.442C71.38 126.397 71.2919 126.369 71.2008 126.359C71.1097 126.35 71.0176 126.358 70.93 126.385C70.7638 126.436 70.6233 126.548 70.5375 126.699C70.4518 126.85 70.4273 127.028 70.4692 127.196Z" fill="#263238" stroke="#263238" stroke-width="0.6767" stroke-linecap="round" stroke-linejoin="round"/>
<path d="M69.457 142.061C69.457 142.061 72.3366 143.044 73.0661 143.174C73.9911 143.334 74.942 143.245 75.8209 142.915" stroke="#263238" stroke-width="0.6767" stroke-linecap="round" stroke-linejoin="round"/>
<path d="M78.3491 138.049C78.2146 138.268 78.03 138.451 77.8105 138.585C77.5911 138.718 77.3431 138.798 77.0869 138.817" stroke="#263238" stroke-width="0.6767" stroke-linecap="round" stroke-linejoin="round"/>
<path d="M137.659 124.898C137.659 124.898 120.862 135.937 119.931 136.417C118.999 136.897 109.799 139.407 108.412 140.213C107.025 141.019 106.109 144.475 105.533 145.622C104.957 146.769 104.381 149.999 104.381 149.999C104.587 150.213 104.84 150.377 105.119 150.476C105.399 150.576 105.698 150.61 105.993 150.575C107.03 150.459 108.182 146.083 108.182 146.083L110.481 142.747C110.481 142.747 108.983 146.083 108.983 146.889C108.983 147.695 108.412 149.884 108.412 150.248C108.412 150.613 109.099 151.055 110.02 150.594C110.941 150.133 111.633 146.678 111.633 146.678L113.591 143.457C113.591 143.457 112.093 147.945 111.633 148.866C111.172 149.788 111.057 150.133 112.324 150.018C113.591 149.903 113.706 148.521 114.051 147.618C114.397 146.716 115.203 144.974 115.203 144.974L117.502 143.361C117.502 143.361 116.01 146.582 115.549 147.388C115.088 148.194 114.627 148.425 116.24 148.425C117.852 148.425 118.884 144.859 118.884 144.859C119.483 144.428 120.06 143.966 120.612 143.477C121.092 142.997 122.801 140.367 122.801 140.367C122.801 140.367 143.289 133.46 145.708 132.309C148.126 131.157 148.352 129.429 147.43 127.936C146.509 126.444 142.458 122.931 137.659 124.898Z" fill="white" stroke="#263238" stroke-width="0.6767" stroke-linecap="round" stroke-linejoin="round"/>
<path d="M139.358 159.55L124.519 147.168H150.982L139.358 159.55Z" fill="white" stroke="#263238" stroke-width="0.6767" stroke-linecap="round" stroke-linejoin="round"/>
<path d="M139.982 158.052L133.959 152.619H143.524L139.982 158.052Z" fill="#263238" stroke="#263238" stroke-width="0.6767" stroke-linecap="round" stroke-linejoin="round"/>
<path d="M184.236 159.55H139.357L146.201 131.076H191.079L184.236 159.55Z" fill="white" stroke="#263238" stroke-width="0.6767" stroke-linecap="round" stroke-linejoin="round"/>
<path d="M187.494 146.018C179.177 147.337 171.177 152.257 161.353 155.136C154.213 157.216 146.877 158.552 139.463 159.124L139.357 159.566H184.236L187.494 146.018Z" fill="#91D2FF"/>
<path d="M166.349 148.09C168.085 148.09 169.492 147.014 169.492 145.686C169.492 144.358 168.085 143.281 166.349 143.281C164.612 143.281 163.205 144.358 163.205 145.686C163.205 147.014 164.612 148.09 166.349 148.09Z" fill="white" stroke="#263238" stroke-width="0.6767" stroke-linecap="round" stroke-linejoin="round"/>
</g>
<defs>
<linearGradient id="paint0_linear_211_36416" x1="102.837" y1="0" x2="102.837" y2="200" gradientUnits="userSpaceOnUse">
<stop stop-color="#FFD775"/>
<stop offset="1" stop-color="#FF9D45"/>
</linearGradient>
</defs>
</svg>
