<svg width="75" height="28" viewBox="0 0 75 28" fill="none" xmlns="http://www.w3.org/2000/svg">
<path d="M15.8544 6.01079C17.3885 6.01079 18.6243 4.94544 18.6243 3.66701C18.6243 2.34598 17.3885 1.32324 15.8544 1.32324C14.3203 1.32324 13.0845 2.38859 13.0845 3.66701C13.1271 4.98805 14.3203 6.01079 15.8544 6.01079Z" fill="white"/>
<path d="M28.0841 7.33163C27.5728 1.91965 30.7688 2.17533 31.9194 2.43102C32.3455 2.51625 32.3455 2.04749 32.3455 1.91965C32.3029 1.49351 32.0472 1.10998 31.7489 0.854298C30.5984 -0.0832108 28.5103 0.00201723 28.5103 0.00201723C24.675 0.00201723 23.354 2.85716 23.354 5.20093C23.354 6.39412 23.354 7.41686 23.354 7.41686H22.2034C21.5216 7.41686 21.2659 8.09868 21.2659 8.48221V9.33449H23.354V15.13C19.1778 18.667 18.2403 16.5363 18.2403 15.6414C18.2403 14.0646 18.2403 11.1669 18.2403 9.24926C18.2403 7.67254 15.9818 7.16117 14.6181 7.11856C13.2971 7.07595 13.4675 8.09868 13.4675 8.09868V15.9397C13.4675 15.9397 13.084 19.9454 16.4931 19.9454C20.2005 19.9454 23.3966 16.9198 23.3966 16.9198C23.3966 16.9198 23.3966 19.0505 23.4392 20.6698C23.4392 20.9255 23.4392 21.096 23.4392 21.2238C23.5244 22.2465 24.5472 22.1187 24.5472 22.1187C28.212 22.1187 28.1268 19.5192 28.1268 19.5192V9.24926H30.4279C30.8967 9.24926 31.6637 9.03619 31.6637 8.1413C31.6637 7.62993 31.6637 7.2464 31.6637 7.2464H28.0841V7.33163Z" fill="white"/>
<path d="M44.96 16.3235C44.96 16.2809 44.96 16.2809 44.96 16.3235C44.9174 16.1957 44.7895 16.1104 44.4486 16.3235C43.7668 16.7497 41.6787 17.6019 40.6986 17.815C39.7184 18.0281 38.0991 18.0707 36.9911 17.3462C35.8832 16.6644 35.6701 15.3434 35.6275 15.2155C35.5423 14.7468 35.5423 14.3207 35.5423 14.0224C35.5423 12.9144 36.2241 10.1445 39.0366 10.1445C41.5508 10.1019 41.8491 13.9797 36.565 14.278C36.565 14.278 36.9911 15.0025 37.2894 15.2155C38.0991 15.7695 38.6957 15.7695 39.3349 15.8121C40.9969 15.94 45.173 14.6616 44.8747 11.082C44.4912 6.35182 37.5451 7.24672 35.3718 8.14161C33.3263 8.99389 30.4286 10.7837 30.7269 14.9172C31.0678 19.6048 36.3519 20.0309 38.7383 19.9883C39.0366 19.9883 39.3349 19.9457 39.6758 19.9457C42.7014 19.69 44.406 17.9428 44.7895 17.3036C44.96 17.0053 45.0452 16.7497 45.0452 16.5792C45.0026 16.5366 45.0026 16.4087 44.96 16.3235Z" fill="white"/>
<path fill-rule="evenodd" clip-rule="evenodd" d="M58.7221 16.2789C59.0204 17.0885 59.4039 17.7277 59.9153 18.2817C60.1209 18.4873 60.3468 18.6727 60.565 18.8518C60.6633 18.9325 60.7601 19.0119 60.8528 19.0914C60.2988 20.7959 59.3613 22.2874 58.0403 23.5232C55.8244 25.6539 52.7135 26.975 48.8357 27.4863L48.5374 26.1227L49.9862 25.867C51.1368 25.5261 52.0743 25.1426 52.7988 24.6312C53.5658 24.1198 54.1624 23.5659 54.6312 22.884C55.0999 22.2022 55.4834 21.4778 55.7391 20.7107C55.9948 19.9437 56.2079 19.134 56.3357 18.3243C55.5261 19.0488 54.759 19.5175 53.992 19.7306C53.2249 19.9437 52.3726 20.0715 51.4351 20.0715C50.6254 20.0715 49.901 19.901 49.2192 19.6027C48.5374 19.3044 47.9408 18.8783 47.4294 18.3243C46.918 17.7703 46.5345 17.0885 46.2362 16.3215C45.9379 15.5544 45.8101 14.7021 45.8101 13.8072C45.8101 11.847 46.5345 10.2703 48.026 8.99185C49.4749 7.71343 51.3499 7.07422 53.5658 7.07422C55.9948 7.07422 57.9124 7.79866 59.3187 9.29015C59.4465 9.41799 59.5744 9.58845 59.7022 9.7589C58.7647 10.9095 58.296 12.2305 58.296 13.7646C58.296 14.6595 58.4238 15.5118 58.7221 16.2789ZM56.4621 16.1079V15.6392C56.4621 15.4261 56.4621 15.2557 56.5899 15.0852C56.5899 12.9119 56.2916 11.2073 55.7802 10.0567C55.2689 8.90617 54.587 8.30957 53.7348 8.30957C52.8825 8.30957 52.2433 8.73571 51.7319 9.63061C51.2205 10.5255 50.9648 11.8039 50.9648 13.4659C50.9648 14.9147 51.2205 16.1079 51.7319 16.9602C52.2433 17.8551 52.9251 18.2813 53.7774 18.2813C54.2887 18.2813 54.7575 18.196 55.2262 17.983C55.6524 17.7699 56.0785 17.3864 56.4621 16.7898V16.5341V16.1079Z" fill="white"/>
<path d="M12.3612 18.2581C12.3612 17.5569 11.8939 16.8994 11.2143 16.8994C9.4727 16.8556 4.80016 16.8994 4.80016 16.8994C4.80016 16.8994 4.84264 10.3248 4.84264 6.33616C4.84264 5.50338 4.88511 4.10079 4.84264 3.61865C4.80016 1.99691 2.46389 1.47094 1.14708 1.42711C-0.0422888 1.38328 0.000188789 2.43522 0.000188789 2.43522V6.33616V18.6526C0.000188789 19.7046 1.10461 19.9675 1.10461 19.9675H12.3612C12.3612 19.9675 12.3612 19.0909 12.3612 18.2581Z" fill="white"/>
<path fill-rule="evenodd" clip-rule="evenodd" d="M71.6331 23.5232C73.8916 21.3925 74.9996 18.6652 74.9996 15.3413C74.9996 12.8271 74.2751 10.8243 72.9115 9.29015C71.4626 7.79866 69.545 7.07422 67.1586 7.07422C64.9427 7.07422 63.1103 7.71343 61.6188 8.99185C60.1273 10.2703 59.4028 11.8896 59.4028 13.8072C59.4028 14.7021 59.5307 15.5544 59.829 16.3215C60.1273 17.1311 60.5108 17.7703 61.0222 18.3243C61.5335 18.8783 62.1301 19.3044 62.812 19.6027C63.4938 19.901 64.2608 20.0715 65.0279 20.0715C65.9654 20.0715 66.8177 19.9437 67.5847 19.7306C68.3518 19.4749 69.1188 19.0488 69.9285 18.3243C69.8007 19.134 69.5876 19.9437 69.3319 20.7107C69.0762 21.4778 68.7353 22.2022 68.2239 22.884C67.7552 23.5232 67.116 24.1198 66.3915 24.6312C65.6245 25.1426 64.687 25.5261 63.579 25.867L62.1301 26.1227L62.4284 27.4863C66.3063 26.975 69.3745 25.6539 71.6331 23.5232ZM69.9708 15.5972V16.0659C69.9708 16.279 69.9708 16.4069 69.8429 16.4921V16.7478C69.4594 17.3444 69.0332 17.7279 68.6071 17.941C68.181 18.154 67.6696 18.2393 67.1582 18.2393C66.3059 18.2393 65.6241 17.7705 65.1128 16.9182C64.6014 16.0659 64.3457 14.8728 64.3457 13.4239C64.3457 11.7619 64.6014 10.4835 65.1128 9.58861C65.6241 8.69372 66.3059 8.26758 67.1156 8.26758C67.9679 8.26758 68.6497 8.86417 69.1611 10.0148C69.7151 11.1653 69.9708 12.8273 69.9708 15.0432V15.5972Z" fill="white"/>
</svg>
