<svg width="19" height="22" viewBox="0 0 19 22" fill="none" xmlns="http://www.w3.org/2000/svg">
<path fill-rule="evenodd" clip-rule="evenodd" d="M5.81755 0.0398299C6.45083 -0.126049 7.10176 0.241334 7.27145 0.860402L7.59942 2.05803C10.9997 1.73923 14.2375 3.85621 15.151 7.1888L16.5107 12.1459C17.7286 12.5653 18.5571 13.3383 18.8779 14.5087C19.6534 17.3378 16.6726 19.6058 11.6993 21.0321L11.0089 21.2213L10.6519 21.3126C5.44539 22.6119 1.55348 22.1462 0.760806 19.2543C0.439987 18.0838 0.762107 17.0094 1.60228 16.0509L0.244465 11.0933C-0.668998 7.76076 1.05225 4.34482 4.16001 2.95894L3.83149 1.76145C3.6618 1.14238 4.03762 0.506059 4.6709 0.34018L5.81755 0.0398299ZM9.1787 14.5447C4.85177 15.6781 2.45923 17.3805 2.82464 18.7136C3.19004 20.0468 6.13281 20.3517 10.4597 19.2183C14.7867 18.0849 17.1792 16.3825 16.8138 15.0494C16.4484 13.7163 13.5056 13.4113 9.1787 14.5447ZM9.36127 15.336L9.96256 15.1745C10.31 16.6751 9.37565 18.1904 7.83107 18.595C6.52844 18.9362 5.19763 18.3811 4.53229 17.3178C5.78329 16.542 7.4264 15.8763 9.36127 15.336Z" fill="#F6F7F8"/>
</svg>
