<svg width="200" height="200" viewBox="0 0 200 200" fill="none" xmlns="http://www.w3.org/2000/svg">
<circle cx="100" cy="100" r="100" fill="#DBF5FF"/>
<mask id="mask0_211_36818" style="mask-type:alpha" maskUnits="userSpaceOnUse" x="0" y="0" width="200" height="200">
<circle cx="100" cy="100" r="100" fill="url(#paint0_linear_211_36818)"/>
</mask>
<g mask="url(#mask0_211_36818)">
<path d="M96.6309 153.486L125.936 152.281L141.939 171.731L102.419 175.174L96.6309 153.486Z" fill="white" stroke="#263238" stroke-linecap="round" stroke-linejoin="round"/>
<path d="M102.549 166.879L134.227 164.672L136.316 167.302L103.429 169.801L102.549 166.879Z" stroke="#263238" stroke-width="0.5" stroke-linecap="round" stroke-linejoin="round"/>
<path d="M101.598 163.72L131.957 161.809L132.925 163.029L102.004 165.066L101.598 163.72Z" stroke="#263238" stroke-width="0.5" stroke-linecap="round" stroke-linejoin="round"/>
<path d="M100.828 161.165L130.11 159.479L131.006 160.608L101.199 162.4L100.828 161.165Z" stroke="#263238" stroke-width="0.5" stroke-linecap="round" stroke-linejoin="round"/>
<path d="M98.8496 154.6L125.32 153.447L129.284 158.442L100.484 160.025L98.8496 154.6Z" stroke="#263238" stroke-width="0.5" stroke-linecap="round" stroke-linejoin="round"/>
<path d="M100.176 159.002L128.538 157.502L129.284 158.442L100.484 160.025L100.176 159.002Z" fill="#D1D1D1" stroke="#263238" stroke-width="0.5" stroke-linecap="round" stroke-linejoin="round"/>
<path d="M119.686 165.631L118.742 163.961L132.925 163.029L134.228 164.672" stroke="#263238" stroke-width="0.5" stroke-linecap="round" stroke-linejoin="round"/>
<path d="M102.854 167.886L134.951 165.58L135.559 166.342L103.11 168.735L102.854 167.886Z" fill="#D1D1D1" stroke="#263238" stroke-width="0.5" stroke-linecap="round" stroke-linejoin="round"/>
<path d="M114.841 168.848L114.395 167.896" stroke="#263238" stroke-width="0.5" stroke-linecap="round" stroke-linejoin="round"/>
<path d="M110.182 168.455L112.484 168.285L112.728 168.842L110.411 169.02L110.182 168.455Z" fill="#D1D1D1" stroke="#263238" stroke-width="0.5" stroke-linecap="round" stroke-linejoin="round"/>
<path d="M119.168 166.69L118.65 165.75" stroke="#263238" stroke-width="0.5" stroke-linecap="round" stroke-linejoin="round"/>
<path d="M112.357 167.18L111.931 166.217" stroke="#263238" stroke-width="0.5" stroke-linecap="round" stroke-linejoin="round"/>
<path d="M127.543 163.381L128.716 165.043" stroke="#263238" stroke-width="0.5" stroke-linecap="round" stroke-linejoin="round"/>
<path d="M124.068 163.609L125.158 165.291" stroke="#263238" stroke-width="0.5" stroke-linecap="round" stroke-linejoin="round"/>
<path d="M120.215 163.855L119.484 162.619" stroke="#263238" stroke-width="0.5" stroke-linecap="round" stroke-linejoin="round"/>
<path d="M112.812 164.361L111.043 160.598" stroke="#263238" stroke-width="0.5" stroke-linecap="round" stroke-linejoin="round"/>
<path d="M131.958 161.81L131.006 160.609L111.584 161.778" stroke="#263238" stroke-width="0.5" stroke-linecap="round" stroke-linejoin="round"/>
<path d="M124.704 162.259L123.906 161.074" stroke="#263238" stroke-width="0.5" stroke-linecap="round" stroke-linejoin="round"/>
<path d="M127.831 156.656L99.8838 158.082" stroke="#263238" stroke-width="0.5" stroke-linecap="round" stroke-linejoin="round"/>
<path d="M127.195 155.857L99.6191 157.212" stroke="#263238" stroke-width="0.5" stroke-linecap="round" stroke-linejoin="round"/>
<path d="M126.584 155.086L99.3672 156.373" stroke="#263238" stroke-width="0.5" stroke-linecap="round" stroke-linejoin="round"/>
<path d="M122.338 156.309L123.234 156.266L123.507 156.645L122.602 156.688L122.338 156.309Z" fill="#D1D1D1" stroke="#263238" stroke-width="0.5" stroke-linecap="round" stroke-linejoin="round"/>
<path d="M117.104 156.571L118.024 156.523L118.264 156.91L117.34 156.958L117.104 156.571Z" fill="#D1D1D1" stroke="#263238" stroke-width="0.5" stroke-linecap="round" stroke-linejoin="round"/>
<path d="M120.214 155.624L121.11 155.58L121.367 155.951L120.467 155.995L120.214 155.624Z" fill="#D1D1D1" stroke="#263238" stroke-width="0.5" stroke-linecap="round" stroke-linejoin="round"/>
<path d="M115.243 155.858L116.159 155.814L116.384 156.194L115.464 156.237L115.243 155.858Z" fill="#D1D1D1" stroke="#263238" stroke-width="0.5" stroke-linecap="round" stroke-linejoin="round"/>
<path d="M110.387 156.092L111.323 156.049L111.516 156.432L110.576 156.475L110.387 156.092Z" fill="#D1D1D1" stroke="#263238" stroke-width="0.5" stroke-linecap="round" stroke-linejoin="round"/>
<path d="M105.353 156.333L106.304 156.289L106.47 156.676L105.51 156.723L105.353 156.333Z" fill="#D1D1D1" stroke="#263238" stroke-width="0.5" stroke-linecap="round" stroke-linejoin="round"/>
<path d="M121.908 156.112L121.359 155.326" stroke="#263238" stroke-width="0.5" stroke-linecap="round" stroke-linejoin="round"/>
<path d="M117.033 156.348L116.543 155.551" stroke="#263238" stroke-width="0.5" stroke-linecap="round" stroke-linejoin="round"/>
<path d="M112.049 156.593L111.627 155.783" stroke="#263238" stroke-width="0.5" stroke-linecap="round" stroke-linejoin="round"/>
<path d="M106.955 156.845L106.6 156.02" stroke="#263238" stroke-width="0.5" stroke-linecap="round" stroke-linejoin="round"/>
<path d="M125.976 154.318L99.1182 155.538" stroke="#263238" stroke-width="0.5" stroke-linecap="round" stroke-linejoin="round"/>
<path d="M122.911 154.686L123.784 154.646L124.048 155.002L123.176 155.045L122.911 154.686Z" fill="#D1D1D1" stroke="#263238" stroke-width="0.5" stroke-linecap="round" stroke-linejoin="round"/>
<path d="M114.777 155.063L115.678 155.02L115.899 155.387L114.991 155.43L114.777 155.063Z" fill="#D1D1D1" stroke="#263238" stroke-width="0.5" stroke-linecap="round" stroke-linejoin="round"/>
<path d="M109.984 155.278L110.904 155.238L111.098 155.609L110.17 155.653L109.984 155.278Z" fill="#D1D1D1" stroke="#263238" stroke-width="0.5" stroke-linecap="round" stroke-linejoin="round"/>
<path d="M103.662 155.569L104.61 155.525L104.76 155.904L103.808 155.948L103.662 155.569Z" fill="#D1D1D1" stroke="#263238" stroke-width="0.5" stroke-linecap="round" stroke-linejoin="round"/>
<path d="M124.584 155.156L124.02 154.406" stroke="#263238" stroke-width="0.5" stroke-linecap="round" stroke-linejoin="round"/>
<path d="M116.534 155.539L116.068 154.77" stroke="#263238" stroke-width="0.5" stroke-linecap="round" stroke-linejoin="round"/>
<path d="M111.619 155.768L111.212 154.99" stroke="#263238" stroke-width="0.5" stroke-linecap="round" stroke-linejoin="round"/>
<path d="M105.238 156.073L104.914 155.279" stroke="#263238" stroke-width="0.5" stroke-linecap="round" stroke-linejoin="round"/>
<path d="M125.212 170.878L125.082 170.661L126.014 170.586L125.453 169.674L125.899 169.639L127.222 171.779L125.591 171.917L125.461 171.692L126.646 171.593L126.16 170.803L125.212 170.878Z" fill="#263238"/>
<path d="M124.948 171.432C125.15 171.768 124.948 172.013 124.332 172.068C123.716 172.123 123.25 171.93 123.061 171.59L122.429 170.469C122.248 170.149 122.429 169.912 123.057 169.865C123.685 169.817 124.103 169.999 124.289 170.319L124.948 171.432ZM123.839 170.343C123.767 170.238 123.667 170.157 123.549 170.11C123.432 170.063 123.303 170.052 123.179 170.078C122.852 170.102 122.765 170.228 122.875 170.422L123.527 171.563C123.598 171.672 123.701 171.757 123.821 171.807C123.942 171.857 124.074 171.87 124.202 171.843C124.53 171.815 124.621 171.681 124.506 171.484L123.839 170.343Z" fill="#263238"/>
<path d="M121.991 172.221C121.332 172.276 120.961 172.118 120.787 171.787L120.688 171.609C120.562 171.368 120.641 171.214 120.965 171.116C120.814 171.125 120.663 171.093 120.529 171.024C120.394 170.954 120.282 170.85 120.202 170.721L120.025 170.389C119.98 170.286 119.904 170.199 119.808 170.14L120.27 170.101C120.363 170.163 120.438 170.251 120.483 170.354L120.664 170.689C120.799 170.934 121.059 170.993 121.454 170.962L121.778 170.938L121.276 170.026L121.727 169.986L122.939 172.158L121.991 172.221ZM121.529 171.167C121.166 171.199 120.98 171.277 121.107 171.518L121.221 171.728C121.328 171.929 121.521 172.02 121.869 171.992L122.323 171.957L121.873 171.139L121.529 171.167Z" fill="#263238"/>
<path d="M117.904 170.279L118.346 170.243L119.926 171.921L119.026 170.184L119.42 170.152L120.565 172.34L119.91 172.395L118.331 170.689L118.548 172.514L117.884 172.569L116.814 170.362L117.249 170.326L118.117 172.087L117.904 170.279Z" fill="#263238"/>
<path d="M136.565 167.768L123.547 168.77" stroke="#263238" stroke-width="0.5" stroke-miterlimit="10"/>
<path d="M120.693 168.99L112.527 169.618" stroke="#263238" stroke-width="0.5" stroke-miterlimit="10"/>
<path d="M110.257 169.797L103.529 170.314" stroke="#263238" stroke-width="0.5" stroke-miterlimit="10"/>
<path d="M123.898 91.4102C121.096 92.2395 118.367 93.2959 115.736 94.5689C111.393 96.6774 102.841 99.8362 98.7581 101.416C94.6754 102.995 92.18 107.074 91.3903 109.048C90.6006 111.022 87.1773 119.444 87.1773 119.444C87.1773 119.444 79.9398 130.764 78.0959 133.528C76.2519 136.292 73.7526 140.11 73.6223 143.664C73.492 147.218 75.4622 149.192 80.0701 149.192C84.6779 149.192 86.6522 147.612 88.887 145.243C91.1218 142.874 98.3633 131.29 99.4175 129.975C100.472 128.66 103.366 123.657 103.366 123.657C103.366 123.657 104.815 136.687 104.815 140.766V150.376H146.274C146.274 150.376 148.248 135.897 148.643 134.713C149.038 133.528 152.062 124.972 152.062 124.972C152.062 124.972 162.988 142.61 164.812 144.979C166.636 147.348 171.844 152.339 176.945 150.341C182.047 148.343 181.001 142.87 178.237 136.292C175.473 129.714 170.62 118.524 170.62 117.991C170.62 117.458 168.646 109.699 160.619 103.642C152.591 97.5855 144.694 96.1404 142.851 95.2204C141.007 94.3004 135.084 91.4102 123.898 91.4102Z" fill="#91D2FF" stroke="#263238" stroke-linecap="round" stroke-linejoin="round"/>
<path d="M98.1023 115.1L103.235 123.131C103.235 123.131 99.0223 118.787 96.3887 118.128" stroke="#263238" stroke-linecap="round" stroke-linejoin="round"/>
<path d="M103.236 123.131L100.208 122.077C100.208 122.077 97.4439 120.498 95.2051 121.157" stroke="#263238" stroke-linecap="round" stroke-linejoin="round"/>
<path d="M118.979 103.914C119.275 106.082 119.958 108.775 121.529 110.626" stroke="#263238" stroke-linecap="round" stroke-linejoin="round"/>
<path d="M118.765 100.359C118.765 100.359 118.737 101.114 118.808 102.251" stroke="#263238" stroke-linecap="round" stroke-linejoin="round"/>
<path d="M120.207 112.203C120.578 112.582 120.974 112.935 121.392 113.261" stroke="#263238" stroke-linecap="round" stroke-linejoin="round"/>
<path d="M116.527 106.281C117.246 108.23 118.306 110.035 119.658 111.612" stroke="#263238" stroke-linecap="round" stroke-linejoin="round"/>
<path d="M142.522 135.689C141.626 137.146 140.777 138.323 140.086 138.923" stroke="#263238" stroke-linecap="round" stroke-linejoin="round"/>
<path d="M149.169 122.602C149.169 122.602 146.109 129.519 143.246 134.447" stroke="#263238" stroke-linecap="round" stroke-linejoin="round"/>
<path d="M135.713 140.021C135.318 140.499 135.014 140.898 134.824 141.159" stroke="#263238" stroke-linecap="round" stroke-linejoin="round"/>
<path d="M140.746 134.053C140.746 134.053 138.322 136.872 136.533 139.055" stroke="#263238" stroke-linecap="round" stroke-linejoin="round"/>
<path d="M152.062 124.97C152.062 124.97 157.855 115.758 158.119 114.969" stroke="#263238" stroke-linecap="round" stroke-linejoin="round"/>
<path d="M156.492 121.42C158.214 120.026 160.8 118.262 163.382 117.732" stroke="#263238" stroke-linecap="round" stroke-linejoin="round"/>
<path d="M154.432 123.261C154.432 123.261 154.902 122.775 155.691 122.076" stroke="#263238" stroke-linecap="round" stroke-linejoin="round"/>
<path d="M161.673 116.283C160.007 117.152 158.422 118.165 156.935 119.312" stroke="#263238" stroke-linecap="round" stroke-linejoin="round"/>
<path d="M164.042 135.764C165.165 135.231 166.404 134.987 167.646 135.056C168.887 135.125 170.092 135.504 171.149 136.159" stroke="#263238" stroke-linecap="round" stroke-linejoin="round"/>
<path d="M165.227 134.052C165.227 134.052 169.83 133.132 173.254 135.236" stroke="#263238" stroke-linecap="round" stroke-linejoin="round"/>
<path d="M78.8857 135.63C79.6794 134.911 80.6207 134.374 81.6437 134.056C82.6667 133.738 83.7468 133.647 84.8084 133.791" stroke="#263238" stroke-linecap="round" stroke-linejoin="round"/>
<path d="M87.0352 134.098C87.3587 134.328 87.6697 134.576 87.967 134.84" stroke="#263238" stroke-linecap="round" stroke-linejoin="round"/>
<path d="M83.4941 132.605C84.2482 132.699 84.9795 132.927 85.6539 133.277" stroke="#263238" stroke-linecap="round" stroke-linejoin="round"/>
<path d="M122.979 94.831C122.979 94.831 121.794 99.8337 122.189 103.518C122.584 107.202 126.663 112.864 130.086 114.178C133.509 115.493 139.823 111.679 142.062 109.44C144.3 107.202 144.431 100.094 144.431 100.094C144.431 100.094 141.019 92.7265 133.77 90.618C126.52 88.5095 122.979 94.831 122.979 94.831Z" fill="white" stroke="#263238" stroke-linecap="round" stroke-linejoin="round"/>
<path d="M150.195 93.8019C150.195 93.8019 150.882 95.859 149.559 98.4611C148.236 101.063 145.682 103.262 144.994 103.037C144.307 102.812 147.131 93.3952 147.131 93.3952C147.131 93.3952 149.006 92.341 150.195 93.8019Z" fill="white" stroke="#263238" stroke-linecap="round" stroke-linejoin="round"/>
<path d="M121.157 86.2834C121.157 86.2834 119.858 88.0168 120.289 90.907C120.719 93.7973 122.456 96.6836 123.179 96.6836C123.901 96.6836 124.19 86.8638 124.19 86.8638C124.19 86.8638 122.745 85.2726 121.157 86.2834Z" fill="white" stroke="#263238" stroke-linecap="round" stroke-linejoin="round"/>
<path d="M123.326 90.039C123.326 90.039 122.315 98.8519 123.468 102.465C124.621 106.078 126.935 111.708 130.548 113.153C134.16 114.598 142.393 108.387 143.692 105.931C144.991 103.476 148.604 93.0753 148.604 93.0753C149.554 91.8106 150.171 90.3275 150.399 88.7621C150.627 87.1967 150.457 85.5992 149.907 84.1163C148.027 78.9162 137.915 75.7376 133.718 75.8837C129.521 76.0298 125.34 79.4966 125.051 82.2408C124.763 84.9849 123.326 90.039 123.326 90.039Z" fill="white" stroke="#263238" stroke-linecap="round" stroke-linejoin="round"/>
<path d="M132.715 95.384C132.715 95.384 129.537 91.4829 126.646 92.7859" stroke="#263238" stroke-width="2" stroke-linecap="round" stroke-linejoin="round"/>
<path d="M137.77 97.1172C137.77 97.1172 142.113 96.1063 144.127 97.9858" stroke="#263238" stroke-width="2" stroke-linecap="round" stroke-linejoin="round"/>
<path d="M127.08 96.252C127.08 96.252 128.008 99.0159 131.775 98.696" stroke="#263238" stroke-linecap="round" stroke-linejoin="round"/>
<path d="M137.48 100.15C137.48 100.15 138.349 102.03 142.392 101.307" stroke="#263238" stroke-linecap="round" stroke-linejoin="round"/>
<path d="M130.362 102.779C130.234 103.364 130.318 103.976 130.599 104.505C131.069 105.212 132.246 106.23 133.11 106.23C133.975 106.23 135.779 105.918 136.249 105.441C136.551 105.131 136.816 104.788 137.039 104.418" stroke="#263238" stroke-linecap="round" stroke-linejoin="round"/>
<path d="M128.4 105.371C128.4 105.371 130.375 107.645 132.013 108.194C133.652 108.743 136.72 107.799 137.585 107.487" stroke="#263238" stroke-linecap="round" stroke-linejoin="round"/>
<path d="M157.011 80.0958C156.876 79.1481 157.552 77.7938 157.686 76.9844C157.82 76.1749 156.738 74.6824 155.794 73.4663C155.065 72.4928 154.683 71.3028 154.709 70.0864C154.709 69.273 153.765 68.5979 152.952 68.0569C151.963 67.3987 151.055 66.626 150.247 65.755C149.706 65.0798 147.408 65.214 147.001 65.214C146.595 65.214 144.838 63.7294 143.756 63.1885C142.674 62.6475 140.51 63.5833 140.51 63.5833C140.51 63.5833 137.94 62.3672 137.399 62.3672C136.858 62.3672 134.556 63.3148 134.556 63.3148C133.794 63.6417 133 63.8891 132.187 64.0532C132.039 64.0147 131.889 63.9896 131.737 63.9782C131.433 63.5833 128.728 65.2061 128.728 65.2061L126.296 65.601L125.391 67.0658C124.527 67.1606 122.501 67.4844 122.359 68.4755C122.177 69.739 122.359 70.2799 121.818 70.9985C121.277 71.7171 119.295 71.5395 119.844 73.1623C120.393 74.7851 121.644 76.0486 120.021 76.9528C118.399 77.857 117.498 79.4759 118.399 80.3761C119.299 81.2763 120.021 82.5399 119.844 83.2624C119.666 83.985 119.481 85.6078 120.203 85.9671C120.84 86.3358 121.443 86.7585 122.008 87.2306L122.908 89.2048L123.449 90.4684C123.449 90.4684 124.349 87.582 125.072 87.2227C125.794 86.8634 125.072 88.4862 126.517 88.4862C127.962 88.4862 129.399 81.6317 130.465 81.4501C131.531 81.2685 134.808 87.4044 138.042 87.4044C141.276 87.4044 145.272 84.5654 146.899 84.5654C148.525 84.5654 147.258 91.416 147.258 92.8572C147.258 94.2984 147.617 95.7395 147.617 96.2844C147.617 96.8293 149.422 93.7574 150.685 93.0349C151.033 92.8374 151.451 92.5966 151.889 92.3202C151.889 92.3834 151.87 92.4189 151.87 92.4189C151.87 92.4189 156.335 89.576 156.876 88.6323C157.417 87.6886 157.011 86.8713 157.011 86.0619C157.011 85.2524 157.552 84.5733 157.686 83.3572C157.82 82.1411 157.145 81.0394 157.011 80.0958Z" fill="#263238" stroke="#263238" stroke-linecap="round" stroke-linejoin="round"/>
<path d="M190.071 150.342H16.1055" stroke="#263238" stroke-linecap="round" stroke-linejoin="round"/>
<path d="M171.158 138.833C171.158 138.833 166.226 137.021 162.68 138.438C159.135 139.856 150.811 143.224 145.145 144.286C139.829 145.228 134.426 145.584 129.032 145.348C124.246 145.17 121.589 145.881 120.527 146.766C119.465 147.65 115.567 152.609 115.919 153.142C116.27 153.675 116.665 153.877 118.402 153.498C119.093 153.344 121.06 151.196 121.06 151.196L124.613 149.616C124.613 149.616 120.894 153.691 121.423 154.22C121.952 154.749 122.84 154.043 123.551 153.513C124.262 152.984 125.675 151.741 125.675 151.741L128.866 150.323C128.866 150.323 125.478 152.609 125.478 153.663C125.478 154.718 126.303 154.098 127.709 153.537C128.375 153.117 129.01 152.648 129.608 152.135L132.273 151.385C133.994 152.283 135.912 152.739 137.852 152.712C139.881 152.703 141.841 151.973 143.38 150.651C143.38 150.651 155.782 152.424 161.982 151.891C168.181 151.358 175.975 152.068 179.165 149.766C182.356 147.464 178.281 141.439 177.925 140.906" fill="white"/>
<path d="M171.158 138.833C171.158 138.833 166.226 137.021 162.68 138.438C159.135 139.856 150.811 143.224 145.145 144.286C139.829 145.228 134.426 145.584 129.032 145.348C124.246 145.17 121.589 145.881 120.527 146.766C119.465 147.65 115.567 152.609 115.919 153.142C116.27 153.675 116.665 153.877 118.402 153.498C119.093 153.344 121.06 151.196 121.06 151.196L124.613 149.616C124.613 149.616 120.894 153.691 121.423 154.22C121.952 154.749 122.84 154.043 123.551 153.513C124.262 152.984 125.675 151.741 125.675 151.741L128.866 150.323C128.866 150.323 125.478 152.609 125.478 153.663C125.478 154.718 126.303 154.098 127.709 153.537C128.375 153.117 129.01 152.648 129.608 152.135L132.273 151.385C133.994 152.283 135.912 152.739 137.852 152.712C139.881 152.703 141.841 151.973 143.38 150.651C143.38 150.651 155.782 152.424 161.982 151.891C168.181 151.358 175.975 152.068 179.165 149.766C182.356 147.464 178.281 141.439 177.925 140.906" stroke="#263238" stroke-linecap="round" stroke-linejoin="round"/>
<path d="M116.74 153.633C116.74 153.633 117.4 151.734 118.059 150.908C118.718 150.083 121.771 148.105 122.845 147.529C123.27 147.282 123.711 147.062 124.163 146.869" stroke="#263238" stroke-linecap="round" stroke-linejoin="round"/>
<path d="M124.593 149.6L127.708 147.527" stroke="#263238" stroke-linecap="round" stroke-linejoin="round"/>
<path d="M128.846 150.307L131.752 148.846" stroke="#263238" stroke-linecap="round" stroke-linejoin="round"/>
<path d="M171.157 138.832C168.523 138.204 164.804 137.588 162.68 138.437C159.521 139.696 152.619 142.488 147.143 143.842C147.919 144.696 148.367 145.797 148.41 146.95C148.472 148.395 148.274 149.839 147.826 151.214C151.999 151.684 158.159 152.229 161.973 151.901C168.172 151.368 175.966 152.079 179.157 149.777C182.347 147.475 178.272 141.449 177.917 140.916" fill="white"/>
<path d="M171.157 138.832C168.523 138.204 164.804 137.588 162.68 138.437C159.521 139.696 152.619 142.488 147.143 143.842C147.919 144.696 148.367 145.797 148.41 146.95C148.472 148.395 148.274 149.839 147.826 151.214C151.999 151.684 158.159 152.229 161.973 151.901C168.172 151.368 175.966 152.079 179.157 149.777C182.347 147.475 178.272 141.449 177.917 140.916" stroke="#263238" stroke-linecap="round" stroke-linejoin="round"/>
<path d="M77.6219 138.3C77.9535 137.404 80.3858 135.26 83.6591 135.832C86.9323 136.405 90.6478 140.041 92.7721 142.837C94.8964 145.632 96.5902 146.39 96.5902 146.39L94.0869 154.038C94.0869 154.038 92.547 153.667 89.6568 152.933C86.7665 152.198 80.2989 151.243 77.3257 150.319C74.3525 149.395 73.0851 146.197 73.7326 143.212C74.0629 141.553 74.6279 139.949 75.4107 138.45" fill="white"/>
<path d="M77.6219 138.3C77.9535 137.404 80.3858 135.26 83.6591 135.832C86.9323 136.405 90.6478 140.041 92.7721 142.837C94.8964 145.632 96.5902 146.39 96.5902 146.39L94.0869 154.038C94.0869 154.038 92.547 153.667 89.6568 152.933C86.7665 152.198 80.2989 151.243 77.3257 150.319C74.3525 149.395 73.0851 146.197 73.7326 143.212C74.0629 141.553 74.6279 139.949 75.4107 138.45" stroke="#263238" stroke-linecap="round" stroke-linejoin="round"/>
<path d="M92.7719 142.836C92.5469 142.544 92.306 142.244 92.0533 141.936C90.2015 142.674 87.8521 144.036 86.6084 146.437C85.3646 148.837 85.3567 150.82 85.5976 152.083C87.177 152.383 88.6339 152.667 89.6487 152.924C92.539 153.659 94.0789 154.03 94.0789 154.03L96.5822 146.382C96.5822 146.382 94.8922 145.635 92.7719 142.836Z" fill="white" stroke="#263238" stroke-linecap="round" stroke-linejoin="round"/>
<path d="M91.7496 150.306C91.5837 151.491 91.2205 152.845 92.9341 153.595C94.6477 154.345 96.3535 156.197 97.4314 156.632C98.7353 157.131 100.098 157.46 101.486 157.611C102.584 157.682 103.938 158.041 106.09 157.441C108.242 156.841 108.183 156.288 108.183 156.288C108.183 156.288 109.526 156.339 110.189 156.012C110.852 155.684 110.386 154.863 109.581 154.539C108.775 154.215 107.788 153.781 107.788 153.781C107.788 153.781 109.012 152.652 108.704 152.371L108.4 152.091C108.4 152.091 109.814 152.257 109.936 151.807C110.059 151.356 109.17 149.366 108.815 147.692C108.459 146.018 107.713 146.243 106.351 145.975C104.989 145.706 103.133 146.05 100.685 145.528C98.2369 145.007 94.6912 145.884 93.2895 146.255" fill="white"/>
<path d="M91.7496 150.306C91.5837 151.491 91.2205 152.845 92.9341 153.595C94.6477 154.345 96.3535 156.197 97.4314 156.632C98.7353 157.131 100.098 157.46 101.486 157.611C102.584 157.682 103.938 158.041 106.09 157.441C108.242 156.841 108.183 156.288 108.183 156.288C108.183 156.288 109.526 156.339 110.189 156.012C110.852 155.684 110.386 154.863 109.581 154.539C108.775 154.215 107.788 153.781 107.788 153.781C107.788 153.781 109.012 152.652 108.704 152.371L108.4 152.091C108.4 152.091 109.814 152.257 109.936 151.807C110.059 151.356 109.17 149.366 108.815 147.692C108.459 146.018 107.713 146.243 106.351 145.975C104.989 145.706 103.133 146.05 100.685 145.528C98.2369 145.007 94.6912 145.884 93.2895 146.255" stroke="#263238" stroke-linecap="round" stroke-linejoin="round"/>
<path d="M101.309 138.916L103.544 146.813L105.329 147.662L102.683 138.517C102.655 138.42 102.607 138.33 102.542 138.253C102.477 138.176 102.396 138.114 102.305 138.071C102.214 138.027 102.114 138.004 102.014 138.002C101.913 138 101.813 138.02 101.72 138.059C101.558 138.127 101.427 138.252 101.351 138.41C101.276 138.568 101.261 138.748 101.309 138.916Z" fill="#263238"/>
<path d="M102.577 146.209C102.577 146.209 106.486 148.294 106.754 148.4C106.94 148.475 108.681 151.385 109.234 152.783C109.491 153.423 109.202 153.79 108.602 154.122L107.793 153.794L102.932 150.734L101.151 149.885" fill="white"/>
<path d="M102.577 146.209C102.577 146.209 106.486 148.294 106.754 148.4C106.94 148.475 108.681 151.385 109.234 152.783C109.491 153.423 109.202 153.79 108.602 154.122L107.793 153.794L102.932 150.734L101.151 149.885" stroke="#263238" stroke-linecap="round" stroke-linejoin="round"/>
<path d="M99.8477 153.02C99.8477 153.02 103.654 155.282 104.456 155.697C105.257 156.111 108.183 156.301 108.183 156.301" stroke="#263238" stroke-linecap="round" stroke-linejoin="round"/>
<path d="M98.4238 155.242C98.4238 155.242 101.618 157.003 102.246 157.216C102.874 157.43 104.22 157.801 104.22 157.801" stroke="#263238" stroke-linecap="round" stroke-linejoin="round"/>
<path d="M73.6914 169.921L88.2691 156.512L56.1523 154.439L73.6914 169.921Z" fill="#CCCCCC" stroke="#0D4130" stroke-linecap="round" stroke-linejoin="round"/>
<path d="M73.0746 167.22L79.6369 161.001L72.0361 160.543L73.0746 167.22Z" fill="#0D4130" stroke="#0D4130" stroke-linecap="round" stroke-linejoin="round"/>
<path d="M28.3779 132.264L76.4582 134.392L73.6903 169.92L25.1875 167.579L28.3779 132.264Z" fill="#A6A6A6" stroke="#0D4130" stroke-linecap="round" stroke-linejoin="round"/>
<path d="M25.4014 165.214C28.2443 164.795 33.0416 163.678 41.1439 161.056C60.4321 154.813 62.8604 137.365 76.4589 134.392L28.3785 132.264L25.4014 165.214Z" fill="#0D4130" stroke="#0D4130" stroke-linecap="round" stroke-linejoin="round"/>
<path d="M50.5052 153.111C52.542 153.111 54.1931 151.842 54.1931 150.276C54.1931 148.711 52.542 147.441 50.5052 147.441C48.4685 147.441 46.8174 148.711 46.8174 150.276C46.8174 151.842 48.4685 153.111 50.5052 153.111Z" fill="white" stroke="#0D4130" stroke-linecap="round" stroke-linejoin="round"/>
</g>
<defs>
<linearGradient id="paint0_linear_211_36818" x1="100" y1="0" x2="100" y2="200" gradientUnits="userSpaceOnUse">
<stop stop-color="#FFB8AE"/>
<stop offset="1" stop-color="#FE8271"/>
</linearGradient>
</defs>
</svg>
