<svg width="31" height="30" viewBox="0 0 31 30" fill="none" xmlns="http://www.w3.org/2000/svg">
<path d="M0.5 15C0.5 6.71573 7.21573 0 15.5 0C23.7843 0 30.5 6.71573 30.5 15C30.5 23.2843 23.7843 30 15.5 30C7.21573 30 0.5 23.2843 0.5 15Z" fill="#005E9E"/>
<path d="M23.1656 11.2958C22.9816 10.5889 22.4395 10.0322 21.751 9.84333C20.5034 9.5 15.5 9.5 15.5 9.5C15.5 9.5 10.4966 9.5 9.24891 9.84333C8.56045 10.0322 8.01827 10.5889 7.83427 11.2958C7.5 12.5769 7.5 15.25 7.5 15.25C7.5 15.25 7.5 17.923 7.83427 19.2042C8.01827 19.9111 8.56045 20.4678 9.24891 20.6568C10.4966 21 15.5 21 15.5 21C15.5 21 20.5034 21 21.751 20.6568C22.4395 20.4678 22.9816 19.9111 23.1656 19.2042C23.5 17.923 23.5 15.25 23.5 15.25C23.5 15.25 23.5 12.5769 23.1656 11.2958Z" fill="white"/>
<path d="M14 18V13L18 15.5001L14 18Z" fill="#005E9E"/>
</svg>
