<svg width="141" height="106" viewBox="0 0 141 106" fill="none" xmlns="http://www.w3.org/2000/svg">
<path d="M20.4258 47.0738H50.3906H20.4258ZM20.4258 34.0391H50.3906H20.4258ZM20.4258 60.1085H50.3906H20.4258ZM20.4258 73.1432H40.8343H20.4258Z" fill="white"/>
<path d="M20.4258 73.1432H40.8343M20.4258 47.0738H50.3906H20.4258ZM20.4258 34.0391H50.3906H20.4258ZM20.4258 60.1085H50.3906H20.4258Z" stroke="#005E9E" stroke-width="3.2377" stroke-linecap="round" stroke-linejoin="round"/>
<path d="M13.1641 47.0723H13.165H13.1641Z" fill="white"/>
<path d="M13.1641 47.0723H13.165" stroke="#0BB8E4" stroke-width="3.2377" stroke-linecap="round" stroke-linejoin="round"/>
<path d="M13.1641 34.0391H13.165H13.1641Z" fill="white"/>
<path d="M13.1641 34.0391H13.165" stroke="#0BB8E4" stroke-width="3.2377" stroke-linecap="round" stroke-linejoin="round"/>
<path d="M13.1641 60.1074H13.165H13.1641Z" fill="white"/>
<path d="M13.1641 60.1074H13.165" stroke="#0BB8E4" stroke-width="3.2377" stroke-linecap="round" stroke-linejoin="round"/>
<path d="M13.1641 73.1406H13.165H13.1641Z" fill="white"/>
<path d="M13.1641 73.1406H13.165" stroke="#0BB8E4" stroke-width="3.2377" stroke-linecap="round" stroke-linejoin="round"/>
<path d="M25.1691 7.56271V2H38.3846V7.56271H25.1691ZM46.6661 17.6098H16.8876V7.56271H46.6661V17.6098Z" fill="white"/>
<path d="M46.6653 9.17726H61.5537V61.1983M16.8884 9.17726H2V95.2936H40.6269M25.1691 7.56271V2H38.3846V7.56271H25.1691ZM46.6661 17.6098H16.8876V7.56271H46.6661V17.6098Z" stroke="#005E9E" stroke-width="3.2377" stroke-linecap="round" stroke-linejoin="round"/>
<path d="M82.2266 51.8942V94.6451C82.2266 97.4569 84.4521 99.7365 87.1972 99.7365H135.718V56.9622H87.1743C84.4417 56.9622 82.2266 54.6932 82.2266 51.8942C82.2266 49.0952 84.4417 46.8262 87.1743 46.8262H128.399L128.364 56.9622" fill="white"/>
<path d="M82.2266 51.8942V94.6451C82.2266 97.4569 84.4521 99.7365 87.1972 99.7365H135.718V56.9622H87.1743C84.4417 56.9622 82.2266 54.6932 82.2266 51.8942ZM82.2266 51.8942C82.2266 49.0952 84.4417 46.8262 87.1743 46.8262H128.399L128.364 56.9622" stroke="#005E9E" stroke-width="3.19" stroke-linejoin="round"/>
<path d="M121.702 83.5289H138.854V71.7188H121.702C118.519 71.7188 115.938 74.3626 115.938 77.6239C115.938 80.8852 118.519 83.5289 121.702 83.5289Z" fill="white" stroke="#00C0F3" stroke-width="3.19" stroke-linecap="round" stroke-linejoin="round"/>
<path d="M124.033 77.6238C124.033 78.9823 122.958 80.0834 121.632 80.0834C120.306 80.0834 119.23 78.9823 119.23 77.6238C119.23 76.2654 120.306 75.1641 121.632 75.1641C122.958 75.1641 124.033 76.2654 124.033 77.6238Z" fill="#00C0F3"/>
<path d="M83.3052 48.2654L91.2914 30.1121C91.2914 30.1121 84.8296 34.5944 80.1892 34.5944C75.4927 34.5944 73.6841 30.056 69.3472 30.056C65.0103 30.056 62.5818 34.5944 58.592 34.5944C54.6022 34.5944 47.75 30 47.75 30L55.955 48.0413L83.3052 48.2654ZM56.1738 48.4895L42.2799 76.3918C34.6118 91.7912 46.9163 104.294 69.7395 104.294C92.5627 104.294 104.916 91.7912 97.3085 76.3918L83.524 48.4895" fill="white"/>
<path d="M56.1738 48.4895L42.2799 76.3918C34.6118 91.7912 46.9163 104.294 69.7395 104.294C92.5627 104.294 104.916 91.7912 97.3085 76.3918L83.524 48.4895M83.3052 48.2654L91.2914 30.1121C91.2914 30.1121 84.8296 34.5944 80.1892 34.5944C75.4927 34.5944 73.6841 30.056 69.3472 30.056C65.0103 30.056 62.5818 34.5944 58.592 34.5944C54.6022 34.5944 47.75 30 47.75 30L55.955 48.0413L83.3052 48.2654Z" stroke="#005E9E" stroke-width="3.19419" stroke-linecap="round" stroke-linejoin="round"/>
<path d="M69.2997 67.9902V63.0899V67.9902Z" fill="white"/>
<path d="M55.625 48.7129H83.9598M83.9598 48.7129C83.9598 48.7129 79.2556 60.7031 85.929 67.5386M83.9598 48.7129C83.9598 48.7129 91.0708 52.0746 89.1016 60.0307M75.7569 71.9357C74.0875 69.0106 70.4278 67.2248 67.1777 68.3041C65.396 68.896 63.8985 70.5117 63.7005 72.4198C62.9494 79.6659 76.0842 75.9306 75.9081 83.332C75.8779 84.6029 75.2079 85.808 74.2513 86.6179C73.2947 87.4279 72.0765 87.868 70.8453 88.0283C67.7582 88.4299 64.6125 87.052 62.6894 84.5675M69.2997 92.9938V88.0825M69.2997 67.9902V63.0899" stroke="#00C0F3" stroke-width="3.19419" stroke-linecap="round" stroke-linejoin="round"/>
</svg>
