<svg width="103" height="116" viewBox="0 0 103 116" fill="none" xmlns="http://www.w3.org/2000/svg">
<path d="M68.8976 100.753L62.5553 68.2168M86 85.1327C80.8482 97.0743 63.9929 105.832 44 105.832C24.0071 105.832 7.15176 97.0743 2 85.1327H86ZM25.4447 68.2168L19.1024 100.753L25.4447 68.2168Z" stroke="#0BB8E4" stroke-width="3.90378" stroke-linecap="round" stroke-linejoin="round"/>
<path d="M73.6307 68.2147H14.3685V66.4496C14.3685 60.3468 19.3163 55.399 25.419 55.399H63.8816L70.5638 11.8265C71.5332 5.50361 77.4427 1.16601 83.7617 2.13547L73.6346 68.1878M73.6307 68.2147L73.6346 68.1878M73.6307 68.2147H73.6346V68.1878M76.9573 46.5598L32.8988 34.6004M32.8988 34.6004C30.2561 33.8831 27.4677 33.9016 24.8349 34.6539C22.202 35.4062 19.8247 36.8637 17.96 38.8689M32.8988 34.6004L34.9246 68.2157M52.7322 39.984L49.3485 68.2157" stroke="#005E9E" stroke-width="3.90378" stroke-linecap="round" stroke-linejoin="round"/>
<path d="M53.9983 76.7732V109.649C53.9983 111.965 55.8307 113.842 58.091 113.842H98.0417V78.6222H58.0721C55.8222 78.6222 53.9983 79.0778 53.9983 76.7732C53.498 72.499 55.8222 70.2764 58.0721 70.2764H92.0153L91.9872 78.6222" fill="white"/>
<path d="M53.9983 76.7732V109.649C53.9983 111.965 55.8307 113.842 58.091 113.842H98.0417V78.6222H58.0721C55.8222 78.6222 53.9983 79.0778 53.9983 76.7732ZM53.9983 76.7732C53.498 72.499 55.8222 70.2764 58.0721 70.2764H92.0153L91.9872 78.6222" stroke="#005E9E" stroke-width="3.19" stroke-linejoin="round"/>
<path d="M86.5007 100.497H100.623V90.7725H86.5007C83.8791 90.7725 81.7539 92.9494 81.7539 95.6347C81.7539 98.3199 83.8791 100.497 86.5007 100.497Z" fill="white" stroke="#00C0F3" stroke-width="3.19" stroke-linecap="round" stroke-linejoin="round"/>
<path d="M88.4192 95.6347C88.4192 96.7532 87.534 97.6599 86.442 97.6599C85.35 97.6599 84.4648 96.7532 84.4648 95.6347C84.4648 94.5162 85.35 93.6094 86.442 93.6094C87.534 93.6094 88.4192 94.5162 88.4192 95.6347Z" fill="#00C0F3"/>
</svg>
