<svg width="123" height="113" viewBox="0 0 123 113" fill="none" xmlns="http://www.w3.org/2000/svg">
<path d="M72.2868 104.35L65.718 70.6523M90 88.1724C84.6643 100.54 67.207 109.611 46.5 109.611C25.793 109.611 8.33575 100.54 3 88.1724H90ZM27.282 70.6523L20.7132 104.35L27.282 70.6523Z" stroke="#0BB8E4" stroke-width="4.0432" stroke-linecap="round" stroke-linejoin="round"/>
<path d="M77.1868 70.6498H15.8081V68.8217C15.8081 62.501 20.9326 57.3765 27.2533 57.3765H67.0896L74.0104 12.2478C75.0145 5.69905 81.135 1.20653 87.6797 2.21062L77.1909 70.622M77.1868 70.6498L77.1909 70.622M77.1868 70.6498H77.1909V70.622M80.6323 48.2215L35.0002 35.835M35.0002 35.835C32.2632 35.0921 29.3752 35.1112 26.6483 35.8904C23.9214 36.6696 21.4592 38.1791 19.5279 40.256M35.0002 35.835L37.0984 70.6508M55.542 41.4109L52.0374 70.6508" stroke="#005E9E" stroke-width="4.0432" stroke-linecap="round" stroke-linejoin="round"/>
<path d="M106.589 62.0522L113.608 46.0985C113.608 46.0985 107.929 50.0377 103.851 50.0377C99.7234 50.0377 98.1339 46.0492 94.3225 46.0492C90.5112 46.0492 88.3769 50.0377 84.8705 50.0377C81.3641 50.0377 75.3422 46 75.3422 46L82.553 61.8553L106.589 62.0522ZM82.7453 62.2492L70.5349 86.7707C63.7959 100.304 74.6095 111.292 94.6673 111.292C114.725 111.292 125.582 100.304 118.896 86.7707L106.782 62.2492" fill="white"/>
<path d="M82.7453 62.2492L70.5349 86.7707C63.7959 100.304 74.6095 111.292 94.6673 111.292C114.725 111.292 125.582 100.304 118.896 86.7707L106.782 62.2492M106.589 62.0522L113.608 46.0985C113.608 46.0985 107.929 50.0377 103.851 50.0377C99.7234 50.0377 98.1339 46.0492 94.3225 46.0492C90.5112 46.0492 88.3769 50.0377 84.8705 50.0377C81.3641 50.0377 75.3422 46 75.3422 46L82.553 61.8553L106.589 62.0522Z" stroke="#005E9E" stroke-width="2.80716" stroke-linecap="round" stroke-linejoin="round"/>
<path d="M94.2795 79.3868V75.0803V79.3868Z" fill="white"/>
<path d="M82.2617 62.4453H107.163M107.163 62.4453C107.163 62.4453 103.029 72.9827 108.894 78.9899M107.163 62.4453C107.163 62.4453 113.413 65.3997 111.682 72.3918M99.9543 82.8543C98.4872 80.2836 95.2709 78.7142 92.4146 79.6628C90.8488 80.1829 89.5328 81.6028 89.3588 83.2797C88.6986 89.6478 100.242 86.3651 100.087 92.8697C100.061 93.9867 99.4719 95.0457 98.6312 95.7575C97.7905 96.4694 96.7198 96.8562 95.6378 96.997C92.9248 97.35 90.1602 96.1391 88.4702 93.9556M94.2795 101.361V97.0447M94.2795 79.3868V75.0803" stroke="#00C0F3" stroke-width="2.80716" stroke-linecap="round" stroke-linejoin="round"/>
</svg>
