<svg width="25" height="22" viewBox="0 0 25 22" fill="none" xmlns="http://www.w3.org/2000/svg">
<path fill-rule="evenodd" clip-rule="evenodd" d="M4.50983 12.1582L23.3 12.1582C23.9627 12.1582 24.5 11.5927 24.5 10.895C24.5 10.1974 23.9627 9.63189 23.3 9.63189L4.50926 9.63189L10.3012 2.87467C10.7552 2.34499 10.6938 1.54756 10.1642 1.09355C9.63448 0.639542 8.83705 0.700885 8.38305 1.23056L0.928558 9.92746C0.669043 10.157 0.503189 10.5 0.500047 10.8839C0.500016 10.8876 0.500001 10.8913 0.500001 10.895C0.500001 11.2846 0.667528 11.633 0.930883 11.8647L8.38304 20.5589C8.83705 21.0885 9.63448 21.1499 10.1642 20.6959C10.6938 20.2419 10.7552 19.4444 10.3012 18.9148L4.50983 12.1582Z" fill="#275FA8"/>
<path d="M4.50983 12.1582L4.32001 12.3209L3.96627 11.9082L4.50983 11.9082L4.50983 12.1582ZM4.50926 9.63189L4.50926 9.88189L3.9657 9.88189L4.31944 9.46919L4.50926 9.63189ZM10.3012 2.87467L10.491 3.03736L10.491 3.03736L10.3012 2.87467ZM10.1642 1.09355L10.0015 1.28336L10.1642 1.09355ZM8.38305 1.23056L8.19323 1.06786L8.38305 1.23056ZM0.928558 9.92746L1.11837 10.0902L1.10712 10.1033L1.09417 10.1147L0.928558 9.92746ZM0.500047 10.8839L0.250055 10.8819L0.500047 10.8839ZM0.930883 11.8647L1.09602 11.677L1.10924 11.6886L1.1207 11.702L0.930883 11.8647ZM8.38304 20.5589L8.19323 20.7216L8.19323 20.7216L8.38304 20.5589ZM10.1642 20.6959L10.0015 20.5061L10.1642 20.6959ZM10.3012 18.9148L10.491 18.7521L10.3012 18.9148ZM4.50983 11.9082L23.3 11.9082L23.3 12.4082L4.50983 12.4082L4.50983 11.9082ZM23.3 11.9082C23.8127 11.9082 24.25 11.4668 24.25 10.895L24.75 10.895C24.75 11.7185 24.1127 12.4082 23.3 12.4082L23.3 11.9082ZM24.25 10.895C24.25 10.3233 23.8127 9.88189 23.3 9.88189L23.3 9.38189C24.1127 9.38189 24.75 10.0716 24.75 10.895L24.25 10.895ZM23.3 9.88189L4.50926 9.88189L4.50926 9.38189L23.3 9.38189L23.3 9.88189ZM4.31944 9.46919L10.1114 2.71197L10.491 3.03736L4.69907 9.79459L4.31944 9.46919ZM10.1114 2.71197C10.4755 2.28712 10.4263 1.64752 10.0015 1.28336L10.3269 0.903737C10.9614 1.4476 11.0348 2.40286 10.491 3.03736L10.1114 2.71197ZM10.0015 1.28336C9.57662 0.919213 8.93701 0.968413 8.57286 1.39326L8.19323 1.06786C8.73709 0.433356 9.69235 0.359872 10.3269 0.903737L10.0015 1.28336ZM8.57286 1.39326L1.11837 10.0902L0.738744 9.76476L8.19323 1.06786L8.57286 1.39326ZM1.09417 10.1147C0.887366 10.2976 0.752596 10.5735 0.750038 10.886L0.250055 10.8819C0.253783 10.4265 0.450721 10.0163 0.762943 9.74018L1.09417 10.1147ZM0.750038 10.886C0.750013 10.889 0.750001 10.892 0.750001 10.895L0.250001 10.895C0.250001 10.8906 0.250019 10.8863 0.250055 10.8819L0.750038 10.886ZM0.750001 10.895C0.750001 11.2122 0.886178 11.4924 1.09602 11.677L0.765744 12.0524C0.448878 11.7736 0.250001 11.357 0.250001 10.895L0.750001 10.895ZM1.1207 11.702L8.57286 20.3962L8.19323 20.7216L0.741069 12.0274L1.1207 11.702ZM8.57286 20.3962C8.93701 20.821 9.57662 20.8702 10.0015 20.5061L10.3269 20.8857C9.69235 21.4296 8.73709 21.3561 8.19323 20.7216L8.57286 20.3962ZM10.0015 20.5061C10.4263 20.1419 10.4755 19.5023 10.1114 19.0775L10.491 18.7521C11.0348 19.3866 10.9614 20.3418 10.3269 20.8857L10.0015 20.5061ZM10.1114 19.0775L4.32001 12.3209L4.69964 11.9955L10.491 18.7521L10.1114 19.0775Z" fill="#275FA8"/>
</svg>
