<svg width="42" height="43" viewBox="0 0 42 43" fill="none" xmlns="http://www.w3.org/2000/svg">
<path d="M8.93296 34.0491C7.42325 32.5394 8.42458 29.3698 7.65614 27.5126C6.85956 25.5873 3.93652 24.0378 3.93652 21.9866C3.93652 19.9354 6.85958 18.3859 7.65615 16.4607C8.42459 14.6035 7.42325 11.4339 8.93296 9.92417C10.4427 8.41446 13.6123 9.41579 15.4695 8.64736C17.3947 7.85077 18.9443 4.92773 20.9955 4.92773C23.0467 4.92773 24.5962 7.85079 26.5214 8.64737C28.3786 9.4158 31.5482 8.41446 33.0579 9.92417C34.5676 11.4339 33.5663 14.6035 34.3347 16.4607C35.1313 18.3859 38.0543 19.9355 38.0543 21.9867C38.0543 24.0379 35.1313 25.5874 34.3347 27.5126C33.5662 29.3698 34.5676 32.5394 33.0579 34.0491C31.5482 35.5588 28.3786 34.5575 26.5214 35.3259C24.5961 36.1225 23.0466 39.0455 20.9954 39.0455C18.9442 39.0455 17.3947 36.1225 15.4695 35.3259C13.6122 34.5575 10.4427 35.5588 8.93296 34.0491Z" stroke="#005E9E" stroke-width="2.21006" stroke-linecap="round" stroke-linejoin="round"/>
<path d="M28.2128 18.0498L18.5897 27.2354L13.7783 22.6426" stroke="#0BB8E4" stroke-width="2.21006" stroke-linecap="round" stroke-linejoin="round"/>
</svg>
