<svg width="166" height="56" viewBox="0 0 166 56" fill="none" xmlns="http://www.w3.org/2000/svg">
<g opacity="0.5">
<path d="M37.62 10.0555C41.5297 6.03563 48.2754 2.31864 59.9769 2.01578C86.271 1.38252 79.2501 19.9949 86.2711 24.4828C93.292 28.9707 95.2468 21.9222 102.295 26.4101C109.344 30.898 106.15 39.8738 111.932 41.1678C117.714 42.4619 125.396 35.3859 132.444 39.8738C139.492 44.3617 139.52 48.1337 142.714 48.1337C145.908 48.1337 152.35 45.5731 156.178 48.1337C160.005 50.6943 164.438 53.9157 164.438 53.9157H95.6048" stroke="#282E30" stroke-width="2.75331" stroke-linecap="round" stroke-linejoin="round"/>
<path d="M86.8203 53.9998H2.23865C2.23865 53.9998 0.311334 48.2179 7.35981 44.3632C14.4083 40.5086 17.6297 43.73 20.1902 40.5086C22.7508 37.2872 15.0966 30.7343 27.046 23.3555" stroke="#282E30" stroke-width="2.75331" stroke-linecap="round" stroke-linejoin="round"/>
</g>
</svg>
