<svg width="80" height="27" viewBox="0 0 80 27" fill="none" xmlns="http://www.w3.org/2000/svg">
<path d="M61.8913 4.86782C60.0141 2.9377 56.7752 1.153 51.1567 1.00758C38.5316 0.703517 41.9027 9.64024 38.5316 11.7951C35.1605 13.95 34.2219 10.5656 30.8376 12.7205C27.4532 14.8754 28.9868 19.1851 26.2106 19.8064C23.4344 20.4278 19.746 17.0302 16.3617 19.1851C12.9773 21.3399 12.9641 23.1511 11.4306 23.1511C9.89706 23.1511 6.80358 21.9216 4.966 23.1511C3.12842 24.3805 1 25.9273 1 25.9273H34.05" stroke="#282E30" stroke-width="1.322" stroke-linecap="round" stroke-linejoin="round"/>
<path d="M38.2656 25.9678H78.8775C78.8775 25.9678 79.8029 23.1916 76.4185 21.3408C73.0342 19.49 71.4875 21.0367 70.258 19.49C69.0286 17.9432 72.7037 14.7969 66.9663 11.2539" stroke="#282E30" stroke-width="1.322" stroke-linecap="round" stroke-linejoin="round"/>
</svg>
