<svg width="80" height="27" viewBox="0 0 80 27" fill="none" xmlns="http://www.w3.org/2000/svg">
<path d="M18.1048 4.86782C19.982 2.9377 23.2209 1.153 28.8394 1.00758C41.4645 0.703517 38.0934 9.64024 41.4645 11.7951C44.8356 13.95 45.7742 10.5656 49.1585 12.7205C52.5429 14.8754 51.0093 19.1851 53.7855 19.8064C56.5617 20.4278 60.2501 17.0302 63.6344 19.1851C67.0188 21.3399 67.032 23.1511 68.5655 23.1511C70.099 23.1511 73.1925 21.9216 75.0301 23.1511C76.8677 24.3805 78.9961 25.9273 78.9961 25.9273H45.9461" stroke="#282E30" stroke-width="1.322" stroke-linecap="round" stroke-linejoin="round"/>
<path d="M41.7266 25.9678H1.11472C1.11472 25.9678 0.189321 23.1916 3.57364 21.3408C6.95796 19.49 8.50471 21.0367 9.73417 19.49C10.9636 17.9432 7.28845 14.7969 13.0259 11.2539" stroke="#282E30" stroke-width="1.322" stroke-linecap="round" stroke-linejoin="round"/>
</svg>
