<svg width="166" height="56" viewBox="0 0 166 56" fill="none" xmlns="http://www.w3.org/2000/svg">
<g opacity="0.5">
<path d="M128.817 10.0555C124.908 6.03563 118.162 2.31864 106.461 2.01578C80.1665 1.38252 87.1874 19.9949 80.1664 24.4828C73.1455 28.9707 71.1907 21.9222 64.1422 26.4101C57.0937 30.898 60.2876 39.8738 54.5056 41.1678C48.7237 42.4619 41.042 35.3859 33.9935 39.8738C26.945 44.3617 26.9174 48.1337 23.7236 48.1337C20.5298 48.1337 14.087 45.5731 10.2599 48.1337C6.43283 50.6943 2 53.9157 2 53.9157H70.8327" stroke="#282E30" stroke-width="2.75331" stroke-linecap="round" stroke-linejoin="round"/>
<path d="M79.6172 53.9998H164.199C164.199 53.9998 166.126 48.2179 159.078 44.3632C152.029 40.5086 148.808 43.73 146.247 40.5086C143.687 37.2872 151.341 30.7343 139.392 23.3555" stroke="#282E30" stroke-width="2.75331" stroke-linecap="round" stroke-linejoin="round"/>
</g>
</svg>
