<svg width="142" height="38" viewBox="0 0 142 38" fill="none" xmlns="http://www.w3.org/2000/svg">
<rect y="4.28711" width="142" height="29" fill="#005E9E"/>
<path d="M24.518 17.4011C24.518 16.4491 24.7373 15.5951 25.176 14.8391C25.624 14.0831 26.226 13.4951 26.982 13.0751C27.7473 12.6458 28.5827 12.4311 29.488 12.4311C30.524 12.4311 31.4433 12.6878 32.246 13.2011C33.058 13.7051 33.646 14.4238 34.01 15.3571H32.092C31.84 14.8438 31.49 14.4611 31.042 14.2091C30.594 13.9571 30.076 13.8311 29.488 13.8311C28.844 13.8311 28.27 13.9758 27.766 14.2651C27.262 14.5544 26.8653 14.9698 26.576 15.5111C26.296 16.0524 26.156 16.6824 26.156 17.4011C26.156 18.1198 26.296 18.7498 26.576 19.2911C26.8653 19.8324 27.262 20.2524 27.766 20.5511C28.27 20.8404 28.844 20.9851 29.488 20.9851C30.076 20.9851 30.594 20.8591 31.042 20.6071C31.49 20.3551 31.84 19.9724 32.092 19.4591H34.01C33.646 20.3924 33.058 21.1111 32.246 21.6151C31.4433 22.1191 30.524 22.3711 29.488 22.3711C28.5733 22.3711 27.738 22.1611 26.982 21.7411C26.226 21.3118 25.624 20.7191 25.176 19.9631C24.7373 19.2071 24.518 18.3531 24.518 17.4011ZM39.2241 22.4131C38.4961 22.4131 37.8381 22.2498 37.2501 21.9231C36.6621 21.5871 36.2001 21.1204 35.8641 20.5231C35.5281 19.9164 35.3601 19.2164 35.3601 18.4231C35.3601 17.6391 35.5328 16.9438 35.8781 16.3371C36.2235 15.7304 36.6948 15.2638 37.2921 14.9371C37.8895 14.6104 38.5568 14.4471 39.2941 14.4471C40.0315 14.4471 40.6988 14.6104 41.2961 14.9371C41.8935 15.2638 42.3648 15.7304 42.7101 16.3371C43.0555 16.9438 43.2281 17.6391 43.2281 18.4231C43.2281 19.2071 43.0508 19.9024 42.6961 20.5091C42.3415 21.1158 41.8561 21.5871 41.2401 21.9231C40.6335 22.2498 39.9615 22.4131 39.2241 22.4131ZM39.2241 21.0271C39.6348 21.0271 40.0175 20.9291 40.3721 20.7331C40.7361 20.5371 41.0301 20.2431 41.2541 19.8511C41.4781 19.4591 41.5901 18.9831 41.5901 18.4231C41.5901 17.8631 41.4828 17.3918 41.2681 17.0091C41.0535 16.6171 40.7688 16.3231 40.4141 16.1271C40.0595 15.9311 39.6768 15.8331 39.2661 15.8331C38.8555 15.8331 38.4728 15.9311 38.1181 16.1271C37.7728 16.3231 37.4975 16.6171 37.2921 17.0091C37.0868 17.3918 36.9841 17.8631 36.9841 18.4231C36.9841 19.2538 37.1941 19.8978 37.6141 20.3551C38.0435 20.8031 38.5801 21.0271 39.2241 21.0271ZM54.1439 14.4471C54.7505 14.4471 55.2919 14.5731 55.7679 14.8251C56.2532 15.0771 56.6312 15.4504 56.9019 15.9451C57.1819 16.4398 57.3219 17.0371 57.3219 17.7371V22.2871H55.7399V17.9751C55.7399 17.2844 55.5672 16.7571 55.2219 16.3931C54.8765 16.0198 54.4052 15.8331 53.8079 15.8331C53.2105 15.8331 52.7345 16.0198 52.3799 16.3931C52.0345 16.7571 51.8619 17.2844 51.8619 17.9751V22.2871H50.2799V17.9751C50.2799 17.2844 50.1072 16.7571 49.7619 16.3931C49.4165 16.0198 48.9452 15.8331 48.3479 15.8331C47.7505 15.8331 47.2745 16.0198 46.9199 16.3931C46.5745 16.7571 46.4019 17.2844 46.4019 17.9751V22.2871H44.8059V14.5731H46.4019V15.4551C46.6632 15.1378 46.9945 14.8904 47.3959 14.7131C47.7972 14.5358 48.2265 14.4471 48.6839 14.4471C49.2999 14.4471 49.8505 14.5778 50.3359 14.8391C50.8212 15.1004 51.1945 15.4784 51.4559 15.9731C51.6892 15.5064 52.0532 15.1378 52.5479 14.8671C53.0425 14.5871 53.5745 14.4471 54.1439 14.4471ZM60.1647 13.5511C59.8754 13.5511 59.6327 13.4531 59.4367 13.2571C59.2407 13.0611 59.1427 12.8184 59.1427 12.5291C59.1427 12.2398 59.2407 11.9971 59.4367 11.8011C59.6327 11.6051 59.8754 11.5071 60.1647 11.5071C60.4447 11.5071 60.6827 11.6051 60.8787 11.8011C61.0747 11.9971 61.1727 12.2398 61.1727 12.5291C61.1727 12.8184 61.0747 13.0611 60.8787 13.2571C60.6827 13.4531 60.4447 13.5511 60.1647 13.5511ZM60.9487 14.5731V22.2871H59.3527V14.5731H60.9487ZM66.9361 14.4471C67.5428 14.4471 68.0841 14.5731 68.5601 14.8251C69.0455 15.0771 69.4235 15.4504 69.6941 15.9451C69.9648 16.4398 70.1001 17.0371 70.1001 17.7371V22.2871H68.5181V17.9751C68.5181 17.2844 68.3455 16.7571 68.0001 16.3931C67.6548 16.0198 67.1835 15.8331 66.5861 15.8331C65.9888 15.8331 65.5128 16.0198 65.1581 16.3931C64.8128 16.7571 64.6401 17.2844 64.6401 17.9751V22.2871H63.0441V14.5731H64.6401V15.4551C64.9015 15.1378 65.2328 14.8904 65.6341 14.7131C66.0448 14.5358 66.4788 14.4471 66.9361 14.4471ZM75.2439 14.4471C75.8413 14.4471 76.3686 14.5684 76.8259 14.8111C77.2926 15.0444 77.6566 15.3384 77.9179 15.6931V14.5731H79.5279V22.4131C79.5279 23.1224 79.3786 23.7524 79.0799 24.3031C78.7813 24.8631 78.3473 25.3018 77.7779 25.6191C77.2179 25.9364 76.5459 26.0951 75.7619 26.0951C74.7166 26.0951 73.8486 25.8478 73.1579 25.3531C72.4673 24.8678 72.0753 24.2051 71.9819 23.3651H73.5639C73.6853 23.7664 73.9419 24.0884 74.3339 24.3311C74.7353 24.5831 75.2113 24.7091 75.7619 24.7091C76.4059 24.7091 76.9239 24.5131 77.3159 24.1211C77.7173 23.7291 77.9179 23.1598 77.9179 22.4131V21.1251C77.6473 21.4891 77.2786 21.7971 76.8119 22.0491C76.3546 22.2918 75.8319 22.4131 75.2439 22.4131C74.5719 22.4131 73.9559 22.2451 73.3959 21.9091C72.8453 21.5638 72.4066 21.0878 72.0799 20.4811C71.7626 19.8651 71.6039 19.1698 71.6039 18.3951C71.6039 17.6204 71.7626 16.9344 72.0799 16.3371C72.4066 15.7398 72.8453 15.2778 73.3959 14.9511C73.9559 14.6151 74.5719 14.4471 75.2439 14.4471ZM77.9179 18.4231C77.9179 17.8911 77.8059 17.4291 77.5819 17.0371C77.3673 16.6451 77.0826 16.3464 76.7279 16.1411C76.3733 15.9358 75.9906 15.8331 75.5799 15.8331C75.1693 15.8331 74.7866 15.9358 74.4319 16.1411C74.0773 16.3371 73.7879 16.6311 73.5639 17.0231C73.3493 17.4058 73.2419 17.8631 73.2419 18.3951C73.2419 18.9271 73.3493 19.3938 73.5639 19.7951C73.7879 20.1964 74.0773 20.5044 74.4319 20.7191C74.7959 20.9244 75.1786 21.0271 75.5799 21.0271C75.9906 21.0271 76.3733 20.9244 76.7279 20.7191C77.0826 20.5138 77.3673 20.2151 77.5819 19.8231C77.8059 19.4218 77.9179 18.9551 77.9179 18.4231ZM88.0609 22.4131C87.4543 22.4131 86.9083 22.3058 86.4229 22.0911C85.9469 21.8671 85.5689 21.5684 85.2889 21.1951C85.0089 20.8124 84.8596 20.3878 84.8409 19.9211H86.4929C86.5209 20.2478 86.6749 20.5231 86.9549 20.7471C87.2443 20.9618 87.6036 21.0691 88.0329 21.0691C88.4809 21.0691 88.8263 20.9851 89.0689 20.8171C89.3209 20.6398 89.4469 20.4158 89.4469 20.1451C89.4469 19.8558 89.3069 19.6411 89.0269 19.5011C88.7563 19.3611 88.3223 19.2071 87.7249 19.0391C87.1463 18.8804 86.6749 18.7264 86.3109 18.5771C85.9469 18.4278 85.6296 18.1991 85.3589 17.8911C85.0976 17.5831 84.9669 17.1771 84.9669 16.6731C84.9669 16.2624 85.0883 15.8891 85.3309 15.5531C85.5736 15.2078 85.9189 14.9371 86.3669 14.7411C86.8243 14.5451 87.3469 14.4471 87.9349 14.4471C88.8123 14.4471 89.5169 14.6711 90.0489 15.1191C90.5903 15.5578 90.8796 16.1598 90.9169 16.9251H89.3209C89.2929 16.5798 89.1529 16.3044 88.9009 16.0991C88.6489 15.8938 88.3083 15.7911 87.8789 15.7911C87.4589 15.7911 87.1369 15.8704 86.9129 16.0291C86.6889 16.1878 86.5769 16.3978 86.5769 16.6591C86.5769 16.8644 86.6516 17.0371 86.8009 17.1771C86.9503 17.3171 87.1323 17.4291 87.3469 17.5131C87.5616 17.5878 87.8789 17.6858 88.2989 17.8071C88.8589 17.9564 89.3163 18.1104 89.6709 18.2691C90.0349 18.4184 90.3476 18.6424 90.6089 18.9411C90.8703 19.2398 91.0056 19.6364 91.0149 20.1311C91.0149 20.5698 90.8936 20.9618 90.6509 21.3071C90.4083 21.6524 90.0629 21.9231 89.6149 22.1191C89.1763 22.3151 88.6583 22.4131 88.0609 22.4131ZM96.0855 22.4131C95.3575 22.4131 94.6995 22.2498 94.1115 21.9231C93.5235 21.5871 93.0615 21.1204 92.7255 20.5231C92.3895 19.9164 92.2215 19.2164 92.2215 18.4231C92.2215 17.6391 92.3941 16.9438 92.7395 16.3371C93.0848 15.7304 93.5561 15.2638 94.1535 14.9371C94.7508 14.6104 95.4181 14.4471 96.1555 14.4471C96.8928 14.4471 97.5601 14.6104 98.1575 14.9371C98.7548 15.2638 99.2261 15.7304 99.5715 16.3371C99.9168 16.9438 100.089 17.6391 100.089 18.4231C100.089 19.2071 99.9121 19.9024 99.5575 20.5091C99.2028 21.1158 98.7175 21.5871 98.1015 21.9231C97.4948 22.2498 96.8228 22.4131 96.0855 22.4131ZM96.0855 21.0271C96.4961 21.0271 96.8788 20.9291 97.2335 20.7331C97.5975 20.5371 97.8915 20.2431 98.1155 19.8511C98.3395 19.4591 98.4515 18.9831 98.4515 18.4231C98.4515 17.8631 98.3441 17.3918 98.1295 17.0091C97.9148 16.6171 97.6301 16.3231 97.2755 16.1271C96.9208 15.9311 96.5381 15.8331 96.1275 15.8331C95.7168 15.8331 95.3341 15.9311 94.9795 16.1271C94.6341 16.3231 94.3588 16.6171 94.1535 17.0091C93.9481 17.3918 93.8455 17.8631 93.8455 18.4231C93.8455 19.2538 94.0555 19.8978 94.4755 20.3551C94.9048 20.8031 95.4415 21.0271 96.0855 21.0271ZM105.013 22.4131C104.285 22.4131 103.627 22.2498 103.039 21.9231C102.451 21.5871 101.989 21.1204 101.653 20.5231C101.317 19.9164 101.149 19.2164 101.149 18.4231C101.149 17.6391 101.322 16.9438 101.667 16.3371C102.013 15.7304 102.484 15.2638 103.081 14.9371C103.679 14.6104 104.346 14.4471 105.083 14.4471C105.821 14.4471 106.488 14.6104 107.085 14.9371C107.683 15.2638 108.154 15.7304 108.499 16.3371C108.845 16.9438 109.017 17.6391 109.017 18.4231C109.017 19.2071 108.84 19.9024 108.485 20.5091C108.131 21.1158 107.645 21.5871 107.029 21.9231C106.423 22.2498 105.751 22.4131 105.013 22.4131ZM105.013 21.0271C105.424 21.0271 105.807 20.9291 106.161 20.7331C106.525 20.5371 106.819 20.2431 107.043 19.8511C107.267 19.4591 107.379 18.9831 107.379 18.4231C107.379 17.8631 107.272 17.3918 107.057 17.0091C106.843 16.6171 106.558 16.3231 106.203 16.1271C105.849 15.9311 105.466 15.8331 105.055 15.8331C104.645 15.8331 104.262 15.9311 103.907 16.1271C103.562 16.3231 103.287 16.6171 103.081 17.0091C102.876 17.3918 102.773 17.8631 102.773 18.4231C102.773 19.2538 102.983 19.8978 103.403 20.3551C103.833 20.8031 104.369 21.0271 105.013 21.0271ZM114.487 14.4471C115.094 14.4471 115.635 14.5731 116.111 14.8251C116.596 15.0771 116.974 15.4504 117.245 15.9451C117.516 16.4398 117.651 17.0371 117.651 17.7371V22.2871H116.069V17.9751C116.069 17.2844 115.896 16.7571 115.551 16.3931C115.206 16.0198 114.734 15.8331 114.137 15.8331C113.54 15.8331 113.064 16.0198 112.709 16.3931C112.364 16.7571 112.191 17.2844 112.191 17.9751V22.2871H110.595V14.5731H112.191V15.4551C112.452 15.1378 112.784 14.8904 113.185 14.7131C113.596 14.5358 114.03 14.4471 114.487 14.4471Z" fill="white"/>
<path d="M13.5305 18.5154L0 0V37.0308L13.5305 18.5154Z" fill="white"/>
</svg>
