<svg width="42" height="43" viewBox="0 0 42 43" fill="none" xmlns="http://www.w3.org/2000/svg">
<path d="M31.4932 36.4035L31.4932 7.5346C31.4932 6.08516 30.3182 4.91016 28.8687 4.91016L13.122 4.91016C11.6726 4.91016 10.4976 6.08516 10.4976 7.5346L10.4976 36.4035C10.4976 37.8529 11.6726 39.0279 13.122 39.0279H28.8687C30.3182 39.0279 31.4932 37.8529 31.4932 36.4035Z" stroke="#005E9E" stroke-width="2.21006" stroke-linecap="round" stroke-linejoin="round"/>
<path d="M20.9957 12.7843C22.0828 12.7843 22.964 11.9031 22.964 10.816C22.964 9.72891 22.0828 8.84766 20.9957 8.84766C19.9086 8.84766 19.0273 9.72891 19.0273 10.816C19.0273 11.9031 19.9086 12.7843 20.9957 12.7843Z" fill="#0BB8E4"/>
</svg>
