<svg width="68" height="68" viewBox="0 0 68 68" fill="none" xmlns="http://www.w3.org/2000/svg">
<path d="M53.125 10.625L63.75 21.25L53.125 31.875" stroke="#005E9E" stroke-width="3.2381" stroke-linecap="round" stroke-linejoin="round"/>
<path d="M19.125 46.75H21.25C24.6315 46.75 27.8745 45.4067 30.2656 43.0156C32.6567 40.6245 34 37.3815 34 34V34C34 30.6185 35.3433 27.3755 37.7344 24.9844C40.1255 22.5933 43.3685 21.25 46.75 21.25H63.75" stroke="#005E9E" stroke-width="3.2381" stroke-linecap="round" stroke-linejoin="round"/>
<path d="M11.6875 54.1875C15.7951 54.1875 19.125 50.8576 19.125 46.75C19.125 42.6424 15.7951 39.3125 11.6875 39.3125C7.57988 39.3125 4.25 42.6424 4.25 46.75C4.25 50.8576 7.57988 54.1875 11.6875 54.1875Z" stroke="#0BB8E4" stroke-width="3.2381" stroke-linecap="round" stroke-linejoin="round"/>
</svg>
