<svg width="406" height="406" viewBox="0 0 406 406" fill="none" xmlns="http://www.w3.org/2000/svg">
<g clip-path="url(#clip0_211_53524)">
<path opacity="0.7" d="M55.1567 135.677C55.1567 135.677 32.5181 194.141 64.3323 253.011C96.1464 311.881 161.675 342.98 214.122 369.573C266.569 396.166 321.03 383.215 346.908 339.659C372.787 296.104 337.294 265.012 337.245 202.902C337.197 140.792 346.543 124.349 312.885 71.8779C279.228 19.4065 196.721 7.78677 134.327 46.7059C71.9326 85.6251 55.1567 135.677 55.1567 135.677Z" fill="white"/>
<path d="M246.18 378.318C271.499 374.137 295.761 364.945 316.386 349.086C346.373 325.961 363.011 291.434 364.749 253.806C365.894 229 359.974 204.802 352.812 181.246C343.604 150.934 337.669 116.408 318.44 90.505C288.51 50.1729 230.663 33.1859 182.284 40.4046C151.022 45.0654 117.998 62.8158 108.392 94.8979C104.836 106.777 103.098 119.542 97.0242 130.52C89.7162 143.675 76.5049 151.356 66.4686 162.066C54.0613 175.294 49.0675 191.778 45.9819 209.211C39.2179 247.375 48.4179 287.797 70.7479 319.448C94.0117 352.48 128.538 370.198 167.725 377.173C172.056 377.937 176.386 378.589 180.717 379.13C202.186 381.794 224.573 381.883 246.18 378.318Z" fill="#CFEBFE"/>
<path opacity="0.7" d="M246.18 378.318C271.499 374.137 295.761 364.945 316.386 349.086C346.373 325.961 363.011 291.434 364.749 253.806C365.894 229 359.974 204.802 352.812 181.246C343.604 150.934 337.669 116.408 318.44 90.505C288.51 50.1729 230.663 33.1859 182.284 40.4046C151.022 45.0654 117.998 62.8158 108.392 94.8979C104.836 106.777 103.098 119.542 97.0242 130.52C89.7162 143.675 76.5049 151.356 66.4686 162.066C54.0613 175.294 49.0675 191.778 45.9819 209.211C39.2179 247.375 48.4179 287.797 70.7479 319.448C94.0117 352.48 128.538 370.198 167.725 377.173C172.056 377.937 176.386 378.589 180.717 379.13C202.186 381.794 224.573 381.883 246.18 378.318Z" fill="white"/>
<path d="M197.402 348.811C197.402 348.811 209.834 355.307 206.334 365.051C206.301 365.059 190.703 365.473 197.402 348.811Z" fill="#263238"/>
<path d="M221.846 362.062C221.846 362.062 233.214 355.428 242.682 365.383C242.682 365.399 230.558 374.096 221.846 362.062Z" fill="#263238"/>
<path d="M252.807 339.018C252.807 339.018 246.872 358.595 232.053 346.156C232.053 346.156 243.348 334.731 252.807 339.018Z" fill="#263238"/>
<path d="M236.372 319.66C236.372 319.66 246.725 332.652 232.109 339.457C232.109 339.457 226.035 327.545 236.372 319.66Z" fill="#263238"/>
<path d="M212.653 329.273C212.653 329.273 227.919 334.064 222.121 347.608C222.121 347.608 207.237 341.916 212.653 329.273Z" fill="#263238"/>
<path d="M204.622 380.901C204.622 380.901 203.566 370.19 216.079 358.676C228.592 347.162 235.9 336.078 236.184 326.196" stroke="#263238" stroke-width="0.812" stroke-linecap="round" stroke-linejoin="round"/>
<path d="M215.9 334.974C215.9 334.974 223.208 342.217 222.291 352.529" stroke="#263238" stroke-width="0.812" stroke-linecap="round" stroke-linejoin="round"/>
<path d="M244.977 344.515C244.977 344.515 236.954 349.249 228.68 344.823" stroke="#263238" stroke-width="0.812" stroke-linecap="round" stroke-linejoin="round"/>
<path d="M236.217 364.969C236.217 364.969 220.448 362.996 215.438 359.285" stroke="#263238" stroke-width="0.812" stroke-linecap="round" stroke-linejoin="round"/>
<path d="M199.75 354.844C199.75 354.844 202.844 364.052 209.202 366.65" stroke="#263238" stroke-width="0.812" stroke-linecap="round" stroke-linejoin="round"/>
<path d="M233.928 335.737C235.263 332.718 236.026 329.477 236.177 326.18" stroke="white" stroke-width="0.812" stroke-linecap="round" stroke-linejoin="round"/>
<path d="M215.9 334.974C218.689 337.948 220.681 341.579 221.69 345.53" stroke="white" stroke-width="0.812" stroke-linecap="round" stroke-linejoin="round"/>
<path d="M244.979 344.515C242.157 346.037 238.985 346.793 235.779 346.707" stroke="white" stroke-width="0.812" stroke-linecap="round" stroke-linejoin="round"/>
<path d="M236.215 364.969C232.344 364.472 228.502 363.762 224.709 362.842" stroke="white" stroke-width="0.812" stroke-linecap="round" stroke-linejoin="round"/>
<path d="M199.75 354.844C200.819 357.788 202.372 360.532 204.346 362.964" stroke="white" stroke-width="0.812" stroke-linecap="round" stroke-linejoin="round"/>
<path d="M78.1599 269.129C78.1599 269.129 64.1286 269.632 63.1055 279.928C63.1055 279.928 76.9825 287.058 78.1599 269.129Z" fill="#263238"/>
<path d="M50.3907 270.509C50.3907 270.509 43.0258 259.612 30.1719 264.484C30.1719 264.484 37.35 277.59 50.3907 270.509Z" fill="#263238"/>
<path d="M32.4796 236.332C32.4796 236.332 29.3371 256.591 48.07 251.719C48.07 251.719 42.8407 236.559 32.4796 236.332Z" fill="#263238"/>
<path d="M55.6422 225.987C55.6422 225.987 40.677 233.255 50.9164 245.686C50.9164 245.686 61.5454 237.575 55.6422 225.987Z" fill="#263238"/>
<path d="M72.8678 244.923C72.8678 244.923 57.0338 242.633 56.4004 257.355C56.4004 257.355 72.2669 258.67 72.8678 244.923Z" fill="#263238"/>
<path d="M57.3749 296.127C57.3749 296.127 63.3594 285.75 57.0582 269.949C50.7571 254.147 48.9382 241.001 52.9982 231.955" stroke="#263238" stroke-width="0.812" stroke-linecap="round" stroke-linejoin="round"/>
<path d="M67.4746 248.658C67.4746 248.658 57.7793 252.036 54.1172 261.715" stroke="#263238" stroke-width="0.812" stroke-linecap="round" stroke-linejoin="round"/>
<path d="M37.1309 244.679C37.1309 244.679 42.3195 252.417 51.6819 251.987" stroke="#263238" stroke-width="0.812" stroke-linecap="round" stroke-linejoin="round"/>
<path d="M36.1797 266.903C36.1797 266.903 51.2423 271.954 57.3729 270.777" stroke="#263238" stroke-width="0.812" stroke-linecap="round" stroke-linejoin="round"/>
<path d="M73.4006 273.587C73.4006 273.587 66.5798 280.814 59.7266 280.4" stroke="#263238" stroke-width="0.812" stroke-linecap="round" stroke-linejoin="round"/>
<path d="M50.8867 241.545C50.9917 238.245 51.7075 234.994 52.9979 231.955" stroke="white" stroke-width="0.812" stroke-linecap="round" stroke-linejoin="round"/>
<path d="M67.4764 248.658C63.6927 250.137 60.3418 252.544 57.7324 255.658" stroke="white" stroke-width="0.812" stroke-linecap="round" stroke-linejoin="round"/>
<path d="M37.1309 244.679C39.0044 247.268 41.5242 249.32 44.4389 250.631" stroke="white" stroke-width="0.812" stroke-linecap="round" stroke-linejoin="round"/>
<path d="M36.1797 266.903C39.8803 268.139 43.6488 269.161 47.4665 269.965" stroke="white" stroke-width="0.812" stroke-linecap="round" stroke-linejoin="round"/>
<path d="M73.4023 273.587C71.1746 275.789 68.5949 277.603 65.7695 278.954" stroke="white" stroke-width="0.812" stroke-linecap="round" stroke-linejoin="round"/>
<path d="M242.428 378.895C243.686 378.716 244.937 378.521 246.179 378.318" stroke="#263238" stroke-width="0.812" stroke-linecap="round" stroke-linejoin="round"/>
<path d="M70.7305 319.416C93.9943 352.448 128.521 370.166 167.708 377.141C172.038 377.904 176.369 378.557 180.7 379.098C199.325 381.514 218.173 381.694 236.841 379.634" stroke="#263238" stroke-width="0.812" stroke-linecap="round" stroke-linejoin="round"/>
<path d="M52.3809 283.817C56.155 294.494 61.1408 304.702 67.2405 314.243" stroke="#263238" stroke-width="0.812" stroke-linecap="round" stroke-linejoin="round"/>
<path d="M130.505 79.5762H88.5495C87.0678 79.5762 85.6468 80.1648 84.5992 81.2124C83.5515 82.2601 82.9629 83.6811 82.9629 85.1627V121.199C82.9629 122.681 83.5515 124.102 84.5992 125.15C85.6468 126.197 87.0678 126.786 88.5495 126.786H107.185L117.798 139.664L115.126 126.818H130.505C131.987 126.818 133.408 126.23 134.456 125.182C135.503 124.134 136.092 122.713 136.092 121.232V85.1546C136.09 83.6744 135.5 82.2555 134.453 81.2096C133.405 80.1636 131.986 79.5762 130.505 79.5762Z" fill="white" stroke="#263238" stroke-width="0.812" stroke-linecap="round" stroke-linejoin="round"/>
<path d="M117.79 93.3151C113.397 91.9672 110.734 94.6712 109.532 96.4088C108.33 94.6712 105.659 91.9672 101.266 93.3151C96.4994 94.7848 94.843 100.859 98.8299 106.405C101.745 110.432 106.373 113.12 108.809 114.33C109.094 114.476 109.353 114.598 109.565 114.695C109.776 114.598 110.035 114.476 110.32 114.33C112.699 113.12 117.352 110.391 120.234 106.405C124.237 100.859 122.557 94.7848 117.79 93.3151Z" fill="#CFEBFE"/>
<path d="M205.578 243.047C208.534 238.175 222.727 238.248 224.01 240.416C224.01 240.416 216.978 263.152 209.143 260.781C201.307 258.41 205.578 243.047 205.578 243.047Z" fill="#757575"/>
<path opacity="0.5" d="M205.578 243.048C208.534 238.176 222.727 238.249 224.01 240.417C224.01 240.417 216.978 263.153 209.143 260.782C201.307 258.411 205.578 243.048 205.578 243.048Z" fill="black" fill-opacity="0.7"/>
<path d="M205.578 243.047C208.534 238.175 222.727 238.248 224.01 240.416C224.01 240.416 216.978 263.152 209.143 260.781C201.307 258.41 205.578 243.047 205.578 243.047Z" stroke="#263238" stroke-width="0.812" stroke-linecap="round" stroke-linejoin="round"/>
<path d="M213.553 213.758C213.553 213.758 215.989 213.758 220.146 223.323C221.881 227.495 222.328 232.09 221.429 236.518L219.805 254.715L205.295 252.628L209.111 235.422C209.111 235.422 204.727 221.675 213.553 213.758Z" fill="white" stroke="#263238" stroke-width="0.812" stroke-linecap="round" stroke-linejoin="round"/>
<path d="M222.485 254.61C223.448 255.832 223.977 257.341 223.987 258.897C223.987 261.017 219.927 303.354 207.463 318.092C204.848 321.186 201.86 323.062 198.458 323.102C187.902 323.216 182.778 314.836 176.055 295.397C175.221 292.977 174.352 290.379 173.448 287.602C166.952 267.537 158.881 225.687 158.881 225.687C158.881 225.687 173.131 228.991 181.617 237.371C185.303 241.033 189.193 251.427 191.629 259.027C192.839 262.779 193.716 265.856 194.065 267.147L194.243 267.813C194.605 266.499 195.106 265.228 195.738 264.021C195.76 263.992 195.777 263.959 195.786 263.924C197.632 260.588 199.882 257.492 202.485 254.707L205.563 243.039C205.563 243.039 206.651 245.166 211.572 245.922C216.492 246.677 223.995 240.408 223.995 240.408L222.485 254.61Z" fill="#757575"/>
<path opacity="0.3" d="M207.486 318.091C204.872 321.185 201.883 323.06 198.481 323.101C187.925 323.215 182.801 314.835 176.078 295.396L176.224 250.216C176.224 250.216 184.166 251.759 191.612 259.059C192.822 262.81 193.699 265.887 194.048 267.179C191.076 273.366 185.928 287.592 191.839 302.752C195.688 312.618 202.022 316.589 207.486 318.091Z" fill="black" fill-opacity="0.7"/>
<path d="M222.485 254.61C223.448 255.832 223.977 257.341 223.987 258.897C223.987 261.017 219.927 303.354 207.463 318.092C204.848 321.186 201.86 323.062 198.458 323.102C187.902 323.216 182.778 314.836 176.055 295.397C175.221 292.977 174.352 290.379 173.448 287.602C166.952 267.537 158.881 225.687 158.881 225.687C158.881 225.687 173.131 228.991 181.617 237.371C185.303 241.033 189.193 251.427 191.629 259.027C192.839 262.779 193.716 265.856 194.065 267.147L194.243 267.813C194.605 266.499 195.106 265.228 195.738 264.021C195.738 264.021 195.738 264.021 195.738 264.021C195.76 263.992 195.777 263.959 195.786 263.924C197.632 260.588 199.882 257.492 202.485 254.707L205.563 243.039C205.563 243.039 206.651 245.166 211.572 245.922C216.492 246.677 223.995 240.408 223.995 240.408L222.485 254.61Z" stroke="#263238" stroke-width="0.812" stroke-linecap="round" stroke-linejoin="round"/>
<path d="M95.1077 220.182C95.1077 220.182 109.724 222.244 119.167 218.079C128.611 213.913 121.952 249.576 108.416 244.436C94.8803 239.296 95.1077 220.182 95.1077 220.182Z" fill="#999999"/>
<path opacity="0.5" d="M95.1077 220.182C95.1077 220.182 109.724 222.244 119.167 218.079C128.611 213.913 121.952 249.576 108.416 244.436C94.8803 239.296 95.1077 220.182 95.1077 220.182Z" fill="black" fill-opacity="0.7"/>
<path d="M95.1077 220.182C95.1077 220.182 109.724 222.244 119.167 218.079C128.611 213.913 121.952 249.576 108.416 244.436C94.8803 239.296 95.1077 220.182 95.1077 220.182Z" stroke="#263238" stroke-width="0.812" stroke-linecap="round" stroke-linejoin="round"/>
<path d="M187.09 379.829C184.939 379.609 182.803 379.366 180.667 379.098C178.962 378.887 177.262 378.654 175.568 378.4C172.97 378.026 170.377 377.612 167.789 377.157H167.708C149.032 373.828 131.403 368.063 115.553 359.358C109.597 356.093 103.897 352.383 98.5011 348.258C88.1075 321.08 65.3634 258.524 71.3073 247.838C78.6153 234.749 94.0839 224.29 122.512 222.869C148.878 221.554 170.615 230.9 175.812 241.764C180.773 252.134 180.57 321.698 179.311 353.991C179.255 355.526 179.19 356.971 179.125 358.327L180.018 360.982L187.09 379.829Z" fill="#CFEBFE"/>
<path opacity="0.3" d="M187.09 379.829C184.938 379.61 182.803 379.366 180.667 379.098C178.962 378.887 177.262 378.654 175.568 378.4C172.969 378.026 170.376 377.612 167.789 377.158L163.566 360.585C163.566 360.585 166.814 342.916 166.441 339.789C166.05 337.684 165.051 335.738 163.566 334.195C168.333 319.051 163.566 278.232 163.566 278.232L170.777 269.949L179.311 354.032L180.018 361.023L187.09 379.829Z" fill="black" fill-opacity="0.7"/>
<path d="M187.09 379.829C184.939 379.609 182.803 379.366 180.667 379.098C178.962 378.887 177.262 378.654 175.568 378.4C172.97 378.026 170.377 377.612 167.789 377.157H167.708C149.032 373.828 131.403 368.063 115.553 359.358C109.597 356.093 103.897 352.383 98.5011 348.258C88.1075 321.08 65.3634 258.524 71.3073 247.838C78.6153 234.749 94.0839 224.29 122.512 222.869C148.878 221.554 170.615 230.9 175.812 241.764C180.773 252.134 180.57 321.698 179.311 353.991C179.255 355.526 179.19 356.971 179.125 358.327L180.018 360.982L187.09 379.829Z" stroke="#263238" stroke-width="0.812" stroke-linecap="round" stroke-linejoin="round"/>
<path d="M188.837 380.015C186.098 379.761 183.375 379.463 180.668 379.122C178.963 378.911 177.263 378.678 175.569 378.423C173.945 364.343 171.631 344.043 169.471 323.776C167.717 307.398 166.036 291.028 164.818 277.987C164.639 276.038 164.461 274.171 164.298 272.384C163.868 267.512 163.486 263.209 163.275 259.806C163.275 259.53 163.235 259.271 163.218 258.994C163.105 257.371 163.024 255.901 162.975 254.732C162.809 247.62 161.199 240.617 158.241 234.147C154.392 226.027 149.609 222.779 149.609 222.779C153.97 223.591 158.25 224.789 162.398 226.36C167.011 228.138 172.037 230.648 175.918 234.107C176.904 234.972 177.814 235.92 178.638 236.941C179.404 237.872 180.079 238.876 180.652 239.937C187.725 253.108 184.509 354.875 184.509 354.875L188.837 380.015Z" fill="#757575" stroke="#263238" stroke-width="0.812" stroke-linecap="round" stroke-linejoin="round"/>
<path d="M163.096 256.981C163.096 256.981 159.645 243.315 155.309 234.643C154.332 232.471 152.986 230.485 151.33 228.772C146.012 224.022 130.795 222.804 130.795 222.804C131.834 220.747 133.425 219.021 135.391 217.819C142.09 213.759 152.329 217.006 160.62 224.842C171.176 234.846 163.096 256.981 163.096 256.981Z" fill="#999999"/>
<path opacity="0.5" d="M155.307 234.667C154.33 232.495 152.984 230.509 151.328 228.797C146.01 224.046 130.793 222.828 130.793 222.828C131.832 220.772 133.423 219.045 135.389 217.843C140.261 218.119 145.336 218.777 148.381 220.206C153.464 222.536 155.673 227.887 155.307 234.667Z" fill="black" fill-opacity="0.7"/>
<path d="M163.096 256.981C163.096 256.981 159.645 243.315 155.309 234.643C154.332 232.471 152.986 230.485 151.33 228.772C146.012 224.022 130.795 222.804 130.795 222.804C131.834 220.747 133.425 219.021 135.391 217.819C142.09 213.759 152.329 217.006 160.62 224.842C171.176 234.846 163.096 256.981 163.096 256.981Z" stroke="#263238" stroke-width="0.812" stroke-linecap="round" stroke-linejoin="round"/>
<path d="M108.416 201.586C108.416 201.586 114.871 210.112 109.829 226.019C109.829 226.019 122.683 231.524 136.625 226.961C136.625 226.961 131.339 218.215 133.685 208.853C136.032 199.491 114.685 190.753 108.416 201.586Z" fill="white" stroke="#263238" stroke-width="0.812" stroke-linecap="round" stroke-linejoin="round"/>
<path d="M104.688 188.928C99.5564 166.931 110.194 157.39 117.161 154.507C128.317 149.887 142.828 157.146 146.133 169.375C149.438 181.603 146.457 184.38 146.612 189.382C146.717 192.89 148.885 194.612 146.498 203.414C144.923 209.219 142.308 218.541 132.377 216.869C129.333 216.333 126.378 215.373 123.6 214.018" fill="white"/>
<path d="M104.688 188.928C99.5564 166.931 110.194 157.39 117.161 154.507C128.317 149.887 142.828 157.146 146.133 169.375C149.438 181.603 146.457 184.38 146.612 189.382C146.717 192.89 148.885 194.612 146.498 203.414C144.923 209.219 142.308 218.541 132.377 216.869C129.333 216.333 126.378 215.373 123.6 214.018" stroke="#263238" stroke-width="0.812" stroke-linecap="round" stroke-linejoin="round"/>
<path d="M133.662 178.152C133.662 178.152 129.537 176.617 127.328 181.457" stroke="#263238" stroke-width="0.812" stroke-linecap="round" stroke-linejoin="round"/>
<path d="M147.694 177.429C147.694 177.429 144.624 174.62 141.547 178.591" stroke="#263238" stroke-width="0.812" stroke-linecap="round" stroke-linejoin="round"/>
<path d="M132.841 187.466C132.841 188.489 132.386 189.317 131.818 189.317C131.25 189.317 130.795 188.505 130.795 187.466C130.795 186.426 131.25 185.614 131.818 185.614C132.386 185.614 132.841 186.442 132.841 187.466Z" fill="#263238"/>
<path d="M144.624 186.451C144.624 187.474 144.17 188.302 143.601 188.302C143.033 188.302 142.578 187.49 142.578 186.451C142.578 185.412 143.033 184.6 143.601 184.6C144.17 184.6 144.624 185.428 144.624 186.451Z" fill="#263238"/>
<path d="M117.163 187.466C117.163 187.466 123.732 203.373 125.072 204.217C128.084 206.101 134.816 194.335 141.482 196.82C141.482 196.82 144.454 195.399 145.25 196.146C149.602 200.206 147.499 194.481 147.499 194.481C147.499 194.481 154.085 209.406 150.065 214.838C142.043 225.703 126.566 219.71 122.457 215.309C118.348 210.908 118.202 198.412 118.202 198.412C118.202 198.412 118.673 194.482 115.027 189.691L117.163 187.466Z" fill="#263238"/>
<path d="M118.03 189.317C118.03 189.317 117.388 185.038 122.512 180.214C122.512 180.214 121.611 172.557 118.005 169.723C118.005 169.723 133.36 161.303 145.613 167.758C145.613 167.758 156.884 162.164 141.553 152.006C126.223 141.847 101.416 151.526 98.1113 170.682C98.1113 170.682 99.9952 168.091 102.123 167.149C102.123 167.149 92.5166 182.748 110.787 206.937C110.779 206.929 110.803 192.849 118.03 189.317Z" fill="#263238"/>
<path d="M140.619 182.123C140.619 182.123 140.172 187.807 143.599 192.176C147.026 196.544 144.809 197.356 140.148 196.666C136.332 196.098 138.134 194.425 138.134 194.425" fill="white"/>
<path d="M140.619 182.123C140.619 182.123 140.172 187.807 143.599 192.176C147.026 196.544 144.809 197.356 140.148 196.666C136.332 196.098 138.134 194.425 138.134 194.425" stroke="#263238" stroke-width="0.812" stroke-linecap="round" stroke-linejoin="round"/>
<path d="M117.159 192.784C117.159 192.784 113.099 185.265 108.909 187.1C104.719 188.935 107.626 197.916 111.288 200.847C114.95 203.779 117.159 200.847 117.159 200.847" fill="white"/>
<path d="M117.159 192.784C117.159 192.784 113.099 185.265 108.909 187.1C104.719 188.935 107.626 197.916 111.288 200.847C114.95 203.779 117.159 200.847 117.159 200.847" stroke="#263238" stroke-width="0.812" stroke-linecap="round" stroke-linejoin="round"/>
<path d="M141.051 200.823C139.386 201.131 138.404 203.259 138.241 204.639C138.079 206.019 139.289 208.699 140.896 208.472C142.504 208.244 141.546 204.606 141.546 204.606C141.546 204.606 143.146 200.441 141.051 200.823Z" fill="white"/>
<path d="M118.842 326.342C118.452 330.264 118.03 334.129 117.68 337.856C117.015 344.23 116.259 352.042 115.553 359.341C103.213 352.617 92.0219 343.972 82.3991 333.731C82.4722 331.579 82.4641 329.614 82.3504 327.941C81.9912 324.44 81.4491 320.96 80.7264 317.515C78.7938 307.382 75.4727 293.155 72.6064 280.415C69.5939 266.976 67.0685 255.17 67.2066 251.492C67.572 242.828 80.3853 229.527 95.8133 224.842C95.8133 224.842 119.597 241.228 122.488 258.897C123.998 268.016 121.554 298.734 118.842 326.342Z" fill="#757575"/>
<path opacity="0.3" d="M118.843 326.342C118.453 330.264 118.031 334.129 117.682 337.856C117.511 337.913 117.341 337.954 117.162 337.994C104.69 340.804 89.8385 327.487 80.7684 317.532C78.8359 307.398 75.5148 293.172 72.6484 280.432L81.0526 286.059C81.0526 286.059 110.114 310.914 118.843 326.342Z" fill="black" fill-opacity="0.7"/>
<path d="M118.842 326.342C118.452 330.264 118.03 334.129 117.68 337.856C117.015 344.23 116.259 352.042 115.553 359.341C103.213 352.617 92.0219 343.972 82.3991 333.731C82.4722 331.579 82.4641 329.614 82.3504 327.941C81.9912 324.44 81.4491 320.96 80.7264 317.515C78.7938 307.382 75.4727 293.155 72.6064 280.415C69.5939 266.976 67.0685 255.17 67.2066 251.492C67.572 242.828 80.3853 229.527 95.8133 224.842C95.8133 224.842 119.597 241.228 122.488 258.897C123.998 268.016 121.554 298.734 118.842 326.342Z" stroke="#263238" stroke-width="0.812" stroke-linecap="round" stroke-linejoin="round"/>
<path d="M175.99 229.324C176.277 230.253 176.907 231.037 177.752 231.516C178.597 231.996 179.593 232.136 180.537 231.906" stroke="#263238" stroke-width="0.812" stroke-linecap="round" stroke-linejoin="round"/>
<path d="M155.528 235.422C156.876 232.986 160.733 234.156 165.224 241.228C169.714 248.301 171.557 256.534 170.477 259.539C169.397 262.543 154.838 266.173 154.838 266.173L151.842 258.572L155.528 235.422Z" fill="#757575"/>
<path opacity="0.5" d="M155.53 235.421C156.878 232.985 160.735 234.155 165.226 241.227C169.716 248.3 171.559 256.533 170.479 259.538C169.399 262.542 154.84 266.172 154.84 266.172L151.844 258.571L155.53 235.421Z" fill="black" fill-opacity="0.7"/>
<path d="M155.528 235.422C156.876 232.986 160.733 234.156 165.224 241.228C169.714 248.301 171.557 256.534 170.477 259.539C169.397 262.543 154.838 266.173 154.838 266.173L151.842 258.572L155.528 235.422Z" stroke="#263238" stroke-width="0.812" stroke-linecap="round" stroke-linejoin="round"/>
<path d="M188.269 220.961C188.269 220.961 190.705 220.961 190.924 222.747C191.143 224.534 187.514 226.807 187.514 226.807" fill="white"/>
<path d="M188.269 220.961C188.269 220.961 190.705 220.961 190.924 222.747C191.143 224.534 187.514 226.807 187.514 226.807" stroke="#263238" stroke-width="0.812" stroke-linecap="round" stroke-linejoin="round"/>
<path d="M149.6 250.33L163.209 224.841C163.209 224.841 172.198 213.993 175.843 212.661C179.489 211.33 199.391 210.696 199.391 210.696C199.391 210.696 200.203 212.856 197.126 213.944C194.048 215.032 184.621 215.917 184.621 215.917C184.621 215.917 187.398 217.119 188.04 218.094C188.681 219.068 188.04 227.147 186.757 228.788C185.474 230.428 180.545 231.922 180.545 231.922C180.545 231.922 179.895 237.606 175.08 240.432C170.265 243.257 167.91 243.274 167.91 243.274L161.26 265.523L149.6 250.33Z" fill="white" stroke="#263238" stroke-width="0.812" stroke-linecap="round" stroke-linejoin="round"/>
<path d="M176.203 220.182C176.203 220.182 183.194 220.994 184.08 221.635C184.965 222.277 184.534 227.254 184.08 229C184.002 229.455 183.825 229.888 183.562 230.267C183.298 230.646 182.953 230.962 182.553 231.192" stroke="#263238" stroke-width="0.812" stroke-linecap="round" stroke-linejoin="round"/>
<path d="M179.066 216.057C179.066 216.057 185.944 217.778 186.374 218.663C187.021 221.076 187.132 223.601 186.699 226.06C186.139 228.781 185.977 229.625 184.921 230.12" stroke="#263238" stroke-width="0.812" stroke-linecap="round" stroke-linejoin="round"/>
<path d="M184.616 215.902C183.639 215.495 182.635 215.155 181.611 214.887" stroke="#263238" stroke-width="0.812" stroke-linecap="round" stroke-linejoin="round"/>
<path d="M180.422 225.687C179.834 226.356 179.112 226.895 178.301 227.265C177.491 227.636 176.611 227.832 175.72 227.838C175.72 227.838 177.223 233.62 174.543 237.371" stroke="#263238" stroke-width="0.812" stroke-linecap="round" stroke-linejoin="round"/>
<path d="M179.066 226.839C179.066 226.839 180.625 228.097 180.422 228.771" stroke="#263238" stroke-width="0.812" stroke-linecap="round" stroke-linejoin="round"/>
<path d="M207.609 232.491L198.182 235.617C197.183 235.877 195.218 234.213 195.299 233.181L198.125 200.222C198.18 199.573 198.436 198.957 198.856 198.46C199.276 197.962 199.841 197.608 200.472 197.445L210.922 195.18C211.913 194.92 214.43 196.113 214.341 197.145L209.98 229.714C209.924 230.366 209.665 230.984 209.239 231.482C208.814 231.98 208.244 232.333 207.609 232.491Z" fill="#CFEBFE"/>
<path opacity="0.3" d="M207.611 232.49L198.184 235.616C197.185 235.876 195.22 234.212 195.301 233.18L198.127 200.221C198.182 199.572 198.438 198.956 198.858 198.459C199.278 197.961 199.843 197.607 200.474 197.444L210.924 195.179C211.915 194.919 214.432 196.112 214.343 197.144L209.982 229.713C209.926 230.365 209.667 230.983 209.241 231.481C208.816 231.979 208.246 232.332 207.611 232.49Z" fill="black" fill-opacity="0.7"/>
<path d="M207.609 232.491L198.182 235.617C197.183 235.877 195.218 234.213 195.299 233.181L198.125 200.222C198.18 199.573 198.436 198.957 198.856 198.46C199.276 197.962 199.841 197.608 200.472 197.445L210.922 195.18C211.913 194.92 214.43 196.113 214.341 197.145L209.98 229.714C209.924 230.366 209.665 230.984 209.239 231.482C208.814 231.98 208.244 232.333 207.609 232.491V232.491Z" stroke="#263238" stroke-width="0.812" stroke-linecap="round" stroke-linejoin="round"/>
<path d="M209.16 233.302L198.718 235.568C198.486 235.629 198.244 235.633 198.01 235.581C197.777 235.528 197.56 235.42 197.377 235.265C197.194 235.11 197.052 234.914 196.962 234.692C196.871 234.471 196.836 234.231 196.858 233.992L199.651 201.033C199.706 200.384 199.962 199.768 200.382 199.271C200.803 198.773 201.367 198.419 201.998 198.256L212.448 195.991C212.68 195.93 212.922 195.925 213.156 195.978C213.389 196.031 213.606 196.139 213.789 196.294C213.972 196.448 214.114 196.645 214.204 196.866C214.295 197.088 214.33 197.328 214.308 197.566L211.515 230.525C211.459 231.175 211.202 231.792 210.78 232.29C210.358 232.787 209.792 233.141 209.16 233.302Z" fill="#CFEBFE" stroke="#263238" stroke-width="0.812" stroke-linecap="round" stroke-linejoin="round"/>
<path opacity="0.3" d="M203.369 207.132L201.688 207.506C201.65 207.515 201.611 207.515 201.573 207.506C201.535 207.497 201.5 207.479 201.471 207.453C201.442 207.428 201.419 207.396 201.404 207.36C201.39 207.324 201.384 207.285 201.388 207.246L201.834 201.936C201.842 201.83 201.883 201.73 201.952 201.65C202.021 201.569 202.113 201.513 202.216 201.489L203.897 201.115C203.935 201.106 203.974 201.106 204.012 201.115C204.05 201.124 204.085 201.142 204.114 201.168C204.144 201.193 204.167 201.225 204.181 201.261C204.195 201.297 204.201 201.337 204.197 201.375L203.751 206.686C203.742 206.791 203.7 206.89 203.632 206.97C203.563 207.051 203.471 207.107 203.369 207.132Z" fill="black" fill-opacity="0.7"/>
<path d="M218.066 223.656C218.472 219.036 214.258 212.102 211.465 212.102C208.672 212.102 200.146 218.663 200.146 218.663C196.849 221.05 198.481 223.323 198.481 223.323C196.54 224.606 196.045 226.344 196.898 227.148C197.75 227.952 200.608 227.148 200.608 227.148C200.608 227.148 197.783 229.21 198.481 230.225C200.146 232.661 205.627 229.454 205.627 229.454C205.627 229.454 202.443 231.557 202.63 231.955C203.824 234.57 209.013 231.516 209.013 231.516L212.667 233.384C212.663 233.813 212.749 234.237 212.917 234.631C213.085 235.025 213.333 235.381 213.644 235.675C213.956 235.969 214.325 236.195 214.728 236.341C215.131 236.486 215.56 236.546 215.988 236.518" fill="white"/>
<path d="M218.066 223.656C218.472 219.036 214.258 212.102 211.465 212.102C208.672 212.102 200.146 218.663 200.146 218.663C196.849 221.05 198.481 223.323 198.481 223.323C196.54 224.606 196.045 226.344 196.898 227.148C197.75 227.952 200.608 227.148 200.608 227.148C200.608 227.148 197.783 229.21 198.481 230.225C200.146 232.661 205.627 229.454 205.627 229.454C205.627 229.454 202.443 231.557 202.63 231.955C203.824 234.57 209.013 231.516 209.013 231.516L212.667 233.384C212.663 233.813 212.749 234.237 212.917 234.631C213.085 235.025 213.333 235.381 213.644 235.675C213.956 235.969 214.325 236.195 214.728 236.341C215.131 236.486 215.56 236.546 215.988 236.518" stroke="#263238" stroke-width="0.812" stroke-linecap="round" stroke-linejoin="round"/>
<path d="M198.482 223.3C198.482 223.3 206.464 218.143 207.463 218.005C208.462 217.867 212.165 217.063 212.165 217.063" fill="white"/>
<path d="M198.482 223.3C198.482 223.3 206.464 218.143 207.463 218.005C208.462 217.867 212.165 217.063 212.165 217.063" stroke="#263238" stroke-width="0.812" stroke-linecap="round" stroke-linejoin="round"/>
<path d="M200.609 227.149C200.609 227.149 207.105 223.803 208.275 223.803C210.054 223.606 211.819 223.299 213.561 222.886" fill="white"/>
<path d="M200.609 227.149C200.609 227.149 207.105 223.803 208.275 223.803C210.054 223.606 211.819 223.299 213.561 222.886" stroke="#263238" stroke-width="0.812" stroke-linecap="round" stroke-linejoin="round"/>
<path d="M205.629 229.454C206.384 228.915 207.186 228.445 208.024 228.049C209.571 227.938 211.123 227.938 212.669 228.049" fill="white"/>
<path d="M205.629 229.454C206.384 228.915 207.186 228.445 208.024 228.049C209.571 227.938 211.123 227.938 212.669 228.049" stroke="#263238" stroke-width="0.812" stroke-linecap="round" stroke-linejoin="round"/>
<path d="M122.512 262.746C122.512 262.746 107.149 236.34 82.8619 231.078L77.0317 235.609C77.0317 235.609 75.9274 231.549 87.1655 220.993C98.4036 210.437 115.431 231.598 120.571 241.886C125.711 252.174 122.512 262.746 122.512 262.746Z" fill="#999999" stroke="#263238" stroke-width="0.812" stroke-linecap="round" stroke-linejoin="round"/>
<path d="M92.1527 242.17C102.295 248.852 108.393 264.995 108.393 264.995L124.235 294.438C124.235 294.438 137.543 261.666 141.287 261.252L155.489 235.422C155.489 235.422 153.808 250.558 159.727 256.98C165.647 263.403 170.519 259.538 170.519 259.538L166.093 271.718L164.997 277.516C164.997 277.516 146.321 333.544 140.223 336.995C134.125 340.446 120.232 342.013 108.458 333.398C96.6836 324.782 72.2668 290.76 70.3342 280.139C68.4017 269.518 63.1886 246.343 77.9833 240.456" fill="#757575"/>
<path d="M92.1527 242.17C102.295 248.852 108.393 264.995 108.393 264.995L124.235 294.438C124.235 294.438 137.543 261.666 141.287 261.252L155.489 235.422C155.489 235.422 153.808 250.558 159.727 256.98C165.647 263.403 170.519 259.538 170.519 259.538L166.093 271.718L164.997 277.516C164.997 277.516 146.321 333.544 140.223 336.995C134.125 340.446 120.232 342.013 108.458 333.398C96.6836 324.782 72.2668 290.76 70.3342 280.139C68.4017 269.518 63.1886 246.343 77.9833 240.456" stroke="#263238" stroke-width="0.812" stroke-linecap="round" stroke-linejoin="round"/>
<path d="M114.652 241.472C115.327 242.571 115.89 243.735 116.333 244.947" stroke="#263238" stroke-width="0.812" stroke-linecap="round" stroke-linejoin="round"/>
<path d="M90.4707 223.551C100.028 224.265 107.263 233.189 113.393 239.596" stroke="#263238" stroke-width="0.812" stroke-linecap="round" stroke-linejoin="round"/>
<path d="M83.1465 225.013C84.7297 224.232 86.4405 223.742 88.1971 223.567" stroke="#263238" stroke-width="0.812" stroke-linecap="round" stroke-linejoin="round"/>
<path d="M147.636 222.634C146.374 221.877 145.005 221.313 143.576 220.961" stroke="#263238" stroke-width="0.812" stroke-linecap="round" stroke-linejoin="round"/>
<path d="M154.186 232.565C153.997 230.848 153.469 229.186 152.633 227.675C151.797 226.164 150.669 224.834 149.314 223.763" stroke="#263238" stroke-width="0.812" stroke-linecap="round" stroke-linejoin="round"/>
<path d="M147.036 265.125C146.525 264.357 146.053 263.563 145.623 262.746" stroke="#263238" stroke-width="0.812" stroke-linecap="round" stroke-linejoin="round"/>
<path d="M159.002 272.782C154.913 272.293 151.166 270.26 148.527 267.098" stroke="#263238" stroke-width="0.812" stroke-linecap="round" stroke-linejoin="round"/>
<path d="M166.051 271.743C164.475 272.408 162.792 272.782 161.082 272.847" stroke="#263238" stroke-width="0.812" stroke-linecap="round" stroke-linejoin="round"/>
<path d="M120.093 307.414C120.01 308.776 120.12 310.143 120.418 311.474" stroke="#263238" stroke-width="0.812" stroke-linecap="round" stroke-linejoin="round"/>
<path d="M124.233 294.438C122.332 297.703 121.019 301.276 120.352 304.994" stroke="#263238" stroke-width="0.812" stroke-linecap="round" stroke-linejoin="round"/>
<path d="M115.486 299.708C115.486 299.708 118.369 296.103 121.649 294.438" stroke="#263238" stroke-width="0.812" stroke-linecap="round" stroke-linejoin="round"/>
<path d="M90.4707 256.981C90.4707 256.981 99.4027 255.788 106.443 263.94" stroke="#263238" stroke-width="0.812" stroke-linecap="round" stroke-linejoin="round"/>
<path d="M81.0527 281.884C82.7612 282.135 84.5055 281.851 86.0465 281.072" stroke="#263238" stroke-width="0.812" stroke-linecap="round" stroke-linejoin="round"/>
<path d="M70.332 275.138C72.5983 277.878 75.5158 280.005 78.8174 281.325" stroke="#263238" stroke-width="0.812" stroke-linecap="round" stroke-linejoin="round"/>
<path d="M188.916 281.649C188.153 285.612 188.104 289.916 189.964 293.602" stroke="#263238" stroke-width="0.812" stroke-linecap="round" stroke-linejoin="round"/>
<path d="M194.243 267.854C192.144 271.408 190.54 275.233 189.477 279.222" stroke="#263238" stroke-width="0.812" stroke-linecap="round" stroke-linejoin="round"/>
<path d="M187.514 272.831C187.514 272.831 189 268.771 193.011 267.837" stroke="#263238" stroke-width="0.812" stroke-linecap="round" stroke-linejoin="round"/>
<path d="M208.014 257.914C207.049 257.388 206.147 256.753 205.326 256.022" stroke="#263238" stroke-width="0.812" stroke-linecap="round" stroke-linejoin="round"/>
<path d="M222.484 254.609C219.341 257.971 214.437 260.172 209.865 258.71" stroke="#263238" stroke-width="0.812" stroke-linecap="round" stroke-linejoin="round"/>
<path d="M117.162 231.533C117.162 231.533 131.941 234.968 140.182 229.454" stroke="#263238" stroke-width="0.812" stroke-linecap="round" stroke-linejoin="round"/>
<path d="M169.468 323.752C169.468 323.752 162.12 344.734 143.484 348.591" stroke="#263238" stroke-width="0.812" stroke-linecap="round" stroke-linejoin="round"/>
<path d="M116.334 353.511C116.334 353.511 131.997 365.739 153.767 364.651" stroke="#263238" stroke-width="0.812" stroke-linecap="round" stroke-linejoin="round"/>
<path opacity="0.3" d="M195.811 263.94L195.754 264.029C195.776 264 195.793 263.967 195.803 263.932L195.811 263.94Z" fill="black" fill-opacity="0.7"/>
<g filter="url(#filter0_d_211_53524)">
<circle cx="307.5" cy="116.5" r="57.5" fill="white"/>
<circle cx="307.5" cy="116.5" r="56.5" stroke="#11CDFF" stroke-width="2"/>
</g>
<mask id="mask0_211_53524" style="mask-type:alpha" maskUnits="userSpaceOnUse" x="250" y="59" width="115" height="115">
<circle cx="307.5" cy="116.5" r="57.5" fill="#F1F9FF"/>
</mask>
<g mask="url(#mask0_211_53524)">
<path d="M303.367 75.1239C309.073 70.8981 316.592 71.3453 321.108 74.173C325.623 77.0007 327.021 82.0893 328.287 85.572C330.806 92.4995 336.216 96.6183 342.073 100.617C347.741 104.503 355.103 110.196 351.217 117.961C349.46 121.482 347.262 123.9 350.588 129.619C353.913 135.337 357.408 137.982 354.996 143.474C352.584 148.965 349.498 157.556 336.518 154.476C323.539 151.396 319.577 136.653 318.255 131.174C316.932 125.695 310.578 123.447 305.936 119.511C301.295 115.575 301.755 109.39 303.077 105.435C304.085 102.4 305.218 98.0793 301.748 94.6408L301.295 94.7793C301.295 94.7793 294.323 91.6304 293.164 89.7096C292.006 87.7888 297.667 79.3435 303.367 75.1239Z" fill="#263238" stroke="#263238" stroke-width="0.968452" stroke-linecap="round" stroke-linejoin="round"/>
<path d="M300.771 158.972C300.771 158.972 295.45 175.125 295.45 186.959C295.45 198.793 297.773 229.822 297.773 229.822L305.992 280.676L314.809 280.897C314.809 280.897 314.135 263.427 315.042 249.779C315.949 236.132 313.965 226.396 313.965 226.396L315.225 233.229C315.477 234.646 329.936 281.237 329.936 281.237L339.125 279.769L336.398 257.929L331.63 230.124C331.63 230.124 337.166 197.199 338.558 192.646C339.95 188.093 339.188 176.706 336.914 171.699C334.641 166.693 329.061 160.666 329.061 160.666C329.061 160.666 306.962 162.014 300.771 158.972Z" fill="#263238" stroke="#263238" stroke-width="0.968452" stroke-linecap="round" stroke-linejoin="round"/>
<path d="M328.213 111.375C328.213 111.375 320.543 107.98 316.701 107.98C312.859 107.98 307.639 114.014 306.31 115.198C304.981 116.382 297.071 130.268 296.334 133.959C295.597 137.649 298.475 179.303 298.475 179.303C298.475 179.303 308.369 182.508 315.75 182.212C323.131 181.916 335.702 181.211 335.702 181.211C335.702 181.211 336.671 142.215 338.151 133.505C339.631 124.796 341.25 119.02 339.921 116.829C338.592 114.637 328.213 111.375 328.213 111.375Z" fill="white" stroke="#263238" stroke-width="0.968452" stroke-linecap="round" stroke-linejoin="round"/>
<path d="M280.902 158.746L278.313 153.015L281.273 152.826L280.902 158.746Z" fill="#263238" stroke="#263238" stroke-width="0.968452" stroke-linecap="round" stroke-linejoin="round"/>
<path d="M278.314 147.465C278.314 147.465 277.571 142.471 276.834 141.552C275.723 140.368 274.483 139.312 273.137 138.403C271.84 137.483 271.286 134.524 270.549 136.186C269.812 137.849 269.812 138.963 270.549 139.518C271.172 140.067 271.73 140.686 272.212 141.363L269.812 144.512C269.812 144.512 270.177 148.398 272.394 150.614C274.611 152.831 275.908 153.574 277.017 153.574C278.125 153.574 284.574 155.974 284.574 155.974L284.203 148.952C284.203 148.952 279.933 148.523 278.314 147.465Z" fill="white" stroke="#263238" stroke-width="0.968452" stroke-miterlimit="10"/>
<path d="M264.998 130.457L275.351 150.427L276.648 148.576L266.478 129.531H265.741L264.998 130.457Z" fill="#263238" stroke="#263238" stroke-width="0.968452" stroke-linecap="round" stroke-linejoin="round"/>
<path d="M269.628 143.581C269.628 143.581 267.04 138.776 267.04 136.741C267.04 134.707 268.52 136.376 268.703 137.296C268.885 138.215 271.852 142.844 271.852 142.844L269.628 143.581Z" fill="white" stroke="#263238" stroke-width="0.968452" stroke-miterlimit="10"/>
<path d="M269.996 142.844L274.99 140.81C274.99 140.81 276.098 141.364 275.544 142.29C274.99 143.215 271.287 145.249 271.287 145.249L270.178 146.358C270.178 146.358 269.253 144.324 269.996 142.844Z" fill="white" stroke="#263238" stroke-width="0.968452" stroke-linecap="round" stroke-linejoin="round"/>
<path d="M270.7 145.313L274.894 143.606C275.069 143.533 275.264 143.521 275.447 143.573C275.63 143.624 275.79 143.736 275.902 143.889C276.006 144.036 276.062 144.213 276.062 144.393C276.062 144.574 276.006 144.75 275.902 144.897C275.404 145.728 272.343 147.473 271.751 147.8C271.683 147.836 271.621 147.882 271.569 147.939C271.456 148.052 271.314 148.132 271.158 148.169C271.002 148.205 270.84 148.197 270.688 148.145C270.537 148.093 270.403 147.999 270.303 147.875C270.202 147.75 270.139 147.6 270.12 147.441C270.029 146.917 270.055 146.38 270.196 145.867C270.233 145.743 270.298 145.629 270.385 145.533C270.472 145.437 270.58 145.362 270.7 145.313Z" fill="white" stroke="#263238" stroke-width="0.968452" stroke-linecap="round" stroke-linejoin="round"/>
<path d="M272.272 147.617L275.836 146.169C275.985 146.104 276.151 146.093 276.307 146.136C276.463 146.18 276.599 146.276 276.693 146.408C276.782 146.533 276.83 146.683 276.83 146.836C276.83 146.99 276.782 147.14 276.693 147.265C276.265 147.976 273.664 149.45 273.16 149.733C273.102 149.765 273.049 149.806 273.002 149.853C272.906 149.948 272.785 150.014 272.653 150.044C272.521 150.074 272.383 150.066 272.255 150.022C272.127 149.977 272.014 149.897 271.929 149.792C271.844 149.686 271.791 149.559 271.774 149.425C271.698 148.98 271.72 148.525 271.837 148.09C271.869 147.983 271.925 147.885 272 147.803C272.075 147.721 272.168 147.658 272.272 147.617Z" fill="white" stroke="#263238" stroke-width="0.968452" stroke-linecap="round" stroke-linejoin="round"/>
<path d="M281.088 148.392L280.905 158.745L295.51 162.07V148.757L281.088 148.392Z" fill="#CFEBFE" stroke="#263238" stroke-width="0.968452" stroke-miterlimit="10"/>
<path d="M309.208 115.67C305.736 120.915 303.363 126.809 302.23 132.996C300.435 143.122 300.567 192.081 300.567 192.081L292.896 189.625C294.28 181.668 295.121 173.626 295.415 165.555C295.598 157.821 294.37 149.899 294.37 145.824C294.37 135.471 296.581 129.57 298.382 125.073C300.183 120.576 305.271 113.107 307.249 112.024C308.362 111.388 309.604 111.011 310.883 110.922L309.208 115.67Z" fill="#CFEBFE" stroke="#263238" stroke-width="0.968452" stroke-miterlimit="10"/>
<path d="M328.209 111.375C328.209 111.375 319.329 120.393 317.081 128.94C314.833 137.486 315.714 194.94 315.714 194.94C315.714 194.94 319.317 195.167 328.543 195.167C334.142 195.153 339.722 194.519 345.182 193.278C345.182 193.278 338.254 156.152 338.254 155.491C338.254 154.83 340.502 126.231 340.729 123.536C340.956 120.841 341.176 119.48 341.176 118.806C341.176 118.133 340.017 113.825 328.209 111.375Z" fill="#CFEBFE" stroke="#263238" stroke-width="0.968452" stroke-miterlimit="10"/>
<path d="M311.71 109.761L312.523 118.081C312.523 118.081 319.948 112.715 320.924 111.556C321.595 110.567 322.061 109.453 322.297 108.281L321.453 97.2979C321.453 97.2979 316.49 105.328 315.218 106.171C313.946 107.015 311.817 108.703 311.71 109.761Z" fill="white" stroke="#263238" stroke-width="0.968452" stroke-linecap="round" stroke-linejoin="round"/>
<path d="M322.678 103.444C322.678 103.444 317.148 108.59 314.667 109.742C312.185 110.895 312.003 110.12 309.906 110.12C307.808 110.12 307.235 110.693 307.235 112.009C307.235 113.326 307.808 115.442 307.808 116.582C307.808 117.722 307.424 120.587 312.954 120.014C318.483 119.441 323.817 115.82 325.549 113.911C326.574 112.776 327.296 111.401 327.646 109.912L325.927 108.023C325.925 106.856 325.734 105.697 325.36 104.591C324.775 103.249 322.678 103.444 322.678 103.444Z" fill="white" stroke="#263238" stroke-width="0.968452" stroke-linecap="round" stroke-linejoin="round"/>
<path d="M302.63 83.9912C302.63 83.9912 313.929 90.648 317.311 92.2287L319.2 92.7577C319.2 92.7577 321.637 89.2625 322.815 90.0119C323.993 90.7613 324.61 92.6507 323.974 94.3448C323.409 95.5343 322.54 96.5533 321.455 97.2984C321.455 97.2984 321.348 102.368 320.604 104.27C319.861 106.172 312.109 110.713 310.849 110.921C309.59 111.128 308.418 110.921 307.782 109.762C307.146 108.603 303.141 103.848 301.346 97.2984C299.551 90.7487 300.622 85.0492 302.63 83.9912Z" fill="white" stroke="#263238" stroke-width="0.968452" stroke-linecap="round" stroke-linejoin="round"/>
<path d="M305.161 94.6592L304.847 100.787L308.229 100.044" stroke="#263238" stroke-width="0.968452" stroke-linecap="round" stroke-linejoin="round"/>
<path d="M312.447 100.787C312.447 100.787 311.71 101.732 308.669 102.79" stroke="#263238" stroke-width="0.968452" stroke-linecap="round" stroke-linejoin="round"/>
<path d="M312.979 93.9238C312.979 93.9238 312.135 95.7187 309.074 95.0826" stroke="#263238" stroke-width="0.968452" stroke-linecap="round" stroke-linejoin="round"/>
<path d="M304.004 96.3477C303.779 96.7103 303.434 96.983 303.029 97.1187C302.625 97.2543 302.185 97.2445 301.787 97.0908" stroke="#263238" stroke-width="0.968452" stroke-linecap="round" stroke-linejoin="round"/>
<path d="M312.105 90.9632C311.321 90.6292 310.477 90.457 309.624 90.457C308.771 90.457 307.927 90.6292 307.143 90.9632" stroke="#263238" stroke-width="0.968452" stroke-linecap="round" stroke-linejoin="round"/>
<path d="M300.942 93.3927C301.364 92.2276 303.26 91.8057 303.26 91.8057" stroke="#263238" stroke-width="0.968452" stroke-linecap="round" stroke-linejoin="round"/>
<path d="M320.575 95.6104L324.171 96.4543L326.066 102.582" stroke="#263238" stroke-width="0.968452" stroke-linecap="round" stroke-linejoin="round"/>
<path d="M278.002 133.701C278.675 133.65 286.308 132.831 287.291 132.68C288.273 132.529 289.766 133.405 290.333 134.078C290.899 134.752 296.63 141.252 297.984 142.807L303.539 145.767L301.203 150.95L295.742 145.207C295.314 145.049 294.955 144.911 294.754 144.81C293.929 144.394 293.003 142.643 293.003 142.643C292.195 142.699 291.383 142.68 290.578 142.587C290.011 142.429 288.11 140.83 287.593 140.83C287.077 140.83 283.619 140.773 283.052 139.073C282.486 137.372 287.744 139.23 287.744 139.23L285.584 134.79C285.584 134.79 281.251 135.716 279.186 135.199C277.12 134.683 277.334 133.751 278.002 133.701Z" fill="white" stroke="#263238" stroke-width="0.968452" stroke-miterlimit="10"/>
<path d="M290.332 134.078C290.332 134.078 287.813 132.453 287.542 132.566C287.271 132.68 285.023 136.383 284.878 136.672C284.733 136.962 286.862 138.757 287.202 139.047C287.542 139.336 287.706 139.601 288.216 139.191C288.557 138.901 288.85 138.559 289.085 138.178" fill="white"/>
<path d="M290.332 134.078C290.332 134.078 287.813 132.453 287.542 132.566C287.271 132.68 285.023 136.383 284.878 136.672C284.733 136.962 286.862 138.757 287.202 139.047C287.542 139.336 287.706 139.601 288.216 139.191C288.557 138.901 288.85 138.559 289.085 138.178" stroke="#263238" stroke-width="0.968452" stroke-miterlimit="10"/>
<path d="M291.406 135.714C291.406 135.714 288.723 134.19 288.434 134.284C288.144 134.379 286.33 137.156 286.45 137.522C286.57 137.887 287.709 139.915 288.113 139.871C288.627 139.714 289.123 139.503 289.592 139.241" fill="white"/>
<path d="M291.406 135.714C291.406 135.714 288.723 134.19 288.434 134.284C288.144 134.379 286.33 137.156 286.45 137.522C286.57 137.887 287.709 139.915 288.113 139.871C288.627 139.714 289.123 139.503 289.592 139.241" stroke="#263238" stroke-width="0.968452" stroke-miterlimit="10"/>
<path d="M292.182 137.792C291.469 137.397 290.715 137.081 289.934 136.848C289.253 136.753 288.365 138.422 287.742 139.228C287.118 140.034 286.281 140.639 286.885 141.004C287.49 141.369 288.913 140.085 289.279 139.965C289.658 139.764 290.008 139.512 290.318 139.216L292.207 141.735" fill="white"/>
<path d="M292.182 137.792C291.469 137.397 290.715 137.081 289.934 136.848C289.253 136.753 288.365 138.422 287.742 139.228C287.118 140.034 286.281 140.639 286.885 141.004C287.49 141.369 288.913 140.085 289.279 139.965C289.658 139.764 290.008 139.512 290.318 139.216L292.207 141.735" stroke="#263238" stroke-width="0.968452" stroke-miterlimit="10"/>
<path d="M339.923 116.829C339.923 116.829 344.287 120.419 344.797 128.165C345.156 133.726 341.585 164.837 340.452 166.285C339.318 167.734 334.739 169.056 332.787 167.753C330.835 166.449 298.181 152.43 298.181 152.43L300.857 144.168L327.409 150.207C327.409 150.207 328.215 125.57 329.525 120.513C330.835 115.456 331.477 114.48 332.296 114.152" fill="#CFEBFE"/>
<path d="M339.923 116.829C339.923 116.829 344.287 120.419 344.797 128.165C345.156 133.726 341.585 164.837 340.452 166.285C339.318 167.734 334.739 169.056 332.787 167.753C330.835 166.449 298.181 152.43 298.181 152.43L300.857 144.168L327.409 150.207C327.409 150.207 328.215 125.57 329.525 120.513C330.835 115.456 331.477 114.48 332.296 114.152" stroke="#263238" stroke-width="0.968452" stroke-miterlimit="10"/>
</g>
</g>
<defs>
<filter id="filter0_d_211_53524" x="186" y="-1" width="243" height="243" filterUnits="userSpaceOnUse" color-interpolation-filters="sRGB">
<feFlood flood-opacity="0" result="BackgroundImageFix"/>
<feColorMatrix in="SourceAlpha" type="matrix" values="0 0 0 0 0 0 0 0 0 0 0 0 0 0 0 0 0 0 127 0" result="hardAlpha"/>
<feOffset dy="4"/>
<feGaussianBlur stdDeviation="32"/>
<feComposite in2="hardAlpha" operator="out"/>
<feColorMatrix type="matrix" values="0 0 0 0 0.810546 0 0 0 0 0.909281 0 0 0 0 0.983333 0 0 0 1 0"/>
<feBlend mode="normal" in2="BackgroundImageFix" result="effect1_dropShadow_211_53524"/>
<feBlend mode="normal" in="SourceGraphic" in2="effect1_dropShadow_211_53524" result="shape"/>
</filter>
<clipPath id="clip0_211_53524">
<rect width="406" height="406" fill="white"/>
</clipPath>
</defs>
</svg>
