<svg width="72" height="72" viewBox="0 0 72 72" fill="none" xmlns="http://www.w3.org/2000/svg">
<path d="M67.7018 34.2526L60.75 37.7286L51.75 20.493L58.7726 16.9817C59.3002 16.7179 59.9103 16.6718 60.4716 16.8534C61.0328 17.035 61.5003 17.4298 61.7733 17.9527L68.6901 31.1987C68.8284 31.4636 68.9125 31.7533 68.9376 32.0511C68.9628 32.3488 68.9283 32.6486 68.8363 32.9329C68.7443 33.2172 68.5966 33.4803 68.4018 33.7069C68.2071 33.9335 67.9691 34.119 67.7018 34.2526V34.2526Z" stroke="#005E9E" stroke-width="3.42857" stroke-linecap="round" stroke-linejoin="round"/>
<path d="M11.2503 37.4239L4.29846 33.948C4.0312 33.8143 3.79323 33.6288 3.59845 33.4022C3.40367 33.1756 3.25597 32.9125 3.16398 32.6282C3.07198 32.3439 3.03754 32.0442 3.06265 31.7464C3.08776 31.4487 3.17192 31.1589 3.31023 30.894L10.227 17.648C10.5 17.1251 10.9675 16.7304 11.5287 16.5487C12.09 16.3671 12.7001 16.4132 13.2277 16.677L20.2503 20.1883L11.2503 37.4239Z" stroke="#005E9E" stroke-width="3.42857" stroke-linecap="round" stroke-linejoin="round"/>
<path d="M60.75 37.7311L56.25 42.9956L45.9008 53.3448C45.6261 53.6195 45.2849 53.8184 44.9104 53.9221C44.536 54.0258 44.141 54.0308 43.7641 53.9366L27.4637 49.8615C27.158 49.7851 26.8717 49.6452 26.6235 49.4511L11.25 37.4297" stroke="#005E9E" stroke-width="3.42857" stroke-linecap="round" stroke-linejoin="round"/>
<path d="M56.2504 42.9902L43.8754 33.9902L40.2754 36.6902C38.7175 37.8586 36.8227 38.4902 34.8754 38.4902C32.928 38.4902 31.0332 37.8586 29.4754 36.6902L27.9508 35.5468C27.6929 35.3534 27.4796 35.1068 27.3253 34.8238C27.171 34.5407 27.0793 34.2278 27.0564 33.9063C27.0336 33.5847 27.0801 33.262 27.1928 32.96C27.3055 32.658 27.4818 32.3838 27.7098 32.1558L38.7164 21.1492C38.9253 20.9403 39.1733 20.7746 39.4463 20.6615C39.7193 20.5484 40.0119 20.4902 40.3073 20.4902H51.7504" stroke="#005E9E" stroke-width="3.42857" stroke-linecap="round" stroke-linejoin="round"/>
<path d="M20.4141 20.1924L34.8478 15.9845C35.3634 15.8341 35.9158 15.8732 36.4051 16.0946L46.1275 20.4938" stroke="#005E9E" stroke-width="3.42857" stroke-linecap="round" stroke-linejoin="round"/>
<path d="M31.5 59.8673L23.0233 57.7481C22.6793 57.6621 22.3605 57.4961 22.0929 57.2635L15.75 51.75" stroke="#0BB8E4" stroke-width="3.42857" stroke-linecap="round" stroke-linejoin="round"/>
</svg>
