<svg width="153" height="152" viewBox="0 0 153 152" fill="none" xmlns="http://www.w3.org/2000/svg">
<path d="M139.115 76.0001V123.5C139.107 129.797 136.603 135.834 132.15 140.286C127.698 144.738 121.661 147.243 115.365 147.25H81.25C79.9902 147.25 78.782 146.75 77.8912 145.859C77.0004 144.968 76.5 143.76 76.5 142.5C76.5 141.24 77.0004 140.032 77.8912 139.141C78.782 138.251 79.9902 137.75 81.25 137.75H115.365C119.143 137.746 122.765 136.243 125.436 133.572C128.107 130.9 129.61 127.278 129.615 123.5V122.683C128.089 123.224 126.483 123.501 124.865 123.5H115.365C111.587 123.496 107.964 121.993 105.293 119.322C102.622 116.65 101.119 113.028 101.115 109.25V85.5001C101.119 81.7221 102.622 78.1 105.293 75.4286C107.964 72.7571 111.587 71.2544 115.365 71.2501H129.403C128.21 58.2005 122.157 46.0756 112.445 37.2782C102.734 28.4808 90.071 23.653 76.9673 23.7515C76.943 23.7518 76.921 23.7518 76.8966 23.7515C63.7931 23.6534 51.1309 28.4813 41.4192 37.2787C31.7074 46.076 25.6549 58.2007 24.4611 71.2501H38.5C42.278 71.2544 45.9 72.7571 48.5715 75.4286C51.243 78.1 52.7457 81.7221 52.75 85.5001V109.25C52.7457 113.028 51.243 116.65 48.5715 119.322C45.9 121.993 42.278 123.496 38.5 123.5H29C25.222 123.496 21.6 121.993 18.9285 119.322C16.257 116.65 14.7543 113.028 14.75 109.25V76.0001C14.75 67.8546 16.3616 59.7896 19.4919 52.2696C22.6222 44.7497 27.2093 37.9233 32.9892 32.1838C38.769 26.4442 45.6273 21.9049 53.169 18.8273C60.7106 15.7497 68.7867 14.1945 76.932 14.2515C77.0769 14.2506 77.2236 14.2501 77.3686 14.2501C93.745 14.2511 109.45 20.7574 121.03 32.3377C132.609 43.9179 139.115 59.6237 139.115 76.0001Z" fill="#005E9E"/>
</svg>
