<svg width="42" height="42" viewBox="0 0 42 42" fill="none" xmlns="http://www.w3.org/2000/svg">
<path d="M24.9326 18.3711H31.4937" stroke="#0BB8E4" stroke-width="2.21006" stroke-linecap="round" stroke-linejoin="round"/>
<path d="M24.9326 23.6201H31.4937" stroke="#0BB8E4" stroke-width="2.21006" stroke-linecap="round" stroke-linejoin="round"/>
<path d="M15.1076 23.6204C17.2817 23.6204 19.0442 21.8579 19.0442 19.6837C19.0442 17.5096 17.2817 15.7471 15.1076 15.7471C12.9334 15.7471 11.1709 17.5096 11.1709 19.6837C11.1709 21.8579 12.9334 23.6204 15.1076 23.6204Z" stroke="#005E9E" stroke-width="2.21006" stroke-linecap="round" stroke-linejoin="round"/>
<path d="M10.0234 27.5567C10.3147 26.43 10.972 25.4319 11.8921 24.7194C12.8122 24.0068 13.943 23.6202 15.1068 23.6201C16.2705 23.6201 17.4013 24.0067 18.3215 24.7192C19.2417 25.4316 19.899 26.4296 20.1904 27.5564" stroke="#005E9E" stroke-width="2.21006" stroke-linecap="round" stroke-linejoin="round"/>
<path d="M35.4301 7.87402H6.56125C5.83653 7.87402 5.24902 8.46153 5.24902 9.18625V32.8063C5.24902 33.531 5.83653 34.1185 6.56125 34.1185H35.4301C36.1549 34.1185 36.7424 33.531 36.7424 32.8063V9.18625C36.7424 8.46153 36.1549 7.87402 35.4301 7.87402Z" stroke="#005E9E" stroke-width="2.21006" stroke-linecap="round" stroke-linejoin="round"/>
</svg>
