<svg width="259" height="180" viewBox="0 0 259 180" fill="none" xmlns="http://www.w3.org/2000/svg">
<g opacity="0.2">
<path d="M31.536 -104.459C16.412 -79.5418 6.51204 -51.4379 2.66681 -22.5082C0.288022 -4.61033 1.12261 15.9164 14.233 28.2638C24.0582 37.5193 38.5415 39.8218 51.9993 39.3243C65.4571 38.8268 78.8391 35.9843 92.2822 36.7785C105.725 37.5737 119.961 42.9066 126.781 54.5765C133.235 65.6192 131.628 79.3759 130.837 92.1584C130.047 104.942 130.997 119.453 140.597 127.876C154.193 139.804 176.345 132.434 192.371 140.773C207.572 148.683 213.745 168.862 229.407 175.801C242.499 181.603 257.568 176.212 270.808 170.765C284.611 165.086 298.386 159.338 312.131 153.519" stroke="#0BB8E4" stroke-width="2.3"/>
<path d="M47.3326 -120.945C32.53 -96.6089 22.8386 -69.1616 19.0741 -40.9063C16.7461 -23.4258 17.5628 -3.37772 30.396 8.68232C40.0126 17.7214 54.1896 19.9708 67.3627 19.4838C80.5348 18.9987 93.634 16.2218 106.793 16.9983C119.953 17.7748 133.886 22.9839 140.562 34.38C146.88 45.1667 145.307 58.6019 144.532 71.0867C143.759 83.5715 144.688 97.7437 154.086 105.971C167.394 117.621 189.077 110.422 204.764 118.567C219.643 126.292 225.685 146.001 241.017 152.779C253.83 158.444 268.581 153.18 281.542 147.86C295.052 142.313 308.535 136.699 321.989 131.016" stroke="#0BB8E4" stroke-width="2.3"/>
<path d="M62.3049 -137.433C47.8208 -113.604 38.34 -86.7308 34.6583 -59.0656C32.3791 -41.9502 33.1789 -22.3211 45.7339 -10.5134C55.1437 -1.66372 69.0144 0.538292 81.9018 0.0622611C94.7901 -0.41377 107.605 -3.13141 120.48 -2.37135C133.355 -1.61128 146.987 3.4885 153.518 14.647C159.7 25.2078 158.16 38.3625 157.403 50.5869C156.646 62.8103 157.555 76.6865 166.75 84.7414C179.771 96.1484 200.984 89.0999 216.333 97.0757C230.89 104.64 236.802 123.935 251.801 130.572C264.338 136.119 278.769 130.964 291.45 125.755C304.668 120.324 317.86 114.827 331.023 109.263" stroke="#0BB8E4" stroke-width="2.3"/>
<path d="M78.0232 -153.921C63.8987 -130.674 54.6546 -104.456 51.0629 -77.4657C48.8407 -60.7677 49.6205 -41.6173 61.8636 -30.0978C71.0397 -21.4636 84.5647 -19.3147 97.1317 -19.7793C109.7 -20.2439 122.197 -22.8959 134.751 -22.1535C147.305 -21.4122 160.599 -16.4373 166.968 -5.55043C172.997 4.75326 171.495 17.5864 170.757 29.5121C170.018 41.4389 170.905 54.9758 179.87 62.834C192.567 73.9621 213.254 67.0864 228.221 74.8665C242.416 82.2464 248.179 101.072 262.807 107.547C275.032 112.959 289.106 107.929 301.47 102.848C314.36 97.5497 327.223 92.1863 340.06 86.7577" stroke="#0BB8E4" stroke-width="2.3"/>
<path d="M92.9995 -171.232C79.1954 -148.494 70.1598 -122.85 66.6499 -96.4491C64.4785 -80.1172 65.2404 -61.3857 77.2063 -50.1175C86.1738 -41.6728 99.3925 -39.5712 111.675 -40.0258C123.958 -40.4794 136.172 -43.0731 148.442 -42.3482C160.711 -41.6222 173.704 -36.7557 179.929 -26.1074C185.82 -16.0296 184.353 -3.47691 183.631 8.18843C182.909 19.8538 183.777 33.0948 192.538 40.7819C204.948 51.6658 225.166 44.9403 239.794 52.5502C253.667 59.7689 259.3 78.1825 273.596 84.5158C285.544 89.8092 299.298 84.8901 311.383 79.9195C323.981 74.737 336.553 69.4911 349.098 64.1819" stroke="#0BB8E4" stroke-width="2.3"/>
<path d="M108.717 -187.721C95.2732 -165.564 86.4734 -140.573 83.0545 -114.849C80.9401 -98.9336 81.682 -80.6818 93.335 -69.7018C102.07 -61.4726 114.943 -59.4251 126.905 -59.8673C138.869 -60.3094 150.763 -62.8375 162.713 -62.1303C174.662 -61.4231 187.317 -56.6814 193.378 -46.3048C199.116 -36.485 197.687 -24.2519 196.984 -12.8852C196.282 -1.51853 197.125 11.3842 205.659 18.8746C217.744 29.4807 237.434 22.927 251.681 30.3432C265.192 37.3767 270.678 55.3188 284.602 61.4908C296.239 66.6489 309.633 61.8558 321.403 57.0122C333.672 51.9619 345.915 46.8502 358.134 41.6763" stroke="#0BB8E4" stroke-width="2.3"/>
<path d="M124.513 -204.209C111.39 -182.633 102.799 -158.299 99.4618 -133.249C97.3982 -117.751 98.1222 -99.9779 109.499 -89.2852C118.024 -81.2724 130.592 -79.2781 142.269 -79.7087C153.946 -80.1404 165.558 -82.6009 177.224 -81.9125C188.888 -81.224 201.241 -76.6061 207.159 -66.5022C212.76 -56.9395 211.365 -45.0289 210.679 -33.9599C209.993 -22.8909 210.816 -10.3264 219.147 -3.03262C230.945 7.29557 250.166 0.91355 264.073 8.13518C277.264 14.9844 282.619 32.4562 296.21 38.4658C307.57 43.4887 320.645 38.8214 332.135 34.1048C344.112 29.1876 356.064 24.2092 367.992 19.1716" stroke="#0BB8E4" stroke-width="2.3"/>
<path d="M139.485 -220.696C126.682 -199.629 118.301 -175.868 115.045 -151.408C113.032 -136.276 113.739 -118.921 124.836 -108.482C133.155 -100.657 145.415 -98.7094 156.808 -99.131C168.2 -99.5507 179.529 -101.955 190.91 -101.282C202.291 -100.61 214.341 -96.1013 220.116 -86.2349C225.58 -76.8982 224.219 -65.268 223.549 -54.4594C222.881 -43.6518 223.685 -31.3832 231.812 -24.2616C243.322 -14.1765 262.074 -20.4083 275.641 -13.357C288.51 -6.66987 293.735 10.3913 306.994 16.2588C318.077 21.1633 330.835 16.6063 342.045 12.0007C353.729 7.1992 365.389 2.33831 377.026 -2.581" stroke="#0BB8E4" stroke-width="2.3"/>
</g>
</svg>
