<svg width="65" height="65" viewBox="0 0 65 65" fill="none" xmlns="http://www.w3.org/2000/svg">
<path d="M32.5 44.6875C43.7183 44.6875 52.8125 35.5933 52.8125 24.375C52.8125 13.1567 43.7183 4.0625 32.5 4.0625C21.2817 4.0625 12.1875 13.1567 12.1875 24.375C12.1875 35.5933 21.2817 44.6875 32.5 44.6875Z" stroke="#005E9E" stroke-width="3.95238" stroke-linecap="round" stroke-linejoin="round"/>
<path d="M32.5 36.5625C39.231 36.5625 44.6875 31.106 44.6875 24.375C44.6875 17.644 39.231 12.1875 32.5 12.1875C25.769 12.1875 20.3125 17.644 20.3125 24.375C20.3125 31.106 25.769 36.5625 32.5 36.5625Z" stroke="#0BB8E4" stroke-width="3.95238" stroke-linecap="round" stroke-linejoin="round"/>
<path d="M44.6875 40.625V60.9388L32.4982 54.845L20.3125 60.9388V40.6268" stroke="#005E9E" stroke-width="3.95238" stroke-linecap="round" stroke-linejoin="round"/>
</svg>
