<svg width="201" height="274" viewBox="0 0 201 274" fill="none" xmlns="http://www.w3.org/2000/svg">
<g opacity="0.2">
<path d="M66.4436 11.2758C96.8513 25.7267 123.523 45.3803 144.22 68.5852C157.025 82.9414 167.915 101.076 161.036 117.893C155.883 130.498 141.777 139.275 127.158 145.152C112.538 151.029 96.6535 154.843 82.7908 161.829C68.9286 168.816 56.8266 180.097 56.2588 193.381C55.721 205.951 65.3272 217.089 73.5052 227.767C81.6817 238.447 88.9975 251.436 83.606 263.215C75.9699 279.897 48.1457 283.907 35.8612 298.627C24.2093 312.587 29.2146 332.923 16.5143 346.261C5.89944 357.411 -13.2446 359.813 -30.4727 361.31C-48.4338 362.869 -66.4042 364.355 -84.3835 365.767" stroke="#0BB8E4" stroke-width="2.3"/>
<path d="M40.159 4.42737C69.891 18.5269 95.9641 37.7107 116.188 60.3705C128.699 74.3897 139.333 92.102 132.585 108.541C127.53 120.861 113.72 129.449 99.4097 135.201C85.1015 140.955 69.5558 144.693 55.9851 151.531C42.4144 158.369 30.5626 169.401 29.9919 182.381C29.4523 194.666 38.8379 205.542 46.8271 215.971C54.8152 226.4 61.9584 239.086 56.6697 250.601C49.1804 266.908 21.9541 270.847 9.91931 285.239C-1.49494 298.889 3.37889 318.757 -9.06115 331.801C-19.4585 342.702 -38.1904 345.064 -55.0485 346.54C-72.6214 348.076 -90.2045 349.542 -107.795 350.935" stroke="#0BB8E4" stroke-width="2.3"/>
<path d="M14.7435 -2.80782C43.8447 11.0017 69.3643 29.7882 89.1614 51.9768C101.411 65.7032 111.823 83.0455 105.226 99.1358C100.282 111.195 86.7717 119.599 72.772 125.227C58.7712 130.855 43.5618 134.511 30.285 141.202C17.0082 147.892 5.41505 158.689 4.86106 171.395C4.33697 183.421 13.5266 194.07 21.3473 204.282C29.1685 214.493 36.1628 226.914 30.9915 238.186C23.669 254.148 -2.97047 257.996 -14.7422 272.083C-25.9066 285.444 -21.1304 304.893 -33.2975 317.659C-43.468 328.329 -61.7969 330.636 -78.2929 332.076C-95.4881 333.575 -112.694 335.006 -129.907 336.366" stroke="#0BB8E4" stroke-width="2.3"/>
<path d="M-11.4578 -9.69294C16.9267 3.78223 41.8184 22.1138 61.1321 43.7607C73.0811 57.1531 83.24 74.0721 76.8101 89.7671C71.9911 101.531 58.8186 109.726 45.1666 115.214C31.5136 120.702 16.6808 124.266 3.73504 130.791C-9.21128 137.315 -20.5157 147.845 -21.0522 160.241C-21.5605 171.972 -12.597 182.362 -4.9669 192.324C2.66377 202.288 9.48708 214.405 4.44828 225.399C-2.68968 240.968 -28.6702 244.719 -40.1466 258.458C-51.0316 271.49 -46.3667 290.463 -58.231 302.915C-68.1469 313.322 -86.0228 315.57 -102.108 316.972C-118.878 318.433 -135.657 319.825 -152.445 321.148" stroke="#0BB8E4" stroke-width="2.3"/>
<path d="M-37.3401 -17.641C-9.58852 -4.45487 14.7513 13.4777 33.6399 34.6537C45.3247 47.7534 55.2623 64.302 48.9834 79.6498C44.2779 91.1518 31.4044 99.1631 18.0614 104.526C4.71793 109.89 -9.78017 113.372 -22.4326 119.749C-35.0845 126.126 -46.1309 136.421 -46.6502 148.543C-47.142 160.015 -38.3764 170.178 -30.9128 179.923C-23.4501 189.669 -16.7757 201.521 -21.6965 212.271C-28.6683 227.495 -54.0621 231.156 -65.276 244.589C-75.9101 257.33 -71.3433 275.887 -82.9359 288.061C-92.6245 298.236 -110.097 300.429 -125.821 301.796C-142.213 303.22 -158.615 304.577 -175.023 305.866" stroke="#0BB8E4" stroke-width="2.3"/>
<path d="M-63.5423 -24.5285C-36.5085 -11.6763 -12.7949 5.80167 5.60861 26.4356C16.9938 39.2022 26.6774 55.3267 20.5664 70.2787C15.9851 81.4855 3.44869 89.288 -9.54594 94.5115C-22.5427 99.736 -36.662 103.125 -48.9846 109.336C-61.306 115.547 -72.0637 125.576 -72.5654 137.386C-73.042 148.564 -64.4994 158.468 -57.2284 167.964C-49.9574 177.46 -43.4512 189.009 -48.2427 199.483C-55.0283 214.314 -79.7617 217.876 -90.6802 230.963C-101.035 243.375 -96.5827 261.455 -107.871 273.315C-117.305 283.227 -134.323 285.361 -149.639 286.69C-165.605 288.074 -181.579 289.393 -197.562 290.647" stroke="#0BB8E4" stroke-width="2.3"/>
<path d="M-89.8307 -31.3751C-63.4716 -18.8747 -40.3569 -1.86652 -22.4275 18.2228C-11.3359 30.6525 -1.90796 46.3548 -7.88961 60.929C-12.3718 71.8505 -24.6134 79.4639 -37.2982 84.5639C-49.9835 89.6631 -63.7639 92.978 -75.7938 99.0398C-87.8227 105.101 -98.3301 114.882 -98.8352 126.389C-99.3131 137.28 -90.9926 146.922 -83.9105 156.168C-76.8273 165.415 -70.4942 176.661 -75.1824 186.87C-81.8212 201.327 -105.957 204.818 -116.625 217.577C-126.744 229.679 -122.422 247.291 -133.45 258.855C-142.667 268.521 -159.272 270.614 -174.217 271.921C-189.795 273.283 -205.382 274.581 -220.978 275.816" stroke="#0BB8E4" stroke-width="2.3"/>
<path d="M-115.238 -38.6105C-89.5122 -26.4 -66.9494 -9.7887 -49.4456 9.82891C-38.6172 21.9654 -29.4111 37.2985 -35.2407 51.523C-39.611 62.1847 -51.5519 69.6141 -63.9283 74.5885C-76.3035 79.5646 -89.7493 82.7952 -101.486 88.7107C-113.222 94.625 -123.47 104.169 -123.958 115.404C-124.421 126.035 -116.297 135.451 -109.381 144.48C-102.467 153.509 -96.283 164.49 -100.853 174.455C-107.325 188.566 -130.875 191.967 -141.279 204.42C-151.148 216.231 -146.923 233.428 -157.679 244.713C-166.669 254.146 -182.872 256.186 -197.455 257.458C-212.656 258.783 -227.864 260.046 -243.082 261.247" stroke="#0BB8E4" stroke-width="2.3"/>
</g>
</svg>
