<svg width="20" height="20" viewBox="0 0 20 20" fill="none" xmlns="http://www.w3.org/2000/svg">
<path d="M7.71136 16.2555H4.18868C4.03296 16.2555 3.88363 16.1937 3.77352 16.0836C3.66342 15.9735 3.60156 15.8241 3.60156 15.6684V12.3889C3.60156 12.3118 3.61675 12.2355 3.64625 12.1643C3.67576 12.093 3.71901 12.0283 3.77352 11.9738L12.5802 3.16708C12.6903 3.05697 12.8397 2.99512 12.9954 2.99512C13.1511 2.99512 13.3004 3.05697 13.4105 3.16708L16.69 6.44657C16.8001 6.55667 16.862 6.70601 16.862 6.86172C16.862 7.01743 16.8001 7.16677 16.69 7.27687L7.71136 16.2555Z" stroke="#005E9E" stroke-width="1.5" stroke-linecap="round" stroke-linejoin="round"/>
<path d="M10.6475 5.10059L14.7573 9.21038" stroke="#005E9E" stroke-width="1.5" stroke-linecap="round" stroke-linejoin="round"/>
</svg>
