<svg width="69" height="69" viewBox="0 0 69 69" fill="none" xmlns="http://www.w3.org/2000/svg">
<circle cx="34.5" cy="34.5" r="34.5" fill="#EFF9FF"/>
<path d="M38.9258 24C40.621 24.4559 42.1667 25.3493 43.408 26.5906C44.6493 27.8319 45.5427 29.3776 45.9986 31.0728" stroke="#0BB8E4" stroke-width="2" stroke-linecap="round" stroke-linejoin="round"/>
<path d="M37.8906 27.8652C38.9078 28.1388 39.8352 28.6748 40.58 29.4196C41.3248 30.1644 41.8608 31.0918 42.1343 32.1089" stroke="#0BB8E4" stroke-width="2" stroke-linecap="round" stroke-linejoin="round"/>
<path d="M30.5595 34.6025C31.5968 36.7232 33.3158 38.4344 35.4412 39.462C35.5967 39.5357 35.7687 39.5676 35.9403 39.5546C36.1119 39.5417 36.2771 39.4842 36.4198 39.388L39.5492 37.3012C39.6877 37.2089 39.8469 37.1526 40.0126 37.1374C40.1782 37.1221 40.3451 37.1485 40.498 37.214L46.3526 39.7231C46.5515 39.8076 46.7175 39.9545 46.8257 40.1415C46.9339 40.3286 46.9783 40.5457 46.9524 40.7602C46.7673 42.2082 46.0608 43.5391 44.9652 44.5038C43.8695 45.4684 42.4598 46.0005 41 46.0006C36.4913 46.0006 32.1673 44.2095 28.9792 41.0214C25.7911 37.8333 24 33.5093 24 29.0006C24.0001 27.5408 24.5322 26.1311 25.4969 25.0355C26.4615 23.9398 27.7924 23.2333 29.2404 23.0482C29.4549 23.0223 29.672 23.0667 29.8591 23.1749C30.0461 23.2831 30.193 23.4491 30.2775 23.648L32.7888 29.5077C32.8537 29.6593 32.8802 29.8246 32.8658 29.9889C32.8514 30.1531 32.7967 30.3113 32.7064 30.4493L30.6268 33.6267C30.5322 33.7697 30.4762 33.9347 30.4644 34.1058C30.4526 34.2768 30.4854 34.4479 30.5595 34.6025V34.6025Z" stroke="#005E9E" stroke-width="2" stroke-linecap="round" stroke-linejoin="round"/>
</svg>
