<svg width="42" height="43" viewBox="0 0 42 43" fill="none" xmlns="http://www.w3.org/2000/svg">
<path d="M14.9121 24.7715L24.4538 30.9054" stroke="#005E9E" stroke-width="2.21006" stroke-linecap="round" stroke-linejoin="round"/>
<path d="M10.4979 27.1814C13.3968 27.1814 15.7468 24.8314 15.7468 21.9325C15.7468 19.0336 13.3968 16.6836 10.4979 16.6836C7.59903 16.6836 5.24902 19.0336 5.24902 21.9325C5.24902 24.8314 7.59903 27.1814 10.4979 27.1814Z" stroke="#005E9E" stroke-width="2.21006" stroke-linecap="round" stroke-linejoin="round"/>
<path d="M28.869 38.9919C31.7679 38.9919 34.1179 36.6419 34.1179 33.743C34.1179 30.8441 31.7679 28.4941 28.869 28.4941C25.9701 28.4941 23.6201 30.8441 23.6201 33.743C23.6201 36.6419 25.9701 38.9919 28.869 38.9919Z" stroke="#0BB8E4" stroke-width="2.21006" stroke-linecap="round" stroke-linejoin="round"/>
<path d="M24.4538 12.9609L14.9121 19.0949" stroke="#005E9E" stroke-width="2.21006" stroke-linecap="round" stroke-linejoin="round"/>
<path d="M28.869 15.3728C31.7679 15.3728 34.1179 13.0228 34.1179 10.1239C34.1179 7.22501 31.7679 4.875 28.869 4.875C25.9701 4.875 23.6201 7.22501 23.6201 10.1239C23.6201 13.0228 25.9701 15.3728 28.869 15.3728Z" stroke="#0BB8E4" stroke-width="2.21006" stroke-linecap="round" stroke-linejoin="round"/>
</svg>
