<svg width="42" height="43" viewBox="0 0 42 43" fill="none" xmlns="http://www.w3.org/2000/svg">
<path d="M20.9957 27.2082C24.6193 27.2082 27.5568 24.2707 27.5568 20.6471C27.5568 17.0234 24.6193 14.0859 20.9957 14.0859C17.3721 14.0859 14.4346 17.0234 14.4346 20.6471C14.4346 24.2707 17.3721 27.2082 20.9957 27.2082Z" stroke="#005E9E" stroke-width="2.21006" stroke-miterlimit="10"/>
<path d="M10.4658 33.6674C11.4543 31.724 12.9612 30.0921 14.8198 28.9522C16.6784 27.8123 18.8162 27.209 20.9965 27.209C23.1769 27.209 25.3146 27.8123 27.1733 28.9522C29.0319 30.092 30.5388 31.724 31.5273 33.6674" stroke="#005E9E" stroke-width="2.21006" stroke-linecap="round" stroke-linejoin="round"/>
<path d="M28.8691 10.1504H36.7425" stroke="#0BB8E4" stroke-width="2.21006" stroke-linecap="round" stroke-linejoin="round"/>
<path d="M32.8057 6.21289V14.0862" stroke="#0BB8E4" stroke-width="2.21006" stroke-linecap="round" stroke-linejoin="round"/>
<path d="M36.548 19.4758C37.0692 22.7573 36.538 26.1196 35.0306 29.0805C33.5232 32.0415 31.1169 34.4491 28.1568 35.9582C25.1966 37.4673 21.8347 38.0004 18.5529 37.481C15.2712 36.9616 12.2381 35.4164 9.88869 33.067C7.53925 30.7175 5.99406 27.6845 5.47466 24.4027C4.95526 21.121 5.48833 17.759 6.99743 14.7989C8.50653 11.8387 10.9142 9.43247 13.8751 7.92504C16.8361 6.41761 20.1984 5.88644 23.4798 6.40769" stroke="#005E9E" stroke-width="2.21006" stroke-linecap="round" stroke-linejoin="round"/>
</svg>
