<svg width="42" height="43" viewBox="0 0 42 43" fill="none" xmlns="http://www.w3.org/2000/svg">
<path d="M13.1215 24.575C16.745 24.575 19.6824 21.6376 19.6824 18.0141C19.6824 14.3906 16.745 11.4531 13.1215 11.4531C9.49798 11.4531 6.56055 14.3906 6.56055 18.0141C6.56055 21.6376 9.49798 24.575 13.1215 24.575Z" stroke="#005E9E" stroke-width="2" stroke-linecap="round" stroke-linejoin="round"/>
<path d="M24.9316 14.0762H40.6779" stroke="#0BB8E4" stroke-width="2" stroke-linecap="round" stroke-linejoin="round"/>
<path d="M24.9316 21.9492H40.6779" stroke="#0BB8E4" stroke-width="2" stroke-linecap="round" stroke-linejoin="round"/>
<path d="M28.8682 29.8223H40.6779" stroke="#0BB8E4" stroke-width="2" stroke-linecap="round" stroke-linejoin="round"/>
<path d="M2.9541 32.4473C3.53655 30.1938 4.8512 28.1977 6.69147 26.7726C8.53174 25.3475 10.7933 24.5742 13.1209 24.5742C15.4484 24.5742 17.71 25.3475 19.5503 26.7726C21.3906 28.1977 22.7052 30.1938 23.2877 32.4473" stroke="#005E9E" stroke-width="2" stroke-linecap="round" stroke-linejoin="round"/>
</svg>
