<svg width="24" height="24" viewBox="0 0 24 24" fill="none" xmlns="http://www.w3.org/2000/svg">
<g clip-path="url(#clip0_211_49412)">
<path d="M20.1825 3.6207C17.9616 1.40806 15.0085 0.18885 11.8621 0.1875C5.37861 0.1875 0.102324 5.43889 0.0997284 11.8936C0.0989729 13.9569 0.640461 15.9709 1.66968 17.7463L0.000976562 23.8125L6.23636 22.1847C7.95433 23.1175 9.88865 23.609 11.8571 23.6098H11.8621H11.8621C18.3446 23.6098 23.6217 18.3575 23.6244 11.9031C23.6255 8.77483 22.4031 5.83349 20.1825 3.6207ZM11.8621 21.6326H11.8583C10.1038 21.6317 8.38318 21.1627 6.88242 20.2761L6.52526 20.0653L2.82505 21.0312L3.81295 17.4407L3.58025 17.0726C2.60155 15.5233 2.08488 13.7328 2.08561 11.8944C2.08776 6.52941 6.47321 2.16478 11.8658 2.16478C14.4772 2.16586 16.9316 3.17927 18.7776 5.01835C20.6234 6.85742 21.6392 9.3022 21.6384 11.9023C21.6361 17.2674 17.2505 21.6326 11.8621 21.6326Z" fill="#E0E0E0"/>
<path d="M0.540039 23.1391L2.13252 17.35C1.15006 15.6557 0.633406 13.7335 0.634026 11.7649C0.636602 5.60512 5.67192 0.59375 11.8587 0.59375C14.8615 0.5951 17.6798 1.75855 19.7987 3.87018C21.9182 5.98178 23.0847 8.78857 23.0834 11.7736C23.0809 17.9335 18.0452 22.9453 11.8592 22.9453C11.8587 22.9453 11.8595 22.9453 11.8592 22.9453H11.8542C9.97568 22.9447 8.12986 22.4752 6.49048 21.5857L0.540039 23.1391Z" fill="url(#paint0_linear_211_49412)"/>
<path fill-rule="evenodd" clip-rule="evenodd" d="M8.9543 6.92453C8.73669 6.44283 8.50757 6.43319 8.30054 6.42476C8.1312 6.41753 7.93733 6.41797 7.74378 6.41797C7.55008 6.41797 7.2353 6.49045 6.96911 6.77988C6.70276 7.06932 5.95215 7.76902 5.95215 9.19207C5.95215 10.6153 6.99332 11.9904 7.13845 12.1836C7.28373 12.3764 9.14831 15.3901 12.1013 16.5495C14.5554 17.513 15.0549 17.3213 15.5876 17.2731C16.1203 17.2249 17.3064 16.5736 17.5485 15.8981C17.7907 15.2228 17.7907 14.644 17.718 14.523C17.6454 14.4024 17.4517 14.3301 17.1611 14.1855C16.8706 14.0408 15.4423 13.341 15.1759 13.2446C14.9096 13.1481 14.7159 13.0999 14.5222 13.3895C14.3285 13.6788 13.772 14.3301 13.6025 14.523C13.433 14.7163 13.2635 14.7404 12.973 14.5957C12.6824 14.4507 11.7467 14.1455 10.6367 13.1602C9.77302 12.3936 9.18992 11.4468 9.02043 11.1572C8.85093 10.8679 9.00226 10.7112 9.148 10.567C9.27845 10.4374 9.43856 10.2294 9.58384 10.0605C9.72881 9.89157 9.77724 9.77104 9.87409 9.57819C9.97095 9.38502 9.92252 9.21614 9.84988 9.0715C9.77724 8.92686 9.21262 7.49646 8.9543 6.92453Z" fill="white"/>
<path d="M20.0866 3.58423C17.8912 1.39699 14.9719 0.191799 11.8617 0.19043C5.45262 0.19043 0.236904 5.38154 0.234328 11.7621C0.233572 13.8018 0.768843 15.7927 1.78625 17.5477L0.136719 23.5442L6.30053 21.9351C7.9988 22.8572 9.9109 23.3431 11.8567 23.3438H11.8617H11.8617C18.2698 23.3438 23.4863 18.1518 23.489 11.7715C23.4901 8.67919 22.2817 5.77162 20.0866 3.58423ZM11.8617 21.3894H11.858C10.1235 21.3885 8.42269 20.9249 6.93916 20.0484L6.58609 19.8401L2.92836 20.7948L3.90492 17.2456L3.67489 16.8817C2.70742 15.3502 2.19668 13.5803 2.19743 11.7629C2.19954 6.45957 6.53464 2.14505 11.8654 2.14505C14.4468 2.14611 16.873 3.14789 18.6978 4.96586C20.5224 6.78382 21.5265 9.20052 21.5258 11.7708C21.5235 17.0743 17.1882 21.3894 11.8617 21.3894Z" fill="white"/>
</g>
<defs>
<linearGradient id="paint0_linear_211_49412" x1="11.8117" y1="23.1391" x2="11.8117" y2="0.593788" gradientUnits="userSpaceOnUse">
<stop stop-color="#20B038"/>
<stop offset="1" stop-color="#60D66A"/>
</linearGradient>
<clipPath id="clip0_211_49412">
<rect width="23.625" height="23.625" fill="white" transform="translate(0 0.1875)"/>
</clipPath>
</defs>
</svg>
