<?xml version="1.0" encoding="utf-8"?>
<!-- Generator: Adobe Illustrator 24.1.1, SVG Export Plug-In . SVG Version: 6.00 Build 0)  -->
<svg version="1.1" id="Layer_1" xmlns="http://www.w3.org/2000/svg" xmlns:xlink="http://www.w3.org/1999/xlink" x="0px" y="0px"
	 viewBox="0 0 672 691" style="enable-background:new 0 0 672 691;" xml:space="preserve">
<style type="text/css">
	.st0{opacity:0.2;enable-background:new    ;}
	.st1{fill:#73CFF1;}
	.st2{fill:#FFFFFF;}
	.st3{fill:none;stroke:#263238;stroke-width:1.027;stroke-miterlimit:10;}
	.st4{fill:none;stroke:#263238;stroke-width:1.027;stroke-linecap:round;stroke-linejoin:round;}
	.st5{opacity:0.1;enable-background:new    ;}
	.st6{opacity:0.3;enable-background:new    ;}
	.st7{opacity:5.000000e-02;enable-background:new    ;}
	.st8{opacity:0.4;fill:#FFFFFF;enable-background:new    ;}
	.st9{opacity:0.5;fill:#FFFFFF;enable-background:new    ;}
	.st10{fill:#263238;}
	
		.st11{opacity:0.8;fill:none;stroke:#FFFFFF;stroke-width:1.027;stroke-linecap:round;stroke-linejoin:round;enable-background:new    ;}
	.st12{opacity:0.7;fill:#FFFFFF;enable-background:new    ;}
	.st13{fill:none;stroke:#FFFFFF;stroke-width:1.027;stroke-linecap:round;stroke-linejoin:round;}
	.st14{fill:#FFFFFF;stroke:#263238;stroke-width:1.027;stroke-linecap:round;stroke-linejoin:round;}
	.st15{opacity:0.5;fill:url(#SVGID_1_);enable-background:new    ;}
</style>
<path class="st0" d="M358,690.1c-173.4,0-314-10.7-314-23.8c0-13.1,140.6-23.8,314-23.8s314,10.7,314,23.8
	C672,679.4,531.4,690.1,358,690.1z"/>
<path class="st1" d="M261.8,613c12.6,15.2,27.7,28.2,44.6,38.5c5.3,3.1,10.7,6,16.3,8.5c38.6,17.3,82.6,18.5,123.7,8.5
	c86.5-21,132.4-97.3,138.2-182c1.6-22.9,5.1-47.6-4.2-69.4c-9.3-21.8-28-35.3-49.3-44.7c-15.4-6.9-32-11.5-47.2-15.2
	c-27.4-6.8-56.2-3.8-81.6,8.4C384.6,374,372,388.6,357,401c-1.6,1.3-3.2,2.6-4.8,3.9c-15.1,12.2-31,23.3-47.5,33.4
	c-25.1,15.3-50.9,29.8-67,55.6C212.1,534.9,233.7,579.6,261.8,613z"/>
<path class="st2" d="M261.8,613c12.6,15.2,27.7,28.2,44.6,38.5c5.3,3.1,10.7,6,16.3,8.5c38.6,17.3,82.6,18.5,123.7,8.5
	c86.5-21,132.4-97.3,138.2-182c1.6-22.9,5.1-47.6-4.2-69.4c-9.3-21.8-28-35.3-49.3-44.7c-15.4-6.9-32-11.5-47.2-15.2
	c-27.4-6.8-56.2-3.8-81.6,8.4C384.6,374,372,388.6,357,401c-1.6,1.3-3.2,2.6-4.8,3.9c-15.1,12.2-31,23.3-47.5,33.4
	c-25.1,15.3-50.9,29.8-67,55.6C212.1,534.9,233.7,579.6,261.8,613z"/>
<path class="st3" d="M352.3,404.9c1.6-1.3,3.2-2.6,4.8-3.9c14.9-12.4,27.6-27,45.4-35.4c25.4-12.2,54.3-15.2,81.6-8.4
	c36,8.9,80.5,22.7,96.4,60c9.3,21.7,5.8,46.5,4.2,69.4c-5.9,84.7-51.8,161.1-138.3,182c-47.1,11.4-97.8,8.3-140-17
	c-16.9-10.3-32-23.3-44.6-38.5c-28.1-33.4-49.7-78.1-24.1-119.1c16.1-25.8,41.8-40.2,67-55.6C321.2,428.2,337.1,417,352.3,404.9
	L352.3,404.9z"/>
<path class="st4" d="M483.3,556c7.2,2.2,14.2,5,20.9,8.4"/>
<path class="st4" d="M439.2,547.6c10.5,0.9,21,2.6,31.2,5"/>
<path class="st4" d="M448.4,545.4c0,0,40.6-23.6,89.6-4.7"/>
<path class="st5" d="M261.8,613c12.6,15.2,27.7,28.2,44.6,38.5c5.3,3.1,10.7,6,16.3,8.5c4.4-1.4,8.8-2.9,13-4.8
	c25.3-10.9,46.6-29.2,67.4-47.4c12.5-10.9,25.3-22,40.3-29.2c20.3-9.6,43.4-11.5,65-5.4c-11.2-12.6-26.4-21-43-23.6
	c10.7-9.8,25.7-13.9,40.2-14.1c14.5-0.3,22.5,1.5,36.7,4.7c-4.7-8.7-17.3-16.6-27.2-16.4c9.4-0.1,18.9-0.8,28.2-2
	c12.8-2.1,18.5-17.1,20.5-30c5.3-35.3-0.1-72.9-19.3-102.9c-3.8-6-8.2-11.6-13.2-16.7c-15.4-6.9-32-11.5-47.2-15.2
	c-27.4-6.8-56.2-3.8-81.6,8.4C384.6,374,372,388.6,357,401c-1.6,1.3-3.2,2.6-4.8,3.9c-15.1,12.2-31,23.3-47.5,33.4
	c-25.1,15.3-50.9,29.8-66.9,55.6C212.1,534.9,233.7,579.6,261.8,613z"/>
<path class="st2" d="M247.7,612c-7.6,6.3-15.6,12.2-23.9,17.7c-16.2,1.1-8.9,20.6-8.9,20.6l13.8,8.9c0,0,23.7-18.8,36.6-24.9
	C278.3,628.1,247.7,612,247.7,612z"/>
<path class="st6" d="M362.5,406.5c0,0,2.2-21.9,5.7-28.1l53.6-10.9v-4.2c0,0-1.2-7.2,10.7-11.7c12-4.5,36.9,1.4,43.3,6.2
	c6.4,4.9,4.1,13.2,4.1,13.2s21.6,10.9,31.3,15.1c7.9,3.7,15.7,7.7,23.2,12.2c0,0,4.4,50.4,3.5,62.1c-0.9,11.7,0.7,22.7-0.3,29.2
	s-1.8,10.2-8.6,15.7c-6.8,5.5-13,13.6-30.8,5.6l2.5-2l-117.2-39.5L362.5,406.5z"/>
<path class="st1" d="M362.5,406.5c0,0,2.2-21.9,5.7-28.1l53.6-10.9v-4.2c0,0-1.2-7.2,10.7-11.7c12-4.5,36.9,1.4,43.3,6.2
	c6.4,4.9,4.1,13.2,4.1,13.2s21.6,10.9,31.3,15.1c7.9,3.7,15.7,7.7,23.2,12.2c0,0,4.4,50.4,3.5,62.1c-0.9,11.7,0.7,22.7-0.3,29.2
	s-1.8,10.2-8.6,15.7c-6.8,5.5-13,13.6-30.8,5.6l2.5-2l-117.2-39.5L362.5,406.5z"/>
<path class="st7" d="M362.5,406.5c0,0,2.2-21.9,5.7-28.1l53.6-10.9v-4.2c0,0-1.2-7.2,10.7-11.7c12-4.5,36.9,1.4,43.3,6.2
	c6.4,4.9,4.1,13.2,4.1,13.2s21.6,10.9,31.3,15.1c7.9,3.7,15.7,7.7,23.2,12.2c0,0,4.4,50.4,3.5,62.1c-0.9,11.7,0.7,22.7-0.3,29.2
	s-1.8,10.2-8.6,15.7c-6.8,5.5-13,13.6-30.8,5.6l2.5-2l-117.2-39.5L362.5,406.5z"/>
<path class="st5" d="M367.5,381.1h22.4c2.1,0,4.2,0.8,5.8,2.1s2.7,3.3,3,5.3l11.1,66.6c0,0,15.2,1.3,26,9.1
	c10.8,7.9,37.3-48.2,79.2-48.3c0,0-12.1,27.6-14.7,49.6c0,0,26.2-2.9,30.5,7.4c4.3,10.3-2,29.5-13.1,22c-11.1-7.4-21.5-19.9-28.9-12
	c-7.4,7.9-40.5,12.1-40.5,12.1l-50.9-25.7l-19.7-9.3L367.5,381.1z"/>
<path class="st8" d="M438.7,348.1c0,0-12.7,3.5-14.8,7.8c-2.1,4.3-1.8,15.1-1.8,15.1c3.1,7.2,7.8,13.7,13.7,18.9l9.5-18.9l-0.9,21.4
	c0,0,18-3,25.7-8.8l7.6-5.8c0,0,3.3-10.9,2.8-14.5c-0.5-3.7-14.2-11.2-14.2-11.2L438.7,348.1z"/>
<path class="st1" d="M226.5,677.7c0.4-0.8-5.2-10.6-0.9-20.7c4.4-10,11.3-6.2,11.3-6.2s19.8-12.6,28.2-16.6c6-3,11.8-6.5,17.3-10.3
	l8.8,11.9l-8.1,25.2L226.5,677.7z"/>
<path class="st1" d="M237.7,650.3l-25.5,15.6c0,0-17.9-11.5-26.5-19.4c-8.5-7.9-27.7-24.8-27.7-24.8l-12.2-16.4
	c0,0,8.5-10.5,22.6-2.1c18.3,10.9,40.5,26.7,55.4,26.5C223.8,629.6,220.9,647.8,237.7,650.3"/>
<path class="st2" d="M443.1,282.2c0,0-11.6,17.5-13.7,23.2c-2.1,5.7-3.8,14-3.4,18.1c0.4,4,4.7,25.6,6.8,26.3l2.1,2.3l-1.4,9.2
	c0,0,9,15.6,35.6,4.2c0,0,1-18.3,4.3-24c3.2-5.7,8.1,1.1,12.9-15.5c4.8-16.6-10.6-34-10.6-34L443.1,282.2z"/>
<path class="st9" d="M156.9,600c0,0,13.1,2.3,17.4,10c4.3,7.8,12.4,22.2,15.2,29.1c2.8,7,25.8,23.8,25.8,23.8l-3.1,2.8
	c0,0-18.7-11.6-30.1-22.6c-11.3-11-36.3-38.7-36.3-38.7S147.7,602.7,156.9,600z"/>
<path class="st9" d="M288.1,631.5l3.2,4.4l-10,20.7l-54.8,19.7l-2.5-8c0,0-0.8-8.1,18.4-14.3c19.2-6.2,31-10.3,36.5-14.5
	C284.3,635.1,288.1,631.5,288.1,631.5z"/>
<path class="st2" d="M469.1,477.9c0,0,16.8-2.5,24.6,11.2c7.8,13.7,7,19.7,7,19.7s-11.1,10.1-26.4,9.5c-15.3-0.6-37.5-18-44.7-23.7
	c-7.2-5.7-25.5-22-38-18.6l-1.4-11.8c0,0,1.2-5.3,11.9-3.9c10.6,1.4,14.8,7.5,18.3,7.5c3.4,0,6.7-3.3,13.6,8.5
	C434.1,476.4,458.4,480.7,469.1,477.9z"/>
<path class="st4" d="M447.3,307.4c-0.4,2.2-0.9,4.4-1.5,6.5c-0.2,1-0.7,2-1.4,2.9c-1.3,1.4-3.3,1.7-5.2,2c-0.3,0-0.6,0.1-0.8,0.4
	c-0.2,0.2-0.2,0.5-0.2,0.8c0,2.1,0.7,4.2,1.8,6"/>
<path class="st5" d="M276.8,617.4l11.3,14c0,0-12.4,11.4-25.2,15.7c-12.8,4.2-35.2,12.2-38.9,18.4l1.4-7.3c0,0,35-21.5,43.1-26.6
	c2.4-1.6,4.4-3.6,5.8-6.1C275.7,623,276.6,620.2,276.8,617.4L276.8,617.4z"/>
<path class="st5" d="M237.7,650.3L215.3,663c0,0-11.1-7.6-16.5-13.2c-5.4-5.6-12.1-11.8-16.3-24.3c-5.7-17.3-22-25.5-22-25.5
	s22.7,10.7,34.5,19c11.8,8.3,23.3,11.9,30,11.3C225,630.4,219.7,647.4,237.7,650.3z"/>
<path class="st10" d="M455.5,314.1c-0.3,1.9,0.3,3.5,1.3,3.7c1,0.1,1.9-1.4,2.2-3.2s-0.3-3.5-1.3-3.7
	C456.7,310.7,455.7,312.2,455.5,314.1z"/>
<path class="st10" d="M436.3,310.6c-0.2,1.9,0.3,3.6,1.3,3.7c1,0.1,2-1.4,2.2-3.2c0.2-1.8-0.3-3.6-1.3-3.7
	C437.6,307.3,436.6,308.7,436.3,310.6z"/>
<path class="st4" d="M456.9,306c0,0,5.1-2.6,8.8,3"/>
<path class="st4" d="M443.7,302.5c0,0-5.4-4.7-8.6,0"/>
<path class="st4" d="M474.3,323.5c0,0,3.3-4.9,6.8-4.7c3.5,0.1,4.9,5,3.6,9.8c-1.3,4.7-6.5,11.3-10.4,10.7c-2.2-0.3-4.2-1.4-5.7-3.2
	"/>
<path class="st4" d="M442.7,286.2c-3.7,3.1-7.6,6.4-9.5,11c-1.7,3.9-2,8.1-3.5,12c-1.6,4.2-3.4,8.5-3.5,13.1
	c0.1,4.2,0.6,8.4,1.6,12.5c0.6,3.5,1.4,7,2.5,10.4c1.8,4.9,5.2,7.9,9.8,10.2c3.3,1.7,8.8,4.1,12.4,1.8c2.1-1.4,5.2-5.2,7.8-8.8"/>
<path class="st4" d="M474.3,339.2c0,0-5.8,14.3-4.4,24.4"/>
<path class="st10" d="M475.8,321.1c-0.8-0.6-1.4-1.3-1.8-2.2s-0.6-1.9-0.5-2.8c0.2-2.2,1.7-4.2,1.4-6.4c-0.3-1.1-0.6-2.1-1.2-3
	c-0.8-1.8-1.1-3.8-1-5.8s0.7-3.9,1.7-5.6c0,0-18.6,0.9-27.2-4.7c-8.7-5.5-15.3-19.7-10.1-26.4c5.3-6.8,15.5,2.5,23.1,3.5
	c7.6,1,34.6,5.3,38.9,15.7c4.3,10.4-2.3,14.1-2.5,24.1c-0.2,9.9-0.2,28.7-15.1,27c0,0,5.6-7.2,1.7-14.6
	C480.8,316.6,475.8,321.1,475.8,321.1z"/>
<path class="st10" d="M439.4,275.8c-2.5,2-4.6,4.4-6.1,7.2c-1.5,2.8-2.5,5.9-2.7,9.1c-0.8,7.4-14,21.9-4.5,30.2
	c0,0,2.2-8.8,3.5-13.1c1.3-4.3,3-12.2,5.2-14.9c2.2-2.7,13.8-12.2,13.8-12.2L439.4,275.8z"/>
<path class="st4" d="M472.6,363.3c0,0-9.2,6-26.2,6.3l-2,22.8c0,0,19.1-1.5,33.3-14.5c0,0,3.8-10.2,2.8-14.5
	c-1-4.4-10.2-8.7-10.2-8.7"/>
<path class="st4" d="M434.1,353.1l-0.5,8.2c3.6,3.7,8,6.6,12.8,8.4l-10.6,20.3c0,0-12.7-9.9-14-20.3c0,0-0.1-10.6,2.1-13.7
	c2.2-3,10.3-4.5,10.3-4.5"/>
<path class="st11" d="M485.7,290.1c-1.4-3.4-5.1-5.4-8.7-6c-3.6-0.5-7.3-0.2-11-0.3c-5.1,0-10.1-1.4-14.4-4.1c-2.2-1.3-4-3-5.5-5.1
	c-1.5-2-2.6-4.4-3.2-6.8"/>
<path class="st11" d="M494.4,289.4c-2.3-7-9.7-11.3-17.1-11.9c-3.6-0.3-7.3,0.1-10.9-0.3c-3.6-0.4-7.4-1.9-9.3-5"/>
<path class="st4" d="M498.3,510.8c17.7,9.2,23.9-0.3,33.8-8.1c9.8-7.8,3.4-21.7,5.4-44.1c2.1-22.3-3.1-60.3-3.1-60.3
	s-4.4-1-16.6-8.5c-12.2-7.5-37.9-18.9-37.9-18.9"/>
<path class="st4" d="M480.8,477c0,0,2.8-8.9,10.7-9.1c7.9-0.2,20.4,3.3,29.3,20.1"/>
<path class="st4" d="M493.3,467.4c0.5,0,1-0.1,1.4-0.3c6.5-2.3,13.6-2.7,20.3-0.9"/>
<path class="st4" d="M519.6,410.4c-14.4,15.9-21.4,36.9-28,57.3"/>
<path class="st4" d="M421.8,367.5c0,0-26.1,6.2-38.8,7.7c-12.7,1.5-14.8,3.3-14.8,3.3l-2.4,8.9"/>
<path class="st2" d="M300.3,382.9l88.8,3.4l7.3,91.3h-15.2L304,460.4l-9.7-75.3L300.3,382.9z"/>
<path class="st1" d="M391.8,480.4l-97.1-93.1l9.4,73.1L391.8,480.4z"/>
<path class="st12" d="M391.8,480.4l-97.1-93.1l9.4,73.1L391.8,480.4z"/>
<path class="st4" d="M391.8,477.9l-7.8-88.1l-89.6-4.7l9.7,75.3L391.8,477.9z"/>
<path class="st10" d="M332.1,427.8c0.6,5.4,3.5,9.4,6.4,9.1c2.9-0.3,4.8-5,4.2-10.3c-0.6-5.4-3.5-9.4-6.4-9.1
	C333.4,417.8,331.5,422.4,332.1,427.8z"/>
<path class="st10" d="M304,460.4c0,0-41-1.2-53.9,7.3c-12.8,8.5-20.4,51-18.6,73.6c1.8,22.6,17.3,74.4,17.3,74.4l29.7-33.6
	c0,0,14.6-53.1,6.6-73.9c0,0,39.4,2.2,54.9-2.6c0,0,13.9-22.8,37.7-30.3L304,460.4z"/>
<path class="st3" d="M242.6,616.5c10.5-9.8,20-20.8,28.2-32.6c14.4-22.2,34.2-43.5,54.6-60.1c16.4-13.3,20.2-35.1,40.5-46
	c33.6-18,62.7,17.8,73.6,25c10.9,7.3,29.7,15.5,29.7,15.5s-6.9,25.8-27.1,28.9c-20.2,3.1-40.6-10.9-50.3-4.1
	c-9.7,6.7-16.8,36.7-48.7,54.3c-26.1,14.4-61.6,28.4-79.9,37.8c-4.1,2.1-7.1,4.3-9.4,5.6c-6.3,3.4-13.1,7.5-19.5,11.5l-22,13.4
	c0,0-22.1-13.1-30.5-25.1c-1.1-1.6-3.5-5.9-5.7-10.1c-4.8-9.1-10.9-17.2-19.3-21.7c-5.8-3.1-11-4.1-10.9-4.4
	c0.6-1,11.1-6.4,18.3-3.5c15.2,6.3,45.5,30.3,59.8,28.5C230.6,625.9,236.8,621.5,242.6,616.5L242.6,616.5z"/>
<path class="st10" d="M242.6,616.5c13.2,5.3,18.5,13.6,20.6,18.8c18.3-9.5,53.8-23.5,79.9-37.8c31.9-17.7,39-47.6,48.7-54.3
	c9.7-6.7,30.1,7.3,50.3,4.1c20.1-3.1,27.1-28.9,27.1-28.9s-18.8-8.1-29.7-15.4c-10.9-7.3-35.9-43.1-73.5-25
	c-20.8,10-24,32.6-40.5,46c-20.4,16.6-40.3,37.9-54.6,60.1C262.6,595.8,253.1,606.7,242.6,616.5L242.6,616.5z"/>
<path class="st13" d="M341.9,501.4c0,0,10.2-20.7,26.5-24.7"/>
<path class="st4" d="M395.2,460.2c11.2-2.4,23.5,10,28.7,7.6c3.9-1.7,10.2,8.5,10.2,8.5c10.4,1.5,21,2,31.5,1.6
	c15.1-1,22.3,2,27.6,10.1l7.5,19.8c0,0-19.7,17.7-40.7,7.4c-21-10.3-49-41.3-68.3-41.2"/>
<path class="st3" d="M238.6,649.8c0,0-18.4,1.5-14.1-20.5"/>
<path class="st10" d="M151.8,615.7c1.4,2.7,18.2,17.1,32.8,29.7c0-0.2-4.1-7.9-5.8-11.1c-3.9-7.2-13.9-27-32.9-29.7
	C143.2,606.2,151.8,615.7,151.8,615.7z"/>
<path class="st3" d="M159,600.2c19.2,3.8,23.6,28.5,30.5,39c6.8,10.5,25.8,24.8,25.8,24.8"/>
<path class="st3" d="M225.7,657.7c-3.1,5.7-1.7,12.4,0,16.6c0.8,2.1,1.8,4.1,3,5.9c27.2-4.5,54.5-19.1,54.5-19.1l7-21.7l1.1-3.5
	l-10.6-14.2"/>
<path class="st10" d="M225.7,674.2c0.8,2.1,1.8,4.1,3,5.9c27.2-4.5,54.5-19.1,54.5-19.1l7-21.7c-3.5,4.6-10,11.3-19.8,14.1
	C257.1,657.2,232.6,661.6,225.7,674.2z"/>
<path class="st4" d="M396.4,474.5l-7.3-88.2l-88.8-3.4l-6,2.2"/>
<path class="st3" d="M224.6,639.2c0,0-12.1,2.2-21.5-5.4c-9.3-7.6-24.4-24.8-24.4-24.8"/>
<path class="st4" d="M212.2,628.3c0,0,2.9,4.4,0,13.3"/>
<path class="st4" d="M203.6,624c1.3,4.4,0.9,9.1-1.1,13.3"/>
<path class="st4" d="M193.4,618.1c0,0,2.5,7.4,0,13.9"/>
<path class="st3" d="M278.3,619.8l9.7,11.7c0,0-9.8,10.7-23.6,15.2s-38.6,12-40.6,20.1"/>
<path class="st10" d="M461.1,331.8l14.8-10.8l-7.7,14.8c-1,2.6-2.1,6.7-8.7,15.4c-12.8,16.8-25.5,1.5-28.6-1.5
	c-2.5-2.5-5.6-26.6-4.6-27.6c1-1,13.2,5.6,13.2,5.6s12.1,1.1,14.4,1.1C456.2,328.7,461.1,331.8,461.1,331.8z"/>
<path class="st14" d="M453.5,334.3c0,0-8.8,6.9-18,4.3C435.5,338.6,444.1,355.7,453.5,334.3z"/>
<linearGradient id="SVGID_1_" gradientUnits="userSpaceOnUse" x1="103.6893" y1="874.5184" x2="294.5833" y2="233.5024" gradientTransform="matrix(1 0 0 -1 0 692)">
	<stop  offset="0" style="stop-color:#224677;stop-opacity:0"/>
	<stop  offset="1" style="stop-color:#0BB8E4"/>
</linearGradient>
<path class="st15" d="M0.1,5c11,20.6,22.7,41.2,37,59.7c14.5,18.7,31.2,32.8,52,43.9c17.9,9.6,32.2,20.3,32.1,42.4
	c-0.3,27.5-10.6,52.6-1,80.1c24.4,69.3,130.7,128.2,144.7,128.2c14,0,35.2,23,35.2,23l87.5,6.6c-0.1-0.4-39.7-31.9-45.4-53.3
	c-5.7-21.5-18.6-13.1-25.2-20.9c-10.6-12.4-22-25-21.2-41.9c0.8-19.8,15.6-35.6,22.4-53.4c16.7-44.1-36.3-78.8-8.8-124
	c4.5-7.6,10.9-14.3,13.8-22.5c4.5-12.9-0.6-25-3.3-37.6c-1.7-7.7-7.7-27.6-2.3-34.9"/>
</svg>
