<svg width="612" height="481" viewBox="0 0 612 481" fill="none" xmlns="http://www.w3.org/2000/svg">
<path opacity="0.2" d="M306 480.312C137.001 480.312 0 470.491 0 458.377C0 446.262 137.001 436.441 306 436.441C474.999 436.441 612 446.262 612 458.377C612 470.491 474.999 480.312 306 480.312Z" fill="black"/>
<path d="M510.724 334.606L502.98 451.568C502.937 452.162 502.671 452.719 502.236 453.126C501.8 453.533 501.227 453.761 500.631 453.763V453.763C500.318 453.764 500.007 453.701 499.719 453.578C499.43 453.456 499.169 453.276 498.952 453.051C498.734 452.825 498.564 452.558 498.452 452.265C498.34 451.972 498.288 451.66 498.299 451.347L501.482 334.606H510.724Z" fill="#263238" stroke="#263238" stroke-linecap="round" stroke-linejoin="round"/>
<path d="M530.535 334.606L538.279 451.568C538.318 452.161 538.58 452.717 539.013 453.125C539.446 453.532 540.017 453.76 540.611 453.763V453.763C540.925 453.764 541.236 453.701 541.526 453.578C541.815 453.456 542.077 453.277 542.296 453.052C542.515 452.826 542.687 452.559 542.801 452.266C542.915 451.973 542.969 451.661 542.96 451.347L539.743 334.675L530.535 334.606Z" fill="#263238" stroke="#263238" stroke-linecap="round" stroke-linejoin="round"/>
<path d="M452.89 334.606L460.634 451.568C460.673 452.161 460.935 452.717 461.367 453.125C461.8 453.532 462.371 453.76 462.965 453.763V453.763C463.28 453.763 463.591 453.701 463.88 453.578C464.17 453.456 464.432 453.277 464.651 453.051C464.87 452.826 465.041 452.559 465.155 452.266C465.269 451.973 465.323 451.661 465.314 451.346L462.08 334.674L452.89 334.606Z" fill="#263238" stroke="#263238" stroke-linecap="round" stroke-linejoin="round"/>
<path d="M421.25 334.606L413.506 451.568C413.463 452.162 413.197 452.719 412.762 453.126C412.326 453.533 411.753 453.761 411.157 453.763V453.763C410.843 453.761 410.533 453.697 410.245 453.574C409.956 453.451 409.695 453.271 409.477 453.046C409.258 452.822 409.087 452.556 408.972 452.264C408.857 451.972 408.801 451.66 408.808 451.347L412.042 334.675L421.25 334.606Z" fill="#263238" stroke="#263238" stroke-linecap="round" stroke-linejoin="round"/>
<path d="M556.167 216.692C556.167 216.692 478.896 213.799 472.361 213.799C465.825 213.799 464.31 216.692 464.31 216.692L453.281 294.457C453.281 294.457 418.986 284.67 412.263 285.947C405.54 287.223 415.582 336.019 415.582 336.019H454.387L455.085 333.092H542.704L565.971 222.258C564.558 217.186 556.167 216.692 556.167 216.692Z" fill="white" stroke="#263238" stroke-linecap="round" stroke-linejoin="round"/>
<path d="M526.757 265.335C526.757 265.335 534.62 316.395 525.599 322.352C524.204 323.271 516.63 327.628 509.55 326.913C503.865 326.335 463.698 326.913 463.698 326.913C463.698 326.913 458.115 316.293 456.992 308.464C455.869 300.634 464.651 267.037 464.651 267.037L526.757 265.335Z" fill="#BFEDFF" stroke="#263238" stroke-linecap="round" stroke-linejoin="round"/>
<path d="M460.974 292.687C460.974 292.687 402.834 298.729 400.094 300.363C397.354 301.996 384.776 312.974 386.937 320.106C389.099 327.237 383.653 327.782 388.639 328.888C393.626 329.994 464.31 329.977 464.31 329.977" fill="white"/>
<path d="M460.974 292.687C460.974 292.687 402.834 298.729 400.094 300.363C397.354 301.996 384.776 312.974 386.937 320.106C389.099 327.237 383.653 327.782 388.639 328.888C393.626 329.994 464.31 329.977 464.31 329.977" stroke="#263238" stroke-linecap="round" stroke-linejoin="round"/>
<path d="M408.093 335.934H546.244V325.619H408.093V335.934Z" fill="white" stroke="#263238" stroke-linecap="round" stroke-linejoin="round"/>
<path d="M513.617 294.882H430.389C430.389 294.882 426.015 299.818 425.454 310.2C424.892 320.582 426.015 322.812 433.691 325.518C441.367 328.224 509.549 326.845 509.549 326.845" fill="white"/>
<path d="M513.617 294.882H430.389C430.389 294.882 426.015 299.818 425.454 310.2C424.892 320.582 426.015 322.812 433.691 325.518C441.367 328.224 509.549 326.845 509.549 326.845" stroke="#263238" stroke-linecap="round" stroke-linejoin="round"/>
<path d="M448.038 426.957L439.324 406.312L425.044 409.018L435.971 427.433L429.674 440.045L416.058 448.947C416.058 448.947 414.475 450.512 421.283 449.985C428.091 449.457 442.218 449.985 442.218 449.985L451.119 439.518C451.119 439.518 454.353 434.19 448.038 426.957Z" fill="white" stroke="#263238" stroke-linecap="round" stroke-linejoin="round"/>
<path d="M451.852 435.978L452.209 449.474H450.082L447.239 442.735L451.852 435.978Z" fill="#263238" stroke="#263238" stroke-linecap="round" stroke-linejoin="round"/>
<path d="M442.235 450.053L451.137 439.585C451.137 439.585 453.434 435.688 450.269 430.071C443.937 440.896 435.512 444.147 435.512 444.147L426.73 442.036L416.075 449.014C416.075 449.014 414.493 450.58 421.301 450.053C428.109 449.525 442.235 450.053 442.235 450.053Z" fill="#263238" stroke="#263238" stroke-linecap="round" stroke-linejoin="round"/>
<path d="M413.812 321.756L443.001 410.004L422.288 413.681L381.44 321.773C381.44 321.773 378.155 308.055 386.92 303.68C395.686 299.306 421.471 297.094 421.471 297.094" fill="white"/>
<path d="M413.812 321.756L443.001 410.004L422.288 413.681L381.44 321.773C381.44 321.773 378.155 308.055 386.92 303.68C395.686 299.306 421.471 297.094 421.471 297.094" stroke="#263238" stroke-linecap="round" stroke-linejoin="round"/>
<path d="M507.439 335.917C507.439 335.917 497.38 287.052 504.12 285.844C510.86 284.636 545.138 294.354 545.138 294.354L556.167 216.692C556.167 216.692 567.809 214.854 569.034 225.202C570.259 235.55 546.244 335.917 546.244 335.917H507.439Z" fill="#263238" stroke="#263238" stroke-linecap="round" stroke-linejoin="round"/>
<path d="M388.997 192.046L383.805 183.536C383.305 182.721 382.601 182.051 381.762 181.591C380.923 181.131 379.979 180.898 379.023 180.915L374.138 181L365.781 178.498C365.25 178.344 364.686 178.35 364.158 178.517C363.631 178.683 363.165 179.003 362.82 179.435L362.513 179.826L370.206 183.23L362.53 186.055L354.378 181.919C354.057 181.755 353.687 181.709 353.335 181.79C352.984 181.871 352.672 182.073 352.455 182.362V182.362C352.207 182.683 352.097 183.089 352.148 183.49C352.199 183.892 352.407 184.258 352.727 184.506L364.13 193.306C364.488 193.584 364.9 193.782 365.341 193.888C365.781 193.993 366.239 194.004 366.683 193.918L379.295 191.383L382.818 195.229L388.997 192.046Z" fill="white" stroke="#263238" stroke-linecap="round" stroke-linejoin="round"/>
<path d="M476.922 174.584L430.168 223.482L385.541 187.417L379.38 191.893L428.483 247.532L471.05 224.606L476.922 174.584Z" fill="white" stroke="#263238" stroke-linecap="round" stroke-linejoin="round"/>
<path d="M546.874 187.077L571.383 262.391L550.244 263.003L529.225 227.653C529.225 227.653 541.037 191.996 546.874 187.077Z" fill="white" stroke="#263238" stroke-linecap="round" stroke-linejoin="round"/>
<path d="M520.204 174.142L546.874 187.162L524.544 249.608L527.182 267.02L464.65 267.122L472.105 239.073L466.999 221.1C466.336 218.767 466.301 216.302 466.897 213.951L476.905 174.669L503.184 170.448L520.204 174.142Z" fill="#BFEDFF" stroke="#263238" stroke-linecap="round" stroke-linejoin="round"/>
<path d="M518.927 170.483C518.927 170.483 524.169 174.023 524.339 177.172C524.424 179.027 524.339 182.278 524.169 184.763C524.075 186.704 523.631 188.613 522.859 190.396L513.412 201.8L502.486 193.17L493.414 197.8C493.414 197.8 491.712 183.895 495.678 174.193C499.643 164.492 516.902 168.049 518.927 170.483Z" fill="white" stroke="#263238" stroke-linecap="round" stroke-linejoin="round"/>
<path d="M526.433 143.506C526.433 143.506 524.289 151.216 523.284 156.322C522.28 161.428 520.255 171.64 520.442 175.47C520.629 179.299 504.511 195.604 502.486 193.17C500.461 190.736 498.333 176.593 498.333 176.593L500.341 153.718C500.341 153.718 521.344 130.452 526.433 143.506Z" fill="white" stroke="#263238" stroke-linecap="round" stroke-linejoin="round"/>
<path d="M492.751 131.592C492.751 131.592 489.874 136.34 489.874 138.4C489.874 140.459 490.879 144.493 490.708 145.667C490.538 146.841 487.679 150.773 487.304 152.101C487.116 152.641 487.132 153.231 487.348 153.761C487.564 154.29 487.966 154.723 488.479 154.977C489.174 155.333 489.85 155.725 490.504 156.151C490.504 156.151 491.355 166.636 492.717 169.342C494.078 172.048 495.253 173.239 499.303 173.58C503.354 173.92 513.005 169.682 514.349 166.295C515.694 162.908 515.881 158.858 516.051 153.956C516.221 149.054 512.834 142.042 510.298 135.353C507.762 128.664 497.142 124.988 492.751 131.592Z" fill="white" stroke="#263238" stroke-linecap="round" stroke-linejoin="round"/>
<path d="M536.407 166.211C543.579 166.211 549.393 160.397 549.393 153.225C549.393 146.052 543.579 140.238 536.407 140.238C529.235 140.238 523.421 146.052 523.421 153.225C523.421 160.397 529.235 166.211 536.407 166.211Z" fill="#263238" stroke="#263238" stroke-linecap="round" stroke-linejoin="round"/>
<path d="M492.683 130.86C492.683 130.86 497.908 126.35 507.303 135.319C516.698 144.289 513.124 157.258 519.404 159.947C525.684 162.636 537.309 149.19 538.654 142.485C539.998 135.779 535.965 121.873 523.421 119.184C510.877 116.495 495.508 118.333 492.683 130.86Z" fill="#263238" stroke="#263238" stroke-linecap="round" stroke-linejoin="round"/>
<path d="M492.682 130.86C492.571 129.805 492.701 128.739 493.064 127.742C493.427 126.745 494.012 125.844 494.775 125.108C495.538 124.371 496.458 123.818 497.467 123.49C498.476 123.163 499.546 123.07 500.596 123.218C509.106 123.677 509.991 137.106 514.468 142.484C518.944 147.863 521.191 146.961 521.191 146.961C521.191 146.961 513.583 149.19 508.647 146.501C503.711 143.812 501.328 128.647 492.682 130.86Z" fill="#263238" stroke="#263238" stroke-linecap="round" stroke-linejoin="round"/>
<path d="M506.587 121.652C511.065 124.418 514.619 128.453 516.799 133.243C520.663 141.43 520.663 148.187 529.837 147.71C529.837 147.71 525.496 148.68 518.74 145.293C511.983 141.906 510.536 132.273 506.196 128.409C503.828 126.168 500.765 124.805 497.516 124.546" stroke="white" stroke-width="0.5" stroke-linecap="round" stroke-linejoin="round"/>
<path d="M538.654 142.484C538.654 142.484 538.262 154.773 528.833 157.36" stroke="white" stroke-width="0.5" stroke-linecap="round" stroke-linejoin="round"/>
<path d="M512.341 155.028C512.341 155.028 521.327 143.268 523.438 152.05C525.548 160.832 518.332 162.977 514.928 161.972C511.524 160.968 512 159.147 512 159.147" fill="white"/>
<path d="M512.341 155.028C512.341 155.028 521.327 143.268 523.438 152.05C525.548 160.832 518.332 162.977 514.928 161.972C511.524 160.968 512 159.147 512 159.147" stroke="#263238" stroke-linecap="round" stroke-linejoin="round"/>
<path d="M492.342 255.668C492.342 255.668 475.185 258.051 472.326 258.051C469.467 258.051 462.318 267.105 462.318 267.105H493.771L492.342 255.668Z" fill="white" stroke="#263238" stroke-linecap="round" stroke-linejoin="round"/>
<path d="M565.222 244.128L571.383 258.016C571.659 258.834 571.738 259.705 571.614 260.559C571.49 261.413 571.166 262.225 570.668 262.93C570.17 263.635 569.513 264.213 568.75 264.616C567.987 265.019 567.14 265.236 566.277 265.25L491.899 265.675L492.376 255.667L550.04 246.545" fill="white"/>
<path d="M565.222 244.128L571.383 258.016C571.659 258.834 571.738 259.705 571.614 260.559C571.49 261.413 571.166 262.225 570.668 262.93C570.17 263.635 569.513 264.213 568.75 264.616C567.987 265.019 567.14 265.236 566.277 265.25L491.899 265.675L492.376 255.667L550.04 246.545" stroke="#263238" stroke-linecap="round" stroke-linejoin="round"/>
<path d="M465.672 435.978L466.029 449.474H463.902L461.06 442.735L465.672 435.978Z" fill="#263238" stroke="#263238" stroke-linecap="round" stroke-linejoin="round"/>
<path d="M461.859 426.957L459.118 407.315L444.856 408.235L449.792 427.569L443.494 440.181L429.878 449.083C429.878 449.083 428.312 450.648 435.12 450.121C441.928 449.593 456.055 450.121 456.055 450.121L464.956 439.653C464.956 439.653 468.173 434.19 461.859 426.957Z" fill="white" stroke="#263238" stroke-linecap="round" stroke-linejoin="round"/>
<path d="M456.055 450.053L464.956 439.585C464.956 439.585 467.254 435.688 464.071 430.071C457.74 440.896 449.315 444.147 449.315 444.147L440.55 442.036L429.878 449.014C429.878 449.014 428.312 450.58 435.12 450.053C441.928 449.525 456.055 450.053 456.055 450.053Z" fill="#263238" stroke="#263238" stroke-linecap="round" stroke-linejoin="round"/>
<path d="M455.323 306.558L461.433 410.924L442.082 411.384L423.189 316.565C423.189 316.565 423.547 298.507 429.317 296.431C435.086 294.354 450.404 296.584 450.404 296.584" fill="white"/>
<path d="M455.323 306.558L461.433 410.924L442.082 411.384L423.189 316.565C423.189 316.565 423.547 298.507 429.317 296.431C435.086 294.354 450.404 296.584 450.404 296.584" stroke="#263238" stroke-linecap="round" stroke-linejoin="round"/>
<path d="M370.735 81.9111L394.75 149.225C394.75 149.225 391.584 164.458 382.053 163.828C372.522 163.199 369.986 149.855 367.45 147.949C364.914 146.043 361.102 131.439 361.102 131.439L370.735 81.9111Z" fill="#6DC4E5" stroke="#263238" stroke-linecap="round" stroke-linejoin="round"/>
<path d="M308.611 68.4141L269.567 82.5066L284.545 190.771H354.991L370.734 81.9109L328.593 68.7204L308.611 68.4141Z" fill="#6DC4E5" stroke="#263238" stroke-linecap="round" stroke-linejoin="round"/>
<path d="M312.373 86.9656L318.007 95.4586L313.122 167.487L320.304 186.243L327.674 167.998L321.36 96.5309L326.432 84.2595L319.402 75.0176L312.373 86.9656Z" fill="white" stroke="#263238" stroke-linecap="round" stroke-linejoin="round"/>
<path d="M320.168 83.4601L310.109 91L303.488 71.3419L308.101 61.3852L328.678 60.8916L333.699 65.4019L332.695 90.4894L320.168 83.4601Z" fill="white" stroke="#263238" stroke-linecap="round" stroke-linejoin="round"/>
<path d="M330.806 56.2789L329.24 68.9248L317.973 83.4599L309.548 68.7206V45.0117C309.548 45.0117 324.304 48.7051 330.806 56.2789Z" fill="white" stroke="#263238" stroke-linecap="round" stroke-linejoin="round"/>
<path d="M303.761 29.9996C303.761 18.5111 312.135 9.20117 322.483 9.20117C332.831 9.20117 338.567 19.0217 338.567 30.5102C338.567 34.2206 337.801 40.5861 337.495 43.973C336.967 49.7598 335.214 52.2107 331.793 57.4018C320.577 74.4218 311.369 49.4535 306.654 41.0626C304.746 37.6886 303.749 33.8759 303.761 29.9996V29.9996Z" fill="white" stroke="#263238" stroke-linecap="round" stroke-linejoin="round"/>
<path d="M330.618 33.6084L332.201 45.4713L326.636 45.3181" fill="white"/>
<path d="M330.618 33.6084L332.201 45.4713L326.636 45.3181" stroke="#263238" stroke-linecap="round" stroke-linejoin="round"/>
<path d="M343.043 31.5488L316.287 31.668C315.959 32.7085 315.908 33.817 316.141 34.883C316.374 35.9491 316.882 36.9355 317.615 37.7441C319.317 39.4461 326.244 38.8504 327.35 38.4079C328.457 37.9654 329.052 33.0977 329.052 33.0977H331.044C331.044 33.0977 331.265 38.2036 334.124 38.6291C336.984 39.0546 340.711 38.9185 341.426 38.4079C344.591 36.2804 343.043 31.5488 343.043 31.5488Z" fill="white" stroke="#263238" stroke-linecap="round" stroke-linejoin="round"/>
<path d="M307.063 42.9863C307.063 42.9863 313.088 55.3257 314.518 59.5978C315.947 63.8698 323.028 67.2057 330.193 64.8229C337.358 62.4401 335.418 51.8366 335.418 51.8366C335.418 51.8366 327.81 45.335 326.398 46.7306C324.985 48.1263 317.36 54.3386 316.883 52.9089C316.407 51.4792 313.088 42.9352 313.088 42.9352L311.539 36.8761L314.722 34.8337C315.181 34.451 315.48 33.9095 315.559 33.3168C315.638 32.7241 315.491 32.1234 315.147 31.6339L313.65 29.4724C313.465 29.2076 313.335 28.9086 313.268 28.5929C313.201 28.2772 313.197 27.9512 313.258 27.6342C313.65 25.779 314.722 21.9325 317.207 20.8262C320.611 19.4135 324.747 21.473 328.559 22.4261C332.372 23.3792 336.507 19.9412 336.507 19.9412L338.209 25.5918C341.983 22.0503 344.664 17.5028 345.937 12.4864C347.843 4.4019 328.355 1.08301 322.109 1.08301C315.862 1.08301 305.957 4.48701 303.097 13.4395C300.238 22.3921 305.378 41.3864 307.063 42.9863Z" fill="#263238" stroke="#263238" stroke-linecap="round" stroke-linejoin="round"/>
<path d="M322.483 12.5371C322.483 12.5371 326.024 17.8474 321.377 18.9537C316.731 20.06 307.676 16.0773 303.693 17.6261" stroke="white" stroke-width="0.5" stroke-linecap="round" stroke-linejoin="round"/>
<path d="M314.518 24.2469C314.518 24.2469 307.233 23.3619 304.306 26.4595" stroke="white" stroke-width="0.5" stroke-linecap="round" stroke-linejoin="round"/>
<path d="M332.049 51.0882C332.049 51.0882 326.687 53.8795 324.032 50.5605" stroke="white" stroke-width="0.5" stroke-linecap="round" stroke-linejoin="round"/>
<path d="M307.965 39.2252C307.965 39.2252 302.706 33.4384 302.706 39.7528C302.706 46.0672 304.289 46.0672 307.438 48.2628C310.586 50.4584 311.659 47.7352 311.659 47.7352" fill="white"/>
<path d="M307.965 39.2252C307.965 39.2252 302.706 33.4384 302.706 39.7528C302.706 46.0672 304.289 46.0672 307.438 48.2628C310.586 50.4584 311.659 47.7352 311.659 47.7352" stroke="#263238" stroke-linecap="round" stroke-linejoin="round"/>
<path d="M378.189 431.553H378.427L377.968 429.238L354.991 190.788H284.545L261.381 431.536H261.636L276.58 432.813C276.58 432.813 293.157 377.157 293.157 373.004C293.157 368.851 297.889 330.454 297.889 330.454L321.393 247.822L342.175 330.454C342.175 330.454 346.906 368.936 346.906 373.004C346.906 377.072 363.501 432.847 363.501 432.847L377.559 431.638H378.189V431.553Z" fill="#263238" stroke="#263238" stroke-linecap="round" stroke-linejoin="round"/>
<path d="M349.732 204.812L334.057 227.194" stroke="white" stroke-width="0.5" stroke-linecap="round" stroke-linejoin="round"/>
<path d="M341.341 209.851L331.827 225.526" stroke="white" stroke-width="0.5" stroke-linecap="round" stroke-linejoin="round"/>
<path d="M296.578 208.744L310.552 223.841" stroke="white" stroke-width="0.5" stroke-linecap="round" stroke-linejoin="round"/>
<path d="M295.455 214.326L315.59 234.478" stroke="white" stroke-width="0.5" stroke-linecap="round" stroke-linejoin="round"/>
<path d="M288.732 193.068H350.855" stroke="white" stroke-width="0.5" stroke-linecap="round" stroke-linejoin="round"/>
<path d="M261.636 431.536C261.636 431.536 252.667 438.599 247.493 440.54C242.319 442.48 232.651 447.637 232.651 447.637C232.651 447.637 232.651 450.871 241.042 450.871H273.976L273.414 431.536H261.636Z" fill="#68BBD9" stroke="#263238" stroke-linecap="round" stroke-linejoin="round"/>
<path d="M273.857 447.348C260.705 447.948 247.53 447.738 234.404 446.718L232.702 447.637C232.702 447.637 232.702 450.871 241.093 450.871H274.027L273.857 447.348Z" fill="white" stroke="#263238" stroke-linecap="round" stroke-linejoin="round"/>
<path d="M376.827 431.536C376.827 431.536 385.814 438.599 390.971 440.54C396.128 442.48 405.829 447.637 405.829 447.637C405.829 447.637 405.829 450.871 397.422 450.871H364.505L365.101 431.536H376.827Z" fill="#68BBD9" stroke="#263238" stroke-linecap="round" stroke-linejoin="round"/>
<path d="M364.607 447.348C377.758 447.948 390.934 447.738 404.059 446.718L405.761 447.637C405.761 447.637 405.761 450.871 397.354 450.871H364.505L364.607 447.348Z" fill="white" stroke="#263238" stroke-linecap="round" stroke-linejoin="round"/>
<path d="M269.567 82.5068L243.629 151.761H268.512L277.805 132.869L269.567 82.5068Z" fill="#6DC4E5" stroke="#263238" stroke-linecap="round" stroke-linejoin="round"/>
<path d="M383.04 141.038C372.658 136.749 339.35 134.622 337.614 134.622C335.878 134.622 281.737 130.163 277.295 129.516C272.853 128.869 267.764 139.047 267.764 139.047L291.251 138.4L319.828 144.119C319.828 144.119 377.696 165.071 382.053 163.811C382.647 163.613 383.184 163.275 383.619 162.824" fill="#6DC4E5"/>
<path d="M383.04 141.038C372.658 136.749 339.35 134.622 337.614 134.622C335.878 134.622 281.737 130.163 277.295 129.516C272.853 128.869 267.764 139.047 267.764 139.047L291.251 138.4L319.828 144.119C319.828 144.119 377.696 165.071 382.053 163.811C382.647 163.613 383.184 163.275 383.619 162.824" stroke="#263238" stroke-linecap="round" stroke-linejoin="round"/>
<path d="M262.045 137.788L351.57 128.903L352.217 136.511L274.742 160.016C274.742 160.016 260.785 163.182 249.978 161.275C239.17 159.369 244.276 148.578 246.812 142.23" fill="#6DC4E5"/>
<path d="M262.045 137.788L351.57 128.903L352.217 136.511L274.742 160.016C274.742 160.016 260.785 163.182 249.978 161.275C239.17 159.369 244.276 148.578 246.812 142.23" stroke="#263238" stroke-linecap="round" stroke-linejoin="round"/>
<path d="M351.587 128.904L368.726 128.257L373.798 138.418L352.217 136.529L351.587 128.904Z" fill="white" stroke="#263238" stroke-linecap="round" stroke-linejoin="round"/>
<path d="M277 130L292.5 131.5H293.5L291 134.5L270 136.5L270.5 135.5C273.3 130.3 275.833 130 277 130Z" fill="white"/>
<path d="M465.74 278.236L480.36 452.3C480.399 452.559 480.49 452.808 480.628 453.031C480.766 453.254 480.949 453.446 481.164 453.596C481.379 453.746 481.623 453.85 481.88 453.902C482.136 453.954 482.401 453.954 482.658 453.9C483.096 453.791 483.48 453.528 483.74 453.159C483.999 452.79 484.117 452.34 484.071 451.891L474.114 278.287L465.74 278.236Z" fill="#263238" stroke="#263238" stroke-linecap="round" stroke-linejoin="round"/>
<path d="M563.996 278.236L578.667 452.879C578.703 453.139 578.793 453.389 578.931 453.613C579.068 453.837 579.25 454.031 579.466 454.181C579.682 454.331 579.927 454.435 580.184 454.487C580.442 454.538 580.708 454.535 580.965 454.478C581.403 454.37 581.787 454.107 582.046 453.738C582.306 453.369 582.424 452.919 582.378 452.47L572.387 278.236H563.996Z" fill="#263238" stroke="#263238" stroke-linecap="round" stroke-linejoin="round"/>
<path d="M158.512 278.236L150.87 450.785C150.827 451.238 150.948 451.69 151.21 452.062C151.472 452.433 151.859 452.699 152.299 452.81C152.552 452.875 152.816 452.885 153.073 452.839C153.33 452.793 153.574 452.693 153.789 452.544C154.003 452.396 154.184 452.203 154.317 451.979C154.451 451.754 154.535 451.504 154.563 451.245L166.937 278.236H158.512Z" fill="#263238" stroke="#263238" stroke-linecap="round" stroke-linejoin="round"/>
<path d="M67.9488 278.236L60.2557 450.138C60.2177 450.592 60.3423 451.045 60.6073 451.416C60.8722 451.787 61.2604 452.052 61.7024 452.164C61.9551 452.226 62.2181 452.233 62.4739 452.186C62.7298 452.139 62.9728 452.038 63.1868 451.89C63.4007 451.742 63.5809 451.55 63.7152 451.328C63.8495 451.105 63.9351 450.856 63.9661 450.598L76.2886 278.168L67.9488 278.236Z" fill="#263238" stroke="#263238" stroke-linecap="round" stroke-linejoin="round"/>
<path d="M583.127 268.586H62.502V283.529H583.127V268.586Z" fill="white" stroke="#263238" stroke-linecap="round" stroke-linejoin="round"/>
<path d="M583.127 268.586H62.502V273.709H583.127V268.586Z" fill="#263238" stroke="#263238" stroke-linecap="round" stroke-linejoin="round"/>
<path d="M583.11 268.586H452.839V283.529H583.11V268.586Z" fill="#263238" stroke="#263238" stroke-linecap="round" stroke-linejoin="round"/>
<path d="M587.756 263.616H57.8555V269.318H587.756V263.616Z" fill="white" stroke="#263238" stroke-linecap="round" stroke-linejoin="round"/>
<path d="M587.739 263.616H458.268V269.318H587.739V263.616Z" fill="#263238" stroke="#263238" stroke-linecap="round" stroke-linejoin="round"/>
<path d="M175.889 263.105H246.998C247.27 263.107 247.535 263.029 247.762 262.881C247.99 262.732 248.168 262.52 248.275 262.271L267.967 217.372C268.058 217.162 268.094 216.932 268.074 216.704C268.053 216.476 267.976 216.256 267.849 216.065C267.723 215.875 267.55 215.718 267.348 215.611C267.146 215.503 266.92 215.448 266.691 215.449H195.581C195.315 215.449 195.054 215.526 194.83 215.671C194.607 215.816 194.43 216.023 194.322 216.266L174.697 261.165C174.606 261.37 174.566 261.594 174.58 261.818C174.595 262.042 174.664 262.258 174.781 262.45C174.898 262.641 175.061 262.8 175.254 262.915C175.447 263.029 175.665 263.094 175.889 263.105V263.105Z" fill="white" stroke="#263238" stroke-linecap="round" stroke-linejoin="round"/>
<path d="M182.561 259.599H243.237C243.464 259.599 243.686 259.533 243.876 259.409C244.067 259.285 244.217 259.108 244.309 258.901L261.108 220.589C261.199 220.408 261.242 220.207 261.232 220.005C261.222 219.803 261.16 219.606 261.053 219.435C260.945 219.264 260.794 219.123 260.616 219.027C260.438 218.931 260.238 218.883 260.036 218.887H199.359C199.128 218.885 198.9 218.952 198.707 219.079C198.513 219.207 198.361 219.388 198.27 219.602L181.505 257.948C181.427 258.125 181.393 258.319 181.408 258.513C181.422 258.707 181.485 258.893 181.589 259.057C181.694 259.221 181.837 259.356 182.007 259.45C182.176 259.545 182.367 259.596 182.561 259.599V259.599Z" fill="white" stroke="#263238" stroke-linecap="round" stroke-linejoin="round"/>
<path d="M247.986 260.127H141.151V263.616H247.986V260.127Z" fill="white" stroke="#263238" stroke-linecap="round" stroke-linejoin="round"/>
<path d="M248.003 260.127H196.211V263.616H248.003V260.127Z" fill="white" stroke="#263238" stroke-linecap="round" stroke-linejoin="round"/>
<path d="M282.315 235.839H263.474V263.684H282.315V235.839Z" fill="white" stroke="#263238" stroke-linecap="round" stroke-linejoin="round"/>
<path d="M281.481 259.888H279.507C279.096 259.888 278.702 259.725 278.412 259.435C278.121 259.144 277.958 258.75 277.958 258.339C277.958 257.929 278.121 257.535 278.412 257.244C278.702 256.954 279.096 256.791 279.507 256.791H281.481C282.261 256.786 283.007 256.474 283.558 255.923C284.11 255.372 284.421 254.626 284.426 253.846V247.038C284.421 246.259 284.11 245.512 283.558 244.961C283.007 244.41 282.261 244.098 281.481 244.094H278.945C278.742 244.094 278.541 244.054 278.353 243.976C278.165 243.898 277.994 243.784 277.85 243.64C277.706 243.496 277.592 243.326 277.514 243.138C277.437 242.95 277.396 242.748 277.396 242.545C277.396 242.342 277.437 242.14 277.514 241.952C277.592 241.764 277.706 241.594 277.85 241.45C277.994 241.306 278.165 241.192 278.353 241.114C278.541 241.036 278.742 240.996 278.945 240.996H281.481C282.275 240.996 283.06 241.152 283.794 241.456C284.527 241.76 285.193 242.205 285.754 242.766C286.315 243.327 286.76 243.993 287.063 244.726C287.367 245.459 287.523 246.245 287.523 247.038V253.846C287.523 254.64 287.367 255.425 287.063 256.158C286.76 256.891 286.315 257.558 285.754 258.119C285.193 258.68 284.527 259.125 283.794 259.428C283.06 259.732 282.275 259.888 281.481 259.888V259.888Z" fill="white" stroke="#263238" stroke-linecap="round" stroke-linejoin="round"/>
<path d="M429.521 263.105H358.411C358.143 263.104 357.881 263.024 357.657 262.876C357.434 262.728 357.258 262.518 357.152 262.271L337.46 217.372C337.37 217.163 337.333 216.935 337.353 216.708C337.373 216.481 337.448 216.263 337.573 216.073C337.698 215.882 337.868 215.725 338.068 215.617C338.268 215.508 338.492 215.45 338.719 215.449H409.829C410.098 215.448 410.361 215.524 410.588 215.669C410.814 215.814 410.994 216.022 411.105 216.266L430.797 261.165C430.887 261.377 430.923 261.607 430.902 261.836C430.882 262.065 430.805 262.285 430.678 262.477C430.552 262.669 430.38 262.826 430.178 262.936C429.977 263.046 429.751 263.104 429.521 263.105V263.105Z" fill="white" stroke="#263238" stroke-linecap="round" stroke-linejoin="round"/>
<path d="M357.424 263.616H464.259V260.127H357.424V263.616Z" fill="white" stroke="#263238" stroke-linecap="round" stroke-linejoin="round"/>
<path d="M357.424 263.616H431.087V260.127H357.424V263.616Z" fill="white" stroke="#263238" stroke-linecap="round" stroke-linejoin="round"/>
<path d="M385.303 234.086C385.689 234.815 385.85 235.641 385.768 236.461C385.686 237.282 385.363 238.059 384.841 238.697C384.318 239.335 383.619 239.804 382.831 240.046C382.043 240.288 381.201 240.292 380.411 240.057C379.621 239.823 378.917 239.36 378.389 238.728C377.86 238.095 377.53 237.32 377.44 236.501C377.35 235.682 377.504 234.854 377.882 234.121C378.261 233.389 378.847 232.785 379.567 232.384C380.554 231.851 381.712 231.731 382.787 232.05C383.862 232.369 384.767 233.101 385.303 234.086V234.086Z" fill="white" stroke="#263238" stroke-linecap="round" stroke-linejoin="round"/>
<path d="M177.609 117.976C177.609 117.976 181.881 131.2 181.881 133.77C181.849 135.627 181.707 137.479 181.455 139.319L185.217 145.157C185.437 145.532 185.505 145.978 185.407 146.402C185.309 146.826 185.052 147.197 184.689 147.437L178.885 150.841C178.885 150.841 178.034 164.457 177.183 166.159C176.332 167.861 161.865 167.453 161.865 167.453L157.168 176.405L132.829 167.027L139.229 149.514L137.901 123.082C137.901 123.082 152.845 109.874 177.609 117.976Z" fill="white" stroke="#263238" stroke-linecap="round" stroke-linejoin="round"/>
<path d="M160.945 150.144C160.945 150.144 156.707 154.127 153.525 154.399C150.342 154.671 139.994 152.272 139.194 151.216C138.394 150.161 131.246 135.303 131.501 128.137C131.756 120.972 132.045 110.368 139.721 106.93C147.398 103.492 159.618 104.53 165.983 100.565C172.349 96.5991 182.425 93.3994 187.735 100.292C193.045 107.186 189.063 116.734 184.825 120.716C180.587 124.699 175.276 125.822 175.804 127.524C176.332 129.226 179.514 131.235 177.659 133.89C175.804 136.545 169.149 138.996 169.149 139.983C169.149 140.97 170.749 144.766 168.894 145.293C167.039 145.821 165.166 141.583 163.311 141.583C161.456 141.583 157.507 146.706 160.945 150.144Z" fill="#263238" stroke="#263238" stroke-linecap="round" stroke-linejoin="round"/>
<path d="M149.866 137.975C149.102 138.83 148.45 139.779 147.926 140.8" stroke="white" stroke-width="0.5" stroke-linecap="round" stroke-linejoin="round"/>
<path d="M184.722 110.487C184.386 113.408 183.321 116.198 181.626 118.601C179.931 121.004 177.66 122.942 175.021 124.239C168.213 127.763 159.141 130.639 153.116 135.064" stroke="white" stroke-width="0.5" stroke-linecap="round" stroke-linejoin="round"/>
<path d="M175.804 127.609C175.804 127.609 169.762 132.715 163.294 137.975C158.881 141.391 153.974 144.117 148.742 146.059" stroke="white" stroke-width="0.5" stroke-linecap="round" stroke-linejoin="round"/>
<path d="M160.521 150.859L163.925 151.71C163.718 153.302 163.84 154.918 164.282 156.461C164.724 158.003 165.477 159.439 166.495 160.68" fill="white"/>
<path d="M160.521 150.859L163.925 151.71C163.718 153.302 163.84 154.918 164.282 156.461C164.724 158.003 165.477 159.439 166.495 160.68" stroke="#263238" stroke-linecap="round" stroke-linejoin="round"/>
<path d="M164.469 141.719L188.501 135.762" stroke="#263238" stroke-linecap="round" stroke-linejoin="round"/>
<path d="M182.323 135.285L187.804 135.523C187.804 135.523 189.693 141.719 183.991 142.434" stroke="#263238" stroke-linecap="round" stroke-linejoin="round"/>
<path d="M158.086 429.544C158.086 429.544 180.212 443.518 184.11 443.518C188.007 443.518 189.948 447.024 188.007 447.415C186.067 447.807 174.017 448.181 165.881 448.572C157.746 448.964 152.265 448.181 147.619 448.181C142.972 448.181 137.509 448.572 135.177 447.415C132.845 446.258 136.743 433.033 136.743 430.701C136.743 428.37 155.363 427.978 158.086 429.544Z" fill="#263238" stroke="#263238" stroke-linecap="round" stroke-linejoin="round"/>
<path d="M186.612 444.097C178.017 446.922 164.077 445.067 155.703 444.301C149.083 443.705 138.683 443.569 134.445 443.535C134.275 445.526 134.445 447.041 135.109 447.416C137.441 448.573 142.887 448.182 147.551 448.182C152.214 448.182 157.644 448.965 165.813 448.573C173.983 448.182 186.016 447.79 187.939 447.416C189.454 447.109 188.739 445.101 186.612 444.097Z" fill="white" stroke="#263238" stroke-linecap="round" stroke-linejoin="round"/>
<path d="M175.566 333.552L158.103 421.12L161.745 430.208C159.131 433.993 155.188 436.655 150.699 437.663C145.708 438.644 140.638 439.168 135.552 439.229C135.552 439.229 133.611 429.511 134.786 428.336C135.96 427.162 136.335 422.515 136.335 422.515L146.427 334.318L175.566 333.552Z" fill="white" stroke="#263238" stroke-linecap="round" stroke-linejoin="round"/>
<path d="M228.788 426.583C228.788 426.583 242.404 437.85 248.616 439.791C254.828 441.731 261.432 443.671 261.432 445.611C261.432 447.552 246.676 449.492 235.408 448.335C224.141 447.177 207.036 442.122 203.156 442.122C199.275 442.122 200.041 432.012 200.041 430.464C200.041 428.915 219.086 416.473 228.788 426.583Z" fill="#263238" stroke="#263238" stroke-linecap="round" stroke-linejoin="round"/>
<path d="M261.499 445.611C261.499 444.913 260.631 444.216 259.253 443.518C248.131 445.006 236.856 444.926 225.757 443.28C214.575 441.68 205.214 439.535 200.432 438.344C200.84 440.437 201.64 442.122 203.223 442.122C207.103 442.122 224.209 447.228 235.476 448.335C246.743 449.441 261.499 447.552 261.499 445.611Z" fill="white" stroke="#263238" stroke-linecap="round" stroke-linejoin="round"/>
<path d="M161.201 294.303C172.851 293.411 184.561 293.674 196.16 295.086C215.971 297.418 260.24 300.192 261.006 305.196C261.772 310.2 226.659 415.366 226.659 418.073C226.659 420.779 229.757 423.519 230.54 425.068C231.034 426.172 231.3 427.365 231.323 428.574C231.323 428.574 221.809 438.786 214.422 441.56C207.035 444.334 200.806 441.73 199.274 441.73C197.743 441.73 197.725 431.246 198.9 426.191C200.074 421.136 201.998 408.32 202.389 407.163C202.78 406.005 224.055 331.22 224.055 331.22C224.055 331.22 166.187 340.547 131.62 336.649C97.0522 332.751 93.5461 327.339 91.6058 319.169C89.6655 311 93.5461 294.695 93.5461 294.695L161.201 294.303Z" fill="white" stroke="#263238" stroke-linecap="round" stroke-linejoin="round"/>
<path d="M156.827 319.477C156.042 320.613 155.165 321.683 154.206 322.676" stroke="#263238" stroke-linecap="round" stroke-linejoin="round"/>
<path d="M167.413 298.575C165.18 304.169 162.605 309.62 159.703 314.897" stroke="#263238" stroke-linecap="round" stroke-linejoin="round"/>
<path d="M162.784 302.473C158.096 310.206 150.998 316.186 142.581 319.493" stroke="#263238" stroke-linecap="round" stroke-linejoin="round"/>
<path d="M250.981 323.918C252.309 323.407 253.585 322.88 254.794 322.335Z" fill="white"/>
<path d="M250.981 323.918C252.309 323.407 253.585 322.88 254.794 322.335" stroke="#263238" stroke-linecap="round" stroke-linejoin="round"/>
<path d="M224.056 331.22C231.532 329.776 238.919 327.906 246.182 325.62Z" fill="white"/>
<path d="M224.056 331.22C231.532 329.776 238.919 327.906 246.182 325.62" stroke="#263238" stroke-linecap="round" stroke-linejoin="round"/>
<path d="M268.971 202.191C269.788 198.94 271.15 199.195 270.061 198.123C268.563 196.625 267.354 198.396 263.014 200.829C258.674 203.263 254.351 206.242 254.351 206.242C254.446 205.339 254.821 204.488 255.423 203.808C256.521 202.013 257.109 199.954 257.125 197.851C257.125 196.149 255.764 196.489 255.219 198.123C254.675 199.757 249.807 202.719 249.534 204.08C249.262 205.442 248.292 210.786 248.292 210.786C246.743 213.118 246.743 223.994 246.743 223.994L215.205 247.685L199.274 266.407C199.274 266.407 206.27 277.675 210.15 276.126C214.031 274.577 215.971 273.011 225.298 265.233C233.195 258.646 252.99 228.266 252.99 228.266C256.437 226.1 259.699 223.652 262.742 220.947C266.252 216.976 268.326 211.941 268.631 206.65C268.558 205.155 268.672 203.657 268.971 202.191V202.191Z" fill="white" stroke="#263238" stroke-linecap="round" stroke-linejoin="round"/>
<path d="M123.042 166.245C123.042 166.245 126.037 155.011 138.768 157.258C151.499 159.505 161.235 169.989 163.481 173.733C165.728 177.478 122.293 172.236 122.293 172.236L123.042 166.245Z" fill="white" stroke="#263238" stroke-linecap="round" stroke-linejoin="round"/>
<path d="M196.432 264.349C196.432 264.349 193.471 267.548 196.432 272.586C198.458 276.075 202.032 278.747 208.874 277.573C215.274 276.45 224.89 260.553 224.89 249.371C224.89 238.189 216.652 237.457 213.657 239.635C210.661 241.814 196.432 264.349 196.432 264.349Z" fill="white" stroke="#263238" stroke-linecap="round" stroke-linejoin="round"/>
<path d="M128.557 164.934C128.557 164.934 98.2614 179.316 93.9894 181.954C89.7173 184.592 86.9941 218.462 86.9941 224.3C86.9941 230.138 91.2662 287.274 92.4235 296.941C93.5809 306.608 130.889 313.263 143.33 309.757C155.772 306.251 167.89 297.418 167.89 294.303C167.89 291.188 166.716 264.79 167.499 259.735C168.282 254.68 175.26 233.32 175.26 233.32L196.467 267.156C196.467 267.156 198.696 271.309 206.577 268.041C217.844 263.378 218.78 245.354 218.78 245.354C218.78 245.354 206.355 223.602 202.849 212.726C199.343 201.85 197.743 193.681 196.246 191.741C194.748 189.8 159.721 173.478 153.508 169.206C149.991 166.557 145.891 164.787 141.551 164.044C137.21 163.301 132.755 163.606 128.557 164.934V164.934Z" fill="#BFEDFF" stroke="#263238" stroke-linecap="round" stroke-linejoin="round"/>
<path d="M175.175 233.321L165.082 218.548" stroke="#263238" stroke-linecap="round" stroke-linejoin="round"/>
<path d="M173.541 231.211L155.755 222.445" stroke="#263238" stroke-linecap="round" stroke-linejoin="round"/>
<path d="M120.829 342.64L136.351 452.964C136.387 453.22 136.476 453.465 136.612 453.685C136.748 453.904 136.928 454.093 137.141 454.239C137.354 454.384 137.595 454.484 137.849 454.531C138.103 454.579 138.364 454.572 138.615 454.513C139.051 454.405 139.435 454.146 139.697 453.781C139.959 453.416 140.082 452.969 140.045 452.522L129.101 340.819L120.829 342.64Z" fill="#263238" stroke="#263238" stroke-linecap="round" stroke-linejoin="round"/>
<path d="M76.2371 343.508L50.2987 451.857C50.2394 452.108 50.2331 452.369 50.2804 452.623C50.3276 452.877 50.4273 453.118 50.5731 453.331C50.7189 453.544 50.9075 453.724 51.127 453.86C51.3464 453.996 51.5918 454.085 51.8475 454.121V454.121C52.2913 454.187 52.7439 454.088 53.1202 453.844C53.4964 453.599 53.7702 453.226 53.8899 452.793L84.0153 347.644L76.2371 343.508Z" fill="#263238" stroke="#263238" stroke-linecap="round" stroke-linejoin="round"/>
<path d="M123.349 342.164L106.839 452.335C106.801 452.588 106.815 452.848 106.882 453.096C106.948 453.344 107.064 453.576 107.224 453.777C107.384 453.978 107.583 454.144 107.81 454.265C108.036 454.386 108.285 454.459 108.541 454.479V454.479C108.989 454.504 109.43 454.366 109.783 454.09C110.137 453.815 110.379 453.421 110.464 452.981L131.416 345.619L123.349 342.164Z" fill="#263238" stroke="#263238" stroke-linecap="round" stroke-linejoin="round"/>
<path d="M181.795 342.64L197.317 452.964C197.353 453.22 197.442 453.465 197.578 453.684C197.714 453.904 197.894 454.093 198.107 454.238C198.32 454.384 198.561 454.484 198.815 454.531C199.069 454.578 199.33 454.572 199.581 454.513C200.017 454.405 200.4 454.145 200.662 453.78C200.924 453.416 201.048 452.969 201.011 452.521L190.016 340.785L181.795 342.64Z" fill="#263238" stroke="#263238" stroke-linecap="round" stroke-linejoin="round"/>
<path d="M51.6771 228.147L70.5693 350.98H204.925C204.925 350.98 206.916 315.579 200.994 303.069C195.071 290.559 121.936 317.383 119.298 316.685C117.34 316.191 120.234 252.775 123.825 227.994C124.076 226.249 123.95 224.471 123.453 222.78C122.957 221.089 122.103 219.524 120.948 218.193C119.794 216.861 118.367 215.793 116.763 215.061C115.16 214.329 113.418 213.951 111.656 213.952H63.8294C62.0533 213.95 60.2981 214.334 58.6844 215.075C57.0707 215.817 55.6369 216.9 54.4819 218.249C53.3269 219.598 52.4781 221.182 51.9939 222.89C51.5096 224.599 51.4016 226.392 51.6771 228.147V228.147Z" fill="white" stroke="#263238" stroke-linecap="round" stroke-linejoin="round"/>
<path d="M200.994 303.069C195.071 290.559 121.936 317.383 119.298 316.685C117.341 316.191 120.234 252.775 123.825 227.994C124.139 226.271 124.07 224.501 123.622 222.809C123.174 221.116 122.358 219.544 121.234 218.202C120.109 216.861 118.702 215.784 117.114 215.048C115.525 214.312 113.794 213.935 112.044 213.944C110.293 213.952 108.566 214.347 106.985 215.099C105.405 215.851 104.009 216.943 102.898 218.295C101.787 219.648 100.987 221.229 100.557 222.926C100.126 224.623 100.074 226.394 100.406 228.113L119.298 350.946H204.926C204.926 350.946 206.917 315.578 200.994 303.069Z" fill="#263238" stroke="#263238" stroke-linecap="round" stroke-linejoin="round"/>
<path d="M268.972 202.191C268.972 202.191 266.81 204.353 263.56 208.148Z" fill="white"/>
<path d="M268.972 202.191C268.972 202.191 266.81 204.353 263.56 208.148" stroke="#263238" stroke-linecap="round" stroke-linejoin="round"/>
<path d="M268.631 206.582C268.631 206.582 265.993 211.943 264.376 214.377Z" fill="white"/>
<path d="M268.631 206.582C268.631 206.582 265.993 211.943 264.376 214.377" stroke="#263238" stroke-linecap="round" stroke-linejoin="round"/>
<path d="M290.5 127L294 123" stroke="#263238"/>
</svg>
