<svg width="628" height="565" viewBox="0 0 628 565" fill="none" xmlns="http://www.w3.org/2000/svg">
<path opacity="0.2" d="M314 561.583C140.583 561.583 0.00012207 550.931 0.00012207 537.792C0.00012207 524.652 140.583 514 314 514C487.417 514 628 524.652 628 537.792C628 550.931 487.417 561.583 314 561.583Z" fill="black"/>
<path d="M497.787 0.772461H216.764V526.517H497.787V0.772461Z" fill="#263238"/>
<path d="M491.458 150.099H223.104V296.315H491.458V150.099Z" fill="#263238"/>
<path opacity="0.15" d="M491.458 150.099H223.104V296.315H491.458V150.099Z" fill="white"/>
<path d="M491.458 308.754H223.104V368.903H491.458V308.754Z" fill="#263238"/>
<path opacity="0.15" d="M491.458 308.754H223.104V368.903H491.458V308.754Z" fill="white"/>
<path d="M491.458 381.342H223.104V441.491H491.458V381.342Z" fill="#263238"/>
<path opacity="0.15" d="M491.458 381.342H223.104V441.491H491.458V381.342Z" fill="white"/>
<path d="M491.458 453.93H223.104V514.079H491.458V453.93Z" fill="#263238"/>
<path opacity="0.15" d="M491.458 453.93H223.104V514.079H491.458V453.93Z" fill="white"/>
<path d="M497.787 0.772461H216.764V141.798H497.787V0.772461Z" fill="#6DC4E5"/>
<path d="M338.708 223L333.179 222.417C333.337 220.916 333.415 219.408 333.41 217.9C333.397 206.408 328.821 195.39 320.685 187.264C312.549 179.137 301.518 174.566 290.013 174.553C288.232 174.552 286.452 174.663 284.685 174.885L284 169.372C286.005 169.126 288.023 169.002 290.043 169C303.023 169.013 315.468 174.17 324.646 183.337C333.824 192.505 338.987 204.935 339 217.9C338.989 219.604 338.891 221.306 338.708 223V223Z" fill="white"/>
<path d="M326.123 252L322 248.193C328.448 241.263 332.455 232.417 333.411 223L339 223.57C337.925 234.198 333.403 244.183 326.123 252V252Z" fill="#919191"/>
<path d="M290 267C283.239 266.992 276.552 265.626 270.358 262.988C264.163 260.35 258.595 256.498 254 251.67L258.094 248C262.163 252.283 267.099 255.7 272.591 258.038C278.082 260.375 284.011 261.582 290.005 261.582C295.999 261.582 301.928 260.375 307.42 258.038C312.911 255.7 317.847 252.283 321.916 248L326 251.67C321.406 256.499 315.838 260.353 309.643 262.991C303.449 265.628 296.762 266.993 290 267V267Z" fill="#263238"/>
<path d="M253.805 252C247.784 245.369 243.677 237.178 241.937 228.329C240.197 219.479 240.89 210.313 243.941 201.837C246.992 193.362 252.282 185.907 259.231 180.29C266.179 174.673 274.516 171.113 283.325 170L284 175.532C276.191 176.517 268.8 179.671 262.641 184.65C256.481 189.628 251.791 196.237 249.087 203.75C246.382 211.263 245.768 219.389 247.312 227.233C248.856 235.078 252.497 242.338 257.836 248.214L253.805 252Z" fill="#6DC4E5"/>
<path d="M250.85 350.462C256.998 350.462 261.982 345.478 261.982 339.33C261.982 333.182 256.998 328.198 250.85 328.198C244.702 328.198 239.718 333.182 239.718 339.33C239.718 345.478 244.702 350.462 250.85 350.462Z" fill="#6DC4E5"/>
<path d="M252.612 424.914C258.681 423.927 262.8 418.207 261.812 412.139C260.825 406.071 255.106 401.952 249.037 402.939C242.969 403.926 238.85 409.646 239.837 415.714C240.824 421.782 246.544 425.901 252.612 424.914Z" fill="#263238"/>
<path d="M250.85 499.608C256.998 499.608 261.982 494.624 261.982 488.476C261.982 482.328 256.998 477.344 250.85 477.344C244.702 477.344 239.718 482.328 239.718 488.476C239.718 494.624 244.702 499.608 250.85 499.608Z" fill="#919191"/>
<path d="M102.6 215.619C102.081 217.891 102.016 220.243 102.407 222.54C103.096 225.977 101.076 235.754 101.076 235.754L93.743 281.455L84.91 280.657C84.91 280.657 85.9022 282.859 84.0751 286.029C82.248 289.199 70.7651 294.753 70.7651 294.753C70.7651 294.753 81.6551 305.558 87.0396 308.596C92.4241 311.633 97.7723 311.548 101.185 308.971C104.597 306.393 110.393 296.556 110.393 296.556C110.393 296.556 113.248 246.535 111.796 235.875C110.933 229.43 109.233 223.125 106.738 217.12C106.388 216.176 102.6 215.619 102.6 215.619Z" fill="white" stroke="#263238" stroke-width="1.21" stroke-linecap="round" stroke-linejoin="round"/>
<path d="M122.856 517.224C122.856 517.224 117.374 526.747 113.962 529.009C110.55 531.272 103.726 536.427 99.6601 537.479C95.5945 538.532 92.1823 540.758 95.05 543.215C97.9177 545.671 99.8174 546.276 110.199 546.712C120.581 547.147 124.598 543.941 131.822 543.808C139.046 543.674 146.003 545.744 147.83 542.259C149.657 538.774 146.245 524.29 146.245 524.29C146.245 524.29 130.999 515.191 122.856 517.224Z" fill="white" stroke="#263238" stroke-width="1.21" stroke-linecap="round" stroke-linejoin="round"/>
<path d="M147.83 542.222C148.327 540.794 148.501 539.273 148.339 537.77C143.983 540.105 138.005 538.81 130.915 538.81C123.159 538.81 121.828 542.803 108.324 543.239C98.281 543.578 95.2197 541.46 94.3001 540.347C93.7677 541.206 93.8887 542.174 95.0503 543.178C97.9301 545.598 99.8177 546.24 110.199 546.675C120.581 547.111 124.598 543.904 131.822 543.771C139.046 543.638 146.003 545.707 147.83 542.222Z" fill="white" stroke="#263238" stroke-width="1.21" stroke-linecap="round" stroke-linejoin="round"/>
<path d="M168.013 528.973C167.412 532.306 166.526 535.581 165.363 538.762C163.85 542.246 159.603 550.862 156.82 553.366C154.037 555.871 151.871 561.752 156.687 562.804C171.655 566.059 178.951 560.191 183.307 557.964C187.663 555.738 187.881 550.341 188.147 547.824C188.413 545.308 191.559 545.562 190.821 539.294C190.083 533.026 189.611 526.432 189.611 526.432C189.611 526.432 173.712 531.381 168.013 528.973Z" fill="white" stroke="#263238" stroke-width="1.21" stroke-linecap="round" stroke-linejoin="round"/>
<path d="M182.956 554.757C179.629 557.637 172.321 560.299 164.577 560.299C158.672 560.299 155.344 558.629 154.086 557.879C153.469 560.093 153.941 562.247 156.687 562.852C171.655 566.107 178.951 560.239 183.307 558.012C187.663 555.786 187.881 550.389 188.147 547.872C188.414 545.356 191.56 545.61 190.821 539.342C190.749 538.785 190.688 538.241 190.628 537.696C189.793 539.16 188.789 540.963 188.051 542.452C186.502 545.452 186.272 551.877 182.956 554.757Z" fill="white" stroke="#263238" stroke-width="1.21" stroke-linecap="round" stroke-linejoin="round"/>
<path d="M111.555 310.35C111.555 310.35 114.773 383.507 115.185 392.303C115.596 401.1 119.408 451.593 120.4 454.425C121.392 457.256 125.131 507.435 125.155 508.693C125.179 509.952 125.228 512.154 125.228 512.154C125.228 512.154 121.477 513.473 121.489 514.417C121.501 515.36 120.944 518.833 120.944 518.833C120.944 518.833 121.646 522.584 130.503 525.887C139.36 529.191 148.738 526.492 148.738 526.492C148.738 526.492 148.968 521.773 148.932 519.886C148.895 517.998 147.818 510.484 147.794 509.54C147.77 508.596 152.162 473.325 151.884 457.934C151.606 442.543 149.912 432.209 149.791 424.985C149.67 417.762 149.658 365.913 149.658 365.913L153.167 368.672C153.167 368.672 160.886 448.06 161.975 456.53C163.064 465 168.642 512.033 168.691 514.852C168.739 517.672 168.497 521.459 168.497 521.459L165.097 524.665L165.206 530.316C165.206 530.316 170.578 532.421 177.221 534.49C183.864 536.56 190.35 530.485 190.35 530.485C190.817 528.84 191.101 527.148 191.197 525.44C191.197 523.564 191.064 517.901 191.064 517.901C191.064 517.901 195.686 478.54 194.863 467.868C194.04 457.196 191.548 423.63 191.548 423.63L196.593 355.665L193.532 308.269C193.532 308.269 180.331 308.196 159.918 308.571C139.506 308.947 111.712 301.904 111.712 301.904L111.555 310.35Z" fill="#263238" stroke="#263238" stroke-width="1.21" stroke-linecap="round" stroke-linejoin="round"/>
<path d="M127.49 321.204C127.49 321.204 141.817 331.005 171.837 323.225L171.728 317.574C162.523 318.434 153.252 318.288 144.079 317.138C130.842 315.178 125.167 314.017 125.167 314.017L127.49 321.204Z" fill="#828282" stroke="#263238" stroke-width="1.21" stroke-linecap="round" stroke-linejoin="round"/>
<path d="M150.582 319.943L141.007 319.315L140.596 325.594L150.171 326.221L150.582 319.943Z" fill="white" stroke="#263238" stroke-width="1.21" stroke-linecap="round" stroke-linejoin="round"/>
<path d="M130.866 316.75C130.866 316.75 136.916 324.18 173.954 318.481L176.41 198.255C176.41 198.255 153.662 191.128 152.077 190.838C150.492 190.547 126.292 206.701 126.292 206.701L123.872 314.984L130.866 316.75Z" fill="#6DC4E5" stroke="#263238" stroke-width="1.21" stroke-linecap="round" stroke-linejoin="round"/>
<path d="M142.373 205.589L146.632 213.369L136.65 290.422L145.447 307.543L154.885 291.341L149.96 213.175L158.297 202.358L147.177 198.934L142.373 205.589Z" fill="#737373" stroke="#263238" stroke-width="1.21" stroke-linecap="round" stroke-linejoin="round"/>
<path d="M146.632 213.369L146.1 217.471L150.081 215.051L149.96 213.175L158.297 202.358L155.889 201.607L144.104 208.759L146.632 213.369Z" fill="#263238"/>
<path d="M154.159 279.81L136.759 289.538L136.65 290.421L140.195 297.33L154.752 289.199L154.159 279.81Z" fill="#263238"/>
<path d="M151.473 237.23L150.868 227.671L144.249 231.688L142.857 242.445L151.473 237.23Z" fill="#263238"/>
<path d="M139.312 269.828L152.973 260.898L152.356 251.157L140.752 258.756L139.312 269.828Z" fill="#263238"/>
<path d="M136.916 201.486V234.798C136.916 234.798 134.798 291.075 135.004 302.388C135.21 313.702 134.58 330.993 132.511 338.253C130.442 345.513 117.447 356.403 113.72 358.702C109.993 361.001 103.411 362.332 103.411 362.332C103.411 362.332 108.251 318.566 108.372 306.309C108.493 294.051 106.811 238.149 106.69 231.543C106.569 224.936 100.749 217.228 102.6 214.046C104.451 210.864 123.17 202.999 124.707 202.963C126.244 202.926 135.924 197.735 135.924 197.735L136.916 201.486Z" fill="white" stroke="#263238" stroke-width="1.21" stroke-linecap="round" stroke-linejoin="round"/>
<path d="M135.9 197.735C132.473 199.623 128.947 201.323 125.336 202.829L123.328 214.615L129.099 221.113L123.884 228.118C123.884 228.118 126.74 246.607 129.716 254.738C131.314 259.094 133.697 267.068 135.573 273.506C136.142 254.92 136.892 234.786 136.892 234.786V201.474L135.9 197.735Z" fill="white" stroke="#263238" stroke-width="1.21" stroke-linecap="round" stroke-linejoin="round"/>
<path d="M163.028 182.453L171.304 191.745C171.304 191.745 171.135 199.61 165.557 204.112C162.508 206.61 159.271 208.871 155.877 210.875L149.428 201.885L145.193 201.558L141.732 210.198L138.102 201.147C138.102 201.147 134.811 192.677 141.623 187.256C148.435 181.835 153.445 180.759 155.332 180.722C157.22 180.686 163.028 182.453 163.028 182.453Z" fill="#6DC4E5" stroke="#263238" stroke-width="1.21" stroke-linecap="round" stroke-linejoin="round"/>
<path d="M116.552 159.802C116.552 159.802 117.762 173.39 118.972 175.532C120.182 177.673 122.493 181.957 122.493 181.957C122.493 181.957 122.614 188.757 124.828 191.189C127.042 193.621 131.895 205.588 135.912 205.515C139.929 205.443 145.108 201.329 145.108 201.329L147.02 204.705C148.848 202.619 150.875 200.714 153.069 199.018C155.489 197.433 161.225 188.672 162.108 186.18C162.593 184.992 162.883 183.733 162.967 182.453C162.967 182.453 162.471 171.95 161.455 167.34C160.438 162.73 160.245 153.449 155.804 145.487C151.363 137.526 138.053 138.397 130.685 141.313C123.316 144.229 115.777 151.477 115.535 155.24C115.293 159.003 116.552 159.802 116.552 159.802Z" fill="white" stroke="#263238" stroke-width="1.21" stroke-linecap="round" stroke-linejoin="round"/>
<path d="M141.853 157.187C144.672 159.293 141.962 163.056 144.757 163.624C147.177 164.108 155.332 161.083 159.712 156.304C158.985 152.524 157.688 148.877 155.865 145.487C151.388 137.537 138.114 138.396 130.745 141.312C123.376 144.228 115.777 151.476 115.535 155.239C115.293 159.002 116.552 159.849 116.552 159.849C119.68 160.727 122.91 161.191 126.159 161.229C130.793 161.096 139.034 155.07 141.853 157.187Z" fill="#263238" stroke="#263238" stroke-width="1.21" stroke-linecap="round" stroke-linejoin="round"/>
<path d="M153.868 171.805C153.868 171.805 153.444 165.319 157.147 165.247C160.849 165.174 161.6 172.277 160.426 175.701C160.129 176.661 159.575 177.521 158.825 178.189C158.074 178.856 157.155 179.306 156.167 179.488C156.167 179.488 156.869 184.111 155.985 186.603" stroke="#263238" stroke-width="1.21" stroke-linecap="round" stroke-linejoin="round"/>
<path d="M143.74 189.617C140.631 188.407 135.694 189.145 135.694 189.145C135.403 190.355 132.947 191.359 132.947 191.359L127.079 191.153C127.079 191.153 127.018 192.557 126.97 194.396C129.462 198.788 133.02 205.577 135.996 205.516C140.014 205.443 145.192 201.329 145.192 201.329L145.313 201.559C146.152 200.675 147.144 199.949 148.242 199.418C149.415 199.091 146.79 190.79 143.74 189.617Z" fill="#263238" stroke="#263238" stroke-width="1.21" stroke-linecap="round" stroke-linejoin="round"/>
<path d="M130.491 195.726C130.491 195.726 137.921 196.21 140.946 192.447" stroke="white" stroke-width="1.21" stroke-linecap="round" stroke-linejoin="round"/>
<path d="M121.803 178.654C124.635 177.045 127.43 180.01 127.43 180.01C127.43 180.01 126.68 189.617 127.018 191.154C127.357 192.69 131.967 191.372 132.887 191.359C133.806 191.347 135.658 190.331 135.634 189.121L135.924 187.911" fill="white"/>
<path d="M121.803 178.654C124.635 177.045 127.43 180.01 127.43 180.01C127.43 180.01 126.68 189.617 127.018 191.154C127.357 192.69 131.967 191.372 132.887 191.359C133.806 191.347 135.658 190.331 135.634 189.121L135.924 187.911" stroke="#263238" stroke-width="1.21" stroke-linecap="round" stroke-linejoin="round"/>
<path d="M137.412 181.231C137.654 182.126 137.412 182.986 136.746 183.143C136.081 183.3 135.463 182.707 135.27 181.86C135.076 181.013 135.33 180.118 135.935 179.961C136.54 179.803 137.182 180.348 137.412 181.231Z" fill="#263238"/>
<path d="M126.377 181.642C126.607 182.537 126.304 183.397 125.699 183.554C125.094 183.711 124.38 183.07 124.187 182.223C123.993 181.376 124.187 180.48 124.852 180.323C125.518 180.166 126.135 180.759 126.377 181.642Z" fill="#263238"/>
<path d="M131.543 177.952C131.543 177.952 133.685 174.406 140.969 175.06" stroke="#263238" stroke-width="1.21" stroke-linecap="round" stroke-linejoin="round"/>
<path d="M171.304 191.745C171.304 191.745 165.98 210.065 161.14 237.495C156.3 264.926 157.764 328.366 158.539 336.207C159.313 344.048 165.061 349.916 170.155 353.28C175.249 356.644 196.775 362.222 204.567 362.077C204.567 362.077 201.143 294.898 201.07 290.505C200.998 286.113 213.521 215.485 213.461 212.037C213.4 208.588 183.961 196.863 180.161 195.351C176.362 193.838 171.304 191.745 171.304 191.745Z" fill="white" stroke="#263238" stroke-width="1.21" stroke-linecap="round" stroke-linejoin="round"/>
<path d="M171.498 219.709L181.456 214.191L180.161 195.352C176.374 193.851 171.304 191.722 171.304 191.722C171.304 191.722 165.98 210.041 161.14 237.472C159.385 247.357 158.466 261.914 158.03 276.869C158.03 275.659 179.447 227.453 179.447 227.453L171.498 219.709Z" fill="white" stroke="#263238" stroke-width="1.21" stroke-linecap="round" stroke-linejoin="round"/>
<path d="M70.7412 294.753C70.7412 294.753 70.7412 292.429 75.0609 285.436C79.3806 278.442 84.9224 280.656 84.9224 280.656C84.9224 280.656 89.0969 285 83.2284 290.13C79.7863 293.172 75.3338 294.82 70.7412 294.753Z" fill="#263238" stroke="#263238" stroke-width="1.21" stroke-linecap="round" stroke-linejoin="round"/>
<path d="M77.0691 293.18C78.9083 291.97 86.4587 290.53 86.1441 282.749C85.5875 281.793 84.9341 280.692 84.2928 279.688C82.6714 277.268 81.7034 275.344 81.7034 275.344C81.7034 275.344 73.8626 271.908 72.0234 275.707C72.6726 279.864 73.5573 283.981 74.6733 288.037C75.3011 289.826 76.1036 291.548 77.0691 293.18Z" fill="#BABABA" stroke="#263238" stroke-width="1.21" stroke-linecap="round" stroke-linejoin="round"/>
<path d="M75.1214 259.167L67.0991 232.607L84.0754 233.237L91.8557 263.898L75.1214 259.167Z" fill="#263238" stroke="#263238" stroke-width="1.21" stroke-linecap="round" stroke-linejoin="round"/>
<path d="M76.8274 284.275C78.3503 283.911 79.8217 283.358 81.2076 282.629C82.7564 281.661 83.9301 276.918 83.9301 276.918C86.3127 276.173 88.6119 275.184 90.7908 273.965C94.203 272.017 97.3248 270.335 96.9739 268.823C96.623 267.31 93.8279 268.569 93.8279 268.569L94.7112 265.411L94.0336 262.277C94.0336 262.277 94.0336 261.067 93.9731 259.457C93.9126 257.848 91.7104 256.045 91.7104 256.045C91.9115 255.325 92.0052 254.579 91.9887 253.831C91.9887 252.621 91.3111 251.338 90.0648 251.411C88.8185 251.484 74.1291 256.408 74.1291 256.408L72.1084 248.906C72.1084 248.906 70.0756 258.054 70.1603 262.761C70.245 267.468 73.5604 281.274 73.5604 282.218" fill="#BABABA"/>
<path d="M76.8274 284.275C78.3503 283.911 79.8217 283.358 81.2076 282.629C82.7564 281.661 83.9301 276.918 83.9301 276.918C86.3127 276.173 88.6119 275.184 90.7908 273.965C94.203 272.017 97.3248 270.335 96.9739 268.823C96.623 267.31 93.8279 268.569 93.8279 268.569L94.7112 265.411L94.0336 262.277C94.0336 262.277 94.0336 261.067 93.9731 259.457C93.9126 257.848 91.7104 256.045 91.7104 256.045C91.9115 255.325 92.0052 254.579 91.9887 253.831C91.9887 252.621 91.3111 251.338 90.0648 251.411C88.8185 251.484 74.1291 256.408 74.1291 256.408L72.1084 248.906C72.1084 248.906 70.0756 258.054 70.1603 262.761C70.245 267.468 73.5604 281.274 73.5604 282.218" stroke="#263238" stroke-width="1.21" stroke-linecap="round" stroke-linejoin="round"/>
<path d="M91.7106 256.045L78.9209 260.667" stroke="#263238" stroke-width="1.21" stroke-linecap="round" stroke-linejoin="round"/>
<path d="M94.0337 262.276L80.2881 266.62" stroke="#263238" stroke-width="1.21" stroke-linecap="round" stroke-linejoin="round"/>
<path d="M82.5869 272.549L93.8278 268.568" stroke="#263238" stroke-width="1.21" stroke-linecap="round" stroke-linejoin="round"/>
<path d="M93.7549 281.455C93.7549 281.455 98.8127 283.246 100.446 286.985" stroke="#263238" stroke-width="1.21" stroke-linecap="round" stroke-linejoin="round"/>
<path d="M207.774 336.51C207.774 336.51 199.606 344.98 199.643 347.061C199.645 350.546 199.41 354.026 198.941 357.479C198.421 361.109 195.771 362.888 197.586 364.34C198.197 364.745 198.905 364.978 199.637 365.017C200.369 365.055 201.098 364.896 201.748 364.558C201.748 364.558 197.912 365.768 198.542 368.188C199.171 370.608 208.391 370.39 208.391 370.39L217.781 363.384C219.838 361.859 219.378 352.942 219.293 348.186C219.208 343.431 219.136 340.164 219.136 340.164L207.774 336.51Z" fill="#BABABA" stroke="#263238" stroke-width="1.21" stroke-linecap="round" stroke-linejoin="round"/>
<path d="M201.748 364.558L203.914 358.363L204.41 352.458" stroke="#263238" stroke-width="1.21" stroke-linecap="round" stroke-linejoin="round"/>
<path d="M201.506 228.275C201.506 228.275 196.896 251.616 196.956 254.75C197.017 257.884 207.108 294.789 207.108 294.789L202.268 340.127C205.054 341.487 207.909 342.699 210.823 343.757C213.025 344.338 221.568 347.012 221.568 347.012C221.568 347.012 230.267 307.578 231.768 303.779C233.268 299.98 231.441 285.242 231.393 283.052C231.344 280.862 218.301 219.188 218.276 218.244C218.252 217.3 217.187 210.089 215.288 209.181C213.388 208.274 206.14 207.148 206.14 207.148" fill="white"/>
<path d="M201.506 228.275C201.506 228.275 196.896 251.616 196.956 254.75C197.017 257.884 207.108 294.789 207.108 294.789L202.268 340.127C205.054 341.487 207.909 342.699 210.823 343.757C213.025 344.338 221.568 347.012 221.568 347.012C221.568 347.012 230.267 307.578 231.768 303.779C233.268 299.98 231.441 285.242 231.393 283.052C231.344 280.862 218.301 219.188 218.276 218.244C218.252 217.3 217.187 210.089 215.288 209.181C213.388 208.274 206.14 207.148 206.14 207.148" stroke="#263238" stroke-width="1.21" stroke-linecap="round" stroke-linejoin="round"/>
<path d="M369.019 175.012C369.021 174.021 368.729 173.051 368.18 172.226C367.631 171.4 366.85 170.756 365.935 170.375C365.02 169.994 364.012 169.893 363.04 170.085C362.067 170.277 361.173 170.753 360.472 171.454C359.77 172.154 359.291 173.046 359.097 174.018C358.903 174.99 359.001 175.998 359.38 176.914C359.759 177.83 360.401 178.613 361.225 179.164C362.049 179.715 363.018 180.009 364.009 180.009C365.336 180.009 366.608 179.483 367.547 178.546C368.486 177.61 369.016 176.339 369.019 175.012Z" fill="#6DC4E5"/>
<path d="M387.887 177.14H384.239L383.567 179H382.415L385.439 170.684H386.699L389.711 179H388.559L387.887 177.14ZM387.575 176.252L386.063 172.028L384.551 176.252H387.575ZM394.233 172.304C395.033 172.304 395.681 172.548 396.177 173.036C396.673 173.516 396.921 174.212 396.921 175.124V179H395.841V175.28C395.841 174.624 395.677 174.124 395.349 173.78C395.021 173.428 394.573 173.252 394.005 173.252C393.429 173.252 392.969 173.432 392.625 173.792C392.289 174.152 392.121 174.676 392.121 175.364V179H391.029V172.424H392.121V173.36C392.337 173.024 392.629 172.764 392.997 172.58C393.373 172.396 393.785 172.304 394.233 172.304ZM401.909 172.304C402.709 172.304 403.357 172.548 403.853 173.036C404.349 173.516 404.597 174.212 404.597 175.124V179H403.517V175.28C403.517 174.624 403.353 174.124 403.025 173.78C402.697 173.428 402.249 173.252 401.681 173.252C401.105 173.252 400.645 173.432 400.301 173.792C399.965 174.152 399.797 174.676 399.797 175.364V179H398.705V172.424H399.797V173.36C400.013 173.024 400.305 172.764 400.673 172.58C401.049 172.396 401.461 172.304 401.909 172.304ZM412.213 172.424V179H411.121V178.028C410.913 178.364 410.621 178.628 410.245 178.82C409.877 179.004 409.469 179.096 409.021 179.096C408.509 179.096 408.049 178.992 407.641 178.784C407.233 178.568 406.909 178.248 406.669 177.824C406.437 177.4 406.321 176.884 406.321 176.276V172.424H407.401V176.132C407.401 176.78 407.565 177.28 407.893 177.632C408.221 177.976 408.669 178.148 409.237 178.148C409.821 178.148 410.281 177.968 410.617 177.608C410.953 177.248 411.121 176.724 411.121 176.036V172.424H412.213ZM414.62 171.356C414.412 171.356 414.236 171.284 414.092 171.14C413.948 170.996 413.876 170.82 413.876 170.612C413.876 170.404 413.948 170.228 414.092 170.084C414.236 169.94 414.412 169.868 414.62 169.868C414.82 169.868 414.988 169.94 415.124 170.084C415.268 170.228 415.34 170.404 415.34 170.612C415.34 170.82 415.268 170.996 415.124 171.14C414.988 171.284 414.82 171.356 414.62 171.356ZM415.148 172.424V179H414.056V172.424H415.148ZM418.341 173.324V177.2C418.341 177.52 418.409 177.748 418.545 177.884C418.681 178.012 418.917 178.076 419.253 178.076H420.057V179H419.073C418.465 179 418.009 178.86 417.705 178.58C417.401 178.3 417.249 177.84 417.249 177.2V173.324H416.397V172.424H417.249V170.768H418.341V172.424H420.057V173.324H418.341ZM427.045 172.424L423.085 182.096H421.957L423.253 178.928L420.601 172.424H421.813L423.877 177.752L425.917 172.424H427.045Z" fill="white"/>
<path d="M277.89 340.45H274.85L274.29 342H273.33L275.85 335.07H276.9L279.41 342H278.45L277.89 340.45ZM277.63 339.71L276.37 336.19L275.11 339.71H277.63ZM283.178 336.42C283.845 336.42 284.385 336.623 284.798 337.03C285.212 337.43 285.418 338.01 285.418 338.77V342H284.518V338.9C284.518 338.353 284.382 337.937 284.108 337.65C283.835 337.357 283.462 337.21 282.988 337.21C282.508 337.21 282.125 337.36 281.838 337.66C281.558 337.96 281.418 338.397 281.418 338.97V342H280.508V336.52H281.418V337.3C281.598 337.02 281.842 336.803 282.148 336.65C282.462 336.497 282.805 336.42 283.178 336.42ZM289.575 336.42C290.241 336.42 290.781 336.623 291.195 337.03C291.608 337.43 291.815 338.01 291.815 338.77V342H290.915V338.9C290.915 338.353 290.778 337.937 290.505 337.65C290.231 337.357 289.858 337.21 289.385 337.21C288.905 337.21 288.521 337.36 288.235 337.66C287.955 337.96 287.815 338.397 287.815 338.97V342H286.905V336.52H287.815V337.3C287.995 337.02 288.238 336.803 288.545 336.65C288.858 336.497 289.201 336.42 289.575 336.42ZM298.161 336.52V342H297.251V341.19C297.078 341.47 296.835 341.69 296.521 341.85C296.215 342.003 295.875 342.08 295.501 342.08C295.075 342.08 294.691 341.993 294.351 341.82C294.011 341.64 293.741 341.373 293.541 341.02C293.348 340.667 293.251 340.237 293.251 339.73V336.52H294.151V339.61C294.151 340.15 294.288 340.567 294.561 340.86C294.835 341.147 295.208 341.29 295.681 341.29C296.168 341.29 296.551 341.14 296.831 340.84C297.111 340.54 297.251 340.103 297.251 339.53V336.52H298.161ZM300.168 335.63C299.994 335.63 299.848 335.57 299.728 335.45C299.608 335.33 299.548 335.183 299.548 335.01C299.548 334.837 299.608 334.69 299.728 334.57C299.848 334.45 299.994 334.39 300.168 334.39C300.334 334.39 300.474 334.45 300.588 334.57C300.708 334.69 300.768 334.837 300.768 335.01C300.768 335.183 300.708 335.33 300.588 335.45C300.474 335.57 300.334 335.63 300.168 335.63ZM300.608 336.52V342H299.698V336.52H300.608ZM303.269 337.27V340.5C303.269 340.767 303.325 340.957 303.439 341.07C303.552 341.177 303.749 341.23 304.029 341.23H304.699V342H303.879C303.372 342 302.992 341.883 302.739 341.65C302.485 341.417 302.359 341.033 302.359 340.5V337.27H301.649V336.52H302.359V335.14H303.269V336.52H304.699V337.27H303.269ZM310.521 336.52L307.221 344.58H306.281L307.361 341.94L305.151 336.52H306.161L307.881 340.96L309.581 336.52H310.521Z" fill="white"/>
<path d="M280.84 410.08V417H279.93V411.84L277.63 417H276.99L274.68 411.83V417H273.77V410.08H274.75L277.31 415.8L279.87 410.08H280.84ZM287.243 411.52V417H286.333V416.19C286.16 416.47 285.917 416.69 285.603 416.85C285.297 417.003 284.957 417.08 284.583 417.08C284.157 417.08 283.773 416.993 283.433 416.82C283.093 416.64 282.823 416.373 282.623 416.02C282.43 415.667 282.333 415.237 282.333 414.73V411.52H283.233V414.61C283.233 415.15 283.37 415.567 283.643 415.86C283.917 416.147 284.29 416.29 284.763 416.29C285.25 416.29 285.633 416.14 285.913 415.84C286.193 415.54 286.333 415.103 286.333 414.53V411.52H287.243ZM289.89 412.27V415.5C289.89 415.767 289.946 415.957 290.06 416.07C290.173 416.177 290.37 416.23 290.65 416.23H291.32V417H290.5C289.993 417 289.613 416.883 289.36 416.65C289.106 416.417 288.98 416.033 288.98 415.5V412.27H288.27V411.52H288.98V410.14H289.89V411.52H291.32V412.27H289.89ZM297.282 411.52V417H296.372V416.19C296.199 416.47 295.956 416.69 295.642 416.85C295.336 417.003 294.996 417.08 294.622 417.08C294.196 417.08 293.812 416.993 293.472 416.82C293.132 416.64 292.862 416.373 292.662 416.02C292.469 415.667 292.372 415.237 292.372 414.73V411.52H293.272V414.61C293.272 415.15 293.409 415.567 293.682 415.86C293.956 416.147 294.329 416.29 294.802 416.29C295.289 416.29 295.672 416.14 295.952 415.84C296.232 415.54 296.372 415.103 296.372 414.53V411.52H297.282ZM298.479 414.24C298.479 413.68 298.592 413.19 298.819 412.77C299.045 412.343 299.355 412.013 299.749 411.78C300.149 411.547 300.592 411.43 301.079 411.43C301.559 411.43 301.975 411.533 302.329 411.74C302.682 411.947 302.945 412.207 303.119 412.52V411.52H304.039V417H303.119V415.98C302.939 416.3 302.669 416.567 302.309 416.78C301.955 416.987 301.542 417.09 301.069 417.09C300.582 417.09 300.142 416.97 299.749 416.73C299.355 416.49 299.045 416.153 298.819 415.72C298.592 415.287 298.479 414.793 298.479 414.24ZM303.119 414.25C303.119 413.837 303.035 413.477 302.869 413.17C302.702 412.863 302.475 412.63 302.189 412.47C301.909 412.303 301.599 412.22 301.259 412.22C300.919 412.22 300.609 412.3 300.329 412.46C300.049 412.62 299.825 412.853 299.659 413.16C299.492 413.467 299.409 413.827 299.409 414.24C299.409 414.66 299.492 415.027 299.659 415.34C299.825 415.647 300.049 415.883 300.329 416.05C300.609 416.21 300.919 416.29 301.259 416.29C301.599 416.29 301.909 416.21 302.189 416.05C302.475 415.883 302.702 415.647 302.869 415.34C303.035 415.027 303.119 414.663 303.119 414.25ZM306.487 409.6V417H305.577V409.6H306.487ZM314.644 410.03V410.77H311.614V413.12H314.074V413.86H311.614V417H310.704V410.03H314.644ZM320.603 411.52V417H319.693V416.19C319.519 416.47 319.276 416.69 318.963 416.85C318.656 417.003 318.316 417.08 317.943 417.08C317.516 417.08 317.133 416.993 316.793 416.82C316.453 416.64 316.183 416.373 315.983 416.02C315.789 415.667 315.693 415.237 315.693 414.73V411.52H316.593V414.61C316.593 415.15 316.729 415.567 317.003 415.86C317.276 416.147 317.649 416.29 318.123 416.29C318.609 416.29 318.993 416.14 319.273 415.84C319.553 415.54 319.693 415.103 319.693 414.53V411.52H320.603ZM324.809 411.42C325.476 411.42 326.016 411.623 326.429 412.03C326.842 412.43 327.049 413.01 327.049 413.77V417H326.149V413.9C326.149 413.353 326.012 412.937 325.739 412.65C325.466 412.357 325.092 412.21 324.619 412.21C324.139 412.21 323.756 412.36 323.469 412.66C323.189 412.96 323.049 413.397 323.049 413.97V417H322.139V411.52H323.049V412.3C323.229 412.02 323.472 411.803 323.779 411.65C324.092 411.497 324.436 411.42 324.809 411.42ZM328.196 414.24C328.196 413.68 328.309 413.19 328.536 412.77C328.762 412.343 329.072 412.013 329.466 411.78C329.866 411.547 330.312 411.43 330.806 411.43C331.232 411.43 331.629 411.53 331.996 411.73C332.362 411.923 332.642 412.18 332.836 412.5V409.6H333.756V417H332.836V415.97C332.656 416.297 332.389 416.567 332.036 416.78C331.682 416.987 331.269 417.09 330.796 417.09C330.309 417.09 329.866 416.97 329.466 416.73C329.072 416.49 328.762 416.153 328.536 415.72C328.309 415.287 328.196 414.793 328.196 414.24ZM332.836 414.25C332.836 413.837 332.752 413.477 332.586 413.17C332.419 412.863 332.192 412.63 331.906 412.47C331.626 412.303 331.316 412.22 330.976 412.22C330.636 412.22 330.326 412.3 330.046 412.46C329.766 412.62 329.542 412.853 329.376 413.16C329.209 413.467 329.126 413.827 329.126 414.24C329.126 414.66 329.209 415.027 329.376 415.34C329.542 415.647 329.766 415.883 330.046 416.05C330.326 416.21 330.636 416.29 330.976 416.29C331.316 416.29 331.626 416.21 331.906 416.05C332.192 415.883 332.419 415.647 332.586 415.34C332.752 415.027 332.836 414.663 332.836 414.25Z" fill="white"/>
<path d="M278.06 484.03V484.77H276.16V491H275.25V484.77H273.34V484.03H278.06ZM284.18 488.05C284.18 488.223 284.17 488.407 284.15 488.6H279.77C279.803 489.14 279.987 489.563 280.32 489.87C280.66 490.17 281.07 490.32 281.55 490.32C281.943 490.32 282.27 490.23 282.53 490.05C282.797 489.863 282.983 489.617 283.09 489.31H284.07C283.923 489.837 283.63 490.267 283.19 490.6C282.75 490.927 282.203 491.09 281.55 491.09C281.03 491.09 280.563 490.973 280.15 490.74C279.743 490.507 279.423 490.177 279.19 489.75C278.957 489.317 278.84 488.817 278.84 488.25C278.84 487.683 278.953 487.187 279.18 486.76C279.407 486.333 279.723 486.007 280.13 485.78C280.543 485.547 281.017 485.43 281.55 485.43C282.07 485.43 282.53 485.543 282.93 485.77C283.33 485.997 283.637 486.31 283.85 486.71C284.07 487.103 284.18 487.55 284.18 488.05ZM283.24 487.86C283.24 487.513 283.163 487.217 283.01 486.97C282.857 486.717 282.647 486.527 282.38 486.4C282.12 486.267 281.83 486.2 281.51 486.2C281.05 486.2 280.657 486.347 280.33 486.64C280.01 486.933 279.827 487.34 279.78 487.86H283.24ZM286.291 486.41C286.451 486.097 286.678 485.853 286.971 485.68C287.271 485.507 287.635 485.42 288.061 485.42V486.36H287.821C286.801 486.36 286.291 486.913 286.291 488.02V491H285.381V485.52H286.291V486.41ZM295.702 485.42C296.128 485.42 296.508 485.51 296.842 485.69C297.175 485.863 297.438 486.127 297.632 486.48C297.825 486.833 297.922 487.263 297.922 487.77V491H297.022V487.9C297.022 487.353 296.885 486.937 296.612 486.65C296.345 486.357 295.982 486.21 295.522 486.21C295.048 486.21 294.672 486.363 294.392 486.67C294.112 486.97 293.972 487.407 293.972 487.98V491H293.072V487.9C293.072 487.353 292.935 486.937 292.662 486.65C292.395 486.357 292.032 486.21 291.572 486.21C291.098 486.21 290.722 486.363 290.442 486.67C290.162 486.97 290.022 487.407 290.022 487.98V491H289.112V485.52H290.022V486.31C290.202 486.023 290.442 485.803 290.742 485.65C291.048 485.497 291.385 485.42 291.752 485.42C292.212 485.42 292.618 485.523 292.972 485.73C293.325 485.937 293.588 486.24 293.762 486.64C293.915 486.253 294.168 485.953 294.522 485.74C294.875 485.527 295.268 485.42 295.702 485.42ZM302.991 484.03V491H302.081V484.03H302.991ZM307.211 485.42C307.878 485.42 308.418 485.623 308.831 486.03C309.245 486.43 309.451 487.01 309.451 487.77V491H308.551V487.9C308.551 487.353 308.415 486.937 308.141 486.65C307.868 486.357 307.495 486.21 307.021 486.21C306.541 486.21 306.158 486.36 305.871 486.66C305.591 486.96 305.451 487.397 305.451 487.97V491H304.541V485.52H305.451V486.3C305.631 486.02 305.875 485.803 306.181 485.65C306.495 485.497 306.838 485.42 307.211 485.42ZM312.878 491.09C312.458 491.09 312.081 491.02 311.748 490.88C311.415 490.733 311.151 490.533 310.958 490.28C310.765 490.02 310.658 489.723 310.638 489.39H311.578C311.605 489.663 311.731 489.887 311.958 490.06C312.191 490.233 312.495 490.32 312.868 490.32C313.215 490.32 313.488 490.243 313.688 490.09C313.888 489.937 313.988 489.743 313.988 489.51C313.988 489.27 313.881 489.093 313.668 488.98C313.455 488.86 313.125 488.743 312.678 488.63C312.271 488.523 311.938 488.417 311.678 488.31C311.425 488.197 311.205 488.033 311.018 487.82C310.838 487.6 310.748 487.313 310.748 486.96C310.748 486.68 310.831 486.423 310.998 486.19C311.165 485.957 311.401 485.773 311.708 485.64C312.015 485.5 312.365 485.43 312.758 485.43C313.365 485.43 313.855 485.583 314.228 485.89C314.601 486.197 314.801 486.617 314.828 487.15H313.918C313.898 486.863 313.781 486.633 313.568 486.46C313.361 486.287 313.081 486.2 312.728 486.2C312.401 486.2 312.141 486.27 311.948 486.41C311.755 486.55 311.658 486.733 311.658 486.96C311.658 487.14 311.715 487.29 311.828 487.41C311.948 487.523 312.095 487.617 312.268 487.69C312.448 487.757 312.695 487.833 313.008 487.92C313.401 488.027 313.721 488.133 313.968 488.24C314.215 488.34 314.425 488.493 314.598 488.7C314.778 488.907 314.871 489.177 314.878 489.51C314.878 489.81 314.795 490.08 314.628 490.32C314.461 490.56 314.225 490.75 313.918 490.89C313.618 491.023 313.271 491.09 312.878 491.09ZM321.023 485.52V491H320.113V490.19C319.939 490.47 319.696 490.69 319.383 490.85C319.076 491.003 318.736 491.08 318.363 491.08C317.936 491.08 317.553 490.993 317.213 490.82C316.873 490.64 316.603 490.373 316.403 490.02C316.209 489.667 316.113 489.237 316.113 488.73V485.52H317.013V488.61C317.013 489.15 317.149 489.567 317.423 489.86C317.696 490.147 318.069 490.29 318.543 490.29C319.029 490.29 319.413 490.14 319.693 489.84C319.973 489.54 320.113 489.103 320.113 488.53V485.52H321.023ZM323.469 486.41C323.629 486.097 323.856 485.853 324.149 485.68C324.449 485.507 324.812 485.42 325.239 485.42V486.36H324.999C323.979 486.36 323.469 486.913 323.469 488.02V491H322.559V485.52H323.469V486.41ZM325.95 488.24C325.95 487.68 326.063 487.19 326.29 486.77C326.516 486.343 326.826 486.013 327.22 485.78C327.62 485.547 328.063 485.43 328.55 485.43C329.03 485.43 329.446 485.533 329.8 485.74C330.153 485.947 330.416 486.207 330.59 486.52V485.52H331.51V491H330.59V489.98C330.41 490.3 330.14 490.567 329.78 490.78C329.426 490.987 329.013 491.09 328.54 491.09C328.053 491.09 327.613 490.97 327.22 490.73C326.826 490.49 326.516 490.153 326.29 489.72C326.063 489.287 325.95 488.793 325.95 488.24ZM330.59 488.25C330.59 487.837 330.506 487.477 330.34 487.17C330.173 486.863 329.946 486.63 329.66 486.47C329.38 486.303 329.07 486.22 328.73 486.22C328.39 486.22 328.08 486.3 327.8 486.46C327.52 486.62 327.296 486.853 327.13 487.16C326.963 487.467 326.88 487.827 326.88 488.24C326.88 488.66 326.963 489.027 327.13 489.34C327.296 489.647 327.52 489.883 327.8 490.05C328.08 490.21 328.39 490.29 328.73 490.29C329.07 490.29 329.38 490.21 329.66 490.05C329.946 489.883 330.173 489.647 330.34 489.34C330.506 489.027 330.59 488.663 330.59 488.25ZM335.717 485.42C336.384 485.42 336.924 485.623 337.337 486.03C337.751 486.43 337.957 487.01 337.957 487.77V491H337.057V487.9C337.057 487.353 336.921 486.937 336.647 486.65C336.374 486.357 336.001 486.21 335.527 486.21C335.047 486.21 334.664 486.36 334.377 486.66C334.097 486.96 333.957 487.397 333.957 487.97V491H333.047V485.52H333.957V486.3C334.137 486.02 334.381 485.803 334.687 485.65C335.001 485.497 335.344 485.42 335.717 485.42ZM339.104 488.25C339.104 487.683 339.217 487.19 339.444 486.77C339.67 486.343 339.984 486.013 340.384 485.78C340.79 485.547 341.254 485.43 341.774 485.43C342.447 485.43 343 485.593 343.434 485.92C343.874 486.247 344.164 486.7 344.304 487.28H343.324C343.23 486.947 343.047 486.683 342.774 486.49C342.507 486.297 342.174 486.2 341.774 486.2C341.254 486.2 340.834 486.38 340.514 486.74C340.194 487.093 340.034 487.597 340.034 488.25C340.034 488.91 340.194 489.42 340.514 489.78C340.834 490.14 341.254 490.32 341.774 490.32C342.174 490.32 342.507 490.227 342.774 490.04C343.04 489.853 343.224 489.587 343.324 489.24H344.304C344.157 489.8 343.864 490.25 343.424 490.59C342.984 490.923 342.434 491.09 341.774 491.09C341.254 491.09 340.79 490.973 340.384 490.74C339.984 490.507 339.67 490.177 339.444 489.75C339.217 489.323 339.104 488.823 339.104 488.25ZM350.518 488.05C350.518 488.223 350.508 488.407 350.488 488.6H346.108C346.141 489.14 346.325 489.563 346.658 489.87C346.998 490.17 347.408 490.32 347.888 490.32C348.281 490.32 348.608 490.23 348.868 490.05C349.135 489.863 349.321 489.617 349.428 489.31H350.408C350.261 489.837 349.968 490.267 349.528 490.6C349.088 490.927 348.541 491.09 347.888 491.09C347.368 491.09 346.901 490.973 346.488 490.74C346.081 490.507 345.761 490.177 345.528 489.75C345.295 489.317 345.178 488.817 345.178 488.25C345.178 487.683 345.291 487.187 345.518 486.76C345.745 486.333 346.061 486.007 346.468 485.78C346.881 485.547 347.355 485.43 347.888 485.43C348.408 485.43 348.868 485.543 349.268 485.77C349.668 485.997 349.975 486.31 350.188 486.71C350.408 487.103 350.518 487.55 350.518 488.05ZM349.578 487.86C349.578 487.513 349.501 487.217 349.348 486.97C349.195 486.717 348.985 486.527 348.718 486.4C348.458 486.267 348.168 486.2 347.848 486.2C347.388 486.2 346.995 486.347 346.668 486.64C346.348 486.933 346.165 487.34 346.118 487.86H349.578Z" fill="white"/>
<path d="M387.23 334.003H385.421C385.312 333.389 385.076 332.839 384.712 332.373L386.795 332.392L387.23 330.909H378.946L378.511 332.341H380.276L381.26 332.347C382.641 332.424 383.446 333.018 383.721 334.003H378.946L378.511 335.486H383.766C383.51 336.636 382.519 337.199 380.966 337.199H378.639L378.665 338.273L383.344 344H385.338V343.898L381.017 338.605H381.055C383.913 338.605 385.204 337.231 385.447 335.486H386.795L387.23 334.003ZM395.742 340.508C395.862 341.192 396.138 341.72 396.57 342.092C397.014 342.464 397.608 342.65 398.352 342.65C399.348 342.65 400.08 342.26 400.548 341.48C401.028 340.7 401.256 339.386 401.232 337.538C400.98 338.078 400.56 338.504 399.972 338.816C399.384 339.116 398.73 339.266 398.01 339.266C397.206 339.266 396.486 339.104 395.85 338.78C395.226 338.444 394.734 337.958 394.374 337.322C394.014 336.686 393.834 335.918 393.834 335.018C393.834 333.734 394.206 332.702 394.95 331.922C395.694 331.13 396.75 330.734 398.118 330.734C399.798 330.734 400.974 331.28 401.646 332.372C402.33 333.464 402.672 335.09 402.672 337.25C402.672 338.762 402.534 340.01 402.258 340.994C401.994 341.978 401.538 342.728 400.89 343.244C400.254 343.76 399.378 344.018 398.262 344.018C397.038 344.018 396.084 343.688 395.4 343.028C394.716 342.368 394.326 341.528 394.23 340.508H395.742ZM398.28 337.88C399.084 337.88 399.744 337.634 400.26 337.142C400.776 336.638 401.034 335.96 401.034 335.108C401.034 334.208 400.782 333.482 400.278 332.93C399.774 332.378 399.066 332.102 398.154 332.102C397.314 332.102 396.642 332.366 396.138 332.894C395.646 333.422 395.4 334.118 395.4 334.982C395.4 335.858 395.646 336.56 396.138 337.088C396.63 337.616 397.344 337.88 398.28 337.88ZM406.935 341.732L404.919 346.574H403.821L405.135 341.732H406.935ZM416.552 332.264L411.548 344H409.892L414.968 332.426H408.02V331.022H416.552V332.264ZM426.666 332.408H420.348V336.512C420.624 336.128 421.032 335.816 421.572 335.576C422.112 335.324 422.694 335.198 423.318 335.198C424.314 335.198 425.124 335.408 425.748 335.828C426.372 336.236 426.816 336.77 427.08 337.43C427.356 338.078 427.494 338.768 427.494 339.5C427.494 340.364 427.332 341.138 427.008 341.822C426.684 342.506 426.186 343.046 425.514 343.442C424.854 343.838 424.032 344.036 423.048 344.036C421.788 344.036 420.768 343.712 419.988 343.064C419.208 342.416 418.734 341.552 418.566 340.472H420.168C420.324 341.156 420.654 341.69 421.158 342.074C421.662 342.458 422.298 342.65 423.066 342.65C424.014 342.65 424.728 342.368 425.208 341.804C425.688 341.228 425.928 340.472 425.928 339.536C425.928 338.6 425.688 337.88 425.208 337.376C424.728 336.86 424.02 336.602 423.084 336.602C422.448 336.602 421.89 336.758 421.41 337.07C420.942 337.37 420.6 337.784 420.384 338.312H418.836V330.968H426.666V332.408ZM431.633 341.732L429.617 346.574H428.519L429.833 341.732H431.633ZM433.239 337.358C433.239 335.294 433.575 333.686 434.247 332.534C434.919 331.37 436.095 330.788 437.775 330.788C439.443 330.788 440.613 331.37 441.285 332.534C441.957 333.686 442.293 335.294 442.293 337.358C442.293 339.458 441.957 341.09 441.285 342.254C440.613 343.418 439.443 344 437.775 344C436.095 344 434.919 343.418 434.247 342.254C433.575 341.09 433.239 339.458 433.239 337.358ZM440.673 337.358C440.673 336.314 440.601 335.432 440.457 334.712C440.325 333.98 440.043 333.392 439.611 332.948C439.191 332.504 438.579 332.282 437.775 332.282C436.959 332.282 436.335 332.504 435.903 332.948C435.483 333.392 435.201 333.98 435.057 334.712C434.925 335.432 434.859 336.314 434.859 337.358C434.859 338.438 434.925 339.344 435.057 340.076C435.201 340.808 435.483 341.396 435.903 341.84C436.335 342.284 436.959 342.506 437.775 342.506C438.579 342.506 439.191 342.284 439.611 341.84C440.043 341.396 440.325 340.808 440.457 340.076C440.601 339.344 440.673 338.438 440.673 337.358ZM444.542 337.358C444.542 335.294 444.878 333.686 445.55 332.534C446.222 331.37 447.398 330.788 449.078 330.788C450.746 330.788 451.916 331.37 452.588 332.534C453.26 333.686 453.596 335.294 453.596 337.358C453.596 339.458 453.26 341.09 452.588 342.254C451.916 343.418 450.746 344 449.078 344C447.398 344 446.222 343.418 445.55 342.254C444.878 341.09 444.542 339.458 444.542 337.358ZM451.976 337.358C451.976 336.314 451.904 335.432 451.76 334.712C451.628 333.98 451.346 333.392 450.914 332.948C450.494 332.504 449.882 332.282 449.078 332.282C448.262 332.282 447.638 332.504 447.206 332.948C446.786 333.392 446.504 333.98 446.36 334.712C446.228 335.432 446.162 336.314 446.162 337.358C446.162 338.438 446.228 339.344 446.36 340.076C446.504 340.808 446.786 341.396 447.206 341.84C447.638 342.284 448.262 342.506 449.078 342.506C449.882 342.506 450.494 342.284 450.914 341.84C451.346 341.396 451.628 340.808 451.76 340.076C451.904 339.344 451.976 338.438 451.976 337.358ZM455.845 337.358C455.845 335.294 456.181 333.686 456.853 332.534C457.525 331.37 458.701 330.788 460.381 330.788C462.049 330.788 463.219 331.37 463.891 332.534C464.563 333.686 464.899 335.294 464.899 337.358C464.899 339.458 464.563 341.09 463.891 342.254C463.219 343.418 462.049 344 460.381 344C458.701 344 457.525 343.418 456.853 342.254C456.181 341.09 455.845 339.458 455.845 337.358ZM463.279 337.358C463.279 336.314 463.207 335.432 463.063 334.712C462.931 333.98 462.649 333.392 462.217 332.948C461.797 332.504 461.185 332.282 460.381 332.282C459.565 332.282 458.941 332.504 458.509 332.948C458.089 333.392 457.807 333.98 457.663 334.712C457.531 335.432 457.465 336.314 457.465 337.358C457.465 338.438 457.531 339.344 457.663 340.076C457.807 340.808 458.089 341.396 458.509 341.84C458.941 342.284 459.565 342.506 460.381 342.506C461.185 342.506 461.797 342.284 462.217 341.84C462.649 341.396 462.931 340.808 463.063 340.076C463.207 339.344 463.279 338.438 463.279 337.358Z" fill="white"/>
<path d="M281.311 38.1662C280.864 35.3665 278.671 33.7301 275.903 33.7301C272.516 33.7301 270.016 36.2678 270.016 40.4545C270.016 44.6413 272.503 47.179 275.903 47.179C278.78 47.179 280.883 45.3764 281.311 42.7876L279.317 42.7812C278.978 44.456 277.572 45.3764 275.916 45.3764C273.673 45.3764 271.979 43.657 271.979 40.4545C271.979 37.2777 273.666 35.5327 275.923 35.5327C277.591 35.5327 278.991 36.4723 279.317 38.1662H281.311ZM292.093 33.9091V42.3594C292.093 44.1364 290.866 45.4148 288.871 45.4148C286.883 45.4148 285.65 44.1364 285.65 42.3594V33.9091H283.675V42.5192C283.675 45.2678 285.733 47.2173 288.871 47.2173C292.01 47.2173 294.074 45.2678 294.074 42.5192V33.9091H292.093ZM296.946 47H298.921V42.0462H301.606C301.651 42.0462 301.689 42.0462 301.734 42.0462L304.393 47H306.643L303.741 41.701C305.345 41.1065 306.144 39.7706 306.144 38.0128C306.144 35.603 304.648 33.9091 301.612 33.9091H296.946V47ZM298.921 40.3459V35.603H301.401C303.351 35.603 304.156 36.5298 304.156 38.0128C304.156 39.4893 303.351 40.3459 301.427 40.3459H298.921ZM308.548 47H310.523V42.0462H313.207C313.252 42.0462 313.29 42.0462 313.335 42.0462L315.994 47H318.244L315.342 41.701C316.947 41.1065 317.746 39.7706 317.746 38.0128C317.746 35.603 316.25 33.9091 313.214 33.9091H308.548V47ZM310.523 40.3459V35.603H313.003C314.952 35.603 315.758 36.5298 315.758 38.0128C315.758 39.4893 314.952 40.3459 313.028 40.3459H310.523ZM320.149 47H328.433V45.2997H322.124V41.2919H327.928V39.598H322.124V35.6094H328.357V33.9091H320.149V47ZM341.561 33.9091H339.605V43.5227H339.483L332.823 33.9091H330.995V47H332.97V37.3991H333.091L339.746 47H341.561V33.9091ZM343.797 35.6094H347.875V47H349.843V35.6094H353.928V33.9091H343.797V35.6094ZM360.93 47H362.906V41.2919H369.432V47H371.413V33.9091H369.432V39.598H362.906V33.9091H360.93V47ZM385.661 40.4545C385.661 36.2678 383.156 33.7301 379.768 33.7301C376.367 33.7301 373.868 36.2678 373.868 40.4545C373.868 44.6349 376.367 47.179 379.768 47.179C383.156 47.179 385.661 44.6413 385.661 40.4545ZM383.705 40.4545C383.705 43.6442 382.018 45.3764 379.768 45.3764C377.511 45.3764 375.83 43.6442 375.83 40.4545C375.83 37.2649 377.511 35.5327 379.768 35.5327C382.018 35.5327 383.705 37.2649 383.705 40.4545ZM388.124 47H396.031V45.2997H390.099V33.9091H388.124V47ZM402.522 47C406.51 47 408.818 44.5263 408.818 40.4354C408.818 36.3636 406.51 33.9091 402.656 33.9091H398.284V47H402.522ZM400.259 45.2741V35.6349H402.535C405.398 35.6349 406.875 37.348 406.875 40.4354C406.875 43.5355 405.398 45.2741 402.413 45.2741H400.259ZM413.249 33.9091H411.274V47H413.249V33.9091ZM426.692 33.9091H424.736V43.5227H424.614L417.954 33.9091H416.126V47H418.101V37.3991H418.222L424.876 47H426.692V33.9091ZM438.432 38.0447H440.459C440.018 35.4943 437.838 33.7301 435.013 33.7301C431.625 33.7301 429.151 36.2805 429.151 40.4609C429.151 44.603 431.555 47.179 435.102 47.179C438.279 47.179 440.548 45.0952 440.548 41.7905V40.3011H435.403V41.9311H438.637C438.592 44.0405 437.199 45.3764 435.102 45.3764C432.795 45.3764 431.113 43.6314 431.113 40.4482C431.113 37.2777 432.807 35.5327 435.025 35.5327C436.764 35.5327 437.94 36.4915 438.432 38.0447Z" fill="#263238"/>
<path d="M281.32 80.112C281.4 78.512 281.96 77.28 283 76.416C284.056 75.536 285.44 75.096 287.152 75.096C288.32 75.096 289.32 75.304 290.152 75.72C290.984 76.12 291.608 76.672 292.024 77.376C292.456 78.064 292.672 78.848 292.672 79.728C292.672 80.736 292.408 81.592 291.88 82.296C291.368 82.984 290.752 83.448 290.032 83.688V83.784C290.96 84.072 291.68 84.584 292.192 85.32C292.72 86.056 292.984 87 292.984 88.152C292.984 89.112 292.76 89.968 292.312 90.72C291.88 91.472 291.232 92.064 290.368 92.496C289.52 92.912 288.496 93.12 287.296 93.12C285.488 93.12 284.016 92.664 282.88 91.752C281.744 90.84 281.144 89.496 281.08 87.72H284.344C284.376 88.504 284.64 89.136 285.136 89.616C285.648 90.08 286.344 90.312 287.224 90.312C288.04 90.312 288.664 90.088 289.096 89.64C289.544 89.176 289.768 88.584 289.768 87.864C289.768 86.904 289.464 86.216 288.856 85.8C288.248 85.384 287.304 85.176 286.024 85.176H285.328V82.416H286.024C288.296 82.416 289.432 81.656 289.432 80.136C289.432 79.448 289.224 78.912 288.808 78.528C288.408 78.144 287.824 77.952 287.056 77.952C286.304 77.952 285.72 78.16 285.304 78.576C284.904 78.976 284.672 79.488 284.608 80.112H281.32ZM300.695 89.472L297.887 96.216H295.727L297.287 89.472H300.695ZM307.621 88.08C307.749 88.784 308.037 89.328 308.485 89.712C308.949 90.08 309.565 90.264 310.333 90.264C311.325 90.264 312.045 89.856 312.493 89.04C312.941 88.208 313.165 86.816 313.165 84.864C312.797 85.376 312.277 85.776 311.605 86.064C310.949 86.352 310.237 86.496 309.469 86.496C308.445 86.496 307.517 86.288 306.685 85.872C305.869 85.44 305.221 84.808 304.741 83.976C304.261 83.128 304.021 82.104 304.021 80.904C304.021 79.128 304.549 77.72 305.605 76.68C306.661 75.624 308.101 75.096 309.925 75.096C312.197 75.096 313.797 75.824 314.725 77.28C315.669 78.736 316.141 80.928 316.141 83.856C316.141 85.936 315.957 87.64 315.589 88.968C315.237 90.296 314.621 91.304 313.741 91.992C312.877 92.68 311.693 93.024 310.189 93.024C309.005 93.024 307.997 92.8 307.165 92.352C306.333 91.888 305.693 91.288 305.245 90.552C304.813 89.8 304.565 88.976 304.501 88.08H307.621ZM310.165 83.76C310.997 83.76 311.653 83.504 312.133 82.992C312.613 82.48 312.853 81.792 312.853 80.928C312.853 79.984 312.597 79.256 312.085 78.744C311.589 78.216 310.909 77.952 310.045 77.952C309.181 77.952 308.493 78.224 307.981 78.768C307.485 79.296 307.237 80 307.237 80.88C307.237 81.728 307.477 82.424 307.957 82.968C308.453 83.496 309.189 83.76 310.165 83.76ZM319.756 84.024C319.756 81.256 320.252 79.088 321.244 77.52C322.252 75.952 323.916 75.168 326.236 75.168C328.556 75.168 330.212 75.952 331.204 77.52C332.212 79.088 332.716 81.256 332.716 84.024C332.716 86.808 332.212 88.992 331.204 90.576C330.212 92.16 328.556 92.952 326.236 92.952C323.916 92.952 322.252 92.16 321.244 90.576C320.252 88.992 319.756 86.808 319.756 84.024ZM329.404 84.024C329.404 82.84 329.324 81.848 329.164 81.048C329.02 80.232 328.716 79.568 328.252 79.056C327.804 78.544 327.132 78.288 326.236 78.288C325.34 78.288 324.66 78.544 324.196 79.056C323.748 79.568 323.444 80.232 323.284 81.048C323.14 81.848 323.068 82.84 323.068 84.024C323.068 85.24 323.14 86.264 323.284 87.096C323.428 87.912 323.732 88.576 324.196 89.088C324.66 89.584 325.34 89.832 326.236 89.832C327.132 89.832 327.812 89.584 328.276 89.088C328.74 88.576 329.044 87.912 329.188 87.096C329.332 86.264 329.404 85.24 329.404 84.024ZM340.328 89.472L337.52 96.216H335.36L336.92 89.472H340.328ZM343.366 84.024C343.366 81.256 343.862 79.088 344.854 77.52C345.862 75.952 347.526 75.168 349.846 75.168C352.166 75.168 353.822 75.952 354.814 77.52C355.822 79.088 356.326 81.256 356.326 84.024C356.326 86.808 355.822 88.992 354.814 90.576C353.822 92.16 352.166 92.952 349.846 92.952C347.526 92.952 345.862 92.16 344.854 90.576C343.862 88.992 343.366 86.808 343.366 84.024ZM353.014 84.024C353.014 82.84 352.934 81.848 352.774 81.048C352.63 80.232 352.326 79.568 351.862 79.056C351.414 78.544 350.742 78.288 349.846 78.288C348.95 78.288 348.27 78.544 347.806 79.056C347.358 79.568 347.054 80.232 346.894 81.048C346.75 81.848 346.678 82.84 346.678 84.024C346.678 85.24 346.75 86.264 346.894 87.096C347.038 87.912 347.342 88.576 347.806 89.088C348.27 89.584 348.95 89.832 349.846 89.832C350.742 89.832 351.422 89.584 351.886 89.088C352.35 88.576 352.654 87.912 352.798 87.096C352.942 86.264 353.014 85.24 353.014 84.024ZM359.881 84.024C359.881 81.256 360.377 79.088 361.369 77.52C362.377 75.952 364.041 75.168 366.361 75.168C368.681 75.168 370.337 75.952 371.329 77.52C372.337 79.088 372.841 81.256 372.841 84.024C372.841 86.808 372.337 88.992 371.329 90.576C370.337 92.16 368.681 92.952 366.361 92.952C364.041 92.952 362.377 92.16 361.369 90.576C360.377 88.992 359.881 86.808 359.881 84.024ZM369.529 84.024C369.529 82.84 369.449 81.848 369.289 81.048C369.145 80.232 368.841 79.568 368.377 79.056C367.929 78.544 367.257 78.288 366.361 78.288C365.465 78.288 364.785 78.544 364.321 79.056C363.873 79.568 363.569 80.232 363.409 81.048C363.265 81.848 363.193 82.84 363.193 84.024C363.193 85.24 363.265 86.264 363.409 87.096C363.553 87.912 363.857 88.576 364.321 89.088C364.785 89.584 365.465 89.832 366.361 89.832C367.257 89.832 367.937 89.584 368.401 89.088C368.865 88.576 369.169 87.912 369.313 87.096C369.457 86.264 369.529 85.24 369.529 84.024ZM380.453 89.472L377.645 96.216H375.485L377.045 89.472H380.453ZM383.491 84.024C383.491 81.256 383.987 79.088 384.979 77.52C385.987 75.952 387.651 75.168 389.971 75.168C392.291 75.168 393.947 75.952 394.939 77.52C395.947 79.088 396.451 81.256 396.451 84.024C396.451 86.808 395.947 88.992 394.939 90.576C393.947 92.16 392.291 92.952 389.971 92.952C387.651 92.952 385.987 92.16 384.979 90.576C383.987 88.992 383.491 86.808 383.491 84.024ZM393.139 84.024C393.139 82.84 393.059 81.848 392.899 81.048C392.755 80.232 392.451 79.568 391.987 79.056C391.539 78.544 390.867 78.288 389.971 78.288C389.075 78.288 388.395 78.544 387.931 79.056C387.483 79.568 387.179 80.232 387.019 81.048C386.875 81.848 386.803 82.84 386.803 84.024C386.803 85.24 386.875 86.264 387.019 87.096C387.163 87.912 387.467 88.576 387.931 89.088C388.395 89.584 389.075 89.832 389.971 89.832C390.867 89.832 391.547 89.584 392.011 89.088C392.475 88.576 392.779 87.912 392.923 87.096C393.067 86.264 393.139 85.24 393.139 84.024ZM400.006 84.024C400.006 81.256 400.502 79.088 401.494 77.52C402.502 75.952 404.166 75.168 406.486 75.168C408.806 75.168 410.462 75.952 411.454 77.52C412.462 79.088 412.966 81.256 412.966 84.024C412.966 86.808 412.462 88.992 411.454 90.576C410.462 92.16 408.806 92.952 406.486 92.952C404.166 92.952 402.502 92.16 401.494 90.576C400.502 88.992 400.006 86.808 400.006 84.024ZM409.654 84.024C409.654 82.84 409.574 81.848 409.414 81.048C409.27 80.232 408.966 79.568 408.502 79.056C408.054 78.544 407.382 78.288 406.486 78.288C405.59 78.288 404.91 78.544 404.446 79.056C403.998 79.568 403.694 80.232 403.534 81.048C403.39 81.848 403.318 82.84 403.318 84.024C403.318 85.24 403.39 86.264 403.534 87.096C403.678 87.912 403.982 88.576 404.446 89.088C404.91 89.584 405.59 89.832 406.486 89.832C407.382 89.832 408.062 89.584 408.526 89.088C408.99 88.576 409.294 87.912 409.438 87.096C409.582 86.264 409.654 85.24 409.654 84.024ZM416.522 84.024C416.522 81.256 417.018 79.088 418.01 77.52C419.018 75.952 420.682 75.168 423.002 75.168C425.322 75.168 426.978 75.952 427.97 77.52C428.978 79.088 429.482 81.256 429.482 84.024C429.482 86.808 428.978 88.992 427.97 90.576C426.978 92.16 425.322 92.952 423.002 92.952C420.682 92.952 419.018 92.16 418.01 90.576C417.018 88.992 416.522 86.808 416.522 84.024ZM426.17 84.024C426.17 82.84 426.09 81.848 425.93 81.048C425.786 80.232 425.482 79.568 425.018 79.056C424.57 78.544 423.898 78.288 423.002 78.288C422.106 78.288 421.426 78.544 420.962 79.056C420.514 79.568 420.21 80.232 420.05 81.048C419.906 81.848 419.834 82.84 419.834 84.024C419.834 85.24 419.906 86.264 420.05 87.096C420.194 87.912 420.498 88.576 420.962 89.088C421.426 89.584 422.106 89.832 423.002 89.832C423.898 89.832 424.578 89.584 425.042 89.088C425.506 88.576 425.81 87.912 425.954 87.096C426.098 86.264 426.17 85.24 426.17 84.024Z" fill="#263238"/>
<path d="M387.23 407.003H385.421C385.312 406.389 385.076 405.839 384.712 405.373L386.795 405.392L387.23 403.909H378.946L378.511 405.341H380.276L381.26 405.347C382.641 405.424 383.446 406.018 383.721 407.003H378.946L378.511 408.486H383.766C383.51 409.636 382.519 410.199 380.966 410.199H378.639L378.665 411.273L383.344 417H385.338V416.898L381.017 411.605H381.055C383.913 411.605 385.204 410.231 385.447 408.486H386.795L387.23 407.003ZM395.742 413.508C395.862 414.192 396.138 414.72 396.57 415.092C397.014 415.464 397.608 415.65 398.352 415.65C399.348 415.65 400.08 415.26 400.548 414.48C401.028 413.7 401.256 412.386 401.232 410.538C400.98 411.078 400.56 411.504 399.972 411.816C399.384 412.116 398.73 412.266 398.01 412.266C397.206 412.266 396.486 412.104 395.85 411.78C395.226 411.444 394.734 410.958 394.374 410.322C394.014 409.686 393.834 408.918 393.834 408.018C393.834 406.734 394.206 405.702 394.95 404.922C395.694 404.13 396.75 403.734 398.118 403.734C399.798 403.734 400.974 404.28 401.646 405.372C402.33 406.464 402.672 408.09 402.672 410.25C402.672 411.762 402.534 413.01 402.258 413.994C401.994 414.978 401.538 415.728 400.89 416.244C400.254 416.76 399.378 417.018 398.262 417.018C397.038 417.018 396.084 416.688 395.4 416.028C394.716 415.368 394.326 414.528 394.23 413.508H395.742ZM398.28 410.88C399.084 410.88 399.744 410.634 400.26 410.142C400.776 409.638 401.034 408.96 401.034 408.108C401.034 407.208 400.782 406.482 400.278 405.93C399.774 405.378 399.066 405.102 398.154 405.102C397.314 405.102 396.642 405.366 396.138 405.894C395.646 406.422 395.4 407.118 395.4 407.982C395.4 408.858 395.646 409.56 396.138 410.088C396.63 410.616 397.344 410.88 398.28 410.88ZM406.935 414.732L404.919 419.574H403.821L405.135 414.732H406.935ZM416.552 405.264L411.548 417H409.892L414.968 405.426H408.02V404.022H416.552V405.264ZM426.666 405.408H420.348V409.512C420.624 409.128 421.032 408.816 421.572 408.576C422.112 408.324 422.694 408.198 423.318 408.198C424.314 408.198 425.124 408.408 425.748 408.828C426.372 409.236 426.816 409.77 427.08 410.43C427.356 411.078 427.494 411.768 427.494 412.5C427.494 413.364 427.332 414.138 427.008 414.822C426.684 415.506 426.186 416.046 425.514 416.442C424.854 416.838 424.032 417.036 423.048 417.036C421.788 417.036 420.768 416.712 419.988 416.064C419.208 415.416 418.734 414.552 418.566 413.472H420.168C420.324 414.156 420.654 414.69 421.158 415.074C421.662 415.458 422.298 415.65 423.066 415.65C424.014 415.65 424.728 415.368 425.208 414.804C425.688 414.228 425.928 413.472 425.928 412.536C425.928 411.6 425.688 410.88 425.208 410.376C424.728 409.86 424.02 409.602 423.084 409.602C422.448 409.602 421.89 409.758 421.41 410.07C420.942 410.37 420.6 410.784 420.384 411.312H418.836V403.968H426.666V405.408ZM431.633 414.732L429.617 419.574H428.519L429.833 414.732H431.633ZM433.239 410.358C433.239 408.294 433.575 406.686 434.247 405.534C434.919 404.37 436.095 403.788 437.775 403.788C439.443 403.788 440.613 404.37 441.285 405.534C441.957 406.686 442.293 408.294 442.293 410.358C442.293 412.458 441.957 414.09 441.285 415.254C440.613 416.418 439.443 417 437.775 417C436.095 417 434.919 416.418 434.247 415.254C433.575 414.09 433.239 412.458 433.239 410.358ZM440.673 410.358C440.673 409.314 440.601 408.432 440.457 407.712C440.325 406.98 440.043 406.392 439.611 405.948C439.191 405.504 438.579 405.282 437.775 405.282C436.959 405.282 436.335 405.504 435.903 405.948C435.483 406.392 435.201 406.98 435.057 407.712C434.925 408.432 434.859 409.314 434.859 410.358C434.859 411.438 434.925 412.344 435.057 413.076C435.201 413.808 435.483 414.396 435.903 414.84C436.335 415.284 436.959 415.506 437.775 415.506C438.579 415.506 439.191 415.284 439.611 414.84C440.043 414.396 440.325 413.808 440.457 413.076C440.601 412.344 440.673 411.438 440.673 410.358ZM444.542 410.358C444.542 408.294 444.878 406.686 445.55 405.534C446.222 404.37 447.398 403.788 449.078 403.788C450.746 403.788 451.916 404.37 452.588 405.534C453.26 406.686 453.596 408.294 453.596 410.358C453.596 412.458 453.26 414.09 452.588 415.254C451.916 416.418 450.746 417 449.078 417C447.398 417 446.222 416.418 445.55 415.254C444.878 414.09 444.542 412.458 444.542 410.358ZM451.976 410.358C451.976 409.314 451.904 408.432 451.76 407.712C451.628 406.98 451.346 406.392 450.914 405.948C450.494 405.504 449.882 405.282 449.078 405.282C448.262 405.282 447.638 405.504 447.206 405.948C446.786 406.392 446.504 406.98 446.36 407.712C446.228 408.432 446.162 409.314 446.162 410.358C446.162 411.438 446.228 412.344 446.36 413.076C446.504 413.808 446.786 414.396 447.206 414.84C447.638 415.284 448.262 415.506 449.078 415.506C449.882 415.506 450.494 415.284 450.914 414.84C451.346 414.396 451.628 413.808 451.76 413.076C451.904 412.344 451.976 411.438 451.976 410.358ZM455.845 410.358C455.845 408.294 456.181 406.686 456.853 405.534C457.525 404.37 458.701 403.788 460.381 403.788C462.049 403.788 463.219 404.37 463.891 405.534C464.563 406.686 464.899 408.294 464.899 410.358C464.899 412.458 464.563 414.09 463.891 415.254C463.219 416.418 462.049 417 460.381 417C458.701 417 457.525 416.418 456.853 415.254C456.181 414.09 455.845 412.458 455.845 410.358ZM463.279 410.358C463.279 409.314 463.207 408.432 463.063 407.712C462.931 406.98 462.649 406.392 462.217 405.948C461.797 405.504 461.185 405.282 460.381 405.282C459.565 405.282 458.941 405.504 458.509 405.948C458.089 406.392 457.807 406.98 457.663 407.712C457.531 408.432 457.465 409.314 457.465 410.358C457.465 411.438 457.531 412.344 457.663 413.076C457.807 413.808 458.089 414.396 458.509 414.84C458.941 415.284 459.565 415.506 460.381 415.506C461.185 415.506 461.797 415.284 462.217 414.84C462.649 414.396 462.931 413.808 463.063 413.076C463.207 412.344 463.279 411.438 463.279 410.358Z" fill="white"/>
<path d="M387.23 482.003H385.421C385.312 481.389 385.076 480.839 384.712 480.373L386.795 480.392L387.23 478.909H378.946L378.511 480.341H380.276L381.26 480.347C382.641 480.424 383.446 481.018 383.721 482.003H378.946L378.511 483.486H383.766C383.51 484.636 382.519 485.199 380.966 485.199H378.639L378.665 486.273L383.344 492H385.338V491.898L381.017 486.605H381.055C383.913 486.605 385.204 485.231 385.447 483.486H386.795L387.23 482.003ZM395.742 488.508C395.862 489.192 396.138 489.72 396.57 490.092C397.014 490.464 397.608 490.65 398.352 490.65C399.348 490.65 400.08 490.26 400.548 489.48C401.028 488.7 401.256 487.386 401.232 485.538C400.98 486.078 400.56 486.504 399.972 486.816C399.384 487.116 398.73 487.266 398.01 487.266C397.206 487.266 396.486 487.104 395.85 486.78C395.226 486.444 394.734 485.958 394.374 485.322C394.014 484.686 393.834 483.918 393.834 483.018C393.834 481.734 394.206 480.702 394.95 479.922C395.694 479.13 396.75 478.734 398.118 478.734C399.798 478.734 400.974 479.28 401.646 480.372C402.33 481.464 402.672 483.09 402.672 485.25C402.672 486.762 402.534 488.01 402.258 488.994C401.994 489.978 401.538 490.728 400.89 491.244C400.254 491.76 399.378 492.018 398.262 492.018C397.038 492.018 396.084 491.688 395.4 491.028C394.716 490.368 394.326 489.528 394.23 488.508H395.742ZM398.28 485.88C399.084 485.88 399.744 485.634 400.26 485.142C400.776 484.638 401.034 483.96 401.034 483.108C401.034 482.208 400.782 481.482 400.278 480.93C399.774 480.378 399.066 480.102 398.154 480.102C397.314 480.102 396.642 480.366 396.138 480.894C395.646 481.422 395.4 482.118 395.4 482.982C395.4 483.858 395.646 484.56 396.138 485.088C396.63 485.616 397.344 485.88 398.28 485.88ZM406.935 489.732L404.919 494.574H403.821L405.135 489.732H406.935ZM416.552 480.264L411.548 492H409.892L414.968 480.426H408.02V479.022H416.552V480.264ZM426.666 480.408H420.348V484.512C420.624 484.128 421.032 483.816 421.572 483.576C422.112 483.324 422.694 483.198 423.318 483.198C424.314 483.198 425.124 483.408 425.748 483.828C426.372 484.236 426.816 484.77 427.08 485.43C427.356 486.078 427.494 486.768 427.494 487.5C427.494 488.364 427.332 489.138 427.008 489.822C426.684 490.506 426.186 491.046 425.514 491.442C424.854 491.838 424.032 492.036 423.048 492.036C421.788 492.036 420.768 491.712 419.988 491.064C419.208 490.416 418.734 489.552 418.566 488.472H420.168C420.324 489.156 420.654 489.69 421.158 490.074C421.662 490.458 422.298 490.65 423.066 490.65C424.014 490.65 424.728 490.368 425.208 489.804C425.688 489.228 425.928 488.472 425.928 487.536C425.928 486.6 425.688 485.88 425.208 485.376C424.728 484.86 424.02 484.602 423.084 484.602C422.448 484.602 421.89 484.758 421.41 485.07C420.942 485.37 420.6 485.784 420.384 486.312H418.836V478.968H426.666V480.408ZM431.633 489.732L429.617 494.574H428.519L429.833 489.732H431.633ZM433.239 485.358C433.239 483.294 433.575 481.686 434.247 480.534C434.919 479.37 436.095 478.788 437.775 478.788C439.443 478.788 440.613 479.37 441.285 480.534C441.957 481.686 442.293 483.294 442.293 485.358C442.293 487.458 441.957 489.09 441.285 490.254C440.613 491.418 439.443 492 437.775 492C436.095 492 434.919 491.418 434.247 490.254C433.575 489.09 433.239 487.458 433.239 485.358ZM440.673 485.358C440.673 484.314 440.601 483.432 440.457 482.712C440.325 481.98 440.043 481.392 439.611 480.948C439.191 480.504 438.579 480.282 437.775 480.282C436.959 480.282 436.335 480.504 435.903 480.948C435.483 481.392 435.201 481.98 435.057 482.712C434.925 483.432 434.859 484.314 434.859 485.358C434.859 486.438 434.925 487.344 435.057 488.076C435.201 488.808 435.483 489.396 435.903 489.84C436.335 490.284 436.959 490.506 437.775 490.506C438.579 490.506 439.191 490.284 439.611 489.84C440.043 489.396 440.325 488.808 440.457 488.076C440.601 487.344 440.673 486.438 440.673 485.358ZM444.542 485.358C444.542 483.294 444.878 481.686 445.55 480.534C446.222 479.37 447.398 478.788 449.078 478.788C450.746 478.788 451.916 479.37 452.588 480.534C453.26 481.686 453.596 483.294 453.596 485.358C453.596 487.458 453.26 489.09 452.588 490.254C451.916 491.418 450.746 492 449.078 492C447.398 492 446.222 491.418 445.55 490.254C444.878 489.09 444.542 487.458 444.542 485.358ZM451.976 485.358C451.976 484.314 451.904 483.432 451.76 482.712C451.628 481.98 451.346 481.392 450.914 480.948C450.494 480.504 449.882 480.282 449.078 480.282C448.262 480.282 447.638 480.504 447.206 480.948C446.786 481.392 446.504 481.98 446.36 482.712C446.228 483.432 446.162 484.314 446.162 485.358C446.162 486.438 446.228 487.344 446.36 488.076C446.504 488.808 446.786 489.396 447.206 489.84C447.638 490.284 448.262 490.506 449.078 490.506C449.882 490.506 450.494 490.284 450.914 489.84C451.346 489.396 451.628 488.808 451.76 488.076C451.904 487.344 451.976 486.438 451.976 485.358ZM455.845 485.358C455.845 483.294 456.181 481.686 456.853 480.534C457.525 479.37 458.701 478.788 460.381 478.788C462.049 478.788 463.219 479.37 463.891 480.534C464.563 481.686 464.899 483.294 464.899 485.358C464.899 487.458 464.563 489.09 463.891 490.254C463.219 491.418 462.049 492 460.381 492C458.701 492 457.525 491.418 456.853 490.254C456.181 489.09 455.845 487.458 455.845 485.358ZM463.279 485.358C463.279 484.314 463.207 483.432 463.063 482.712C462.931 481.98 462.649 481.392 462.217 480.948C461.797 480.504 461.185 480.282 460.381 480.282C459.565 480.282 458.941 480.504 458.509 480.948C458.089 481.392 457.807 481.98 457.663 482.712C457.531 483.432 457.465 484.314 457.465 485.358C457.465 486.438 457.531 487.344 457.663 488.076C457.807 488.808 458.089 489.396 458.509 489.84C458.941 490.284 459.565 490.506 460.381 490.506C461.185 490.506 461.797 490.284 462.217 489.84C462.649 489.396 462.931 488.808 463.063 488.076C463.207 487.344 463.279 486.438 463.279 485.358Z" fill="white"/>
<path d="M369.019 202C369.019 201.009 368.725 200.041 368.175 199.217C367.624 198.393 366.842 197.751 365.926 197.372C365.011 196.993 364.004 196.894 363.032 197.087C362.06 197.28 361.168 197.757 360.467 198.458C359.767 199.158 359.29 200.051 359.096 201.023C358.903 201.994 359.002 203.002 359.381 203.917C359.76 204.832 360.403 205.615 361.226 206.165C362.05 206.716 363.019 207.009 364.009 207.009C365.338 207.009 366.612 206.482 367.552 205.542C368.491 204.603 369.019 203.329 369.019 202Z" fill="#263238"/>
<path d="M391.427 197.696V206H390.335V199.808L387.575 206H386.807L384.035 199.796V206H382.943V197.696H384.119L387.191 204.56L390.263 197.696H391.427ZM399.11 199.424V206H398.018V205.028C397.81 205.364 397.518 205.628 397.142 205.82C396.774 206.004 396.366 206.096 395.918 206.096C395.406 206.096 394.946 205.992 394.538 205.784C394.13 205.568 393.806 205.248 393.566 204.824C393.334 204.4 393.218 203.884 393.218 203.276V199.424H394.298V203.132C394.298 203.78 394.462 204.28 394.79 204.632C395.118 204.976 395.566 205.148 396.134 205.148C396.718 205.148 397.178 204.968 397.514 204.608C397.85 204.248 398.018 203.724 398.018 203.036V199.424H399.11ZM402.286 200.324V204.2C402.286 204.52 402.354 204.748 402.49 204.884C402.626 205.012 402.862 205.076 403.198 205.076H404.002V206H403.018C402.41 206 401.954 205.86 401.65 205.58C401.346 205.3 401.194 204.84 401.194 204.2V200.324H400.342V199.424H401.194V197.768H402.286V199.424H404.002V200.324H402.286ZM411.157 199.424V206H410.065V205.028C409.857 205.364 409.565 205.628 409.189 205.82C408.821 206.004 408.413 206.096 407.965 206.096C407.453 206.096 406.993 205.992 406.585 205.784C406.177 205.568 405.853 205.248 405.613 204.824C405.381 204.4 405.265 203.884 405.265 203.276V199.424H406.345V203.132C406.345 203.78 406.509 204.28 406.837 204.632C407.165 204.976 407.613 205.148 408.181 205.148C408.765 205.148 409.225 204.968 409.561 204.608C409.897 204.248 410.065 203.724 410.065 203.036V199.424H411.157ZM412.593 202.688C412.593 202.016 412.729 201.428 413.001 200.924C413.273 200.412 413.645 200.016 414.117 199.736C414.597 199.456 415.129 199.316 415.713 199.316C416.289 199.316 416.789 199.44 417.213 199.688C417.637 199.936 417.953 200.248 418.161 200.624V199.424H419.265V206H418.161V204.776C417.945 205.16 417.621 205.48 417.189 205.736C416.765 205.984 416.269 206.108 415.701 206.108C415.117 206.108 414.589 205.964 414.117 205.676C413.645 205.388 413.273 204.984 413.001 204.464C412.729 203.944 412.593 203.352 412.593 202.688ZM418.161 202.7C418.161 202.204 418.061 201.772 417.861 201.404C417.661 201.036 417.389 200.756 417.045 200.564C416.709 200.364 416.337 200.264 415.929 200.264C415.521 200.264 415.149 200.36 414.813 200.552C414.477 200.744 414.209 201.024 414.009 201.392C413.809 201.76 413.709 202.192 413.709 202.688C413.709 203.192 413.809 203.632 414.009 204.008C414.209 204.376 414.477 204.66 414.813 204.86C415.149 205.052 415.521 205.148 415.929 205.148C416.337 205.148 416.709 205.052 417.045 204.86C417.389 204.66 417.661 204.376 417.861 204.008C418.061 203.632 418.161 203.196 418.161 202.7ZM422.203 197.12V206H421.111V197.12H422.203ZM431.991 197.636V198.524H428.355V201.344H431.307V202.232H428.355V206H427.263V197.636H431.991ZM439.142 199.424V206H438.05V205.028C437.842 205.364 437.55 205.628 437.174 205.82C436.806 206.004 436.398 206.096 435.95 206.096C435.438 206.096 434.978 205.992 434.57 205.784C434.162 205.568 433.838 205.248 433.598 204.824C433.366 204.4 433.25 203.884 433.25 203.276V199.424H434.33V203.132C434.33 203.78 434.494 204.28 434.822 204.632C435.15 204.976 435.598 205.148 436.166 205.148C436.75 205.148 437.21 204.968 437.546 204.608C437.882 204.248 438.05 203.724 438.05 203.036V199.424H439.142ZM444.19 199.304C444.99 199.304 445.638 199.548 446.134 200.036C446.63 200.516 446.878 201.212 446.878 202.124V206H445.798V202.28C445.798 201.624 445.634 201.124 445.306 200.78C444.978 200.428 444.53 200.252 443.962 200.252C443.386 200.252 442.926 200.432 442.582 200.792C442.246 201.152 442.078 201.676 442.078 202.364V206H440.986V199.424H442.078V200.36C442.294 200.024 442.586 199.764 442.954 199.58C443.33 199.396 443.742 199.304 444.19 199.304ZM448.253 202.688C448.253 202.016 448.389 201.428 448.661 200.924C448.933 200.412 449.305 200.016 449.777 199.736C450.257 199.456 450.793 199.316 451.385 199.316C451.897 199.316 452.373 199.436 452.813 199.676C453.253 199.908 453.589 200.216 453.821 200.6V197.12H454.925V206H453.821V204.764C453.605 205.156 453.285 205.48 452.861 205.736C452.437 205.984 451.941 206.108 451.373 206.108C450.789 206.108 450.257 205.964 449.777 205.676C449.305 205.388 448.933 204.984 448.661 204.464C448.389 203.944 448.253 203.352 448.253 202.688ZM453.821 202.7C453.821 202.204 453.721 201.772 453.521 201.404C453.321 201.036 453.049 200.756 452.705 200.564C452.369 200.364 451.997 200.264 451.589 200.264C451.181 200.264 450.809 200.36 450.473 200.552C450.137 200.744 449.869 201.024 449.669 201.392C449.469 201.76 449.369 202.192 449.369 202.688C449.369 203.192 449.469 203.632 449.669 204.008C449.869 204.376 450.137 204.66 450.473 204.86C450.809 205.052 451.181 205.148 451.589 205.148C451.997 205.148 452.369 205.052 452.705 204.86C453.049 204.66 453.321 204.376 453.521 204.008C453.721 203.632 453.821 203.196 453.821 202.7Z" fill="white"/>
<path d="M364.009 233.009C366.776 233.009 369.019 230.767 369.019 228C369.019 225.233 366.776 222.991 364.009 222.991C361.243 222.991 359 225.233 359 228C359 230.767 361.243 233.009 364.009 233.009Z" fill="#919191"/>
<path d="M388.091 223.636V224.524H385.811V232H384.719V224.524H382.427V223.636H388.091ZM395.435 228.46C395.435 228.668 395.423 228.888 395.399 229.12H390.143C390.183 229.768 390.403 230.276 390.803 230.644C391.211 231.004 391.703 231.184 392.279 231.184C392.751 231.184 393.143 231.076 393.455 230.86C393.775 230.636 393.999 230.34 394.127 229.972H395.303C395.127 230.604 394.775 231.12 394.247 231.52C393.719 231.912 393.063 232.108 392.279 232.108C391.655 232.108 391.095 231.968 390.599 231.688C390.111 231.408 389.727 231.012 389.447 230.5C389.167 229.98 389.027 229.38 389.027 228.7C389.027 228.02 389.163 227.424 389.435 226.912C389.707 226.4 390.087 226.008 390.575 225.736C391.071 225.456 391.639 225.316 392.279 225.316C392.903 225.316 393.455 225.452 393.935 225.724C394.415 225.996 394.783 226.372 395.039 226.852C395.303 227.324 395.435 227.86 395.435 228.46ZM394.307 228.232C394.307 227.816 394.215 227.46 394.031 227.164C393.847 226.86 393.595 226.632 393.275 226.48C392.963 226.32 392.615 226.24 392.231 226.24C391.679 226.24 391.207 226.416 390.815 226.768C390.431 227.12 390.211 227.608 390.155 228.232H394.307ZM397.968 226.492C398.16 226.116 398.432 225.824 398.784 225.616C399.144 225.408 399.58 225.304 400.092 225.304V226.432H399.804C398.58 226.432 397.968 227.096 397.968 228.424V232H396.876V225.424H397.968V226.492ZM409.261 225.304C409.773 225.304 410.229 225.412 410.629 225.628C411.029 225.836 411.345 226.152 411.577 226.576C411.809 227 411.925 227.516 411.925 228.124V232H410.845V228.28C410.845 227.624 410.681 227.124 410.353 226.78C410.033 226.428 409.597 226.252 409.045 226.252C408.477 226.252 408.025 226.436 407.689 226.804C407.353 227.164 407.185 227.688 407.185 228.376V232H406.105V228.28C406.105 227.624 405.941 227.124 405.613 226.78C405.293 226.428 404.857 226.252 404.305 226.252C403.737 226.252 403.285 226.436 402.949 226.804C402.613 227.164 402.445 227.688 402.445 228.376V232H401.353V225.424H402.445V226.372C402.661 226.028 402.949 225.764 403.309 225.58C403.677 225.396 404.081 225.304 404.521 225.304C405.073 225.304 405.561 225.428 405.985 225.676C406.409 225.924 406.725 226.288 406.933 226.768C407.117 226.304 407.421 225.944 407.845 225.688C408.269 225.432 408.741 225.304 409.261 225.304ZM418.007 223.636V232H416.915V223.636H418.007ZM423.072 225.304C423.872 225.304 424.52 225.548 425.016 226.036C425.512 226.516 425.76 227.212 425.76 228.124V232H424.68V228.28C424.68 227.624 424.516 227.124 424.188 226.78C423.86 226.428 423.412 226.252 422.844 226.252C422.268 226.252 421.808 226.432 421.464 226.792C421.128 227.152 420.96 227.676 420.96 228.364V232H419.868V225.424H420.96V226.36C421.176 226.024 421.468 225.764 421.836 225.58C422.212 225.396 422.624 225.304 423.072 225.304ZM429.872 232.108C429.368 232.108 428.916 232.024 428.516 231.856C428.116 231.68 427.8 231.44 427.568 231.136C427.336 230.824 427.208 230.468 427.184 230.068H428.312C428.344 230.396 428.496 230.664 428.768 230.872C429.048 231.08 429.412 231.184 429.86 231.184C430.276 231.184 430.604 231.092 430.844 230.908C431.084 230.724 431.204 230.492 431.204 230.212C431.204 229.924 431.076 229.712 430.82 229.576C430.564 229.432 430.168 229.292 429.632 229.156C429.144 229.028 428.744 228.9 428.432 228.772C428.128 228.636 427.864 228.44 427.64 228.184C427.424 227.92 427.316 227.576 427.316 227.152C427.316 226.816 427.416 226.508 427.616 226.228C427.816 225.948 428.1 225.728 428.468 225.568C428.836 225.4 429.256 225.316 429.728 225.316C430.456 225.316 431.044 225.5 431.492 225.868C431.94 226.236 432.18 226.74 432.212 227.38H431.12C431.096 227.036 430.956 226.76 430.7 226.552C430.452 226.344 430.116 226.24 429.692 226.24C429.3 226.24 428.988 226.324 428.756 226.492C428.524 226.66 428.408 226.88 428.408 227.152C428.408 227.368 428.476 227.548 428.612 227.692C428.756 227.828 428.932 227.94 429.14 228.028C429.356 228.108 429.652 228.2 430.028 228.304C430.5 228.432 430.884 228.56 431.18 228.688C431.476 228.808 431.728 228.992 431.936 229.24C432.152 229.488 432.264 229.812 432.272 230.212C432.272 230.572 432.172 230.896 431.972 231.184C431.772 231.472 431.488 231.7 431.12 231.868C430.76 232.028 430.344 232.108 429.872 232.108ZM439.646 225.424V232H438.554V231.028C438.346 231.364 438.054 231.628 437.678 231.82C437.31 232.004 436.902 232.096 436.454 232.096C435.942 232.096 435.482 231.992 435.074 231.784C434.666 231.568 434.342 231.248 434.102 230.824C433.87 230.4 433.754 229.884 433.754 229.276V225.424H434.834V229.132C434.834 229.78 434.998 230.28 435.326 230.632C435.654 230.976 436.102 231.148 436.67 231.148C437.254 231.148 437.714 230.968 438.05 230.608C438.386 230.248 438.554 229.724 438.554 229.036V225.424H439.646ZM442.581 226.492C442.773 226.116 443.045 225.824 443.397 225.616C443.757 225.408 444.193 225.304 444.705 225.304V226.432H444.417C443.193 226.432 442.581 227.096 442.581 228.424V232H441.489V225.424H442.581V226.492ZM445.558 228.688C445.558 228.016 445.694 227.428 445.966 226.924C446.238 226.412 446.61 226.016 447.082 225.736C447.562 225.456 448.094 225.316 448.678 225.316C449.254 225.316 449.754 225.44 450.178 225.688C450.602 225.936 450.918 226.248 451.126 226.624V225.424H452.23V232H451.126V230.776C450.91 231.16 450.586 231.48 450.154 231.736C449.73 231.984 449.234 232.108 448.666 232.108C448.082 232.108 447.554 231.964 447.082 231.676C446.61 231.388 446.238 230.984 445.966 230.464C445.694 229.944 445.558 229.352 445.558 228.688ZM451.126 228.7C451.126 228.204 451.026 227.772 450.826 227.404C450.626 227.036 450.354 226.756 450.01 226.564C449.674 226.364 449.302 226.264 448.894 226.264C448.486 226.264 448.114 226.36 447.778 226.552C447.442 226.744 447.174 227.024 446.974 227.392C446.774 227.76 446.674 228.192 446.674 228.688C446.674 229.192 446.774 229.632 446.974 230.008C447.174 230.376 447.442 230.66 447.778 230.86C448.114 231.052 448.486 231.148 448.894 231.148C449.302 231.148 449.674 231.052 450.01 230.86C450.354 230.66 450.626 230.376 450.826 230.008C451.026 229.632 451.126 229.196 451.126 228.7ZM457.279 225.304C458.079 225.304 458.727 225.548 459.223 226.036C459.719 226.516 459.967 227.212 459.967 228.124V232H458.887V228.28C458.887 227.624 458.723 227.124 458.395 226.78C458.067 226.428 457.619 226.252 457.051 226.252C456.475 226.252 456.015 226.432 455.671 226.792C455.335 227.152 455.167 227.676 455.167 228.364V232H454.075V225.424H455.167V226.36C455.383 226.024 455.675 225.764 456.043 225.58C456.419 225.396 456.831 225.304 457.279 225.304ZM461.343 228.7C461.343 228.02 461.479 227.428 461.751 226.924C462.023 226.412 462.399 226.016 462.879 225.736C463.367 225.456 463.923 225.316 464.547 225.316C465.355 225.316 466.019 225.512 466.539 225.904C467.067 226.296 467.415 226.84 467.583 227.536H466.407C466.295 227.136 466.075 226.82 465.747 226.588C465.427 226.356 465.027 226.24 464.547 226.24C463.923 226.24 463.419 226.456 463.035 226.888C462.651 227.312 462.459 227.916 462.459 228.7C462.459 229.492 462.651 230.104 463.035 230.536C463.419 230.968 463.923 231.184 464.547 231.184C465.027 231.184 465.427 231.072 465.747 230.848C466.067 230.624 466.287 230.304 466.407 229.888H467.583C467.407 230.56 467.055 231.1 466.527 231.508C465.999 231.908 465.339 232.108 464.547 232.108C463.923 232.108 463.367 231.968 462.879 231.688C462.399 231.408 462.023 231.012 461.751 230.5C461.479 229.988 461.343 229.388 461.343 228.7ZM475.04 228.46C475.04 228.668 475.028 228.888 475.004 229.12H469.748C469.788 229.768 470.008 230.276 470.408 230.644C470.816 231.004 471.308 231.184 471.884 231.184C472.356 231.184 472.748 231.076 473.06 230.86C473.38 230.636 473.604 230.34 473.732 229.972H474.908C474.732 230.604 474.38 231.12 473.852 231.52C473.324 231.912 472.668 232.108 471.884 232.108C471.26 232.108 470.7 231.968 470.204 231.688C469.716 231.408 469.332 231.012 469.052 230.5C468.772 229.98 468.632 229.38 468.632 228.7C468.632 228.02 468.768 227.424 469.04 226.912C469.312 226.4 469.692 226.008 470.18 225.736C470.676 225.456 471.244 225.316 471.884 225.316C472.508 225.316 473.06 225.452 473.54 225.724C474.02 225.996 474.388 226.372 474.644 226.852C474.908 227.324 475.04 227.86 475.04 228.46ZM473.912 228.232C473.912 227.816 473.82 227.46 473.636 227.164C473.452 226.86 473.2 226.632 472.88 226.48C472.568 226.32 472.22 226.24 471.836 226.24C471.284 226.24 470.812 226.416 470.42 226.768C470.036 227.12 469.816 227.608 469.76 228.232H473.912Z" fill="white"/>
<path d="M364.009 261.009C366.776 261.009 369.019 258.767 369.019 256C369.019 253.233 366.776 250.991 364.009 250.991C361.243 250.991 359 253.233 359 256C359 258.767 361.243 261.009 364.009 261.009Z" fill="white"/>
<path d="M389.519 260H388.427L384.035 253.34V260H382.943V251.624H384.035L388.427 258.272V251.624H389.519V260ZM396.972 254.084C396.972 254.78 396.732 255.36 396.252 255.824C395.78 256.28 395.056 256.508 394.08 256.508H392.472V260H391.38V251.636H394.08C395.024 251.636 395.74 251.864 396.228 252.32C396.724 252.776 396.972 253.364 396.972 254.084ZM394.08 255.608C394.688 255.608 395.136 255.476 395.424 255.212C395.712 254.948 395.856 254.572 395.856 254.084C395.856 253.052 395.264 252.536 394.08 252.536H392.472V255.608H394.08ZM400.981 260.084C400.429 260.084 399.933 259.988 399.493 259.796C399.061 259.596 398.721 259.324 398.473 258.98C398.225 258.628 398.097 258.224 398.089 257.768H399.253C399.293 258.16 399.453 258.492 399.733 258.764C400.021 259.028 400.437 259.16 400.981 259.16C401.501 259.16 401.909 259.032 402.205 258.776C402.509 258.512 402.661 258.176 402.661 257.768C402.661 257.448 402.573 257.188 402.397 256.988C402.221 256.788 402.001 256.636 401.737 256.532C401.473 256.428 401.117 256.316 400.669 256.196C400.117 256.052 399.673 255.908 399.337 255.764C399.009 255.62 398.725 255.396 398.485 255.092C398.253 254.78 398.137 254.364 398.137 253.844C398.137 253.388 398.253 252.984 398.485 252.632C398.717 252.28 399.041 252.008 399.457 251.816C399.881 251.624 400.365 251.528 400.909 251.528C401.693 251.528 402.333 251.724 402.829 252.116C403.333 252.508 403.617 253.028 403.681 253.676H402.481C402.441 253.356 402.273 253.076 401.977 252.836C401.681 252.588 401.289 252.464 400.801 252.464C400.345 252.464 399.973 252.584 399.685 252.824C399.397 253.056 399.253 253.384 399.253 253.808C399.253 254.112 399.337 254.36 399.505 254.552C399.681 254.744 399.893 254.892 400.141 254.996C400.397 255.092 400.753 255.204 401.209 255.332C401.761 255.484 402.205 255.636 402.541 255.788C402.877 255.932 403.165 256.16 403.405 256.472C403.645 256.776 403.765 257.192 403.765 257.72C403.765 258.128 403.657 258.512 403.441 258.872C403.225 259.232 402.905 259.524 402.481 259.748C402.057 259.972 401.557 260.084 400.981 260.084Z" fill="white"/>
</svg>
