<svg width="334" height="150" viewBox="0 0 334 150" fill="none" xmlns="http://www.w3.org/2000/svg">
<path fill-rule="evenodd" clip-rule="evenodd" d="M0 13.7143C0 6.14009 6.1401 0 13.7143 0H320.286C327.86 0 334 6.14009 334 13.7143V136.283C334 143.858 327.86 149.998 320.286 149.998L13.7144 150C6.14016 150 0 143.86 0 136.286V13.7143Z" fill="#006F90"/>
<mask id="mask0_211_43282" style="mask-type:alpha" maskUnits="userSpaceOnUse" x="0" y="0" width="334" height="150">
<path fill-rule="evenodd" clip-rule="evenodd" d="M0 11.939C0 5.34526 5.34526 0 11.939 0H322.061C328.655 0 334 5.34526 334 11.939V138.059C334 144.652 328.655 149.998 322.061 149.998L11.9391 150C5.34531 150 0 144.655 0 138.061V11.939Z" fill="white"/>
</mask>
<g mask="url(#mask0_211_43282)">
<path d="M300.489 261.952C276.508 345.666 169.3 385.91 61.0334 351.841C-47.2329 317.771 -115.559 222.29 -91.5782 138.576C-67.5969 54.863 39.6109 14.6186 147.877 48.688C256.144 82.7573 324.47 178.239 300.489 261.952Z" fill="#006580"/>
</g>
</svg>
