<svg width="320" height="281" viewBox="0 0 320 281" fill="none" xmlns="http://www.w3.org/2000/svg">
<path opacity="0.2" d="M160 278.865C71.6339 278.865 -0.000488281 273.431 -0.000488281 266.727C-0.000488281 260.023 71.6339 254.589 160 254.589C248.365 254.589 320 260.023 320 266.727C320 273.431 248.365 278.865 160 278.865Z" fill="black"/>
<path d="M253.647 0.00488281H110.451V268.233H253.647V0.00488281Z" fill="#263238"/>
<path d="M250.422 76.1895H113.682V150.787H250.422V76.1895Z" fill="#263238"/>
<path opacity="0.15" d="M250.422 76.1895H113.682V150.787H250.422V76.1895Z" fill="white"/>
<path d="M250.422 157.134H113.682V187.821H250.422V157.134Z" fill="#263238"/>
<path opacity="0.15" d="M250.422 157.134H113.682V187.821H250.422V157.134Z" fill="white"/>
<path d="M250.422 194.167H113.682V224.854H250.422V194.167Z" fill="#263238"/>
<path opacity="0.15" d="M250.422 194.167H113.682V224.854H250.422V194.167Z" fill="white"/>
<path d="M250.422 231.2H113.682V261.888H250.422V231.2Z" fill="#263238"/>
<path opacity="0.15" d="M250.422 231.2H113.682V261.888H250.422V231.2Z" fill="white"/>
<path d="M253.647 0.00488281H110.451V71.9543H253.647V0.00488281Z" fill="#6DC4E5"/>
<path d="M172.589 113.383L169.772 113.085C169.852 112.32 169.892 111.551 169.89 110.781C169.883 104.918 167.551 99.2968 163.405 95.1509C159.26 91.005 153.639 88.6728 147.776 88.666C146.869 88.6657 145.962 88.7223 145.061 88.8354L144.712 86.0229C145.734 85.8974 146.762 85.834 147.792 85.833C154.406 85.8398 160.747 88.4704 165.424 93.1476C170.101 97.8248 172.731 104.167 172.738 110.781C172.732 111.65 172.683 112.519 172.589 113.383Z" fill="white"/>
<path d="M166.175 128.178L164.075 126.236C167.36 122.701 169.402 118.187 169.889 113.383L172.737 113.674C172.19 119.096 169.885 124.19 166.175 128.178Z" fill="#919191"/>
<path d="M147.769 135.83C144.324 135.826 140.917 135.129 137.76 133.783C134.604 132.438 131.767 130.472 129.425 128.009L131.511 126.137C133.585 128.322 136.1 130.065 138.898 131.258C141.696 132.45 144.718 133.066 147.772 133.066C150.826 133.066 153.847 132.45 156.645 131.258C159.444 130.065 161.959 128.322 164.032 126.137L166.113 128.009C163.772 130.473 160.935 132.439 157.779 133.785C154.622 135.13 151.215 135.827 147.769 135.83Z" fill="#263238"/>
<path d="M129.326 128.179C126.257 124.796 124.165 120.617 123.278 116.102C122.391 111.587 122.745 106.911 124.299 102.587C125.854 98.2629 128.55 94.4591 132.09 91.5934C135.631 88.7278 139.879 86.9113 144.368 86.3438L144.712 89.1661C140.732 89.6684 136.966 91.278 133.828 93.818C130.689 96.3579 128.299 99.7297 126.921 103.563C125.543 107.396 125.23 111.541 126.017 115.543C126.804 119.546 128.659 123.25 131.38 126.248L129.326 128.179Z" fill="#6DC4E5"/>
<path d="M127.82 178.413C130.953 178.413 133.492 175.87 133.492 172.733C133.492 169.596 130.953 167.054 127.82 167.054C124.687 167.054 122.147 169.596 122.147 172.733C122.147 175.87 124.687 178.413 127.82 178.413Z" fill="#6DC4E5"/>
<path d="M128.718 216.398C131.81 215.894 133.909 212.976 133.406 209.88C132.903 206.784 129.988 204.683 126.896 205.187C123.804 205.69 121.705 208.608 122.208 211.704C122.711 214.8 125.626 216.902 128.718 216.398Z" fill="#263238"/>
<path d="M127.82 254.504C130.953 254.504 133.492 251.962 133.492 248.825C133.492 245.688 130.953 243.146 127.82 243.146C124.687 243.146 122.147 245.688 122.147 248.825C122.147 251.962 124.687 254.504 127.82 254.504Z" fill="#919191"/>
<path d="M188.268 88.8986C188.269 88.3928 188.12 87.8981 187.84 87.477C187.56 87.0559 187.161 86.7274 186.694 86.533C186.227 86.3386 185.713 86.2871 185.217 86.385C184.721 86.4829 184.265 86.7259 183.907 87.0831C183.549 87.4402 183.305 87.8956 183.206 88.3915C183.107 88.8875 183.157 89.4017 183.35 89.869C183.543 90.3364 183.871 90.7359 184.291 91.017C184.712 91.2981 185.206 91.4481 185.712 91.4481C186.389 91.4481 187.038 91.1797 187.517 90.7018C187.996 90.2238 188.266 89.5753 188.268 88.8986Z" fill="#6DC4E5"/>
<path d="M197.894 90.3518H196.033L195.69 91.3008H195.102L196.645 87.0581H197.288L198.825 91.3008H198.237L197.894 90.3518ZM197.735 89.8988L196.964 87.7438L196.192 89.8988H197.735ZM201.132 87.8846C201.54 87.8846 201.871 88.0091 202.124 88.258C202.377 88.5029 202.503 88.858 202.503 89.3233V91.3008H201.952V89.4029C201.952 89.0682 201.868 88.8131 201.701 88.6376C201.534 88.458 201.305 88.3682 201.015 88.3682C200.722 88.3682 200.487 88.4601 200.311 88.6437C200.14 88.8274 200.054 89.0947 200.054 89.4457V91.3008H199.497V87.9458H200.054V88.4233C200.164 88.2519 200.313 88.1193 200.501 88.0254C200.693 87.9315 200.903 87.8846 201.132 87.8846ZM205.048 87.8846C205.456 87.8846 205.787 88.0091 206.04 88.258C206.293 88.5029 206.419 88.858 206.419 89.3233V91.3008H205.868V89.4029C205.868 89.0682 205.785 88.8131 205.617 88.6376C205.45 88.458 205.221 88.3682 204.932 88.3682C204.638 88.3682 204.403 88.4601 204.227 88.6437C204.056 88.8274 203.97 89.0947 203.97 89.4457V91.3008H203.413V87.9458H203.97V88.4233C204.081 88.2519 204.23 88.1193 204.417 88.0254C204.609 87.9315 204.819 87.8846 205.048 87.8846ZM210.305 87.9458V91.3008H209.748V90.8049C209.641 90.9763 209.493 91.111 209.301 91.2089C209.113 91.3028 208.905 91.3498 208.676 91.3498C208.415 91.3498 208.18 91.2967 207.972 91.1906C207.764 91.0804 207.599 90.9171 207.476 90.7008C207.358 90.4845 207.299 90.2212 207.299 89.911V87.9458H207.85V89.8376C207.85 90.1682 207.933 90.4233 208.101 90.6028C208.268 90.7783 208.497 90.8661 208.786 90.8661C209.084 90.8661 209.319 90.7743 209.49 90.5906C209.662 90.4069 209.748 90.1396 209.748 89.7886V87.9458H210.305ZM211.533 87.4009C211.427 87.4009 211.337 87.3642 211.264 87.2907C211.19 87.2172 211.154 87.1274 211.154 87.0213C211.154 86.9152 211.19 86.8254 211.264 86.752C211.337 86.6785 211.427 86.6417 211.533 86.6417C211.635 86.6417 211.721 86.6785 211.79 86.752C211.864 86.8254 211.9 86.9152 211.9 87.0213C211.9 87.1274 211.864 87.2172 211.79 87.2907C211.721 87.3642 211.635 87.4009 211.533 87.4009ZM211.803 87.9458V91.3008H211.245V87.9458H211.803ZM213.432 88.405V90.3824C213.432 90.5457 213.466 90.662 213.536 90.7314C213.605 90.7967 213.725 90.8294 213.897 90.8294H214.307V91.3008H213.805C213.495 91.3008 213.262 91.2294 213.107 91.0865C212.952 90.9437 212.874 90.709 212.874 90.3824V88.405H212.44V87.9458H212.874V87.1009H213.432V87.9458H214.307V88.405H213.432ZM217.872 87.9458L215.851 92.8803H215.276L215.937 91.264L214.584 87.9458H215.203L216.256 90.6641L217.296 87.9458H217.872Z" fill="white"/>
<path d="M141.775 173.691H140.224L139.938 174.481H139.449L140.734 170.946H141.27L142.551 174.481H142.061L141.775 173.691ZM141.642 173.313L141 171.517L140.357 173.313H141.642ZM144.473 171.635C144.813 171.635 145.089 171.738 145.3 171.946C145.51 172.15 145.616 172.446 145.616 172.834V174.481H145.157V172.9C145.157 172.621 145.087 172.408 144.948 172.262C144.808 172.112 144.618 172.038 144.376 172.038C144.131 172.038 143.936 172.114 143.789 172.267C143.647 172.42 143.575 172.643 143.575 172.936V174.481H143.111V171.686H143.575V172.084C143.667 171.941 143.791 171.83 143.948 171.752C144.107 171.674 144.283 171.635 144.473 171.635ZM147.737 171.635C148.077 171.635 148.352 171.738 148.563 171.946C148.774 172.15 148.879 172.446 148.879 172.834V174.481H148.42V172.9C148.42 172.621 148.35 172.408 148.211 172.262C148.072 172.112 147.881 172.038 147.64 172.038C147.395 172.038 147.199 172.114 147.053 172.267C146.91 172.42 146.839 172.643 146.839 172.936V174.481H146.374V171.686H146.839V172.084C146.93 171.941 147.055 171.83 147.211 171.752C147.371 171.674 147.546 171.635 147.737 171.635ZM152.117 171.686V174.481H151.653V174.068C151.565 174.211 151.44 174.323 151.281 174.405C151.124 174.483 150.951 174.522 150.76 174.522C150.542 174.522 150.347 174.478 150.173 174.39C150 174.298 149.862 174.162 149.76 173.981C149.662 173.801 149.612 173.582 149.612 173.323V171.686H150.071V173.262C150.071 173.538 150.141 173.75 150.281 173.9C150.42 174.046 150.61 174.119 150.852 174.119C151.1 174.119 151.296 174.043 151.439 173.89C151.582 173.737 151.653 173.514 151.653 173.221V171.686H152.117ZM153.141 171.232C153.052 171.232 152.978 171.201 152.916 171.14C152.855 171.078 152.825 171.004 152.825 170.915C152.825 170.827 152.855 170.752 152.916 170.691C152.978 170.63 153.052 170.599 153.141 170.599C153.226 170.599 153.297 170.63 153.355 170.691C153.416 170.752 153.447 170.827 153.447 170.915C153.447 171.004 153.416 171.078 153.355 171.14C153.297 171.201 153.226 171.232 153.141 171.232ZM153.365 171.686V174.481H152.901V171.686H153.365ZM154.723 172.068V173.716C154.723 173.852 154.752 173.949 154.81 174.007C154.868 174.061 154.968 174.089 155.111 174.089H155.453V174.481H155.034C154.776 174.481 154.582 174.422 154.453 174.303C154.323 174.184 154.259 173.988 154.259 173.716V172.068H153.896V171.686H154.259V170.982H154.723V171.686H155.453V172.068H154.723ZM158.423 171.686L156.74 175.798H156.26L156.811 174.451L155.683 171.686H156.199L157.076 173.951L157.944 171.686H158.423Z" fill="white"/>
<path d="M143.28 209.217V212.747H142.816V210.115L141.642 212.747H141.316L140.137 210.109V212.747H139.673V209.217H140.173L141.479 212.135L142.785 209.217H143.28ZM146.547 209.951V212.747H146.083V212.334C145.994 212.477 145.87 212.589 145.71 212.671C145.554 212.749 145.38 212.788 145.19 212.788C144.972 212.788 144.777 212.744 144.603 212.655C144.43 212.563 144.292 212.427 144.19 212.247C144.091 212.067 144.042 211.847 144.042 211.589V209.951H144.501V211.528C144.501 211.803 144.571 212.016 144.71 212.165C144.85 212.312 145.04 212.385 145.282 212.385C145.53 212.385 145.726 212.308 145.868 212.155C146.011 212.002 146.083 211.779 146.083 211.487V209.951H146.547ZM147.897 210.334V211.982C147.897 212.118 147.926 212.215 147.984 212.273C148.042 212.327 148.142 212.354 148.285 212.354H148.627V212.747H148.208C147.95 212.747 147.756 212.688 147.627 212.569C147.498 212.449 147.433 212.254 147.433 211.982V210.334H147.071V209.951H147.433V209.247H147.897V209.951H148.627V210.334H147.897ZM151.669 209.951V212.747H151.205V212.334C151.116 212.477 150.992 212.589 150.832 212.671C150.676 212.749 150.502 212.788 150.312 212.788C150.094 212.788 149.898 212.744 149.725 212.655C149.552 212.563 149.414 212.427 149.312 212.247C149.213 212.067 149.164 211.847 149.164 211.589V209.951H149.623V211.528C149.623 211.803 149.693 212.016 149.832 212.165C149.972 212.312 150.162 212.385 150.404 212.385C150.652 212.385 150.847 212.308 150.99 212.155C151.133 212.002 151.205 211.779 151.205 211.487V209.951H151.669ZM152.279 211.339C152.279 211.053 152.337 210.803 152.453 210.589C152.568 210.371 152.727 210.203 152.927 210.084C153.131 209.965 153.357 209.905 153.606 209.905C153.851 209.905 154.063 209.958 154.243 210.063C154.424 210.169 154.558 210.302 154.647 210.461V209.951H155.116V212.747H154.647V212.227C154.555 212.39 154.417 212.526 154.233 212.635C154.053 212.74 153.842 212.793 153.601 212.793C153.352 212.793 153.128 212.732 152.927 212.609C152.727 212.487 152.568 212.315 152.453 212.094C152.337 211.873 152.279 211.621 152.279 211.339ZM154.647 211.344C154.647 211.133 154.604 210.95 154.519 210.793C154.434 210.637 154.318 210.518 154.172 210.436C154.029 210.351 153.871 210.308 153.698 210.308C153.524 210.308 153.366 210.349 153.223 210.431C153.08 210.512 152.966 210.631 152.881 210.788C152.796 210.944 152.754 211.128 152.754 211.339C152.754 211.553 152.796 211.74 152.881 211.9C152.966 212.057 153.08 212.177 153.223 212.262C153.366 212.344 153.524 212.385 153.698 212.385C153.871 212.385 154.029 212.344 154.172 212.262C154.318 212.177 154.434 212.057 154.519 211.9C154.604 211.74 154.647 211.555 154.647 211.344ZM156.365 208.972V212.747H155.9V208.972H156.365ZM160.526 209.191V209.569H158.98V210.768H160.236V211.145H158.98V212.747H158.516V209.191H160.526ZM163.567 209.951V212.747H163.102V212.334C163.014 212.477 162.89 212.589 162.73 212.671C162.573 212.749 162.4 212.788 162.209 212.788C161.992 212.788 161.796 212.744 161.623 212.655C161.449 212.563 161.312 212.427 161.209 212.247C161.111 212.067 161.062 211.847 161.062 211.589V209.951H161.521V211.528C161.521 211.803 161.59 212.016 161.73 212.165C161.869 212.312 162.06 212.385 162.301 212.385C162.55 212.385 162.745 212.308 162.888 212.155C163.031 212.002 163.102 211.779 163.102 211.487V209.951H163.567ZM165.713 209.9C166.053 209.9 166.328 210.004 166.539 210.211C166.75 210.416 166.855 210.711 166.855 211.099V212.747H166.396V211.165C166.396 210.887 166.327 210.674 166.187 210.528C166.048 210.378 165.857 210.303 165.616 210.303C165.371 210.303 165.175 210.38 165.029 210.533C164.886 210.686 164.815 210.909 164.815 211.201V212.747H164.35V209.951H164.815V210.349C164.907 210.206 165.031 210.096 165.187 210.018C165.347 209.939 165.522 209.9 165.713 209.9ZM167.44 211.339C167.44 211.053 167.498 210.803 167.614 210.589C167.729 210.371 167.888 210.203 168.088 210.084C168.292 209.965 168.52 209.905 168.772 209.905C168.99 209.905 169.192 209.956 169.379 210.058C169.566 210.157 169.709 210.288 169.808 210.451V208.972H170.277V212.747H169.808V212.222C169.716 212.388 169.58 212.526 169.4 212.635C169.219 212.74 169.008 212.793 168.767 212.793C168.519 212.793 168.292 212.732 168.088 212.609C167.888 212.487 167.729 212.315 167.614 212.094C167.498 211.873 167.44 211.621 167.44 211.339ZM169.808 211.344C169.808 211.133 169.765 210.95 169.68 210.793C169.595 210.637 169.479 210.518 169.333 210.436C169.19 210.351 169.032 210.308 168.859 210.308C168.685 210.308 168.527 210.349 168.384 210.431C168.241 210.512 168.127 210.631 168.042 210.788C167.957 210.944 167.915 211.128 167.915 211.339C167.915 211.553 167.957 211.74 168.042 211.9C168.127 212.057 168.241 212.177 168.384 212.262C168.527 212.344 168.685 212.385 168.859 212.385C169.032 212.385 169.19 212.344 169.333 212.262C169.479 212.177 169.595 212.057 169.68 211.9C169.765 211.74 169.808 211.555 169.808 211.344Z" fill="white"/>
<path d="M141.862 246.944V247.322H140.892V250.5H140.428V247.322H139.454V246.944H141.862ZM144.984 248.995C144.984 249.083 144.979 249.177 144.969 249.276H142.734C142.751 249.551 142.845 249.767 143.015 249.923C143.188 250.077 143.398 250.153 143.642 250.153C143.843 250.153 144.01 250.107 144.142 250.015C144.278 249.92 144.374 249.794 144.428 249.638H144.928C144.853 249.906 144.704 250.126 144.479 250.296C144.255 250.463 143.976 250.546 143.642 250.546C143.377 250.546 143.139 250.486 142.928 250.367C142.721 250.248 142.557 250.08 142.438 249.862C142.319 249.641 142.26 249.386 142.26 249.097C142.26 248.808 142.318 248.554 142.433 248.337C142.549 248.119 142.711 247.952 142.918 247.837C143.129 247.718 143.37 247.658 143.642 247.658C143.908 247.658 144.142 247.716 144.347 247.832C144.551 247.947 144.707 248.107 144.816 248.311C144.928 248.512 144.984 248.74 144.984 248.995ZM144.505 248.898C144.505 248.721 144.466 248.57 144.387 248.444C144.309 248.315 144.202 248.218 144.066 248.153C143.933 248.085 143.785 248.051 143.622 248.051C143.387 248.051 143.187 248.126 143.02 248.276C142.857 248.425 142.763 248.633 142.739 248.898H144.505ZM146.061 248.158C146.143 247.998 146.259 247.874 146.408 247.786C146.561 247.697 146.747 247.653 146.964 247.653V248.133H146.842C146.322 248.133 146.061 248.415 146.061 248.98V250.5H145.597V247.704H146.061V248.158ZM150.862 247.653C151.08 247.653 151.274 247.699 151.444 247.791C151.614 247.879 151.748 248.014 151.847 248.194C151.946 248.374 151.995 248.594 151.995 248.852V250.5H151.536V248.918C151.536 248.64 151.466 248.427 151.327 248.281C151.191 248.131 151.005 248.056 150.771 248.056C150.529 248.056 150.337 248.134 150.194 248.291C150.051 248.444 149.98 248.667 149.98 248.959V250.5H149.521V248.918C149.521 248.64 149.451 248.427 149.311 248.281C149.175 248.131 148.99 248.056 148.755 248.056C148.514 248.056 148.322 248.134 148.179 248.291C148.036 248.444 147.965 248.667 147.965 248.959V250.5H147.5V247.704H147.965V248.107C148.056 247.961 148.179 247.849 148.332 247.77C148.488 247.692 148.66 247.653 148.847 247.653C149.082 247.653 149.289 247.706 149.47 247.811C149.65 247.917 149.784 248.072 149.873 248.276C149.951 248.078 150.08 247.925 150.26 247.816C150.441 247.708 150.641 247.653 150.862 247.653ZM154.581 246.944V250.5H154.117V246.944H154.581ZM156.735 247.653C157.075 247.653 157.35 247.757 157.561 247.964C157.772 248.168 157.877 248.464 157.877 248.852V250.5H157.418V248.918C157.418 248.64 157.348 248.427 157.209 248.281C157.07 248.131 156.879 248.056 156.638 248.056C156.393 248.056 156.197 248.133 156.051 248.286C155.908 248.439 155.837 248.662 155.837 248.954V250.5H155.372V247.704H155.837V248.102C155.928 247.959 156.053 247.849 156.209 247.77C156.369 247.692 156.544 247.653 156.735 247.653ZM159.626 250.546C159.411 250.546 159.219 250.51 159.049 250.439C158.879 250.364 158.745 250.262 158.646 250.133C158.547 250 158.493 249.849 158.483 249.679H158.962C158.976 249.818 159.04 249.932 159.156 250.02C159.275 250.109 159.43 250.153 159.62 250.153C159.797 250.153 159.937 250.114 160.039 250.036C160.141 249.958 160.192 249.859 160.192 249.74C160.192 249.617 160.137 249.527 160.029 249.469C159.92 249.408 159.751 249.349 159.523 249.291C159.316 249.236 159.146 249.182 159.013 249.128C158.884 249.07 158.772 248.986 158.677 248.878C158.585 248.765 158.539 248.619 158.539 248.439C158.539 248.296 158.581 248.165 158.666 248.046C158.751 247.927 158.872 247.833 159.029 247.765C159.185 247.694 159.364 247.658 159.564 247.658C159.874 247.658 160.124 247.736 160.314 247.893C160.505 248.049 160.607 248.264 160.62 248.536H160.156C160.146 248.39 160.086 248.272 159.978 248.184C159.872 248.095 159.729 248.051 159.549 248.051C159.382 248.051 159.25 248.087 159.151 248.158C159.052 248.23 159.003 248.323 159.003 248.439C159.003 248.531 159.032 248.607 159.09 248.668C159.151 248.726 159.226 248.774 159.314 248.811C159.406 248.845 159.532 248.884 159.692 248.929C159.893 248.983 160.056 249.037 160.182 249.092C160.307 249.143 160.415 249.221 160.503 249.327C160.595 249.432 160.642 249.57 160.646 249.74C160.646 249.893 160.603 250.031 160.518 250.153C160.433 250.276 160.313 250.372 160.156 250.444C160.003 250.512 159.826 250.546 159.626 250.546ZM163.781 247.704V250.5H163.317V250.087C163.228 250.23 163.104 250.342 162.944 250.423C162.788 250.502 162.614 250.541 162.424 250.541C162.206 250.541 162.01 250.497 161.837 250.408C161.664 250.316 161.526 250.18 161.424 250C161.325 249.82 161.276 249.6 161.276 249.342V247.704H161.735V249.281C161.735 249.556 161.805 249.769 161.944 249.918C162.084 250.065 162.274 250.138 162.516 250.138C162.764 250.138 162.959 250.061 163.102 249.908C163.245 249.755 163.317 249.532 163.317 249.24V247.704H163.781ZM165.029 248.158C165.111 247.998 165.226 247.874 165.376 247.786C165.529 247.697 165.714 247.653 165.932 247.653V248.133H165.81C165.289 248.133 165.029 248.415 165.029 248.98V250.5H164.565V247.704H165.029V248.158ZM166.294 249.092C166.294 248.806 166.352 248.556 166.468 248.342C166.584 248.124 166.742 247.956 166.942 247.837C167.146 247.718 167.373 247.658 167.621 247.658C167.866 247.658 168.078 247.711 168.259 247.816C168.439 247.922 168.573 248.055 168.662 248.214V247.704H169.131V250.5H168.662V249.98C168.57 250.143 168.432 250.279 168.248 250.388C168.068 250.493 167.857 250.546 167.616 250.546C167.368 250.546 167.143 250.485 166.942 250.362C166.742 250.24 166.584 250.068 166.468 249.847C166.352 249.626 166.294 249.374 166.294 249.092ZM168.662 249.097C168.662 248.886 168.619 248.702 168.534 248.546C168.449 248.39 168.334 248.27 168.187 248.189C168.044 248.104 167.886 248.061 167.713 248.061C167.539 248.061 167.381 248.102 167.238 248.184C167.095 248.265 166.982 248.384 166.896 248.541C166.811 248.697 166.769 248.881 166.769 249.092C166.769 249.306 166.811 249.493 166.896 249.653C166.982 249.81 167.095 249.93 167.238 250.015C167.381 250.097 167.539 250.138 167.713 250.138C167.886 250.138 168.044 250.097 168.187 250.015C168.334 249.93 168.449 249.81 168.534 249.653C168.619 249.493 168.662 249.308 168.662 249.097ZM171.278 247.653C171.618 247.653 171.893 247.757 172.104 247.964C172.315 248.168 172.421 248.464 172.421 248.852V250.5H171.962V248.918C171.962 248.64 171.892 248.427 171.752 248.281C171.613 248.131 171.422 248.056 171.181 248.056C170.936 248.056 170.74 248.133 170.594 248.286C170.451 248.439 170.38 248.662 170.38 248.954V250.5H169.916V247.704H170.38V248.102C170.472 247.959 170.596 247.849 170.752 247.77C170.912 247.692 171.087 247.653 171.278 247.653ZM173.006 249.097C173.006 248.808 173.063 248.556 173.179 248.342C173.295 248.124 173.455 247.956 173.659 247.837C173.866 247.718 174.103 247.658 174.368 247.658C174.711 247.658 174.994 247.742 175.215 247.908C175.439 248.075 175.587 248.306 175.659 248.602H175.159C175.111 248.432 175.017 248.298 174.878 248.199C174.742 248.1 174.572 248.051 174.368 248.051C174.103 248.051 173.888 248.143 173.725 248.327C173.562 248.507 173.48 248.764 173.48 249.097C173.48 249.434 173.562 249.694 173.725 249.878C173.888 250.061 174.103 250.153 174.368 250.153C174.572 250.153 174.742 250.105 174.878 250.01C175.014 249.915 175.108 249.779 175.159 249.602H175.659C175.584 249.888 175.434 250.117 175.21 250.291C174.985 250.461 174.705 250.546 174.368 250.546C174.103 250.546 173.866 250.486 173.659 250.367C173.455 250.248 173.295 250.08 173.179 249.862C173.063 249.645 173.006 249.389 173.006 249.097ZM178.829 248.995C178.829 249.083 178.824 249.177 178.814 249.276H176.579C176.596 249.551 176.69 249.767 176.86 249.923C177.033 250.077 177.242 250.153 177.487 250.153C177.688 250.153 177.855 250.107 177.987 250.015C178.123 249.92 178.218 249.794 178.273 249.638H178.773C178.698 249.906 178.548 250.126 178.324 250.296C178.099 250.463 177.821 250.546 177.487 250.546C177.222 250.546 176.984 250.486 176.773 250.367C176.565 250.248 176.402 250.08 176.283 249.862C176.164 249.641 176.105 249.386 176.105 249.097C176.105 248.808 176.162 248.554 176.278 248.337C176.394 248.119 176.555 247.952 176.763 247.837C176.974 247.718 177.215 247.658 177.487 247.658C177.753 247.658 177.987 247.716 178.191 247.832C178.395 247.947 178.552 248.107 178.661 248.311C178.773 248.512 178.829 248.74 178.829 248.995ZM178.349 248.898C178.349 248.721 178.31 248.57 178.232 248.444C178.154 248.315 178.047 248.218 177.911 248.153C177.778 248.085 177.63 248.051 177.467 248.051C177.232 248.051 177.031 248.126 176.865 248.276C176.702 248.425 176.608 248.633 176.584 248.898H178.349Z" fill="white"/>
<path d="M197.559 169.811H196.636C196.58 169.498 196.46 169.217 196.274 168.979L197.337 168.989L197.559 168.232H193.332L193.111 168.963H194.011L194.513 168.966C195.217 169.005 195.628 169.308 195.768 169.811H193.332L193.111 170.567H195.791C195.661 171.154 195.155 171.441 194.363 171.441H193.176L193.189 171.989L195.576 174.911H196.593V174.859L194.389 172.159H194.408C195.866 172.159 196.525 171.458 196.649 170.567H197.337L197.559 169.811ZM201.901 173.13C201.962 173.479 202.103 173.748 202.324 173.938C202.55 174.127 202.853 174.222 203.233 174.222C203.741 174.222 204.114 174.023 204.353 173.625C204.598 173.228 204.714 172.557 204.702 171.614C204.573 171.89 204.359 172.107 204.059 172.266C203.759 172.419 203.426 172.496 203.058 172.496C202.648 172.496 202.281 172.413 201.956 172.248C201.638 172.077 201.387 171.829 201.203 171.504C201.02 171.18 200.928 170.788 200.928 170.329C200.928 169.674 201.117 169.147 201.497 168.749C201.877 168.345 202.415 168.143 203.113 168.143C203.97 168.143 204.57 168.422 204.913 168.979C205.262 169.536 205.437 170.365 205.437 171.467C205.437 172.239 205.366 172.875 205.225 173.378C205.091 173.88 204.858 174.262 204.528 174.525C204.203 174.789 203.756 174.92 203.187 174.92C202.562 174.92 202.076 174.752 201.727 174.415C201.378 174.079 201.179 173.65 201.13 173.13H201.901ZM203.196 171.789C203.606 171.789 203.943 171.663 204.206 171.412C204.469 171.155 204.601 170.809 204.601 170.375C204.601 169.915 204.472 169.545 204.215 169.263C203.958 168.982 203.597 168.841 203.132 168.841C202.703 168.841 202.36 168.976 202.103 169.245C201.852 169.514 201.727 169.869 201.727 170.31C201.727 170.757 201.852 171.115 202.103 171.385C202.354 171.654 202.718 171.789 203.196 171.789ZM207.612 173.754L206.584 176.224H206.023L206.694 173.754H207.612ZM212.518 168.924L209.965 174.911H209.12L211.71 169.006H208.165V168.29H212.518V168.924ZM217.678 168.997H214.455V171.091C214.596 170.895 214.804 170.736 215.079 170.613C215.355 170.485 215.652 170.42 215.97 170.42C216.478 170.42 216.892 170.528 217.21 170.742C217.528 170.95 217.755 171.222 217.89 171.559C218.03 171.89 218.101 172.242 218.101 172.615C218.101 173.056 218.018 173.451 217.853 173.8C217.688 174.149 217.433 174.424 217.091 174.626C216.754 174.828 216.335 174.929 215.833 174.929C215.19 174.929 214.669 174.764 214.271 174.434C213.873 174.103 213.632 173.662 213.546 173.111H214.363C214.443 173.46 214.611 173.733 214.868 173.929C215.125 174.124 215.45 174.222 215.842 174.222C216.325 174.222 216.69 174.079 216.935 173.791C217.179 173.497 217.302 173.111 217.302 172.634C217.302 172.156 217.179 171.789 216.935 171.532C216.69 171.268 216.328 171.137 215.851 171.137C215.526 171.137 215.242 171.216 214.997 171.376C214.758 171.529 214.584 171.74 214.473 172.009H213.684V168.262H217.678V168.997ZM220.212 173.754L219.184 176.224H218.624L219.294 173.754H220.212ZM221.032 171.522C221.032 170.469 221.203 169.649 221.546 169.061C221.889 168.467 222.489 168.171 223.346 168.171C224.197 168.171 224.794 168.467 225.137 169.061C225.48 169.649 225.651 170.469 225.651 171.522C225.651 172.594 225.48 173.426 225.137 174.02C224.794 174.614 224.197 174.911 223.346 174.911C222.489 174.911 221.889 174.614 221.546 174.02C221.203 173.426 221.032 172.594 221.032 171.522ZM224.825 171.522C224.825 170.99 224.788 170.54 224.714 170.173C224.647 169.799 224.503 169.499 224.283 169.273C224.069 169.046 223.756 168.933 223.346 168.933C222.93 168.933 222.611 169.046 222.391 169.273C222.177 169.499 222.033 169.799 221.959 170.173C221.892 170.54 221.858 170.99 221.858 171.522C221.858 172.073 221.892 172.536 221.959 172.909C222.033 173.283 222.177 173.583 222.391 173.809C222.611 174.036 222.93 174.149 223.346 174.149C223.756 174.149 224.069 174.036 224.283 173.809C224.503 173.583 224.647 173.283 224.714 172.909C224.788 172.536 224.825 172.073 224.825 171.522ZM226.798 171.522C226.798 170.469 226.97 169.649 227.313 169.061C227.655 168.467 228.255 168.171 229.113 168.171C229.964 168.171 230.561 168.467 230.903 169.061C231.246 169.649 231.418 170.469 231.418 171.522C231.418 172.594 231.246 173.426 230.903 174.02C230.561 174.614 229.964 174.911 229.113 174.911C228.255 174.911 227.655 174.614 227.313 174.02C226.97 173.426 226.798 172.594 226.798 171.522ZM230.591 171.522C230.591 170.99 230.554 170.54 230.481 170.173C230.414 169.799 230.27 169.499 230.049 169.273C229.835 169.046 229.523 168.933 229.113 168.933C228.696 168.933 228.378 169.046 228.158 169.273C227.943 169.499 227.799 169.799 227.726 170.173C227.659 170.54 227.625 170.99 227.625 171.522C227.625 172.073 227.659 172.536 227.726 172.909C227.799 173.283 227.943 173.583 228.158 173.809C228.378 174.036 228.696 174.149 229.113 174.149C229.523 174.149 229.835 174.036 230.049 173.809C230.27 173.583 230.414 173.283 230.481 172.909C230.554 172.536 230.591 172.073 230.591 171.522ZM232.565 171.522C232.565 170.469 232.736 169.649 233.079 169.061C233.422 168.467 234.022 168.171 234.879 168.171C235.73 168.171 236.327 168.467 236.67 169.061C237.013 169.649 237.184 170.469 237.184 171.522C237.184 172.594 237.013 173.426 236.67 174.02C236.327 174.614 235.73 174.911 234.879 174.911C234.022 174.911 233.422 174.614 233.079 174.02C232.736 173.426 232.565 172.594 232.565 171.522ZM236.358 171.522C236.358 170.99 236.321 170.54 236.247 170.173C236.18 169.799 236.036 169.499 235.816 169.273C235.602 169.046 235.289 168.933 234.879 168.933C234.463 168.933 234.144 169.046 233.924 169.273C233.71 169.499 233.566 169.799 233.492 170.173C233.425 170.54 233.391 170.99 233.391 171.522C233.391 172.073 233.425 172.536 233.492 172.909C233.566 173.283 233.71 173.583 233.924 173.809C234.144 174.036 234.463 174.149 234.879 174.149C235.289 174.149 235.602 174.036 235.816 173.809C236.036 173.583 236.18 173.283 236.247 172.909C236.321 172.536 236.358 172.073 236.358 171.522Z" fill="white"/>
<path d="M143.52 18.8984C143.291 17.47 142.173 16.6351 140.761 16.6351C139.032 16.6351 137.757 17.9298 137.757 20.0659C137.757 22.2019 139.026 23.4966 140.761 23.4966C142.228 23.4966 143.301 22.5769 143.52 21.2562L142.502 21.2529C142.329 22.1073 141.612 22.5769 140.767 22.5769C139.623 22.5769 138.758 21.6997 138.758 20.0659C138.758 18.4451 139.619 17.5548 140.771 17.5548C141.622 17.5548 142.336 18.0342 142.502 18.8984H143.52ZM149.02 16.7265V21.0377C149.02 21.9443 148.394 22.5965 147.377 22.5965C146.363 22.5965 145.733 21.9443 145.733 21.0377V16.7265H144.726V21.1192C144.726 22.5215 145.776 23.5162 147.377 23.5162C148.978 23.5162 150.031 22.5215 150.031 21.1192V16.7265H149.02ZM151.496 23.4053H152.504V20.8779H153.874C153.897 20.8779 153.916 20.8779 153.939 20.8779L155.296 23.4053H156.444L154.963 20.7018C155.782 20.3985 156.189 19.7169 156.189 18.8201C156.189 17.5907 155.426 16.7265 153.877 16.7265H151.496V23.4053ZM152.504 20.0104V17.5907H153.769C154.764 17.5907 155.175 18.0635 155.175 18.8201C155.175 19.5734 154.764 20.0104 153.783 20.0104H152.504ZM157.415 23.4053H158.423V20.8779H159.793C159.816 20.8779 159.835 20.8779 159.858 20.8779L161.215 23.4053H162.363L160.882 20.7018C161.701 20.3985 162.108 19.7169 162.108 18.8201C162.108 17.5907 161.345 16.7265 159.796 16.7265H157.415V23.4053ZM158.423 20.0104V17.5907H159.688C160.683 17.5907 161.094 18.0635 161.094 18.8201C161.094 19.5734 160.683 20.0104 159.702 20.0104H158.423ZM163.334 23.4053H167.561V22.5378H164.342V20.4931H167.303V19.6289H164.342V17.5939H167.522V16.7265H163.334V23.4053ZM174.258 16.7265H173.261V21.6312H173.199L169.8 16.7265H168.868V23.4053H169.875V18.507H169.937L173.332 23.4053H174.258V16.7265ZM175.399 17.5939H177.48V23.4053H178.484V17.5939H180.568V16.7265H175.399V17.5939ZM184.14 23.4053H185.148V20.4931H188.478V23.4053H189.489V16.7265H188.478V19.6289H185.148V16.7265H184.14V23.4053ZM196.758 20.0659C196.758 17.9298 195.479 16.6351 193.751 16.6351C192.016 16.6351 190.741 17.9298 190.741 20.0659C190.741 22.1987 192.016 23.4966 193.751 23.4966C195.479 23.4966 196.758 22.2019 196.758 20.0659ZM195.76 20.0659C195.76 21.6932 194.899 22.5769 193.751 22.5769C192.6 22.5769 191.742 21.6932 191.742 20.0659C191.742 18.4386 192.6 17.5548 193.751 17.5548C194.899 17.5548 195.76 18.4386 195.76 20.0659ZM198.014 23.4053H202.048V22.5378H199.022V16.7265H198.014V23.4053ZM205.36 23.4053C207.395 23.4053 208.572 22.1432 208.572 20.0561C208.572 17.9787 207.395 16.7265 205.428 16.7265H203.198V23.4053H205.36ZM204.205 22.5248V17.607H205.366C206.827 17.607 207.581 18.481 207.581 20.0561C207.581 21.6377 206.827 22.5248 205.304 22.5248H204.205ZM210.833 16.7265H209.825V23.4053H210.833V16.7265ZM217.691 16.7265H216.693V21.6312H216.631L213.233 16.7265H212.3V23.4053H213.308V18.507H213.37L216.765 23.4053H217.691V16.7265ZM223.681 18.8364H224.715C224.49 17.5352 223.378 16.6351 221.936 16.6351C220.208 16.6351 218.946 17.9363 218.946 20.0691C218.946 22.1823 220.172 23.4966 221.982 23.4966C223.603 23.4966 224.76 22.4335 224.76 20.7474V19.9876H222.135V20.8192H223.785C223.763 21.8954 223.052 22.5769 221.982 22.5769C220.805 22.5769 219.947 21.6867 219.947 20.0626C219.947 18.4451 220.811 17.5548 221.943 17.5548C222.83 17.5548 223.43 18.044 223.681 18.8364Z" fill="#263238"/>
<path d="M143.525 41.1559C143.565 40.3396 143.851 39.7111 144.382 39.2703C144.92 38.8213 145.626 38.5968 146.5 38.5968C147.096 38.5968 147.606 38.7029 148.03 38.9152C148.455 39.1192 148.773 39.4009 148.986 39.76C149.206 40.111 149.316 40.511 149.316 40.96C149.316 41.4743 149.181 41.911 148.912 42.2702C148.651 42.6212 148.337 42.8579 147.969 42.9803V43.0293C148.443 43.1762 148.81 43.4375 149.071 43.813C149.341 44.1885 149.475 44.6701 149.475 45.2578C149.475 45.7476 149.361 46.1843 149.133 46.568C148.912 46.9516 148.581 47.2537 148.141 47.4741C147.708 47.6863 147.186 47.7924 146.573 47.7924C145.651 47.7924 144.9 47.5598 144.32 47.0945C143.741 46.6292 143.435 45.9435 143.402 45.0374H145.067C145.084 45.4374 145.218 45.7598 145.471 46.0047C145.733 46.2415 146.088 46.3598 146.537 46.3598C146.953 46.3598 147.271 46.2455 147.492 46.017C147.72 45.7802 147.835 45.4782 147.835 45.1109C147.835 44.6211 147.679 44.2701 147.369 44.0579C147.059 43.8456 146.577 43.7395 145.924 43.7395H145.569V42.3314H145.924C147.084 42.3314 147.663 41.9436 147.663 41.1682C147.663 40.8171 147.557 40.5437 147.345 40.3478C147.141 40.1519 146.843 40.0539 146.451 40.0539C146.067 40.0539 145.769 40.16 145.557 40.3723C145.353 40.5763 145.235 40.8375 145.202 41.1559H143.525ZM153.409 45.9313L151.977 49.372H150.875L151.671 45.9313H153.409ZM156.943 45.2211C157.008 45.5803 157.155 45.8578 157.384 46.0537C157.62 46.2415 157.935 46.3353 158.327 46.3353C158.833 46.3353 159.2 46.1272 159.429 45.7109C159.657 45.2864 159.771 44.5762 159.771 43.5803C159.584 43.8415 159.318 44.0456 158.976 44.1925C158.641 44.3395 158.278 44.4129 157.886 44.4129C157.363 44.4129 156.89 44.3068 156.465 44.0946C156.049 43.8742 155.718 43.5517 155.474 43.1273C155.229 42.6946 155.106 42.1722 155.106 41.56C155.106 40.6539 155.376 39.9355 155.914 39.4049C156.453 38.8662 157.188 38.5968 158.118 38.5968C159.278 38.5968 160.094 38.9682 160.567 39.7111C161.049 40.4539 161.29 41.5722 161.29 43.066C161.29 44.1272 161.196 44.9966 161.008 45.6741C160.829 46.3517 160.514 46.8659 160.065 47.2169C159.624 47.5679 159.02 47.7434 158.253 47.7434C157.649 47.7434 157.135 47.6292 156.71 47.4006C156.286 47.1639 155.959 46.8578 155.731 46.4823C155.51 46.0986 155.384 45.6782 155.351 45.2211H156.943ZM158.241 43.0171C158.665 43.0171 159 42.8865 159.245 42.6252C159.49 42.364 159.612 42.013 159.612 41.5722C159.612 41.0906 159.482 40.7192 159.22 40.458C158.967 40.1886 158.62 40.0539 158.18 40.0539C157.739 40.0539 157.388 40.1927 157.127 40.4702C156.874 40.7396 156.747 41.0988 156.747 41.5477C156.747 41.9804 156.869 42.3355 157.114 42.613C157.367 42.8824 157.743 43.0171 158.241 43.0171ZM163.134 43.1518C163.134 41.7396 163.387 40.6335 163.893 39.8335C164.408 39.0335 165.257 38.6335 166.44 38.6335C167.624 38.6335 168.469 39.0335 168.975 39.8335C169.489 40.6335 169.746 41.7396 169.746 43.1518C169.746 44.5721 169.489 45.6864 168.975 46.4945C168.469 47.3026 167.624 47.7067 166.44 47.7067C165.257 47.7067 164.408 47.3026 163.893 46.4945C163.387 45.6864 163.134 44.5721 163.134 43.1518ZM168.057 43.1518C168.057 42.5477 168.016 42.0416 167.934 41.6334C167.861 41.2171 167.706 40.8784 167.469 40.6171C167.24 40.3559 166.897 40.2253 166.44 40.2253C165.983 40.2253 165.636 40.3559 165.4 40.6171C165.171 40.8784 165.016 41.2171 164.934 41.6334C164.861 42.0416 164.824 42.5477 164.824 43.1518C164.824 43.7721 164.861 44.2946 164.934 44.7191C165.008 45.1354 165.163 45.4741 165.4 45.7353C165.636 45.9884 165.983 46.1149 166.44 46.1149C166.897 46.1149 167.244 45.9884 167.481 45.7353C167.718 45.4741 167.873 45.1354 167.946 44.7191C168.02 44.2946 168.057 43.7721 168.057 43.1518ZM173.63 45.9313L172.197 49.372H171.095L171.891 45.9313H173.63ZM175.179 43.1518C175.179 41.7396 175.433 40.6335 175.939 39.8335C176.453 39.0335 177.302 38.6335 178.485 38.6335C179.669 38.6335 180.514 39.0335 181.02 39.8335C181.534 40.6335 181.792 41.7396 181.792 43.1518C181.792 44.5721 181.534 45.6864 181.02 46.4945C180.514 47.3026 179.669 47.7067 178.485 47.7067C177.302 47.7067 176.453 47.3026 175.939 46.4945C175.433 45.6864 175.179 44.5721 175.179 43.1518ZM180.102 43.1518C180.102 42.5477 180.061 42.0416 179.979 41.6334C179.906 41.2171 179.751 40.8784 179.514 40.6171C179.285 40.3559 178.943 40.2253 178.485 40.2253C178.028 40.2253 177.681 40.3559 177.445 40.6171C177.216 40.8784 177.061 41.2171 176.979 41.6334C176.906 42.0416 176.869 42.5477 176.869 43.1518C176.869 43.7721 176.906 44.2946 176.979 44.7191C177.053 45.1354 177.208 45.4741 177.445 45.7353C177.681 45.9884 178.028 46.1149 178.485 46.1149C178.943 46.1149 179.29 45.9884 179.526 45.7353C179.763 45.4741 179.918 45.1354 179.992 44.7191C180.065 44.2946 180.102 43.7721 180.102 43.1518ZM183.606 43.1518C183.606 41.7396 183.859 40.6335 184.365 39.8335C184.879 39.0335 185.728 38.6335 186.912 38.6335C188.095 38.6335 188.94 39.0335 189.446 39.8335C189.96 40.6335 190.218 41.7396 190.218 43.1518C190.218 44.5721 189.96 45.6864 189.446 46.4945C188.94 47.3026 188.095 47.7067 186.912 47.7067C185.728 47.7067 184.879 47.3026 184.365 46.4945C183.859 45.6864 183.606 44.5721 183.606 43.1518ZM188.528 43.1518C188.528 42.5477 188.487 42.0416 188.405 41.6334C188.332 41.2171 188.177 40.8784 187.94 40.6171C187.712 40.3559 187.369 40.2253 186.912 40.2253C186.454 40.2253 186.108 40.3559 185.871 40.6171C185.642 40.8784 185.487 41.2171 185.405 41.6334C185.332 42.0416 185.295 42.5477 185.295 43.1518C185.295 43.7721 185.332 44.2946 185.405 44.7191C185.479 45.1354 185.634 45.4741 185.871 45.7353C186.108 45.9884 186.454 46.1149 186.912 46.1149C187.369 46.1149 187.716 45.9884 187.952 45.7353C188.189 45.4741 188.344 45.1354 188.418 44.7191C188.491 44.2946 188.528 43.7721 188.528 43.1518ZM194.101 45.9313L192.668 49.372H191.566L192.362 45.9313H194.101ZM195.651 43.1518C195.651 41.7396 195.904 40.6335 196.41 39.8335C196.924 39.0335 197.773 38.6335 198.957 38.6335C200.14 38.6335 200.985 39.0335 201.491 39.8335C202.006 40.6335 202.263 41.7396 202.263 43.1518C202.263 44.5721 202.006 45.6864 201.491 46.4945C200.985 47.3026 200.14 47.7067 198.957 47.7067C197.773 47.7067 196.924 47.3026 196.41 46.4945C195.904 45.6864 195.651 44.5721 195.651 43.1518ZM200.573 43.1518C200.573 42.5477 200.532 42.0416 200.451 41.6334C200.377 41.2171 200.222 40.8784 199.985 40.6171C199.757 40.3559 199.414 40.2253 198.957 40.2253C198.5 40.2253 198.153 40.3559 197.916 40.6171C197.687 40.8784 197.532 41.2171 197.451 41.6334C197.377 42.0416 197.34 42.5477 197.34 43.1518C197.34 43.7721 197.377 44.2946 197.451 44.7191C197.524 45.1354 197.679 45.4741 197.916 45.7353C198.153 45.9884 198.5 46.1149 198.957 46.1149C199.414 46.1149 199.761 45.9884 199.998 45.7353C200.234 45.4741 200.389 45.1354 200.463 44.7191C200.536 44.2946 200.573 43.7721 200.573 43.1518ZM204.077 43.1518C204.077 41.7396 204.33 40.6335 204.836 39.8335C205.35 39.0335 206.199 38.6335 207.383 38.6335C208.566 38.6335 209.411 39.0335 209.917 39.8335C210.432 40.6335 210.689 41.7396 210.689 43.1518C210.689 44.5721 210.432 45.6864 209.917 46.4945C209.411 47.3026 208.566 47.7067 207.383 47.7067C206.199 47.7067 205.35 47.3026 204.836 46.4945C204.33 45.6864 204.077 44.5721 204.077 43.1518ZM208.999 43.1518C208.999 42.5477 208.958 42.0416 208.877 41.6334C208.803 41.2171 208.648 40.8784 208.411 40.6171C208.183 40.3559 207.84 40.2253 207.383 40.2253C206.926 40.2253 206.579 40.3559 206.342 40.6171C206.113 40.8784 205.958 41.2171 205.877 41.6334C205.803 42.0416 205.767 42.5477 205.767 43.1518C205.767 43.7721 205.803 44.2946 205.877 44.7191C205.95 45.1354 206.105 45.4741 206.342 45.7353C206.579 45.9884 206.926 46.1149 207.383 46.1149C207.84 46.1149 208.187 45.9884 208.424 45.7353C208.66 45.4741 208.815 45.1354 208.889 44.7191C208.962 44.2946 208.999 43.7721 208.999 43.1518ZM212.503 43.1518C212.503 41.7396 212.756 40.6335 213.262 39.8335C213.776 39.0335 214.625 38.6335 215.809 38.6335C216.993 38.6335 217.837 39.0335 218.344 39.8335C218.858 40.6335 219.115 41.7396 219.115 43.1518C219.115 44.5721 218.858 45.6864 218.344 46.4945C217.837 47.3026 216.993 47.7067 215.809 47.7067C214.625 47.7067 213.776 47.3026 213.262 46.4945C212.756 45.6864 212.503 44.5721 212.503 43.1518ZM217.425 43.1518C217.425 42.5477 217.384 42.0416 217.303 41.6334C217.229 41.2171 217.074 40.8784 216.837 40.6171C216.609 40.3559 216.266 40.2253 215.809 40.2253C215.352 40.2253 215.005 40.3559 214.768 40.6171C214.54 40.8784 214.384 41.2171 214.303 41.6334C214.229 42.0416 214.193 42.5477 214.193 43.1518C214.193 43.7721 214.229 44.2946 214.303 44.7191C214.376 45.1354 214.531 45.4741 214.768 45.7353C215.005 45.9884 215.352 46.1149 215.809 46.1149C216.266 46.1149 216.613 45.9884 216.85 45.7353C217.086 45.4741 217.241 45.1354 217.315 44.7191C217.388 44.2946 217.425 43.7721 217.425 43.1518Z" fill="#263238"/>
<path d="M197.559 207.054H196.636C196.58 206.741 196.46 206.46 196.274 206.222L197.337 206.232L197.559 205.475H193.332L193.111 206.206H194.011L194.513 206.209C195.217 206.248 195.628 206.552 195.768 207.054H193.332L193.111 207.81H195.791C195.661 208.397 195.155 208.684 194.363 208.684H193.176L193.189 209.232L195.576 212.154H196.593V212.102L194.389 209.402H194.408C195.866 209.402 196.525 208.701 196.649 207.81H197.337L197.559 207.054ZM201.901 210.373C201.962 210.722 202.103 210.991 202.324 211.181C202.55 211.371 202.853 211.466 203.233 211.466C203.741 211.466 204.114 211.267 204.353 210.869C204.598 210.471 204.714 209.8 204.702 208.857C204.573 209.133 204.359 209.35 204.059 209.509C203.759 209.663 203.426 209.739 203.058 209.739C202.648 209.739 202.281 209.656 201.956 209.491C201.638 209.32 201.387 209.072 201.203 208.747C201.02 208.423 200.928 208.031 200.928 207.572C200.928 206.917 201.117 206.39 201.497 205.992C201.877 205.588 202.415 205.386 203.113 205.386C203.97 205.386 204.57 205.665 204.913 206.222C205.262 206.779 205.437 207.609 205.437 208.711C205.437 209.482 205.366 210.119 205.225 210.621C205.091 211.123 204.858 211.505 204.528 211.769C204.203 212.032 203.756 212.163 203.187 212.163C202.562 212.163 202.076 211.995 201.727 211.658C201.378 211.322 201.179 210.893 201.13 210.373H201.901ZM203.196 209.032C203.606 209.032 203.943 208.906 204.206 208.655C204.469 208.398 204.601 208.052 204.601 207.618C204.601 207.159 204.472 206.788 204.215 206.507C203.958 206.225 203.597 206.084 203.132 206.084C202.703 206.084 202.36 206.219 202.103 206.488C201.852 206.758 201.727 207.113 201.727 207.553C201.727 208 201.852 208.359 202.103 208.628C202.354 208.897 202.718 209.032 203.196 209.032ZM207.612 210.997L206.584 213.468H206.023L206.694 210.997H207.612ZM212.518 206.167L209.965 212.154H209.12L211.71 206.249H208.165V205.533H212.518V206.167ZM217.678 206.24H214.455V208.334C214.596 208.138 214.804 207.979 215.079 207.856C215.355 207.728 215.652 207.664 215.97 207.664C216.478 207.664 216.892 207.771 217.21 207.985C217.528 208.193 217.755 208.466 217.89 208.802C218.03 209.133 218.101 209.485 218.101 209.858C218.101 210.299 218.018 210.694 217.853 211.043C217.688 211.392 217.433 211.668 217.091 211.87C216.754 212.072 216.335 212.173 215.833 212.173C215.19 212.173 214.669 212.007 214.271 211.677C213.873 211.346 213.632 210.905 213.546 210.354H214.363C214.443 210.703 214.611 210.976 214.868 211.172C215.125 211.368 215.45 211.466 215.842 211.466C216.325 211.466 216.69 211.322 216.935 211.034C217.179 210.74 217.302 210.354 217.302 209.877C217.302 209.399 217.179 209.032 216.935 208.775C216.69 208.512 216.328 208.38 215.851 208.38C215.526 208.38 215.242 208.46 214.997 208.619C214.758 208.772 214.584 208.983 214.473 209.252H213.684V205.506H217.678V206.24ZM220.212 210.997L219.184 213.468H218.624L219.294 210.997H220.212ZM221.032 208.766C221.032 207.713 221.203 206.892 221.546 206.304C221.889 205.711 222.489 205.414 223.346 205.414C224.197 205.414 224.794 205.711 225.137 206.304C225.48 206.892 225.651 207.713 225.651 208.766C225.651 209.837 225.48 210.67 225.137 211.264C224.794 211.857 224.197 212.154 223.346 212.154C222.489 212.154 221.889 211.857 221.546 211.264C221.203 210.67 221.032 209.837 221.032 208.766ZM224.825 208.766C224.825 208.233 224.788 207.783 224.714 207.416C224.647 207.042 224.503 206.742 224.283 206.516C224.069 206.289 223.756 206.176 223.346 206.176C222.93 206.176 222.611 206.289 222.391 206.516C222.177 206.742 222.033 207.042 221.959 207.416C221.892 207.783 221.858 208.233 221.858 208.766C221.858 209.317 221.892 209.779 221.959 210.152C222.033 210.526 222.177 210.826 222.391 211.052C222.611 211.279 222.93 211.392 223.346 211.392C223.756 211.392 224.069 211.279 224.283 211.052C224.503 210.826 224.647 210.526 224.714 210.152C224.788 209.779 224.825 209.317 224.825 208.766ZM226.798 208.766C226.798 207.713 226.97 206.892 227.313 206.304C227.655 205.711 228.255 205.414 229.113 205.414C229.964 205.414 230.561 205.711 230.903 206.304C231.246 206.892 231.418 207.713 231.418 208.766C231.418 209.837 231.246 210.67 230.903 211.264C230.561 211.857 229.964 212.154 229.113 212.154C228.255 212.154 227.655 211.857 227.313 211.264C226.97 210.67 226.798 209.837 226.798 208.766ZM230.591 208.766C230.591 208.233 230.554 207.783 230.481 207.416C230.414 207.042 230.27 206.742 230.049 206.516C229.835 206.289 229.523 206.176 229.113 206.176C228.696 206.176 228.378 206.289 228.158 206.516C227.943 206.742 227.799 207.042 227.726 207.416C227.659 207.783 227.625 208.233 227.625 208.766C227.625 209.317 227.659 209.779 227.726 210.152C227.799 210.526 227.943 210.826 228.158 211.052C228.378 211.279 228.696 211.392 229.113 211.392C229.523 211.392 229.835 211.279 230.049 211.052C230.27 210.826 230.414 210.526 230.481 210.152C230.554 209.779 230.591 209.317 230.591 208.766ZM232.565 208.766C232.565 207.713 232.736 206.892 233.079 206.304C233.422 205.711 234.022 205.414 234.879 205.414C235.73 205.414 236.327 205.711 236.67 206.304C237.013 206.892 237.184 207.713 237.184 208.766C237.184 209.837 237.013 210.67 236.67 211.264C236.327 211.857 235.73 212.154 234.879 212.154C234.022 212.154 233.422 211.857 233.079 211.264C232.736 210.67 232.565 209.837 232.565 208.766ZM236.358 208.766C236.358 208.233 236.321 207.783 236.247 207.416C236.18 207.042 236.036 206.742 235.816 206.516C235.602 206.289 235.289 206.176 234.879 206.176C234.463 206.176 234.144 206.289 233.924 206.516C233.71 206.742 233.566 207.042 233.492 207.416C233.425 207.783 233.391 208.233 233.391 208.766C233.391 209.317 233.425 209.779 233.492 210.152C233.566 210.526 233.71 210.826 233.924 211.052C234.144 211.279 234.463 211.392 234.879 211.392C235.289 211.392 235.602 211.279 235.816 211.052C236.036 210.826 236.18 210.526 236.247 210.152C236.321 209.779 236.358 209.317 236.358 208.766Z" fill="white"/>
<path d="M197.559 245.319H196.636C196.58 245.005 196.46 244.725 196.274 244.487L197.337 244.497L197.559 243.74H193.332L193.111 244.471H194.011L194.513 244.474C195.217 244.513 195.628 244.816 195.768 245.319H193.332L193.111 246.075H195.791C195.661 246.662 195.155 246.949 194.363 246.949H193.176L193.189 247.497L195.576 250.419H196.593V250.367L194.389 247.667H194.408C195.866 247.667 196.525 246.965 196.649 246.075H197.337L197.559 245.319ZM201.901 248.637C201.962 248.986 202.103 249.256 202.324 249.446C202.55 249.635 202.853 249.73 203.233 249.73C203.741 249.73 204.114 249.531 204.353 249.133C204.598 248.735 204.714 248.065 204.702 247.122C204.573 247.398 204.359 247.615 204.059 247.774C203.759 247.927 203.426 248.004 203.058 248.004C202.648 248.004 202.281 247.921 201.956 247.756C201.638 247.584 201.387 247.336 201.203 247.012C201.02 246.687 200.928 246.296 200.928 245.836C200.928 245.181 201.117 244.655 201.497 244.257C201.877 243.853 202.415 243.651 203.113 243.651C203.97 243.651 204.57 243.929 204.913 244.486C205.262 245.044 205.437 245.873 205.437 246.975C205.437 247.747 205.366 248.383 205.225 248.885C205.091 249.387 204.858 249.77 204.528 250.033C204.203 250.297 203.756 250.428 203.187 250.428C202.562 250.428 202.076 250.26 201.727 249.923C201.378 249.586 201.179 249.158 201.13 248.637H201.901ZM203.196 247.297C203.606 247.297 203.943 247.171 204.206 246.92C204.469 246.663 204.601 246.317 204.601 245.882C204.601 245.423 204.472 245.053 204.215 244.771C203.958 244.49 203.597 244.349 203.132 244.349C202.703 244.349 202.36 244.483 202.103 244.753C201.852 245.022 201.727 245.377 201.727 245.818C201.727 246.265 201.852 246.623 202.103 246.893C202.354 247.162 202.718 247.297 203.196 247.297ZM207.612 249.262L206.584 251.732H206.023L206.694 249.262H207.612ZM212.518 244.431L209.965 250.419H209.12L211.71 244.514H208.165V243.798H212.518V244.431ZM217.678 244.505H214.455V246.599C214.596 246.403 214.804 246.244 215.079 246.121C215.355 245.993 215.652 245.928 215.97 245.928C216.478 245.928 216.892 246.035 217.21 246.25C217.528 246.458 217.755 246.73 217.89 247.067C218.03 247.398 218.101 247.75 218.101 248.123C218.101 248.564 218.018 248.959 217.853 249.308C217.688 249.657 217.433 249.932 217.091 250.134C216.754 250.336 216.335 250.437 215.833 250.437C215.19 250.437 214.669 250.272 214.271 249.941C213.873 249.611 213.632 249.17 213.546 248.619H214.363C214.443 248.968 214.611 249.24 214.868 249.436C215.125 249.632 215.45 249.73 215.842 249.73C216.325 249.73 216.69 249.586 216.935 249.299C217.179 249.005 217.302 248.619 217.302 248.141C217.302 247.664 217.179 247.297 216.935 247.039C216.69 246.776 216.328 246.645 215.851 246.645C215.526 246.645 215.242 246.724 214.997 246.883C214.758 247.036 214.584 247.248 214.473 247.517H213.684V243.77H217.678V244.505ZM220.212 249.262L219.184 251.732H218.624L219.294 249.262H220.212ZM221.032 247.03C221.032 245.977 221.203 245.157 221.546 244.569C221.889 243.975 222.489 243.678 223.346 243.678C224.197 243.678 224.794 243.975 225.137 244.569C225.48 245.157 225.651 245.977 225.651 247.03C225.651 248.102 225.48 248.934 225.137 249.528C224.794 250.122 224.197 250.419 223.346 250.419C222.489 250.419 221.889 250.122 221.546 249.528C221.203 248.934 221.032 248.102 221.032 247.03ZM224.825 247.03C224.825 246.498 224.788 246.048 224.714 245.68C224.647 245.307 224.503 245.007 224.283 244.78C224.069 244.554 223.756 244.441 223.346 244.441C222.93 244.441 222.611 244.554 222.391 244.78C222.177 245.007 222.033 245.307 221.959 245.68C221.892 246.048 221.858 246.498 221.858 247.03C221.858 247.581 221.892 248.044 221.959 248.417C222.033 248.79 222.177 249.09 222.391 249.317C222.611 249.543 222.93 249.657 223.346 249.657C223.756 249.657 224.069 249.543 224.283 249.317C224.503 249.09 224.647 248.79 224.714 248.417C224.788 248.044 224.825 247.581 224.825 247.03ZM226.798 247.03C226.798 245.977 226.97 245.157 227.313 244.569C227.655 243.975 228.255 243.678 229.113 243.678C229.964 243.678 230.561 243.975 230.903 244.569C231.246 245.157 231.418 245.977 231.418 247.03C231.418 248.102 231.246 248.934 230.903 249.528C230.561 250.122 229.964 250.419 229.113 250.419C228.255 250.419 227.655 250.122 227.313 249.528C226.97 248.934 226.798 248.102 226.798 247.03ZM230.591 247.03C230.591 246.498 230.554 246.048 230.481 245.68C230.414 245.307 230.27 245.007 230.049 244.78C229.835 244.554 229.523 244.441 229.113 244.441C228.696 244.441 228.378 244.554 228.158 244.78C227.943 245.007 227.799 245.307 227.726 245.68C227.659 246.048 227.625 246.498 227.625 247.03C227.625 247.581 227.659 248.044 227.726 248.417C227.799 248.79 227.943 249.09 228.158 249.317C228.378 249.543 228.696 249.657 229.113 249.657C229.523 249.657 229.835 249.543 230.049 249.317C230.27 249.09 230.414 248.79 230.481 248.417C230.554 248.044 230.591 247.581 230.591 247.03ZM232.565 247.03C232.565 245.977 232.736 245.157 233.079 244.569C233.422 243.975 234.022 243.678 234.879 243.678C235.73 243.678 236.327 243.975 236.67 244.569C237.013 245.157 237.184 245.977 237.184 247.03C237.184 248.102 237.013 248.934 236.67 249.528C236.327 250.122 235.73 250.419 234.879 250.419C234.022 250.419 233.422 250.122 233.079 249.528C232.736 248.934 232.565 248.102 232.565 247.03ZM236.358 247.03C236.358 246.498 236.321 246.048 236.247 245.68C236.18 245.307 236.036 245.007 235.816 244.78C235.602 244.554 235.289 244.441 234.879 244.441C234.463 244.441 234.144 244.554 233.924 244.78C233.71 245.007 233.566 245.307 233.492 245.68C233.425 246.048 233.391 246.498 233.391 247.03C233.391 247.581 233.425 248.044 233.492 248.417C233.566 248.79 233.71 249.09 233.924 249.317C234.144 249.543 234.463 249.657 234.879 249.657C235.289 249.657 235.602 249.543 235.816 249.317C236.036 249.09 236.18 248.79 236.247 248.417C236.321 248.044 236.358 247.581 236.358 247.03Z" fill="white"/>
<path d="M188.268 102.668C188.268 102.162 188.118 101.668 187.837 101.248C187.556 100.828 187.157 100.5 186.69 100.307C186.223 100.113 185.709 100.063 185.213 100.161C184.718 100.26 184.262 100.503 183.905 100.861C183.547 101.218 183.304 101.673 183.205 102.169C183.107 102.665 183.157 103.179 183.351 103.646C183.544 104.113 183.872 104.512 184.292 104.793C184.712 105.074 185.207 105.224 185.712 105.224C186.39 105.224 187.04 104.954 187.519 104.475C187.998 103.996 188.268 103.346 188.268 102.668Z" fill="#263238"/>
<path d="M199.7 100.84V105.076H199.143V101.917L197.735 105.076H197.343L195.928 101.911V105.076H195.371V100.84H195.971L197.539 104.342L199.106 100.84H199.7ZM203.62 101.721V105.076H203.063V104.58C202.957 104.752 202.808 104.886 202.616 104.984C202.428 105.078 202.22 105.125 201.991 105.125C201.73 105.125 201.496 105.072 201.287 104.966C201.079 104.856 200.914 104.693 200.792 104.476C200.673 104.26 200.614 103.997 200.614 103.686V101.721H201.165V103.613C201.165 103.944 201.249 104.199 201.416 104.378C201.583 104.554 201.812 104.641 202.102 104.641C202.4 104.641 202.634 104.55 202.806 104.366C202.977 104.182 203.063 103.915 203.063 103.564V101.721H203.62ZM205.24 102.18V104.158C205.24 104.321 205.275 104.437 205.344 104.507C205.414 104.572 205.534 104.605 205.706 104.605H206.116V105.076H205.614C205.304 105.076 205.071 105.005 204.916 104.862C204.761 104.719 204.683 104.484 204.683 104.158V102.18H204.248V101.721H204.683V100.876H205.24V101.721H206.116V102.18H205.24ZM209.766 101.721V105.076H209.209V104.58C209.103 104.752 208.954 104.886 208.762 104.984C208.574 105.078 208.366 105.125 208.138 105.125C207.876 105.125 207.642 105.072 207.434 104.966C207.225 104.856 207.06 104.693 206.938 104.476C206.819 104.26 206.76 103.997 206.76 103.686V101.721H207.311V103.613C207.311 103.944 207.395 104.199 207.562 104.378C207.729 104.554 207.958 104.641 208.248 104.641C208.546 104.641 208.78 104.55 208.952 104.366C209.123 104.182 209.209 103.915 209.209 103.564V101.721H209.766ZM210.499 103.386C210.499 103.044 210.568 102.744 210.707 102.486C210.846 102.225 211.035 102.023 211.276 101.88C211.521 101.738 211.793 101.666 212.09 101.666C212.384 101.666 212.639 101.729 212.856 101.856C213.072 101.982 213.233 102.142 213.339 102.333V101.721H213.903V105.076H213.339V104.452C213.229 104.648 213.064 104.811 212.843 104.941C212.627 105.068 212.374 105.131 212.084 105.131C211.786 105.131 211.517 105.058 211.276 104.911C211.035 104.764 210.846 104.558 210.707 104.293C210.568 104.027 210.499 103.725 210.499 103.386ZM213.339 103.393C213.339 103.14 213.288 102.919 213.186 102.731C213.084 102.544 212.946 102.401 212.77 102.303C212.599 102.201 212.409 102.15 212.201 102.15C211.993 102.15 211.803 102.199 211.631 102.297C211.46 102.395 211.323 102.537 211.221 102.725C211.119 102.913 211.068 103.133 211.068 103.386C211.068 103.644 211.119 103.868 211.221 104.06C211.323 104.248 211.46 104.393 211.631 104.495C211.803 104.593 211.993 104.641 212.201 104.641C212.409 104.641 212.599 104.593 212.77 104.495C212.946 104.393 213.084 104.248 213.186 104.06C213.288 103.868 213.339 103.646 213.339 103.393ZM215.401 100.546V105.076H214.844V100.546H215.401ZM220.395 100.809V101.262H218.54V102.701H220.046V103.154H218.54V105.076H217.983V100.809H220.395ZM224.043 101.721V105.076H223.486V104.58C223.38 104.752 223.231 104.886 223.039 104.984C222.852 105.078 222.643 105.125 222.415 105.125C222.154 105.125 221.919 105.072 221.711 104.966C221.503 104.856 221.337 104.693 221.215 104.476C221.097 104.26 221.037 103.997 221.037 103.686V101.721H221.588V103.613C221.588 103.944 221.672 104.199 221.839 104.378C222.007 104.554 222.235 104.641 222.525 104.641C222.823 104.641 223.058 104.55 223.229 104.366C223.401 104.182 223.486 103.915 223.486 103.564V101.721H224.043ZM226.619 101.66C227.027 101.66 227.357 101.784 227.611 102.033C227.864 102.278 227.99 102.633 227.99 103.099V105.076H227.439V103.178C227.439 102.844 227.355 102.588 227.188 102.413C227.021 102.233 226.792 102.144 226.502 102.144C226.209 102.144 225.974 102.235 225.798 102.419C225.627 102.603 225.541 102.87 225.541 103.221V105.076H224.984V101.721H225.541V102.199C225.651 102.027 225.8 101.895 225.988 101.801C226.18 101.707 226.39 101.66 226.619 101.66ZM228.692 103.386C228.692 103.044 228.761 102.744 228.9 102.486C229.039 102.225 229.229 102.023 229.47 101.88C229.714 101.738 229.988 101.666 230.29 101.666C230.551 101.666 230.794 101.727 231.018 101.85C231.243 101.968 231.414 102.125 231.533 102.321V100.546H232.096V105.076H231.533V104.446C231.423 104.646 231.259 104.811 231.043 104.941C230.827 105.068 230.574 105.131 230.284 105.131C229.986 105.131 229.714 105.058 229.47 104.911C229.229 104.764 229.039 104.558 228.9 104.293C228.761 104.027 228.692 103.725 228.692 103.386ZM231.533 103.393C231.533 103.14 231.482 102.919 231.38 102.731C231.278 102.544 231.139 102.401 230.963 102.303C230.792 102.201 230.602 102.15 230.394 102.15C230.186 102.15 229.996 102.199 229.825 102.297C229.653 102.395 229.516 102.537 229.414 102.725C229.312 102.913 229.261 103.133 229.261 103.386C229.261 103.644 229.312 103.868 229.414 104.06C229.516 104.248 229.653 104.393 229.825 104.495C229.996 104.593 230.186 104.641 230.394 104.641C230.602 104.641 230.792 104.593 230.963 104.495C231.139 104.393 231.278 104.248 231.38 104.06C231.482 103.868 231.533 103.646 231.533 103.393Z" fill="white"/>
<path d="M185.712 118.488C187.123 118.488 188.268 117.344 188.268 115.932C188.268 114.521 187.123 113.377 185.712 113.377C184.3 113.377 183.156 114.521 183.156 115.932C183.156 117.344 184.3 118.488 185.712 118.488Z" fill="#919191"/>
<path d="M197.998 114.074V114.527H196.835V118.341H196.278V114.527H195.109V114.074H197.998ZM201.745 116.535C201.745 116.641 201.739 116.753 201.727 116.871H199.045C199.066 117.202 199.178 117.461 199.382 117.649C199.59 117.833 199.841 117.925 200.135 117.925C200.376 117.925 200.576 117.869 200.735 117.759C200.898 117.645 201.013 117.494 201.078 117.306H201.678C201.588 117.629 201.408 117.892 201.139 118.096C200.87 118.296 200.535 118.396 200.135 118.396C199.817 118.396 199.531 118.324 199.278 118.182C199.029 118.039 198.833 117.837 198.69 117.576C198.547 117.31 198.476 117.004 198.476 116.657C198.476 116.31 198.545 116.006 198.684 115.745C198.823 115.484 199.017 115.284 199.266 115.145C199.519 115.002 199.808 114.931 200.135 114.931C200.453 114.931 200.735 115 200.98 115.139C201.225 115.278 201.413 115.469 201.543 115.714C201.678 115.955 201.745 116.229 201.745 116.535ZM201.17 116.418C201.17 116.206 201.123 116.025 201.029 115.874C200.935 115.718 200.806 115.602 200.643 115.525C200.484 115.443 200.306 115.402 200.111 115.402C199.829 115.402 199.588 115.492 199.388 115.672C199.192 115.851 199.08 116.1 199.051 116.418H201.17ZM203.038 115.531C203.136 115.339 203.274 115.19 203.454 115.084C203.638 114.978 203.86 114.925 204.121 114.925V115.5H203.974C203.35 115.5 203.038 115.839 203.038 116.516V118.341H202.481V114.986H203.038V115.531ZM208.799 114.925C209.06 114.925 209.293 114.98 209.497 115.09C209.701 115.196 209.862 115.357 209.981 115.574C210.099 115.79 210.158 116.053 210.158 116.363V118.341H209.607V116.443C209.607 116.108 209.523 115.853 209.356 115.678C209.193 115.498 208.97 115.408 208.689 115.408C208.399 115.408 208.168 115.502 207.997 115.69C207.826 115.874 207.74 116.141 207.74 116.492V118.341H207.189V116.443C207.189 116.108 207.105 115.853 206.938 115.678C206.775 115.498 206.552 115.408 206.271 115.408C205.981 115.408 205.75 115.502 205.579 115.69C205.407 115.874 205.322 116.141 205.322 116.492V118.341H204.764V114.986H205.322V115.469C205.432 115.294 205.579 115.159 205.762 115.065C205.95 114.972 206.156 114.925 206.381 114.925C206.662 114.925 206.911 114.988 207.128 115.114C207.344 115.241 207.505 115.427 207.611 115.672C207.705 115.435 207.86 115.251 208.077 115.121C208.293 114.99 208.534 114.925 208.799 114.925ZM213.261 114.074V118.341H212.704V114.074H213.261ZM215.846 114.925C216.254 114.925 216.584 115.049 216.837 115.298C217.09 115.543 217.217 115.898 217.217 116.363V118.341H216.666V116.443C216.666 116.108 216.582 115.853 216.415 115.678C216.248 115.498 216.019 115.408 215.729 115.408C215.435 115.408 215.201 115.5 215.025 115.684C214.854 115.867 214.768 116.135 214.768 116.486V118.341H214.211V114.986H214.768V115.463C214.878 115.292 215.027 115.159 215.215 115.065C215.407 114.972 215.617 114.925 215.846 114.925ZM219.315 118.396C219.058 118.396 218.827 118.353 218.623 118.267C218.419 118.178 218.258 118.055 218.139 117.9C218.021 117.741 217.956 117.559 217.943 117.355H218.519C218.535 117.522 218.613 117.659 218.751 117.765C218.894 117.871 219.08 117.925 219.309 117.925C219.521 117.925 219.688 117.878 219.811 117.784C219.933 117.69 219.994 117.571 219.994 117.429C219.994 117.282 219.929 117.174 219.798 117.104C219.668 117.031 219.466 116.959 219.192 116.89C218.943 116.825 218.739 116.759 218.58 116.694C218.425 116.625 218.29 116.525 218.176 116.394C218.066 116.259 218.011 116.084 218.011 115.867C218.011 115.696 218.062 115.539 218.164 115.396C218.266 115.253 218.411 115.141 218.598 115.059C218.786 114.974 219 114.931 219.241 114.931C219.613 114.931 219.913 115.025 220.141 115.212C220.37 115.4 220.492 115.657 220.509 115.984H219.951C219.939 115.808 219.868 115.667 219.737 115.561C219.611 115.455 219.439 115.402 219.223 115.402C219.023 115.402 218.864 115.445 218.745 115.531C218.627 115.616 218.568 115.729 218.568 115.867C218.568 115.978 218.602 116.069 218.672 116.143C218.745 116.212 218.835 116.269 218.941 116.314C219.051 116.355 219.202 116.402 219.394 116.455C219.635 116.52 219.831 116.586 219.982 116.651C220.133 116.712 220.262 116.806 220.368 116.933C220.478 117.059 220.535 117.225 220.539 117.429C220.539 117.612 220.488 117.778 220.386 117.925C220.284 118.071 220.139 118.188 219.951 118.273C219.768 118.355 219.555 118.396 219.315 118.396ZM224.301 114.986V118.341H223.744V117.845C223.638 118.016 223.489 118.151 223.297 118.249C223.109 118.343 222.901 118.39 222.672 118.39C222.411 118.39 222.177 118.337 221.968 118.231C221.76 118.12 221.595 117.957 221.473 117.741C221.354 117.525 221.295 117.261 221.295 116.951V114.986H221.846V116.878C221.846 117.208 221.93 117.463 222.097 117.643C222.264 117.818 222.493 117.906 222.783 117.906C223.081 117.906 223.315 117.814 223.487 117.631C223.658 117.447 223.744 117.18 223.744 116.829V114.986H224.301ZM225.799 115.531C225.897 115.339 226.036 115.19 226.215 115.084C226.399 114.978 226.621 114.925 226.882 114.925V115.5H226.736C226.111 115.5 225.799 115.839 225.799 116.516V118.341H225.242V114.986H225.799V115.531ZM227.317 116.651C227.317 116.308 227.387 116.008 227.526 115.751C227.664 115.49 227.854 115.288 228.095 115.145C228.34 115.002 228.611 114.931 228.909 114.931C229.203 114.931 229.458 114.994 229.674 115.121C229.891 115.247 230.052 115.406 230.158 115.598V114.986H230.721V118.341H230.158V117.716C230.048 117.912 229.883 118.076 229.662 118.206C229.446 118.333 229.193 118.396 228.903 118.396C228.605 118.396 228.336 118.322 228.095 118.176C227.854 118.029 227.664 117.822 227.526 117.557C227.387 117.292 227.317 116.99 227.317 116.651ZM230.158 116.657C230.158 116.404 230.107 116.184 230.005 115.996C229.903 115.808 229.764 115.665 229.589 115.567C229.417 115.465 229.228 115.414 229.019 115.414C228.811 115.414 228.621 115.463 228.45 115.561C228.279 115.659 228.142 115.802 228.04 115.99C227.938 116.178 227.887 116.398 227.887 116.651C227.887 116.908 227.938 117.133 228.04 117.325C228.142 117.512 228.279 117.657 228.45 117.759C228.621 117.857 228.811 117.906 229.019 117.906C229.228 117.906 229.417 117.857 229.589 117.759C229.764 117.657 229.903 117.512 230.005 117.325C230.107 117.133 230.158 116.91 230.158 116.657ZM233.298 114.925C233.706 114.925 234.036 115.049 234.289 115.298C234.542 115.543 234.669 115.898 234.669 116.363V118.341H234.118V116.443C234.118 116.108 234.034 115.853 233.867 115.678C233.7 115.498 233.471 115.408 233.181 115.408C232.887 115.408 232.653 115.5 232.477 115.684C232.306 115.867 232.22 116.135 232.22 116.486V118.341H231.663V114.986H232.22V115.463C232.33 115.292 232.479 115.159 232.667 115.065C232.859 114.972 233.069 114.925 233.298 114.925ZM235.371 116.657C235.371 116.31 235.44 116.008 235.579 115.751C235.718 115.49 235.91 115.288 236.154 115.145C236.403 115.002 236.687 114.931 237.005 114.931C237.418 114.931 237.756 115.031 238.022 115.231C238.291 115.431 238.469 115.708 238.554 116.063H237.954C237.897 115.859 237.785 115.698 237.618 115.58C237.454 115.461 237.25 115.402 237.005 115.402C236.687 115.402 236.43 115.512 236.234 115.733C236.038 115.949 235.94 116.257 235.94 116.657C235.94 117.061 236.038 117.374 236.234 117.594C236.43 117.814 236.687 117.925 237.005 117.925C237.25 117.925 237.454 117.867 237.618 117.753C237.781 117.639 237.893 117.476 237.954 117.263H238.554C238.465 117.606 238.285 117.882 238.016 118.09C237.746 118.294 237.41 118.396 237.005 118.396C236.687 118.396 236.403 118.324 236.154 118.182C235.91 118.039 235.718 117.837 235.579 117.576C235.44 117.314 235.371 117.008 235.371 116.657ZM242.359 116.535C242.359 116.641 242.353 116.753 242.34 116.871H239.659C239.679 117.202 239.792 117.461 239.996 117.649C240.204 117.833 240.455 117.925 240.749 117.925C240.99 117.925 241.19 117.869 241.349 117.759C241.512 117.645 241.626 117.494 241.692 117.306H242.292C242.202 117.629 242.022 117.892 241.753 118.096C241.483 118.296 241.149 118.396 240.749 118.396C240.43 118.396 240.145 118.324 239.892 118.182C239.643 118.039 239.447 117.837 239.304 117.576C239.161 117.31 239.09 117.004 239.09 116.657C239.09 116.31 239.159 116.006 239.298 115.745C239.437 115.484 239.63 115.284 239.879 115.145C240.132 115.002 240.422 114.931 240.749 114.931C241.067 114.931 241.349 115 241.594 115.139C241.838 115.278 242.026 115.469 242.157 115.714C242.292 115.955 242.359 116.229 242.359 116.535ZM241.783 116.418C241.783 116.206 241.736 116.025 241.643 115.874C241.549 115.718 241.42 115.602 241.257 115.525C241.098 115.443 240.92 115.402 240.724 115.402C240.443 115.402 240.202 115.492 240.002 115.672C239.806 115.851 239.694 116.1 239.665 116.418H241.783Z" fill="white"/>
<path d="M185.712 132.774C187.123 132.774 188.268 131.63 188.268 130.219C188.268 128.807 187.123 127.663 185.712 127.663C184.3 127.663 183.156 128.807 183.156 130.219C183.156 131.63 184.3 132.774 185.712 132.774Z" fill="white"/>
<path d="M198.727 132.627H198.17L195.929 129.229V132.627H195.372V128.354H195.929L198.17 131.745V128.354H198.727V132.627ZM202.529 129.609C202.529 129.964 202.407 130.26 202.162 130.496C201.921 130.729 201.552 130.845 201.054 130.845H200.234V132.627H199.677V128.36H201.054C201.536 128.36 201.901 128.476 202.15 128.709C202.403 128.941 202.529 129.241 202.529 129.609ZM201.054 130.386C201.364 130.386 201.593 130.319 201.74 130.184C201.887 130.049 201.96 129.858 201.96 129.609C201.96 129.082 201.658 128.819 201.054 128.819H200.234V130.386H201.054ZM204.575 132.67C204.293 132.67 204.04 132.621 203.816 132.523C203.595 132.421 203.422 132.282 203.295 132.107C203.169 131.927 203.104 131.721 203.099 131.488H203.693C203.714 131.688 203.795 131.858 203.938 131.996C204.085 132.131 204.297 132.198 204.575 132.198C204.84 132.198 205.048 132.133 205.199 132.002C205.354 131.868 205.432 131.696 205.432 131.488C205.432 131.325 205.387 131.192 205.297 131.09C205.208 130.988 205.095 130.911 204.961 130.858C204.826 130.805 204.644 130.747 204.416 130.686C204.134 130.613 203.908 130.539 203.736 130.466C203.569 130.392 203.424 130.278 203.302 130.123C203.183 129.964 203.124 129.752 203.124 129.486C203.124 129.254 203.183 129.047 203.302 128.868C203.42 128.688 203.585 128.55 203.797 128.452C204.014 128.354 204.261 128.305 204.538 128.305C204.938 128.305 205.265 128.405 205.518 128.605C205.775 128.805 205.92 129.07 205.952 129.401H205.34C205.32 129.237 205.234 129.094 205.083 128.972C204.932 128.845 204.732 128.782 204.483 128.782C204.25 128.782 204.061 128.843 203.914 128.966C203.767 129.084 203.693 129.252 203.693 129.468C203.693 129.623 203.736 129.749 203.822 129.847C203.912 129.945 204.02 130.021 204.146 130.074C204.277 130.123 204.459 130.18 204.691 130.245C204.973 130.323 205.199 130.4 205.371 130.478C205.542 130.552 205.689 130.668 205.812 130.827C205.934 130.982 205.995 131.194 205.995 131.464C205.995 131.672 205.94 131.868 205.83 132.051C205.72 132.235 205.557 132.384 205.34 132.498C205.124 132.613 204.869 132.67 204.575 132.67Z" fill="white"/>
<path d="M52.2798 102.357C52.0154 103.517 51.9819 104.716 52.1812 105.889C52.5326 107.642 51.503 112.63 51.503 112.63L47.7666 135.946L43.2657 135.539C43.2657 135.539 43.7713 136.662 42.8403 138.28C41.9093 139.897 36.0581 142.731 36.0581 142.731C36.0581 142.731 41.6072 148.243 44.3508 149.793C47.0945 151.342 49.8197 151.299 51.5584 149.984C53.2971 148.669 56.2505 143.65 56.2505 143.65C56.2505 143.65 57.7056 118.13 56.9657 112.691C56.5259 109.403 55.6595 106.187 54.3885 103.123C54.2097 102.641 52.2798 102.357 52.2798 102.357Z" fill="white" stroke="#263238" stroke-width="0.617327" stroke-linecap="round" stroke-linejoin="round"/>
<path d="M62.6009 256.232C62.6009 256.232 59.8079 261.09 58.0692 262.245C56.3305 263.399 52.8531 266.029 50.7814 266.566C48.7098 267.103 46.9711 268.239 48.4324 269.492C49.8936 270.745 50.8616 271.054 56.1517 271.276C61.4418 271.499 63.4888 269.863 67.1696 269.795C70.8505 269.727 74.3957 270.783 75.3267 269.005C76.2577 267.227 74.519 259.837 74.519 259.837C74.519 259.837 66.7504 255.195 62.6009 256.232Z" fill="white" stroke="#263238" stroke-width="0.617327" stroke-linecap="round" stroke-linejoin="round"/>
<path d="M75.3275 268.986C75.5806 268.257 75.669 267.481 75.5865 266.714C73.3669 267.905 70.3211 267.245 66.708 267.245C62.7559 267.245 62.0776 269.282 55.1968 269.504C50.0794 269.677 48.5195 268.597 48.0509 268.029C47.7796 268.467 47.8413 268.961 48.4332 269.473C49.9006 270.708 50.8624 271.035 56.1525 271.257C61.4426 271.48 63.4896 269.844 67.1704 269.776C70.8513 269.708 74.3965 270.764 75.3275 268.986Z" fill="white" stroke="#263238" stroke-width="0.617327" stroke-linecap="round" stroke-linejoin="round"/>
<path d="M85.6112 262.226C85.3052 263.927 84.8534 265.597 84.2609 267.22C83.4902 268.998 81.3261 273.394 79.908 274.671C78.4899 275.949 77.3863 278.949 79.8402 279.487C87.467 281.147 91.1849 278.153 93.4045 277.017C95.6241 275.881 95.7351 273.128 95.8707 271.844C96.0064 270.56 97.6095 270.69 97.2333 267.492C96.8572 264.294 96.6168 260.93 96.6168 260.93C96.6168 260.93 88.5152 263.455 85.6112 262.226Z" fill="white" stroke="#263238" stroke-width="0.617327" stroke-linecap="round" stroke-linejoin="round"/>
<path d="M93.2261 275.38C91.5305 276.849 87.8065 278.207 83.8605 278.207C80.8517 278.207 79.1562 277.356 78.5149 276.973C78.2005 278.103 78.4409 279.201 79.8405 279.51C87.4674 281.171 91.1853 278.177 93.4049 277.041C95.6245 275.905 95.7355 273.152 95.8711 271.867C96.0068 270.583 97.6098 270.713 97.2337 267.515C97.1967 267.231 97.1659 266.954 97.1351 266.676C96.7096 267.423 96.1979 268.343 95.8218 269.102C95.0326 270.633 94.9155 273.911 93.2261 275.38Z" fill="white" stroke="#263238" stroke-width="0.617327" stroke-linecap="round" stroke-linejoin="round"/>
<path d="M56.8423 150.688C56.8423 150.688 58.4823 188.011 58.692 192.499C58.9016 196.987 60.8438 222.748 61.3493 224.193C61.8549 225.637 63.7601 251.238 63.7724 251.88C63.7848 252.522 63.8094 253.646 63.8094 253.646C63.8094 253.646 61.8981 254.318 61.9042 254.8C61.9104 255.282 61.6268 257.053 61.6268 257.053C61.6268 257.053 61.9844 258.967 66.4976 260.652C71.0108 262.338 75.7892 260.961 75.7892 260.961C75.7892 260.961 75.9063 258.553 75.8878 257.59C75.8693 256.627 75.3206 252.794 75.3083 252.312C75.2959 251.831 77.5341 233.836 77.3923 225.983C77.2504 218.131 76.3873 212.859 76.3256 209.173C76.2639 205.488 76.2578 179.035 76.2578 179.035L78.0458 180.443C78.0458 180.443 81.9795 220.946 82.5344 225.267C83.0893 229.588 85.9316 253.584 85.9563 255.022C85.9809 256.461 85.8576 258.393 85.8576 258.393L84.1251 260.029L84.1806 262.912C84.1806 262.912 86.9181 263.986 90.303 265.041C93.6879 266.097 96.9927 262.998 96.9927 262.998C97.2306 262.159 97.3753 261.295 97.4243 260.424C97.4243 259.467 97.3565 256.578 97.3565 256.578C97.3565 256.578 99.7117 236.496 99.2925 231.051C98.8732 225.607 97.6031 208.482 97.6031 208.482L100.174 173.807L98.6143 149.626C98.6143 149.626 91.8876 149.589 81.4862 149.78C71.0848 149.972 56.9224 146.379 56.9224 146.379L56.8423 150.688Z" fill="#263238" stroke="#263238" stroke-width="0.617327" stroke-linecap="round" stroke-linejoin="round"/>
<path d="M64.9631 156.224C64.9631 156.224 72.2632 161.224 87.56 157.254L87.5045 154.372C82.8143 154.811 78.0902 154.736 73.4161 154.149C66.671 153.149 63.7793 152.557 63.7793 152.557L64.9631 156.224Z" fill="#828282" stroke="#263238" stroke-width="0.617327" stroke-linecap="round" stroke-linejoin="round"/>
<path d="M76.729 155.582L71.8501 155.262L71.6404 158.465L76.5193 158.785L76.729 155.582Z" fill="white" stroke="#263238" stroke-width="0.617327" stroke-linecap="round" stroke-linejoin="round"/>
<path d="M66.6824 153.954C66.6824 153.954 69.7652 157.744 88.6381 154.837L89.8897 93.4991C89.8897 93.4991 78.2984 89.863 77.4907 89.7149C76.683 89.5667 64.3518 97.808 64.3518 97.808L63.1187 153.053L66.6824 153.954Z" fill="#6DC4E5" stroke="#263238" stroke-width="0.617327" stroke-linecap="round" stroke-linejoin="round"/>
<path d="M72.5462 97.24L74.7165 101.209L69.6299 140.521L74.1123 149.256L78.9215 140.99L76.4121 101.111L80.6602 95.5918L74.994 93.8447L72.5462 97.24Z" fill="#737373" stroke="#263238" stroke-width="0.617327" stroke-linecap="round" stroke-linejoin="round"/>
<path d="M74.7163 101.209L74.4451 103.302L76.4735 102.067L76.4119 101.111L80.66 95.5917L79.433 95.209L73.4277 98.8574L74.7163 101.209Z" fill="#263238"/>
<path d="M78.5515 135.105L69.6854 140.069L69.6299 140.519L71.4364 144.044L78.8536 139.896L78.5515 135.105Z" fill="#263238"/>
<path d="M77.1829 113.383L76.8746 108.506L73.502 110.555L72.793 116.043L77.1829 113.383Z" fill="#263238"/>
<path d="M70.9863 130.013L77.9473 125.457L77.6329 120.487L71.72 124.364L70.9863 130.013Z" fill="#263238"/>
<path d="M69.765 95.1471V112.142C69.765 112.142 68.686 140.854 68.7909 146.626C68.8957 152.398 68.5751 161.22 67.5207 164.924C66.4664 168.628 59.8446 174.183 57.9456 175.356C56.0466 176.529 52.6925 177.208 52.6925 177.208C52.6925 177.208 55.1587 154.88 55.2204 148.626C55.282 142.373 54.425 113.852 54.3633 110.482C54.3017 107.111 51.336 103.179 52.2794 101.555C53.2227 99.9314 62.7609 95.9188 63.5439 95.9003C64.327 95.8817 69.2594 93.2334 69.2594 93.2334L69.765 95.1471Z" fill="white" stroke="#263238" stroke-width="0.617327" stroke-linecap="round" stroke-linejoin="round"/>
<path d="M69.2474 93.2334C67.5013 94.1963 65.7045 95.0638 63.8648 95.8323L62.8413 101.845L65.7823 105.16L63.1249 108.734C63.1249 108.734 64.58 118.167 66.0968 122.316C66.9106 124.538 68.1252 128.606 69.0809 131.89C69.3707 122.408 69.753 112.136 69.753 112.136V95.1409L69.2474 93.2334Z" fill="white" stroke="#263238" stroke-width="0.617327" stroke-linecap="round" stroke-linejoin="round"/>
<path d="M83.071 85.4348L87.2883 90.1759C87.2883 90.1759 87.202 94.1885 84.3596 96.485C82.8058 97.7596 81.1569 98.9133 79.4271 99.9358L76.1408 95.3491L73.9829 95.1824L72.2195 99.5901L70.3698 94.9725C70.3698 94.9725 68.6928 90.6512 72.164 87.8856C75.6353 85.12 78.1878 84.5706 79.1497 84.552C80.1115 84.5335 83.071 85.4348 83.071 85.4348Z" fill="#6DC4E5" stroke="#263238" stroke-width="0.617327" stroke-linecap="round" stroke-linejoin="round"/>
<path d="M59.3886 73.8795C59.3886 73.8795 60.0052 80.8121 60.6218 81.9047C61.2383 82.9974 62.416 85.1828 62.416 85.1828C62.416 85.1828 62.4776 88.6521 63.6059 89.893C64.7342 91.1338 67.2066 97.2391 69.2536 97.2021C71.3006 97.1651 73.9395 95.0661 73.9395 95.0661L74.9136 96.7885C75.8456 95.7243 76.878 94.7526 77.9964 93.8871C79.2296 93.0784 82.1521 88.6089 82.6022 87.3372C82.8492 86.7311 82.9971 86.0891 83.0399 85.4359C83.0399 85.4359 82.7871 80.0775 82.2692 77.7254C81.7513 75.3734 81.6526 70.6385 79.3899 66.5765C77.1271 62.5145 70.3449 62.959 66.5901 64.4467C62.8352 65.9345 58.994 69.6323 58.8707 71.5522C58.7474 73.4721 59.3886 73.8795 59.3886 73.8795Z" fill="white" stroke="#263238" stroke-width="0.617327" stroke-linecap="round" stroke-linejoin="round"/>
<path d="M72.2809 72.5461C73.7175 73.6203 72.3364 75.5402 73.7607 75.8303C74.9938 76.0772 79.1494 74.5339 81.3814 72.0955C81.0109 70.167 80.3498 68.3061 79.4207 66.5766C77.1394 62.5207 70.3758 62.959 66.6209 64.4468C62.866 65.9346 58.994 69.6323 58.8707 71.5522C58.7474 73.4721 59.3886 73.9042 59.3886 73.9042C60.9828 74.352 62.6286 74.5886 64.2841 74.608C66.6456 74.5401 70.8443 71.4658 72.2809 72.5461Z" fill="#263238" stroke="#263238" stroke-width="0.617327" stroke-linecap="round" stroke-linejoin="round"/>
<path d="M78.403 80.0034C78.403 80.0034 78.1872 76.6945 80.0739 76.6575C81.9605 76.6205 82.3428 80.2442 81.7447 81.9912C81.5935 82.4809 81.3113 82.9198 80.9288 83.2604C80.5462 83.601 80.0778 83.8303 79.5744 83.9234C79.5744 83.9234 79.9321 86.2816 79.482 87.5533" stroke="#263238" stroke-width="0.617327" stroke-linecap="round" stroke-linejoin="round"/>
<path d="M73.2433 89.0908C71.6587 88.4735 69.1432 88.8501 69.1432 88.8501C68.9952 89.4674 67.7436 89.9798 67.7436 89.9798L64.7532 89.8748C64.7532 89.8748 64.7224 90.5909 64.6978 91.5293C65.9679 93.7701 67.7806 97.2334 69.2973 97.2025C71.3443 97.1654 73.9832 95.0665 73.9832 95.0665L74.0448 95.1838C74.4723 94.7326 74.9778 94.3624 75.5369 94.0912C76.135 93.9245 74.797 89.6896 73.2433 89.0908Z" fill="#263238" stroke="#263238" stroke-width="0.617327" stroke-linecap="round" stroke-linejoin="round"/>
<path d="M66.4922 92.2081C66.4922 92.2081 70.2779 92.455 71.8193 90.5352" stroke="white" stroke-width="0.617327" stroke-linecap="round" stroke-linejoin="round"/>
<path d="M62.0649 83.4981C63.5077 82.6771 64.9319 84.1895 64.9319 84.1895C64.9319 84.1895 64.5497 89.0911 64.7223 89.8751C64.895 90.6591 67.244 89.9862 67.7126 89.98C68.1812 89.9739 69.1246 89.4553 69.1122 88.838L69.2602 88.2207" fill="white"/>
<path d="M62.0649 83.4981C63.5077 82.6771 64.9319 84.1895 64.9319 84.1895C64.9319 84.1895 64.5497 89.0911 64.7223 89.8751C64.895 90.6591 67.244 89.9862 67.7126 89.98C68.1812 89.9739 69.1246 89.4553 69.1122 88.838L69.2602 88.2207" stroke="#263238" stroke-width="0.617327" stroke-linecap="round" stroke-linejoin="round"/>
<path d="M70.0184 84.8123C70.1417 85.2692 70.0184 85.7075 69.6792 85.7877C69.3401 85.868 69.0257 85.5655 68.927 85.1334C68.8284 84.7012 68.9579 84.2444 69.2662 84.1642C69.5744 84.0839 69.9012 84.3617 70.0184 84.8123Z" fill="#263238"/>
<path d="M64.3955 85.0227C64.5126 85.4795 64.3585 85.9178 64.0502 85.9981C63.7419 86.0783 63.3782 85.7512 63.2795 85.319C63.1809 84.8869 63.2795 84.4301 63.6186 84.3498C63.9577 84.2696 64.2722 84.5721 64.3955 85.0227Z" fill="#263238"/>
<path d="M67.0278 83.1395C67.0278 83.1395 68.1191 81.3307 71.8308 81.6641" stroke="#263238" stroke-width="0.617327" stroke-linecap="round" stroke-linejoin="round"/>
<path d="M87.2876 90.1768C87.2876 90.1768 84.5747 99.5231 82.1085 113.518C79.6422 127.513 80.3883 159.879 80.7829 163.879C81.1775 167.88 84.1061 170.874 86.7018 172.59C89.2976 174.306 100.266 177.152 104.237 177.078C104.237 177.078 102.492 142.804 102.455 140.563C102.418 138.322 108.799 102.289 108.769 100.529C108.738 98.7699 93.7368 92.788 91.8008 92.0164C89.8648 91.2447 87.2876 90.1768 87.2876 90.1768Z" fill="white" stroke="#263238" stroke-width="0.617327" stroke-linecap="round" stroke-linejoin="round"/>
<path d="M87.3872 104.444L92.4615 101.629L91.8018 92.017C89.872 91.2515 87.2886 90.165 87.2886 90.165C87.2886 90.165 84.5757 99.5114 82.1095 113.506C81.2154 118.55 80.7469 125.976 80.5249 133.606C80.5249 132.989 91.438 108.395 91.438 108.395L87.3872 104.444Z" fill="white" stroke="#263238" stroke-width="0.617327" stroke-linecap="round" stroke-linejoin="round"/>
<path d="M36.0459 142.73C36.0459 142.73 36.0459 141.545 38.247 137.976C40.4481 134.408 43.272 135.538 43.272 135.538C43.272 135.538 45.3991 137.754 42.4088 140.372C40.6549 141.923 38.3861 142.764 36.0459 142.73Z" fill="#263238" stroke="#263238" stroke-width="0.617327" stroke-linecap="round" stroke-linejoin="round"/>
<path d="M39.2708 141.927C40.2079 141.31 44.0553 140.575 43.895 136.606C43.6114 136.118 43.2784 135.556 42.9516 135.044C42.1254 133.809 41.6322 132.828 41.6322 132.828C41.6322 132.828 37.6369 131.074 36.6997 133.013C37.0305 135.134 37.4813 137.234 38.05 139.303C38.3699 140.216 38.7788 141.095 39.2708 141.927Z" fill="#BABABA" stroke="#263238" stroke-width="0.617327" stroke-linecap="round" stroke-linejoin="round"/>
<path d="M38.2777 124.575L34.1899 111.024L42.8403 111.345L46.8048 126.988L38.2777 124.575Z" fill="#263238" stroke="#263238" stroke-width="0.617327" stroke-linecap="round" stroke-linejoin="round"/>
<path d="M39.1471 137.384C39.9231 137.199 40.6729 136.917 41.379 136.545C42.1682 136.051 42.7663 133.631 42.7663 133.631C43.9804 133.251 45.1519 132.746 46.2622 132.125C48.0009 131.131 49.5916 130.273 49.4128 129.501C49.234 128.729 47.8098 129.371 47.8098 129.371L48.2599 127.76L47.9146 126.161C47.9146 126.161 47.9146 125.544 47.8838 124.723C47.8529 123.902 46.7308 122.982 46.7308 122.982C46.8332 122.615 46.881 122.234 46.8726 121.852C46.8726 121.235 46.5273 120.581 45.8923 120.618C45.2572 120.655 37.7722 123.167 37.7722 123.167L36.7425 119.34C36.7425 119.34 35.7067 124.007 35.7498 126.408C35.793 128.81 37.4824 135.853 37.4824 136.335" fill="#BABABA"/>
<path d="M39.1471 137.384C39.9231 137.199 40.6729 136.917 41.379 136.545C42.1682 136.051 42.7663 133.631 42.7663 133.631C43.9804 133.251 45.1519 132.746 46.2622 132.125C48.0009 131.131 49.5916 130.273 49.4128 129.501C49.234 128.729 47.8098 129.371 47.8098 129.371L48.2599 127.76L47.9146 126.161C47.9146 126.161 47.9146 125.544 47.8838 124.723C47.8529 123.902 46.7308 122.982 46.7308 122.982C46.8332 122.615 46.881 122.234 46.8726 121.852C46.8726 121.235 46.5273 120.581 45.8923 120.618C45.2572 120.655 37.7722 123.167 37.7722 123.167L36.7425 119.34C36.7425 119.34 35.7067 124.007 35.7498 126.408C35.793 128.81 37.4824 135.853 37.4824 136.335" stroke="#263238" stroke-width="0.617327" stroke-linecap="round" stroke-linejoin="round"/>
<path d="M46.7314 122.982L40.2144 125.341" stroke="#263238" stroke-width="0.617327" stroke-linecap="round" stroke-linejoin="round"/>
<path d="M47.9148 126.16L40.9106 128.376" stroke="#263238" stroke-width="0.617327" stroke-linecap="round" stroke-linejoin="round"/>
<path d="M42.0825 131.402L47.8104 129.371" stroke="#263238" stroke-width="0.617327" stroke-linecap="round" stroke-linejoin="round"/>
<path d="M47.7725 135.946C47.7725 135.946 50.3497 136.86 51.182 138.767" stroke="#263238" stroke-width="0.617327" stroke-linecap="round" stroke-linejoin="round"/>
<path d="M105.871 164.034C105.871 164.034 101.71 168.355 101.728 169.417C101.729 171.195 101.61 172.971 101.37 174.732C101.105 176.584 99.7551 177.492 100.68 178.233C100.991 178.439 101.352 178.559 101.725 178.578C102.098 178.598 102.47 178.517 102.801 178.344C102.801 178.344 100.846 178.961 101.167 180.196C101.488 181.43 106.186 181.319 106.186 181.319L110.97 177.745C112.018 176.967 111.784 172.417 111.741 169.991C111.698 167.565 111.661 165.898 111.661 165.898L105.871 164.034Z" fill="#BABABA" stroke="#263238" stroke-width="0.617327" stroke-linecap="round" stroke-linejoin="round"/>
<path d="M102.801 178.343L103.904 175.182L104.157 172.17" stroke="#263238" stroke-width="0.617327" stroke-linecap="round" stroke-linejoin="round"/>
<path d="M102.677 108.814C102.677 108.814 100.328 120.722 100.359 122.321C100.39 123.92 105.532 142.748 105.532 142.748L103.066 165.879C104.485 166.573 105.94 167.191 107.425 167.731C108.547 168.028 112.9 169.392 112.9 169.392C112.9 169.392 117.333 149.273 118.098 147.335C118.862 145.396 117.931 137.877 117.907 136.76C117.882 135.643 111.235 104.178 111.223 103.696C111.211 103.215 110.668 99.5353 109.7 99.0723C108.732 98.6093 105.039 98.0352 105.039 98.0352" fill="white"/>
<path d="M102.677 108.814C102.677 108.814 100.328 120.722 100.359 122.321C100.39 123.92 105.532 142.748 105.532 142.748L103.066 165.879C104.485 166.573 105.94 167.191 107.425 167.731C108.547 168.028 112.9 169.392 112.9 169.392C112.9 169.392 117.333 149.273 118.098 147.335C118.862 145.396 117.931 137.877 117.907 136.76C117.882 135.643 111.235 104.178 111.223 103.696C111.211 103.215 110.668 99.5353 109.7 99.0723C108.732 98.6093 105.039 98.0352 105.039 98.0352" stroke="#263238" stroke-width="0.617327" stroke-linecap="round" stroke-linejoin="round"/>
</svg>
